G04 #@! TF.GenerationSoftware,KiCad,Pcbnew,(5.0.2)-1*
G04 #@! TF.CreationDate,2019-04-19T09:33:48-05:00*
G04 #@! TF.ProjectId,LSM9DS1Breakout_Hardware,4c534d39-4453-4314-9272-65616b6f7574,rev?*
G04 #@! TF.SameCoordinates,Original*
G04 #@! TF.FileFunction,Soldermask,Bot*
G04 #@! TF.FilePolarity,Negative*
%FSLAX46Y46*%
G04 Gerber Fmt 4.6, Leading zero omitted, Abs format (unit mm)*
G04 Created by KiCad (PCBNEW (5.0.2)-1) date 4/19/2019 9:33:48 AM*
%MOMM*%
%LPD*%
G01*
G04 APERTURE LIST*
%ADD10C,0.100000*%
G04 APERTURE END LIST*
D10*
G36*
X137442491Y-68429823D02*
X137582366Y-68457646D01*
X137845885Y-68566799D01*
X138081449Y-68724198D01*
X138083049Y-68725267D01*
X138284733Y-68926951D01*
X138284735Y-68926954D01*
X138443201Y-69164115D01*
X138552354Y-69427634D01*
X138608000Y-69707384D01*
X138608000Y-69992616D01*
X138552354Y-70272366D01*
X138443201Y-70535885D01*
X138285802Y-70771449D01*
X138284733Y-70773049D01*
X138083049Y-70974733D01*
X138083046Y-70974735D01*
X137845885Y-71133201D01*
X137582366Y-71242354D01*
X137442491Y-71270177D01*
X137302617Y-71298000D01*
X137017383Y-71298000D01*
X136877509Y-71270177D01*
X136737634Y-71242354D01*
X136474115Y-71133201D01*
X136236954Y-70974735D01*
X136236951Y-70974733D01*
X136035267Y-70773049D01*
X136034198Y-70771449D01*
X135876799Y-70535885D01*
X135767646Y-70272366D01*
X135712000Y-69992616D01*
X135712000Y-69707384D01*
X135767646Y-69427634D01*
X135876799Y-69164115D01*
X136035265Y-68926954D01*
X136035267Y-68926951D01*
X136236951Y-68725267D01*
X136238551Y-68724198D01*
X136474115Y-68566799D01*
X136737634Y-68457646D01*
X136877509Y-68429823D01*
X137017383Y-68402000D01*
X137302617Y-68402000D01*
X137442491Y-68429823D01*
X137442491Y-68429823D01*
G37*
G36*
X122202491Y-68429823D02*
X122342366Y-68457646D01*
X122605885Y-68566799D01*
X122841449Y-68724198D01*
X122843049Y-68725267D01*
X123044733Y-68926951D01*
X123044735Y-68926954D01*
X123203201Y-69164115D01*
X123312354Y-69427634D01*
X123368000Y-69707384D01*
X123368000Y-69992616D01*
X123312354Y-70272366D01*
X123203201Y-70535885D01*
X123045802Y-70771449D01*
X123044733Y-70773049D01*
X122843049Y-70974733D01*
X122843046Y-70974735D01*
X122605885Y-71133201D01*
X122342366Y-71242354D01*
X122202491Y-71270177D01*
X122062617Y-71298000D01*
X121777383Y-71298000D01*
X121637509Y-71270177D01*
X121497634Y-71242354D01*
X121234115Y-71133201D01*
X120996954Y-70974735D01*
X120996951Y-70974733D01*
X120795267Y-70773049D01*
X120794198Y-70771449D01*
X120636799Y-70535885D01*
X120527646Y-70272366D01*
X120472000Y-69992616D01*
X120472000Y-69707384D01*
X120527646Y-69427634D01*
X120636799Y-69164115D01*
X120795265Y-68926954D01*
X120795267Y-68926951D01*
X120996951Y-68725267D01*
X120998551Y-68724198D01*
X121234115Y-68566799D01*
X121497634Y-68457646D01*
X121637509Y-68429823D01*
X121777383Y-68402000D01*
X122062617Y-68402000D01*
X122202491Y-68429823D01*
X122202491Y-68429823D01*
G37*
G36*
X122157142Y-65258242D02*
X122305102Y-65319530D01*
X122438258Y-65408502D01*
X122551498Y-65521742D01*
X122640470Y-65654898D01*
X122701758Y-65802858D01*
X122733000Y-65959925D01*
X122733000Y-66120075D01*
X122701758Y-66277142D01*
X122640470Y-66425102D01*
X122551498Y-66558258D01*
X122438258Y-66671498D01*
X122305102Y-66760470D01*
X122157142Y-66821758D01*
X122000075Y-66853000D01*
X121839925Y-66853000D01*
X121682858Y-66821758D01*
X121534898Y-66760470D01*
X121401742Y-66671498D01*
X121288502Y-66558258D01*
X121199530Y-66425102D01*
X121138242Y-66277142D01*
X121107000Y-66120075D01*
X121107000Y-65959925D01*
X121138242Y-65802858D01*
X121199530Y-65654898D01*
X121288502Y-65521742D01*
X121401742Y-65408502D01*
X121534898Y-65319530D01*
X121682858Y-65258242D01*
X121839925Y-65227000D01*
X122000075Y-65227000D01*
X122157142Y-65258242D01*
X122157142Y-65258242D01*
G37*
G36*
X122157142Y-62718242D02*
X122305102Y-62779530D01*
X122438258Y-62868502D01*
X122551498Y-62981742D01*
X122640470Y-63114898D01*
X122701758Y-63262858D01*
X122733000Y-63419925D01*
X122733000Y-63580075D01*
X122701758Y-63737142D01*
X122640470Y-63885102D01*
X122551498Y-64018258D01*
X122438258Y-64131498D01*
X122305102Y-64220470D01*
X122157142Y-64281758D01*
X122000075Y-64313000D01*
X121839925Y-64313000D01*
X121682858Y-64281758D01*
X121534898Y-64220470D01*
X121401742Y-64131498D01*
X121288502Y-64018258D01*
X121199530Y-63885102D01*
X121138242Y-63737142D01*
X121107000Y-63580075D01*
X121107000Y-63419925D01*
X121138242Y-63262858D01*
X121199530Y-63114898D01*
X121288502Y-62981742D01*
X121401742Y-62868502D01*
X121534898Y-62779530D01*
X121682858Y-62718242D01*
X121839925Y-62687000D01*
X122000075Y-62687000D01*
X122157142Y-62718242D01*
X122157142Y-62718242D01*
G37*
G36*
X137397142Y-60178242D02*
X137545102Y-60239530D01*
X137678258Y-60328502D01*
X137791498Y-60441742D01*
X137880470Y-60574898D01*
X137941758Y-60722858D01*
X137973000Y-60879925D01*
X137973000Y-61040075D01*
X137941758Y-61197142D01*
X137880470Y-61345102D01*
X137791498Y-61478258D01*
X137678258Y-61591498D01*
X137545102Y-61680470D01*
X137397142Y-61741758D01*
X137240075Y-61773000D01*
X137079925Y-61773000D01*
X136922858Y-61741758D01*
X136774898Y-61680470D01*
X136641742Y-61591498D01*
X136528502Y-61478258D01*
X136439530Y-61345102D01*
X136378242Y-61197142D01*
X136347000Y-61040075D01*
X136347000Y-60879925D01*
X136378242Y-60722858D01*
X136439530Y-60574898D01*
X136528502Y-60441742D01*
X136641742Y-60328502D01*
X136774898Y-60239530D01*
X136922858Y-60178242D01*
X137079925Y-60147000D01*
X137240075Y-60147000D01*
X137397142Y-60178242D01*
X137397142Y-60178242D01*
G37*
G36*
X122157142Y-60178242D02*
X122305102Y-60239530D01*
X122438258Y-60328502D01*
X122551498Y-60441742D01*
X122640470Y-60574898D01*
X122701758Y-60722858D01*
X122733000Y-60879925D01*
X122733000Y-61040075D01*
X122701758Y-61197142D01*
X122640470Y-61345102D01*
X122551498Y-61478258D01*
X122438258Y-61591498D01*
X122305102Y-61680470D01*
X122157142Y-61741758D01*
X122000075Y-61773000D01*
X121839925Y-61773000D01*
X121682858Y-61741758D01*
X121534898Y-61680470D01*
X121401742Y-61591498D01*
X121288502Y-61478258D01*
X121199530Y-61345102D01*
X121138242Y-61197142D01*
X121107000Y-61040075D01*
X121107000Y-60879925D01*
X121138242Y-60722858D01*
X121199530Y-60574898D01*
X121288502Y-60441742D01*
X121401742Y-60328502D01*
X121534898Y-60239530D01*
X121682858Y-60178242D01*
X121839925Y-60147000D01*
X122000075Y-60147000D01*
X122157142Y-60178242D01*
X122157142Y-60178242D01*
G37*
G36*
X137397142Y-57638242D02*
X137545102Y-57699530D01*
X137678258Y-57788502D01*
X137791498Y-57901742D01*
X137880470Y-58034898D01*
X137941758Y-58182858D01*
X137973000Y-58339925D01*
X137973000Y-58500075D01*
X137941758Y-58657142D01*
X137880470Y-58805102D01*
X137791498Y-58938258D01*
X137678258Y-59051498D01*
X137545102Y-59140470D01*
X137397142Y-59201758D01*
X137240075Y-59233000D01*
X137079925Y-59233000D01*
X136922858Y-59201758D01*
X136774898Y-59140470D01*
X136641742Y-59051498D01*
X136528502Y-58938258D01*
X136439530Y-58805102D01*
X136378242Y-58657142D01*
X136347000Y-58500075D01*
X136347000Y-58339925D01*
X136378242Y-58182858D01*
X136439530Y-58034898D01*
X136528502Y-57901742D01*
X136641742Y-57788502D01*
X136774898Y-57699530D01*
X136922858Y-57638242D01*
X137079925Y-57607000D01*
X137240075Y-57607000D01*
X137397142Y-57638242D01*
X137397142Y-57638242D01*
G37*
G36*
X122157142Y-57638242D02*
X122305102Y-57699530D01*
X122438258Y-57788502D01*
X122551498Y-57901742D01*
X122640470Y-58034898D01*
X122701758Y-58182858D01*
X122733000Y-58339925D01*
X122733000Y-58500075D01*
X122701758Y-58657142D01*
X122640470Y-58805102D01*
X122551498Y-58938258D01*
X122438258Y-59051498D01*
X122305102Y-59140470D01*
X122157142Y-59201758D01*
X122000075Y-59233000D01*
X121839925Y-59233000D01*
X121682858Y-59201758D01*
X121534898Y-59140470D01*
X121401742Y-59051498D01*
X121288502Y-58938258D01*
X121199530Y-58805102D01*
X121138242Y-58657142D01*
X121107000Y-58500075D01*
X121107000Y-58339925D01*
X121138242Y-58182858D01*
X121199530Y-58034898D01*
X121288502Y-57901742D01*
X121401742Y-57788502D01*
X121534898Y-57699530D01*
X121682858Y-57638242D01*
X121839925Y-57607000D01*
X122000075Y-57607000D01*
X122157142Y-57638242D01*
X122157142Y-57638242D01*
G37*
G36*
X137397142Y-55098242D02*
X137545102Y-55159530D01*
X137678258Y-55248502D01*
X137791498Y-55361742D01*
X137880470Y-55494898D01*
X137941758Y-55642858D01*
X137973000Y-55799925D01*
X137973000Y-55960075D01*
X137941758Y-56117142D01*
X137880470Y-56265102D01*
X137791498Y-56398258D01*
X137678258Y-56511498D01*
X137545102Y-56600470D01*
X137397142Y-56661758D01*
X137240075Y-56693000D01*
X137079925Y-56693000D01*
X136922858Y-56661758D01*
X136774898Y-56600470D01*
X136641742Y-56511498D01*
X136528502Y-56398258D01*
X136439530Y-56265102D01*
X136378242Y-56117142D01*
X136347000Y-55960075D01*
X136347000Y-55799925D01*
X136378242Y-55642858D01*
X136439530Y-55494898D01*
X136528502Y-55361742D01*
X136641742Y-55248502D01*
X136774898Y-55159530D01*
X136922858Y-55098242D01*
X137079925Y-55067000D01*
X137240075Y-55067000D01*
X137397142Y-55098242D01*
X137397142Y-55098242D01*
G37*
G36*
X122157142Y-55098242D02*
X122305102Y-55159530D01*
X122438258Y-55248502D01*
X122551498Y-55361742D01*
X122640470Y-55494898D01*
X122701758Y-55642858D01*
X122733000Y-55799925D01*
X122733000Y-55960075D01*
X122701758Y-56117142D01*
X122640470Y-56265102D01*
X122551498Y-56398258D01*
X122438258Y-56511498D01*
X122305102Y-56600470D01*
X122157142Y-56661758D01*
X122000075Y-56693000D01*
X121839925Y-56693000D01*
X121682858Y-56661758D01*
X121534898Y-56600470D01*
X121401742Y-56511498D01*
X121288502Y-56398258D01*
X121199530Y-56265102D01*
X121138242Y-56117142D01*
X121107000Y-55960075D01*
X121107000Y-55799925D01*
X121138242Y-55642858D01*
X121199530Y-55494898D01*
X121288502Y-55361742D01*
X121401742Y-55248502D01*
X121534898Y-55159530D01*
X121682858Y-55098242D01*
X121839925Y-55067000D01*
X122000075Y-55067000D01*
X122157142Y-55098242D01*
X122157142Y-55098242D01*
G37*
G36*
X122157142Y-52558242D02*
X122305102Y-52619530D01*
X122438258Y-52708502D01*
X122551498Y-52821742D01*
X122640470Y-52954898D01*
X122701758Y-53102858D01*
X122733000Y-53259925D01*
X122733000Y-53420075D01*
X122701758Y-53577142D01*
X122640470Y-53725102D01*
X122551498Y-53858258D01*
X122438258Y-53971498D01*
X122305102Y-54060470D01*
X122157142Y-54121758D01*
X122000075Y-54153000D01*
X121839925Y-54153000D01*
X121682858Y-54121758D01*
X121534898Y-54060470D01*
X121401742Y-53971498D01*
X121288502Y-53858258D01*
X121199530Y-53725102D01*
X121138242Y-53577142D01*
X121107000Y-53420075D01*
X121107000Y-53259925D01*
X121138242Y-53102858D01*
X121199530Y-52954898D01*
X121288502Y-52821742D01*
X121401742Y-52708502D01*
X121534898Y-52619530D01*
X121682858Y-52558242D01*
X121839925Y-52527000D01*
X122000075Y-52527000D01*
X122157142Y-52558242D01*
X122157142Y-52558242D01*
G37*
G36*
X137397142Y-52558242D02*
X137545102Y-52619530D01*
X137678258Y-52708502D01*
X137791498Y-52821742D01*
X137880470Y-52954898D01*
X137941758Y-53102858D01*
X137973000Y-53259925D01*
X137973000Y-53420075D01*
X137941758Y-53577142D01*
X137880470Y-53725102D01*
X137791498Y-53858258D01*
X137678258Y-53971498D01*
X137545102Y-54060470D01*
X137397142Y-54121758D01*
X137240075Y-54153000D01*
X137079925Y-54153000D01*
X136922858Y-54121758D01*
X136774898Y-54060470D01*
X136641742Y-53971498D01*
X136528502Y-53858258D01*
X136439530Y-53725102D01*
X136378242Y-53577142D01*
X136347000Y-53420075D01*
X136347000Y-53259925D01*
X136378242Y-53102858D01*
X136439530Y-52954898D01*
X136528502Y-52821742D01*
X136641742Y-52708502D01*
X136774898Y-52619530D01*
X136922858Y-52558242D01*
X137079925Y-52527000D01*
X137240075Y-52527000D01*
X137397142Y-52558242D01*
X137397142Y-52558242D01*
G37*
G36*
X137397142Y-50018242D02*
X137545102Y-50079530D01*
X137678258Y-50168502D01*
X137791498Y-50281742D01*
X137880470Y-50414898D01*
X137941758Y-50562858D01*
X137973000Y-50719925D01*
X137973000Y-50880075D01*
X137941758Y-51037142D01*
X137880470Y-51185102D01*
X137791498Y-51318258D01*
X137678258Y-51431498D01*
X137545102Y-51520470D01*
X137397142Y-51581758D01*
X137240075Y-51613000D01*
X137079925Y-51613000D01*
X136922858Y-51581758D01*
X136774898Y-51520470D01*
X136641742Y-51431498D01*
X136528502Y-51318258D01*
X136439530Y-51185102D01*
X136378242Y-51037142D01*
X136347000Y-50880075D01*
X136347000Y-50719925D01*
X136378242Y-50562858D01*
X136439530Y-50414898D01*
X136528502Y-50281742D01*
X136641742Y-50168502D01*
X136774898Y-50079530D01*
X136922858Y-50018242D01*
X137079925Y-49987000D01*
X137240075Y-49987000D01*
X137397142Y-50018242D01*
X137397142Y-50018242D01*
G37*
G36*
X122157142Y-50018242D02*
X122305102Y-50079530D01*
X122438258Y-50168502D01*
X122551498Y-50281742D01*
X122640470Y-50414898D01*
X122701758Y-50562858D01*
X122733000Y-50719925D01*
X122733000Y-50880075D01*
X122701758Y-51037142D01*
X122640470Y-51185102D01*
X122551498Y-51318258D01*
X122438258Y-51431498D01*
X122305102Y-51520470D01*
X122157142Y-51581758D01*
X122000075Y-51613000D01*
X121839925Y-51613000D01*
X121682858Y-51581758D01*
X121534898Y-51520470D01*
X121401742Y-51431498D01*
X121288502Y-51318258D01*
X121199530Y-51185102D01*
X121138242Y-51037142D01*
X121107000Y-50880075D01*
X121107000Y-50719925D01*
X121138242Y-50562858D01*
X121199530Y-50414898D01*
X121288502Y-50281742D01*
X121401742Y-50168502D01*
X121534898Y-50079530D01*
X121682858Y-50018242D01*
X121839925Y-49987000D01*
X122000075Y-49987000D01*
X122157142Y-50018242D01*
X122157142Y-50018242D01*
G37*
G36*
X122157142Y-47478242D02*
X122305102Y-47539530D01*
X122438258Y-47628502D01*
X122551498Y-47741742D01*
X122640470Y-47874898D01*
X122701758Y-48022858D01*
X122733000Y-48179925D01*
X122733000Y-48340075D01*
X122701758Y-48497142D01*
X122640470Y-48645102D01*
X122551498Y-48778258D01*
X122438258Y-48891498D01*
X122305102Y-48980470D01*
X122157142Y-49041758D01*
X122000075Y-49073000D01*
X121839925Y-49073000D01*
X121682858Y-49041758D01*
X121534898Y-48980470D01*
X121401742Y-48891498D01*
X121288502Y-48778258D01*
X121199530Y-48645102D01*
X121138242Y-48497142D01*
X121107000Y-48340075D01*
X121107000Y-48179925D01*
X121138242Y-48022858D01*
X121199530Y-47874898D01*
X121288502Y-47741742D01*
X121401742Y-47628502D01*
X121534898Y-47539530D01*
X121682858Y-47478242D01*
X121839925Y-47447000D01*
X122000075Y-47447000D01*
X122157142Y-47478242D01*
X122157142Y-47478242D01*
G37*
G36*
X122157142Y-44938242D02*
X122305102Y-44999530D01*
X122438258Y-45088502D01*
X122551498Y-45201742D01*
X122640470Y-45334898D01*
X122701758Y-45482858D01*
X122733000Y-45639925D01*
X122733000Y-45800075D01*
X122701758Y-45957142D01*
X122640470Y-46105102D01*
X122551498Y-46238258D01*
X122438258Y-46351498D01*
X122305102Y-46440470D01*
X122157142Y-46501758D01*
X122000075Y-46533000D01*
X121839925Y-46533000D01*
X121682858Y-46501758D01*
X121534898Y-46440470D01*
X121401742Y-46351498D01*
X121288502Y-46238258D01*
X121199530Y-46105102D01*
X121138242Y-45957142D01*
X121107000Y-45800075D01*
X121107000Y-45639925D01*
X121138242Y-45482858D01*
X121199530Y-45334898D01*
X121288502Y-45201742D01*
X121401742Y-45088502D01*
X121534898Y-44999530D01*
X121682858Y-44938242D01*
X121839925Y-44907000D01*
X122000075Y-44907000D01*
X122157142Y-44938242D01*
X122157142Y-44938242D01*
G37*
G36*
X122202491Y-40489823D02*
X122342366Y-40517646D01*
X122605885Y-40626799D01*
X122841449Y-40784198D01*
X122843049Y-40785267D01*
X123044733Y-40986951D01*
X123044735Y-40986954D01*
X123203201Y-41224115D01*
X123312354Y-41487634D01*
X123368000Y-41767384D01*
X123368000Y-42052616D01*
X123312354Y-42332366D01*
X123203201Y-42595885D01*
X123045802Y-42831449D01*
X123044733Y-42833049D01*
X122843049Y-43034733D01*
X122843046Y-43034735D01*
X122605885Y-43193201D01*
X122342366Y-43302354D01*
X122202491Y-43330177D01*
X122062617Y-43358000D01*
X121777383Y-43358000D01*
X121637509Y-43330177D01*
X121497634Y-43302354D01*
X121234115Y-43193201D01*
X120996954Y-43034735D01*
X120996951Y-43034733D01*
X120795267Y-42833049D01*
X120794198Y-42831449D01*
X120636799Y-42595885D01*
X120527646Y-42332366D01*
X120472000Y-42052616D01*
X120472000Y-41767384D01*
X120527646Y-41487634D01*
X120636799Y-41224115D01*
X120795265Y-40986954D01*
X120795267Y-40986951D01*
X120996951Y-40785267D01*
X120998551Y-40784198D01*
X121234115Y-40626799D01*
X121497634Y-40517646D01*
X121637509Y-40489823D01*
X121777383Y-40462000D01*
X122062617Y-40462000D01*
X122202491Y-40489823D01*
X122202491Y-40489823D01*
G37*
G36*
X137442491Y-40489823D02*
X137582366Y-40517646D01*
X137845885Y-40626799D01*
X138081449Y-40784198D01*
X138083049Y-40785267D01*
X138284733Y-40986951D01*
X138284735Y-40986954D01*
X138443201Y-41224115D01*
X138552354Y-41487634D01*
X138608000Y-41767384D01*
X138608000Y-42052616D01*
X138552354Y-42332366D01*
X138443201Y-42595885D01*
X138285802Y-42831449D01*
X138284733Y-42833049D01*
X138083049Y-43034733D01*
X138083046Y-43034735D01*
X137845885Y-43193201D01*
X137582366Y-43302354D01*
X137442491Y-43330177D01*
X137302617Y-43358000D01*
X137017383Y-43358000D01*
X136877509Y-43330177D01*
X136737634Y-43302354D01*
X136474115Y-43193201D01*
X136236954Y-43034735D01*
X136236951Y-43034733D01*
X136035267Y-42833049D01*
X136034198Y-42831449D01*
X135876799Y-42595885D01*
X135767646Y-42332366D01*
X135712000Y-42052616D01*
X135712000Y-41767384D01*
X135767646Y-41487634D01*
X135876799Y-41224115D01*
X136035265Y-40986954D01*
X136035267Y-40986951D01*
X136236951Y-40785267D01*
X136238551Y-40784198D01*
X136474115Y-40626799D01*
X136737634Y-40517646D01*
X136877509Y-40489823D01*
X137017383Y-40462000D01*
X137302617Y-40462000D01*
X137442491Y-40489823D01*
X137442491Y-40489823D01*
G37*
G36*
X128507142Y-36048242D02*
X128655102Y-36109530D01*
X128788258Y-36198502D01*
X128901498Y-36311742D01*
X128990470Y-36444898D01*
X129051758Y-36592858D01*
X129083000Y-36749925D01*
X129083000Y-36910075D01*
X129051758Y-37067142D01*
X128990470Y-37215102D01*
X128901498Y-37348258D01*
X128788258Y-37461498D01*
X128655102Y-37550470D01*
X128507142Y-37611758D01*
X128350075Y-37643000D01*
X128189925Y-37643000D01*
X128032858Y-37611758D01*
X127884898Y-37550470D01*
X127751742Y-37461498D01*
X127638502Y-37348258D01*
X127549530Y-37215102D01*
X127488242Y-37067142D01*
X127457000Y-36910075D01*
X127457000Y-36749925D01*
X127488242Y-36592858D01*
X127549530Y-36444898D01*
X127638502Y-36311742D01*
X127751742Y-36198502D01*
X127884898Y-36109530D01*
X128032858Y-36048242D01*
X128189925Y-36017000D01*
X128350075Y-36017000D01*
X128507142Y-36048242D01*
X128507142Y-36048242D01*
G37*
G36*
X133587142Y-36048242D02*
X133735102Y-36109530D01*
X133868258Y-36198502D01*
X133981498Y-36311742D01*
X134070470Y-36444898D01*
X134131758Y-36592858D01*
X134163000Y-36749925D01*
X134163000Y-36910075D01*
X134131758Y-37067142D01*
X134070470Y-37215102D01*
X133981498Y-37348258D01*
X133868258Y-37461498D01*
X133735102Y-37550470D01*
X133587142Y-37611758D01*
X133430075Y-37643000D01*
X133269925Y-37643000D01*
X133112858Y-37611758D01*
X132964898Y-37550470D01*
X132831742Y-37461498D01*
X132718502Y-37348258D01*
X132629530Y-37215102D01*
X132568242Y-37067142D01*
X132537000Y-36910075D01*
X132537000Y-36749925D01*
X132568242Y-36592858D01*
X132629530Y-36444898D01*
X132718502Y-36311742D01*
X132831742Y-36198502D01*
X132964898Y-36109530D01*
X133112858Y-36048242D01*
X133269925Y-36017000D01*
X133430075Y-36017000D01*
X133587142Y-36048242D01*
X133587142Y-36048242D01*
G37*
G36*
X131047142Y-36048242D02*
X131195102Y-36109530D01*
X131328258Y-36198502D01*
X131441498Y-36311742D01*
X131530470Y-36444898D01*
X131591758Y-36592858D01*
X131623000Y-36749925D01*
X131623000Y-36910075D01*
X131591758Y-37067142D01*
X131530470Y-37215102D01*
X131441498Y-37348258D01*
X131328258Y-37461498D01*
X131195102Y-37550470D01*
X131047142Y-37611758D01*
X130890075Y-37643000D01*
X130729925Y-37643000D01*
X130572858Y-37611758D01*
X130424898Y-37550470D01*
X130291742Y-37461498D01*
X130178502Y-37348258D01*
X130089530Y-37215102D01*
X130028242Y-37067142D01*
X129997000Y-36910075D01*
X129997000Y-36749925D01*
X130028242Y-36592858D01*
X130089530Y-36444898D01*
X130178502Y-36311742D01*
X130291742Y-36198502D01*
X130424898Y-36109530D01*
X130572858Y-36048242D01*
X130729925Y-36017000D01*
X130890075Y-36017000D01*
X131047142Y-36048242D01*
X131047142Y-36048242D01*
G37*
G36*
X125967142Y-36048242D02*
X126115102Y-36109530D01*
X126248258Y-36198502D01*
X126361498Y-36311742D01*
X126450470Y-36444898D01*
X126511758Y-36592858D01*
X126543000Y-36749925D01*
X126543000Y-36910075D01*
X126511758Y-37067142D01*
X126450470Y-37215102D01*
X126361498Y-37348258D01*
X126248258Y-37461498D01*
X126115102Y-37550470D01*
X125967142Y-37611758D01*
X125810075Y-37643000D01*
X125649925Y-37643000D01*
X125492858Y-37611758D01*
X125344898Y-37550470D01*
X125211742Y-37461498D01*
X125098502Y-37348258D01*
X125009530Y-37215102D01*
X124948242Y-37067142D01*
X124917000Y-36910075D01*
X124917000Y-36749925D01*
X124948242Y-36592858D01*
X125009530Y-36444898D01*
X125098502Y-36311742D01*
X125211742Y-36198502D01*
X125344898Y-36109530D01*
X125492858Y-36048242D01*
X125649925Y-36017000D01*
X125810075Y-36017000D01*
X125967142Y-36048242D01*
X125967142Y-36048242D01*
G37*
G36*
X124978037Y-26486250D02*
X124978039Y-26486251D01*
X124978040Y-26486251D01*
X125301251Y-26620129D01*
X125301252Y-26620130D01*
X125592137Y-26814493D01*
X125839507Y-27061863D01*
X125839509Y-27061866D01*
X126033871Y-27352749D01*
X126167749Y-27675960D01*
X126236000Y-28019079D01*
X126236000Y-28368921D01*
X126167749Y-28712040D01*
X126033871Y-29035251D01*
X126033870Y-29035252D01*
X125839507Y-29326137D01*
X125592137Y-29573507D01*
X125592134Y-29573509D01*
X125301251Y-29767871D01*
X124978040Y-29901749D01*
X124978039Y-29901749D01*
X124978037Y-29901750D01*
X124634922Y-29970000D01*
X124285078Y-29970000D01*
X123941963Y-29901750D01*
X123941961Y-29901749D01*
X123941960Y-29901749D01*
X123618749Y-29767871D01*
X123327866Y-29573509D01*
X123327863Y-29573507D01*
X123080493Y-29326137D01*
X122886130Y-29035252D01*
X122886129Y-29035251D01*
X122752251Y-28712040D01*
X122684000Y-28368921D01*
X122684000Y-28019079D01*
X122752251Y-27675960D01*
X122886129Y-27352749D01*
X123080491Y-27061866D01*
X123080493Y-27061863D01*
X123327863Y-26814493D01*
X123618748Y-26620130D01*
X123618749Y-26620129D01*
X123941960Y-26486251D01*
X123941961Y-26486251D01*
X123941963Y-26486250D01*
X124285078Y-26418000D01*
X124634922Y-26418000D01*
X124978037Y-26486250D01*
X124978037Y-26486250D01*
G37*
G36*
X135138037Y-26486250D02*
X135138039Y-26486251D01*
X135138040Y-26486251D01*
X135461251Y-26620129D01*
X135461252Y-26620130D01*
X135752137Y-26814493D01*
X135999507Y-27061863D01*
X135999509Y-27061866D01*
X136193871Y-27352749D01*
X136327749Y-27675960D01*
X136396000Y-28019079D01*
X136396000Y-28368921D01*
X136327749Y-28712040D01*
X136193871Y-29035251D01*
X136193870Y-29035252D01*
X135999507Y-29326137D01*
X135752137Y-29573507D01*
X135752134Y-29573509D01*
X135461251Y-29767871D01*
X135138040Y-29901749D01*
X135138039Y-29901749D01*
X135138037Y-29901750D01*
X134794922Y-29970000D01*
X134445078Y-29970000D01*
X134101963Y-29901750D01*
X134101961Y-29901749D01*
X134101960Y-29901749D01*
X133778749Y-29767871D01*
X133487866Y-29573509D01*
X133487863Y-29573507D01*
X133240493Y-29326137D01*
X133046130Y-29035252D01*
X133046129Y-29035251D01*
X132912251Y-28712040D01*
X132844000Y-28368921D01*
X132844000Y-28019079D01*
X132912251Y-27675960D01*
X133046129Y-27352749D01*
X133240491Y-27061866D01*
X133240493Y-27061863D01*
X133487863Y-26814493D01*
X133778748Y-26620130D01*
X133778749Y-26620129D01*
X134101960Y-26486251D01*
X134101961Y-26486251D01*
X134101963Y-26486250D01*
X134445078Y-26418000D01*
X134794922Y-26418000D01*
X135138037Y-26486250D01*
X135138037Y-26486250D01*
G37*
M02*
