G04 #@! TF.GenerationSoftware,KiCad,Pcbnew,(5.0.2)-1*
G04 #@! TF.CreationDate,2019-04-17T18:20:16-05:00*
G04 #@! TF.ProjectId,LSM9DS1Breakout_Hardware,4c534d39-4453-4314-9272-65616b6f7574,rev?*
G04 #@! TF.SameCoordinates,Original*
G04 #@! TF.FileFunction,Legend,Bot*
G04 #@! TF.FilePolarity,Positive*
%FSLAX46Y46*%
G04 Gerber Fmt 4.6, Leading zero omitted, Abs format (unit mm)*
G04 Created by KiCad (PCBNEW (5.0.2)-1) date 4/17/2019 6:20:16 PM*
%MOMM*%
%LPD*%
G01*
G04 APERTURE LIST*
%ADD10C,0.300000*%
%ADD11C,0.508000*%
G04 APERTURE END LIST*
D10*
X132600000Y-31877142D02*
X132528571Y-31734285D01*
X132528571Y-31520000D01*
X132600000Y-31305714D01*
X132742857Y-31162857D01*
X132885714Y-31091428D01*
X133171428Y-31020000D01*
X133385714Y-31020000D01*
X133671428Y-31091428D01*
X133814285Y-31162857D01*
X133957142Y-31305714D01*
X134028571Y-31520000D01*
X134028571Y-31662857D01*
X133957142Y-31877142D01*
X133885714Y-31948571D01*
X133385714Y-31948571D01*
X133385714Y-31662857D01*
X134028571Y-32591428D02*
X132528571Y-32591428D01*
X134028571Y-33448571D01*
X132528571Y-33448571D01*
X134028571Y-34162857D02*
X132528571Y-34162857D01*
X132528571Y-34520000D01*
X132600000Y-34734285D01*
X132742857Y-34877142D01*
X132885714Y-34948571D01*
X133171428Y-35020000D01*
X133385714Y-35020000D01*
X133671428Y-34948571D01*
X133814285Y-34877142D01*
X133957142Y-34734285D01*
X134028571Y-34520000D01*
X134028571Y-34162857D01*
X131417142Y-31198571D02*
X131488571Y-31412857D01*
X131488571Y-31770000D01*
X131417142Y-31912857D01*
X131345714Y-31984285D01*
X131202857Y-32055714D01*
X131060000Y-32055714D01*
X130917142Y-31984285D01*
X130845714Y-31912857D01*
X130774285Y-31770000D01*
X130702857Y-31484285D01*
X130631428Y-31341428D01*
X130560000Y-31270000D01*
X130417142Y-31198571D01*
X130274285Y-31198571D01*
X130131428Y-31270000D01*
X130060000Y-31341428D01*
X129988571Y-31484285D01*
X129988571Y-31841428D01*
X130060000Y-32055714D01*
X131488571Y-32698571D02*
X129988571Y-32698571D01*
X129988571Y-33055714D01*
X130060000Y-33270000D01*
X130202857Y-33412857D01*
X130345714Y-33484285D01*
X130631428Y-33555714D01*
X130845714Y-33555714D01*
X131131428Y-33484285D01*
X131274285Y-33412857D01*
X131417142Y-33270000D01*
X131488571Y-33055714D01*
X131488571Y-32698571D01*
X131060000Y-34127142D02*
X131060000Y-34841428D01*
X131488571Y-33984285D02*
X129988571Y-34484285D01*
X131488571Y-34984285D01*
X128877142Y-31234285D02*
X128948571Y-31448571D01*
X128948571Y-31805714D01*
X128877142Y-31948571D01*
X128805714Y-32020000D01*
X128662857Y-32091428D01*
X128520000Y-32091428D01*
X128377142Y-32020000D01*
X128305714Y-31948571D01*
X128234285Y-31805714D01*
X128162857Y-31520000D01*
X128091428Y-31377142D01*
X128020000Y-31305714D01*
X127877142Y-31234285D01*
X127734285Y-31234285D01*
X127591428Y-31305714D01*
X127520000Y-31377142D01*
X127448571Y-31520000D01*
X127448571Y-31877142D01*
X127520000Y-32091428D01*
X128805714Y-33591428D02*
X128877142Y-33520000D01*
X128948571Y-33305714D01*
X128948571Y-33162857D01*
X128877142Y-32948571D01*
X128734285Y-32805714D01*
X128591428Y-32734285D01*
X128305714Y-32662857D01*
X128091428Y-32662857D01*
X127805714Y-32734285D01*
X127662857Y-32805714D01*
X127520000Y-32948571D01*
X127448571Y-33162857D01*
X127448571Y-33305714D01*
X127520000Y-33520000D01*
X127591428Y-33591428D01*
X128948571Y-34948571D02*
X128948571Y-34234285D01*
X127448571Y-34234285D01*
X124908571Y-32734285D02*
X124908571Y-32020000D01*
X125622857Y-31948571D01*
X125551428Y-32020000D01*
X125480000Y-32162857D01*
X125480000Y-32520000D01*
X125551428Y-32662857D01*
X125622857Y-32734285D01*
X125765714Y-32805714D01*
X126122857Y-32805714D01*
X126265714Y-32734285D01*
X126337142Y-32662857D01*
X126408571Y-32520000D01*
X126408571Y-32162857D01*
X126337142Y-32020000D01*
X126265714Y-31948571D01*
X124908571Y-33234285D02*
X126408571Y-33734285D01*
X124908571Y-34234285D01*
X129968571Y-71798571D02*
X129968571Y-70298571D01*
X129111428Y-71798571D01*
X129111428Y-70298571D01*
D11*
X132080000Y-67310000D02*
X129540000Y-69850000D01*
X127000000Y-67310000D02*
X129540000Y-69850000D01*
X129540000Y-40640000D02*
X129540000Y-69850000D01*
M02*
