G04 #@! TF.GenerationSoftware,KiCad,Pcbnew,(5.0.2)-1*
G04 #@! TF.CreationDate,2019-04-19T09:33:48-05:00*
G04 #@! TF.ProjectId,LSM9DS1Breakout_Hardware,4c534d39-4453-4314-9272-65616b6f7574,rev?*
G04 #@! TF.SameCoordinates,Original*
G04 #@! TF.FileFunction,Copper,L1,Top*
G04 #@! TF.FilePolarity,Positive*
%FSLAX46Y46*%
G04 Gerber Fmt 4.6, Leading zero omitted, Abs format (unit mm)*
G04 Created by KiCad (PCBNEW (5.0.2)-1) date 4/19/2019 9:33:48 AM*
%MOMM*%
%LPD*%
G01*
G04 APERTURE LIST*
G04 #@! TA.AperFunction,ComponentPad*
%ADD10C,1.524000*%
G04 #@! TD*
G04 #@! TA.AperFunction,Conductor*
%ADD11C,0.100000*%
G04 #@! TD*
G04 #@! TA.AperFunction,SMDPad,CuDef*
%ADD12C,0.950000*%
G04 #@! TD*
G04 #@! TA.AperFunction,ViaPad*
%ADD13C,0.800000*%
G04 #@! TD*
G04 #@! TA.AperFunction,Conductor*
%ADD14C,0.381000*%
G04 #@! TD*
G04 #@! TA.AperFunction,Conductor*
%ADD15C,0.254000*%
G04 #@! TD*
G04 APERTURE END LIST*
D10*
G04 #@! TO.P,Conn1,1*
G04 #@! TO.N,+5V*
X125730000Y-36830000D03*
G04 #@! TO.P,Conn1,2*
G04 #@! TO.N,SCL*
X128270000Y-36830000D03*
G04 #@! TO.P,Conn1,3*
G04 #@! TO.N,SDA*
X130810000Y-36830000D03*
G04 #@! TO.P,Conn1,4*
G04 #@! TO.N,GND*
X133350000Y-36830000D03*
G04 #@! TD*
D11*
G04 #@! TO.N,GND*
G04 #@! TO.C,D1*
G36*
X138690779Y-32016144D02*
X138713834Y-32019563D01*
X138736443Y-32025227D01*
X138758387Y-32033079D01*
X138779457Y-32043044D01*
X138799448Y-32055026D01*
X138818168Y-32068910D01*
X138835438Y-32084562D01*
X138851090Y-32101832D01*
X138864974Y-32120552D01*
X138876956Y-32140543D01*
X138886921Y-32161613D01*
X138894773Y-32183557D01*
X138900437Y-32206166D01*
X138903856Y-32229221D01*
X138905000Y-32252500D01*
X138905000Y-32827500D01*
X138903856Y-32850779D01*
X138900437Y-32873834D01*
X138894773Y-32896443D01*
X138886921Y-32918387D01*
X138876956Y-32939457D01*
X138864974Y-32959448D01*
X138851090Y-32978168D01*
X138835438Y-32995438D01*
X138818168Y-33011090D01*
X138799448Y-33024974D01*
X138779457Y-33036956D01*
X138758387Y-33046921D01*
X138736443Y-33054773D01*
X138713834Y-33060437D01*
X138690779Y-33063856D01*
X138667500Y-33065000D01*
X138192500Y-33065000D01*
X138169221Y-33063856D01*
X138146166Y-33060437D01*
X138123557Y-33054773D01*
X138101613Y-33046921D01*
X138080543Y-33036956D01*
X138060552Y-33024974D01*
X138041832Y-33011090D01*
X138024562Y-32995438D01*
X138008910Y-32978168D01*
X137995026Y-32959448D01*
X137983044Y-32939457D01*
X137973079Y-32918387D01*
X137965227Y-32896443D01*
X137959563Y-32873834D01*
X137956144Y-32850779D01*
X137955000Y-32827500D01*
X137955000Y-32252500D01*
X137956144Y-32229221D01*
X137959563Y-32206166D01*
X137965227Y-32183557D01*
X137973079Y-32161613D01*
X137983044Y-32140543D01*
X137995026Y-32120552D01*
X138008910Y-32101832D01*
X138024562Y-32084562D01*
X138041832Y-32068910D01*
X138060552Y-32055026D01*
X138080543Y-32043044D01*
X138101613Y-32033079D01*
X138123557Y-32025227D01*
X138146166Y-32019563D01*
X138169221Y-32016144D01*
X138192500Y-32015000D01*
X138667500Y-32015000D01*
X138690779Y-32016144D01*
X138690779Y-32016144D01*
G37*
D12*
G04 #@! TD*
G04 #@! TO.P,D1,1*
G04 #@! TO.N,GND*
X138430000Y-32540000D03*
D11*
G04 #@! TO.N,Net-(D1-Pad2)*
G04 #@! TO.C,D1*
G36*
X138690779Y-33766144D02*
X138713834Y-33769563D01*
X138736443Y-33775227D01*
X138758387Y-33783079D01*
X138779457Y-33793044D01*
X138799448Y-33805026D01*
X138818168Y-33818910D01*
X138835438Y-33834562D01*
X138851090Y-33851832D01*
X138864974Y-33870552D01*
X138876956Y-33890543D01*
X138886921Y-33911613D01*
X138894773Y-33933557D01*
X138900437Y-33956166D01*
X138903856Y-33979221D01*
X138905000Y-34002500D01*
X138905000Y-34577500D01*
X138903856Y-34600779D01*
X138900437Y-34623834D01*
X138894773Y-34646443D01*
X138886921Y-34668387D01*
X138876956Y-34689457D01*
X138864974Y-34709448D01*
X138851090Y-34728168D01*
X138835438Y-34745438D01*
X138818168Y-34761090D01*
X138799448Y-34774974D01*
X138779457Y-34786956D01*
X138758387Y-34796921D01*
X138736443Y-34804773D01*
X138713834Y-34810437D01*
X138690779Y-34813856D01*
X138667500Y-34815000D01*
X138192500Y-34815000D01*
X138169221Y-34813856D01*
X138146166Y-34810437D01*
X138123557Y-34804773D01*
X138101613Y-34796921D01*
X138080543Y-34786956D01*
X138060552Y-34774974D01*
X138041832Y-34761090D01*
X138024562Y-34745438D01*
X138008910Y-34728168D01*
X137995026Y-34709448D01*
X137983044Y-34689457D01*
X137973079Y-34668387D01*
X137965227Y-34646443D01*
X137959563Y-34623834D01*
X137956144Y-34600779D01*
X137955000Y-34577500D01*
X137955000Y-34002500D01*
X137956144Y-33979221D01*
X137959563Y-33956166D01*
X137965227Y-33933557D01*
X137973079Y-33911613D01*
X137983044Y-33890543D01*
X137995026Y-33870552D01*
X138008910Y-33851832D01*
X138024562Y-33834562D01*
X138041832Y-33818910D01*
X138060552Y-33805026D01*
X138080543Y-33793044D01*
X138101613Y-33783079D01*
X138123557Y-33775227D01*
X138146166Y-33769563D01*
X138169221Y-33766144D01*
X138192500Y-33765000D01*
X138667500Y-33765000D01*
X138690779Y-33766144D01*
X138690779Y-33766144D01*
G37*
D12*
G04 #@! TD*
G04 #@! TO.P,D1,2*
G04 #@! TO.N,Net-(D1-Pad2)*
X138430000Y-34290000D03*
D11*
G04 #@! TO.N,GND*
G04 #@! TO.C,D3*
G36*
X120910779Y-32016144D02*
X120933834Y-32019563D01*
X120956443Y-32025227D01*
X120978387Y-32033079D01*
X120999457Y-32043044D01*
X121019448Y-32055026D01*
X121038168Y-32068910D01*
X121055438Y-32084562D01*
X121071090Y-32101832D01*
X121084974Y-32120552D01*
X121096956Y-32140543D01*
X121106921Y-32161613D01*
X121114773Y-32183557D01*
X121120437Y-32206166D01*
X121123856Y-32229221D01*
X121125000Y-32252500D01*
X121125000Y-32827500D01*
X121123856Y-32850779D01*
X121120437Y-32873834D01*
X121114773Y-32896443D01*
X121106921Y-32918387D01*
X121096956Y-32939457D01*
X121084974Y-32959448D01*
X121071090Y-32978168D01*
X121055438Y-32995438D01*
X121038168Y-33011090D01*
X121019448Y-33024974D01*
X120999457Y-33036956D01*
X120978387Y-33046921D01*
X120956443Y-33054773D01*
X120933834Y-33060437D01*
X120910779Y-33063856D01*
X120887500Y-33065000D01*
X120412500Y-33065000D01*
X120389221Y-33063856D01*
X120366166Y-33060437D01*
X120343557Y-33054773D01*
X120321613Y-33046921D01*
X120300543Y-33036956D01*
X120280552Y-33024974D01*
X120261832Y-33011090D01*
X120244562Y-32995438D01*
X120228910Y-32978168D01*
X120215026Y-32959448D01*
X120203044Y-32939457D01*
X120193079Y-32918387D01*
X120185227Y-32896443D01*
X120179563Y-32873834D01*
X120176144Y-32850779D01*
X120175000Y-32827500D01*
X120175000Y-32252500D01*
X120176144Y-32229221D01*
X120179563Y-32206166D01*
X120185227Y-32183557D01*
X120193079Y-32161613D01*
X120203044Y-32140543D01*
X120215026Y-32120552D01*
X120228910Y-32101832D01*
X120244562Y-32084562D01*
X120261832Y-32068910D01*
X120280552Y-32055026D01*
X120300543Y-32043044D01*
X120321613Y-32033079D01*
X120343557Y-32025227D01*
X120366166Y-32019563D01*
X120389221Y-32016144D01*
X120412500Y-32015000D01*
X120887500Y-32015000D01*
X120910779Y-32016144D01*
X120910779Y-32016144D01*
G37*
D12*
G04 #@! TD*
G04 #@! TO.P,D3,1*
G04 #@! TO.N,GND*
X120650000Y-32540000D03*
D11*
G04 #@! TO.N,Net-(D3-Pad2)*
G04 #@! TO.C,D3*
G36*
X120910779Y-33766144D02*
X120933834Y-33769563D01*
X120956443Y-33775227D01*
X120978387Y-33783079D01*
X120999457Y-33793044D01*
X121019448Y-33805026D01*
X121038168Y-33818910D01*
X121055438Y-33834562D01*
X121071090Y-33851832D01*
X121084974Y-33870552D01*
X121096956Y-33890543D01*
X121106921Y-33911613D01*
X121114773Y-33933557D01*
X121120437Y-33956166D01*
X121123856Y-33979221D01*
X121125000Y-34002500D01*
X121125000Y-34577500D01*
X121123856Y-34600779D01*
X121120437Y-34623834D01*
X121114773Y-34646443D01*
X121106921Y-34668387D01*
X121096956Y-34689457D01*
X121084974Y-34709448D01*
X121071090Y-34728168D01*
X121055438Y-34745438D01*
X121038168Y-34761090D01*
X121019448Y-34774974D01*
X120999457Y-34786956D01*
X120978387Y-34796921D01*
X120956443Y-34804773D01*
X120933834Y-34810437D01*
X120910779Y-34813856D01*
X120887500Y-34815000D01*
X120412500Y-34815000D01*
X120389221Y-34813856D01*
X120366166Y-34810437D01*
X120343557Y-34804773D01*
X120321613Y-34796921D01*
X120300543Y-34786956D01*
X120280552Y-34774974D01*
X120261832Y-34761090D01*
X120244562Y-34745438D01*
X120228910Y-34728168D01*
X120215026Y-34709448D01*
X120203044Y-34689457D01*
X120193079Y-34668387D01*
X120185227Y-34646443D01*
X120179563Y-34623834D01*
X120176144Y-34600779D01*
X120175000Y-34577500D01*
X120175000Y-34002500D01*
X120176144Y-33979221D01*
X120179563Y-33956166D01*
X120185227Y-33933557D01*
X120193079Y-33911613D01*
X120203044Y-33890543D01*
X120215026Y-33870552D01*
X120228910Y-33851832D01*
X120244562Y-33834562D01*
X120261832Y-33818910D01*
X120280552Y-33805026D01*
X120300543Y-33793044D01*
X120321613Y-33783079D01*
X120343557Y-33775227D01*
X120366166Y-33769563D01*
X120389221Y-33766144D01*
X120412500Y-33765000D01*
X120887500Y-33765000D01*
X120910779Y-33766144D01*
X120910779Y-33766144D01*
G37*
D12*
G04 #@! TD*
G04 #@! TO.P,D3,2*
G04 #@! TO.N,Net-(D3-Pad2)*
X120650000Y-34290000D03*
D11*
G04 #@! TO.N,SDA*
G04 #@! TO.C,R1*
G36*
X138690779Y-38056144D02*
X138713834Y-38059563D01*
X138736443Y-38065227D01*
X138758387Y-38073079D01*
X138779457Y-38083044D01*
X138799448Y-38095026D01*
X138818168Y-38108910D01*
X138835438Y-38124562D01*
X138851090Y-38141832D01*
X138864974Y-38160552D01*
X138876956Y-38180543D01*
X138886921Y-38201613D01*
X138894773Y-38223557D01*
X138900437Y-38246166D01*
X138903856Y-38269221D01*
X138905000Y-38292500D01*
X138905000Y-38867500D01*
X138903856Y-38890779D01*
X138900437Y-38913834D01*
X138894773Y-38936443D01*
X138886921Y-38958387D01*
X138876956Y-38979457D01*
X138864974Y-38999448D01*
X138851090Y-39018168D01*
X138835438Y-39035438D01*
X138818168Y-39051090D01*
X138799448Y-39064974D01*
X138779457Y-39076956D01*
X138758387Y-39086921D01*
X138736443Y-39094773D01*
X138713834Y-39100437D01*
X138690779Y-39103856D01*
X138667500Y-39105000D01*
X138192500Y-39105000D01*
X138169221Y-39103856D01*
X138146166Y-39100437D01*
X138123557Y-39094773D01*
X138101613Y-39086921D01*
X138080543Y-39076956D01*
X138060552Y-39064974D01*
X138041832Y-39051090D01*
X138024562Y-39035438D01*
X138008910Y-39018168D01*
X137995026Y-38999448D01*
X137983044Y-38979457D01*
X137973079Y-38958387D01*
X137965227Y-38936443D01*
X137959563Y-38913834D01*
X137956144Y-38890779D01*
X137955000Y-38867500D01*
X137955000Y-38292500D01*
X137956144Y-38269221D01*
X137959563Y-38246166D01*
X137965227Y-38223557D01*
X137973079Y-38201613D01*
X137983044Y-38180543D01*
X137995026Y-38160552D01*
X138008910Y-38141832D01*
X138024562Y-38124562D01*
X138041832Y-38108910D01*
X138060552Y-38095026D01*
X138080543Y-38083044D01*
X138101613Y-38073079D01*
X138123557Y-38065227D01*
X138146166Y-38059563D01*
X138169221Y-38056144D01*
X138192500Y-38055000D01*
X138667500Y-38055000D01*
X138690779Y-38056144D01*
X138690779Y-38056144D01*
G37*
D12*
G04 #@! TD*
G04 #@! TO.P,R1,1*
G04 #@! TO.N,SDA*
X138430000Y-38580000D03*
D11*
G04 #@! TO.N,Net-(D1-Pad2)*
G04 #@! TO.C,R1*
G36*
X138690779Y-36306144D02*
X138713834Y-36309563D01*
X138736443Y-36315227D01*
X138758387Y-36323079D01*
X138779457Y-36333044D01*
X138799448Y-36345026D01*
X138818168Y-36358910D01*
X138835438Y-36374562D01*
X138851090Y-36391832D01*
X138864974Y-36410552D01*
X138876956Y-36430543D01*
X138886921Y-36451613D01*
X138894773Y-36473557D01*
X138900437Y-36496166D01*
X138903856Y-36519221D01*
X138905000Y-36542500D01*
X138905000Y-37117500D01*
X138903856Y-37140779D01*
X138900437Y-37163834D01*
X138894773Y-37186443D01*
X138886921Y-37208387D01*
X138876956Y-37229457D01*
X138864974Y-37249448D01*
X138851090Y-37268168D01*
X138835438Y-37285438D01*
X138818168Y-37301090D01*
X138799448Y-37314974D01*
X138779457Y-37326956D01*
X138758387Y-37336921D01*
X138736443Y-37344773D01*
X138713834Y-37350437D01*
X138690779Y-37353856D01*
X138667500Y-37355000D01*
X138192500Y-37355000D01*
X138169221Y-37353856D01*
X138146166Y-37350437D01*
X138123557Y-37344773D01*
X138101613Y-37336921D01*
X138080543Y-37326956D01*
X138060552Y-37314974D01*
X138041832Y-37301090D01*
X138024562Y-37285438D01*
X138008910Y-37268168D01*
X137995026Y-37249448D01*
X137983044Y-37229457D01*
X137973079Y-37208387D01*
X137965227Y-37186443D01*
X137959563Y-37163834D01*
X137956144Y-37140779D01*
X137955000Y-37117500D01*
X137955000Y-36542500D01*
X137956144Y-36519221D01*
X137959563Y-36496166D01*
X137965227Y-36473557D01*
X137973079Y-36451613D01*
X137983044Y-36430543D01*
X137995026Y-36410552D01*
X138008910Y-36391832D01*
X138024562Y-36374562D01*
X138041832Y-36358910D01*
X138060552Y-36345026D01*
X138080543Y-36333044D01*
X138101613Y-36323079D01*
X138123557Y-36315227D01*
X138146166Y-36309563D01*
X138169221Y-36306144D01*
X138192500Y-36305000D01*
X138667500Y-36305000D01*
X138690779Y-36306144D01*
X138690779Y-36306144D01*
G37*
D12*
G04 #@! TD*
G04 #@! TO.P,R1,2*
G04 #@! TO.N,Net-(D1-Pad2)*
X138430000Y-36830000D03*
D11*
G04 #@! TO.N,+5V*
G04 #@! TO.C,R3*
G36*
X120910779Y-38056144D02*
X120933834Y-38059563D01*
X120956443Y-38065227D01*
X120978387Y-38073079D01*
X120999457Y-38083044D01*
X121019448Y-38095026D01*
X121038168Y-38108910D01*
X121055438Y-38124562D01*
X121071090Y-38141832D01*
X121084974Y-38160552D01*
X121096956Y-38180543D01*
X121106921Y-38201613D01*
X121114773Y-38223557D01*
X121120437Y-38246166D01*
X121123856Y-38269221D01*
X121125000Y-38292500D01*
X121125000Y-38867500D01*
X121123856Y-38890779D01*
X121120437Y-38913834D01*
X121114773Y-38936443D01*
X121106921Y-38958387D01*
X121096956Y-38979457D01*
X121084974Y-38999448D01*
X121071090Y-39018168D01*
X121055438Y-39035438D01*
X121038168Y-39051090D01*
X121019448Y-39064974D01*
X120999457Y-39076956D01*
X120978387Y-39086921D01*
X120956443Y-39094773D01*
X120933834Y-39100437D01*
X120910779Y-39103856D01*
X120887500Y-39105000D01*
X120412500Y-39105000D01*
X120389221Y-39103856D01*
X120366166Y-39100437D01*
X120343557Y-39094773D01*
X120321613Y-39086921D01*
X120300543Y-39076956D01*
X120280552Y-39064974D01*
X120261832Y-39051090D01*
X120244562Y-39035438D01*
X120228910Y-39018168D01*
X120215026Y-38999448D01*
X120203044Y-38979457D01*
X120193079Y-38958387D01*
X120185227Y-38936443D01*
X120179563Y-38913834D01*
X120176144Y-38890779D01*
X120175000Y-38867500D01*
X120175000Y-38292500D01*
X120176144Y-38269221D01*
X120179563Y-38246166D01*
X120185227Y-38223557D01*
X120193079Y-38201613D01*
X120203044Y-38180543D01*
X120215026Y-38160552D01*
X120228910Y-38141832D01*
X120244562Y-38124562D01*
X120261832Y-38108910D01*
X120280552Y-38095026D01*
X120300543Y-38083044D01*
X120321613Y-38073079D01*
X120343557Y-38065227D01*
X120366166Y-38059563D01*
X120389221Y-38056144D01*
X120412500Y-38055000D01*
X120887500Y-38055000D01*
X120910779Y-38056144D01*
X120910779Y-38056144D01*
G37*
D12*
G04 #@! TD*
G04 #@! TO.P,R3,1*
G04 #@! TO.N,+5V*
X120650000Y-38580000D03*
D11*
G04 #@! TO.N,Net-(D3-Pad2)*
G04 #@! TO.C,R3*
G36*
X120910779Y-36306144D02*
X120933834Y-36309563D01*
X120956443Y-36315227D01*
X120978387Y-36323079D01*
X120999457Y-36333044D01*
X121019448Y-36345026D01*
X121038168Y-36358910D01*
X121055438Y-36374562D01*
X121071090Y-36391832D01*
X121084974Y-36410552D01*
X121096956Y-36430543D01*
X121106921Y-36451613D01*
X121114773Y-36473557D01*
X121120437Y-36496166D01*
X121123856Y-36519221D01*
X121125000Y-36542500D01*
X121125000Y-37117500D01*
X121123856Y-37140779D01*
X121120437Y-37163834D01*
X121114773Y-37186443D01*
X121106921Y-37208387D01*
X121096956Y-37229457D01*
X121084974Y-37249448D01*
X121071090Y-37268168D01*
X121055438Y-37285438D01*
X121038168Y-37301090D01*
X121019448Y-37314974D01*
X120999457Y-37326956D01*
X120978387Y-37336921D01*
X120956443Y-37344773D01*
X120933834Y-37350437D01*
X120910779Y-37353856D01*
X120887500Y-37355000D01*
X120412500Y-37355000D01*
X120389221Y-37353856D01*
X120366166Y-37350437D01*
X120343557Y-37344773D01*
X120321613Y-37336921D01*
X120300543Y-37326956D01*
X120280552Y-37314974D01*
X120261832Y-37301090D01*
X120244562Y-37285438D01*
X120228910Y-37268168D01*
X120215026Y-37249448D01*
X120203044Y-37229457D01*
X120193079Y-37208387D01*
X120185227Y-37186443D01*
X120179563Y-37163834D01*
X120176144Y-37140779D01*
X120175000Y-37117500D01*
X120175000Y-36542500D01*
X120176144Y-36519221D01*
X120179563Y-36496166D01*
X120185227Y-36473557D01*
X120193079Y-36451613D01*
X120203044Y-36430543D01*
X120215026Y-36410552D01*
X120228910Y-36391832D01*
X120244562Y-36374562D01*
X120261832Y-36358910D01*
X120280552Y-36345026D01*
X120300543Y-36333044D01*
X120321613Y-36323079D01*
X120343557Y-36315227D01*
X120366166Y-36309563D01*
X120389221Y-36306144D01*
X120412500Y-36305000D01*
X120887500Y-36305000D01*
X120910779Y-36306144D01*
X120910779Y-36306144D01*
G37*
D12*
G04 #@! TD*
G04 #@! TO.P,R3,2*
G04 #@! TO.N,Net-(D3-Pad2)*
X120650000Y-36830000D03*
D10*
G04 #@! TO.P,U1,1*
G04 #@! TO.N,+5V*
X121920000Y-45720000D03*
G04 #@! TO.P,U1,2*
G04 #@! TO.N,Net-(U1-Pad2)*
X121920000Y-48260000D03*
G04 #@! TO.P,U1,3*
G04 #@! TO.N,GND*
X121920000Y-50800000D03*
G04 #@! TO.P,U1,4*
G04 #@! TO.N,SCL*
X121920000Y-53340000D03*
G04 #@! TO.P,U1,5*
G04 #@! TO.N,SDA*
X121920000Y-55880000D03*
G04 #@! TO.P,U1,6*
G04 #@! TO.N,Net-(U1-Pad6)*
X121920000Y-58420000D03*
G04 #@! TO.P,U1,7*
G04 #@! TO.N,Net-(U1-Pad7)*
X121920000Y-60960000D03*
G04 #@! TO.P,U1,8*
G04 #@! TO.N,Net-(U1-Pad8)*
X121920000Y-63500000D03*
G04 #@! TO.P,U1,9*
G04 #@! TO.N,Net-(U1-Pad9)*
X121920000Y-66040000D03*
G04 #@! TO.P,U1,10*
G04 #@! TO.N,Net-(U1-Pad10)*
X137160000Y-50800000D03*
G04 #@! TO.P,U1,11*
G04 #@! TO.N,Net-(U1-Pad11)*
X137160000Y-53340000D03*
G04 #@! TO.P,U1,12*
G04 #@! TO.N,Net-(U1-Pad12)*
X137160000Y-55880000D03*
G04 #@! TO.P,U1,13*
G04 #@! TO.N,Net-(U1-Pad13)*
X137160000Y-58420000D03*
G04 #@! TO.P,U1,14*
G04 #@! TO.N,N/C*
X137160000Y-60960000D03*
G04 #@! TD*
D13*
G04 #@! TO.N,SDA*
X135890000Y-39370000D03*
G04 #@! TD*
D14*
G04 #@! TO.N,+5V*
X123980000Y-38580000D02*
X125730000Y-36830000D01*
X120650000Y-38580000D02*
X123980000Y-38580000D01*
G04 #@! TO.N,SDA*
X138430000Y-38580000D02*
X136680000Y-38580000D01*
X136680000Y-38580000D02*
X135890000Y-39370000D01*
G04 #@! TO.N,Net-(D1-Pad2)*
X138430000Y-34290000D02*
X138430000Y-36830000D01*
G04 #@! TO.N,Net-(D3-Pad2)*
X120650000Y-34290000D02*
X120650000Y-36830000D01*
G04 #@! TD*
D15*
G04 #@! TO.N,GND*
G36*
X137613698Y-24902958D02*
X138038893Y-25071305D01*
X138408858Y-25340101D01*
X138700356Y-25692462D01*
X138895067Y-26106244D01*
X138987093Y-26588662D01*
X138990001Y-26681195D01*
X138990001Y-33181709D01*
X138667500Y-33117560D01*
X138192500Y-33117560D01*
X137853848Y-33184922D01*
X137566753Y-33376753D01*
X137374922Y-33663848D01*
X137307560Y-34002500D01*
X137307560Y-34577500D01*
X137374922Y-34916152D01*
X137566753Y-35203247D01*
X137604500Y-35228469D01*
X137604501Y-35891531D01*
X137566753Y-35916753D01*
X137374922Y-36203848D01*
X137307560Y-36542500D01*
X137307560Y-37117500D01*
X137374922Y-37456152D01*
X137541197Y-37705000D01*
X137508122Y-37754500D01*
X136761303Y-37754500D01*
X136680000Y-37738328D01*
X136357905Y-37802396D01*
X136221689Y-37893414D01*
X136084848Y-37984848D01*
X136038793Y-38053774D01*
X135757567Y-38335000D01*
X135684126Y-38335000D01*
X135303720Y-38492569D01*
X135012569Y-38783720D01*
X134855000Y-39164126D01*
X134855000Y-39575874D01*
X135012569Y-39956280D01*
X135303720Y-40247431D01*
X135684126Y-40405000D01*
X135791319Y-40405000D01*
X135437354Y-40758965D01*
X135128000Y-41505810D01*
X135128000Y-42314190D01*
X135437354Y-43061035D01*
X136008965Y-43632646D01*
X136755810Y-43942000D01*
X137564190Y-43942000D01*
X138311035Y-43632646D01*
X138882646Y-43061035D01*
X138990001Y-42801860D01*
X138990000Y-68958140D01*
X138882646Y-68698965D01*
X138311035Y-68127354D01*
X137564190Y-67818000D01*
X136755810Y-67818000D01*
X136008965Y-68127354D01*
X135437354Y-68698965D01*
X135128000Y-69445810D01*
X135128000Y-70254190D01*
X135437354Y-71001035D01*
X136008965Y-71572646D01*
X136268140Y-71680000D01*
X122811860Y-71680000D01*
X123071035Y-71572646D01*
X123642646Y-71001035D01*
X123952000Y-70254190D01*
X123952000Y-69445810D01*
X123642646Y-68698965D01*
X123071035Y-68127354D01*
X122324190Y-67818000D01*
X121515810Y-67818000D01*
X120768965Y-68127354D01*
X120197354Y-68698965D01*
X120090000Y-68958140D01*
X120090000Y-53062119D01*
X120523000Y-53062119D01*
X120523000Y-53617881D01*
X120735680Y-54131337D01*
X121128663Y-54524320D01*
X121335513Y-54610000D01*
X121128663Y-54695680D01*
X120735680Y-55088663D01*
X120523000Y-55602119D01*
X120523000Y-56157881D01*
X120735680Y-56671337D01*
X121128663Y-57064320D01*
X121335513Y-57150000D01*
X121128663Y-57235680D01*
X120735680Y-57628663D01*
X120523000Y-58142119D01*
X120523000Y-58697881D01*
X120735680Y-59211337D01*
X121128663Y-59604320D01*
X121335513Y-59690000D01*
X121128663Y-59775680D01*
X120735680Y-60168663D01*
X120523000Y-60682119D01*
X120523000Y-61237881D01*
X120735680Y-61751337D01*
X121128663Y-62144320D01*
X121335513Y-62230000D01*
X121128663Y-62315680D01*
X120735680Y-62708663D01*
X120523000Y-63222119D01*
X120523000Y-63777881D01*
X120735680Y-64291337D01*
X121128663Y-64684320D01*
X121335513Y-64770000D01*
X121128663Y-64855680D01*
X120735680Y-65248663D01*
X120523000Y-65762119D01*
X120523000Y-66317881D01*
X120735680Y-66831337D01*
X121128663Y-67224320D01*
X121642119Y-67437000D01*
X122197881Y-67437000D01*
X122711337Y-67224320D01*
X123104320Y-66831337D01*
X123317000Y-66317881D01*
X123317000Y-65762119D01*
X123104320Y-65248663D01*
X122711337Y-64855680D01*
X122504487Y-64770000D01*
X122711337Y-64684320D01*
X123104320Y-64291337D01*
X123317000Y-63777881D01*
X123317000Y-63222119D01*
X123104320Y-62708663D01*
X122711337Y-62315680D01*
X122504487Y-62230000D01*
X122711337Y-62144320D01*
X123104320Y-61751337D01*
X123317000Y-61237881D01*
X123317000Y-60682119D01*
X123104320Y-60168663D01*
X122711337Y-59775680D01*
X122504487Y-59690000D01*
X122711337Y-59604320D01*
X123104320Y-59211337D01*
X123317000Y-58697881D01*
X123317000Y-58142119D01*
X123104320Y-57628663D01*
X122711337Y-57235680D01*
X122504487Y-57150000D01*
X122711337Y-57064320D01*
X123104320Y-56671337D01*
X123317000Y-56157881D01*
X123317000Y-55602119D01*
X123104320Y-55088663D01*
X122711337Y-54695680D01*
X122504487Y-54610000D01*
X122711337Y-54524320D01*
X123104320Y-54131337D01*
X123317000Y-53617881D01*
X123317000Y-53062119D01*
X123104320Y-52548663D01*
X122711337Y-52155680D01*
X122197881Y-51943000D01*
X121642119Y-51943000D01*
X121128663Y-52155680D01*
X120735680Y-52548663D01*
X120523000Y-53062119D01*
X120090000Y-53062119D01*
X120090000Y-50522119D01*
X135763000Y-50522119D01*
X135763000Y-51077881D01*
X135975680Y-51591337D01*
X136368663Y-51984320D01*
X136575513Y-52070000D01*
X136368663Y-52155680D01*
X135975680Y-52548663D01*
X135763000Y-53062119D01*
X135763000Y-53617881D01*
X135975680Y-54131337D01*
X136368663Y-54524320D01*
X136575513Y-54610000D01*
X136368663Y-54695680D01*
X135975680Y-55088663D01*
X135763000Y-55602119D01*
X135763000Y-56157881D01*
X135975680Y-56671337D01*
X136368663Y-57064320D01*
X136575513Y-57150000D01*
X136368663Y-57235680D01*
X135975680Y-57628663D01*
X135763000Y-58142119D01*
X135763000Y-58697881D01*
X135975680Y-59211337D01*
X136368663Y-59604320D01*
X136575513Y-59690000D01*
X136368663Y-59775680D01*
X135975680Y-60168663D01*
X135763000Y-60682119D01*
X135763000Y-61237881D01*
X135975680Y-61751337D01*
X136368663Y-62144320D01*
X136882119Y-62357000D01*
X137437881Y-62357000D01*
X137951337Y-62144320D01*
X138344320Y-61751337D01*
X138557000Y-61237881D01*
X138557000Y-60682119D01*
X138344320Y-60168663D01*
X137951337Y-59775680D01*
X137744487Y-59690000D01*
X137951337Y-59604320D01*
X138344320Y-59211337D01*
X138557000Y-58697881D01*
X138557000Y-58142119D01*
X138344320Y-57628663D01*
X137951337Y-57235680D01*
X137744487Y-57150000D01*
X137951337Y-57064320D01*
X138344320Y-56671337D01*
X138557000Y-56157881D01*
X138557000Y-55602119D01*
X138344320Y-55088663D01*
X137951337Y-54695680D01*
X137744487Y-54610000D01*
X137951337Y-54524320D01*
X138344320Y-54131337D01*
X138557000Y-53617881D01*
X138557000Y-53062119D01*
X138344320Y-52548663D01*
X137951337Y-52155680D01*
X137744487Y-52070000D01*
X137951337Y-51984320D01*
X138344320Y-51591337D01*
X138557000Y-51077881D01*
X138557000Y-50522119D01*
X138344320Y-50008663D01*
X137951337Y-49615680D01*
X137437881Y-49403000D01*
X136882119Y-49403000D01*
X136368663Y-49615680D01*
X135975680Y-50008663D01*
X135763000Y-50522119D01*
X120090000Y-50522119D01*
X120090000Y-45442119D01*
X120523000Y-45442119D01*
X120523000Y-45997881D01*
X120735680Y-46511337D01*
X121128663Y-46904320D01*
X121335513Y-46990000D01*
X121128663Y-47075680D01*
X120735680Y-47468663D01*
X120523000Y-47982119D01*
X120523000Y-48537881D01*
X120735680Y-49051337D01*
X121128663Y-49444320D01*
X121642119Y-49657000D01*
X122197881Y-49657000D01*
X122711337Y-49444320D01*
X123104320Y-49051337D01*
X123317000Y-48537881D01*
X123317000Y-47982119D01*
X123104320Y-47468663D01*
X122711337Y-47075680D01*
X122504487Y-46990000D01*
X122711337Y-46904320D01*
X123104320Y-46511337D01*
X123317000Y-45997881D01*
X123317000Y-45442119D01*
X123104320Y-44928663D01*
X122711337Y-44535680D01*
X122197881Y-44323000D01*
X121642119Y-44323000D01*
X121128663Y-44535680D01*
X120735680Y-44928663D01*
X120523000Y-45442119D01*
X120090000Y-45442119D01*
X120090000Y-42801860D01*
X120197354Y-43061035D01*
X120768965Y-43632646D01*
X121515810Y-43942000D01*
X122324190Y-43942000D01*
X123071035Y-43632646D01*
X123642646Y-43061035D01*
X123952000Y-42314190D01*
X123952000Y-41505810D01*
X123642646Y-40758965D01*
X123071035Y-40187354D01*
X122324190Y-39878000D01*
X121515810Y-39878000D01*
X120768965Y-40187354D01*
X120197354Y-40758965D01*
X120090000Y-41018140D01*
X120090000Y-39688291D01*
X120412500Y-39752440D01*
X120887500Y-39752440D01*
X121226152Y-39685078D01*
X121513247Y-39493247D01*
X121571878Y-39405500D01*
X123898699Y-39405500D01*
X123980000Y-39421672D01*
X124061301Y-39405500D01*
X124061303Y-39405500D01*
X124302094Y-39357604D01*
X124575152Y-39175152D01*
X124621209Y-39106223D01*
X125500433Y-38227000D01*
X126007881Y-38227000D01*
X126521337Y-38014320D01*
X126914320Y-37621337D01*
X127000000Y-37414487D01*
X127085680Y-37621337D01*
X127478663Y-38014320D01*
X127992119Y-38227000D01*
X128547881Y-38227000D01*
X129061337Y-38014320D01*
X129454320Y-37621337D01*
X129540000Y-37414487D01*
X129625680Y-37621337D01*
X130018663Y-38014320D01*
X130532119Y-38227000D01*
X131087881Y-38227000D01*
X131601337Y-38014320D01*
X131994320Y-37621337D01*
X132207000Y-37107881D01*
X132207000Y-36552119D01*
X131994320Y-36038663D01*
X131601337Y-35645680D01*
X131087881Y-35433000D01*
X130532119Y-35433000D01*
X130018663Y-35645680D01*
X129625680Y-36038663D01*
X129540000Y-36245513D01*
X129454320Y-36038663D01*
X129061337Y-35645680D01*
X128547881Y-35433000D01*
X127992119Y-35433000D01*
X127478663Y-35645680D01*
X127085680Y-36038663D01*
X127000000Y-36245513D01*
X126914320Y-36038663D01*
X126521337Y-35645680D01*
X126007881Y-35433000D01*
X125452119Y-35433000D01*
X124938663Y-35645680D01*
X124545680Y-36038663D01*
X124333000Y-36552119D01*
X124333000Y-37059567D01*
X123638068Y-37754500D01*
X121571878Y-37754500D01*
X121538803Y-37705000D01*
X121705078Y-37456152D01*
X121772440Y-37117500D01*
X121772440Y-36542500D01*
X121705078Y-36203848D01*
X121513247Y-35916753D01*
X121475500Y-35891531D01*
X121475500Y-35228469D01*
X121513247Y-35203247D01*
X121705078Y-34916152D01*
X121772440Y-34577500D01*
X121772440Y-34002500D01*
X121705078Y-33663848D01*
X121513247Y-33376753D01*
X121226152Y-33184922D01*
X120887500Y-33117560D01*
X120412500Y-33117560D01*
X120090000Y-33181709D01*
X120090000Y-27724567D01*
X122100000Y-27724567D01*
X122100000Y-28663433D01*
X122459289Y-29530833D01*
X123123167Y-30194711D01*
X123990567Y-30554000D01*
X124929433Y-30554000D01*
X125796833Y-30194711D01*
X126460711Y-29530833D01*
X126820000Y-28663433D01*
X126820000Y-27724567D01*
X132260000Y-27724567D01*
X132260000Y-28663433D01*
X132619289Y-29530833D01*
X133283167Y-30194711D01*
X134150567Y-30554000D01*
X135089433Y-30554000D01*
X135956833Y-30194711D01*
X136620711Y-29530833D01*
X136980000Y-28663433D01*
X136980000Y-27724567D01*
X136620711Y-26857167D01*
X135956833Y-26193289D01*
X135089433Y-25834000D01*
X134150567Y-25834000D01*
X133283167Y-26193289D01*
X132619289Y-26857167D01*
X132260000Y-27724567D01*
X126820000Y-27724567D01*
X126460711Y-26857167D01*
X125796833Y-26193289D01*
X124929433Y-25834000D01*
X123990567Y-25834000D01*
X123123167Y-26193289D01*
X122459289Y-26857167D01*
X122100000Y-27724567D01*
X120090000Y-27724567D01*
X120090000Y-26714666D01*
X120152958Y-26216302D01*
X120321305Y-25791107D01*
X120590101Y-25421142D01*
X120942462Y-25129644D01*
X121356244Y-24934933D01*
X121838662Y-24842907D01*
X121931164Y-24840000D01*
X137115334Y-24840000D01*
X137613698Y-24902958D01*
X137613698Y-24902958D01*
G37*
X137613698Y-24902958D02*
X138038893Y-25071305D01*
X138408858Y-25340101D01*
X138700356Y-25692462D01*
X138895067Y-26106244D01*
X138987093Y-26588662D01*
X138990001Y-26681195D01*
X138990001Y-33181709D01*
X138667500Y-33117560D01*
X138192500Y-33117560D01*
X137853848Y-33184922D01*
X137566753Y-33376753D01*
X137374922Y-33663848D01*
X137307560Y-34002500D01*
X137307560Y-34577500D01*
X137374922Y-34916152D01*
X137566753Y-35203247D01*
X137604500Y-35228469D01*
X137604501Y-35891531D01*
X137566753Y-35916753D01*
X137374922Y-36203848D01*
X137307560Y-36542500D01*
X137307560Y-37117500D01*
X137374922Y-37456152D01*
X137541197Y-37705000D01*
X137508122Y-37754500D01*
X136761303Y-37754500D01*
X136680000Y-37738328D01*
X136357905Y-37802396D01*
X136221689Y-37893414D01*
X136084848Y-37984848D01*
X136038793Y-38053774D01*
X135757567Y-38335000D01*
X135684126Y-38335000D01*
X135303720Y-38492569D01*
X135012569Y-38783720D01*
X134855000Y-39164126D01*
X134855000Y-39575874D01*
X135012569Y-39956280D01*
X135303720Y-40247431D01*
X135684126Y-40405000D01*
X135791319Y-40405000D01*
X135437354Y-40758965D01*
X135128000Y-41505810D01*
X135128000Y-42314190D01*
X135437354Y-43061035D01*
X136008965Y-43632646D01*
X136755810Y-43942000D01*
X137564190Y-43942000D01*
X138311035Y-43632646D01*
X138882646Y-43061035D01*
X138990001Y-42801860D01*
X138990000Y-68958140D01*
X138882646Y-68698965D01*
X138311035Y-68127354D01*
X137564190Y-67818000D01*
X136755810Y-67818000D01*
X136008965Y-68127354D01*
X135437354Y-68698965D01*
X135128000Y-69445810D01*
X135128000Y-70254190D01*
X135437354Y-71001035D01*
X136008965Y-71572646D01*
X136268140Y-71680000D01*
X122811860Y-71680000D01*
X123071035Y-71572646D01*
X123642646Y-71001035D01*
X123952000Y-70254190D01*
X123952000Y-69445810D01*
X123642646Y-68698965D01*
X123071035Y-68127354D01*
X122324190Y-67818000D01*
X121515810Y-67818000D01*
X120768965Y-68127354D01*
X120197354Y-68698965D01*
X120090000Y-68958140D01*
X120090000Y-53062119D01*
X120523000Y-53062119D01*
X120523000Y-53617881D01*
X120735680Y-54131337D01*
X121128663Y-54524320D01*
X121335513Y-54610000D01*
X121128663Y-54695680D01*
X120735680Y-55088663D01*
X120523000Y-55602119D01*
X120523000Y-56157881D01*
X120735680Y-56671337D01*
X121128663Y-57064320D01*
X121335513Y-57150000D01*
X121128663Y-57235680D01*
X120735680Y-57628663D01*
X120523000Y-58142119D01*
X120523000Y-58697881D01*
X120735680Y-59211337D01*
X121128663Y-59604320D01*
X121335513Y-59690000D01*
X121128663Y-59775680D01*
X120735680Y-60168663D01*
X120523000Y-60682119D01*
X120523000Y-61237881D01*
X120735680Y-61751337D01*
X121128663Y-62144320D01*
X121335513Y-62230000D01*
X121128663Y-62315680D01*
X120735680Y-62708663D01*
X120523000Y-63222119D01*
X120523000Y-63777881D01*
X120735680Y-64291337D01*
X121128663Y-64684320D01*
X121335513Y-64770000D01*
X121128663Y-64855680D01*
X120735680Y-65248663D01*
X120523000Y-65762119D01*
X120523000Y-66317881D01*
X120735680Y-66831337D01*
X121128663Y-67224320D01*
X121642119Y-67437000D01*
X122197881Y-67437000D01*
X122711337Y-67224320D01*
X123104320Y-66831337D01*
X123317000Y-66317881D01*
X123317000Y-65762119D01*
X123104320Y-65248663D01*
X122711337Y-64855680D01*
X122504487Y-64770000D01*
X122711337Y-64684320D01*
X123104320Y-64291337D01*
X123317000Y-63777881D01*
X123317000Y-63222119D01*
X123104320Y-62708663D01*
X122711337Y-62315680D01*
X122504487Y-62230000D01*
X122711337Y-62144320D01*
X123104320Y-61751337D01*
X123317000Y-61237881D01*
X123317000Y-60682119D01*
X123104320Y-60168663D01*
X122711337Y-59775680D01*
X122504487Y-59690000D01*
X122711337Y-59604320D01*
X123104320Y-59211337D01*
X123317000Y-58697881D01*
X123317000Y-58142119D01*
X123104320Y-57628663D01*
X122711337Y-57235680D01*
X122504487Y-57150000D01*
X122711337Y-57064320D01*
X123104320Y-56671337D01*
X123317000Y-56157881D01*
X123317000Y-55602119D01*
X123104320Y-55088663D01*
X122711337Y-54695680D01*
X122504487Y-54610000D01*
X122711337Y-54524320D01*
X123104320Y-54131337D01*
X123317000Y-53617881D01*
X123317000Y-53062119D01*
X123104320Y-52548663D01*
X122711337Y-52155680D01*
X122197881Y-51943000D01*
X121642119Y-51943000D01*
X121128663Y-52155680D01*
X120735680Y-52548663D01*
X120523000Y-53062119D01*
X120090000Y-53062119D01*
X120090000Y-50522119D01*
X135763000Y-50522119D01*
X135763000Y-51077881D01*
X135975680Y-51591337D01*
X136368663Y-51984320D01*
X136575513Y-52070000D01*
X136368663Y-52155680D01*
X135975680Y-52548663D01*
X135763000Y-53062119D01*
X135763000Y-53617881D01*
X135975680Y-54131337D01*
X136368663Y-54524320D01*
X136575513Y-54610000D01*
X136368663Y-54695680D01*
X135975680Y-55088663D01*
X135763000Y-55602119D01*
X135763000Y-56157881D01*
X135975680Y-56671337D01*
X136368663Y-57064320D01*
X136575513Y-57150000D01*
X136368663Y-57235680D01*
X135975680Y-57628663D01*
X135763000Y-58142119D01*
X135763000Y-58697881D01*
X135975680Y-59211337D01*
X136368663Y-59604320D01*
X136575513Y-59690000D01*
X136368663Y-59775680D01*
X135975680Y-60168663D01*
X135763000Y-60682119D01*
X135763000Y-61237881D01*
X135975680Y-61751337D01*
X136368663Y-62144320D01*
X136882119Y-62357000D01*
X137437881Y-62357000D01*
X137951337Y-62144320D01*
X138344320Y-61751337D01*
X138557000Y-61237881D01*
X138557000Y-60682119D01*
X138344320Y-60168663D01*
X137951337Y-59775680D01*
X137744487Y-59690000D01*
X137951337Y-59604320D01*
X138344320Y-59211337D01*
X138557000Y-58697881D01*
X138557000Y-58142119D01*
X138344320Y-57628663D01*
X137951337Y-57235680D01*
X137744487Y-57150000D01*
X137951337Y-57064320D01*
X138344320Y-56671337D01*
X138557000Y-56157881D01*
X138557000Y-55602119D01*
X138344320Y-55088663D01*
X137951337Y-54695680D01*
X137744487Y-54610000D01*
X137951337Y-54524320D01*
X138344320Y-54131337D01*
X138557000Y-53617881D01*
X138557000Y-53062119D01*
X138344320Y-52548663D01*
X137951337Y-52155680D01*
X137744487Y-52070000D01*
X137951337Y-51984320D01*
X138344320Y-51591337D01*
X138557000Y-51077881D01*
X138557000Y-50522119D01*
X138344320Y-50008663D01*
X137951337Y-49615680D01*
X137437881Y-49403000D01*
X136882119Y-49403000D01*
X136368663Y-49615680D01*
X135975680Y-50008663D01*
X135763000Y-50522119D01*
X120090000Y-50522119D01*
X120090000Y-45442119D01*
X120523000Y-45442119D01*
X120523000Y-45997881D01*
X120735680Y-46511337D01*
X121128663Y-46904320D01*
X121335513Y-46990000D01*
X121128663Y-47075680D01*
X120735680Y-47468663D01*
X120523000Y-47982119D01*
X120523000Y-48537881D01*
X120735680Y-49051337D01*
X121128663Y-49444320D01*
X121642119Y-49657000D01*
X122197881Y-49657000D01*
X122711337Y-49444320D01*
X123104320Y-49051337D01*
X123317000Y-48537881D01*
X123317000Y-47982119D01*
X123104320Y-47468663D01*
X122711337Y-47075680D01*
X122504487Y-46990000D01*
X122711337Y-46904320D01*
X123104320Y-46511337D01*
X123317000Y-45997881D01*
X123317000Y-45442119D01*
X123104320Y-44928663D01*
X122711337Y-44535680D01*
X122197881Y-44323000D01*
X121642119Y-44323000D01*
X121128663Y-44535680D01*
X120735680Y-44928663D01*
X120523000Y-45442119D01*
X120090000Y-45442119D01*
X120090000Y-42801860D01*
X120197354Y-43061035D01*
X120768965Y-43632646D01*
X121515810Y-43942000D01*
X122324190Y-43942000D01*
X123071035Y-43632646D01*
X123642646Y-43061035D01*
X123952000Y-42314190D01*
X123952000Y-41505810D01*
X123642646Y-40758965D01*
X123071035Y-40187354D01*
X122324190Y-39878000D01*
X121515810Y-39878000D01*
X120768965Y-40187354D01*
X120197354Y-40758965D01*
X120090000Y-41018140D01*
X120090000Y-39688291D01*
X120412500Y-39752440D01*
X120887500Y-39752440D01*
X121226152Y-39685078D01*
X121513247Y-39493247D01*
X121571878Y-39405500D01*
X123898699Y-39405500D01*
X123980000Y-39421672D01*
X124061301Y-39405500D01*
X124061303Y-39405500D01*
X124302094Y-39357604D01*
X124575152Y-39175152D01*
X124621209Y-39106223D01*
X125500433Y-38227000D01*
X126007881Y-38227000D01*
X126521337Y-38014320D01*
X126914320Y-37621337D01*
X127000000Y-37414487D01*
X127085680Y-37621337D01*
X127478663Y-38014320D01*
X127992119Y-38227000D01*
X128547881Y-38227000D01*
X129061337Y-38014320D01*
X129454320Y-37621337D01*
X129540000Y-37414487D01*
X129625680Y-37621337D01*
X130018663Y-38014320D01*
X130532119Y-38227000D01*
X131087881Y-38227000D01*
X131601337Y-38014320D01*
X131994320Y-37621337D01*
X132207000Y-37107881D01*
X132207000Y-36552119D01*
X131994320Y-36038663D01*
X131601337Y-35645680D01*
X131087881Y-35433000D01*
X130532119Y-35433000D01*
X130018663Y-35645680D01*
X129625680Y-36038663D01*
X129540000Y-36245513D01*
X129454320Y-36038663D01*
X129061337Y-35645680D01*
X128547881Y-35433000D01*
X127992119Y-35433000D01*
X127478663Y-35645680D01*
X127085680Y-36038663D01*
X127000000Y-36245513D01*
X126914320Y-36038663D01*
X126521337Y-35645680D01*
X126007881Y-35433000D01*
X125452119Y-35433000D01*
X124938663Y-35645680D01*
X124545680Y-36038663D01*
X124333000Y-36552119D01*
X124333000Y-37059567D01*
X123638068Y-37754500D01*
X121571878Y-37754500D01*
X121538803Y-37705000D01*
X121705078Y-37456152D01*
X121772440Y-37117500D01*
X121772440Y-36542500D01*
X121705078Y-36203848D01*
X121513247Y-35916753D01*
X121475500Y-35891531D01*
X121475500Y-35228469D01*
X121513247Y-35203247D01*
X121705078Y-34916152D01*
X121772440Y-34577500D01*
X121772440Y-34002500D01*
X121705078Y-33663848D01*
X121513247Y-33376753D01*
X121226152Y-33184922D01*
X120887500Y-33117560D01*
X120412500Y-33117560D01*
X120090000Y-33181709D01*
X120090000Y-27724567D01*
X122100000Y-27724567D01*
X122100000Y-28663433D01*
X122459289Y-29530833D01*
X123123167Y-30194711D01*
X123990567Y-30554000D01*
X124929433Y-30554000D01*
X125796833Y-30194711D01*
X126460711Y-29530833D01*
X126820000Y-28663433D01*
X126820000Y-27724567D01*
X132260000Y-27724567D01*
X132260000Y-28663433D01*
X132619289Y-29530833D01*
X133283167Y-30194711D01*
X134150567Y-30554000D01*
X135089433Y-30554000D01*
X135956833Y-30194711D01*
X136620711Y-29530833D01*
X136980000Y-28663433D01*
X136980000Y-27724567D01*
X136620711Y-26857167D01*
X135956833Y-26193289D01*
X135089433Y-25834000D01*
X134150567Y-25834000D01*
X133283167Y-26193289D01*
X132619289Y-26857167D01*
X132260000Y-27724567D01*
X126820000Y-27724567D01*
X126460711Y-26857167D01*
X125796833Y-26193289D01*
X124929433Y-25834000D01*
X123990567Y-25834000D01*
X123123167Y-26193289D01*
X122459289Y-26857167D01*
X122100000Y-27724567D01*
X120090000Y-27724567D01*
X120090000Y-26714666D01*
X120152958Y-26216302D01*
X120321305Y-25791107D01*
X120590101Y-25421142D01*
X120942462Y-25129644D01*
X121356244Y-24934933D01*
X121838662Y-24842907D01*
X121931164Y-24840000D01*
X137115334Y-24840000D01*
X137613698Y-24902958D01*
G04 #@! TD*
M02*
