G04 #@! TF.GenerationSoftware,KiCad,Pcbnew,(5.0.2)-1*
G04 #@! TF.CreationDate,2019-04-17T18:20:16-05:00*
G04 #@! TF.ProjectId,LSM9DS1Breakout_Hardware,4c534d39-4453-4314-9272-65616b6f7574,rev?*
G04 #@! TF.SameCoordinates,Original*
G04 #@! TF.FileFunction,Copper,L2,Bot*
G04 #@! TF.FilePolarity,Positive*
%FSLAX46Y46*%
G04 Gerber Fmt 4.6, Leading zero omitted, Abs format (unit mm)*
G04 Created by KiCad (PCBNEW (5.0.2)-1) date 4/17/2019 6:20:16 PM*
%MOMM*%
%LPD*%
G01*
G04 APERTURE LIST*
G04 #@! TA.AperFunction,ComponentPad*
%ADD10C,1.524000*%
G04 #@! TD*
G04 #@! TA.AperFunction,ViaPad*
%ADD11C,0.800000*%
G04 #@! TD*
G04 #@! TA.AperFunction,Conductor*
%ADD12C,0.381000*%
G04 #@! TD*
G04 #@! TA.AperFunction,Conductor*
%ADD13C,0.254000*%
G04 #@! TD*
G04 APERTURE END LIST*
D10*
G04 #@! TO.P,Conn1,1*
G04 #@! TO.N,+5V*
X125730000Y-36830000D03*
G04 #@! TO.P,Conn1,2*
G04 #@! TO.N,SCL*
X128270000Y-36830000D03*
G04 #@! TO.P,Conn1,3*
G04 #@! TO.N,SDA*
X130810000Y-36830000D03*
G04 #@! TO.P,Conn1,4*
G04 #@! TO.N,GND*
X133350000Y-36830000D03*
G04 #@! TD*
G04 #@! TO.P,U1,1*
G04 #@! TO.N,+5V*
X121920000Y-45720000D03*
G04 #@! TO.P,U1,2*
G04 #@! TO.N,Net-(U1-Pad2)*
X121920000Y-48260000D03*
G04 #@! TO.P,U1,3*
G04 #@! TO.N,GND*
X121920000Y-50800000D03*
G04 #@! TO.P,U1,4*
G04 #@! TO.N,SCL*
X121920000Y-53340000D03*
G04 #@! TO.P,U1,5*
G04 #@! TO.N,SDA*
X121920000Y-55880000D03*
G04 #@! TO.P,U1,6*
G04 #@! TO.N,Net-(U1-Pad6)*
X121920000Y-58420000D03*
G04 #@! TO.P,U1,7*
G04 #@! TO.N,Net-(U1-Pad7)*
X121920000Y-60960000D03*
G04 #@! TO.P,U1,8*
G04 #@! TO.N,Net-(U1-Pad8)*
X121920000Y-63500000D03*
G04 #@! TO.P,U1,9*
G04 #@! TO.N,Net-(U1-Pad9)*
X121920000Y-66040000D03*
G04 #@! TO.P,U1,10*
G04 #@! TO.N,Net-(U1-Pad10)*
X137160000Y-50800000D03*
G04 #@! TO.P,U1,11*
G04 #@! TO.N,Net-(U1-Pad11)*
X137160000Y-53340000D03*
G04 #@! TO.P,U1,12*
G04 #@! TO.N,Net-(U1-Pad12)*
X137160000Y-55880000D03*
G04 #@! TO.P,U1,13*
G04 #@! TO.N,Net-(U1-Pad13)*
X137160000Y-58420000D03*
G04 #@! TO.P,U1,14*
G04 #@! TO.N,N/C*
X137160000Y-60960000D03*
G04 #@! TD*
D11*
G04 #@! TO.N,SDA*
X135890000Y-39370000D03*
G04 #@! TD*
D12*
G04 #@! TO.N,SCL*
X127000000Y-53340000D02*
X128270000Y-52070000D01*
X127000000Y-53340000D02*
X121920000Y-53340000D01*
X128270000Y-36830000D02*
X128270000Y-52070000D01*
G04 #@! TO.N,SDA*
X130810000Y-54610000D02*
X129540000Y-55880000D01*
X129540000Y-55880000D02*
X128270000Y-55880000D01*
X128270000Y-55880000D02*
X121920000Y-55880000D01*
X135890000Y-39370000D02*
X130810000Y-39370000D01*
X130810000Y-36830000D02*
X130810000Y-39370000D01*
X130810000Y-39370000D02*
X130810000Y-54610000D01*
G04 #@! TD*
D13*
G04 #@! TO.N,+5V*
G36*
X137613698Y-24902958D02*
X138038893Y-25071305D01*
X138408858Y-25340101D01*
X138700356Y-25692462D01*
X138895067Y-26106244D01*
X138987093Y-26588662D01*
X138990001Y-26681195D01*
X138990001Y-41018142D01*
X138882646Y-40758965D01*
X138311035Y-40187354D01*
X137564190Y-39878000D01*
X136799856Y-39878000D01*
X136925000Y-39575874D01*
X136925000Y-39164126D01*
X136767431Y-38783720D01*
X136476280Y-38492569D01*
X136095874Y-38335000D01*
X135684126Y-38335000D01*
X135303720Y-38492569D01*
X135251789Y-38544500D01*
X131635500Y-38544500D01*
X131635500Y-37980157D01*
X131994320Y-37621337D01*
X132080000Y-37414487D01*
X132165680Y-37621337D01*
X132558663Y-38014320D01*
X133072119Y-38227000D01*
X133627881Y-38227000D01*
X134141337Y-38014320D01*
X134534320Y-37621337D01*
X134747000Y-37107881D01*
X134747000Y-36552119D01*
X134534320Y-36038663D01*
X134141337Y-35645680D01*
X133627881Y-35433000D01*
X133072119Y-35433000D01*
X132558663Y-35645680D01*
X132165680Y-36038663D01*
X132080000Y-36245513D01*
X131994320Y-36038663D01*
X131601337Y-35645680D01*
X131087881Y-35433000D01*
X130532119Y-35433000D01*
X130018663Y-35645680D01*
X129625680Y-36038663D01*
X129540000Y-36245513D01*
X129454320Y-36038663D01*
X129061337Y-35645680D01*
X128547881Y-35433000D01*
X127992119Y-35433000D01*
X127478663Y-35645680D01*
X127085680Y-36038663D01*
X126873000Y-36552119D01*
X126873000Y-37107881D01*
X127085680Y-37621337D01*
X127444500Y-37980157D01*
X127444501Y-51728066D01*
X126658068Y-52514500D01*
X123070157Y-52514500D01*
X122711337Y-52155680D01*
X122504487Y-52070000D01*
X122711337Y-51984320D01*
X123104320Y-51591337D01*
X123317000Y-51077881D01*
X123317000Y-50522119D01*
X123104320Y-50008663D01*
X122711337Y-49615680D01*
X122504487Y-49530000D01*
X122711337Y-49444320D01*
X123104320Y-49051337D01*
X123317000Y-48537881D01*
X123317000Y-47982119D01*
X123104320Y-47468663D01*
X122711337Y-47075680D01*
X122197881Y-46863000D01*
X121642119Y-46863000D01*
X121128663Y-47075680D01*
X120735680Y-47468663D01*
X120523000Y-47982119D01*
X120523000Y-48537881D01*
X120735680Y-49051337D01*
X121128663Y-49444320D01*
X121335513Y-49530000D01*
X121128663Y-49615680D01*
X120735680Y-50008663D01*
X120523000Y-50522119D01*
X120523000Y-51077881D01*
X120735680Y-51591337D01*
X121128663Y-51984320D01*
X121335513Y-52070000D01*
X121128663Y-52155680D01*
X120735680Y-52548663D01*
X120523000Y-53062119D01*
X120523000Y-53617881D01*
X120735680Y-54131337D01*
X121128663Y-54524320D01*
X121335513Y-54610000D01*
X121128663Y-54695680D01*
X120735680Y-55088663D01*
X120523000Y-55602119D01*
X120523000Y-56157881D01*
X120735680Y-56671337D01*
X121128663Y-57064320D01*
X121335513Y-57150000D01*
X121128663Y-57235680D01*
X120735680Y-57628663D01*
X120523000Y-58142119D01*
X120523000Y-58697881D01*
X120735680Y-59211337D01*
X121128663Y-59604320D01*
X121335513Y-59690000D01*
X121128663Y-59775680D01*
X120735680Y-60168663D01*
X120523000Y-60682119D01*
X120523000Y-61237881D01*
X120735680Y-61751337D01*
X121128663Y-62144320D01*
X121335513Y-62230000D01*
X121128663Y-62315680D01*
X120735680Y-62708663D01*
X120523000Y-63222119D01*
X120523000Y-63777881D01*
X120735680Y-64291337D01*
X121128663Y-64684320D01*
X121335513Y-64770000D01*
X121128663Y-64855680D01*
X120735680Y-65248663D01*
X120523000Y-65762119D01*
X120523000Y-66317881D01*
X120735680Y-66831337D01*
X121128663Y-67224320D01*
X121642119Y-67437000D01*
X122197881Y-67437000D01*
X122711337Y-67224320D01*
X123104320Y-66831337D01*
X123317000Y-66317881D01*
X123317000Y-65762119D01*
X123104320Y-65248663D01*
X122711337Y-64855680D01*
X122504487Y-64770000D01*
X122711337Y-64684320D01*
X123104320Y-64291337D01*
X123317000Y-63777881D01*
X123317000Y-63222119D01*
X123104320Y-62708663D01*
X122711337Y-62315680D01*
X122504487Y-62230000D01*
X122711337Y-62144320D01*
X123104320Y-61751337D01*
X123317000Y-61237881D01*
X123317000Y-60682119D01*
X123104320Y-60168663D01*
X122711337Y-59775680D01*
X122504487Y-59690000D01*
X122711337Y-59604320D01*
X123104320Y-59211337D01*
X123317000Y-58697881D01*
X123317000Y-58142119D01*
X123104320Y-57628663D01*
X122711337Y-57235680D01*
X122504487Y-57150000D01*
X122711337Y-57064320D01*
X123070157Y-56705500D01*
X129458699Y-56705500D01*
X129540000Y-56721672D01*
X129621301Y-56705500D01*
X129621303Y-56705500D01*
X129862094Y-56657604D01*
X130135152Y-56475152D01*
X130181209Y-56406223D01*
X131336226Y-55251207D01*
X131405152Y-55205152D01*
X131587604Y-54932094D01*
X131635500Y-54691303D01*
X131635500Y-54691299D01*
X131651671Y-54610001D01*
X131635500Y-54528703D01*
X131635500Y-50522119D01*
X135763000Y-50522119D01*
X135763000Y-51077881D01*
X135975680Y-51591337D01*
X136368663Y-51984320D01*
X136575513Y-52070000D01*
X136368663Y-52155680D01*
X135975680Y-52548663D01*
X135763000Y-53062119D01*
X135763000Y-53617881D01*
X135975680Y-54131337D01*
X136368663Y-54524320D01*
X136575513Y-54610000D01*
X136368663Y-54695680D01*
X135975680Y-55088663D01*
X135763000Y-55602119D01*
X135763000Y-56157881D01*
X135975680Y-56671337D01*
X136368663Y-57064320D01*
X136575513Y-57150000D01*
X136368663Y-57235680D01*
X135975680Y-57628663D01*
X135763000Y-58142119D01*
X135763000Y-58697881D01*
X135975680Y-59211337D01*
X136368663Y-59604320D01*
X136575513Y-59690000D01*
X136368663Y-59775680D01*
X135975680Y-60168663D01*
X135763000Y-60682119D01*
X135763000Y-61237881D01*
X135975680Y-61751337D01*
X136368663Y-62144320D01*
X136882119Y-62357000D01*
X137437881Y-62357000D01*
X137951337Y-62144320D01*
X138344320Y-61751337D01*
X138557000Y-61237881D01*
X138557000Y-60682119D01*
X138344320Y-60168663D01*
X137951337Y-59775680D01*
X137744487Y-59690000D01*
X137951337Y-59604320D01*
X138344320Y-59211337D01*
X138557000Y-58697881D01*
X138557000Y-58142119D01*
X138344320Y-57628663D01*
X137951337Y-57235680D01*
X137744487Y-57150000D01*
X137951337Y-57064320D01*
X138344320Y-56671337D01*
X138557000Y-56157881D01*
X138557000Y-55602119D01*
X138344320Y-55088663D01*
X137951337Y-54695680D01*
X137744487Y-54610000D01*
X137951337Y-54524320D01*
X138344320Y-54131337D01*
X138557000Y-53617881D01*
X138557000Y-53062119D01*
X138344320Y-52548663D01*
X137951337Y-52155680D01*
X137744487Y-52070000D01*
X137951337Y-51984320D01*
X138344320Y-51591337D01*
X138557000Y-51077881D01*
X138557000Y-50522119D01*
X138344320Y-50008663D01*
X137951337Y-49615680D01*
X137437881Y-49403000D01*
X136882119Y-49403000D01*
X136368663Y-49615680D01*
X135975680Y-50008663D01*
X135763000Y-50522119D01*
X131635500Y-50522119D01*
X131635500Y-40195500D01*
X135251789Y-40195500D01*
X135303720Y-40247431D01*
X135684126Y-40405000D01*
X135791319Y-40405000D01*
X135437354Y-40758965D01*
X135128000Y-41505810D01*
X135128000Y-42314190D01*
X135437354Y-43061035D01*
X136008965Y-43632646D01*
X136755810Y-43942000D01*
X137564190Y-43942000D01*
X138311035Y-43632646D01*
X138882646Y-43061035D01*
X138990001Y-42801860D01*
X138990000Y-68958140D01*
X138882646Y-68698965D01*
X138311035Y-68127354D01*
X137564190Y-67818000D01*
X136755810Y-67818000D01*
X136008965Y-68127354D01*
X135437354Y-68698965D01*
X135128000Y-69445810D01*
X135128000Y-70254190D01*
X135437354Y-71001035D01*
X136008965Y-71572646D01*
X136268140Y-71680000D01*
X122811860Y-71680000D01*
X123071035Y-71572646D01*
X123642646Y-71001035D01*
X123952000Y-70254190D01*
X123952000Y-69445810D01*
X123642646Y-68698965D01*
X123071035Y-68127354D01*
X122324190Y-67818000D01*
X121515810Y-67818000D01*
X120768965Y-68127354D01*
X120197354Y-68698965D01*
X120090000Y-68958140D01*
X120090000Y-42801860D01*
X120197354Y-43061035D01*
X120768965Y-43632646D01*
X121515810Y-43942000D01*
X122324190Y-43942000D01*
X123071035Y-43632646D01*
X123642646Y-43061035D01*
X123952000Y-42314190D01*
X123952000Y-41505810D01*
X123642646Y-40758965D01*
X123071035Y-40187354D01*
X122324190Y-39878000D01*
X121515810Y-39878000D01*
X120768965Y-40187354D01*
X120197354Y-40758965D01*
X120090000Y-41018140D01*
X120090000Y-27724567D01*
X122100000Y-27724567D01*
X122100000Y-28663433D01*
X122459289Y-29530833D01*
X123123167Y-30194711D01*
X123990567Y-30554000D01*
X124929433Y-30554000D01*
X125796833Y-30194711D01*
X126460711Y-29530833D01*
X126820000Y-28663433D01*
X126820000Y-27724567D01*
X132260000Y-27724567D01*
X132260000Y-28663433D01*
X132619289Y-29530833D01*
X133283167Y-30194711D01*
X134150567Y-30554000D01*
X135089433Y-30554000D01*
X135956833Y-30194711D01*
X136620711Y-29530833D01*
X136980000Y-28663433D01*
X136980000Y-27724567D01*
X136620711Y-26857167D01*
X135956833Y-26193289D01*
X135089433Y-25834000D01*
X134150567Y-25834000D01*
X133283167Y-26193289D01*
X132619289Y-26857167D01*
X132260000Y-27724567D01*
X126820000Y-27724567D01*
X126460711Y-26857167D01*
X125796833Y-26193289D01*
X124929433Y-25834000D01*
X123990567Y-25834000D01*
X123123167Y-26193289D01*
X122459289Y-26857167D01*
X122100000Y-27724567D01*
X120090000Y-27724567D01*
X120090000Y-26714666D01*
X120152958Y-26216302D01*
X120321305Y-25791107D01*
X120590101Y-25421142D01*
X120942462Y-25129644D01*
X121356244Y-24934933D01*
X121838662Y-24842907D01*
X121931164Y-24840000D01*
X137115334Y-24840000D01*
X137613698Y-24902958D01*
X137613698Y-24902958D01*
G37*
X137613698Y-24902958D02*
X138038893Y-25071305D01*
X138408858Y-25340101D01*
X138700356Y-25692462D01*
X138895067Y-26106244D01*
X138987093Y-26588662D01*
X138990001Y-26681195D01*
X138990001Y-41018142D01*
X138882646Y-40758965D01*
X138311035Y-40187354D01*
X137564190Y-39878000D01*
X136799856Y-39878000D01*
X136925000Y-39575874D01*
X136925000Y-39164126D01*
X136767431Y-38783720D01*
X136476280Y-38492569D01*
X136095874Y-38335000D01*
X135684126Y-38335000D01*
X135303720Y-38492569D01*
X135251789Y-38544500D01*
X131635500Y-38544500D01*
X131635500Y-37980157D01*
X131994320Y-37621337D01*
X132080000Y-37414487D01*
X132165680Y-37621337D01*
X132558663Y-38014320D01*
X133072119Y-38227000D01*
X133627881Y-38227000D01*
X134141337Y-38014320D01*
X134534320Y-37621337D01*
X134747000Y-37107881D01*
X134747000Y-36552119D01*
X134534320Y-36038663D01*
X134141337Y-35645680D01*
X133627881Y-35433000D01*
X133072119Y-35433000D01*
X132558663Y-35645680D01*
X132165680Y-36038663D01*
X132080000Y-36245513D01*
X131994320Y-36038663D01*
X131601337Y-35645680D01*
X131087881Y-35433000D01*
X130532119Y-35433000D01*
X130018663Y-35645680D01*
X129625680Y-36038663D01*
X129540000Y-36245513D01*
X129454320Y-36038663D01*
X129061337Y-35645680D01*
X128547881Y-35433000D01*
X127992119Y-35433000D01*
X127478663Y-35645680D01*
X127085680Y-36038663D01*
X126873000Y-36552119D01*
X126873000Y-37107881D01*
X127085680Y-37621337D01*
X127444500Y-37980157D01*
X127444501Y-51728066D01*
X126658068Y-52514500D01*
X123070157Y-52514500D01*
X122711337Y-52155680D01*
X122504487Y-52070000D01*
X122711337Y-51984320D01*
X123104320Y-51591337D01*
X123317000Y-51077881D01*
X123317000Y-50522119D01*
X123104320Y-50008663D01*
X122711337Y-49615680D01*
X122504487Y-49530000D01*
X122711337Y-49444320D01*
X123104320Y-49051337D01*
X123317000Y-48537881D01*
X123317000Y-47982119D01*
X123104320Y-47468663D01*
X122711337Y-47075680D01*
X122197881Y-46863000D01*
X121642119Y-46863000D01*
X121128663Y-47075680D01*
X120735680Y-47468663D01*
X120523000Y-47982119D01*
X120523000Y-48537881D01*
X120735680Y-49051337D01*
X121128663Y-49444320D01*
X121335513Y-49530000D01*
X121128663Y-49615680D01*
X120735680Y-50008663D01*
X120523000Y-50522119D01*
X120523000Y-51077881D01*
X120735680Y-51591337D01*
X121128663Y-51984320D01*
X121335513Y-52070000D01*
X121128663Y-52155680D01*
X120735680Y-52548663D01*
X120523000Y-53062119D01*
X120523000Y-53617881D01*
X120735680Y-54131337D01*
X121128663Y-54524320D01*
X121335513Y-54610000D01*
X121128663Y-54695680D01*
X120735680Y-55088663D01*
X120523000Y-55602119D01*
X120523000Y-56157881D01*
X120735680Y-56671337D01*
X121128663Y-57064320D01*
X121335513Y-57150000D01*
X121128663Y-57235680D01*
X120735680Y-57628663D01*
X120523000Y-58142119D01*
X120523000Y-58697881D01*
X120735680Y-59211337D01*
X121128663Y-59604320D01*
X121335513Y-59690000D01*
X121128663Y-59775680D01*
X120735680Y-60168663D01*
X120523000Y-60682119D01*
X120523000Y-61237881D01*
X120735680Y-61751337D01*
X121128663Y-62144320D01*
X121335513Y-62230000D01*
X121128663Y-62315680D01*
X120735680Y-62708663D01*
X120523000Y-63222119D01*
X120523000Y-63777881D01*
X120735680Y-64291337D01*
X121128663Y-64684320D01*
X121335513Y-64770000D01*
X121128663Y-64855680D01*
X120735680Y-65248663D01*
X120523000Y-65762119D01*
X120523000Y-66317881D01*
X120735680Y-66831337D01*
X121128663Y-67224320D01*
X121642119Y-67437000D01*
X122197881Y-67437000D01*
X122711337Y-67224320D01*
X123104320Y-66831337D01*
X123317000Y-66317881D01*
X123317000Y-65762119D01*
X123104320Y-65248663D01*
X122711337Y-64855680D01*
X122504487Y-64770000D01*
X122711337Y-64684320D01*
X123104320Y-64291337D01*
X123317000Y-63777881D01*
X123317000Y-63222119D01*
X123104320Y-62708663D01*
X122711337Y-62315680D01*
X122504487Y-62230000D01*
X122711337Y-62144320D01*
X123104320Y-61751337D01*
X123317000Y-61237881D01*
X123317000Y-60682119D01*
X123104320Y-60168663D01*
X122711337Y-59775680D01*
X122504487Y-59690000D01*
X122711337Y-59604320D01*
X123104320Y-59211337D01*
X123317000Y-58697881D01*
X123317000Y-58142119D01*
X123104320Y-57628663D01*
X122711337Y-57235680D01*
X122504487Y-57150000D01*
X122711337Y-57064320D01*
X123070157Y-56705500D01*
X129458699Y-56705500D01*
X129540000Y-56721672D01*
X129621301Y-56705500D01*
X129621303Y-56705500D01*
X129862094Y-56657604D01*
X130135152Y-56475152D01*
X130181209Y-56406223D01*
X131336226Y-55251207D01*
X131405152Y-55205152D01*
X131587604Y-54932094D01*
X131635500Y-54691303D01*
X131635500Y-54691299D01*
X131651671Y-54610001D01*
X131635500Y-54528703D01*
X131635500Y-50522119D01*
X135763000Y-50522119D01*
X135763000Y-51077881D01*
X135975680Y-51591337D01*
X136368663Y-51984320D01*
X136575513Y-52070000D01*
X136368663Y-52155680D01*
X135975680Y-52548663D01*
X135763000Y-53062119D01*
X135763000Y-53617881D01*
X135975680Y-54131337D01*
X136368663Y-54524320D01*
X136575513Y-54610000D01*
X136368663Y-54695680D01*
X135975680Y-55088663D01*
X135763000Y-55602119D01*
X135763000Y-56157881D01*
X135975680Y-56671337D01*
X136368663Y-57064320D01*
X136575513Y-57150000D01*
X136368663Y-57235680D01*
X135975680Y-57628663D01*
X135763000Y-58142119D01*
X135763000Y-58697881D01*
X135975680Y-59211337D01*
X136368663Y-59604320D01*
X136575513Y-59690000D01*
X136368663Y-59775680D01*
X135975680Y-60168663D01*
X135763000Y-60682119D01*
X135763000Y-61237881D01*
X135975680Y-61751337D01*
X136368663Y-62144320D01*
X136882119Y-62357000D01*
X137437881Y-62357000D01*
X137951337Y-62144320D01*
X138344320Y-61751337D01*
X138557000Y-61237881D01*
X138557000Y-60682119D01*
X138344320Y-60168663D01*
X137951337Y-59775680D01*
X137744487Y-59690000D01*
X137951337Y-59604320D01*
X138344320Y-59211337D01*
X138557000Y-58697881D01*
X138557000Y-58142119D01*
X138344320Y-57628663D01*
X137951337Y-57235680D01*
X137744487Y-57150000D01*
X137951337Y-57064320D01*
X138344320Y-56671337D01*
X138557000Y-56157881D01*
X138557000Y-55602119D01*
X138344320Y-55088663D01*
X137951337Y-54695680D01*
X137744487Y-54610000D01*
X137951337Y-54524320D01*
X138344320Y-54131337D01*
X138557000Y-53617881D01*
X138557000Y-53062119D01*
X138344320Y-52548663D01*
X137951337Y-52155680D01*
X137744487Y-52070000D01*
X137951337Y-51984320D01*
X138344320Y-51591337D01*
X138557000Y-51077881D01*
X138557000Y-50522119D01*
X138344320Y-50008663D01*
X137951337Y-49615680D01*
X137437881Y-49403000D01*
X136882119Y-49403000D01*
X136368663Y-49615680D01*
X135975680Y-50008663D01*
X135763000Y-50522119D01*
X131635500Y-50522119D01*
X131635500Y-40195500D01*
X135251789Y-40195500D01*
X135303720Y-40247431D01*
X135684126Y-40405000D01*
X135791319Y-40405000D01*
X135437354Y-40758965D01*
X135128000Y-41505810D01*
X135128000Y-42314190D01*
X135437354Y-43061035D01*
X136008965Y-43632646D01*
X136755810Y-43942000D01*
X137564190Y-43942000D01*
X138311035Y-43632646D01*
X138882646Y-43061035D01*
X138990001Y-42801860D01*
X138990000Y-68958140D01*
X138882646Y-68698965D01*
X138311035Y-68127354D01*
X137564190Y-67818000D01*
X136755810Y-67818000D01*
X136008965Y-68127354D01*
X135437354Y-68698965D01*
X135128000Y-69445810D01*
X135128000Y-70254190D01*
X135437354Y-71001035D01*
X136008965Y-71572646D01*
X136268140Y-71680000D01*
X122811860Y-71680000D01*
X123071035Y-71572646D01*
X123642646Y-71001035D01*
X123952000Y-70254190D01*
X123952000Y-69445810D01*
X123642646Y-68698965D01*
X123071035Y-68127354D01*
X122324190Y-67818000D01*
X121515810Y-67818000D01*
X120768965Y-68127354D01*
X120197354Y-68698965D01*
X120090000Y-68958140D01*
X120090000Y-42801860D01*
X120197354Y-43061035D01*
X120768965Y-43632646D01*
X121515810Y-43942000D01*
X122324190Y-43942000D01*
X123071035Y-43632646D01*
X123642646Y-43061035D01*
X123952000Y-42314190D01*
X123952000Y-41505810D01*
X123642646Y-40758965D01*
X123071035Y-40187354D01*
X122324190Y-39878000D01*
X121515810Y-39878000D01*
X120768965Y-40187354D01*
X120197354Y-40758965D01*
X120090000Y-41018140D01*
X120090000Y-27724567D01*
X122100000Y-27724567D01*
X122100000Y-28663433D01*
X122459289Y-29530833D01*
X123123167Y-30194711D01*
X123990567Y-30554000D01*
X124929433Y-30554000D01*
X125796833Y-30194711D01*
X126460711Y-29530833D01*
X126820000Y-28663433D01*
X126820000Y-27724567D01*
X132260000Y-27724567D01*
X132260000Y-28663433D01*
X132619289Y-29530833D01*
X133283167Y-30194711D01*
X134150567Y-30554000D01*
X135089433Y-30554000D01*
X135956833Y-30194711D01*
X136620711Y-29530833D01*
X136980000Y-28663433D01*
X136980000Y-27724567D01*
X136620711Y-26857167D01*
X135956833Y-26193289D01*
X135089433Y-25834000D01*
X134150567Y-25834000D01*
X133283167Y-26193289D01*
X132619289Y-26857167D01*
X132260000Y-27724567D01*
X126820000Y-27724567D01*
X126460711Y-26857167D01*
X125796833Y-26193289D01*
X124929433Y-25834000D01*
X123990567Y-25834000D01*
X123123167Y-26193289D01*
X122459289Y-26857167D01*
X122100000Y-27724567D01*
X120090000Y-27724567D01*
X120090000Y-26714666D01*
X120152958Y-26216302D01*
X120321305Y-25791107D01*
X120590101Y-25421142D01*
X120942462Y-25129644D01*
X121356244Y-24934933D01*
X121838662Y-24842907D01*
X121931164Y-24840000D01*
X137115334Y-24840000D01*
X137613698Y-24902958D01*
G04 #@! TD*
M02*
