G04 #@! TF.GenerationSoftware,KiCad,Pcbnew,(5.0.2)-1*
G04 #@! TF.CreationDate,2019-04-17T18:19:44-05:00*
G04 #@! TF.ProjectId,ArduinoNanoInterface_Hardware,41726475-696e-46f4-9e61-6e6f496e7465,rev?*
G04 #@! TF.SameCoordinates,Original*
G04 #@! TF.FileFunction,Legend,Bot*
G04 #@! TF.FilePolarity,Positive*
%FSLAX46Y46*%
G04 Gerber Fmt 4.6, Leading zero omitted, Abs format (unit mm)*
G04 Created by KiCad (PCBNEW (5.0.2)-1) date 4/17/2019 6:19:44 PM*
%MOMM*%
%LPD*%
G01*
G04 APERTURE LIST*
%ADD10C,0.248000*%
%ADD11C,0.300000*%
G04 APERTURE END LIST*
D10*
X89284761Y-74057390D02*
X88292761Y-74057390D01*
X89284761Y-74529771D02*
X88292761Y-74529771D01*
X89001333Y-74860438D01*
X88292761Y-75191104D01*
X89284761Y-75191104D01*
X88292761Y-75663485D02*
X89095809Y-75663485D01*
X89190285Y-75710723D01*
X89237523Y-75757961D01*
X89284761Y-75852438D01*
X89284761Y-76041390D01*
X89237523Y-76135866D01*
X89190285Y-76183104D01*
X89095809Y-76230342D01*
X88292761Y-76230342D01*
X89284761Y-77458533D02*
X88292761Y-77458533D01*
X88623428Y-77930914D02*
X89284761Y-77930914D01*
X88717904Y-77930914D02*
X88670666Y-77978152D01*
X88623428Y-78072628D01*
X88623428Y-78214342D01*
X88670666Y-78308819D01*
X88765142Y-78356057D01*
X89284761Y-78356057D01*
X88623428Y-78686723D02*
X88623428Y-79064628D01*
X88292761Y-78828438D02*
X89143047Y-78828438D01*
X89237523Y-78875676D01*
X89284761Y-78970152D01*
X89284761Y-79064628D01*
X89237523Y-79773200D02*
X89284761Y-79678723D01*
X89284761Y-79489771D01*
X89237523Y-79395295D01*
X89143047Y-79348057D01*
X88765142Y-79348057D01*
X88670666Y-79395295D01*
X88623428Y-79489771D01*
X88623428Y-79678723D01*
X88670666Y-79773200D01*
X88765142Y-79820438D01*
X88859619Y-79820438D01*
X88954095Y-79348057D01*
X89284761Y-80245580D02*
X88623428Y-80245580D01*
X88812380Y-80245580D02*
X88717904Y-80292819D01*
X88670666Y-80340057D01*
X88623428Y-80434533D01*
X88623428Y-80529009D01*
X88623428Y-80717961D02*
X88623428Y-81095866D01*
X89284761Y-80859676D02*
X88434476Y-80859676D01*
X88340000Y-80906914D01*
X88292761Y-81001390D01*
X88292761Y-81095866D01*
X89284761Y-81851676D02*
X88765142Y-81851676D01*
X88670666Y-81804438D01*
X88623428Y-81709961D01*
X88623428Y-81521009D01*
X88670666Y-81426533D01*
X89237523Y-81851676D02*
X89284761Y-81757200D01*
X89284761Y-81521009D01*
X89237523Y-81426533D01*
X89143047Y-81379295D01*
X89048571Y-81379295D01*
X88954095Y-81426533D01*
X88906857Y-81521009D01*
X88906857Y-81757200D01*
X88859619Y-81851676D01*
X89237523Y-82749200D02*
X89284761Y-82654723D01*
X89284761Y-82465771D01*
X89237523Y-82371295D01*
X89190285Y-82324057D01*
X89095809Y-82276819D01*
X88812380Y-82276819D01*
X88717904Y-82324057D01*
X88670666Y-82371295D01*
X88623428Y-82465771D01*
X88623428Y-82654723D01*
X88670666Y-82749200D01*
X89237523Y-83552247D02*
X89284761Y-83457771D01*
X89284761Y-83268819D01*
X89237523Y-83174342D01*
X89143047Y-83127104D01*
X88765142Y-83127104D01*
X88670666Y-83174342D01*
X88623428Y-83268819D01*
X88623428Y-83457771D01*
X88670666Y-83552247D01*
X88765142Y-83599485D01*
X88859619Y-83599485D01*
X88954095Y-83127104D01*
X88765142Y-85111104D02*
X88812380Y-85252819D01*
X88859619Y-85300057D01*
X88954095Y-85347295D01*
X89095809Y-85347295D01*
X89190285Y-85300057D01*
X89237523Y-85252819D01*
X89284761Y-85158342D01*
X89284761Y-84780438D01*
X88292761Y-84780438D01*
X88292761Y-85111104D01*
X88340000Y-85205580D01*
X88387238Y-85252819D01*
X88481714Y-85300057D01*
X88576190Y-85300057D01*
X88670666Y-85252819D01*
X88717904Y-85205580D01*
X88765142Y-85111104D01*
X88765142Y-84780438D01*
X89284761Y-85914152D02*
X89237523Y-85819676D01*
X89190285Y-85772438D01*
X89095809Y-85725200D01*
X88812380Y-85725200D01*
X88717904Y-85772438D01*
X88670666Y-85819676D01*
X88623428Y-85914152D01*
X88623428Y-86055866D01*
X88670666Y-86150342D01*
X88717904Y-86197580D01*
X88812380Y-86244819D01*
X89095809Y-86244819D01*
X89190285Y-86197580D01*
X89237523Y-86150342D01*
X89284761Y-86055866D01*
X89284761Y-85914152D01*
X89284761Y-87095104D02*
X88765142Y-87095104D01*
X88670666Y-87047866D01*
X88623428Y-86953390D01*
X88623428Y-86764438D01*
X88670666Y-86669961D01*
X89237523Y-87095104D02*
X89284761Y-87000628D01*
X89284761Y-86764438D01*
X89237523Y-86669961D01*
X89143047Y-86622723D01*
X89048571Y-86622723D01*
X88954095Y-86669961D01*
X88906857Y-86764438D01*
X88906857Y-87000628D01*
X88859619Y-87095104D01*
X89284761Y-87567485D02*
X88623428Y-87567485D01*
X88812380Y-87567485D02*
X88717904Y-87614723D01*
X88670666Y-87661961D01*
X88623428Y-87756438D01*
X88623428Y-87850914D01*
X89284761Y-88606723D02*
X88292761Y-88606723D01*
X89237523Y-88606723D02*
X89284761Y-88512247D01*
X89284761Y-88323295D01*
X89237523Y-88228819D01*
X89190285Y-88181580D01*
X89095809Y-88134342D01*
X88812380Y-88134342D01*
X88717904Y-88181580D01*
X88670666Y-88228819D01*
X88623428Y-88323295D01*
X88623428Y-88512247D01*
X88670666Y-88606723D01*
X89237523Y-89126342D02*
X89284761Y-89126342D01*
X89379238Y-89079104D01*
X89426476Y-89031866D01*
X89284761Y-90874152D02*
X88812380Y-90543485D01*
X89284761Y-90307295D02*
X88292761Y-90307295D01*
X88292761Y-90685200D01*
X88340000Y-90779676D01*
X88387238Y-90826914D01*
X88481714Y-90874152D01*
X88623428Y-90874152D01*
X88717904Y-90826914D01*
X88765142Y-90779676D01*
X88812380Y-90685200D01*
X88812380Y-90307295D01*
X89237523Y-91677200D02*
X89284761Y-91582723D01*
X89284761Y-91393771D01*
X89237523Y-91299295D01*
X89143047Y-91252057D01*
X88765142Y-91252057D01*
X88670666Y-91299295D01*
X88623428Y-91393771D01*
X88623428Y-91582723D01*
X88670666Y-91677200D01*
X88765142Y-91724438D01*
X88859619Y-91724438D01*
X88954095Y-91252057D01*
X88623428Y-92055104D02*
X89284761Y-92291295D01*
X88623428Y-92527485D01*
X89284761Y-94180819D02*
X89284761Y-93613961D01*
X89284761Y-93897390D02*
X88292761Y-93897390D01*
X88434476Y-93802914D01*
X88528952Y-93708438D01*
X88576190Y-93613961D01*
X91020761Y-74057390D02*
X90028761Y-74057390D01*
X90737333Y-74388057D01*
X90028761Y-74718723D01*
X91020761Y-74718723D01*
X91020761Y-75616247D02*
X90501142Y-75616247D01*
X90406666Y-75569009D01*
X90359428Y-75474533D01*
X90359428Y-75285580D01*
X90406666Y-75191104D01*
X90973523Y-75616247D02*
X91020761Y-75521771D01*
X91020761Y-75285580D01*
X90973523Y-75191104D01*
X90879047Y-75143866D01*
X90784571Y-75143866D01*
X90690095Y-75191104D01*
X90642857Y-75285580D01*
X90642857Y-75521771D01*
X90595619Y-75616247D01*
X91020761Y-76088628D02*
X90359428Y-76088628D01*
X90548380Y-76088628D02*
X90453904Y-76135866D01*
X90406666Y-76183104D01*
X90359428Y-76277580D01*
X90359428Y-76372057D01*
X90973523Y-76655485D02*
X91020761Y-76749961D01*
X91020761Y-76938914D01*
X90973523Y-77033390D01*
X90879047Y-77080628D01*
X90831809Y-77080628D01*
X90737333Y-77033390D01*
X90690095Y-76938914D01*
X90690095Y-76797200D01*
X90642857Y-76702723D01*
X90548380Y-76655485D01*
X90501142Y-76655485D01*
X90406666Y-76702723D01*
X90359428Y-76797200D01*
X90359428Y-76938914D01*
X90406666Y-77033390D01*
X91020761Y-78828438D02*
X90548380Y-78497771D01*
X91020761Y-78261580D02*
X90028761Y-78261580D01*
X90028761Y-78639485D01*
X90076000Y-78733961D01*
X90123238Y-78781200D01*
X90217714Y-78828438D01*
X90359428Y-78828438D01*
X90453904Y-78781200D01*
X90501142Y-78733961D01*
X90548380Y-78639485D01*
X90548380Y-78261580D01*
X91020761Y-79395295D02*
X90973523Y-79300819D01*
X90926285Y-79253580D01*
X90831809Y-79206342D01*
X90548380Y-79206342D01*
X90453904Y-79253580D01*
X90406666Y-79300819D01*
X90359428Y-79395295D01*
X90359428Y-79537009D01*
X90406666Y-79631485D01*
X90453904Y-79678723D01*
X90548380Y-79725961D01*
X90831809Y-79725961D01*
X90926285Y-79678723D01*
X90973523Y-79631485D01*
X91020761Y-79537009D01*
X91020761Y-79395295D01*
X90359428Y-80056628D02*
X91020761Y-80292819D01*
X90359428Y-80529009D01*
X90973523Y-81284819D02*
X91020761Y-81190342D01*
X91020761Y-81001390D01*
X90973523Y-80906914D01*
X90879047Y-80859676D01*
X90501142Y-80859676D01*
X90406666Y-80906914D01*
X90359428Y-81001390D01*
X90359428Y-81190342D01*
X90406666Y-81284819D01*
X90501142Y-81332057D01*
X90595619Y-81332057D01*
X90690095Y-80859676D01*
X91020761Y-81757200D02*
X90359428Y-81757200D01*
X90548380Y-81757200D02*
X90453904Y-81804438D01*
X90406666Y-81851676D01*
X90359428Y-81946152D01*
X90359428Y-82040628D01*
X91020761Y-83127104D02*
X90028761Y-83127104D01*
X90028761Y-83363295D01*
X90076000Y-83505009D01*
X90170476Y-83599485D01*
X90264952Y-83646723D01*
X90453904Y-83693961D01*
X90595619Y-83693961D01*
X90784571Y-83646723D01*
X90879047Y-83599485D01*
X90973523Y-83505009D01*
X91020761Y-83363295D01*
X91020761Y-83127104D01*
X90973523Y-84497009D02*
X91020761Y-84402533D01*
X91020761Y-84213580D01*
X90973523Y-84119104D01*
X90879047Y-84071866D01*
X90501142Y-84071866D01*
X90406666Y-84119104D01*
X90359428Y-84213580D01*
X90359428Y-84402533D01*
X90406666Y-84497009D01*
X90501142Y-84544247D01*
X90595619Y-84544247D01*
X90690095Y-84071866D01*
X90973523Y-84922152D02*
X91020761Y-85016628D01*
X91020761Y-85205580D01*
X90973523Y-85300057D01*
X90879047Y-85347295D01*
X90831809Y-85347295D01*
X90737333Y-85300057D01*
X90690095Y-85205580D01*
X90690095Y-85063866D01*
X90642857Y-84969390D01*
X90548380Y-84922152D01*
X90501142Y-84922152D01*
X90406666Y-84969390D01*
X90359428Y-85063866D01*
X90359428Y-85205580D01*
X90406666Y-85300057D01*
X91020761Y-85772438D02*
X90359428Y-85772438D01*
X90028761Y-85772438D02*
X90076000Y-85725200D01*
X90123238Y-85772438D01*
X90076000Y-85819676D01*
X90028761Y-85772438D01*
X90123238Y-85772438D01*
X90359428Y-86669961D02*
X91162476Y-86669961D01*
X91256952Y-86622723D01*
X91304190Y-86575485D01*
X91351428Y-86481009D01*
X91351428Y-86339295D01*
X91304190Y-86244819D01*
X90973523Y-86669961D02*
X91020761Y-86575485D01*
X91020761Y-86386533D01*
X90973523Y-86292057D01*
X90926285Y-86244819D01*
X90831809Y-86197580D01*
X90548380Y-86197580D01*
X90453904Y-86244819D01*
X90406666Y-86292057D01*
X90359428Y-86386533D01*
X90359428Y-86575485D01*
X90406666Y-86669961D01*
X90359428Y-87142342D02*
X91020761Y-87142342D01*
X90453904Y-87142342D02*
X90406666Y-87189580D01*
X90359428Y-87284057D01*
X90359428Y-87425771D01*
X90406666Y-87520247D01*
X90501142Y-87567485D01*
X91020761Y-87567485D01*
X90028761Y-88653961D02*
X90028761Y-89220819D01*
X91020761Y-88937390D02*
X90028761Y-88937390D01*
X90973523Y-89929390D02*
X91020761Y-89834914D01*
X91020761Y-89645961D01*
X90973523Y-89551485D01*
X90879047Y-89504247D01*
X90501142Y-89504247D01*
X90406666Y-89551485D01*
X90359428Y-89645961D01*
X90359428Y-89834914D01*
X90406666Y-89929390D01*
X90501142Y-89976628D01*
X90595619Y-89976628D01*
X90690095Y-89504247D01*
X91020761Y-90826914D02*
X90501142Y-90826914D01*
X90406666Y-90779676D01*
X90359428Y-90685200D01*
X90359428Y-90496247D01*
X90406666Y-90401771D01*
X90973523Y-90826914D02*
X91020761Y-90732438D01*
X91020761Y-90496247D01*
X90973523Y-90401771D01*
X90879047Y-90354533D01*
X90784571Y-90354533D01*
X90690095Y-90401771D01*
X90642857Y-90496247D01*
X90642857Y-90732438D01*
X90595619Y-90826914D01*
X91020761Y-91299295D02*
X90359428Y-91299295D01*
X90453904Y-91299295D02*
X90406666Y-91346533D01*
X90359428Y-91441009D01*
X90359428Y-91582723D01*
X90406666Y-91677200D01*
X90501142Y-91724438D01*
X91020761Y-91724438D01*
X90501142Y-91724438D02*
X90406666Y-91771676D01*
X90359428Y-91866152D01*
X90359428Y-92007866D01*
X90406666Y-92102342D01*
X90501142Y-92149580D01*
X91020761Y-92149580D01*
X92756761Y-74057390D02*
X91764761Y-74057390D01*
X92473333Y-74388057D01*
X91764761Y-74718723D01*
X92756761Y-74718723D01*
X92756761Y-75191104D02*
X92095428Y-75191104D01*
X91764761Y-75191104D02*
X91812000Y-75143866D01*
X91859238Y-75191104D01*
X91812000Y-75238342D01*
X91764761Y-75191104D01*
X91859238Y-75191104D01*
X92709523Y-75616247D02*
X92756761Y-75710723D01*
X92756761Y-75899676D01*
X92709523Y-75994152D01*
X92615047Y-76041390D01*
X92567809Y-76041390D01*
X92473333Y-75994152D01*
X92426095Y-75899676D01*
X92426095Y-75757961D01*
X92378857Y-75663485D01*
X92284380Y-75616247D01*
X92237142Y-75616247D01*
X92142666Y-75663485D01*
X92095428Y-75757961D01*
X92095428Y-75899676D01*
X92142666Y-75994152D01*
X92709523Y-76419295D02*
X92756761Y-76513771D01*
X92756761Y-76702723D01*
X92709523Y-76797200D01*
X92615047Y-76844438D01*
X92567809Y-76844438D01*
X92473333Y-76797200D01*
X92426095Y-76702723D01*
X92426095Y-76561009D01*
X92378857Y-76466533D01*
X92284380Y-76419295D01*
X92237142Y-76419295D01*
X92142666Y-76466533D01*
X92095428Y-76561009D01*
X92095428Y-76702723D01*
X92142666Y-76797200D01*
X92756761Y-77411295D02*
X92709523Y-77316819D01*
X92662285Y-77269580D01*
X92567809Y-77222342D01*
X92284380Y-77222342D01*
X92189904Y-77269580D01*
X92142666Y-77316819D01*
X92095428Y-77411295D01*
X92095428Y-77553009D01*
X92142666Y-77647485D01*
X92189904Y-77694723D01*
X92284380Y-77741961D01*
X92567809Y-77741961D01*
X92662285Y-77694723D01*
X92709523Y-77647485D01*
X92756761Y-77553009D01*
X92756761Y-77411295D01*
X92095428Y-78592247D02*
X92756761Y-78592247D01*
X92095428Y-78167104D02*
X92615047Y-78167104D01*
X92709523Y-78214342D01*
X92756761Y-78308819D01*
X92756761Y-78450533D01*
X92709523Y-78545009D01*
X92662285Y-78592247D01*
X92756761Y-79064628D02*
X92095428Y-79064628D01*
X92284380Y-79064628D02*
X92189904Y-79111866D01*
X92142666Y-79159104D01*
X92095428Y-79253580D01*
X92095428Y-79348057D01*
X92756761Y-79678723D02*
X92095428Y-79678723D01*
X91764761Y-79678723D02*
X91812000Y-79631485D01*
X91859238Y-79678723D01*
X91812000Y-79725961D01*
X91764761Y-79678723D01*
X91859238Y-79678723D01*
X92709523Y-80859676D02*
X92756761Y-81001390D01*
X92756761Y-81237580D01*
X92709523Y-81332057D01*
X92662285Y-81379295D01*
X92567809Y-81426533D01*
X92473333Y-81426533D01*
X92378857Y-81379295D01*
X92331619Y-81332057D01*
X92284380Y-81237580D01*
X92237142Y-81048628D01*
X92189904Y-80954152D01*
X92142666Y-80906914D01*
X92048190Y-80859676D01*
X91953714Y-80859676D01*
X91859238Y-80906914D01*
X91812000Y-80954152D01*
X91764761Y-81048628D01*
X91764761Y-81284819D01*
X91812000Y-81426533D01*
X92756761Y-82654723D02*
X92756761Y-82607485D01*
X92709523Y-82513009D01*
X92567809Y-82371295D01*
X92284380Y-82135104D01*
X92142666Y-82040628D01*
X92000952Y-81993390D01*
X91906476Y-81993390D01*
X91812000Y-82040628D01*
X91764761Y-82135104D01*
X91764761Y-82182342D01*
X91812000Y-82276819D01*
X91906476Y-82324057D01*
X91953714Y-82324057D01*
X92048190Y-82276819D01*
X92095428Y-82229580D01*
X92284380Y-81946152D01*
X92331619Y-81898914D01*
X92426095Y-81851676D01*
X92567809Y-81851676D01*
X92662285Y-81898914D01*
X92709523Y-81946152D01*
X92756761Y-82040628D01*
X92756761Y-82182342D01*
X92709523Y-82276819D01*
X92662285Y-82324057D01*
X92473333Y-82465771D01*
X92331619Y-82513009D01*
X92237142Y-82513009D01*
X91764761Y-82938152D02*
X91764761Y-83505009D01*
X92756761Y-83221580D02*
X91764761Y-83221580D01*
X92709523Y-83882914D02*
X92756761Y-83882914D01*
X92851238Y-83835676D01*
X92898476Y-83788438D01*
X91859238Y-85016628D02*
X91812000Y-85063866D01*
X91764761Y-85158342D01*
X91764761Y-85394533D01*
X91812000Y-85489009D01*
X91859238Y-85536247D01*
X91953714Y-85583485D01*
X92048190Y-85583485D01*
X92189904Y-85536247D01*
X92756761Y-84969390D01*
X92756761Y-85583485D01*
X91764761Y-86197580D02*
X91764761Y-86292057D01*
X91812000Y-86386533D01*
X91859238Y-86433771D01*
X91953714Y-86481009D01*
X92142666Y-86528247D01*
X92378857Y-86528247D01*
X92567809Y-86481009D01*
X92662285Y-86433771D01*
X92709523Y-86386533D01*
X92756761Y-86292057D01*
X92756761Y-86197580D01*
X92709523Y-86103104D01*
X92662285Y-86055866D01*
X92567809Y-86008628D01*
X92378857Y-85961390D01*
X92142666Y-85961390D01*
X91953714Y-86008628D01*
X91859238Y-86055866D01*
X91812000Y-86103104D01*
X91764761Y-86197580D01*
X92756761Y-87473009D02*
X92756761Y-86906152D01*
X92756761Y-87189580D02*
X91764761Y-87189580D01*
X91906476Y-87095104D01*
X92000952Y-87000628D01*
X92048190Y-86906152D01*
X92756761Y-87945390D02*
X92756761Y-88134342D01*
X92709523Y-88228819D01*
X92662285Y-88276057D01*
X92520571Y-88370533D01*
X92331619Y-88417771D01*
X91953714Y-88417771D01*
X91859238Y-88370533D01*
X91812000Y-88323295D01*
X91764761Y-88228819D01*
X91764761Y-88039866D01*
X91812000Y-87945390D01*
X91859238Y-87898152D01*
X91953714Y-87850914D01*
X92189904Y-87850914D01*
X92284380Y-87898152D01*
X92331619Y-87945390D01*
X92378857Y-88039866D01*
X92378857Y-88228819D01*
X92331619Y-88323295D01*
X92284380Y-88370533D01*
X92189904Y-88417771D01*
X94209333Y-74010152D02*
X94209333Y-74482533D01*
X94492761Y-73915676D02*
X93500761Y-74246342D01*
X94492761Y-74577009D01*
X93831428Y-74907676D02*
X94492761Y-74907676D01*
X93925904Y-74907676D02*
X93878666Y-74954914D01*
X93831428Y-75049390D01*
X93831428Y-75191104D01*
X93878666Y-75285580D01*
X93973142Y-75332819D01*
X94492761Y-75332819D01*
X94492761Y-76230342D02*
X93500761Y-76230342D01*
X94445523Y-76230342D02*
X94492761Y-76135866D01*
X94492761Y-75946914D01*
X94445523Y-75852438D01*
X94398285Y-75805200D01*
X94303809Y-75757961D01*
X94020380Y-75757961D01*
X93925904Y-75805200D01*
X93878666Y-75852438D01*
X93831428Y-75946914D01*
X93831428Y-76135866D01*
X93878666Y-76230342D01*
X94492761Y-76702723D02*
X93831428Y-76702723D01*
X94020380Y-76702723D02*
X93925904Y-76749961D01*
X93878666Y-76797200D01*
X93831428Y-76891676D01*
X93831428Y-76986152D01*
X94445523Y-77694723D02*
X94492761Y-77600247D01*
X94492761Y-77411295D01*
X94445523Y-77316819D01*
X94351047Y-77269580D01*
X93973142Y-77269580D01*
X93878666Y-77316819D01*
X93831428Y-77411295D01*
X93831428Y-77600247D01*
X93878666Y-77694723D01*
X93973142Y-77741961D01*
X94067619Y-77741961D01*
X94162095Y-77269580D01*
X93831428Y-78072628D02*
X94492761Y-78261580D01*
X94020380Y-78450533D01*
X94492761Y-78639485D01*
X93831428Y-78828438D01*
X93500761Y-79820438D02*
X94492761Y-80151104D01*
X93500761Y-80481771D01*
X94492761Y-81237580D02*
X93973142Y-81237580D01*
X93878666Y-81190342D01*
X93831428Y-81095866D01*
X93831428Y-80906914D01*
X93878666Y-80812438D01*
X94445523Y-81237580D02*
X94492761Y-81143104D01*
X94492761Y-80906914D01*
X94445523Y-80812438D01*
X94351047Y-80765200D01*
X94256571Y-80765200D01*
X94162095Y-80812438D01*
X94114857Y-80906914D01*
X94114857Y-81143104D01*
X94067619Y-81237580D01*
X93831428Y-81709961D02*
X94492761Y-81709961D01*
X93925904Y-81709961D02*
X93878666Y-81757200D01*
X93831428Y-81851676D01*
X93831428Y-81993390D01*
X93878666Y-82087866D01*
X93973142Y-82135104D01*
X94492761Y-82135104D01*
X94492761Y-83363295D02*
X93500761Y-83363295D01*
X93973142Y-83363295D02*
X93973142Y-83930152D01*
X94492761Y-83930152D02*
X93500761Y-83930152D01*
X94492761Y-84544247D02*
X94445523Y-84449771D01*
X94398285Y-84402533D01*
X94303809Y-84355295D01*
X94020380Y-84355295D01*
X93925904Y-84402533D01*
X93878666Y-84449771D01*
X93831428Y-84544247D01*
X93831428Y-84685961D01*
X93878666Y-84780438D01*
X93925904Y-84827676D01*
X94020380Y-84874914D01*
X94303809Y-84874914D01*
X94398285Y-84827676D01*
X94445523Y-84780438D01*
X94492761Y-84685961D01*
X94492761Y-84544247D01*
X94492761Y-85300057D02*
X93831428Y-85300057D01*
X94020380Y-85300057D02*
X93925904Y-85347295D01*
X93878666Y-85394533D01*
X93831428Y-85489009D01*
X93831428Y-85583485D01*
X93831428Y-85914152D02*
X94492761Y-85914152D01*
X93925904Y-85914152D02*
X93878666Y-85961390D01*
X93831428Y-86055866D01*
X93831428Y-86197580D01*
X93878666Y-86292057D01*
X93973142Y-86339295D01*
X94492761Y-86339295D01*
D11*
X89420000Y-129667142D02*
X89348571Y-129524285D01*
X89348571Y-129310000D01*
X89420000Y-129095714D01*
X89562857Y-128952857D01*
X89705714Y-128881428D01*
X89991428Y-128810000D01*
X90205714Y-128810000D01*
X90491428Y-128881428D01*
X90634285Y-128952857D01*
X90777142Y-129095714D01*
X90848571Y-129310000D01*
X90848571Y-129452857D01*
X90777142Y-129667142D01*
X90705714Y-129738571D01*
X90205714Y-129738571D01*
X90205714Y-129452857D01*
X90848571Y-130381428D02*
X89348571Y-130381428D01*
X90848571Y-131238571D01*
X89348571Y-131238571D01*
X90848571Y-131952857D02*
X89348571Y-131952857D01*
X89348571Y-132310000D01*
X89420000Y-132524285D01*
X89562857Y-132667142D01*
X89705714Y-132738571D01*
X89991428Y-132810000D01*
X90205714Y-132810000D01*
X90491428Y-132738571D01*
X90634285Y-132667142D01*
X90777142Y-132524285D01*
X90848571Y-132310000D01*
X90848571Y-131952857D01*
X94428571Y-129774285D02*
X94428571Y-130631428D01*
X95928571Y-130202857D02*
X94428571Y-130202857D01*
X95928571Y-130988571D02*
X94928571Y-131774285D01*
X94928571Y-130988571D02*
X95928571Y-131774285D01*
X93388571Y-130667142D02*
X92674285Y-130167142D01*
X93388571Y-129810000D02*
X91888571Y-129810000D01*
X91888571Y-130381428D01*
X91960000Y-130524285D01*
X92031428Y-130595714D01*
X92174285Y-130667142D01*
X92388571Y-130667142D01*
X92531428Y-130595714D01*
X92602857Y-130524285D01*
X92674285Y-130381428D01*
X92674285Y-129810000D01*
X93388571Y-131167142D02*
X92388571Y-131952857D01*
X92388571Y-131167142D02*
X93388571Y-131952857D01*
X96968571Y-130524285D02*
X96968571Y-129810000D01*
X97682857Y-129738571D01*
X97611428Y-129810000D01*
X97540000Y-129952857D01*
X97540000Y-130310000D01*
X97611428Y-130452857D01*
X97682857Y-130524285D01*
X97825714Y-130595714D01*
X98182857Y-130595714D01*
X98325714Y-130524285D01*
X98397142Y-130452857D01*
X98468571Y-130310000D01*
X98468571Y-129952857D01*
X98397142Y-129810000D01*
X98325714Y-129738571D01*
X96968571Y-131024285D02*
X98468571Y-131524285D01*
X96968571Y-132024285D01*
X97040000Y-66167142D02*
X96968571Y-66024285D01*
X96968571Y-65810000D01*
X97040000Y-65595714D01*
X97182857Y-65452857D01*
X97325714Y-65381428D01*
X97611428Y-65310000D01*
X97825714Y-65310000D01*
X98111428Y-65381428D01*
X98254285Y-65452857D01*
X98397142Y-65595714D01*
X98468571Y-65810000D01*
X98468571Y-65952857D01*
X98397142Y-66167142D01*
X98325714Y-66238571D01*
X97825714Y-66238571D01*
X97825714Y-65952857D01*
X98468571Y-66881428D02*
X96968571Y-66881428D01*
X98468571Y-67738571D01*
X96968571Y-67738571D01*
X98468571Y-68452857D02*
X96968571Y-68452857D01*
X96968571Y-68810000D01*
X97040000Y-69024285D01*
X97182857Y-69167142D01*
X97325714Y-69238571D01*
X97611428Y-69310000D01*
X97825714Y-69310000D01*
X98111428Y-69238571D01*
X98254285Y-69167142D01*
X98397142Y-69024285D01*
X98468571Y-68810000D01*
X98468571Y-68452857D01*
X95857142Y-65488571D02*
X95928571Y-65702857D01*
X95928571Y-66060000D01*
X95857142Y-66202857D01*
X95785714Y-66274285D01*
X95642857Y-66345714D01*
X95500000Y-66345714D01*
X95357142Y-66274285D01*
X95285714Y-66202857D01*
X95214285Y-66060000D01*
X95142857Y-65774285D01*
X95071428Y-65631428D01*
X95000000Y-65560000D01*
X94857142Y-65488571D01*
X94714285Y-65488571D01*
X94571428Y-65560000D01*
X94500000Y-65631428D01*
X94428571Y-65774285D01*
X94428571Y-66131428D01*
X94500000Y-66345714D01*
X95928571Y-66988571D02*
X94428571Y-66988571D01*
X94428571Y-67345714D01*
X94500000Y-67560000D01*
X94642857Y-67702857D01*
X94785714Y-67774285D01*
X95071428Y-67845714D01*
X95285714Y-67845714D01*
X95571428Y-67774285D01*
X95714285Y-67702857D01*
X95857142Y-67560000D01*
X95928571Y-67345714D01*
X95928571Y-66988571D01*
X95500000Y-68417142D02*
X95500000Y-69131428D01*
X95928571Y-68274285D02*
X94428571Y-68774285D01*
X95928571Y-69274285D01*
X93317142Y-65524285D02*
X93388571Y-65738571D01*
X93388571Y-66095714D01*
X93317142Y-66238571D01*
X93245714Y-66310000D01*
X93102857Y-66381428D01*
X92960000Y-66381428D01*
X92817142Y-66310000D01*
X92745714Y-66238571D01*
X92674285Y-66095714D01*
X92602857Y-65810000D01*
X92531428Y-65667142D01*
X92460000Y-65595714D01*
X92317142Y-65524285D01*
X92174285Y-65524285D01*
X92031428Y-65595714D01*
X91960000Y-65667142D01*
X91888571Y-65810000D01*
X91888571Y-66167142D01*
X91960000Y-66381428D01*
X93245714Y-67881428D02*
X93317142Y-67810000D01*
X93388571Y-67595714D01*
X93388571Y-67452857D01*
X93317142Y-67238571D01*
X93174285Y-67095714D01*
X93031428Y-67024285D01*
X92745714Y-66952857D01*
X92531428Y-66952857D01*
X92245714Y-67024285D01*
X92102857Y-67095714D01*
X91960000Y-67238571D01*
X91888571Y-67452857D01*
X91888571Y-67595714D01*
X91960000Y-67810000D01*
X92031428Y-67881428D01*
X93388571Y-69238571D02*
X93388571Y-68524285D01*
X91888571Y-68524285D01*
X89348571Y-67024285D02*
X89348571Y-66310000D01*
X90062857Y-66238571D01*
X89991428Y-66310000D01*
X89920000Y-66452857D01*
X89920000Y-66810000D01*
X89991428Y-66952857D01*
X90062857Y-67024285D01*
X90205714Y-67095714D01*
X90562857Y-67095714D01*
X90705714Y-67024285D01*
X90777142Y-66952857D01*
X90848571Y-66810000D01*
X90848571Y-66452857D01*
X90777142Y-66310000D01*
X90705714Y-66238571D01*
X89348571Y-67524285D02*
X90848571Y-68024285D01*
X89348571Y-68524285D01*
M02*
