G04 #@! TF.GenerationSoftware,KiCad,Pcbnew,(5.0.2)-1*
G04 #@! TF.CreationDate,2019-04-19T09:34:29-05:00*
G04 #@! TF.ProjectId,ArduinoNanoInterface_Hardware,41726475-696e-46f4-9e61-6e6f496e7465,rev?*
G04 #@! TF.SameCoordinates,Original*
G04 #@! TF.FileFunction,Paste,Top*
G04 #@! TF.FilePolarity,Positive*
%FSLAX46Y46*%
G04 Gerber Fmt 4.6, Leading zero omitted, Abs format (unit mm)*
G04 Created by KiCad (PCBNEW (5.0.2)-1) date 4/19/2019 9:34:29 AM*
%MOMM*%
%LPD*%
G01*
G04 APERTURE LIST*
%ADD10C,0.100000*%
%ADD11C,0.950000*%
%ADD12R,0.800000X0.900000*%
G04 APERTURE END LIST*
D10*
G04 #@! TO.C,D1*
G36*
X85350779Y-63766144D02*
X85373834Y-63769563D01*
X85396443Y-63775227D01*
X85418387Y-63783079D01*
X85439457Y-63793044D01*
X85459448Y-63805026D01*
X85478168Y-63818910D01*
X85495438Y-63834562D01*
X85511090Y-63851832D01*
X85524974Y-63870552D01*
X85536956Y-63890543D01*
X85546921Y-63911613D01*
X85554773Y-63933557D01*
X85560437Y-63956166D01*
X85563856Y-63979221D01*
X85565000Y-64002500D01*
X85565000Y-64577500D01*
X85563856Y-64600779D01*
X85560437Y-64623834D01*
X85554773Y-64646443D01*
X85546921Y-64668387D01*
X85536956Y-64689457D01*
X85524974Y-64709448D01*
X85511090Y-64728168D01*
X85495438Y-64745438D01*
X85478168Y-64761090D01*
X85459448Y-64774974D01*
X85439457Y-64786956D01*
X85418387Y-64796921D01*
X85396443Y-64804773D01*
X85373834Y-64810437D01*
X85350779Y-64813856D01*
X85327500Y-64815000D01*
X84852500Y-64815000D01*
X84829221Y-64813856D01*
X84806166Y-64810437D01*
X84783557Y-64804773D01*
X84761613Y-64796921D01*
X84740543Y-64786956D01*
X84720552Y-64774974D01*
X84701832Y-64761090D01*
X84684562Y-64745438D01*
X84668910Y-64728168D01*
X84655026Y-64709448D01*
X84643044Y-64689457D01*
X84633079Y-64668387D01*
X84625227Y-64646443D01*
X84619563Y-64623834D01*
X84616144Y-64600779D01*
X84615000Y-64577500D01*
X84615000Y-64002500D01*
X84616144Y-63979221D01*
X84619563Y-63956166D01*
X84625227Y-63933557D01*
X84633079Y-63911613D01*
X84643044Y-63890543D01*
X84655026Y-63870552D01*
X84668910Y-63851832D01*
X84684562Y-63834562D01*
X84701832Y-63818910D01*
X84720552Y-63805026D01*
X84740543Y-63793044D01*
X84761613Y-63783079D01*
X84783557Y-63775227D01*
X84806166Y-63769563D01*
X84829221Y-63766144D01*
X84852500Y-63765000D01*
X85327500Y-63765000D01*
X85350779Y-63766144D01*
X85350779Y-63766144D01*
G37*
D11*
X85090000Y-64290000D03*
D10*
G36*
X85350779Y-65516144D02*
X85373834Y-65519563D01*
X85396443Y-65525227D01*
X85418387Y-65533079D01*
X85439457Y-65543044D01*
X85459448Y-65555026D01*
X85478168Y-65568910D01*
X85495438Y-65584562D01*
X85511090Y-65601832D01*
X85524974Y-65620552D01*
X85536956Y-65640543D01*
X85546921Y-65661613D01*
X85554773Y-65683557D01*
X85560437Y-65706166D01*
X85563856Y-65729221D01*
X85565000Y-65752500D01*
X85565000Y-66327500D01*
X85563856Y-66350779D01*
X85560437Y-66373834D01*
X85554773Y-66396443D01*
X85546921Y-66418387D01*
X85536956Y-66439457D01*
X85524974Y-66459448D01*
X85511090Y-66478168D01*
X85495438Y-66495438D01*
X85478168Y-66511090D01*
X85459448Y-66524974D01*
X85439457Y-66536956D01*
X85418387Y-66546921D01*
X85396443Y-66554773D01*
X85373834Y-66560437D01*
X85350779Y-66563856D01*
X85327500Y-66565000D01*
X84852500Y-66565000D01*
X84829221Y-66563856D01*
X84806166Y-66560437D01*
X84783557Y-66554773D01*
X84761613Y-66546921D01*
X84740543Y-66536956D01*
X84720552Y-66524974D01*
X84701832Y-66511090D01*
X84684562Y-66495438D01*
X84668910Y-66478168D01*
X84655026Y-66459448D01*
X84643044Y-66439457D01*
X84633079Y-66418387D01*
X84625227Y-66396443D01*
X84619563Y-66373834D01*
X84616144Y-66350779D01*
X84615000Y-66327500D01*
X84615000Y-65752500D01*
X84616144Y-65729221D01*
X84619563Y-65706166D01*
X84625227Y-65683557D01*
X84633079Y-65661613D01*
X84643044Y-65640543D01*
X84655026Y-65620552D01*
X84668910Y-65601832D01*
X84684562Y-65584562D01*
X84701832Y-65568910D01*
X84720552Y-65555026D01*
X84740543Y-65543044D01*
X84761613Y-65533079D01*
X84783557Y-65525227D01*
X84806166Y-65519563D01*
X84829221Y-65516144D01*
X84852500Y-65515000D01*
X85327500Y-65515000D01*
X85350779Y-65516144D01*
X85350779Y-65516144D01*
G37*
D11*
X85090000Y-66040000D03*
G04 #@! TD*
D10*
G04 #@! TO.C,D2*
G36*
X103130779Y-131556144D02*
X103153834Y-131559563D01*
X103176443Y-131565227D01*
X103198387Y-131573079D01*
X103219457Y-131583044D01*
X103239448Y-131595026D01*
X103258168Y-131608910D01*
X103275438Y-131624562D01*
X103291090Y-131641832D01*
X103304974Y-131660552D01*
X103316956Y-131680543D01*
X103326921Y-131701613D01*
X103334773Y-131723557D01*
X103340437Y-131746166D01*
X103343856Y-131769221D01*
X103345000Y-131792500D01*
X103345000Y-132367500D01*
X103343856Y-132390779D01*
X103340437Y-132413834D01*
X103334773Y-132436443D01*
X103326921Y-132458387D01*
X103316956Y-132479457D01*
X103304974Y-132499448D01*
X103291090Y-132518168D01*
X103275438Y-132535438D01*
X103258168Y-132551090D01*
X103239448Y-132564974D01*
X103219457Y-132576956D01*
X103198387Y-132586921D01*
X103176443Y-132594773D01*
X103153834Y-132600437D01*
X103130779Y-132603856D01*
X103107500Y-132605000D01*
X102632500Y-132605000D01*
X102609221Y-132603856D01*
X102586166Y-132600437D01*
X102563557Y-132594773D01*
X102541613Y-132586921D01*
X102520543Y-132576956D01*
X102500552Y-132564974D01*
X102481832Y-132551090D01*
X102464562Y-132535438D01*
X102448910Y-132518168D01*
X102435026Y-132499448D01*
X102423044Y-132479457D01*
X102413079Y-132458387D01*
X102405227Y-132436443D01*
X102399563Y-132413834D01*
X102396144Y-132390779D01*
X102395000Y-132367500D01*
X102395000Y-131792500D01*
X102396144Y-131769221D01*
X102399563Y-131746166D01*
X102405227Y-131723557D01*
X102413079Y-131701613D01*
X102423044Y-131680543D01*
X102435026Y-131660552D01*
X102448910Y-131641832D01*
X102464562Y-131624562D01*
X102481832Y-131608910D01*
X102500552Y-131595026D01*
X102520543Y-131583044D01*
X102541613Y-131573079D01*
X102563557Y-131565227D01*
X102586166Y-131559563D01*
X102609221Y-131556144D01*
X102632500Y-131555000D01*
X103107500Y-131555000D01*
X103130779Y-131556144D01*
X103130779Y-131556144D01*
G37*
D11*
X102870000Y-132080000D03*
D10*
G36*
X103130779Y-133306144D02*
X103153834Y-133309563D01*
X103176443Y-133315227D01*
X103198387Y-133323079D01*
X103219457Y-133333044D01*
X103239448Y-133345026D01*
X103258168Y-133358910D01*
X103275438Y-133374562D01*
X103291090Y-133391832D01*
X103304974Y-133410552D01*
X103316956Y-133430543D01*
X103326921Y-133451613D01*
X103334773Y-133473557D01*
X103340437Y-133496166D01*
X103343856Y-133519221D01*
X103345000Y-133542500D01*
X103345000Y-134117500D01*
X103343856Y-134140779D01*
X103340437Y-134163834D01*
X103334773Y-134186443D01*
X103326921Y-134208387D01*
X103316956Y-134229457D01*
X103304974Y-134249448D01*
X103291090Y-134268168D01*
X103275438Y-134285438D01*
X103258168Y-134301090D01*
X103239448Y-134314974D01*
X103219457Y-134326956D01*
X103198387Y-134336921D01*
X103176443Y-134344773D01*
X103153834Y-134350437D01*
X103130779Y-134353856D01*
X103107500Y-134355000D01*
X102632500Y-134355000D01*
X102609221Y-134353856D01*
X102586166Y-134350437D01*
X102563557Y-134344773D01*
X102541613Y-134336921D01*
X102520543Y-134326956D01*
X102500552Y-134314974D01*
X102481832Y-134301090D01*
X102464562Y-134285438D01*
X102448910Y-134268168D01*
X102435026Y-134249448D01*
X102423044Y-134229457D01*
X102413079Y-134208387D01*
X102405227Y-134186443D01*
X102399563Y-134163834D01*
X102396144Y-134140779D01*
X102395000Y-134117500D01*
X102395000Y-133542500D01*
X102396144Y-133519221D01*
X102399563Y-133496166D01*
X102405227Y-133473557D01*
X102413079Y-133451613D01*
X102423044Y-133430543D01*
X102435026Y-133410552D01*
X102448910Y-133391832D01*
X102464562Y-133374562D01*
X102481832Y-133358910D01*
X102500552Y-133345026D01*
X102520543Y-133333044D01*
X102541613Y-133323079D01*
X102563557Y-133315227D01*
X102586166Y-133309563D01*
X102609221Y-133306144D01*
X102632500Y-133305000D01*
X103107500Y-133305000D01*
X103130779Y-133306144D01*
X103130779Y-133306144D01*
G37*
D11*
X102870000Y-133830000D03*
G04 #@! TD*
D10*
G04 #@! TO.C,D3*
G36*
X85350779Y-133306144D02*
X85373834Y-133309563D01*
X85396443Y-133315227D01*
X85418387Y-133323079D01*
X85439457Y-133333044D01*
X85459448Y-133345026D01*
X85478168Y-133358910D01*
X85495438Y-133374562D01*
X85511090Y-133391832D01*
X85524974Y-133410552D01*
X85536956Y-133430543D01*
X85546921Y-133451613D01*
X85554773Y-133473557D01*
X85560437Y-133496166D01*
X85563856Y-133519221D01*
X85565000Y-133542500D01*
X85565000Y-134117500D01*
X85563856Y-134140779D01*
X85560437Y-134163834D01*
X85554773Y-134186443D01*
X85546921Y-134208387D01*
X85536956Y-134229457D01*
X85524974Y-134249448D01*
X85511090Y-134268168D01*
X85495438Y-134285438D01*
X85478168Y-134301090D01*
X85459448Y-134314974D01*
X85439457Y-134326956D01*
X85418387Y-134336921D01*
X85396443Y-134344773D01*
X85373834Y-134350437D01*
X85350779Y-134353856D01*
X85327500Y-134355000D01*
X84852500Y-134355000D01*
X84829221Y-134353856D01*
X84806166Y-134350437D01*
X84783557Y-134344773D01*
X84761613Y-134336921D01*
X84740543Y-134326956D01*
X84720552Y-134314974D01*
X84701832Y-134301090D01*
X84684562Y-134285438D01*
X84668910Y-134268168D01*
X84655026Y-134249448D01*
X84643044Y-134229457D01*
X84633079Y-134208387D01*
X84625227Y-134186443D01*
X84619563Y-134163834D01*
X84616144Y-134140779D01*
X84615000Y-134117500D01*
X84615000Y-133542500D01*
X84616144Y-133519221D01*
X84619563Y-133496166D01*
X84625227Y-133473557D01*
X84633079Y-133451613D01*
X84643044Y-133430543D01*
X84655026Y-133410552D01*
X84668910Y-133391832D01*
X84684562Y-133374562D01*
X84701832Y-133358910D01*
X84720552Y-133345026D01*
X84740543Y-133333044D01*
X84761613Y-133323079D01*
X84783557Y-133315227D01*
X84806166Y-133309563D01*
X84829221Y-133306144D01*
X84852500Y-133305000D01*
X85327500Y-133305000D01*
X85350779Y-133306144D01*
X85350779Y-133306144D01*
G37*
D11*
X85090000Y-133830000D03*
D10*
G36*
X85350779Y-131556144D02*
X85373834Y-131559563D01*
X85396443Y-131565227D01*
X85418387Y-131573079D01*
X85439457Y-131583044D01*
X85459448Y-131595026D01*
X85478168Y-131608910D01*
X85495438Y-131624562D01*
X85511090Y-131641832D01*
X85524974Y-131660552D01*
X85536956Y-131680543D01*
X85546921Y-131701613D01*
X85554773Y-131723557D01*
X85560437Y-131746166D01*
X85563856Y-131769221D01*
X85565000Y-131792500D01*
X85565000Y-132367500D01*
X85563856Y-132390779D01*
X85560437Y-132413834D01*
X85554773Y-132436443D01*
X85546921Y-132458387D01*
X85536956Y-132479457D01*
X85524974Y-132499448D01*
X85511090Y-132518168D01*
X85495438Y-132535438D01*
X85478168Y-132551090D01*
X85459448Y-132564974D01*
X85439457Y-132576956D01*
X85418387Y-132586921D01*
X85396443Y-132594773D01*
X85373834Y-132600437D01*
X85350779Y-132603856D01*
X85327500Y-132605000D01*
X84852500Y-132605000D01*
X84829221Y-132603856D01*
X84806166Y-132600437D01*
X84783557Y-132594773D01*
X84761613Y-132586921D01*
X84740543Y-132576956D01*
X84720552Y-132564974D01*
X84701832Y-132551090D01*
X84684562Y-132535438D01*
X84668910Y-132518168D01*
X84655026Y-132499448D01*
X84643044Y-132479457D01*
X84633079Y-132458387D01*
X84625227Y-132436443D01*
X84619563Y-132413834D01*
X84616144Y-132390779D01*
X84615000Y-132367500D01*
X84615000Y-131792500D01*
X84616144Y-131769221D01*
X84619563Y-131746166D01*
X84625227Y-131723557D01*
X84633079Y-131701613D01*
X84643044Y-131680543D01*
X84655026Y-131660552D01*
X84668910Y-131641832D01*
X84684562Y-131624562D01*
X84701832Y-131608910D01*
X84720552Y-131595026D01*
X84740543Y-131583044D01*
X84761613Y-131573079D01*
X84783557Y-131565227D01*
X84806166Y-131559563D01*
X84829221Y-131556144D01*
X84852500Y-131555000D01*
X85327500Y-131555000D01*
X85350779Y-131556144D01*
X85350779Y-131556144D01*
G37*
D11*
X85090000Y-132080000D03*
G04 #@! TD*
D12*
G04 #@! TO.C,Q1*
X98740000Y-122190000D03*
X96840000Y-122190000D03*
X97790000Y-124190000D03*
G04 #@! TD*
G04 #@! TO.C,Q2*
X87630000Y-124190000D03*
X86680000Y-122190000D03*
X88580000Y-122190000D03*
G04 #@! TD*
D10*
G04 #@! TO.C,R1*
G36*
X97225779Y-120176144D02*
X97248834Y-120179563D01*
X97271443Y-120185227D01*
X97293387Y-120193079D01*
X97314457Y-120203044D01*
X97334448Y-120215026D01*
X97353168Y-120228910D01*
X97370438Y-120244562D01*
X97386090Y-120261832D01*
X97399974Y-120280552D01*
X97411956Y-120300543D01*
X97421921Y-120321613D01*
X97429773Y-120343557D01*
X97435437Y-120366166D01*
X97438856Y-120389221D01*
X97440000Y-120412500D01*
X97440000Y-120887500D01*
X97438856Y-120910779D01*
X97435437Y-120933834D01*
X97429773Y-120956443D01*
X97421921Y-120978387D01*
X97411956Y-120999457D01*
X97399974Y-121019448D01*
X97386090Y-121038168D01*
X97370438Y-121055438D01*
X97353168Y-121071090D01*
X97334448Y-121084974D01*
X97314457Y-121096956D01*
X97293387Y-121106921D01*
X97271443Y-121114773D01*
X97248834Y-121120437D01*
X97225779Y-121123856D01*
X97202500Y-121125000D01*
X96627500Y-121125000D01*
X96604221Y-121123856D01*
X96581166Y-121120437D01*
X96558557Y-121114773D01*
X96536613Y-121106921D01*
X96515543Y-121096956D01*
X96495552Y-121084974D01*
X96476832Y-121071090D01*
X96459562Y-121055438D01*
X96443910Y-121038168D01*
X96430026Y-121019448D01*
X96418044Y-120999457D01*
X96408079Y-120978387D01*
X96400227Y-120956443D01*
X96394563Y-120933834D01*
X96391144Y-120910779D01*
X96390000Y-120887500D01*
X96390000Y-120412500D01*
X96391144Y-120389221D01*
X96394563Y-120366166D01*
X96400227Y-120343557D01*
X96408079Y-120321613D01*
X96418044Y-120300543D01*
X96430026Y-120280552D01*
X96443910Y-120261832D01*
X96459562Y-120244562D01*
X96476832Y-120228910D01*
X96495552Y-120215026D01*
X96515543Y-120203044D01*
X96536613Y-120193079D01*
X96558557Y-120185227D01*
X96581166Y-120179563D01*
X96604221Y-120176144D01*
X96627500Y-120175000D01*
X97202500Y-120175000D01*
X97225779Y-120176144D01*
X97225779Y-120176144D01*
G37*
D11*
X96915000Y-120650000D03*
D10*
G36*
X98975779Y-120176144D02*
X98998834Y-120179563D01*
X99021443Y-120185227D01*
X99043387Y-120193079D01*
X99064457Y-120203044D01*
X99084448Y-120215026D01*
X99103168Y-120228910D01*
X99120438Y-120244562D01*
X99136090Y-120261832D01*
X99149974Y-120280552D01*
X99161956Y-120300543D01*
X99171921Y-120321613D01*
X99179773Y-120343557D01*
X99185437Y-120366166D01*
X99188856Y-120389221D01*
X99190000Y-120412500D01*
X99190000Y-120887500D01*
X99188856Y-120910779D01*
X99185437Y-120933834D01*
X99179773Y-120956443D01*
X99171921Y-120978387D01*
X99161956Y-120999457D01*
X99149974Y-121019448D01*
X99136090Y-121038168D01*
X99120438Y-121055438D01*
X99103168Y-121071090D01*
X99084448Y-121084974D01*
X99064457Y-121096956D01*
X99043387Y-121106921D01*
X99021443Y-121114773D01*
X98998834Y-121120437D01*
X98975779Y-121123856D01*
X98952500Y-121125000D01*
X98377500Y-121125000D01*
X98354221Y-121123856D01*
X98331166Y-121120437D01*
X98308557Y-121114773D01*
X98286613Y-121106921D01*
X98265543Y-121096956D01*
X98245552Y-121084974D01*
X98226832Y-121071090D01*
X98209562Y-121055438D01*
X98193910Y-121038168D01*
X98180026Y-121019448D01*
X98168044Y-120999457D01*
X98158079Y-120978387D01*
X98150227Y-120956443D01*
X98144563Y-120933834D01*
X98141144Y-120910779D01*
X98140000Y-120887500D01*
X98140000Y-120412500D01*
X98141144Y-120389221D01*
X98144563Y-120366166D01*
X98150227Y-120343557D01*
X98158079Y-120321613D01*
X98168044Y-120300543D01*
X98180026Y-120280552D01*
X98193910Y-120261832D01*
X98209562Y-120244562D01*
X98226832Y-120228910D01*
X98245552Y-120215026D01*
X98265543Y-120203044D01*
X98286613Y-120193079D01*
X98308557Y-120185227D01*
X98331166Y-120179563D01*
X98354221Y-120176144D01*
X98377500Y-120175000D01*
X98952500Y-120175000D01*
X98975779Y-120176144D01*
X98975779Y-120176144D01*
G37*
D11*
X98665000Y-120650000D03*
G04 #@! TD*
D10*
G04 #@! TO.C,R2*
G36*
X88815779Y-120176144D02*
X88838834Y-120179563D01*
X88861443Y-120185227D01*
X88883387Y-120193079D01*
X88904457Y-120203044D01*
X88924448Y-120215026D01*
X88943168Y-120228910D01*
X88960438Y-120244562D01*
X88976090Y-120261832D01*
X88989974Y-120280552D01*
X89001956Y-120300543D01*
X89011921Y-120321613D01*
X89019773Y-120343557D01*
X89025437Y-120366166D01*
X89028856Y-120389221D01*
X89030000Y-120412500D01*
X89030000Y-120887500D01*
X89028856Y-120910779D01*
X89025437Y-120933834D01*
X89019773Y-120956443D01*
X89011921Y-120978387D01*
X89001956Y-120999457D01*
X88989974Y-121019448D01*
X88976090Y-121038168D01*
X88960438Y-121055438D01*
X88943168Y-121071090D01*
X88924448Y-121084974D01*
X88904457Y-121096956D01*
X88883387Y-121106921D01*
X88861443Y-121114773D01*
X88838834Y-121120437D01*
X88815779Y-121123856D01*
X88792500Y-121125000D01*
X88217500Y-121125000D01*
X88194221Y-121123856D01*
X88171166Y-121120437D01*
X88148557Y-121114773D01*
X88126613Y-121106921D01*
X88105543Y-121096956D01*
X88085552Y-121084974D01*
X88066832Y-121071090D01*
X88049562Y-121055438D01*
X88033910Y-121038168D01*
X88020026Y-121019448D01*
X88008044Y-120999457D01*
X87998079Y-120978387D01*
X87990227Y-120956443D01*
X87984563Y-120933834D01*
X87981144Y-120910779D01*
X87980000Y-120887500D01*
X87980000Y-120412500D01*
X87981144Y-120389221D01*
X87984563Y-120366166D01*
X87990227Y-120343557D01*
X87998079Y-120321613D01*
X88008044Y-120300543D01*
X88020026Y-120280552D01*
X88033910Y-120261832D01*
X88049562Y-120244562D01*
X88066832Y-120228910D01*
X88085552Y-120215026D01*
X88105543Y-120203044D01*
X88126613Y-120193079D01*
X88148557Y-120185227D01*
X88171166Y-120179563D01*
X88194221Y-120176144D01*
X88217500Y-120175000D01*
X88792500Y-120175000D01*
X88815779Y-120176144D01*
X88815779Y-120176144D01*
G37*
D11*
X88505000Y-120650000D03*
D10*
G36*
X87065779Y-120176144D02*
X87088834Y-120179563D01*
X87111443Y-120185227D01*
X87133387Y-120193079D01*
X87154457Y-120203044D01*
X87174448Y-120215026D01*
X87193168Y-120228910D01*
X87210438Y-120244562D01*
X87226090Y-120261832D01*
X87239974Y-120280552D01*
X87251956Y-120300543D01*
X87261921Y-120321613D01*
X87269773Y-120343557D01*
X87275437Y-120366166D01*
X87278856Y-120389221D01*
X87280000Y-120412500D01*
X87280000Y-120887500D01*
X87278856Y-120910779D01*
X87275437Y-120933834D01*
X87269773Y-120956443D01*
X87261921Y-120978387D01*
X87251956Y-120999457D01*
X87239974Y-121019448D01*
X87226090Y-121038168D01*
X87210438Y-121055438D01*
X87193168Y-121071090D01*
X87174448Y-121084974D01*
X87154457Y-121096956D01*
X87133387Y-121106921D01*
X87111443Y-121114773D01*
X87088834Y-121120437D01*
X87065779Y-121123856D01*
X87042500Y-121125000D01*
X86467500Y-121125000D01*
X86444221Y-121123856D01*
X86421166Y-121120437D01*
X86398557Y-121114773D01*
X86376613Y-121106921D01*
X86355543Y-121096956D01*
X86335552Y-121084974D01*
X86316832Y-121071090D01*
X86299562Y-121055438D01*
X86283910Y-121038168D01*
X86270026Y-121019448D01*
X86258044Y-120999457D01*
X86248079Y-120978387D01*
X86240227Y-120956443D01*
X86234563Y-120933834D01*
X86231144Y-120910779D01*
X86230000Y-120887500D01*
X86230000Y-120412500D01*
X86231144Y-120389221D01*
X86234563Y-120366166D01*
X86240227Y-120343557D01*
X86248079Y-120321613D01*
X86258044Y-120300543D01*
X86270026Y-120280552D01*
X86283910Y-120261832D01*
X86299562Y-120244562D01*
X86316832Y-120228910D01*
X86335552Y-120215026D01*
X86355543Y-120203044D01*
X86376613Y-120193079D01*
X86398557Y-120185227D01*
X86421166Y-120179563D01*
X86444221Y-120176144D01*
X86467500Y-120175000D01*
X87042500Y-120175000D01*
X87065779Y-120176144D01*
X87065779Y-120176144D01*
G37*
D11*
X86755000Y-120650000D03*
G04 #@! TD*
D10*
G04 #@! TO.C,R3*
G36*
X101860779Y-121791144D02*
X101883834Y-121794563D01*
X101906443Y-121800227D01*
X101928387Y-121808079D01*
X101949457Y-121818044D01*
X101969448Y-121830026D01*
X101988168Y-121843910D01*
X102005438Y-121859562D01*
X102021090Y-121876832D01*
X102034974Y-121895552D01*
X102046956Y-121915543D01*
X102056921Y-121936613D01*
X102064773Y-121958557D01*
X102070437Y-121981166D01*
X102073856Y-122004221D01*
X102075000Y-122027500D01*
X102075000Y-122602500D01*
X102073856Y-122625779D01*
X102070437Y-122648834D01*
X102064773Y-122671443D01*
X102056921Y-122693387D01*
X102046956Y-122714457D01*
X102034974Y-122734448D01*
X102021090Y-122753168D01*
X102005438Y-122770438D01*
X101988168Y-122786090D01*
X101969448Y-122799974D01*
X101949457Y-122811956D01*
X101928387Y-122821921D01*
X101906443Y-122829773D01*
X101883834Y-122835437D01*
X101860779Y-122838856D01*
X101837500Y-122840000D01*
X101362500Y-122840000D01*
X101339221Y-122838856D01*
X101316166Y-122835437D01*
X101293557Y-122829773D01*
X101271613Y-122821921D01*
X101250543Y-122811956D01*
X101230552Y-122799974D01*
X101211832Y-122786090D01*
X101194562Y-122770438D01*
X101178910Y-122753168D01*
X101165026Y-122734448D01*
X101153044Y-122714457D01*
X101143079Y-122693387D01*
X101135227Y-122671443D01*
X101129563Y-122648834D01*
X101126144Y-122625779D01*
X101125000Y-122602500D01*
X101125000Y-122027500D01*
X101126144Y-122004221D01*
X101129563Y-121981166D01*
X101135227Y-121958557D01*
X101143079Y-121936613D01*
X101153044Y-121915543D01*
X101165026Y-121895552D01*
X101178910Y-121876832D01*
X101194562Y-121859562D01*
X101211832Y-121843910D01*
X101230552Y-121830026D01*
X101250543Y-121818044D01*
X101271613Y-121808079D01*
X101293557Y-121800227D01*
X101316166Y-121794563D01*
X101339221Y-121791144D01*
X101362500Y-121790000D01*
X101837500Y-121790000D01*
X101860779Y-121791144D01*
X101860779Y-121791144D01*
G37*
D11*
X101600000Y-122315000D03*
D10*
G36*
X101860779Y-123541144D02*
X101883834Y-123544563D01*
X101906443Y-123550227D01*
X101928387Y-123558079D01*
X101949457Y-123568044D01*
X101969448Y-123580026D01*
X101988168Y-123593910D01*
X102005438Y-123609562D01*
X102021090Y-123626832D01*
X102034974Y-123645552D01*
X102046956Y-123665543D01*
X102056921Y-123686613D01*
X102064773Y-123708557D01*
X102070437Y-123731166D01*
X102073856Y-123754221D01*
X102075000Y-123777500D01*
X102075000Y-124352500D01*
X102073856Y-124375779D01*
X102070437Y-124398834D01*
X102064773Y-124421443D01*
X102056921Y-124443387D01*
X102046956Y-124464457D01*
X102034974Y-124484448D01*
X102021090Y-124503168D01*
X102005438Y-124520438D01*
X101988168Y-124536090D01*
X101969448Y-124549974D01*
X101949457Y-124561956D01*
X101928387Y-124571921D01*
X101906443Y-124579773D01*
X101883834Y-124585437D01*
X101860779Y-124588856D01*
X101837500Y-124590000D01*
X101362500Y-124590000D01*
X101339221Y-124588856D01*
X101316166Y-124585437D01*
X101293557Y-124579773D01*
X101271613Y-124571921D01*
X101250543Y-124561956D01*
X101230552Y-124549974D01*
X101211832Y-124536090D01*
X101194562Y-124520438D01*
X101178910Y-124503168D01*
X101165026Y-124484448D01*
X101153044Y-124464457D01*
X101143079Y-124443387D01*
X101135227Y-124421443D01*
X101129563Y-124398834D01*
X101126144Y-124375779D01*
X101125000Y-124352500D01*
X101125000Y-123777500D01*
X101126144Y-123754221D01*
X101129563Y-123731166D01*
X101135227Y-123708557D01*
X101143079Y-123686613D01*
X101153044Y-123665543D01*
X101165026Y-123645552D01*
X101178910Y-123626832D01*
X101194562Y-123609562D01*
X101211832Y-123593910D01*
X101230552Y-123580026D01*
X101250543Y-123568044D01*
X101271613Y-123558079D01*
X101293557Y-123550227D01*
X101316166Y-123544563D01*
X101339221Y-123541144D01*
X101362500Y-123540000D01*
X101837500Y-123540000D01*
X101860779Y-123541144D01*
X101860779Y-123541144D01*
G37*
D11*
X101600000Y-124065000D03*
G04 #@! TD*
D10*
G04 #@! TO.C,R4*
G36*
X91700779Y-123541144D02*
X91723834Y-123544563D01*
X91746443Y-123550227D01*
X91768387Y-123558079D01*
X91789457Y-123568044D01*
X91809448Y-123580026D01*
X91828168Y-123593910D01*
X91845438Y-123609562D01*
X91861090Y-123626832D01*
X91874974Y-123645552D01*
X91886956Y-123665543D01*
X91896921Y-123686613D01*
X91904773Y-123708557D01*
X91910437Y-123731166D01*
X91913856Y-123754221D01*
X91915000Y-123777500D01*
X91915000Y-124352500D01*
X91913856Y-124375779D01*
X91910437Y-124398834D01*
X91904773Y-124421443D01*
X91896921Y-124443387D01*
X91886956Y-124464457D01*
X91874974Y-124484448D01*
X91861090Y-124503168D01*
X91845438Y-124520438D01*
X91828168Y-124536090D01*
X91809448Y-124549974D01*
X91789457Y-124561956D01*
X91768387Y-124571921D01*
X91746443Y-124579773D01*
X91723834Y-124585437D01*
X91700779Y-124588856D01*
X91677500Y-124590000D01*
X91202500Y-124590000D01*
X91179221Y-124588856D01*
X91156166Y-124585437D01*
X91133557Y-124579773D01*
X91111613Y-124571921D01*
X91090543Y-124561956D01*
X91070552Y-124549974D01*
X91051832Y-124536090D01*
X91034562Y-124520438D01*
X91018910Y-124503168D01*
X91005026Y-124484448D01*
X90993044Y-124464457D01*
X90983079Y-124443387D01*
X90975227Y-124421443D01*
X90969563Y-124398834D01*
X90966144Y-124375779D01*
X90965000Y-124352500D01*
X90965000Y-123777500D01*
X90966144Y-123754221D01*
X90969563Y-123731166D01*
X90975227Y-123708557D01*
X90983079Y-123686613D01*
X90993044Y-123665543D01*
X91005026Y-123645552D01*
X91018910Y-123626832D01*
X91034562Y-123609562D01*
X91051832Y-123593910D01*
X91070552Y-123580026D01*
X91090543Y-123568044D01*
X91111613Y-123558079D01*
X91133557Y-123550227D01*
X91156166Y-123544563D01*
X91179221Y-123541144D01*
X91202500Y-123540000D01*
X91677500Y-123540000D01*
X91700779Y-123541144D01*
X91700779Y-123541144D01*
G37*
D11*
X91440000Y-124065000D03*
D10*
G36*
X91700779Y-121791144D02*
X91723834Y-121794563D01*
X91746443Y-121800227D01*
X91768387Y-121808079D01*
X91789457Y-121818044D01*
X91809448Y-121830026D01*
X91828168Y-121843910D01*
X91845438Y-121859562D01*
X91861090Y-121876832D01*
X91874974Y-121895552D01*
X91886956Y-121915543D01*
X91896921Y-121936613D01*
X91904773Y-121958557D01*
X91910437Y-121981166D01*
X91913856Y-122004221D01*
X91915000Y-122027500D01*
X91915000Y-122602500D01*
X91913856Y-122625779D01*
X91910437Y-122648834D01*
X91904773Y-122671443D01*
X91896921Y-122693387D01*
X91886956Y-122714457D01*
X91874974Y-122734448D01*
X91861090Y-122753168D01*
X91845438Y-122770438D01*
X91828168Y-122786090D01*
X91809448Y-122799974D01*
X91789457Y-122811956D01*
X91768387Y-122821921D01*
X91746443Y-122829773D01*
X91723834Y-122835437D01*
X91700779Y-122838856D01*
X91677500Y-122840000D01*
X91202500Y-122840000D01*
X91179221Y-122838856D01*
X91156166Y-122835437D01*
X91133557Y-122829773D01*
X91111613Y-122821921D01*
X91090543Y-122811956D01*
X91070552Y-122799974D01*
X91051832Y-122786090D01*
X91034562Y-122770438D01*
X91018910Y-122753168D01*
X91005026Y-122734448D01*
X90993044Y-122714457D01*
X90983079Y-122693387D01*
X90975227Y-122671443D01*
X90969563Y-122648834D01*
X90966144Y-122625779D01*
X90965000Y-122602500D01*
X90965000Y-122027500D01*
X90966144Y-122004221D01*
X90969563Y-121981166D01*
X90975227Y-121958557D01*
X90983079Y-121936613D01*
X90993044Y-121915543D01*
X91005026Y-121895552D01*
X91018910Y-121876832D01*
X91034562Y-121859562D01*
X91051832Y-121843910D01*
X91070552Y-121830026D01*
X91090543Y-121818044D01*
X91111613Y-121808079D01*
X91133557Y-121800227D01*
X91156166Y-121794563D01*
X91179221Y-121791144D01*
X91202500Y-121790000D01*
X91677500Y-121790000D01*
X91700779Y-121791144D01*
X91700779Y-121791144D01*
G37*
D11*
X91440000Y-122315000D03*
G04 #@! TD*
D10*
G04 #@! TO.C,R5*
G36*
X85350779Y-69806144D02*
X85373834Y-69809563D01*
X85396443Y-69815227D01*
X85418387Y-69823079D01*
X85439457Y-69833044D01*
X85459448Y-69845026D01*
X85478168Y-69858910D01*
X85495438Y-69874562D01*
X85511090Y-69891832D01*
X85524974Y-69910552D01*
X85536956Y-69930543D01*
X85546921Y-69951613D01*
X85554773Y-69973557D01*
X85560437Y-69996166D01*
X85563856Y-70019221D01*
X85565000Y-70042500D01*
X85565000Y-70617500D01*
X85563856Y-70640779D01*
X85560437Y-70663834D01*
X85554773Y-70686443D01*
X85546921Y-70708387D01*
X85536956Y-70729457D01*
X85524974Y-70749448D01*
X85511090Y-70768168D01*
X85495438Y-70785438D01*
X85478168Y-70801090D01*
X85459448Y-70814974D01*
X85439457Y-70826956D01*
X85418387Y-70836921D01*
X85396443Y-70844773D01*
X85373834Y-70850437D01*
X85350779Y-70853856D01*
X85327500Y-70855000D01*
X84852500Y-70855000D01*
X84829221Y-70853856D01*
X84806166Y-70850437D01*
X84783557Y-70844773D01*
X84761613Y-70836921D01*
X84740543Y-70826956D01*
X84720552Y-70814974D01*
X84701832Y-70801090D01*
X84684562Y-70785438D01*
X84668910Y-70768168D01*
X84655026Y-70749448D01*
X84643044Y-70729457D01*
X84633079Y-70708387D01*
X84625227Y-70686443D01*
X84619563Y-70663834D01*
X84616144Y-70640779D01*
X84615000Y-70617500D01*
X84615000Y-70042500D01*
X84616144Y-70019221D01*
X84619563Y-69996166D01*
X84625227Y-69973557D01*
X84633079Y-69951613D01*
X84643044Y-69930543D01*
X84655026Y-69910552D01*
X84668910Y-69891832D01*
X84684562Y-69874562D01*
X84701832Y-69858910D01*
X84720552Y-69845026D01*
X84740543Y-69833044D01*
X84761613Y-69823079D01*
X84783557Y-69815227D01*
X84806166Y-69809563D01*
X84829221Y-69806144D01*
X84852500Y-69805000D01*
X85327500Y-69805000D01*
X85350779Y-69806144D01*
X85350779Y-69806144D01*
G37*
D11*
X85090000Y-70330000D03*
D10*
G36*
X85350779Y-68056144D02*
X85373834Y-68059563D01*
X85396443Y-68065227D01*
X85418387Y-68073079D01*
X85439457Y-68083044D01*
X85459448Y-68095026D01*
X85478168Y-68108910D01*
X85495438Y-68124562D01*
X85511090Y-68141832D01*
X85524974Y-68160552D01*
X85536956Y-68180543D01*
X85546921Y-68201613D01*
X85554773Y-68223557D01*
X85560437Y-68246166D01*
X85563856Y-68269221D01*
X85565000Y-68292500D01*
X85565000Y-68867500D01*
X85563856Y-68890779D01*
X85560437Y-68913834D01*
X85554773Y-68936443D01*
X85546921Y-68958387D01*
X85536956Y-68979457D01*
X85524974Y-68999448D01*
X85511090Y-69018168D01*
X85495438Y-69035438D01*
X85478168Y-69051090D01*
X85459448Y-69064974D01*
X85439457Y-69076956D01*
X85418387Y-69086921D01*
X85396443Y-69094773D01*
X85373834Y-69100437D01*
X85350779Y-69103856D01*
X85327500Y-69105000D01*
X84852500Y-69105000D01*
X84829221Y-69103856D01*
X84806166Y-69100437D01*
X84783557Y-69094773D01*
X84761613Y-69086921D01*
X84740543Y-69076956D01*
X84720552Y-69064974D01*
X84701832Y-69051090D01*
X84684562Y-69035438D01*
X84668910Y-69018168D01*
X84655026Y-68999448D01*
X84643044Y-68979457D01*
X84633079Y-68958387D01*
X84625227Y-68936443D01*
X84619563Y-68913834D01*
X84616144Y-68890779D01*
X84615000Y-68867500D01*
X84615000Y-68292500D01*
X84616144Y-68269221D01*
X84619563Y-68246166D01*
X84625227Y-68223557D01*
X84633079Y-68201613D01*
X84643044Y-68180543D01*
X84655026Y-68160552D01*
X84668910Y-68141832D01*
X84684562Y-68124562D01*
X84701832Y-68108910D01*
X84720552Y-68095026D01*
X84740543Y-68083044D01*
X84761613Y-68073079D01*
X84783557Y-68065227D01*
X84806166Y-68059563D01*
X84829221Y-68056144D01*
X84852500Y-68055000D01*
X85327500Y-68055000D01*
X85350779Y-68056144D01*
X85350779Y-68056144D01*
G37*
D11*
X85090000Y-68580000D03*
G04 #@! TD*
D10*
G04 #@! TO.C,R6*
G36*
X103130779Y-129016144D02*
X103153834Y-129019563D01*
X103176443Y-129025227D01*
X103198387Y-129033079D01*
X103219457Y-129043044D01*
X103239448Y-129055026D01*
X103258168Y-129068910D01*
X103275438Y-129084562D01*
X103291090Y-129101832D01*
X103304974Y-129120552D01*
X103316956Y-129140543D01*
X103326921Y-129161613D01*
X103334773Y-129183557D01*
X103340437Y-129206166D01*
X103343856Y-129229221D01*
X103345000Y-129252500D01*
X103345000Y-129827500D01*
X103343856Y-129850779D01*
X103340437Y-129873834D01*
X103334773Y-129896443D01*
X103326921Y-129918387D01*
X103316956Y-129939457D01*
X103304974Y-129959448D01*
X103291090Y-129978168D01*
X103275438Y-129995438D01*
X103258168Y-130011090D01*
X103239448Y-130024974D01*
X103219457Y-130036956D01*
X103198387Y-130046921D01*
X103176443Y-130054773D01*
X103153834Y-130060437D01*
X103130779Y-130063856D01*
X103107500Y-130065000D01*
X102632500Y-130065000D01*
X102609221Y-130063856D01*
X102586166Y-130060437D01*
X102563557Y-130054773D01*
X102541613Y-130046921D01*
X102520543Y-130036956D01*
X102500552Y-130024974D01*
X102481832Y-130011090D01*
X102464562Y-129995438D01*
X102448910Y-129978168D01*
X102435026Y-129959448D01*
X102423044Y-129939457D01*
X102413079Y-129918387D01*
X102405227Y-129896443D01*
X102399563Y-129873834D01*
X102396144Y-129850779D01*
X102395000Y-129827500D01*
X102395000Y-129252500D01*
X102396144Y-129229221D01*
X102399563Y-129206166D01*
X102405227Y-129183557D01*
X102413079Y-129161613D01*
X102423044Y-129140543D01*
X102435026Y-129120552D01*
X102448910Y-129101832D01*
X102464562Y-129084562D01*
X102481832Y-129068910D01*
X102500552Y-129055026D01*
X102520543Y-129043044D01*
X102541613Y-129033079D01*
X102563557Y-129025227D01*
X102586166Y-129019563D01*
X102609221Y-129016144D01*
X102632500Y-129015000D01*
X103107500Y-129015000D01*
X103130779Y-129016144D01*
X103130779Y-129016144D01*
G37*
D11*
X102870000Y-129540000D03*
D10*
G36*
X103130779Y-127266144D02*
X103153834Y-127269563D01*
X103176443Y-127275227D01*
X103198387Y-127283079D01*
X103219457Y-127293044D01*
X103239448Y-127305026D01*
X103258168Y-127318910D01*
X103275438Y-127334562D01*
X103291090Y-127351832D01*
X103304974Y-127370552D01*
X103316956Y-127390543D01*
X103326921Y-127411613D01*
X103334773Y-127433557D01*
X103340437Y-127456166D01*
X103343856Y-127479221D01*
X103345000Y-127502500D01*
X103345000Y-128077500D01*
X103343856Y-128100779D01*
X103340437Y-128123834D01*
X103334773Y-128146443D01*
X103326921Y-128168387D01*
X103316956Y-128189457D01*
X103304974Y-128209448D01*
X103291090Y-128228168D01*
X103275438Y-128245438D01*
X103258168Y-128261090D01*
X103239448Y-128274974D01*
X103219457Y-128286956D01*
X103198387Y-128296921D01*
X103176443Y-128304773D01*
X103153834Y-128310437D01*
X103130779Y-128313856D01*
X103107500Y-128315000D01*
X102632500Y-128315000D01*
X102609221Y-128313856D01*
X102586166Y-128310437D01*
X102563557Y-128304773D01*
X102541613Y-128296921D01*
X102520543Y-128286956D01*
X102500552Y-128274974D01*
X102481832Y-128261090D01*
X102464562Y-128245438D01*
X102448910Y-128228168D01*
X102435026Y-128209448D01*
X102423044Y-128189457D01*
X102413079Y-128168387D01*
X102405227Y-128146443D01*
X102399563Y-128123834D01*
X102396144Y-128100779D01*
X102395000Y-128077500D01*
X102395000Y-127502500D01*
X102396144Y-127479221D01*
X102399563Y-127456166D01*
X102405227Y-127433557D01*
X102413079Y-127411613D01*
X102423044Y-127390543D01*
X102435026Y-127370552D01*
X102448910Y-127351832D01*
X102464562Y-127334562D01*
X102481832Y-127318910D01*
X102500552Y-127305026D01*
X102520543Y-127293044D01*
X102541613Y-127283079D01*
X102563557Y-127275227D01*
X102586166Y-127269563D01*
X102609221Y-127266144D01*
X102632500Y-127265000D01*
X103107500Y-127265000D01*
X103130779Y-127266144D01*
X103130779Y-127266144D01*
G37*
D11*
X102870000Y-127790000D03*
G04 #@! TD*
D10*
G04 #@! TO.C,R7*
G36*
X85350779Y-127266144D02*
X85373834Y-127269563D01*
X85396443Y-127275227D01*
X85418387Y-127283079D01*
X85439457Y-127293044D01*
X85459448Y-127305026D01*
X85478168Y-127318910D01*
X85495438Y-127334562D01*
X85511090Y-127351832D01*
X85524974Y-127370552D01*
X85536956Y-127390543D01*
X85546921Y-127411613D01*
X85554773Y-127433557D01*
X85560437Y-127456166D01*
X85563856Y-127479221D01*
X85565000Y-127502500D01*
X85565000Y-128077500D01*
X85563856Y-128100779D01*
X85560437Y-128123834D01*
X85554773Y-128146443D01*
X85546921Y-128168387D01*
X85536956Y-128189457D01*
X85524974Y-128209448D01*
X85511090Y-128228168D01*
X85495438Y-128245438D01*
X85478168Y-128261090D01*
X85459448Y-128274974D01*
X85439457Y-128286956D01*
X85418387Y-128296921D01*
X85396443Y-128304773D01*
X85373834Y-128310437D01*
X85350779Y-128313856D01*
X85327500Y-128315000D01*
X84852500Y-128315000D01*
X84829221Y-128313856D01*
X84806166Y-128310437D01*
X84783557Y-128304773D01*
X84761613Y-128296921D01*
X84740543Y-128286956D01*
X84720552Y-128274974D01*
X84701832Y-128261090D01*
X84684562Y-128245438D01*
X84668910Y-128228168D01*
X84655026Y-128209448D01*
X84643044Y-128189457D01*
X84633079Y-128168387D01*
X84625227Y-128146443D01*
X84619563Y-128123834D01*
X84616144Y-128100779D01*
X84615000Y-128077500D01*
X84615000Y-127502500D01*
X84616144Y-127479221D01*
X84619563Y-127456166D01*
X84625227Y-127433557D01*
X84633079Y-127411613D01*
X84643044Y-127390543D01*
X84655026Y-127370552D01*
X84668910Y-127351832D01*
X84684562Y-127334562D01*
X84701832Y-127318910D01*
X84720552Y-127305026D01*
X84740543Y-127293044D01*
X84761613Y-127283079D01*
X84783557Y-127275227D01*
X84806166Y-127269563D01*
X84829221Y-127266144D01*
X84852500Y-127265000D01*
X85327500Y-127265000D01*
X85350779Y-127266144D01*
X85350779Y-127266144D01*
G37*
D11*
X85090000Y-127790000D03*
D10*
G36*
X85350779Y-129016144D02*
X85373834Y-129019563D01*
X85396443Y-129025227D01*
X85418387Y-129033079D01*
X85439457Y-129043044D01*
X85459448Y-129055026D01*
X85478168Y-129068910D01*
X85495438Y-129084562D01*
X85511090Y-129101832D01*
X85524974Y-129120552D01*
X85536956Y-129140543D01*
X85546921Y-129161613D01*
X85554773Y-129183557D01*
X85560437Y-129206166D01*
X85563856Y-129229221D01*
X85565000Y-129252500D01*
X85565000Y-129827500D01*
X85563856Y-129850779D01*
X85560437Y-129873834D01*
X85554773Y-129896443D01*
X85546921Y-129918387D01*
X85536956Y-129939457D01*
X85524974Y-129959448D01*
X85511090Y-129978168D01*
X85495438Y-129995438D01*
X85478168Y-130011090D01*
X85459448Y-130024974D01*
X85439457Y-130036956D01*
X85418387Y-130046921D01*
X85396443Y-130054773D01*
X85373834Y-130060437D01*
X85350779Y-130063856D01*
X85327500Y-130065000D01*
X84852500Y-130065000D01*
X84829221Y-130063856D01*
X84806166Y-130060437D01*
X84783557Y-130054773D01*
X84761613Y-130046921D01*
X84740543Y-130036956D01*
X84720552Y-130024974D01*
X84701832Y-130011090D01*
X84684562Y-129995438D01*
X84668910Y-129978168D01*
X84655026Y-129959448D01*
X84643044Y-129939457D01*
X84633079Y-129918387D01*
X84625227Y-129896443D01*
X84619563Y-129873834D01*
X84616144Y-129850779D01*
X84615000Y-129827500D01*
X84615000Y-129252500D01*
X84616144Y-129229221D01*
X84619563Y-129206166D01*
X84625227Y-129183557D01*
X84633079Y-129161613D01*
X84643044Y-129140543D01*
X84655026Y-129120552D01*
X84668910Y-129101832D01*
X84684562Y-129084562D01*
X84701832Y-129068910D01*
X84720552Y-129055026D01*
X84740543Y-129043044D01*
X84761613Y-129033079D01*
X84783557Y-129025227D01*
X84806166Y-129019563D01*
X84829221Y-129016144D01*
X84852500Y-129015000D01*
X85327500Y-129015000D01*
X85350779Y-129016144D01*
X85350779Y-129016144D01*
G37*
D11*
X85090000Y-129540000D03*
G04 #@! TD*
M02*
