G04 #@! TF.GenerationSoftware,KiCad,Pcbnew,(5.0.2)-1*
G04 #@! TF.CreationDate,2019-04-17T18:19:44-05:00*
G04 #@! TF.ProjectId,ArduinoNanoInterface_Hardware,41726475-696e-46f4-9e61-6e6f496e7465,rev?*
G04 #@! TF.SameCoordinates,Original*
G04 #@! TF.FileFunction,Legend,Top*
G04 #@! TF.FilePolarity,Positive*
%FSLAX46Y46*%
G04 Gerber Fmt 4.6, Leading zero omitted, Abs format (unit mm)*
G04 Created by KiCad (PCBNEW (5.0.2)-1) date 4/17/2019 6:19:44 PM*
%MOMM*%
%LPD*%
G01*
G04 APERTURE LIST*
%ADD10C,0.300000*%
%ADD11C,0.120000*%
%ADD12C,0.150000*%
G04 APERTURE END LIST*
D10*
X84804285Y-60138571D02*
X84090000Y-60138571D01*
X84018571Y-60852857D01*
X84090000Y-60781428D01*
X84232857Y-60710000D01*
X84590000Y-60710000D01*
X84732857Y-60781428D01*
X84804285Y-60852857D01*
X84875714Y-60995714D01*
X84875714Y-61352857D01*
X84804285Y-61495714D01*
X84732857Y-61567142D01*
X84590000Y-61638571D01*
X84232857Y-61638571D01*
X84090000Y-61567142D01*
X84018571Y-61495714D01*
X85304285Y-60138571D02*
X85804285Y-61638571D01*
X86304285Y-60138571D01*
X101834285Y-135068571D02*
X102691428Y-135068571D01*
X102262857Y-136568571D02*
X102262857Y-135068571D01*
X103048571Y-136568571D02*
X103834285Y-135568571D01*
X103048571Y-135568571D02*
X103834285Y-136568571D01*
X84947142Y-136568571D02*
X84447142Y-135854285D01*
X84090000Y-136568571D02*
X84090000Y-135068571D01*
X84661428Y-135068571D01*
X84804285Y-135140000D01*
X84875714Y-135211428D01*
X84947142Y-135354285D01*
X84947142Y-135568571D01*
X84875714Y-135711428D01*
X84804285Y-135782857D01*
X84661428Y-135854285D01*
X84090000Y-135854285D01*
X85447142Y-136568571D02*
X86232857Y-135568571D01*
X85447142Y-135568571D02*
X86232857Y-136568571D01*
X92047142Y-91455714D02*
X92118571Y-91241428D01*
X92118571Y-90884285D01*
X92047142Y-90741428D01*
X91975714Y-90670000D01*
X91832857Y-90598571D01*
X91690000Y-90598571D01*
X91547142Y-90670000D01*
X91475714Y-90741428D01*
X91404285Y-90884285D01*
X91332857Y-91170000D01*
X91261428Y-91312857D01*
X91190000Y-91384285D01*
X91047142Y-91455714D01*
X90904285Y-91455714D01*
X90761428Y-91384285D01*
X90690000Y-91312857D01*
X90618571Y-91170000D01*
X90618571Y-90812857D01*
X90690000Y-90598571D01*
X90618571Y-90098571D02*
X92118571Y-89741428D01*
X91047142Y-89455714D01*
X92118571Y-89170000D01*
X90618571Y-88812857D01*
X97198571Y-91455714D02*
X95698571Y-91455714D01*
X96412857Y-91455714D02*
X96412857Y-90598571D01*
X97198571Y-90598571D02*
X95698571Y-90598571D01*
X95698571Y-90027142D02*
X97198571Y-89670000D01*
X96127142Y-89384285D01*
X97198571Y-89098571D01*
X95698571Y-88741428D01*
D11*
G04 #@! TO.C,JP1*
X97850000Y-93980000D02*
X97850000Y-95310000D01*
X97850000Y-95310000D02*
X96520000Y-95310000D01*
X95250000Y-95310000D02*
X90110000Y-95310000D01*
X90110000Y-92650000D02*
X90110000Y-95310000D01*
X95250000Y-92650000D02*
X90110000Y-92650000D01*
X95250000Y-92650000D02*
X95250000Y-95310000D01*
G04 #@! TO.C,JP2*
X97850000Y-97790000D02*
X97850000Y-99120000D01*
X97850000Y-99120000D02*
X96520000Y-99120000D01*
X95250000Y-99120000D02*
X90110000Y-99120000D01*
X90110000Y-96460000D02*
X90110000Y-99120000D01*
X95250000Y-96460000D02*
X90110000Y-96460000D01*
X95250000Y-96460000D02*
X95250000Y-99120000D01*
G04 #@! TO.C,A1*
X87630000Y-77470000D02*
X87630000Y-74930000D01*
X87630000Y-74930000D02*
X84960000Y-74930000D01*
X84960000Y-77470000D02*
X84960000Y-115700000D01*
X84960000Y-72260000D02*
X84960000Y-74930000D01*
X100330000Y-74930000D02*
X103000000Y-74930000D01*
X100330000Y-74930000D02*
X100330000Y-113030000D01*
X100330000Y-113030000D02*
X103000000Y-113030000D01*
X87630000Y-77470000D02*
X84960000Y-77470000D01*
X87630000Y-77470000D02*
X87630000Y-113030000D01*
X87630000Y-113030000D02*
X84960000Y-113030000D01*
X84960000Y-115700000D02*
X103000000Y-115700000D01*
X103000000Y-115700000D02*
X103000000Y-72260000D01*
X103000000Y-72260000D02*
X84960000Y-72260000D01*
D12*
G04 #@! TO.C,Conn1*
X88900000Y-72390000D02*
X88900000Y-69850000D01*
X99060000Y-69850000D02*
X99060000Y-72390000D01*
X88900000Y-69850000D02*
X100965000Y-69850000D01*
X92710000Y-63500000D02*
X92710000Y-66040000D01*
X91440000Y-62230000D02*
X91440000Y-58420000D01*
X91440000Y-62230000D02*
X91440000Y-63500000D01*
X88900000Y-69850000D02*
X86995000Y-69850000D01*
X86995000Y-69850000D02*
X86995000Y-57912000D01*
X91440000Y-57912000D02*
X91440000Y-58420000D01*
X99060000Y-72390000D02*
X88900000Y-72390000D01*
X100965000Y-69850000D02*
X100965000Y-57912000D01*
X96520000Y-57912000D02*
X96520000Y-63500000D01*
X95250000Y-66040000D02*
X92710000Y-66040000D01*
X95250000Y-63500000D02*
X95250000Y-66040000D01*
X91440000Y-63500000D02*
X96520000Y-63500000D01*
X86995000Y-57912000D02*
X100965000Y-57912000D01*
G04 #@! TO.C,Conn2*
X100965000Y-139954000D02*
X86995000Y-139954000D01*
X96520000Y-134366000D02*
X91440000Y-134366000D01*
X92710000Y-134366000D02*
X92710000Y-131826000D01*
X92710000Y-131826000D02*
X95250000Y-131826000D01*
X91440000Y-139954000D02*
X91440000Y-134366000D01*
X86995000Y-128016000D02*
X86995000Y-139954000D01*
X88900000Y-125476000D02*
X99060000Y-125476000D01*
X96520000Y-139954000D02*
X96520000Y-139446000D01*
X100965000Y-128016000D02*
X100965000Y-139954000D01*
X99060000Y-128016000D02*
X100965000Y-128016000D01*
X96520000Y-135636000D02*
X96520000Y-134366000D01*
X96520000Y-135636000D02*
X96520000Y-139446000D01*
X95250000Y-134366000D02*
X95250000Y-131826000D01*
X99060000Y-128016000D02*
X86995000Y-128016000D01*
X88900000Y-128016000D02*
X88900000Y-125476000D01*
X99060000Y-125476000D02*
X99060000Y-128016000D01*
D11*
G04 #@! TO.C,D1*
X85825000Y-65965000D02*
X85825000Y-63505000D01*
X85825000Y-63505000D02*
X84355000Y-63505000D01*
X84355000Y-63505000D02*
X84355000Y-65965000D01*
G04 #@! TO.C,D2*
X103605000Y-134615000D02*
X103605000Y-132155000D01*
X102135000Y-134615000D02*
X103605000Y-134615000D01*
X102135000Y-132155000D02*
X102135000Y-134615000D01*
G04 #@! TO.C,D3*
X84355000Y-132155000D02*
X84355000Y-134615000D01*
X84355000Y-134615000D02*
X85825000Y-134615000D01*
X85825000Y-134615000D02*
X85825000Y-132155000D01*
G04 #@! TO.C,Q1*
X96210000Y-123950000D02*
X97140000Y-123950000D01*
X99370000Y-123950000D02*
X98440000Y-123950000D01*
X99370000Y-123950000D02*
X99370000Y-121790000D01*
X96210000Y-123950000D02*
X96210000Y-122490000D01*
G04 #@! TO.C,Q2*
X86050000Y-123950000D02*
X86050000Y-122490000D01*
X89210000Y-123950000D02*
X89210000Y-121790000D01*
X89210000Y-123950000D02*
X88280000Y-123950000D01*
X86050000Y-123950000D02*
X86980000Y-123950000D01*
G04 #@! TO.C,R1*
X97961267Y-120140000D02*
X97618733Y-120140000D01*
X97961267Y-121160000D02*
X97618733Y-121160000D01*
G04 #@! TO.C,R2*
X87801267Y-121160000D02*
X87458733Y-121160000D01*
X87801267Y-120140000D02*
X87458733Y-120140000D01*
G04 #@! TO.C,R3*
X102110000Y-123018733D02*
X102110000Y-123361267D01*
X101090000Y-123018733D02*
X101090000Y-123361267D01*
G04 #@! TO.C,R4*
X90930000Y-123018733D02*
X90930000Y-123361267D01*
X91950000Y-123018733D02*
X91950000Y-123361267D01*
G04 #@! TO.C,R5*
X84580000Y-69626267D02*
X84580000Y-69283733D01*
X85600000Y-69626267D02*
X85600000Y-69283733D01*
G04 #@! TO.C,R6*
X102360000Y-128493733D02*
X102360000Y-128836267D01*
X103380000Y-128493733D02*
X103380000Y-128836267D01*
G04 #@! TO.C,R7*
X85600000Y-128493733D02*
X85600000Y-128836267D01*
X84580000Y-128493733D02*
X84580000Y-128836267D01*
G04 #@! TO.C,JP1*
D12*
X98742380Y-94813333D02*
X99456666Y-94813333D01*
X99599523Y-94860952D01*
X99694761Y-94956190D01*
X99742380Y-95099047D01*
X99742380Y-95194285D01*
X99742380Y-94337142D02*
X98742380Y-94337142D01*
X98742380Y-93956190D01*
X98790000Y-93860952D01*
X98837619Y-93813333D01*
X98932857Y-93765714D01*
X99075714Y-93765714D01*
X99170952Y-93813333D01*
X99218571Y-93860952D01*
X99266190Y-93956190D01*
X99266190Y-94337142D01*
X99742380Y-92813333D02*
X99742380Y-93384761D01*
X99742380Y-93099047D02*
X98742380Y-93099047D01*
X98885238Y-93194285D01*
X98980476Y-93289523D01*
X99028095Y-93384761D01*
G04 #@! TO.C,JP2*
X98742380Y-98623333D02*
X99456666Y-98623333D01*
X99599523Y-98670952D01*
X99694761Y-98766190D01*
X99742380Y-98909047D01*
X99742380Y-99004285D01*
X99742380Y-98147142D02*
X98742380Y-98147142D01*
X98742380Y-97766190D01*
X98790000Y-97670952D01*
X98837619Y-97623333D01*
X98932857Y-97575714D01*
X99075714Y-97575714D01*
X99170952Y-97623333D01*
X99218571Y-97670952D01*
X99266190Y-97766190D01*
X99266190Y-98147142D01*
X98837619Y-97194761D02*
X98790000Y-97147142D01*
X98742380Y-97051904D01*
X98742380Y-96813809D01*
X98790000Y-96718571D01*
X98837619Y-96670952D01*
X98932857Y-96623333D01*
X99028095Y-96623333D01*
X99170952Y-96670952D01*
X99742380Y-97242380D01*
X99742380Y-96623333D01*
G04 #@! TO.C,A1*
X85645714Y-73826666D02*
X86121904Y-73826666D01*
X85550476Y-74112380D02*
X85883809Y-73112380D01*
X86217142Y-74112380D01*
X87074285Y-74112380D02*
X86502857Y-74112380D01*
X86788571Y-74112380D02*
X86788571Y-73112380D01*
X86693333Y-73255238D01*
X86598095Y-73350476D01*
X86502857Y-73398095D01*
G04 #@! TO.C,D1*
X86972380Y-65903095D02*
X85972380Y-65903095D01*
X85972380Y-65665000D01*
X86020000Y-65522142D01*
X86115238Y-65426904D01*
X86210476Y-65379285D01*
X86400952Y-65331666D01*
X86543809Y-65331666D01*
X86734285Y-65379285D01*
X86829523Y-65426904D01*
X86924761Y-65522142D01*
X86972380Y-65665000D01*
X86972380Y-65903095D01*
X86972380Y-64379285D02*
X86972380Y-64950714D01*
X86972380Y-64665000D02*
X85972380Y-64665000D01*
X86115238Y-64760238D01*
X86210476Y-64855476D01*
X86258095Y-64950714D01*
G04 #@! TO.C,D2*
X101892380Y-133693095D02*
X100892380Y-133693095D01*
X100892380Y-133455000D01*
X100940000Y-133312142D01*
X101035238Y-133216904D01*
X101130476Y-133169285D01*
X101320952Y-133121666D01*
X101463809Y-133121666D01*
X101654285Y-133169285D01*
X101749523Y-133216904D01*
X101844761Y-133312142D01*
X101892380Y-133455000D01*
X101892380Y-133693095D01*
X100987619Y-132740714D02*
X100940000Y-132693095D01*
X100892380Y-132597857D01*
X100892380Y-132359761D01*
X100940000Y-132264523D01*
X100987619Y-132216904D01*
X101082857Y-132169285D01*
X101178095Y-132169285D01*
X101320952Y-132216904D01*
X101892380Y-132788333D01*
X101892380Y-132169285D01*
G04 #@! TO.C,D3*
X86812380Y-134088095D02*
X85812380Y-134088095D01*
X85812380Y-133850000D01*
X85860000Y-133707142D01*
X85955238Y-133611904D01*
X86050476Y-133564285D01*
X86240952Y-133516666D01*
X86383809Y-133516666D01*
X86574285Y-133564285D01*
X86669523Y-133611904D01*
X86764761Y-133707142D01*
X86812380Y-133850000D01*
X86812380Y-134088095D01*
X85812380Y-133183333D02*
X85812380Y-132564285D01*
X86193333Y-132897619D01*
X86193333Y-132754761D01*
X86240952Y-132659523D01*
X86288571Y-132611904D01*
X86383809Y-132564285D01*
X86621904Y-132564285D01*
X86717142Y-132611904D01*
X86764761Y-132659523D01*
X86812380Y-132754761D01*
X86812380Y-133040476D01*
X86764761Y-133135714D01*
X86717142Y-133183333D01*
G04 #@! TO.C,Q1*
X96424761Y-125261619D02*
X96329523Y-125214000D01*
X96234285Y-125118761D01*
X96091428Y-124975904D01*
X95996190Y-124928285D01*
X95900952Y-124928285D01*
X95948571Y-125166380D02*
X95853333Y-125118761D01*
X95758095Y-125023523D01*
X95710476Y-124833047D01*
X95710476Y-124499714D01*
X95758095Y-124309238D01*
X95853333Y-124214000D01*
X95948571Y-124166380D01*
X96139047Y-124166380D01*
X96234285Y-124214000D01*
X96329523Y-124309238D01*
X96377142Y-124499714D01*
X96377142Y-124833047D01*
X96329523Y-125023523D01*
X96234285Y-125118761D01*
X96139047Y-125166380D01*
X95948571Y-125166380D01*
X97329523Y-125166380D02*
X96758095Y-125166380D01*
X97043809Y-125166380D02*
X97043809Y-124166380D01*
X96948571Y-124309238D01*
X96853333Y-124404476D01*
X96758095Y-124452095D01*
G04 #@! TO.C,Q2*
X85756761Y-125261619D02*
X85661523Y-125214000D01*
X85566285Y-125118761D01*
X85423428Y-124975904D01*
X85328190Y-124928285D01*
X85232952Y-124928285D01*
X85280571Y-125166380D02*
X85185333Y-125118761D01*
X85090095Y-125023523D01*
X85042476Y-124833047D01*
X85042476Y-124499714D01*
X85090095Y-124309238D01*
X85185333Y-124214000D01*
X85280571Y-124166380D01*
X85471047Y-124166380D01*
X85566285Y-124214000D01*
X85661523Y-124309238D01*
X85709142Y-124499714D01*
X85709142Y-124833047D01*
X85661523Y-125023523D01*
X85566285Y-125118761D01*
X85471047Y-125166380D01*
X85280571Y-125166380D01*
X86090095Y-124261619D02*
X86137714Y-124214000D01*
X86232952Y-124166380D01*
X86471047Y-124166380D01*
X86566285Y-124214000D01*
X86613904Y-124261619D01*
X86661523Y-124356857D01*
X86661523Y-124452095D01*
X86613904Y-124594952D01*
X86042476Y-125166380D01*
X86661523Y-125166380D01*
G04 #@! TO.C,R1*
X97623333Y-119832380D02*
X97290000Y-119356190D01*
X97051904Y-119832380D02*
X97051904Y-118832380D01*
X97432857Y-118832380D01*
X97528095Y-118880000D01*
X97575714Y-118927619D01*
X97623333Y-119022857D01*
X97623333Y-119165714D01*
X97575714Y-119260952D01*
X97528095Y-119308571D01*
X97432857Y-119356190D01*
X97051904Y-119356190D01*
X98575714Y-119832380D02*
X98004285Y-119832380D01*
X98290000Y-119832380D02*
X98290000Y-118832380D01*
X98194761Y-118975238D01*
X98099523Y-119070476D01*
X98004285Y-119118095D01*
G04 #@! TO.C,R2*
X87463333Y-119832380D02*
X87130000Y-119356190D01*
X86891904Y-119832380D02*
X86891904Y-118832380D01*
X87272857Y-118832380D01*
X87368095Y-118880000D01*
X87415714Y-118927619D01*
X87463333Y-119022857D01*
X87463333Y-119165714D01*
X87415714Y-119260952D01*
X87368095Y-119308571D01*
X87272857Y-119356190D01*
X86891904Y-119356190D01*
X87844285Y-118927619D02*
X87891904Y-118880000D01*
X87987142Y-118832380D01*
X88225238Y-118832380D01*
X88320476Y-118880000D01*
X88368095Y-118927619D01*
X88415714Y-119022857D01*
X88415714Y-119118095D01*
X88368095Y-119260952D01*
X87796666Y-119832380D01*
X88415714Y-119832380D01*
G04 #@! TO.C,R3*
X103482380Y-123356666D02*
X103006190Y-123690000D01*
X103482380Y-123928095D02*
X102482380Y-123928095D01*
X102482380Y-123547142D01*
X102530000Y-123451904D01*
X102577619Y-123404285D01*
X102672857Y-123356666D01*
X102815714Y-123356666D01*
X102910952Y-123404285D01*
X102958571Y-123451904D01*
X103006190Y-123547142D01*
X103006190Y-123928095D01*
X102482380Y-123023333D02*
X102482380Y-122404285D01*
X102863333Y-122737619D01*
X102863333Y-122594761D01*
X102910952Y-122499523D01*
X102958571Y-122451904D01*
X103053809Y-122404285D01*
X103291904Y-122404285D01*
X103387142Y-122451904D01*
X103434761Y-122499523D01*
X103482380Y-122594761D01*
X103482380Y-122880476D01*
X103434761Y-122975714D01*
X103387142Y-123023333D01*
G04 #@! TO.C,R4*
X93322380Y-123356666D02*
X92846190Y-123690000D01*
X93322380Y-123928095D02*
X92322380Y-123928095D01*
X92322380Y-123547142D01*
X92370000Y-123451904D01*
X92417619Y-123404285D01*
X92512857Y-123356666D01*
X92655714Y-123356666D01*
X92750952Y-123404285D01*
X92798571Y-123451904D01*
X92846190Y-123547142D01*
X92846190Y-123928095D01*
X92655714Y-122499523D02*
X93322380Y-122499523D01*
X92274761Y-122737619D02*
X92989047Y-122975714D01*
X92989047Y-122356666D01*
G04 #@! TO.C,R5*
X86812380Y-69621666D02*
X86336190Y-69955000D01*
X86812380Y-70193095D02*
X85812380Y-70193095D01*
X85812380Y-69812142D01*
X85860000Y-69716904D01*
X85907619Y-69669285D01*
X86002857Y-69621666D01*
X86145714Y-69621666D01*
X86240952Y-69669285D01*
X86288571Y-69716904D01*
X86336190Y-69812142D01*
X86336190Y-70193095D01*
X85812380Y-68716904D02*
X85812380Y-69193095D01*
X86288571Y-69240714D01*
X86240952Y-69193095D01*
X86193333Y-69097857D01*
X86193333Y-68859761D01*
X86240952Y-68764523D01*
X86288571Y-68716904D01*
X86383809Y-68669285D01*
X86621904Y-68669285D01*
X86717142Y-68716904D01*
X86764761Y-68764523D01*
X86812380Y-68859761D01*
X86812380Y-69097857D01*
X86764761Y-69193095D01*
X86717142Y-69240714D01*
G04 #@! TO.C,R6*
X102052380Y-128831666D02*
X101576190Y-129165000D01*
X102052380Y-129403095D02*
X101052380Y-129403095D01*
X101052380Y-129022142D01*
X101100000Y-128926904D01*
X101147619Y-128879285D01*
X101242857Y-128831666D01*
X101385714Y-128831666D01*
X101480952Y-128879285D01*
X101528571Y-128926904D01*
X101576190Y-129022142D01*
X101576190Y-129403095D01*
X101052380Y-127974523D02*
X101052380Y-128165000D01*
X101100000Y-128260238D01*
X101147619Y-128307857D01*
X101290476Y-128403095D01*
X101480952Y-128450714D01*
X101861904Y-128450714D01*
X101957142Y-128403095D01*
X102004761Y-128355476D01*
X102052380Y-128260238D01*
X102052380Y-128069761D01*
X102004761Y-127974523D01*
X101957142Y-127926904D01*
X101861904Y-127879285D01*
X101623809Y-127879285D01*
X101528571Y-127926904D01*
X101480952Y-127974523D01*
X101433333Y-128069761D01*
X101433333Y-128260238D01*
X101480952Y-128355476D01*
X101528571Y-128403095D01*
X101623809Y-128450714D01*
G04 #@! TO.C,R7*
X86812380Y-129706666D02*
X86336190Y-130040000D01*
X86812380Y-130278095D02*
X85812380Y-130278095D01*
X85812380Y-129897142D01*
X85860000Y-129801904D01*
X85907619Y-129754285D01*
X86002857Y-129706666D01*
X86145714Y-129706666D01*
X86240952Y-129754285D01*
X86288571Y-129801904D01*
X86336190Y-129897142D01*
X86336190Y-130278095D01*
X85812380Y-129373333D02*
X85812380Y-128706666D01*
X86812380Y-129135238D01*
G04 #@! TD*
M02*
