G04 #@! TF.GenerationSoftware,KiCad,Pcbnew,(5.0.2)-1*
G04 #@! TF.CreationDate,2019-04-17T18:19:44-05:00*
G04 #@! TF.ProjectId,ArduinoNanoInterface_Hardware,41726475-696e-46f4-9e61-6e6f496e7465,rev?*
G04 #@! TF.SameCoordinates,Original*
G04 #@! TF.FileFunction,Soldermask,Bot*
G04 #@! TF.FilePolarity,Negative*
%FSLAX46Y46*%
G04 Gerber Fmt 4.6, Leading zero omitted, Abs format (unit mm)*
G04 Created by KiCad (PCBNEW (5.0.2)-1) date 4/17/2019 6:19:44 PM*
%MOMM*%
%LPD*%
G01*
G04 APERTURE LIST*
%ADD10C,0.100000*%
G04 APERTURE END LIST*
D10*
G36*
X99578037Y-133674250D02*
X99578039Y-133674251D01*
X99578040Y-133674251D01*
X99901251Y-133808129D01*
X99901252Y-133808130D01*
X100192137Y-134002493D01*
X100439507Y-134249863D01*
X100439509Y-134249866D01*
X100633871Y-134540749D01*
X100767749Y-134863960D01*
X100836000Y-135207079D01*
X100836000Y-135556921D01*
X100767749Y-135900040D01*
X100633871Y-136223251D01*
X100633870Y-136223252D01*
X100439507Y-136514137D01*
X100192137Y-136761507D01*
X100192134Y-136761509D01*
X99901251Y-136955871D01*
X99578040Y-137089749D01*
X99578039Y-137089749D01*
X99578037Y-137089750D01*
X99234922Y-137158000D01*
X98885078Y-137158000D01*
X98541963Y-137089750D01*
X98541961Y-137089749D01*
X98541960Y-137089749D01*
X98218749Y-136955871D01*
X97927866Y-136761509D01*
X97927863Y-136761507D01*
X97680493Y-136514137D01*
X97486130Y-136223252D01*
X97486129Y-136223251D01*
X97352251Y-135900040D01*
X97284000Y-135556921D01*
X97284000Y-135207079D01*
X97352251Y-134863960D01*
X97486129Y-134540749D01*
X97680491Y-134249866D01*
X97680493Y-134249863D01*
X97927863Y-134002493D01*
X98218748Y-133808130D01*
X98218749Y-133808129D01*
X98541960Y-133674251D01*
X98541961Y-133674251D01*
X98541963Y-133674250D01*
X98885078Y-133606000D01*
X99234922Y-133606000D01*
X99578037Y-133674250D01*
X99578037Y-133674250D01*
G37*
G36*
X89418037Y-133674250D02*
X89418039Y-133674251D01*
X89418040Y-133674251D01*
X89741251Y-133808129D01*
X89741252Y-133808130D01*
X90032137Y-134002493D01*
X90279507Y-134249863D01*
X90279509Y-134249866D01*
X90473871Y-134540749D01*
X90607749Y-134863960D01*
X90676000Y-135207079D01*
X90676000Y-135556921D01*
X90607749Y-135900040D01*
X90473871Y-136223251D01*
X90473870Y-136223252D01*
X90279507Y-136514137D01*
X90032137Y-136761507D01*
X90032134Y-136761509D01*
X89741251Y-136955871D01*
X89418040Y-137089749D01*
X89418039Y-137089749D01*
X89418037Y-137089750D01*
X89074922Y-137158000D01*
X88725078Y-137158000D01*
X88381963Y-137089750D01*
X88381961Y-137089749D01*
X88381960Y-137089749D01*
X88058749Y-136955871D01*
X87767866Y-136761509D01*
X87767863Y-136761507D01*
X87520493Y-136514137D01*
X87326130Y-136223252D01*
X87326129Y-136223251D01*
X87192251Y-135900040D01*
X87124000Y-135556921D01*
X87124000Y-135207079D01*
X87192251Y-134863960D01*
X87326129Y-134540749D01*
X87520491Y-134249866D01*
X87520493Y-134249863D01*
X87767863Y-134002493D01*
X88058748Y-133808130D01*
X88058749Y-133808129D01*
X88381960Y-133674251D01*
X88381961Y-133674251D01*
X88381963Y-133674250D01*
X88725078Y-133606000D01*
X89074922Y-133606000D01*
X89418037Y-133674250D01*
X89418037Y-133674250D01*
G37*
G36*
X98027142Y-125964242D02*
X98175102Y-126025530D01*
X98308258Y-126114502D01*
X98421498Y-126227742D01*
X98510470Y-126360898D01*
X98571758Y-126508858D01*
X98603000Y-126665925D01*
X98603000Y-126826075D01*
X98571758Y-126983142D01*
X98510470Y-127131102D01*
X98421498Y-127264258D01*
X98308258Y-127377498D01*
X98175102Y-127466470D01*
X98027142Y-127527758D01*
X97870075Y-127559000D01*
X97709925Y-127559000D01*
X97552858Y-127527758D01*
X97404898Y-127466470D01*
X97271742Y-127377498D01*
X97158502Y-127264258D01*
X97069530Y-127131102D01*
X97008242Y-126983142D01*
X96977000Y-126826075D01*
X96977000Y-126665925D01*
X97008242Y-126508858D01*
X97069530Y-126360898D01*
X97158502Y-126227742D01*
X97271742Y-126114502D01*
X97404898Y-126025530D01*
X97552858Y-125964242D01*
X97709925Y-125933000D01*
X97870075Y-125933000D01*
X98027142Y-125964242D01*
X98027142Y-125964242D01*
G37*
G36*
X90407142Y-125964242D02*
X90555102Y-126025530D01*
X90688258Y-126114502D01*
X90801498Y-126227742D01*
X90890470Y-126360898D01*
X90951758Y-126508858D01*
X90983000Y-126665925D01*
X90983000Y-126826075D01*
X90951758Y-126983142D01*
X90890470Y-127131102D01*
X90801498Y-127264258D01*
X90688258Y-127377498D01*
X90555102Y-127466470D01*
X90407142Y-127527758D01*
X90250075Y-127559000D01*
X90089925Y-127559000D01*
X89932858Y-127527758D01*
X89784898Y-127466470D01*
X89651742Y-127377498D01*
X89538502Y-127264258D01*
X89449530Y-127131102D01*
X89388242Y-126983142D01*
X89357000Y-126826075D01*
X89357000Y-126665925D01*
X89388242Y-126508858D01*
X89449530Y-126360898D01*
X89538502Y-126227742D01*
X89651742Y-126114502D01*
X89784898Y-126025530D01*
X89932858Y-125964242D01*
X90089925Y-125933000D01*
X90250075Y-125933000D01*
X90407142Y-125964242D01*
X90407142Y-125964242D01*
G37*
G36*
X95487142Y-125964242D02*
X95635102Y-126025530D01*
X95768258Y-126114502D01*
X95881498Y-126227742D01*
X95970470Y-126360898D01*
X96031758Y-126508858D01*
X96063000Y-126665925D01*
X96063000Y-126826075D01*
X96031758Y-126983142D01*
X95970470Y-127131102D01*
X95881498Y-127264258D01*
X95768258Y-127377498D01*
X95635102Y-127466470D01*
X95487142Y-127527758D01*
X95330075Y-127559000D01*
X95169925Y-127559000D01*
X95012858Y-127527758D01*
X94864898Y-127466470D01*
X94731742Y-127377498D01*
X94618502Y-127264258D01*
X94529530Y-127131102D01*
X94468242Y-126983142D01*
X94437000Y-126826075D01*
X94437000Y-126665925D01*
X94468242Y-126508858D01*
X94529530Y-126360898D01*
X94618502Y-126227742D01*
X94731742Y-126114502D01*
X94864898Y-126025530D01*
X95012858Y-125964242D01*
X95169925Y-125933000D01*
X95330075Y-125933000D01*
X95487142Y-125964242D01*
X95487142Y-125964242D01*
G37*
G36*
X92947142Y-125964242D02*
X93095102Y-126025530D01*
X93228258Y-126114502D01*
X93341498Y-126227742D01*
X93430470Y-126360898D01*
X93491758Y-126508858D01*
X93523000Y-126665925D01*
X93523000Y-126826075D01*
X93491758Y-126983142D01*
X93430470Y-127131102D01*
X93341498Y-127264258D01*
X93228258Y-127377498D01*
X93095102Y-127466470D01*
X92947142Y-127527758D01*
X92790075Y-127559000D01*
X92629925Y-127559000D01*
X92472858Y-127527758D01*
X92324898Y-127466470D01*
X92191742Y-127377498D01*
X92078502Y-127264258D01*
X91989530Y-127131102D01*
X91928242Y-126983142D01*
X91897000Y-126826075D01*
X91897000Y-126665925D01*
X91928242Y-126508858D01*
X91989530Y-126360898D01*
X92078502Y-126227742D01*
X92191742Y-126114502D01*
X92324898Y-126025530D01*
X92472858Y-125964242D01*
X92629925Y-125933000D01*
X92790075Y-125933000D01*
X92947142Y-125964242D01*
X92947142Y-125964242D01*
G37*
G36*
X101766821Y-110921313D02*
X101766824Y-110921314D01*
X101766825Y-110921314D01*
X101927239Y-110969975D01*
X101927241Y-110969976D01*
X101927244Y-110969977D01*
X102075078Y-111048995D01*
X102204659Y-111155341D01*
X102311005Y-111284922D01*
X102390023Y-111432756D01*
X102438687Y-111593179D01*
X102455117Y-111760000D01*
X102438687Y-111926821D01*
X102390023Y-112087244D01*
X102311005Y-112235078D01*
X102204659Y-112364659D01*
X102075078Y-112471005D01*
X101927244Y-112550023D01*
X101927241Y-112550024D01*
X101927239Y-112550025D01*
X101766825Y-112598686D01*
X101766824Y-112598686D01*
X101766821Y-112598687D01*
X101641804Y-112611000D01*
X101558196Y-112611000D01*
X101433179Y-112598687D01*
X101433176Y-112598686D01*
X101433175Y-112598686D01*
X101272761Y-112550025D01*
X101272759Y-112550024D01*
X101272756Y-112550023D01*
X101124922Y-112471005D01*
X100995341Y-112364659D01*
X100888995Y-112235078D01*
X100809977Y-112087244D01*
X100761313Y-111926821D01*
X100744883Y-111760000D01*
X100761313Y-111593179D01*
X100809977Y-111432756D01*
X100888995Y-111284922D01*
X100995341Y-111155341D01*
X101124922Y-111048995D01*
X101272756Y-110969977D01*
X101272759Y-110969976D01*
X101272761Y-110969975D01*
X101433175Y-110921314D01*
X101433176Y-110921314D01*
X101433179Y-110921313D01*
X101558196Y-110909000D01*
X101641804Y-110909000D01*
X101766821Y-110921313D01*
X101766821Y-110921313D01*
G37*
G36*
X86526821Y-110921313D02*
X86526824Y-110921314D01*
X86526825Y-110921314D01*
X86687239Y-110969975D01*
X86687241Y-110969976D01*
X86687244Y-110969977D01*
X86835078Y-111048995D01*
X86964659Y-111155341D01*
X87071005Y-111284922D01*
X87150023Y-111432756D01*
X87198687Y-111593179D01*
X87215117Y-111760000D01*
X87198687Y-111926821D01*
X87150023Y-112087244D01*
X87071005Y-112235078D01*
X86964659Y-112364659D01*
X86835078Y-112471005D01*
X86687244Y-112550023D01*
X86687241Y-112550024D01*
X86687239Y-112550025D01*
X86526825Y-112598686D01*
X86526824Y-112598686D01*
X86526821Y-112598687D01*
X86401804Y-112611000D01*
X86318196Y-112611000D01*
X86193179Y-112598687D01*
X86193176Y-112598686D01*
X86193175Y-112598686D01*
X86032761Y-112550025D01*
X86032759Y-112550024D01*
X86032756Y-112550023D01*
X85884922Y-112471005D01*
X85755341Y-112364659D01*
X85648995Y-112235078D01*
X85569977Y-112087244D01*
X85521313Y-111926821D01*
X85504883Y-111760000D01*
X85521313Y-111593179D01*
X85569977Y-111432756D01*
X85648995Y-111284922D01*
X85755341Y-111155341D01*
X85884922Y-111048995D01*
X86032756Y-110969977D01*
X86032759Y-110969976D01*
X86032761Y-110969975D01*
X86193175Y-110921314D01*
X86193176Y-110921314D01*
X86193179Y-110921313D01*
X86318196Y-110909000D01*
X86401804Y-110909000D01*
X86526821Y-110921313D01*
X86526821Y-110921313D01*
G37*
G36*
X101766821Y-108381313D02*
X101766824Y-108381314D01*
X101766825Y-108381314D01*
X101927239Y-108429975D01*
X101927241Y-108429976D01*
X101927244Y-108429977D01*
X102075078Y-108508995D01*
X102204659Y-108615341D01*
X102311005Y-108744922D01*
X102390023Y-108892756D01*
X102438687Y-109053179D01*
X102455117Y-109220000D01*
X102438687Y-109386821D01*
X102390023Y-109547244D01*
X102311005Y-109695078D01*
X102204659Y-109824659D01*
X102075078Y-109931005D01*
X101927244Y-110010023D01*
X101927241Y-110010024D01*
X101927239Y-110010025D01*
X101766825Y-110058686D01*
X101766824Y-110058686D01*
X101766821Y-110058687D01*
X101641804Y-110071000D01*
X101558196Y-110071000D01*
X101433179Y-110058687D01*
X101433176Y-110058686D01*
X101433175Y-110058686D01*
X101272761Y-110010025D01*
X101272759Y-110010024D01*
X101272756Y-110010023D01*
X101124922Y-109931005D01*
X100995341Y-109824659D01*
X100888995Y-109695078D01*
X100809977Y-109547244D01*
X100761313Y-109386821D01*
X100744883Y-109220000D01*
X100761313Y-109053179D01*
X100809977Y-108892756D01*
X100888995Y-108744922D01*
X100995341Y-108615341D01*
X101124922Y-108508995D01*
X101272756Y-108429977D01*
X101272759Y-108429976D01*
X101272761Y-108429975D01*
X101433175Y-108381314D01*
X101433176Y-108381314D01*
X101433179Y-108381313D01*
X101558196Y-108369000D01*
X101641804Y-108369000D01*
X101766821Y-108381313D01*
X101766821Y-108381313D01*
G37*
G36*
X86526821Y-108381313D02*
X86526824Y-108381314D01*
X86526825Y-108381314D01*
X86687239Y-108429975D01*
X86687241Y-108429976D01*
X86687244Y-108429977D01*
X86835078Y-108508995D01*
X86964659Y-108615341D01*
X87071005Y-108744922D01*
X87150023Y-108892756D01*
X87198687Y-109053179D01*
X87215117Y-109220000D01*
X87198687Y-109386821D01*
X87150023Y-109547244D01*
X87071005Y-109695078D01*
X86964659Y-109824659D01*
X86835078Y-109931005D01*
X86687244Y-110010023D01*
X86687241Y-110010024D01*
X86687239Y-110010025D01*
X86526825Y-110058686D01*
X86526824Y-110058686D01*
X86526821Y-110058687D01*
X86401804Y-110071000D01*
X86318196Y-110071000D01*
X86193179Y-110058687D01*
X86193176Y-110058686D01*
X86193175Y-110058686D01*
X86032761Y-110010025D01*
X86032759Y-110010024D01*
X86032756Y-110010023D01*
X85884922Y-109931005D01*
X85755341Y-109824659D01*
X85648995Y-109695078D01*
X85569977Y-109547244D01*
X85521313Y-109386821D01*
X85504883Y-109220000D01*
X85521313Y-109053179D01*
X85569977Y-108892756D01*
X85648995Y-108744922D01*
X85755341Y-108615341D01*
X85884922Y-108508995D01*
X86032756Y-108429977D01*
X86032759Y-108429976D01*
X86032761Y-108429975D01*
X86193175Y-108381314D01*
X86193176Y-108381314D01*
X86193179Y-108381313D01*
X86318196Y-108369000D01*
X86401804Y-108369000D01*
X86526821Y-108381313D01*
X86526821Y-108381313D01*
G37*
G36*
X86526821Y-105841313D02*
X86526824Y-105841314D01*
X86526825Y-105841314D01*
X86687239Y-105889975D01*
X86687241Y-105889976D01*
X86687244Y-105889977D01*
X86835078Y-105968995D01*
X86964659Y-106075341D01*
X87071005Y-106204922D01*
X87150023Y-106352756D01*
X87198687Y-106513179D01*
X87215117Y-106680000D01*
X87198687Y-106846821D01*
X87150023Y-107007244D01*
X87071005Y-107155078D01*
X86964659Y-107284659D01*
X86835078Y-107391005D01*
X86687244Y-107470023D01*
X86687241Y-107470024D01*
X86687239Y-107470025D01*
X86526825Y-107518686D01*
X86526824Y-107518686D01*
X86526821Y-107518687D01*
X86401804Y-107531000D01*
X86318196Y-107531000D01*
X86193179Y-107518687D01*
X86193176Y-107518686D01*
X86193175Y-107518686D01*
X86032761Y-107470025D01*
X86032759Y-107470024D01*
X86032756Y-107470023D01*
X85884922Y-107391005D01*
X85755341Y-107284659D01*
X85648995Y-107155078D01*
X85569977Y-107007244D01*
X85521313Y-106846821D01*
X85504883Y-106680000D01*
X85521313Y-106513179D01*
X85569977Y-106352756D01*
X85648995Y-106204922D01*
X85755341Y-106075341D01*
X85884922Y-105968995D01*
X86032756Y-105889977D01*
X86032759Y-105889976D01*
X86032761Y-105889975D01*
X86193175Y-105841314D01*
X86193176Y-105841314D01*
X86193179Y-105841313D01*
X86318196Y-105829000D01*
X86401804Y-105829000D01*
X86526821Y-105841313D01*
X86526821Y-105841313D01*
G37*
G36*
X101766821Y-105841313D02*
X101766824Y-105841314D01*
X101766825Y-105841314D01*
X101927239Y-105889975D01*
X101927241Y-105889976D01*
X101927244Y-105889977D01*
X102075078Y-105968995D01*
X102204659Y-106075341D01*
X102311005Y-106204922D01*
X102390023Y-106352756D01*
X102438687Y-106513179D01*
X102455117Y-106680000D01*
X102438687Y-106846821D01*
X102390023Y-107007244D01*
X102311005Y-107155078D01*
X102204659Y-107284659D01*
X102075078Y-107391005D01*
X101927244Y-107470023D01*
X101927241Y-107470024D01*
X101927239Y-107470025D01*
X101766825Y-107518686D01*
X101766824Y-107518686D01*
X101766821Y-107518687D01*
X101641804Y-107531000D01*
X101558196Y-107531000D01*
X101433179Y-107518687D01*
X101433176Y-107518686D01*
X101433175Y-107518686D01*
X101272761Y-107470025D01*
X101272759Y-107470024D01*
X101272756Y-107470023D01*
X101124922Y-107391005D01*
X100995341Y-107284659D01*
X100888995Y-107155078D01*
X100809977Y-107007244D01*
X100761313Y-106846821D01*
X100744883Y-106680000D01*
X100761313Y-106513179D01*
X100809977Y-106352756D01*
X100888995Y-106204922D01*
X100995341Y-106075341D01*
X101124922Y-105968995D01*
X101272756Y-105889977D01*
X101272759Y-105889976D01*
X101272761Y-105889975D01*
X101433175Y-105841314D01*
X101433176Y-105841314D01*
X101433179Y-105841313D01*
X101558196Y-105829000D01*
X101641804Y-105829000D01*
X101766821Y-105841313D01*
X101766821Y-105841313D01*
G37*
G36*
X86526821Y-103301313D02*
X86526824Y-103301314D01*
X86526825Y-103301314D01*
X86687239Y-103349975D01*
X86687241Y-103349976D01*
X86687244Y-103349977D01*
X86835078Y-103428995D01*
X86964659Y-103535341D01*
X87071005Y-103664922D01*
X87150023Y-103812756D01*
X87198687Y-103973179D01*
X87215117Y-104140000D01*
X87198687Y-104306821D01*
X87150023Y-104467244D01*
X87071005Y-104615078D01*
X86964659Y-104744659D01*
X86835078Y-104851005D01*
X86687244Y-104930023D01*
X86687241Y-104930024D01*
X86687239Y-104930025D01*
X86526825Y-104978686D01*
X86526824Y-104978686D01*
X86526821Y-104978687D01*
X86401804Y-104991000D01*
X86318196Y-104991000D01*
X86193179Y-104978687D01*
X86193176Y-104978686D01*
X86193175Y-104978686D01*
X86032761Y-104930025D01*
X86032759Y-104930024D01*
X86032756Y-104930023D01*
X85884922Y-104851005D01*
X85755341Y-104744659D01*
X85648995Y-104615078D01*
X85569977Y-104467244D01*
X85521313Y-104306821D01*
X85504883Y-104140000D01*
X85521313Y-103973179D01*
X85569977Y-103812756D01*
X85648995Y-103664922D01*
X85755341Y-103535341D01*
X85884922Y-103428995D01*
X86032756Y-103349977D01*
X86032759Y-103349976D01*
X86032761Y-103349975D01*
X86193175Y-103301314D01*
X86193176Y-103301314D01*
X86193179Y-103301313D01*
X86318196Y-103289000D01*
X86401804Y-103289000D01*
X86526821Y-103301313D01*
X86526821Y-103301313D01*
G37*
G36*
X101766821Y-103301313D02*
X101766824Y-103301314D01*
X101766825Y-103301314D01*
X101927239Y-103349975D01*
X101927241Y-103349976D01*
X101927244Y-103349977D01*
X102075078Y-103428995D01*
X102204659Y-103535341D01*
X102311005Y-103664922D01*
X102390023Y-103812756D01*
X102438687Y-103973179D01*
X102455117Y-104140000D01*
X102438687Y-104306821D01*
X102390023Y-104467244D01*
X102311005Y-104615078D01*
X102204659Y-104744659D01*
X102075078Y-104851005D01*
X101927244Y-104930023D01*
X101927241Y-104930024D01*
X101927239Y-104930025D01*
X101766825Y-104978686D01*
X101766824Y-104978686D01*
X101766821Y-104978687D01*
X101641804Y-104991000D01*
X101558196Y-104991000D01*
X101433179Y-104978687D01*
X101433176Y-104978686D01*
X101433175Y-104978686D01*
X101272761Y-104930025D01*
X101272759Y-104930024D01*
X101272756Y-104930023D01*
X101124922Y-104851005D01*
X100995341Y-104744659D01*
X100888995Y-104615078D01*
X100809977Y-104467244D01*
X100761313Y-104306821D01*
X100744883Y-104140000D01*
X100761313Y-103973179D01*
X100809977Y-103812756D01*
X100888995Y-103664922D01*
X100995341Y-103535341D01*
X101124922Y-103428995D01*
X101272756Y-103349977D01*
X101272759Y-103349976D01*
X101272761Y-103349975D01*
X101433175Y-103301314D01*
X101433176Y-103301314D01*
X101433179Y-103301313D01*
X101558196Y-103289000D01*
X101641804Y-103289000D01*
X101766821Y-103301313D01*
X101766821Y-103301313D01*
G37*
G36*
X101766821Y-100761313D02*
X101766824Y-100761314D01*
X101766825Y-100761314D01*
X101927239Y-100809975D01*
X101927241Y-100809976D01*
X101927244Y-100809977D01*
X102075078Y-100888995D01*
X102204659Y-100995341D01*
X102311005Y-101124922D01*
X102390023Y-101272756D01*
X102438687Y-101433179D01*
X102455117Y-101600000D01*
X102438687Y-101766821D01*
X102390023Y-101927244D01*
X102311005Y-102075078D01*
X102204659Y-102204659D01*
X102075078Y-102311005D01*
X101927244Y-102390023D01*
X101927241Y-102390024D01*
X101927239Y-102390025D01*
X101766825Y-102438686D01*
X101766824Y-102438686D01*
X101766821Y-102438687D01*
X101641804Y-102451000D01*
X101558196Y-102451000D01*
X101433179Y-102438687D01*
X101433176Y-102438686D01*
X101433175Y-102438686D01*
X101272761Y-102390025D01*
X101272759Y-102390024D01*
X101272756Y-102390023D01*
X101124922Y-102311005D01*
X100995341Y-102204659D01*
X100888995Y-102075078D01*
X100809977Y-101927244D01*
X100761313Y-101766821D01*
X100744883Y-101600000D01*
X100761313Y-101433179D01*
X100809977Y-101272756D01*
X100888995Y-101124922D01*
X100995341Y-100995341D01*
X101124922Y-100888995D01*
X101272756Y-100809977D01*
X101272759Y-100809976D01*
X101272761Y-100809975D01*
X101433175Y-100761314D01*
X101433176Y-100761314D01*
X101433179Y-100761313D01*
X101558196Y-100749000D01*
X101641804Y-100749000D01*
X101766821Y-100761313D01*
X101766821Y-100761313D01*
G37*
G36*
X86526821Y-100761313D02*
X86526824Y-100761314D01*
X86526825Y-100761314D01*
X86687239Y-100809975D01*
X86687241Y-100809976D01*
X86687244Y-100809977D01*
X86835078Y-100888995D01*
X86964659Y-100995341D01*
X87071005Y-101124922D01*
X87150023Y-101272756D01*
X87198687Y-101433179D01*
X87215117Y-101600000D01*
X87198687Y-101766821D01*
X87150023Y-101927244D01*
X87071005Y-102075078D01*
X86964659Y-102204659D01*
X86835078Y-102311005D01*
X86687244Y-102390023D01*
X86687241Y-102390024D01*
X86687239Y-102390025D01*
X86526825Y-102438686D01*
X86526824Y-102438686D01*
X86526821Y-102438687D01*
X86401804Y-102451000D01*
X86318196Y-102451000D01*
X86193179Y-102438687D01*
X86193176Y-102438686D01*
X86193175Y-102438686D01*
X86032761Y-102390025D01*
X86032759Y-102390024D01*
X86032756Y-102390023D01*
X85884922Y-102311005D01*
X85755341Y-102204659D01*
X85648995Y-102075078D01*
X85569977Y-101927244D01*
X85521313Y-101766821D01*
X85504883Y-101600000D01*
X85521313Y-101433179D01*
X85569977Y-101272756D01*
X85648995Y-101124922D01*
X85755341Y-100995341D01*
X85884922Y-100888995D01*
X86032756Y-100809977D01*
X86032759Y-100809976D01*
X86032761Y-100809975D01*
X86193175Y-100761314D01*
X86193176Y-100761314D01*
X86193179Y-100761313D01*
X86318196Y-100749000D01*
X86401804Y-100749000D01*
X86526821Y-100761313D01*
X86526821Y-100761313D01*
G37*
G36*
X101766821Y-98221313D02*
X101766824Y-98221314D01*
X101766825Y-98221314D01*
X101927239Y-98269975D01*
X101927241Y-98269976D01*
X101927244Y-98269977D01*
X102075078Y-98348995D01*
X102204659Y-98455341D01*
X102311005Y-98584922D01*
X102390023Y-98732756D01*
X102438687Y-98893179D01*
X102455117Y-99060000D01*
X102438687Y-99226821D01*
X102390023Y-99387244D01*
X102311005Y-99535078D01*
X102204659Y-99664659D01*
X102075078Y-99771005D01*
X101927244Y-99850023D01*
X101927241Y-99850024D01*
X101927239Y-99850025D01*
X101766825Y-99898686D01*
X101766824Y-99898686D01*
X101766821Y-99898687D01*
X101641804Y-99911000D01*
X101558196Y-99911000D01*
X101433179Y-99898687D01*
X101433176Y-99898686D01*
X101433175Y-99898686D01*
X101272761Y-99850025D01*
X101272759Y-99850024D01*
X101272756Y-99850023D01*
X101124922Y-99771005D01*
X100995341Y-99664659D01*
X100888995Y-99535078D01*
X100809977Y-99387244D01*
X100761313Y-99226821D01*
X100744883Y-99060000D01*
X100761313Y-98893179D01*
X100809977Y-98732756D01*
X100888995Y-98584922D01*
X100995341Y-98455341D01*
X101124922Y-98348995D01*
X101272756Y-98269977D01*
X101272759Y-98269976D01*
X101272761Y-98269975D01*
X101433175Y-98221314D01*
X101433176Y-98221314D01*
X101433179Y-98221313D01*
X101558196Y-98209000D01*
X101641804Y-98209000D01*
X101766821Y-98221313D01*
X101766821Y-98221313D01*
G37*
G36*
X86526821Y-98221313D02*
X86526824Y-98221314D01*
X86526825Y-98221314D01*
X86687239Y-98269975D01*
X86687241Y-98269976D01*
X86687244Y-98269977D01*
X86835078Y-98348995D01*
X86964659Y-98455341D01*
X87071005Y-98584922D01*
X87150023Y-98732756D01*
X87198687Y-98893179D01*
X87215117Y-99060000D01*
X87198687Y-99226821D01*
X87150023Y-99387244D01*
X87071005Y-99535078D01*
X86964659Y-99664659D01*
X86835078Y-99771005D01*
X86687244Y-99850023D01*
X86687241Y-99850024D01*
X86687239Y-99850025D01*
X86526825Y-99898686D01*
X86526824Y-99898686D01*
X86526821Y-99898687D01*
X86401804Y-99911000D01*
X86318196Y-99911000D01*
X86193179Y-99898687D01*
X86193176Y-99898686D01*
X86193175Y-99898686D01*
X86032761Y-99850025D01*
X86032759Y-99850024D01*
X86032756Y-99850023D01*
X85884922Y-99771005D01*
X85755341Y-99664659D01*
X85648995Y-99535078D01*
X85569977Y-99387244D01*
X85521313Y-99226821D01*
X85504883Y-99060000D01*
X85521313Y-98893179D01*
X85569977Y-98732756D01*
X85648995Y-98584922D01*
X85755341Y-98455341D01*
X85884922Y-98348995D01*
X86032756Y-98269977D01*
X86032759Y-98269976D01*
X86032761Y-98269975D01*
X86193175Y-98221314D01*
X86193176Y-98221314D01*
X86193179Y-98221313D01*
X86318196Y-98209000D01*
X86401804Y-98209000D01*
X86526821Y-98221313D01*
X86526821Y-98221313D01*
G37*
G36*
X91550442Y-96895518D02*
X91616627Y-96902037D01*
X91729853Y-96936384D01*
X91786467Y-96953557D01*
X91864146Y-96995078D01*
X91942991Y-97037222D01*
X91978729Y-97066552D01*
X92080186Y-97149814D01*
X92163448Y-97251271D01*
X92192778Y-97287009D01*
X92192779Y-97287011D01*
X92276443Y-97443533D01*
X92276443Y-97443534D01*
X92327963Y-97613373D01*
X92345359Y-97790000D01*
X92327963Y-97966627D01*
X92293616Y-98079853D01*
X92276443Y-98136467D01*
X92205080Y-98269975D01*
X92192778Y-98292991D01*
X92163448Y-98328729D01*
X92080186Y-98430186D01*
X91978729Y-98513448D01*
X91942991Y-98542778D01*
X91942989Y-98542779D01*
X91786467Y-98626443D01*
X91729853Y-98643616D01*
X91616627Y-98677963D01*
X91550442Y-98684482D01*
X91484260Y-98691000D01*
X91395740Y-98691000D01*
X91329558Y-98684482D01*
X91263373Y-98677963D01*
X91150147Y-98643616D01*
X91093533Y-98626443D01*
X90937011Y-98542779D01*
X90937009Y-98542778D01*
X90901271Y-98513448D01*
X90799814Y-98430186D01*
X90716552Y-98328729D01*
X90687222Y-98292991D01*
X90674920Y-98269975D01*
X90603557Y-98136467D01*
X90586384Y-98079853D01*
X90552037Y-97966627D01*
X90534641Y-97790000D01*
X90552037Y-97613373D01*
X90603557Y-97443534D01*
X90603557Y-97443533D01*
X90687221Y-97287011D01*
X90687222Y-97287009D01*
X90716552Y-97251271D01*
X90799814Y-97149814D01*
X90901271Y-97066552D01*
X90937009Y-97037222D01*
X91015854Y-96995078D01*
X91093533Y-96953557D01*
X91150147Y-96936384D01*
X91263373Y-96902037D01*
X91329558Y-96895518D01*
X91395740Y-96889000D01*
X91484260Y-96889000D01*
X91550442Y-96895518D01*
X91550442Y-96895518D01*
G37*
G36*
X94090442Y-96895518D02*
X94156627Y-96902037D01*
X94269853Y-96936384D01*
X94326467Y-96953557D01*
X94404146Y-96995078D01*
X94482991Y-97037222D01*
X94518729Y-97066552D01*
X94620186Y-97149814D01*
X94703448Y-97251271D01*
X94732778Y-97287009D01*
X94732779Y-97287011D01*
X94816443Y-97443533D01*
X94816443Y-97443534D01*
X94867963Y-97613373D01*
X94885359Y-97790000D01*
X94867963Y-97966627D01*
X94833616Y-98079853D01*
X94816443Y-98136467D01*
X94745080Y-98269975D01*
X94732778Y-98292991D01*
X94703448Y-98328729D01*
X94620186Y-98430186D01*
X94518729Y-98513448D01*
X94482991Y-98542778D01*
X94482989Y-98542779D01*
X94326467Y-98626443D01*
X94269853Y-98643616D01*
X94156627Y-98677963D01*
X94090442Y-98684482D01*
X94024260Y-98691000D01*
X93935740Y-98691000D01*
X93869558Y-98684482D01*
X93803373Y-98677963D01*
X93690147Y-98643616D01*
X93633533Y-98626443D01*
X93477011Y-98542779D01*
X93477009Y-98542778D01*
X93441271Y-98513448D01*
X93339814Y-98430186D01*
X93256552Y-98328729D01*
X93227222Y-98292991D01*
X93214920Y-98269975D01*
X93143557Y-98136467D01*
X93126384Y-98079853D01*
X93092037Y-97966627D01*
X93074641Y-97790000D01*
X93092037Y-97613373D01*
X93143557Y-97443534D01*
X93143557Y-97443533D01*
X93227221Y-97287011D01*
X93227222Y-97287009D01*
X93256552Y-97251271D01*
X93339814Y-97149814D01*
X93441271Y-97066552D01*
X93477009Y-97037222D01*
X93555854Y-96995078D01*
X93633533Y-96953557D01*
X93690147Y-96936384D01*
X93803373Y-96902037D01*
X93869558Y-96895518D01*
X93935740Y-96889000D01*
X94024260Y-96889000D01*
X94090442Y-96895518D01*
X94090442Y-96895518D01*
G37*
G36*
X97421000Y-98691000D02*
X95619000Y-98691000D01*
X95619000Y-96889000D01*
X97421000Y-96889000D01*
X97421000Y-98691000D01*
X97421000Y-98691000D01*
G37*
G36*
X101766821Y-95681313D02*
X101766824Y-95681314D01*
X101766825Y-95681314D01*
X101927239Y-95729975D01*
X101927241Y-95729976D01*
X101927244Y-95729977D01*
X102075078Y-95808995D01*
X102204659Y-95915341D01*
X102311005Y-96044922D01*
X102390023Y-96192756D01*
X102438687Y-96353179D01*
X102455117Y-96520000D01*
X102438687Y-96686821D01*
X102390023Y-96847244D01*
X102311005Y-96995078D01*
X102204659Y-97124659D01*
X102075078Y-97231005D01*
X101927244Y-97310023D01*
X101927241Y-97310024D01*
X101927239Y-97310025D01*
X101766825Y-97358686D01*
X101766824Y-97358686D01*
X101766821Y-97358687D01*
X101641804Y-97371000D01*
X101558196Y-97371000D01*
X101433179Y-97358687D01*
X101433176Y-97358686D01*
X101433175Y-97358686D01*
X101272761Y-97310025D01*
X101272759Y-97310024D01*
X101272756Y-97310023D01*
X101124922Y-97231005D01*
X100995341Y-97124659D01*
X100888995Y-96995078D01*
X100809977Y-96847244D01*
X100761313Y-96686821D01*
X100744883Y-96520000D01*
X100761313Y-96353179D01*
X100809977Y-96192756D01*
X100888995Y-96044922D01*
X100995341Y-95915341D01*
X101124922Y-95808995D01*
X101272756Y-95729977D01*
X101272759Y-95729976D01*
X101272761Y-95729975D01*
X101433175Y-95681314D01*
X101433176Y-95681314D01*
X101433179Y-95681313D01*
X101558196Y-95669000D01*
X101641804Y-95669000D01*
X101766821Y-95681313D01*
X101766821Y-95681313D01*
G37*
G36*
X86526821Y-95681313D02*
X86526824Y-95681314D01*
X86526825Y-95681314D01*
X86687239Y-95729975D01*
X86687241Y-95729976D01*
X86687244Y-95729977D01*
X86835078Y-95808995D01*
X86964659Y-95915341D01*
X87071005Y-96044922D01*
X87150023Y-96192756D01*
X87198687Y-96353179D01*
X87215117Y-96520000D01*
X87198687Y-96686821D01*
X87150023Y-96847244D01*
X87071005Y-96995078D01*
X86964659Y-97124659D01*
X86835078Y-97231005D01*
X86687244Y-97310023D01*
X86687241Y-97310024D01*
X86687239Y-97310025D01*
X86526825Y-97358686D01*
X86526824Y-97358686D01*
X86526821Y-97358687D01*
X86401804Y-97371000D01*
X86318196Y-97371000D01*
X86193179Y-97358687D01*
X86193176Y-97358686D01*
X86193175Y-97358686D01*
X86032761Y-97310025D01*
X86032759Y-97310024D01*
X86032756Y-97310023D01*
X85884922Y-97231005D01*
X85755341Y-97124659D01*
X85648995Y-96995078D01*
X85569977Y-96847244D01*
X85521313Y-96686821D01*
X85504883Y-96520000D01*
X85521313Y-96353179D01*
X85569977Y-96192756D01*
X85648995Y-96044922D01*
X85755341Y-95915341D01*
X85884922Y-95808995D01*
X86032756Y-95729977D01*
X86032759Y-95729976D01*
X86032761Y-95729975D01*
X86193175Y-95681314D01*
X86193176Y-95681314D01*
X86193179Y-95681313D01*
X86318196Y-95669000D01*
X86401804Y-95669000D01*
X86526821Y-95681313D01*
X86526821Y-95681313D01*
G37*
G36*
X91550443Y-93085519D02*
X91616627Y-93092037D01*
X91729853Y-93126384D01*
X91786467Y-93143557D01*
X91873311Y-93189977D01*
X91942991Y-93227222D01*
X91978729Y-93256552D01*
X92080186Y-93339814D01*
X92163448Y-93441271D01*
X92192778Y-93477009D01*
X92192779Y-93477011D01*
X92276443Y-93633533D01*
X92293616Y-93690147D01*
X92327963Y-93803373D01*
X92345359Y-93980000D01*
X92327963Y-94156627D01*
X92293616Y-94269853D01*
X92276443Y-94326467D01*
X92207698Y-94455078D01*
X92192778Y-94482991D01*
X92163448Y-94518729D01*
X92080186Y-94620186D01*
X91978729Y-94703448D01*
X91942991Y-94732778D01*
X91942989Y-94732779D01*
X91786467Y-94816443D01*
X91779069Y-94818687D01*
X91616627Y-94867963D01*
X91550443Y-94874481D01*
X91484260Y-94881000D01*
X91395740Y-94881000D01*
X91329557Y-94874481D01*
X91263373Y-94867963D01*
X91100931Y-94818687D01*
X91093533Y-94816443D01*
X90937011Y-94732779D01*
X90937009Y-94732778D01*
X90901271Y-94703448D01*
X90799814Y-94620186D01*
X90716552Y-94518729D01*
X90687222Y-94482991D01*
X90672302Y-94455078D01*
X90603557Y-94326467D01*
X90586384Y-94269853D01*
X90552037Y-94156627D01*
X90534641Y-93980000D01*
X90552037Y-93803373D01*
X90586384Y-93690147D01*
X90603557Y-93633533D01*
X90687221Y-93477011D01*
X90687222Y-93477009D01*
X90716552Y-93441271D01*
X90799814Y-93339814D01*
X90901271Y-93256552D01*
X90937009Y-93227222D01*
X91006689Y-93189977D01*
X91093533Y-93143557D01*
X91150147Y-93126384D01*
X91263373Y-93092037D01*
X91329557Y-93085519D01*
X91395740Y-93079000D01*
X91484260Y-93079000D01*
X91550443Y-93085519D01*
X91550443Y-93085519D01*
G37*
G36*
X97421000Y-94881000D02*
X95619000Y-94881000D01*
X95619000Y-93079000D01*
X97421000Y-93079000D01*
X97421000Y-94881000D01*
X97421000Y-94881000D01*
G37*
G36*
X94090443Y-93085519D02*
X94156627Y-93092037D01*
X94269853Y-93126384D01*
X94326467Y-93143557D01*
X94413311Y-93189977D01*
X94482991Y-93227222D01*
X94518729Y-93256552D01*
X94620186Y-93339814D01*
X94703448Y-93441271D01*
X94732778Y-93477009D01*
X94732779Y-93477011D01*
X94816443Y-93633533D01*
X94833616Y-93690147D01*
X94867963Y-93803373D01*
X94885359Y-93980000D01*
X94867963Y-94156627D01*
X94833616Y-94269853D01*
X94816443Y-94326467D01*
X94747698Y-94455078D01*
X94732778Y-94482991D01*
X94703448Y-94518729D01*
X94620186Y-94620186D01*
X94518729Y-94703448D01*
X94482991Y-94732778D01*
X94482989Y-94732779D01*
X94326467Y-94816443D01*
X94319069Y-94818687D01*
X94156627Y-94867963D01*
X94090443Y-94874481D01*
X94024260Y-94881000D01*
X93935740Y-94881000D01*
X93869557Y-94874481D01*
X93803373Y-94867963D01*
X93640931Y-94818687D01*
X93633533Y-94816443D01*
X93477011Y-94732779D01*
X93477009Y-94732778D01*
X93441271Y-94703448D01*
X93339814Y-94620186D01*
X93256552Y-94518729D01*
X93227222Y-94482991D01*
X93212302Y-94455078D01*
X93143557Y-94326467D01*
X93126384Y-94269853D01*
X93092037Y-94156627D01*
X93074641Y-93980000D01*
X93092037Y-93803373D01*
X93126384Y-93690147D01*
X93143557Y-93633533D01*
X93227221Y-93477011D01*
X93227222Y-93477009D01*
X93256552Y-93441271D01*
X93339814Y-93339814D01*
X93441271Y-93256552D01*
X93477009Y-93227222D01*
X93546689Y-93189977D01*
X93633533Y-93143557D01*
X93690147Y-93126384D01*
X93803373Y-93092037D01*
X93869557Y-93085519D01*
X93935740Y-93079000D01*
X94024260Y-93079000D01*
X94090443Y-93085519D01*
X94090443Y-93085519D01*
G37*
G36*
X101766821Y-93141313D02*
X101766824Y-93141314D01*
X101766825Y-93141314D01*
X101927239Y-93189975D01*
X101927241Y-93189976D01*
X101927244Y-93189977D01*
X102075078Y-93268995D01*
X102204659Y-93375341D01*
X102311005Y-93504922D01*
X102390023Y-93652756D01*
X102390024Y-93652759D01*
X102390025Y-93652761D01*
X102435713Y-93803375D01*
X102438687Y-93813179D01*
X102455117Y-93980000D01*
X102438687Y-94146821D01*
X102438686Y-94146824D01*
X102438686Y-94146825D01*
X102435713Y-94156627D01*
X102390023Y-94307244D01*
X102311005Y-94455078D01*
X102204659Y-94584659D01*
X102075078Y-94691005D01*
X101927244Y-94770023D01*
X101927241Y-94770024D01*
X101927239Y-94770025D01*
X101766825Y-94818686D01*
X101766824Y-94818686D01*
X101766821Y-94818687D01*
X101641804Y-94831000D01*
X101558196Y-94831000D01*
X101433179Y-94818687D01*
X101433176Y-94818686D01*
X101433175Y-94818686D01*
X101272761Y-94770025D01*
X101272759Y-94770024D01*
X101272756Y-94770023D01*
X101124922Y-94691005D01*
X100995341Y-94584659D01*
X100888995Y-94455078D01*
X100809977Y-94307244D01*
X100764288Y-94156627D01*
X100761314Y-94146825D01*
X100761314Y-94146824D01*
X100761313Y-94146821D01*
X100744883Y-93980000D01*
X100761313Y-93813179D01*
X100764287Y-93803375D01*
X100809975Y-93652761D01*
X100809976Y-93652759D01*
X100809977Y-93652756D01*
X100888995Y-93504922D01*
X100995341Y-93375341D01*
X101124922Y-93268995D01*
X101272756Y-93189977D01*
X101272759Y-93189976D01*
X101272761Y-93189975D01*
X101433175Y-93141314D01*
X101433176Y-93141314D01*
X101433179Y-93141313D01*
X101558196Y-93129000D01*
X101641804Y-93129000D01*
X101766821Y-93141313D01*
X101766821Y-93141313D01*
G37*
G36*
X86526821Y-93141313D02*
X86526824Y-93141314D01*
X86526825Y-93141314D01*
X86687239Y-93189975D01*
X86687241Y-93189976D01*
X86687244Y-93189977D01*
X86835078Y-93268995D01*
X86964659Y-93375341D01*
X87071005Y-93504922D01*
X87150023Y-93652756D01*
X87150024Y-93652759D01*
X87150025Y-93652761D01*
X87195713Y-93803375D01*
X87198687Y-93813179D01*
X87215117Y-93980000D01*
X87198687Y-94146821D01*
X87198686Y-94146824D01*
X87198686Y-94146825D01*
X87195713Y-94156627D01*
X87150023Y-94307244D01*
X87071005Y-94455078D01*
X86964659Y-94584659D01*
X86835078Y-94691005D01*
X86687244Y-94770023D01*
X86687241Y-94770024D01*
X86687239Y-94770025D01*
X86526825Y-94818686D01*
X86526824Y-94818686D01*
X86526821Y-94818687D01*
X86401804Y-94831000D01*
X86318196Y-94831000D01*
X86193179Y-94818687D01*
X86193176Y-94818686D01*
X86193175Y-94818686D01*
X86032761Y-94770025D01*
X86032759Y-94770024D01*
X86032756Y-94770023D01*
X85884922Y-94691005D01*
X85755341Y-94584659D01*
X85648995Y-94455078D01*
X85569977Y-94307244D01*
X85524288Y-94156627D01*
X85521314Y-94146825D01*
X85521314Y-94146824D01*
X85521313Y-94146821D01*
X85504883Y-93980000D01*
X85521313Y-93813179D01*
X85524287Y-93803375D01*
X85569975Y-93652761D01*
X85569976Y-93652759D01*
X85569977Y-93652756D01*
X85648995Y-93504922D01*
X85755341Y-93375341D01*
X85884922Y-93268995D01*
X86032756Y-93189977D01*
X86032759Y-93189976D01*
X86032761Y-93189975D01*
X86193175Y-93141314D01*
X86193176Y-93141314D01*
X86193179Y-93141313D01*
X86318196Y-93129000D01*
X86401804Y-93129000D01*
X86526821Y-93141313D01*
X86526821Y-93141313D01*
G37*
G36*
X86526821Y-90601313D02*
X86526824Y-90601314D01*
X86526825Y-90601314D01*
X86687239Y-90649975D01*
X86687241Y-90649976D01*
X86687244Y-90649977D01*
X86835078Y-90728995D01*
X86964659Y-90835341D01*
X87071005Y-90964922D01*
X87150023Y-91112756D01*
X87198687Y-91273179D01*
X87215117Y-91440000D01*
X87198687Y-91606821D01*
X87150023Y-91767244D01*
X87071005Y-91915078D01*
X86964659Y-92044659D01*
X86835078Y-92151005D01*
X86687244Y-92230023D01*
X86687241Y-92230024D01*
X86687239Y-92230025D01*
X86526825Y-92278686D01*
X86526824Y-92278686D01*
X86526821Y-92278687D01*
X86401804Y-92291000D01*
X86318196Y-92291000D01*
X86193179Y-92278687D01*
X86193176Y-92278686D01*
X86193175Y-92278686D01*
X86032761Y-92230025D01*
X86032759Y-92230024D01*
X86032756Y-92230023D01*
X85884922Y-92151005D01*
X85755341Y-92044659D01*
X85648995Y-91915078D01*
X85569977Y-91767244D01*
X85521313Y-91606821D01*
X85504883Y-91440000D01*
X85521313Y-91273179D01*
X85569977Y-91112756D01*
X85648995Y-90964922D01*
X85755341Y-90835341D01*
X85884922Y-90728995D01*
X86032756Y-90649977D01*
X86032759Y-90649976D01*
X86032761Y-90649975D01*
X86193175Y-90601314D01*
X86193176Y-90601314D01*
X86193179Y-90601313D01*
X86318196Y-90589000D01*
X86401804Y-90589000D01*
X86526821Y-90601313D01*
X86526821Y-90601313D01*
G37*
G36*
X101766821Y-90601313D02*
X101766824Y-90601314D01*
X101766825Y-90601314D01*
X101927239Y-90649975D01*
X101927241Y-90649976D01*
X101927244Y-90649977D01*
X102075078Y-90728995D01*
X102204659Y-90835341D01*
X102311005Y-90964922D01*
X102390023Y-91112756D01*
X102438687Y-91273179D01*
X102455117Y-91440000D01*
X102438687Y-91606821D01*
X102390023Y-91767244D01*
X102311005Y-91915078D01*
X102204659Y-92044659D01*
X102075078Y-92151005D01*
X101927244Y-92230023D01*
X101927241Y-92230024D01*
X101927239Y-92230025D01*
X101766825Y-92278686D01*
X101766824Y-92278686D01*
X101766821Y-92278687D01*
X101641804Y-92291000D01*
X101558196Y-92291000D01*
X101433179Y-92278687D01*
X101433176Y-92278686D01*
X101433175Y-92278686D01*
X101272761Y-92230025D01*
X101272759Y-92230024D01*
X101272756Y-92230023D01*
X101124922Y-92151005D01*
X100995341Y-92044659D01*
X100888995Y-91915078D01*
X100809977Y-91767244D01*
X100761313Y-91606821D01*
X100744883Y-91440000D01*
X100761313Y-91273179D01*
X100809977Y-91112756D01*
X100888995Y-90964922D01*
X100995341Y-90835341D01*
X101124922Y-90728995D01*
X101272756Y-90649977D01*
X101272759Y-90649976D01*
X101272761Y-90649975D01*
X101433175Y-90601314D01*
X101433176Y-90601314D01*
X101433179Y-90601313D01*
X101558196Y-90589000D01*
X101641804Y-90589000D01*
X101766821Y-90601313D01*
X101766821Y-90601313D01*
G37*
G36*
X101766821Y-88061313D02*
X101766824Y-88061314D01*
X101766825Y-88061314D01*
X101927239Y-88109975D01*
X101927241Y-88109976D01*
X101927244Y-88109977D01*
X102075078Y-88188995D01*
X102204659Y-88295341D01*
X102311005Y-88424922D01*
X102390023Y-88572756D01*
X102438687Y-88733179D01*
X102455117Y-88900000D01*
X102438687Y-89066821D01*
X102390023Y-89227244D01*
X102311005Y-89375078D01*
X102204659Y-89504659D01*
X102075078Y-89611005D01*
X101927244Y-89690023D01*
X101927241Y-89690024D01*
X101927239Y-89690025D01*
X101766825Y-89738686D01*
X101766824Y-89738686D01*
X101766821Y-89738687D01*
X101641804Y-89751000D01*
X101558196Y-89751000D01*
X101433179Y-89738687D01*
X101433176Y-89738686D01*
X101433175Y-89738686D01*
X101272761Y-89690025D01*
X101272759Y-89690024D01*
X101272756Y-89690023D01*
X101124922Y-89611005D01*
X100995341Y-89504659D01*
X100888995Y-89375078D01*
X100809977Y-89227244D01*
X100761313Y-89066821D01*
X100744883Y-88900000D01*
X100761313Y-88733179D01*
X100809977Y-88572756D01*
X100888995Y-88424922D01*
X100995341Y-88295341D01*
X101124922Y-88188995D01*
X101272756Y-88109977D01*
X101272759Y-88109976D01*
X101272761Y-88109975D01*
X101433175Y-88061314D01*
X101433176Y-88061314D01*
X101433179Y-88061313D01*
X101558196Y-88049000D01*
X101641804Y-88049000D01*
X101766821Y-88061313D01*
X101766821Y-88061313D01*
G37*
G36*
X86526821Y-88061313D02*
X86526824Y-88061314D01*
X86526825Y-88061314D01*
X86687239Y-88109975D01*
X86687241Y-88109976D01*
X86687244Y-88109977D01*
X86835078Y-88188995D01*
X86964659Y-88295341D01*
X87071005Y-88424922D01*
X87150023Y-88572756D01*
X87198687Y-88733179D01*
X87215117Y-88900000D01*
X87198687Y-89066821D01*
X87150023Y-89227244D01*
X87071005Y-89375078D01*
X86964659Y-89504659D01*
X86835078Y-89611005D01*
X86687244Y-89690023D01*
X86687241Y-89690024D01*
X86687239Y-89690025D01*
X86526825Y-89738686D01*
X86526824Y-89738686D01*
X86526821Y-89738687D01*
X86401804Y-89751000D01*
X86318196Y-89751000D01*
X86193179Y-89738687D01*
X86193176Y-89738686D01*
X86193175Y-89738686D01*
X86032761Y-89690025D01*
X86032759Y-89690024D01*
X86032756Y-89690023D01*
X85884922Y-89611005D01*
X85755341Y-89504659D01*
X85648995Y-89375078D01*
X85569977Y-89227244D01*
X85521313Y-89066821D01*
X85504883Y-88900000D01*
X85521313Y-88733179D01*
X85569977Y-88572756D01*
X85648995Y-88424922D01*
X85755341Y-88295341D01*
X85884922Y-88188995D01*
X86032756Y-88109977D01*
X86032759Y-88109976D01*
X86032761Y-88109975D01*
X86193175Y-88061314D01*
X86193176Y-88061314D01*
X86193179Y-88061313D01*
X86318196Y-88049000D01*
X86401804Y-88049000D01*
X86526821Y-88061313D01*
X86526821Y-88061313D01*
G37*
G36*
X86526821Y-85521313D02*
X86526824Y-85521314D01*
X86526825Y-85521314D01*
X86687239Y-85569975D01*
X86687241Y-85569976D01*
X86687244Y-85569977D01*
X86835078Y-85648995D01*
X86964659Y-85755341D01*
X87071005Y-85884922D01*
X87150023Y-86032756D01*
X87198687Y-86193179D01*
X87215117Y-86360000D01*
X87198687Y-86526821D01*
X87150023Y-86687244D01*
X87071005Y-86835078D01*
X86964659Y-86964659D01*
X86835078Y-87071005D01*
X86687244Y-87150023D01*
X86687241Y-87150024D01*
X86687239Y-87150025D01*
X86526825Y-87198686D01*
X86526824Y-87198686D01*
X86526821Y-87198687D01*
X86401804Y-87211000D01*
X86318196Y-87211000D01*
X86193179Y-87198687D01*
X86193176Y-87198686D01*
X86193175Y-87198686D01*
X86032761Y-87150025D01*
X86032759Y-87150024D01*
X86032756Y-87150023D01*
X85884922Y-87071005D01*
X85755341Y-86964659D01*
X85648995Y-86835078D01*
X85569977Y-86687244D01*
X85521313Y-86526821D01*
X85504883Y-86360000D01*
X85521313Y-86193179D01*
X85569977Y-86032756D01*
X85648995Y-85884922D01*
X85755341Y-85755341D01*
X85884922Y-85648995D01*
X86032756Y-85569977D01*
X86032759Y-85569976D01*
X86032761Y-85569975D01*
X86193175Y-85521314D01*
X86193176Y-85521314D01*
X86193179Y-85521313D01*
X86318196Y-85509000D01*
X86401804Y-85509000D01*
X86526821Y-85521313D01*
X86526821Y-85521313D01*
G37*
G36*
X101766821Y-85521313D02*
X101766824Y-85521314D01*
X101766825Y-85521314D01*
X101927239Y-85569975D01*
X101927241Y-85569976D01*
X101927244Y-85569977D01*
X102075078Y-85648995D01*
X102204659Y-85755341D01*
X102311005Y-85884922D01*
X102390023Y-86032756D01*
X102438687Y-86193179D01*
X102455117Y-86360000D01*
X102438687Y-86526821D01*
X102390023Y-86687244D01*
X102311005Y-86835078D01*
X102204659Y-86964659D01*
X102075078Y-87071005D01*
X101927244Y-87150023D01*
X101927241Y-87150024D01*
X101927239Y-87150025D01*
X101766825Y-87198686D01*
X101766824Y-87198686D01*
X101766821Y-87198687D01*
X101641804Y-87211000D01*
X101558196Y-87211000D01*
X101433179Y-87198687D01*
X101433176Y-87198686D01*
X101433175Y-87198686D01*
X101272761Y-87150025D01*
X101272759Y-87150024D01*
X101272756Y-87150023D01*
X101124922Y-87071005D01*
X100995341Y-86964659D01*
X100888995Y-86835078D01*
X100809977Y-86687244D01*
X100761313Y-86526821D01*
X100744883Y-86360000D01*
X100761313Y-86193179D01*
X100809977Y-86032756D01*
X100888995Y-85884922D01*
X100995341Y-85755341D01*
X101124922Y-85648995D01*
X101272756Y-85569977D01*
X101272759Y-85569976D01*
X101272761Y-85569975D01*
X101433175Y-85521314D01*
X101433176Y-85521314D01*
X101433179Y-85521313D01*
X101558196Y-85509000D01*
X101641804Y-85509000D01*
X101766821Y-85521313D01*
X101766821Y-85521313D01*
G37*
G36*
X86526821Y-82981313D02*
X86526824Y-82981314D01*
X86526825Y-82981314D01*
X86687239Y-83029975D01*
X86687241Y-83029976D01*
X86687244Y-83029977D01*
X86835078Y-83108995D01*
X86964659Y-83215341D01*
X87071005Y-83344922D01*
X87150023Y-83492756D01*
X87198687Y-83653179D01*
X87215117Y-83820000D01*
X87198687Y-83986821D01*
X87150023Y-84147244D01*
X87071005Y-84295078D01*
X86964659Y-84424659D01*
X86835078Y-84531005D01*
X86687244Y-84610023D01*
X86687241Y-84610024D01*
X86687239Y-84610025D01*
X86526825Y-84658686D01*
X86526824Y-84658686D01*
X86526821Y-84658687D01*
X86401804Y-84671000D01*
X86318196Y-84671000D01*
X86193179Y-84658687D01*
X86193176Y-84658686D01*
X86193175Y-84658686D01*
X86032761Y-84610025D01*
X86032759Y-84610024D01*
X86032756Y-84610023D01*
X85884922Y-84531005D01*
X85755341Y-84424659D01*
X85648995Y-84295078D01*
X85569977Y-84147244D01*
X85521313Y-83986821D01*
X85504883Y-83820000D01*
X85521313Y-83653179D01*
X85569977Y-83492756D01*
X85648995Y-83344922D01*
X85755341Y-83215341D01*
X85884922Y-83108995D01*
X86032756Y-83029977D01*
X86032759Y-83029976D01*
X86032761Y-83029975D01*
X86193175Y-82981314D01*
X86193176Y-82981314D01*
X86193179Y-82981313D01*
X86318196Y-82969000D01*
X86401804Y-82969000D01*
X86526821Y-82981313D01*
X86526821Y-82981313D01*
G37*
G36*
X101766821Y-82981313D02*
X101766824Y-82981314D01*
X101766825Y-82981314D01*
X101927239Y-83029975D01*
X101927241Y-83029976D01*
X101927244Y-83029977D01*
X102075078Y-83108995D01*
X102204659Y-83215341D01*
X102311005Y-83344922D01*
X102390023Y-83492756D01*
X102438687Y-83653179D01*
X102455117Y-83820000D01*
X102438687Y-83986821D01*
X102390023Y-84147244D01*
X102311005Y-84295078D01*
X102204659Y-84424659D01*
X102075078Y-84531005D01*
X101927244Y-84610023D01*
X101927241Y-84610024D01*
X101927239Y-84610025D01*
X101766825Y-84658686D01*
X101766824Y-84658686D01*
X101766821Y-84658687D01*
X101641804Y-84671000D01*
X101558196Y-84671000D01*
X101433179Y-84658687D01*
X101433176Y-84658686D01*
X101433175Y-84658686D01*
X101272761Y-84610025D01*
X101272759Y-84610024D01*
X101272756Y-84610023D01*
X101124922Y-84531005D01*
X100995341Y-84424659D01*
X100888995Y-84295078D01*
X100809977Y-84147244D01*
X100761313Y-83986821D01*
X100744883Y-83820000D01*
X100761313Y-83653179D01*
X100809977Y-83492756D01*
X100888995Y-83344922D01*
X100995341Y-83215341D01*
X101124922Y-83108995D01*
X101272756Y-83029977D01*
X101272759Y-83029976D01*
X101272761Y-83029975D01*
X101433175Y-82981314D01*
X101433176Y-82981314D01*
X101433179Y-82981313D01*
X101558196Y-82969000D01*
X101641804Y-82969000D01*
X101766821Y-82981313D01*
X101766821Y-82981313D01*
G37*
G36*
X86526821Y-80441313D02*
X86526824Y-80441314D01*
X86526825Y-80441314D01*
X86687239Y-80489975D01*
X86687241Y-80489976D01*
X86687244Y-80489977D01*
X86835078Y-80568995D01*
X86964659Y-80675341D01*
X87071005Y-80804922D01*
X87150023Y-80952756D01*
X87198687Y-81113179D01*
X87215117Y-81280000D01*
X87198687Y-81446821D01*
X87150023Y-81607244D01*
X87071005Y-81755078D01*
X86964659Y-81884659D01*
X86835078Y-81991005D01*
X86687244Y-82070023D01*
X86687241Y-82070024D01*
X86687239Y-82070025D01*
X86526825Y-82118686D01*
X86526824Y-82118686D01*
X86526821Y-82118687D01*
X86401804Y-82131000D01*
X86318196Y-82131000D01*
X86193179Y-82118687D01*
X86193176Y-82118686D01*
X86193175Y-82118686D01*
X86032761Y-82070025D01*
X86032759Y-82070024D01*
X86032756Y-82070023D01*
X85884922Y-81991005D01*
X85755341Y-81884659D01*
X85648995Y-81755078D01*
X85569977Y-81607244D01*
X85521313Y-81446821D01*
X85504883Y-81280000D01*
X85521313Y-81113179D01*
X85569977Y-80952756D01*
X85648995Y-80804922D01*
X85755341Y-80675341D01*
X85884922Y-80568995D01*
X86032756Y-80489977D01*
X86032759Y-80489976D01*
X86032761Y-80489975D01*
X86193175Y-80441314D01*
X86193176Y-80441314D01*
X86193179Y-80441313D01*
X86318196Y-80429000D01*
X86401804Y-80429000D01*
X86526821Y-80441313D01*
X86526821Y-80441313D01*
G37*
G36*
X101766821Y-80441313D02*
X101766824Y-80441314D01*
X101766825Y-80441314D01*
X101927239Y-80489975D01*
X101927241Y-80489976D01*
X101927244Y-80489977D01*
X102075078Y-80568995D01*
X102204659Y-80675341D01*
X102311005Y-80804922D01*
X102390023Y-80952756D01*
X102438687Y-81113179D01*
X102455117Y-81280000D01*
X102438687Y-81446821D01*
X102390023Y-81607244D01*
X102311005Y-81755078D01*
X102204659Y-81884659D01*
X102075078Y-81991005D01*
X101927244Y-82070023D01*
X101927241Y-82070024D01*
X101927239Y-82070025D01*
X101766825Y-82118686D01*
X101766824Y-82118686D01*
X101766821Y-82118687D01*
X101641804Y-82131000D01*
X101558196Y-82131000D01*
X101433179Y-82118687D01*
X101433176Y-82118686D01*
X101433175Y-82118686D01*
X101272761Y-82070025D01*
X101272759Y-82070024D01*
X101272756Y-82070023D01*
X101124922Y-81991005D01*
X100995341Y-81884659D01*
X100888995Y-81755078D01*
X100809977Y-81607244D01*
X100761313Y-81446821D01*
X100744883Y-81280000D01*
X100761313Y-81113179D01*
X100809977Y-80952756D01*
X100888995Y-80804922D01*
X100995341Y-80675341D01*
X101124922Y-80568995D01*
X101272756Y-80489977D01*
X101272759Y-80489976D01*
X101272761Y-80489975D01*
X101433175Y-80441314D01*
X101433176Y-80441314D01*
X101433179Y-80441313D01*
X101558196Y-80429000D01*
X101641804Y-80429000D01*
X101766821Y-80441313D01*
X101766821Y-80441313D01*
G37*
G36*
X86526821Y-77901313D02*
X86526824Y-77901314D01*
X86526825Y-77901314D01*
X86687239Y-77949975D01*
X86687241Y-77949976D01*
X86687244Y-77949977D01*
X86835078Y-78028995D01*
X86964659Y-78135341D01*
X87071005Y-78264922D01*
X87150023Y-78412756D01*
X87198687Y-78573179D01*
X87215117Y-78740000D01*
X87198687Y-78906821D01*
X87150023Y-79067244D01*
X87071005Y-79215078D01*
X86964659Y-79344659D01*
X86835078Y-79451005D01*
X86687244Y-79530023D01*
X86687241Y-79530024D01*
X86687239Y-79530025D01*
X86526825Y-79578686D01*
X86526824Y-79578686D01*
X86526821Y-79578687D01*
X86401804Y-79591000D01*
X86318196Y-79591000D01*
X86193179Y-79578687D01*
X86193176Y-79578686D01*
X86193175Y-79578686D01*
X86032761Y-79530025D01*
X86032759Y-79530024D01*
X86032756Y-79530023D01*
X85884922Y-79451005D01*
X85755341Y-79344659D01*
X85648995Y-79215078D01*
X85569977Y-79067244D01*
X85521313Y-78906821D01*
X85504883Y-78740000D01*
X85521313Y-78573179D01*
X85569977Y-78412756D01*
X85648995Y-78264922D01*
X85755341Y-78135341D01*
X85884922Y-78028995D01*
X86032756Y-77949977D01*
X86032759Y-77949976D01*
X86032761Y-77949975D01*
X86193175Y-77901314D01*
X86193176Y-77901314D01*
X86193179Y-77901313D01*
X86318196Y-77889000D01*
X86401804Y-77889000D01*
X86526821Y-77901313D01*
X86526821Y-77901313D01*
G37*
G36*
X101766821Y-77901313D02*
X101766824Y-77901314D01*
X101766825Y-77901314D01*
X101927239Y-77949975D01*
X101927241Y-77949976D01*
X101927244Y-77949977D01*
X102075078Y-78028995D01*
X102204659Y-78135341D01*
X102311005Y-78264922D01*
X102390023Y-78412756D01*
X102438687Y-78573179D01*
X102455117Y-78740000D01*
X102438687Y-78906821D01*
X102390023Y-79067244D01*
X102311005Y-79215078D01*
X102204659Y-79344659D01*
X102075078Y-79451005D01*
X101927244Y-79530023D01*
X101927241Y-79530024D01*
X101927239Y-79530025D01*
X101766825Y-79578686D01*
X101766824Y-79578686D01*
X101766821Y-79578687D01*
X101641804Y-79591000D01*
X101558196Y-79591000D01*
X101433179Y-79578687D01*
X101433176Y-79578686D01*
X101433175Y-79578686D01*
X101272761Y-79530025D01*
X101272759Y-79530024D01*
X101272756Y-79530023D01*
X101124922Y-79451005D01*
X100995341Y-79344659D01*
X100888995Y-79215078D01*
X100809977Y-79067244D01*
X100761313Y-78906821D01*
X100744883Y-78740000D01*
X100761313Y-78573179D01*
X100809977Y-78412756D01*
X100888995Y-78264922D01*
X100995341Y-78135341D01*
X101124922Y-78028995D01*
X101272756Y-77949977D01*
X101272759Y-77949976D01*
X101272761Y-77949975D01*
X101433175Y-77901314D01*
X101433176Y-77901314D01*
X101433179Y-77901313D01*
X101558196Y-77889000D01*
X101641804Y-77889000D01*
X101766821Y-77901313D01*
X101766821Y-77901313D01*
G37*
G36*
X87211000Y-77051000D02*
X85509000Y-77051000D01*
X85509000Y-75349000D01*
X87211000Y-75349000D01*
X87211000Y-77051000D01*
X87211000Y-77051000D01*
G37*
G36*
X101766821Y-75361313D02*
X101766824Y-75361314D01*
X101766825Y-75361314D01*
X101927239Y-75409975D01*
X101927241Y-75409976D01*
X101927244Y-75409977D01*
X102075078Y-75488995D01*
X102204659Y-75595341D01*
X102311005Y-75724922D01*
X102390023Y-75872756D01*
X102438687Y-76033179D01*
X102455117Y-76200000D01*
X102438687Y-76366821D01*
X102390023Y-76527244D01*
X102311005Y-76675078D01*
X102204659Y-76804659D01*
X102075078Y-76911005D01*
X101927244Y-76990023D01*
X101927241Y-76990024D01*
X101927239Y-76990025D01*
X101766825Y-77038686D01*
X101766824Y-77038686D01*
X101766821Y-77038687D01*
X101641804Y-77051000D01*
X101558196Y-77051000D01*
X101433179Y-77038687D01*
X101433176Y-77038686D01*
X101433175Y-77038686D01*
X101272761Y-76990025D01*
X101272759Y-76990024D01*
X101272756Y-76990023D01*
X101124922Y-76911005D01*
X100995341Y-76804659D01*
X100888995Y-76675078D01*
X100809977Y-76527244D01*
X100761313Y-76366821D01*
X100744883Y-76200000D01*
X100761313Y-76033179D01*
X100809977Y-75872756D01*
X100888995Y-75724922D01*
X100995341Y-75595341D01*
X101124922Y-75488995D01*
X101272756Y-75409977D01*
X101272759Y-75409976D01*
X101272761Y-75409975D01*
X101433175Y-75361314D01*
X101433176Y-75361314D01*
X101433179Y-75361313D01*
X101558196Y-75349000D01*
X101641804Y-75349000D01*
X101766821Y-75361313D01*
X101766821Y-75361313D01*
G37*
G36*
X98027142Y-70338242D02*
X98175102Y-70399530D01*
X98308258Y-70488502D01*
X98421498Y-70601742D01*
X98510470Y-70734898D01*
X98571758Y-70882858D01*
X98603000Y-71039925D01*
X98603000Y-71200075D01*
X98571758Y-71357142D01*
X98510470Y-71505102D01*
X98421498Y-71638258D01*
X98308258Y-71751498D01*
X98175102Y-71840470D01*
X98027142Y-71901758D01*
X97870075Y-71933000D01*
X97709925Y-71933000D01*
X97552858Y-71901758D01*
X97404898Y-71840470D01*
X97271742Y-71751498D01*
X97158502Y-71638258D01*
X97069530Y-71505102D01*
X97008242Y-71357142D01*
X96977000Y-71200075D01*
X96977000Y-71039925D01*
X97008242Y-70882858D01*
X97069530Y-70734898D01*
X97158502Y-70601742D01*
X97271742Y-70488502D01*
X97404898Y-70399530D01*
X97552858Y-70338242D01*
X97709925Y-70307000D01*
X97870075Y-70307000D01*
X98027142Y-70338242D01*
X98027142Y-70338242D01*
G37*
G36*
X90407142Y-70338242D02*
X90555102Y-70399530D01*
X90688258Y-70488502D01*
X90801498Y-70601742D01*
X90890470Y-70734898D01*
X90951758Y-70882858D01*
X90983000Y-71039925D01*
X90983000Y-71200075D01*
X90951758Y-71357142D01*
X90890470Y-71505102D01*
X90801498Y-71638258D01*
X90688258Y-71751498D01*
X90555102Y-71840470D01*
X90407142Y-71901758D01*
X90250075Y-71933000D01*
X90089925Y-71933000D01*
X89932858Y-71901758D01*
X89784898Y-71840470D01*
X89651742Y-71751498D01*
X89538502Y-71638258D01*
X89449530Y-71505102D01*
X89388242Y-71357142D01*
X89357000Y-71200075D01*
X89357000Y-71039925D01*
X89388242Y-70882858D01*
X89449530Y-70734898D01*
X89538502Y-70601742D01*
X89651742Y-70488502D01*
X89784898Y-70399530D01*
X89932858Y-70338242D01*
X90089925Y-70307000D01*
X90250075Y-70307000D01*
X90407142Y-70338242D01*
X90407142Y-70338242D01*
G37*
G36*
X92947142Y-70338242D02*
X93095102Y-70399530D01*
X93228258Y-70488502D01*
X93341498Y-70601742D01*
X93430470Y-70734898D01*
X93491758Y-70882858D01*
X93523000Y-71039925D01*
X93523000Y-71200075D01*
X93491758Y-71357142D01*
X93430470Y-71505102D01*
X93341498Y-71638258D01*
X93228258Y-71751498D01*
X93095102Y-71840470D01*
X92947142Y-71901758D01*
X92790075Y-71933000D01*
X92629925Y-71933000D01*
X92472858Y-71901758D01*
X92324898Y-71840470D01*
X92191742Y-71751498D01*
X92078502Y-71638258D01*
X91989530Y-71505102D01*
X91928242Y-71357142D01*
X91897000Y-71200075D01*
X91897000Y-71039925D01*
X91928242Y-70882858D01*
X91989530Y-70734898D01*
X92078502Y-70601742D01*
X92191742Y-70488502D01*
X92324898Y-70399530D01*
X92472858Y-70338242D01*
X92629925Y-70307000D01*
X92790075Y-70307000D01*
X92947142Y-70338242D01*
X92947142Y-70338242D01*
G37*
G36*
X95487142Y-70338242D02*
X95635102Y-70399530D01*
X95768258Y-70488502D01*
X95881498Y-70601742D01*
X95970470Y-70734898D01*
X96031758Y-70882858D01*
X96063000Y-71039925D01*
X96063000Y-71200075D01*
X96031758Y-71357142D01*
X95970470Y-71505102D01*
X95881498Y-71638258D01*
X95768258Y-71751498D01*
X95635102Y-71840470D01*
X95487142Y-71901758D01*
X95330075Y-71933000D01*
X95169925Y-71933000D01*
X95012858Y-71901758D01*
X94864898Y-71840470D01*
X94731742Y-71751498D01*
X94618502Y-71638258D01*
X94529530Y-71505102D01*
X94468242Y-71357142D01*
X94437000Y-71200075D01*
X94437000Y-71039925D01*
X94468242Y-70882858D01*
X94529530Y-70734898D01*
X94618502Y-70601742D01*
X94731742Y-70488502D01*
X94864898Y-70399530D01*
X95012858Y-70338242D01*
X95169925Y-70307000D01*
X95330075Y-70307000D01*
X95487142Y-70338242D01*
X95487142Y-70338242D01*
G37*
G36*
X89418037Y-60776250D02*
X89418039Y-60776251D01*
X89418040Y-60776251D01*
X89741251Y-60910129D01*
X89741252Y-60910130D01*
X90032137Y-61104493D01*
X90279507Y-61351863D01*
X90279509Y-61351866D01*
X90473871Y-61642749D01*
X90607749Y-61965960D01*
X90676000Y-62309079D01*
X90676000Y-62658921D01*
X90607749Y-63002040D01*
X90473871Y-63325251D01*
X90473870Y-63325252D01*
X90279507Y-63616137D01*
X90032137Y-63863507D01*
X90032134Y-63863509D01*
X89741251Y-64057871D01*
X89418040Y-64191749D01*
X89418039Y-64191749D01*
X89418037Y-64191750D01*
X89074922Y-64260000D01*
X88725078Y-64260000D01*
X88381963Y-64191750D01*
X88381961Y-64191749D01*
X88381960Y-64191749D01*
X88058749Y-64057871D01*
X87767866Y-63863509D01*
X87767863Y-63863507D01*
X87520493Y-63616137D01*
X87326130Y-63325252D01*
X87326129Y-63325251D01*
X87192251Y-63002040D01*
X87124000Y-62658921D01*
X87124000Y-62309079D01*
X87192251Y-61965960D01*
X87326129Y-61642749D01*
X87520491Y-61351866D01*
X87520493Y-61351863D01*
X87767863Y-61104493D01*
X88058748Y-60910130D01*
X88058749Y-60910129D01*
X88381960Y-60776251D01*
X88381961Y-60776251D01*
X88381963Y-60776250D01*
X88725078Y-60708000D01*
X89074922Y-60708000D01*
X89418037Y-60776250D01*
X89418037Y-60776250D01*
G37*
G36*
X99578037Y-60776250D02*
X99578039Y-60776251D01*
X99578040Y-60776251D01*
X99901251Y-60910129D01*
X99901252Y-60910130D01*
X100192137Y-61104493D01*
X100439507Y-61351863D01*
X100439509Y-61351866D01*
X100633871Y-61642749D01*
X100767749Y-61965960D01*
X100836000Y-62309079D01*
X100836000Y-62658921D01*
X100767749Y-63002040D01*
X100633871Y-63325251D01*
X100633870Y-63325252D01*
X100439507Y-63616137D01*
X100192137Y-63863507D01*
X100192134Y-63863509D01*
X99901251Y-64057871D01*
X99578040Y-64191749D01*
X99578039Y-64191749D01*
X99578037Y-64191750D01*
X99234922Y-64260000D01*
X98885078Y-64260000D01*
X98541963Y-64191750D01*
X98541961Y-64191749D01*
X98541960Y-64191749D01*
X98218749Y-64057871D01*
X97927866Y-63863509D01*
X97927863Y-63863507D01*
X97680493Y-63616137D01*
X97486130Y-63325252D01*
X97486129Y-63325251D01*
X97352251Y-63002040D01*
X97284000Y-62658921D01*
X97284000Y-62309079D01*
X97352251Y-61965960D01*
X97486129Y-61642749D01*
X97680491Y-61351866D01*
X97680493Y-61351863D01*
X97927863Y-61104493D01*
X98218748Y-60910130D01*
X98218749Y-60910129D01*
X98541960Y-60776251D01*
X98541961Y-60776251D01*
X98541963Y-60776250D01*
X98885078Y-60708000D01*
X99234922Y-60708000D01*
X99578037Y-60776250D01*
X99578037Y-60776250D01*
G37*
M02*
