G04 #@! TF.GenerationSoftware,KiCad,Pcbnew,(5.0.2)-1*
G04 #@! TF.CreationDate,2019-04-19T10:08:56-05:00*
G04 #@! TF.ProjectId,ArduinoNanoInterface_Hardware,41726475-696e-46f4-9e61-6e6f496e7465,rev?*
G04 #@! TF.SameCoordinates,Original*
G04 #@! TF.FileFunction,Copper,L2,Bot*
G04 #@! TF.FilePolarity,Positive*
%FSLAX46Y46*%
G04 Gerber Fmt 4.6, Leading zero omitted, Abs format (unit mm)*
G04 Created by KiCad (PCBNEW (5.0.2)-1) date 4/19/2019 10:08:56 AM*
%MOMM*%
%LPD*%
G01*
G04 APERTURE LIST*
G04 #@! TA.AperFunction,ComponentPad*
%ADD10O,1.700000X1.700000*%
G04 #@! TD*
G04 #@! TA.AperFunction,ComponentPad*
%ADD11R,1.700000X1.700000*%
G04 #@! TD*
G04 #@! TA.AperFunction,ComponentPad*
%ADD12R,1.600000X1.600000*%
G04 #@! TD*
G04 #@! TA.AperFunction,ComponentPad*
%ADD13O,1.600000X1.600000*%
G04 #@! TD*
G04 #@! TA.AperFunction,ComponentPad*
%ADD14C,1.524000*%
G04 #@! TD*
G04 #@! TA.AperFunction,ViaPad*
%ADD15C,0.800000*%
G04 #@! TD*
G04 #@! TA.AperFunction,Conductor*
%ADD16C,0.381000*%
G04 #@! TD*
G04 #@! TA.AperFunction,Conductor*
%ADD17C,0.254000*%
G04 #@! TD*
G04 APERTURE END LIST*
D10*
G04 #@! TO.P,JP1,3*
G04 #@! TO.N,SW_Rx*
X91440000Y-93980000D03*
G04 #@! TO.P,JP1,2*
G04 #@! TO.N,NanoRx*
X93980000Y-93980000D03*
D11*
G04 #@! TO.P,JP1,1*
G04 #@! TO.N,HW_Rx*
X96520000Y-93980000D03*
G04 #@! TD*
D10*
G04 #@! TO.P,JP2,3*
G04 #@! TO.N,SW_Tx*
X91440000Y-97790000D03*
G04 #@! TO.P,JP2,2*
G04 #@! TO.N,NanoTx*
X93980000Y-97790000D03*
D11*
G04 #@! TO.P,JP2,1*
G04 #@! TO.N,HW_Tx*
X96520000Y-97790000D03*
G04 #@! TD*
D12*
G04 #@! TO.P,A1,1*
G04 #@! TO.N,HW_Tx*
X86360000Y-76200000D03*
D13*
G04 #@! TO.P,A1,17*
G04 #@! TO.N,+3V3*
X101600000Y-109220000D03*
G04 #@! TO.P,A1,2*
G04 #@! TO.N,HW_Rx*
X86360000Y-78740000D03*
G04 #@! TO.P,A1,18*
G04 #@! TO.N,Net-(A1-Pad18)*
X101600000Y-106680000D03*
G04 #@! TO.P,A1,3*
G04 #@! TO.N,Net-(A1-Pad3)*
X86360000Y-81280000D03*
G04 #@! TO.P,A1,19*
G04 #@! TO.N,Net-(A1-Pad19)*
X101600000Y-104140000D03*
G04 #@! TO.P,A1,4*
G04 #@! TO.N,GND*
X86360000Y-83820000D03*
G04 #@! TO.P,A1,20*
G04 #@! TO.N,Net-(A1-Pad20)*
X101600000Y-101600000D03*
G04 #@! TO.P,A1,5*
G04 #@! TO.N,SW_Rx*
X86360000Y-86360000D03*
G04 #@! TO.P,A1,21*
G04 #@! TO.N,Net-(A1-Pad21)*
X101600000Y-99060000D03*
G04 #@! TO.P,A1,6*
G04 #@! TO.N,SW_Tx*
X86360000Y-88900000D03*
G04 #@! TO.P,A1,22*
G04 #@! TO.N,Net-(A1-Pad22)*
X101600000Y-96520000D03*
G04 #@! TO.P,A1,7*
G04 #@! TO.N,Net-(A1-Pad7)*
X86360000Y-91440000D03*
G04 #@! TO.P,A1,23*
G04 #@! TO.N,SDA*
X101600000Y-93980000D03*
G04 #@! TO.P,A1,8*
G04 #@! TO.N,Net-(A1-Pad8)*
X86360000Y-93980000D03*
G04 #@! TO.P,A1,24*
G04 #@! TO.N,SCL*
X101600000Y-91440000D03*
G04 #@! TO.P,A1,9*
G04 #@! TO.N,Net-(A1-Pad9)*
X86360000Y-96520000D03*
G04 #@! TO.P,A1,25*
G04 #@! TO.N,Net-(A1-Pad25)*
X101600000Y-88900000D03*
G04 #@! TO.P,A1,10*
G04 #@! TO.N,Net-(A1-Pad10)*
X86360000Y-99060000D03*
G04 #@! TO.P,A1,26*
G04 #@! TO.N,Net-(A1-Pad26)*
X101600000Y-86360000D03*
G04 #@! TO.P,A1,11*
G04 #@! TO.N,Net-(A1-Pad11)*
X86360000Y-101600000D03*
G04 #@! TO.P,A1,27*
G04 #@! TO.N,Net-(A1-Pad27)*
X101600000Y-83820000D03*
G04 #@! TO.P,A1,12*
G04 #@! TO.N,Net-(A1-Pad12)*
X86360000Y-104140000D03*
G04 #@! TO.P,A1,28*
G04 #@! TO.N,Net-(A1-Pad28)*
X101600000Y-81280000D03*
G04 #@! TO.P,A1,13*
G04 #@! TO.N,Net-(A1-Pad13)*
X86360000Y-106680000D03*
G04 #@! TO.P,A1,29*
G04 #@! TO.N,GND*
X101600000Y-78740000D03*
G04 #@! TO.P,A1,14*
G04 #@! TO.N,Net-(A1-Pad14)*
X86360000Y-109220000D03*
G04 #@! TO.P,A1,30*
G04 #@! TO.N,+5V*
X101600000Y-76200000D03*
G04 #@! TO.P,A1,15*
G04 #@! TO.N,Net-(A1-Pad15)*
X86360000Y-111760000D03*
G04 #@! TO.P,A1,16*
G04 #@! TO.N,Net-(A1-Pad16)*
X101600000Y-111760000D03*
G04 #@! TD*
D14*
G04 #@! TO.P,Conn1,4*
G04 #@! TO.N,GND*
X97790000Y-71120000D03*
G04 #@! TO.P,Conn1,3*
G04 #@! TO.N,SDA*
X95250000Y-71120000D03*
G04 #@! TO.P,Conn1,2*
G04 #@! TO.N,SCL*
X92710000Y-71120000D03*
G04 #@! TO.P,Conn1,1*
G04 #@! TO.N,+5V*
X90170000Y-71120000D03*
G04 #@! TD*
G04 #@! TO.P,Conn2,1*
G04 #@! TO.N,+5V*
X97790000Y-126746000D03*
G04 #@! TO.P,Conn2,2*
G04 #@! TO.N,Tx*
X95250000Y-126746000D03*
G04 #@! TO.P,Conn2,3*
G04 #@! TO.N,Rx*
X92710000Y-126746000D03*
G04 #@! TO.P,Conn2,4*
G04 #@! TO.N,GND*
X90170000Y-126746000D03*
G04 #@! TD*
D15*
G04 #@! TO.N,+3V3*
X86106000Y-123698000D03*
X94234000Y-123698000D03*
G04 #@! TO.N,GND*
X85090000Y-62230000D03*
X102870000Y-136144000D03*
X85090000Y-136144000D03*
G04 #@! TO.N,+5V*
X91440000Y-112776000D03*
X95504000Y-112776000D03*
G04 #@! TD*
D16*
G04 #@! TO.N,+3V3*
X86106000Y-123698000D02*
X94234000Y-123698000D01*
X100468630Y-109220000D02*
X99822000Y-109866630D01*
X101600000Y-109220000D02*
X100468630Y-109220000D01*
X99822000Y-109866630D02*
X99822000Y-122936000D01*
X99060000Y-123698000D02*
X94234000Y-123698000D01*
X99822000Y-122936000D02*
X99060000Y-123698000D01*
G04 #@! TO.N,+5V*
X91440000Y-112776000D02*
X95504000Y-112776000D01*
G04 #@! TD*
D17*
G04 #@! TO.N,GND*
G36*
X102053698Y-59192958D02*
X102478893Y-59361305D01*
X102848858Y-59630101D01*
X103140356Y-59982462D01*
X103335067Y-60396244D01*
X103427093Y-60878662D01*
X103430001Y-60971195D01*
X103430000Y-137115333D01*
X103367042Y-137613699D01*
X103198697Y-138038889D01*
X102929899Y-138408859D01*
X102577541Y-138700355D01*
X102163756Y-138895067D01*
X101681339Y-138987093D01*
X101588836Y-138990000D01*
X86404667Y-138990000D01*
X85906301Y-138927042D01*
X85481111Y-138758697D01*
X85111141Y-138489899D01*
X84819645Y-138137541D01*
X84624933Y-137723756D01*
X84532907Y-137241339D01*
X84530000Y-137148836D01*
X84530000Y-134912567D01*
X86540000Y-134912567D01*
X86540000Y-135851433D01*
X86899289Y-136718833D01*
X87563167Y-137382711D01*
X88430567Y-137742000D01*
X89369433Y-137742000D01*
X90236833Y-137382711D01*
X90900711Y-136718833D01*
X91260000Y-135851433D01*
X91260000Y-134912567D01*
X96700000Y-134912567D01*
X96700000Y-135851433D01*
X97059289Y-136718833D01*
X97723167Y-137382711D01*
X98590567Y-137742000D01*
X99529433Y-137742000D01*
X100396833Y-137382711D01*
X101060711Y-136718833D01*
X101420000Y-135851433D01*
X101420000Y-134912567D01*
X101060711Y-134045167D01*
X100396833Y-133381289D01*
X99529433Y-133022000D01*
X98590567Y-133022000D01*
X97723167Y-133381289D01*
X97059289Y-134045167D01*
X96700000Y-134912567D01*
X91260000Y-134912567D01*
X90900711Y-134045167D01*
X90236833Y-133381289D01*
X89369433Y-133022000D01*
X88430567Y-133022000D01*
X87563167Y-133381289D01*
X86899289Y-134045167D01*
X86540000Y-134912567D01*
X84530000Y-134912567D01*
X84530000Y-126468119D01*
X91313000Y-126468119D01*
X91313000Y-127023881D01*
X91525680Y-127537337D01*
X91918663Y-127930320D01*
X92432119Y-128143000D01*
X92987881Y-128143000D01*
X93501337Y-127930320D01*
X93894320Y-127537337D01*
X93980000Y-127330487D01*
X94065680Y-127537337D01*
X94458663Y-127930320D01*
X94972119Y-128143000D01*
X95527881Y-128143000D01*
X96041337Y-127930320D01*
X96434320Y-127537337D01*
X96520000Y-127330487D01*
X96605680Y-127537337D01*
X96998663Y-127930320D01*
X97512119Y-128143000D01*
X98067881Y-128143000D01*
X98581337Y-127930320D01*
X98974320Y-127537337D01*
X99187000Y-127023881D01*
X99187000Y-126468119D01*
X98974320Y-125954663D01*
X98581337Y-125561680D01*
X98067881Y-125349000D01*
X97512119Y-125349000D01*
X96998663Y-125561680D01*
X96605680Y-125954663D01*
X96520000Y-126161513D01*
X96434320Y-125954663D01*
X96041337Y-125561680D01*
X95527881Y-125349000D01*
X94972119Y-125349000D01*
X94458663Y-125561680D01*
X94065680Y-125954663D01*
X93980000Y-126161513D01*
X93894320Y-125954663D01*
X93501337Y-125561680D01*
X92987881Y-125349000D01*
X92432119Y-125349000D01*
X91918663Y-125561680D01*
X91525680Y-125954663D01*
X91313000Y-126468119D01*
X84530000Y-126468119D01*
X84530000Y-123492126D01*
X85071000Y-123492126D01*
X85071000Y-123903874D01*
X85228569Y-124284280D01*
X85519720Y-124575431D01*
X85900126Y-124733000D01*
X86311874Y-124733000D01*
X86692280Y-124575431D01*
X86744211Y-124523500D01*
X93595789Y-124523500D01*
X93647720Y-124575431D01*
X94028126Y-124733000D01*
X94439874Y-124733000D01*
X94820280Y-124575431D01*
X94872211Y-124523500D01*
X98978699Y-124523500D01*
X99060000Y-124539672D01*
X99141301Y-124523500D01*
X99141303Y-124523500D01*
X99382094Y-124475604D01*
X99655152Y-124293152D01*
X99701209Y-124224223D01*
X100348226Y-123577207D01*
X100417152Y-123531152D01*
X100520884Y-123375906D01*
X100599604Y-123258095D01*
X100663672Y-122936000D01*
X100647500Y-122854697D01*
X100647500Y-112849419D01*
X101040091Y-113111740D01*
X101458667Y-113195000D01*
X101741333Y-113195000D01*
X102159909Y-113111740D01*
X102634577Y-112794577D01*
X102951740Y-112319909D01*
X103063113Y-111760000D01*
X102951740Y-111200091D01*
X102634577Y-110725423D01*
X102282242Y-110490000D01*
X102634577Y-110254577D01*
X102951740Y-109779909D01*
X103063113Y-109220000D01*
X102951740Y-108660091D01*
X102634577Y-108185423D01*
X102282242Y-107950000D01*
X102634577Y-107714577D01*
X102951740Y-107239909D01*
X103063113Y-106680000D01*
X102951740Y-106120091D01*
X102634577Y-105645423D01*
X102282242Y-105410000D01*
X102634577Y-105174577D01*
X102951740Y-104699909D01*
X103063113Y-104140000D01*
X102951740Y-103580091D01*
X102634577Y-103105423D01*
X102282242Y-102870000D01*
X102634577Y-102634577D01*
X102951740Y-102159909D01*
X103063113Y-101600000D01*
X102951740Y-101040091D01*
X102634577Y-100565423D01*
X102282242Y-100330000D01*
X102634577Y-100094577D01*
X102951740Y-99619909D01*
X103063113Y-99060000D01*
X102951740Y-98500091D01*
X102634577Y-98025423D01*
X102282242Y-97790000D01*
X102634577Y-97554577D01*
X102951740Y-97079909D01*
X103063113Y-96520000D01*
X102951740Y-95960091D01*
X102634577Y-95485423D01*
X102282242Y-95250000D01*
X102634577Y-95014577D01*
X102951740Y-94539909D01*
X103063113Y-93980000D01*
X102951740Y-93420091D01*
X102634577Y-92945423D01*
X102282242Y-92710000D01*
X102634577Y-92474577D01*
X102951740Y-91999909D01*
X103063113Y-91440000D01*
X102951740Y-90880091D01*
X102634577Y-90405423D01*
X102282242Y-90170000D01*
X102634577Y-89934577D01*
X102951740Y-89459909D01*
X103063113Y-88900000D01*
X102951740Y-88340091D01*
X102634577Y-87865423D01*
X102282242Y-87630000D01*
X102634577Y-87394577D01*
X102951740Y-86919909D01*
X103063113Y-86360000D01*
X102951740Y-85800091D01*
X102634577Y-85325423D01*
X102282242Y-85090000D01*
X102634577Y-84854577D01*
X102951740Y-84379909D01*
X103063113Y-83820000D01*
X102951740Y-83260091D01*
X102634577Y-82785423D01*
X102282242Y-82550000D01*
X102634577Y-82314577D01*
X102951740Y-81839909D01*
X103063113Y-81280000D01*
X102951740Y-80720091D01*
X102634577Y-80245423D01*
X102159909Y-79928260D01*
X101741333Y-79845000D01*
X101458667Y-79845000D01*
X101040091Y-79928260D01*
X100565423Y-80245423D01*
X100248260Y-80720091D01*
X100136887Y-81280000D01*
X100248260Y-81839909D01*
X100565423Y-82314577D01*
X100917758Y-82550000D01*
X100565423Y-82785423D01*
X100248260Y-83260091D01*
X100136887Y-83820000D01*
X100248260Y-84379909D01*
X100565423Y-84854577D01*
X100917758Y-85090000D01*
X100565423Y-85325423D01*
X100248260Y-85800091D01*
X100136887Y-86360000D01*
X100248260Y-86919909D01*
X100565423Y-87394577D01*
X100917758Y-87630000D01*
X100565423Y-87865423D01*
X100248260Y-88340091D01*
X100136887Y-88900000D01*
X100248260Y-89459909D01*
X100565423Y-89934577D01*
X100917758Y-90170000D01*
X100565423Y-90405423D01*
X100248260Y-90880091D01*
X100136887Y-91440000D01*
X100248260Y-91999909D01*
X100565423Y-92474577D01*
X100917758Y-92710000D01*
X100565423Y-92945423D01*
X100248260Y-93420091D01*
X100136887Y-93980000D01*
X100248260Y-94539909D01*
X100565423Y-95014577D01*
X100917758Y-95250000D01*
X100565423Y-95485423D01*
X100248260Y-95960091D01*
X100136887Y-96520000D01*
X100248260Y-97079909D01*
X100565423Y-97554577D01*
X100917758Y-97790000D01*
X100565423Y-98025423D01*
X100248260Y-98500091D01*
X100136887Y-99060000D01*
X100248260Y-99619909D01*
X100565423Y-100094577D01*
X100917758Y-100330000D01*
X100565423Y-100565423D01*
X100248260Y-101040091D01*
X100136887Y-101600000D01*
X100248260Y-102159909D01*
X100565423Y-102634577D01*
X100917758Y-102870000D01*
X100565423Y-103105423D01*
X100248260Y-103580091D01*
X100136887Y-104140000D01*
X100248260Y-104699909D01*
X100565423Y-105174577D01*
X100917758Y-105410000D01*
X100565423Y-105645423D01*
X100248260Y-106120091D01*
X100136887Y-106680000D01*
X100248260Y-107239909D01*
X100565423Y-107714577D01*
X100917758Y-107950000D01*
X100565423Y-108185423D01*
X100431607Y-108385692D01*
X100387328Y-108394500D01*
X100387327Y-108394500D01*
X100146536Y-108442396D01*
X99873478Y-108624848D01*
X99827423Y-108693774D01*
X99295777Y-109225421D01*
X99226848Y-109271478D01*
X99044396Y-109544537D01*
X99004278Y-109746227D01*
X98980328Y-109866630D01*
X98996500Y-109947932D01*
X98996501Y-122594066D01*
X98718068Y-122872500D01*
X94872211Y-122872500D01*
X94820280Y-122820569D01*
X94439874Y-122663000D01*
X94028126Y-122663000D01*
X93647720Y-122820569D01*
X93595789Y-122872500D01*
X86744211Y-122872500D01*
X86692280Y-122820569D01*
X86311874Y-122663000D01*
X85900126Y-122663000D01*
X85519720Y-122820569D01*
X85228569Y-123111720D01*
X85071000Y-123492126D01*
X84530000Y-123492126D01*
X84530000Y-86360000D01*
X84896887Y-86360000D01*
X85008260Y-86919909D01*
X85325423Y-87394577D01*
X85677758Y-87630000D01*
X85325423Y-87865423D01*
X85008260Y-88340091D01*
X84896887Y-88900000D01*
X85008260Y-89459909D01*
X85325423Y-89934577D01*
X85677758Y-90170000D01*
X85325423Y-90405423D01*
X85008260Y-90880091D01*
X84896887Y-91440000D01*
X85008260Y-91999909D01*
X85325423Y-92474577D01*
X85677758Y-92710000D01*
X85325423Y-92945423D01*
X85008260Y-93420091D01*
X84896887Y-93980000D01*
X85008260Y-94539909D01*
X85325423Y-95014577D01*
X85677758Y-95250000D01*
X85325423Y-95485423D01*
X85008260Y-95960091D01*
X84896887Y-96520000D01*
X85008260Y-97079909D01*
X85325423Y-97554577D01*
X85677758Y-97790000D01*
X85325423Y-98025423D01*
X85008260Y-98500091D01*
X84896887Y-99060000D01*
X85008260Y-99619909D01*
X85325423Y-100094577D01*
X85677758Y-100330000D01*
X85325423Y-100565423D01*
X85008260Y-101040091D01*
X84896887Y-101600000D01*
X85008260Y-102159909D01*
X85325423Y-102634577D01*
X85677758Y-102870000D01*
X85325423Y-103105423D01*
X85008260Y-103580091D01*
X84896887Y-104140000D01*
X85008260Y-104699909D01*
X85325423Y-105174577D01*
X85677758Y-105410000D01*
X85325423Y-105645423D01*
X85008260Y-106120091D01*
X84896887Y-106680000D01*
X85008260Y-107239909D01*
X85325423Y-107714577D01*
X85677758Y-107950000D01*
X85325423Y-108185423D01*
X85008260Y-108660091D01*
X84896887Y-109220000D01*
X85008260Y-109779909D01*
X85325423Y-110254577D01*
X85677758Y-110490000D01*
X85325423Y-110725423D01*
X85008260Y-111200091D01*
X84896887Y-111760000D01*
X85008260Y-112319909D01*
X85325423Y-112794577D01*
X85800091Y-113111740D01*
X86218667Y-113195000D01*
X86501333Y-113195000D01*
X86919909Y-113111740D01*
X87394577Y-112794577D01*
X87544550Y-112570126D01*
X90405000Y-112570126D01*
X90405000Y-112981874D01*
X90562569Y-113362280D01*
X90853720Y-113653431D01*
X91234126Y-113811000D01*
X91645874Y-113811000D01*
X92026280Y-113653431D01*
X92078211Y-113601500D01*
X94865789Y-113601500D01*
X94917720Y-113653431D01*
X95298126Y-113811000D01*
X95709874Y-113811000D01*
X96090280Y-113653431D01*
X96381431Y-113362280D01*
X96539000Y-112981874D01*
X96539000Y-112570126D01*
X96381431Y-112189720D01*
X96090280Y-111898569D01*
X95709874Y-111741000D01*
X95298126Y-111741000D01*
X94917720Y-111898569D01*
X94865789Y-111950500D01*
X92078211Y-111950500D01*
X92026280Y-111898569D01*
X91645874Y-111741000D01*
X91234126Y-111741000D01*
X90853720Y-111898569D01*
X90562569Y-112189720D01*
X90405000Y-112570126D01*
X87544550Y-112570126D01*
X87711740Y-112319909D01*
X87823113Y-111760000D01*
X87711740Y-111200091D01*
X87394577Y-110725423D01*
X87042242Y-110490000D01*
X87394577Y-110254577D01*
X87711740Y-109779909D01*
X87823113Y-109220000D01*
X87711740Y-108660091D01*
X87394577Y-108185423D01*
X87042242Y-107950000D01*
X87394577Y-107714577D01*
X87711740Y-107239909D01*
X87823113Y-106680000D01*
X87711740Y-106120091D01*
X87394577Y-105645423D01*
X87042242Y-105410000D01*
X87394577Y-105174577D01*
X87711740Y-104699909D01*
X87823113Y-104140000D01*
X87711740Y-103580091D01*
X87394577Y-103105423D01*
X87042242Y-102870000D01*
X87394577Y-102634577D01*
X87711740Y-102159909D01*
X87823113Y-101600000D01*
X87711740Y-101040091D01*
X87394577Y-100565423D01*
X87042242Y-100330000D01*
X87394577Y-100094577D01*
X87711740Y-99619909D01*
X87823113Y-99060000D01*
X87711740Y-98500091D01*
X87394577Y-98025423D01*
X87042242Y-97790000D01*
X89925908Y-97790000D01*
X90041161Y-98369418D01*
X90369375Y-98860625D01*
X90860582Y-99188839D01*
X91293744Y-99275000D01*
X91586256Y-99275000D01*
X92019418Y-99188839D01*
X92510625Y-98860625D01*
X92710000Y-98562239D01*
X92909375Y-98860625D01*
X93400582Y-99188839D01*
X93833744Y-99275000D01*
X94126256Y-99275000D01*
X94559418Y-99188839D01*
X95050625Y-98860625D01*
X95062816Y-98842381D01*
X95071843Y-98887765D01*
X95212191Y-99097809D01*
X95422235Y-99238157D01*
X95670000Y-99287440D01*
X97370000Y-99287440D01*
X97617765Y-99238157D01*
X97827809Y-99097809D01*
X97968157Y-98887765D01*
X98017440Y-98640000D01*
X98017440Y-96940000D01*
X97968157Y-96692235D01*
X97827809Y-96482191D01*
X97617765Y-96341843D01*
X97370000Y-96292560D01*
X95670000Y-96292560D01*
X95422235Y-96341843D01*
X95212191Y-96482191D01*
X95071843Y-96692235D01*
X95062816Y-96737619D01*
X95050625Y-96719375D01*
X94559418Y-96391161D01*
X94126256Y-96305000D01*
X93833744Y-96305000D01*
X93400582Y-96391161D01*
X92909375Y-96719375D01*
X92710000Y-97017761D01*
X92510625Y-96719375D01*
X92019418Y-96391161D01*
X91586256Y-96305000D01*
X91293744Y-96305000D01*
X90860582Y-96391161D01*
X90369375Y-96719375D01*
X90041161Y-97210582D01*
X89925908Y-97790000D01*
X87042242Y-97790000D01*
X87394577Y-97554577D01*
X87711740Y-97079909D01*
X87823113Y-96520000D01*
X87711740Y-95960091D01*
X87394577Y-95485423D01*
X87042242Y-95250000D01*
X87394577Y-95014577D01*
X87711740Y-94539909D01*
X87823113Y-93980000D01*
X89925908Y-93980000D01*
X90041161Y-94559418D01*
X90369375Y-95050625D01*
X90860582Y-95378839D01*
X91293744Y-95465000D01*
X91586256Y-95465000D01*
X92019418Y-95378839D01*
X92510625Y-95050625D01*
X92710000Y-94752239D01*
X92909375Y-95050625D01*
X93400582Y-95378839D01*
X93833744Y-95465000D01*
X94126256Y-95465000D01*
X94559418Y-95378839D01*
X95050625Y-95050625D01*
X95062816Y-95032381D01*
X95071843Y-95077765D01*
X95212191Y-95287809D01*
X95422235Y-95428157D01*
X95670000Y-95477440D01*
X97370000Y-95477440D01*
X97617765Y-95428157D01*
X97827809Y-95287809D01*
X97968157Y-95077765D01*
X98017440Y-94830000D01*
X98017440Y-93130000D01*
X97968157Y-92882235D01*
X97827809Y-92672191D01*
X97617765Y-92531843D01*
X97370000Y-92482560D01*
X95670000Y-92482560D01*
X95422235Y-92531843D01*
X95212191Y-92672191D01*
X95071843Y-92882235D01*
X95062816Y-92927619D01*
X95050625Y-92909375D01*
X94559418Y-92581161D01*
X94126256Y-92495000D01*
X93833744Y-92495000D01*
X93400582Y-92581161D01*
X92909375Y-92909375D01*
X92710000Y-93207761D01*
X92510625Y-92909375D01*
X92019418Y-92581161D01*
X91586256Y-92495000D01*
X91293744Y-92495000D01*
X90860582Y-92581161D01*
X90369375Y-92909375D01*
X90041161Y-93400582D01*
X89925908Y-93980000D01*
X87823113Y-93980000D01*
X87711740Y-93420091D01*
X87394577Y-92945423D01*
X87042242Y-92710000D01*
X87394577Y-92474577D01*
X87711740Y-91999909D01*
X87823113Y-91440000D01*
X87711740Y-90880091D01*
X87394577Y-90405423D01*
X87042242Y-90170000D01*
X87394577Y-89934577D01*
X87711740Y-89459909D01*
X87823113Y-88900000D01*
X87711740Y-88340091D01*
X87394577Y-87865423D01*
X87042242Y-87630000D01*
X87394577Y-87394577D01*
X87711740Y-86919909D01*
X87823113Y-86360000D01*
X87711740Y-85800091D01*
X87394577Y-85325423D01*
X86919909Y-85008260D01*
X86501333Y-84925000D01*
X86218667Y-84925000D01*
X85800091Y-85008260D01*
X85325423Y-85325423D01*
X85008260Y-85800091D01*
X84896887Y-86360000D01*
X84530000Y-86360000D01*
X84530000Y-78740000D01*
X84896887Y-78740000D01*
X85008260Y-79299909D01*
X85325423Y-79774577D01*
X85677758Y-80010000D01*
X85325423Y-80245423D01*
X85008260Y-80720091D01*
X84896887Y-81280000D01*
X85008260Y-81839909D01*
X85325423Y-82314577D01*
X85800091Y-82631740D01*
X86218667Y-82715000D01*
X86501333Y-82715000D01*
X86919909Y-82631740D01*
X87394577Y-82314577D01*
X87711740Y-81839909D01*
X87823113Y-81280000D01*
X87711740Y-80720091D01*
X87394577Y-80245423D01*
X87042242Y-80010000D01*
X87394577Y-79774577D01*
X87711740Y-79299909D01*
X87823113Y-78740000D01*
X87711740Y-78180091D01*
X87394577Y-77705423D01*
X87273894Y-77624785D01*
X87407765Y-77598157D01*
X87617809Y-77457809D01*
X87758157Y-77247765D01*
X87807440Y-77000000D01*
X87807440Y-76200000D01*
X100136887Y-76200000D01*
X100248260Y-76759909D01*
X100565423Y-77234577D01*
X101040091Y-77551740D01*
X101458667Y-77635000D01*
X101741333Y-77635000D01*
X102159909Y-77551740D01*
X102634577Y-77234577D01*
X102951740Y-76759909D01*
X103063113Y-76200000D01*
X102951740Y-75640091D01*
X102634577Y-75165423D01*
X102159909Y-74848260D01*
X101741333Y-74765000D01*
X101458667Y-74765000D01*
X101040091Y-74848260D01*
X100565423Y-75165423D01*
X100248260Y-75640091D01*
X100136887Y-76200000D01*
X87807440Y-76200000D01*
X87807440Y-75400000D01*
X87758157Y-75152235D01*
X87617809Y-74942191D01*
X87407765Y-74801843D01*
X87160000Y-74752560D01*
X85560000Y-74752560D01*
X85312235Y-74801843D01*
X85102191Y-74942191D01*
X84961843Y-75152235D01*
X84912560Y-75400000D01*
X84912560Y-77000000D01*
X84961843Y-77247765D01*
X85102191Y-77457809D01*
X85312235Y-77598157D01*
X85446106Y-77624785D01*
X85325423Y-77705423D01*
X85008260Y-78180091D01*
X84896887Y-78740000D01*
X84530000Y-78740000D01*
X84530000Y-70842119D01*
X88773000Y-70842119D01*
X88773000Y-71397881D01*
X88985680Y-71911337D01*
X89378663Y-72304320D01*
X89892119Y-72517000D01*
X90447881Y-72517000D01*
X90961337Y-72304320D01*
X91354320Y-71911337D01*
X91440000Y-71704487D01*
X91525680Y-71911337D01*
X91918663Y-72304320D01*
X92432119Y-72517000D01*
X92987881Y-72517000D01*
X93501337Y-72304320D01*
X93894320Y-71911337D01*
X93980000Y-71704487D01*
X94065680Y-71911337D01*
X94458663Y-72304320D01*
X94972119Y-72517000D01*
X95527881Y-72517000D01*
X96041337Y-72304320D01*
X96434320Y-71911337D01*
X96647000Y-71397881D01*
X96647000Y-70842119D01*
X96434320Y-70328663D01*
X96041337Y-69935680D01*
X95527881Y-69723000D01*
X94972119Y-69723000D01*
X94458663Y-69935680D01*
X94065680Y-70328663D01*
X93980000Y-70535513D01*
X93894320Y-70328663D01*
X93501337Y-69935680D01*
X92987881Y-69723000D01*
X92432119Y-69723000D01*
X91918663Y-69935680D01*
X91525680Y-70328663D01*
X91440000Y-70535513D01*
X91354320Y-70328663D01*
X90961337Y-69935680D01*
X90447881Y-69723000D01*
X89892119Y-69723000D01*
X89378663Y-69935680D01*
X88985680Y-70328663D01*
X88773000Y-70842119D01*
X84530000Y-70842119D01*
X84530000Y-62014567D01*
X86540000Y-62014567D01*
X86540000Y-62953433D01*
X86899289Y-63820833D01*
X87563167Y-64484711D01*
X88430567Y-64844000D01*
X89369433Y-64844000D01*
X90236833Y-64484711D01*
X90900711Y-63820833D01*
X91260000Y-62953433D01*
X91260000Y-62014567D01*
X96700000Y-62014567D01*
X96700000Y-62953433D01*
X97059289Y-63820833D01*
X97723167Y-64484711D01*
X98590567Y-64844000D01*
X99529433Y-64844000D01*
X100396833Y-64484711D01*
X101060711Y-63820833D01*
X101420000Y-62953433D01*
X101420000Y-62014567D01*
X101060711Y-61147167D01*
X100396833Y-60483289D01*
X99529433Y-60124000D01*
X98590567Y-60124000D01*
X97723167Y-60483289D01*
X97059289Y-61147167D01*
X96700000Y-62014567D01*
X91260000Y-62014567D01*
X90900711Y-61147167D01*
X90236833Y-60483289D01*
X89369433Y-60124000D01*
X88430567Y-60124000D01*
X87563167Y-60483289D01*
X86899289Y-61147167D01*
X86540000Y-62014567D01*
X84530000Y-62014567D01*
X84530000Y-61004666D01*
X84592958Y-60506302D01*
X84761305Y-60081107D01*
X85030101Y-59711142D01*
X85382462Y-59419644D01*
X85796244Y-59224933D01*
X86278662Y-59132907D01*
X86371164Y-59130000D01*
X101555334Y-59130000D01*
X102053698Y-59192958D01*
X102053698Y-59192958D01*
G37*
X102053698Y-59192958D02*
X102478893Y-59361305D01*
X102848858Y-59630101D01*
X103140356Y-59982462D01*
X103335067Y-60396244D01*
X103427093Y-60878662D01*
X103430001Y-60971195D01*
X103430000Y-137115333D01*
X103367042Y-137613699D01*
X103198697Y-138038889D01*
X102929899Y-138408859D01*
X102577541Y-138700355D01*
X102163756Y-138895067D01*
X101681339Y-138987093D01*
X101588836Y-138990000D01*
X86404667Y-138990000D01*
X85906301Y-138927042D01*
X85481111Y-138758697D01*
X85111141Y-138489899D01*
X84819645Y-138137541D01*
X84624933Y-137723756D01*
X84532907Y-137241339D01*
X84530000Y-137148836D01*
X84530000Y-134912567D01*
X86540000Y-134912567D01*
X86540000Y-135851433D01*
X86899289Y-136718833D01*
X87563167Y-137382711D01*
X88430567Y-137742000D01*
X89369433Y-137742000D01*
X90236833Y-137382711D01*
X90900711Y-136718833D01*
X91260000Y-135851433D01*
X91260000Y-134912567D01*
X96700000Y-134912567D01*
X96700000Y-135851433D01*
X97059289Y-136718833D01*
X97723167Y-137382711D01*
X98590567Y-137742000D01*
X99529433Y-137742000D01*
X100396833Y-137382711D01*
X101060711Y-136718833D01*
X101420000Y-135851433D01*
X101420000Y-134912567D01*
X101060711Y-134045167D01*
X100396833Y-133381289D01*
X99529433Y-133022000D01*
X98590567Y-133022000D01*
X97723167Y-133381289D01*
X97059289Y-134045167D01*
X96700000Y-134912567D01*
X91260000Y-134912567D01*
X90900711Y-134045167D01*
X90236833Y-133381289D01*
X89369433Y-133022000D01*
X88430567Y-133022000D01*
X87563167Y-133381289D01*
X86899289Y-134045167D01*
X86540000Y-134912567D01*
X84530000Y-134912567D01*
X84530000Y-126468119D01*
X91313000Y-126468119D01*
X91313000Y-127023881D01*
X91525680Y-127537337D01*
X91918663Y-127930320D01*
X92432119Y-128143000D01*
X92987881Y-128143000D01*
X93501337Y-127930320D01*
X93894320Y-127537337D01*
X93980000Y-127330487D01*
X94065680Y-127537337D01*
X94458663Y-127930320D01*
X94972119Y-128143000D01*
X95527881Y-128143000D01*
X96041337Y-127930320D01*
X96434320Y-127537337D01*
X96520000Y-127330487D01*
X96605680Y-127537337D01*
X96998663Y-127930320D01*
X97512119Y-128143000D01*
X98067881Y-128143000D01*
X98581337Y-127930320D01*
X98974320Y-127537337D01*
X99187000Y-127023881D01*
X99187000Y-126468119D01*
X98974320Y-125954663D01*
X98581337Y-125561680D01*
X98067881Y-125349000D01*
X97512119Y-125349000D01*
X96998663Y-125561680D01*
X96605680Y-125954663D01*
X96520000Y-126161513D01*
X96434320Y-125954663D01*
X96041337Y-125561680D01*
X95527881Y-125349000D01*
X94972119Y-125349000D01*
X94458663Y-125561680D01*
X94065680Y-125954663D01*
X93980000Y-126161513D01*
X93894320Y-125954663D01*
X93501337Y-125561680D01*
X92987881Y-125349000D01*
X92432119Y-125349000D01*
X91918663Y-125561680D01*
X91525680Y-125954663D01*
X91313000Y-126468119D01*
X84530000Y-126468119D01*
X84530000Y-123492126D01*
X85071000Y-123492126D01*
X85071000Y-123903874D01*
X85228569Y-124284280D01*
X85519720Y-124575431D01*
X85900126Y-124733000D01*
X86311874Y-124733000D01*
X86692280Y-124575431D01*
X86744211Y-124523500D01*
X93595789Y-124523500D01*
X93647720Y-124575431D01*
X94028126Y-124733000D01*
X94439874Y-124733000D01*
X94820280Y-124575431D01*
X94872211Y-124523500D01*
X98978699Y-124523500D01*
X99060000Y-124539672D01*
X99141301Y-124523500D01*
X99141303Y-124523500D01*
X99382094Y-124475604D01*
X99655152Y-124293152D01*
X99701209Y-124224223D01*
X100348226Y-123577207D01*
X100417152Y-123531152D01*
X100520884Y-123375906D01*
X100599604Y-123258095D01*
X100663672Y-122936000D01*
X100647500Y-122854697D01*
X100647500Y-112849419D01*
X101040091Y-113111740D01*
X101458667Y-113195000D01*
X101741333Y-113195000D01*
X102159909Y-113111740D01*
X102634577Y-112794577D01*
X102951740Y-112319909D01*
X103063113Y-111760000D01*
X102951740Y-111200091D01*
X102634577Y-110725423D01*
X102282242Y-110490000D01*
X102634577Y-110254577D01*
X102951740Y-109779909D01*
X103063113Y-109220000D01*
X102951740Y-108660091D01*
X102634577Y-108185423D01*
X102282242Y-107950000D01*
X102634577Y-107714577D01*
X102951740Y-107239909D01*
X103063113Y-106680000D01*
X102951740Y-106120091D01*
X102634577Y-105645423D01*
X102282242Y-105410000D01*
X102634577Y-105174577D01*
X102951740Y-104699909D01*
X103063113Y-104140000D01*
X102951740Y-103580091D01*
X102634577Y-103105423D01*
X102282242Y-102870000D01*
X102634577Y-102634577D01*
X102951740Y-102159909D01*
X103063113Y-101600000D01*
X102951740Y-101040091D01*
X102634577Y-100565423D01*
X102282242Y-100330000D01*
X102634577Y-100094577D01*
X102951740Y-99619909D01*
X103063113Y-99060000D01*
X102951740Y-98500091D01*
X102634577Y-98025423D01*
X102282242Y-97790000D01*
X102634577Y-97554577D01*
X102951740Y-97079909D01*
X103063113Y-96520000D01*
X102951740Y-95960091D01*
X102634577Y-95485423D01*
X102282242Y-95250000D01*
X102634577Y-95014577D01*
X102951740Y-94539909D01*
X103063113Y-93980000D01*
X102951740Y-93420091D01*
X102634577Y-92945423D01*
X102282242Y-92710000D01*
X102634577Y-92474577D01*
X102951740Y-91999909D01*
X103063113Y-91440000D01*
X102951740Y-90880091D01*
X102634577Y-90405423D01*
X102282242Y-90170000D01*
X102634577Y-89934577D01*
X102951740Y-89459909D01*
X103063113Y-88900000D01*
X102951740Y-88340091D01*
X102634577Y-87865423D01*
X102282242Y-87630000D01*
X102634577Y-87394577D01*
X102951740Y-86919909D01*
X103063113Y-86360000D01*
X102951740Y-85800091D01*
X102634577Y-85325423D01*
X102282242Y-85090000D01*
X102634577Y-84854577D01*
X102951740Y-84379909D01*
X103063113Y-83820000D01*
X102951740Y-83260091D01*
X102634577Y-82785423D01*
X102282242Y-82550000D01*
X102634577Y-82314577D01*
X102951740Y-81839909D01*
X103063113Y-81280000D01*
X102951740Y-80720091D01*
X102634577Y-80245423D01*
X102159909Y-79928260D01*
X101741333Y-79845000D01*
X101458667Y-79845000D01*
X101040091Y-79928260D01*
X100565423Y-80245423D01*
X100248260Y-80720091D01*
X100136887Y-81280000D01*
X100248260Y-81839909D01*
X100565423Y-82314577D01*
X100917758Y-82550000D01*
X100565423Y-82785423D01*
X100248260Y-83260091D01*
X100136887Y-83820000D01*
X100248260Y-84379909D01*
X100565423Y-84854577D01*
X100917758Y-85090000D01*
X100565423Y-85325423D01*
X100248260Y-85800091D01*
X100136887Y-86360000D01*
X100248260Y-86919909D01*
X100565423Y-87394577D01*
X100917758Y-87630000D01*
X100565423Y-87865423D01*
X100248260Y-88340091D01*
X100136887Y-88900000D01*
X100248260Y-89459909D01*
X100565423Y-89934577D01*
X100917758Y-90170000D01*
X100565423Y-90405423D01*
X100248260Y-90880091D01*
X100136887Y-91440000D01*
X100248260Y-91999909D01*
X100565423Y-92474577D01*
X100917758Y-92710000D01*
X100565423Y-92945423D01*
X100248260Y-93420091D01*
X100136887Y-93980000D01*
X100248260Y-94539909D01*
X100565423Y-95014577D01*
X100917758Y-95250000D01*
X100565423Y-95485423D01*
X100248260Y-95960091D01*
X100136887Y-96520000D01*
X100248260Y-97079909D01*
X100565423Y-97554577D01*
X100917758Y-97790000D01*
X100565423Y-98025423D01*
X100248260Y-98500091D01*
X100136887Y-99060000D01*
X100248260Y-99619909D01*
X100565423Y-100094577D01*
X100917758Y-100330000D01*
X100565423Y-100565423D01*
X100248260Y-101040091D01*
X100136887Y-101600000D01*
X100248260Y-102159909D01*
X100565423Y-102634577D01*
X100917758Y-102870000D01*
X100565423Y-103105423D01*
X100248260Y-103580091D01*
X100136887Y-104140000D01*
X100248260Y-104699909D01*
X100565423Y-105174577D01*
X100917758Y-105410000D01*
X100565423Y-105645423D01*
X100248260Y-106120091D01*
X100136887Y-106680000D01*
X100248260Y-107239909D01*
X100565423Y-107714577D01*
X100917758Y-107950000D01*
X100565423Y-108185423D01*
X100431607Y-108385692D01*
X100387328Y-108394500D01*
X100387327Y-108394500D01*
X100146536Y-108442396D01*
X99873478Y-108624848D01*
X99827423Y-108693774D01*
X99295777Y-109225421D01*
X99226848Y-109271478D01*
X99044396Y-109544537D01*
X99004278Y-109746227D01*
X98980328Y-109866630D01*
X98996500Y-109947932D01*
X98996501Y-122594066D01*
X98718068Y-122872500D01*
X94872211Y-122872500D01*
X94820280Y-122820569D01*
X94439874Y-122663000D01*
X94028126Y-122663000D01*
X93647720Y-122820569D01*
X93595789Y-122872500D01*
X86744211Y-122872500D01*
X86692280Y-122820569D01*
X86311874Y-122663000D01*
X85900126Y-122663000D01*
X85519720Y-122820569D01*
X85228569Y-123111720D01*
X85071000Y-123492126D01*
X84530000Y-123492126D01*
X84530000Y-86360000D01*
X84896887Y-86360000D01*
X85008260Y-86919909D01*
X85325423Y-87394577D01*
X85677758Y-87630000D01*
X85325423Y-87865423D01*
X85008260Y-88340091D01*
X84896887Y-88900000D01*
X85008260Y-89459909D01*
X85325423Y-89934577D01*
X85677758Y-90170000D01*
X85325423Y-90405423D01*
X85008260Y-90880091D01*
X84896887Y-91440000D01*
X85008260Y-91999909D01*
X85325423Y-92474577D01*
X85677758Y-92710000D01*
X85325423Y-92945423D01*
X85008260Y-93420091D01*
X84896887Y-93980000D01*
X85008260Y-94539909D01*
X85325423Y-95014577D01*
X85677758Y-95250000D01*
X85325423Y-95485423D01*
X85008260Y-95960091D01*
X84896887Y-96520000D01*
X85008260Y-97079909D01*
X85325423Y-97554577D01*
X85677758Y-97790000D01*
X85325423Y-98025423D01*
X85008260Y-98500091D01*
X84896887Y-99060000D01*
X85008260Y-99619909D01*
X85325423Y-100094577D01*
X85677758Y-100330000D01*
X85325423Y-100565423D01*
X85008260Y-101040091D01*
X84896887Y-101600000D01*
X85008260Y-102159909D01*
X85325423Y-102634577D01*
X85677758Y-102870000D01*
X85325423Y-103105423D01*
X85008260Y-103580091D01*
X84896887Y-104140000D01*
X85008260Y-104699909D01*
X85325423Y-105174577D01*
X85677758Y-105410000D01*
X85325423Y-105645423D01*
X85008260Y-106120091D01*
X84896887Y-106680000D01*
X85008260Y-107239909D01*
X85325423Y-107714577D01*
X85677758Y-107950000D01*
X85325423Y-108185423D01*
X85008260Y-108660091D01*
X84896887Y-109220000D01*
X85008260Y-109779909D01*
X85325423Y-110254577D01*
X85677758Y-110490000D01*
X85325423Y-110725423D01*
X85008260Y-111200091D01*
X84896887Y-111760000D01*
X85008260Y-112319909D01*
X85325423Y-112794577D01*
X85800091Y-113111740D01*
X86218667Y-113195000D01*
X86501333Y-113195000D01*
X86919909Y-113111740D01*
X87394577Y-112794577D01*
X87544550Y-112570126D01*
X90405000Y-112570126D01*
X90405000Y-112981874D01*
X90562569Y-113362280D01*
X90853720Y-113653431D01*
X91234126Y-113811000D01*
X91645874Y-113811000D01*
X92026280Y-113653431D01*
X92078211Y-113601500D01*
X94865789Y-113601500D01*
X94917720Y-113653431D01*
X95298126Y-113811000D01*
X95709874Y-113811000D01*
X96090280Y-113653431D01*
X96381431Y-113362280D01*
X96539000Y-112981874D01*
X96539000Y-112570126D01*
X96381431Y-112189720D01*
X96090280Y-111898569D01*
X95709874Y-111741000D01*
X95298126Y-111741000D01*
X94917720Y-111898569D01*
X94865789Y-111950500D01*
X92078211Y-111950500D01*
X92026280Y-111898569D01*
X91645874Y-111741000D01*
X91234126Y-111741000D01*
X90853720Y-111898569D01*
X90562569Y-112189720D01*
X90405000Y-112570126D01*
X87544550Y-112570126D01*
X87711740Y-112319909D01*
X87823113Y-111760000D01*
X87711740Y-111200091D01*
X87394577Y-110725423D01*
X87042242Y-110490000D01*
X87394577Y-110254577D01*
X87711740Y-109779909D01*
X87823113Y-109220000D01*
X87711740Y-108660091D01*
X87394577Y-108185423D01*
X87042242Y-107950000D01*
X87394577Y-107714577D01*
X87711740Y-107239909D01*
X87823113Y-106680000D01*
X87711740Y-106120091D01*
X87394577Y-105645423D01*
X87042242Y-105410000D01*
X87394577Y-105174577D01*
X87711740Y-104699909D01*
X87823113Y-104140000D01*
X87711740Y-103580091D01*
X87394577Y-103105423D01*
X87042242Y-102870000D01*
X87394577Y-102634577D01*
X87711740Y-102159909D01*
X87823113Y-101600000D01*
X87711740Y-101040091D01*
X87394577Y-100565423D01*
X87042242Y-100330000D01*
X87394577Y-100094577D01*
X87711740Y-99619909D01*
X87823113Y-99060000D01*
X87711740Y-98500091D01*
X87394577Y-98025423D01*
X87042242Y-97790000D01*
X89925908Y-97790000D01*
X90041161Y-98369418D01*
X90369375Y-98860625D01*
X90860582Y-99188839D01*
X91293744Y-99275000D01*
X91586256Y-99275000D01*
X92019418Y-99188839D01*
X92510625Y-98860625D01*
X92710000Y-98562239D01*
X92909375Y-98860625D01*
X93400582Y-99188839D01*
X93833744Y-99275000D01*
X94126256Y-99275000D01*
X94559418Y-99188839D01*
X95050625Y-98860625D01*
X95062816Y-98842381D01*
X95071843Y-98887765D01*
X95212191Y-99097809D01*
X95422235Y-99238157D01*
X95670000Y-99287440D01*
X97370000Y-99287440D01*
X97617765Y-99238157D01*
X97827809Y-99097809D01*
X97968157Y-98887765D01*
X98017440Y-98640000D01*
X98017440Y-96940000D01*
X97968157Y-96692235D01*
X97827809Y-96482191D01*
X97617765Y-96341843D01*
X97370000Y-96292560D01*
X95670000Y-96292560D01*
X95422235Y-96341843D01*
X95212191Y-96482191D01*
X95071843Y-96692235D01*
X95062816Y-96737619D01*
X95050625Y-96719375D01*
X94559418Y-96391161D01*
X94126256Y-96305000D01*
X93833744Y-96305000D01*
X93400582Y-96391161D01*
X92909375Y-96719375D01*
X92710000Y-97017761D01*
X92510625Y-96719375D01*
X92019418Y-96391161D01*
X91586256Y-96305000D01*
X91293744Y-96305000D01*
X90860582Y-96391161D01*
X90369375Y-96719375D01*
X90041161Y-97210582D01*
X89925908Y-97790000D01*
X87042242Y-97790000D01*
X87394577Y-97554577D01*
X87711740Y-97079909D01*
X87823113Y-96520000D01*
X87711740Y-95960091D01*
X87394577Y-95485423D01*
X87042242Y-95250000D01*
X87394577Y-95014577D01*
X87711740Y-94539909D01*
X87823113Y-93980000D01*
X89925908Y-93980000D01*
X90041161Y-94559418D01*
X90369375Y-95050625D01*
X90860582Y-95378839D01*
X91293744Y-95465000D01*
X91586256Y-95465000D01*
X92019418Y-95378839D01*
X92510625Y-95050625D01*
X92710000Y-94752239D01*
X92909375Y-95050625D01*
X93400582Y-95378839D01*
X93833744Y-95465000D01*
X94126256Y-95465000D01*
X94559418Y-95378839D01*
X95050625Y-95050625D01*
X95062816Y-95032381D01*
X95071843Y-95077765D01*
X95212191Y-95287809D01*
X95422235Y-95428157D01*
X95670000Y-95477440D01*
X97370000Y-95477440D01*
X97617765Y-95428157D01*
X97827809Y-95287809D01*
X97968157Y-95077765D01*
X98017440Y-94830000D01*
X98017440Y-93130000D01*
X97968157Y-92882235D01*
X97827809Y-92672191D01*
X97617765Y-92531843D01*
X97370000Y-92482560D01*
X95670000Y-92482560D01*
X95422235Y-92531843D01*
X95212191Y-92672191D01*
X95071843Y-92882235D01*
X95062816Y-92927619D01*
X95050625Y-92909375D01*
X94559418Y-92581161D01*
X94126256Y-92495000D01*
X93833744Y-92495000D01*
X93400582Y-92581161D01*
X92909375Y-92909375D01*
X92710000Y-93207761D01*
X92510625Y-92909375D01*
X92019418Y-92581161D01*
X91586256Y-92495000D01*
X91293744Y-92495000D01*
X90860582Y-92581161D01*
X90369375Y-92909375D01*
X90041161Y-93400582D01*
X89925908Y-93980000D01*
X87823113Y-93980000D01*
X87711740Y-93420091D01*
X87394577Y-92945423D01*
X87042242Y-92710000D01*
X87394577Y-92474577D01*
X87711740Y-91999909D01*
X87823113Y-91440000D01*
X87711740Y-90880091D01*
X87394577Y-90405423D01*
X87042242Y-90170000D01*
X87394577Y-89934577D01*
X87711740Y-89459909D01*
X87823113Y-88900000D01*
X87711740Y-88340091D01*
X87394577Y-87865423D01*
X87042242Y-87630000D01*
X87394577Y-87394577D01*
X87711740Y-86919909D01*
X87823113Y-86360000D01*
X87711740Y-85800091D01*
X87394577Y-85325423D01*
X86919909Y-85008260D01*
X86501333Y-84925000D01*
X86218667Y-84925000D01*
X85800091Y-85008260D01*
X85325423Y-85325423D01*
X85008260Y-85800091D01*
X84896887Y-86360000D01*
X84530000Y-86360000D01*
X84530000Y-78740000D01*
X84896887Y-78740000D01*
X85008260Y-79299909D01*
X85325423Y-79774577D01*
X85677758Y-80010000D01*
X85325423Y-80245423D01*
X85008260Y-80720091D01*
X84896887Y-81280000D01*
X85008260Y-81839909D01*
X85325423Y-82314577D01*
X85800091Y-82631740D01*
X86218667Y-82715000D01*
X86501333Y-82715000D01*
X86919909Y-82631740D01*
X87394577Y-82314577D01*
X87711740Y-81839909D01*
X87823113Y-81280000D01*
X87711740Y-80720091D01*
X87394577Y-80245423D01*
X87042242Y-80010000D01*
X87394577Y-79774577D01*
X87711740Y-79299909D01*
X87823113Y-78740000D01*
X87711740Y-78180091D01*
X87394577Y-77705423D01*
X87273894Y-77624785D01*
X87407765Y-77598157D01*
X87617809Y-77457809D01*
X87758157Y-77247765D01*
X87807440Y-77000000D01*
X87807440Y-76200000D01*
X100136887Y-76200000D01*
X100248260Y-76759909D01*
X100565423Y-77234577D01*
X101040091Y-77551740D01*
X101458667Y-77635000D01*
X101741333Y-77635000D01*
X102159909Y-77551740D01*
X102634577Y-77234577D01*
X102951740Y-76759909D01*
X103063113Y-76200000D01*
X102951740Y-75640091D01*
X102634577Y-75165423D01*
X102159909Y-74848260D01*
X101741333Y-74765000D01*
X101458667Y-74765000D01*
X101040091Y-74848260D01*
X100565423Y-75165423D01*
X100248260Y-75640091D01*
X100136887Y-76200000D01*
X87807440Y-76200000D01*
X87807440Y-75400000D01*
X87758157Y-75152235D01*
X87617809Y-74942191D01*
X87407765Y-74801843D01*
X87160000Y-74752560D01*
X85560000Y-74752560D01*
X85312235Y-74801843D01*
X85102191Y-74942191D01*
X84961843Y-75152235D01*
X84912560Y-75400000D01*
X84912560Y-77000000D01*
X84961843Y-77247765D01*
X85102191Y-77457809D01*
X85312235Y-77598157D01*
X85446106Y-77624785D01*
X85325423Y-77705423D01*
X85008260Y-78180091D01*
X84896887Y-78740000D01*
X84530000Y-78740000D01*
X84530000Y-70842119D01*
X88773000Y-70842119D01*
X88773000Y-71397881D01*
X88985680Y-71911337D01*
X89378663Y-72304320D01*
X89892119Y-72517000D01*
X90447881Y-72517000D01*
X90961337Y-72304320D01*
X91354320Y-71911337D01*
X91440000Y-71704487D01*
X91525680Y-71911337D01*
X91918663Y-72304320D01*
X92432119Y-72517000D01*
X92987881Y-72517000D01*
X93501337Y-72304320D01*
X93894320Y-71911337D01*
X93980000Y-71704487D01*
X94065680Y-71911337D01*
X94458663Y-72304320D01*
X94972119Y-72517000D01*
X95527881Y-72517000D01*
X96041337Y-72304320D01*
X96434320Y-71911337D01*
X96647000Y-71397881D01*
X96647000Y-70842119D01*
X96434320Y-70328663D01*
X96041337Y-69935680D01*
X95527881Y-69723000D01*
X94972119Y-69723000D01*
X94458663Y-69935680D01*
X94065680Y-70328663D01*
X93980000Y-70535513D01*
X93894320Y-70328663D01*
X93501337Y-69935680D01*
X92987881Y-69723000D01*
X92432119Y-69723000D01*
X91918663Y-69935680D01*
X91525680Y-70328663D01*
X91440000Y-70535513D01*
X91354320Y-70328663D01*
X90961337Y-69935680D01*
X90447881Y-69723000D01*
X89892119Y-69723000D01*
X89378663Y-69935680D01*
X88985680Y-70328663D01*
X88773000Y-70842119D01*
X84530000Y-70842119D01*
X84530000Y-62014567D01*
X86540000Y-62014567D01*
X86540000Y-62953433D01*
X86899289Y-63820833D01*
X87563167Y-64484711D01*
X88430567Y-64844000D01*
X89369433Y-64844000D01*
X90236833Y-64484711D01*
X90900711Y-63820833D01*
X91260000Y-62953433D01*
X91260000Y-62014567D01*
X96700000Y-62014567D01*
X96700000Y-62953433D01*
X97059289Y-63820833D01*
X97723167Y-64484711D01*
X98590567Y-64844000D01*
X99529433Y-64844000D01*
X100396833Y-64484711D01*
X101060711Y-63820833D01*
X101420000Y-62953433D01*
X101420000Y-62014567D01*
X101060711Y-61147167D01*
X100396833Y-60483289D01*
X99529433Y-60124000D01*
X98590567Y-60124000D01*
X97723167Y-60483289D01*
X97059289Y-61147167D01*
X96700000Y-62014567D01*
X91260000Y-62014567D01*
X90900711Y-61147167D01*
X90236833Y-60483289D01*
X89369433Y-60124000D01*
X88430567Y-60124000D01*
X87563167Y-60483289D01*
X86899289Y-61147167D01*
X86540000Y-62014567D01*
X84530000Y-62014567D01*
X84530000Y-61004666D01*
X84592958Y-60506302D01*
X84761305Y-60081107D01*
X85030101Y-59711142D01*
X85382462Y-59419644D01*
X85796244Y-59224933D01*
X86278662Y-59132907D01*
X86371164Y-59130000D01*
X101555334Y-59130000D01*
X102053698Y-59192958D01*
G04 #@! TD*
M02*
