M48
;DRILL file {KiCad (5.0.2)-1} date 4/17/2019 6:19:46 PM
;FORMAT={-:-/ absolute / inch / decimal}
FMAT,2
INCH,TZ
T1C0.0157
T2C0.0315
T3C0.0354
T4C0.0394
%
G90
G05
T1
X3.35Y-2.45
X3.35Y-5.36
X3.54Y-4.71
X3.69Y-4.83
X3.8844Y-4.68
X4.05Y-5.36
T2
X3.4Y-3.
X3.4Y-3.1
X3.4Y-3.2
X3.4Y-3.3
X3.4Y-3.4
X3.4Y-3.5
X3.4Y-3.6
X3.4Y-3.7
X3.4Y-3.8
X3.4Y-3.9
X3.4Y-4.
X3.4Y-4.1
X3.4Y-4.2
X3.4Y-4.3
X3.4Y-4.4
X4.Y-3.
X4.Y-3.1
X4.Y-3.2
X4.Y-3.3
X4.Y-3.4
X4.Y-3.5
X4.Y-3.6
X4.Y-3.7
X4.Y-3.8
X4.Y-3.9
X4.Y-4.
X4.Y-4.1
X4.Y-4.2
X4.Y-4.3
X4.Y-4.4
T3
X3.55Y-2.8
X3.65Y-2.8
X3.75Y-2.8
X3.85Y-2.8
X3.55Y-4.99
X3.65Y-4.99
X3.75Y-4.99
X3.85Y-4.99
T4
X3.6Y-3.85
X3.7Y-3.85
X3.8Y-3.85
X3.6Y-3.7
X3.7Y-3.7
X3.8Y-3.7
T0
M30
