G04 #@! TF.GenerationSoftware,KiCad,Pcbnew,(5.0.2)-1*
G04 #@! TF.CreationDate,2019-04-19T10:08:56-05:00*
G04 #@! TF.ProjectId,ArduinoNanoInterface_Hardware,41726475-696e-46f4-9e61-6e6f496e7465,rev?*
G04 #@! TF.SameCoordinates,Original*
G04 #@! TF.FileFunction,Paste,Top*
G04 #@! TF.FilePolarity,Positive*
%FSLAX46Y46*%
G04 Gerber Fmt 4.6, Leading zero omitted, Abs format (unit mm)*
G04 Created by KiCad (PCBNEW (5.0.2)-1) date 4/19/2019 10:08:56 AM*
%MOMM*%
%LPD*%
G01*
G04 APERTURE LIST*
%ADD10C,0.100000*%
%ADD11C,0.950000*%
%ADD12R,0.800000X0.900000*%
G04 APERTURE END LIST*
D10*
G04 #@! TO.C,R4*
G36*
X91700779Y-115808144D02*
X91723834Y-115811563D01*
X91746443Y-115817227D01*
X91768387Y-115825079D01*
X91789457Y-115835044D01*
X91809448Y-115847026D01*
X91828168Y-115860910D01*
X91845438Y-115876562D01*
X91861090Y-115893832D01*
X91874974Y-115912552D01*
X91886956Y-115932543D01*
X91896921Y-115953613D01*
X91904773Y-115975557D01*
X91910437Y-115998166D01*
X91913856Y-116021221D01*
X91915000Y-116044500D01*
X91915000Y-116619500D01*
X91913856Y-116642779D01*
X91910437Y-116665834D01*
X91904773Y-116688443D01*
X91896921Y-116710387D01*
X91886956Y-116731457D01*
X91874974Y-116751448D01*
X91861090Y-116770168D01*
X91845438Y-116787438D01*
X91828168Y-116803090D01*
X91809448Y-116816974D01*
X91789457Y-116828956D01*
X91768387Y-116838921D01*
X91746443Y-116846773D01*
X91723834Y-116852437D01*
X91700779Y-116855856D01*
X91677500Y-116857000D01*
X91202500Y-116857000D01*
X91179221Y-116855856D01*
X91156166Y-116852437D01*
X91133557Y-116846773D01*
X91111613Y-116838921D01*
X91090543Y-116828956D01*
X91070552Y-116816974D01*
X91051832Y-116803090D01*
X91034562Y-116787438D01*
X91018910Y-116770168D01*
X91005026Y-116751448D01*
X90993044Y-116731457D01*
X90983079Y-116710387D01*
X90975227Y-116688443D01*
X90969563Y-116665834D01*
X90966144Y-116642779D01*
X90965000Y-116619500D01*
X90965000Y-116044500D01*
X90966144Y-116021221D01*
X90969563Y-115998166D01*
X90975227Y-115975557D01*
X90983079Y-115953613D01*
X90993044Y-115932543D01*
X91005026Y-115912552D01*
X91018910Y-115893832D01*
X91034562Y-115876562D01*
X91051832Y-115860910D01*
X91070552Y-115847026D01*
X91090543Y-115835044D01*
X91111613Y-115825079D01*
X91133557Y-115817227D01*
X91156166Y-115811563D01*
X91179221Y-115808144D01*
X91202500Y-115807000D01*
X91677500Y-115807000D01*
X91700779Y-115808144D01*
X91700779Y-115808144D01*
G37*
D11*
X91440000Y-116332000D03*
D10*
G36*
X91700779Y-114058144D02*
X91723834Y-114061563D01*
X91746443Y-114067227D01*
X91768387Y-114075079D01*
X91789457Y-114085044D01*
X91809448Y-114097026D01*
X91828168Y-114110910D01*
X91845438Y-114126562D01*
X91861090Y-114143832D01*
X91874974Y-114162552D01*
X91886956Y-114182543D01*
X91896921Y-114203613D01*
X91904773Y-114225557D01*
X91910437Y-114248166D01*
X91913856Y-114271221D01*
X91915000Y-114294500D01*
X91915000Y-114869500D01*
X91913856Y-114892779D01*
X91910437Y-114915834D01*
X91904773Y-114938443D01*
X91896921Y-114960387D01*
X91886956Y-114981457D01*
X91874974Y-115001448D01*
X91861090Y-115020168D01*
X91845438Y-115037438D01*
X91828168Y-115053090D01*
X91809448Y-115066974D01*
X91789457Y-115078956D01*
X91768387Y-115088921D01*
X91746443Y-115096773D01*
X91723834Y-115102437D01*
X91700779Y-115105856D01*
X91677500Y-115107000D01*
X91202500Y-115107000D01*
X91179221Y-115105856D01*
X91156166Y-115102437D01*
X91133557Y-115096773D01*
X91111613Y-115088921D01*
X91090543Y-115078956D01*
X91070552Y-115066974D01*
X91051832Y-115053090D01*
X91034562Y-115037438D01*
X91018910Y-115020168D01*
X91005026Y-115001448D01*
X90993044Y-114981457D01*
X90983079Y-114960387D01*
X90975227Y-114938443D01*
X90969563Y-114915834D01*
X90966144Y-114892779D01*
X90965000Y-114869500D01*
X90965000Y-114294500D01*
X90966144Y-114271221D01*
X90969563Y-114248166D01*
X90975227Y-114225557D01*
X90983079Y-114203613D01*
X90993044Y-114182543D01*
X91005026Y-114162552D01*
X91018910Y-114143832D01*
X91034562Y-114126562D01*
X91051832Y-114110910D01*
X91070552Y-114097026D01*
X91090543Y-114085044D01*
X91111613Y-114075079D01*
X91133557Y-114067227D01*
X91156166Y-114061563D01*
X91179221Y-114058144D01*
X91202500Y-114057000D01*
X91677500Y-114057000D01*
X91700779Y-114058144D01*
X91700779Y-114058144D01*
G37*
D11*
X91440000Y-114582000D03*
G04 #@! TD*
D12*
G04 #@! TO.C,Q2*
X89662000Y-120158000D03*
X90612000Y-122158000D03*
X88712000Y-122158000D03*
G04 #@! TD*
D10*
G04 #@! TO.C,D1*
G36*
X85350779Y-63766144D02*
X85373834Y-63769563D01*
X85396443Y-63775227D01*
X85418387Y-63783079D01*
X85439457Y-63793044D01*
X85459448Y-63805026D01*
X85478168Y-63818910D01*
X85495438Y-63834562D01*
X85511090Y-63851832D01*
X85524974Y-63870552D01*
X85536956Y-63890543D01*
X85546921Y-63911613D01*
X85554773Y-63933557D01*
X85560437Y-63956166D01*
X85563856Y-63979221D01*
X85565000Y-64002500D01*
X85565000Y-64577500D01*
X85563856Y-64600779D01*
X85560437Y-64623834D01*
X85554773Y-64646443D01*
X85546921Y-64668387D01*
X85536956Y-64689457D01*
X85524974Y-64709448D01*
X85511090Y-64728168D01*
X85495438Y-64745438D01*
X85478168Y-64761090D01*
X85459448Y-64774974D01*
X85439457Y-64786956D01*
X85418387Y-64796921D01*
X85396443Y-64804773D01*
X85373834Y-64810437D01*
X85350779Y-64813856D01*
X85327500Y-64815000D01*
X84852500Y-64815000D01*
X84829221Y-64813856D01*
X84806166Y-64810437D01*
X84783557Y-64804773D01*
X84761613Y-64796921D01*
X84740543Y-64786956D01*
X84720552Y-64774974D01*
X84701832Y-64761090D01*
X84684562Y-64745438D01*
X84668910Y-64728168D01*
X84655026Y-64709448D01*
X84643044Y-64689457D01*
X84633079Y-64668387D01*
X84625227Y-64646443D01*
X84619563Y-64623834D01*
X84616144Y-64600779D01*
X84615000Y-64577500D01*
X84615000Y-64002500D01*
X84616144Y-63979221D01*
X84619563Y-63956166D01*
X84625227Y-63933557D01*
X84633079Y-63911613D01*
X84643044Y-63890543D01*
X84655026Y-63870552D01*
X84668910Y-63851832D01*
X84684562Y-63834562D01*
X84701832Y-63818910D01*
X84720552Y-63805026D01*
X84740543Y-63793044D01*
X84761613Y-63783079D01*
X84783557Y-63775227D01*
X84806166Y-63769563D01*
X84829221Y-63766144D01*
X84852500Y-63765000D01*
X85327500Y-63765000D01*
X85350779Y-63766144D01*
X85350779Y-63766144D01*
G37*
D11*
X85090000Y-64290000D03*
D10*
G36*
X85350779Y-65516144D02*
X85373834Y-65519563D01*
X85396443Y-65525227D01*
X85418387Y-65533079D01*
X85439457Y-65543044D01*
X85459448Y-65555026D01*
X85478168Y-65568910D01*
X85495438Y-65584562D01*
X85511090Y-65601832D01*
X85524974Y-65620552D01*
X85536956Y-65640543D01*
X85546921Y-65661613D01*
X85554773Y-65683557D01*
X85560437Y-65706166D01*
X85563856Y-65729221D01*
X85565000Y-65752500D01*
X85565000Y-66327500D01*
X85563856Y-66350779D01*
X85560437Y-66373834D01*
X85554773Y-66396443D01*
X85546921Y-66418387D01*
X85536956Y-66439457D01*
X85524974Y-66459448D01*
X85511090Y-66478168D01*
X85495438Y-66495438D01*
X85478168Y-66511090D01*
X85459448Y-66524974D01*
X85439457Y-66536956D01*
X85418387Y-66546921D01*
X85396443Y-66554773D01*
X85373834Y-66560437D01*
X85350779Y-66563856D01*
X85327500Y-66565000D01*
X84852500Y-66565000D01*
X84829221Y-66563856D01*
X84806166Y-66560437D01*
X84783557Y-66554773D01*
X84761613Y-66546921D01*
X84740543Y-66536956D01*
X84720552Y-66524974D01*
X84701832Y-66511090D01*
X84684562Y-66495438D01*
X84668910Y-66478168D01*
X84655026Y-66459448D01*
X84643044Y-66439457D01*
X84633079Y-66418387D01*
X84625227Y-66396443D01*
X84619563Y-66373834D01*
X84616144Y-66350779D01*
X84615000Y-66327500D01*
X84615000Y-65752500D01*
X84616144Y-65729221D01*
X84619563Y-65706166D01*
X84625227Y-65683557D01*
X84633079Y-65661613D01*
X84643044Y-65640543D01*
X84655026Y-65620552D01*
X84668910Y-65601832D01*
X84684562Y-65584562D01*
X84701832Y-65568910D01*
X84720552Y-65555026D01*
X84740543Y-65543044D01*
X84761613Y-65533079D01*
X84783557Y-65525227D01*
X84806166Y-65519563D01*
X84829221Y-65516144D01*
X84852500Y-65515000D01*
X85327500Y-65515000D01*
X85350779Y-65516144D01*
X85350779Y-65516144D01*
G37*
D11*
X85090000Y-66040000D03*
G04 #@! TD*
D10*
G04 #@! TO.C,D2*
G36*
X103130779Y-131556144D02*
X103153834Y-131559563D01*
X103176443Y-131565227D01*
X103198387Y-131573079D01*
X103219457Y-131583044D01*
X103239448Y-131595026D01*
X103258168Y-131608910D01*
X103275438Y-131624562D01*
X103291090Y-131641832D01*
X103304974Y-131660552D01*
X103316956Y-131680543D01*
X103326921Y-131701613D01*
X103334773Y-131723557D01*
X103340437Y-131746166D01*
X103343856Y-131769221D01*
X103345000Y-131792500D01*
X103345000Y-132367500D01*
X103343856Y-132390779D01*
X103340437Y-132413834D01*
X103334773Y-132436443D01*
X103326921Y-132458387D01*
X103316956Y-132479457D01*
X103304974Y-132499448D01*
X103291090Y-132518168D01*
X103275438Y-132535438D01*
X103258168Y-132551090D01*
X103239448Y-132564974D01*
X103219457Y-132576956D01*
X103198387Y-132586921D01*
X103176443Y-132594773D01*
X103153834Y-132600437D01*
X103130779Y-132603856D01*
X103107500Y-132605000D01*
X102632500Y-132605000D01*
X102609221Y-132603856D01*
X102586166Y-132600437D01*
X102563557Y-132594773D01*
X102541613Y-132586921D01*
X102520543Y-132576956D01*
X102500552Y-132564974D01*
X102481832Y-132551090D01*
X102464562Y-132535438D01*
X102448910Y-132518168D01*
X102435026Y-132499448D01*
X102423044Y-132479457D01*
X102413079Y-132458387D01*
X102405227Y-132436443D01*
X102399563Y-132413834D01*
X102396144Y-132390779D01*
X102395000Y-132367500D01*
X102395000Y-131792500D01*
X102396144Y-131769221D01*
X102399563Y-131746166D01*
X102405227Y-131723557D01*
X102413079Y-131701613D01*
X102423044Y-131680543D01*
X102435026Y-131660552D01*
X102448910Y-131641832D01*
X102464562Y-131624562D01*
X102481832Y-131608910D01*
X102500552Y-131595026D01*
X102520543Y-131583044D01*
X102541613Y-131573079D01*
X102563557Y-131565227D01*
X102586166Y-131559563D01*
X102609221Y-131556144D01*
X102632500Y-131555000D01*
X103107500Y-131555000D01*
X103130779Y-131556144D01*
X103130779Y-131556144D01*
G37*
D11*
X102870000Y-132080000D03*
D10*
G36*
X103130779Y-133306144D02*
X103153834Y-133309563D01*
X103176443Y-133315227D01*
X103198387Y-133323079D01*
X103219457Y-133333044D01*
X103239448Y-133345026D01*
X103258168Y-133358910D01*
X103275438Y-133374562D01*
X103291090Y-133391832D01*
X103304974Y-133410552D01*
X103316956Y-133430543D01*
X103326921Y-133451613D01*
X103334773Y-133473557D01*
X103340437Y-133496166D01*
X103343856Y-133519221D01*
X103345000Y-133542500D01*
X103345000Y-134117500D01*
X103343856Y-134140779D01*
X103340437Y-134163834D01*
X103334773Y-134186443D01*
X103326921Y-134208387D01*
X103316956Y-134229457D01*
X103304974Y-134249448D01*
X103291090Y-134268168D01*
X103275438Y-134285438D01*
X103258168Y-134301090D01*
X103239448Y-134314974D01*
X103219457Y-134326956D01*
X103198387Y-134336921D01*
X103176443Y-134344773D01*
X103153834Y-134350437D01*
X103130779Y-134353856D01*
X103107500Y-134355000D01*
X102632500Y-134355000D01*
X102609221Y-134353856D01*
X102586166Y-134350437D01*
X102563557Y-134344773D01*
X102541613Y-134336921D01*
X102520543Y-134326956D01*
X102500552Y-134314974D01*
X102481832Y-134301090D01*
X102464562Y-134285438D01*
X102448910Y-134268168D01*
X102435026Y-134249448D01*
X102423044Y-134229457D01*
X102413079Y-134208387D01*
X102405227Y-134186443D01*
X102399563Y-134163834D01*
X102396144Y-134140779D01*
X102395000Y-134117500D01*
X102395000Y-133542500D01*
X102396144Y-133519221D01*
X102399563Y-133496166D01*
X102405227Y-133473557D01*
X102413079Y-133451613D01*
X102423044Y-133430543D01*
X102435026Y-133410552D01*
X102448910Y-133391832D01*
X102464562Y-133374562D01*
X102481832Y-133358910D01*
X102500552Y-133345026D01*
X102520543Y-133333044D01*
X102541613Y-133323079D01*
X102563557Y-133315227D01*
X102586166Y-133309563D01*
X102609221Y-133306144D01*
X102632500Y-133305000D01*
X103107500Y-133305000D01*
X103130779Y-133306144D01*
X103130779Y-133306144D01*
G37*
D11*
X102870000Y-133830000D03*
G04 #@! TD*
D10*
G04 #@! TO.C,D3*
G36*
X85350779Y-133306144D02*
X85373834Y-133309563D01*
X85396443Y-133315227D01*
X85418387Y-133323079D01*
X85439457Y-133333044D01*
X85459448Y-133345026D01*
X85478168Y-133358910D01*
X85495438Y-133374562D01*
X85511090Y-133391832D01*
X85524974Y-133410552D01*
X85536956Y-133430543D01*
X85546921Y-133451613D01*
X85554773Y-133473557D01*
X85560437Y-133496166D01*
X85563856Y-133519221D01*
X85565000Y-133542500D01*
X85565000Y-134117500D01*
X85563856Y-134140779D01*
X85560437Y-134163834D01*
X85554773Y-134186443D01*
X85546921Y-134208387D01*
X85536956Y-134229457D01*
X85524974Y-134249448D01*
X85511090Y-134268168D01*
X85495438Y-134285438D01*
X85478168Y-134301090D01*
X85459448Y-134314974D01*
X85439457Y-134326956D01*
X85418387Y-134336921D01*
X85396443Y-134344773D01*
X85373834Y-134350437D01*
X85350779Y-134353856D01*
X85327500Y-134355000D01*
X84852500Y-134355000D01*
X84829221Y-134353856D01*
X84806166Y-134350437D01*
X84783557Y-134344773D01*
X84761613Y-134336921D01*
X84740543Y-134326956D01*
X84720552Y-134314974D01*
X84701832Y-134301090D01*
X84684562Y-134285438D01*
X84668910Y-134268168D01*
X84655026Y-134249448D01*
X84643044Y-134229457D01*
X84633079Y-134208387D01*
X84625227Y-134186443D01*
X84619563Y-134163834D01*
X84616144Y-134140779D01*
X84615000Y-134117500D01*
X84615000Y-133542500D01*
X84616144Y-133519221D01*
X84619563Y-133496166D01*
X84625227Y-133473557D01*
X84633079Y-133451613D01*
X84643044Y-133430543D01*
X84655026Y-133410552D01*
X84668910Y-133391832D01*
X84684562Y-133374562D01*
X84701832Y-133358910D01*
X84720552Y-133345026D01*
X84740543Y-133333044D01*
X84761613Y-133323079D01*
X84783557Y-133315227D01*
X84806166Y-133309563D01*
X84829221Y-133306144D01*
X84852500Y-133305000D01*
X85327500Y-133305000D01*
X85350779Y-133306144D01*
X85350779Y-133306144D01*
G37*
D11*
X85090000Y-133830000D03*
D10*
G36*
X85350779Y-131556144D02*
X85373834Y-131559563D01*
X85396443Y-131565227D01*
X85418387Y-131573079D01*
X85439457Y-131583044D01*
X85459448Y-131595026D01*
X85478168Y-131608910D01*
X85495438Y-131624562D01*
X85511090Y-131641832D01*
X85524974Y-131660552D01*
X85536956Y-131680543D01*
X85546921Y-131701613D01*
X85554773Y-131723557D01*
X85560437Y-131746166D01*
X85563856Y-131769221D01*
X85565000Y-131792500D01*
X85565000Y-132367500D01*
X85563856Y-132390779D01*
X85560437Y-132413834D01*
X85554773Y-132436443D01*
X85546921Y-132458387D01*
X85536956Y-132479457D01*
X85524974Y-132499448D01*
X85511090Y-132518168D01*
X85495438Y-132535438D01*
X85478168Y-132551090D01*
X85459448Y-132564974D01*
X85439457Y-132576956D01*
X85418387Y-132586921D01*
X85396443Y-132594773D01*
X85373834Y-132600437D01*
X85350779Y-132603856D01*
X85327500Y-132605000D01*
X84852500Y-132605000D01*
X84829221Y-132603856D01*
X84806166Y-132600437D01*
X84783557Y-132594773D01*
X84761613Y-132586921D01*
X84740543Y-132576956D01*
X84720552Y-132564974D01*
X84701832Y-132551090D01*
X84684562Y-132535438D01*
X84668910Y-132518168D01*
X84655026Y-132499448D01*
X84643044Y-132479457D01*
X84633079Y-132458387D01*
X84625227Y-132436443D01*
X84619563Y-132413834D01*
X84616144Y-132390779D01*
X84615000Y-132367500D01*
X84615000Y-131792500D01*
X84616144Y-131769221D01*
X84619563Y-131746166D01*
X84625227Y-131723557D01*
X84633079Y-131701613D01*
X84643044Y-131680543D01*
X84655026Y-131660552D01*
X84668910Y-131641832D01*
X84684562Y-131624562D01*
X84701832Y-131608910D01*
X84720552Y-131595026D01*
X84740543Y-131583044D01*
X84761613Y-131573079D01*
X84783557Y-131565227D01*
X84806166Y-131559563D01*
X84829221Y-131556144D01*
X84852500Y-131555000D01*
X85327500Y-131555000D01*
X85350779Y-131556144D01*
X85350779Y-131556144D01*
G37*
D11*
X85090000Y-132080000D03*
G04 #@! TD*
D12*
G04 #@! TO.C,Q1*
X97856000Y-122158000D03*
X99756000Y-122158000D03*
X98806000Y-120158000D03*
G04 #@! TD*
D10*
G04 #@! TO.C,R1*
G36*
X99991779Y-123224144D02*
X100014834Y-123227563D01*
X100037443Y-123233227D01*
X100059387Y-123241079D01*
X100080457Y-123251044D01*
X100100448Y-123263026D01*
X100119168Y-123276910D01*
X100136438Y-123292562D01*
X100152090Y-123309832D01*
X100165974Y-123328552D01*
X100177956Y-123348543D01*
X100187921Y-123369613D01*
X100195773Y-123391557D01*
X100201437Y-123414166D01*
X100204856Y-123437221D01*
X100206000Y-123460500D01*
X100206000Y-123935500D01*
X100204856Y-123958779D01*
X100201437Y-123981834D01*
X100195773Y-124004443D01*
X100187921Y-124026387D01*
X100177956Y-124047457D01*
X100165974Y-124067448D01*
X100152090Y-124086168D01*
X100136438Y-124103438D01*
X100119168Y-124119090D01*
X100100448Y-124132974D01*
X100080457Y-124144956D01*
X100059387Y-124154921D01*
X100037443Y-124162773D01*
X100014834Y-124168437D01*
X99991779Y-124171856D01*
X99968500Y-124173000D01*
X99393500Y-124173000D01*
X99370221Y-124171856D01*
X99347166Y-124168437D01*
X99324557Y-124162773D01*
X99302613Y-124154921D01*
X99281543Y-124144956D01*
X99261552Y-124132974D01*
X99242832Y-124119090D01*
X99225562Y-124103438D01*
X99209910Y-124086168D01*
X99196026Y-124067448D01*
X99184044Y-124047457D01*
X99174079Y-124026387D01*
X99166227Y-124004443D01*
X99160563Y-123981834D01*
X99157144Y-123958779D01*
X99156000Y-123935500D01*
X99156000Y-123460500D01*
X99157144Y-123437221D01*
X99160563Y-123414166D01*
X99166227Y-123391557D01*
X99174079Y-123369613D01*
X99184044Y-123348543D01*
X99196026Y-123328552D01*
X99209910Y-123309832D01*
X99225562Y-123292562D01*
X99242832Y-123276910D01*
X99261552Y-123263026D01*
X99281543Y-123251044D01*
X99302613Y-123241079D01*
X99324557Y-123233227D01*
X99347166Y-123227563D01*
X99370221Y-123224144D01*
X99393500Y-123223000D01*
X99968500Y-123223000D01*
X99991779Y-123224144D01*
X99991779Y-123224144D01*
G37*
D11*
X99681000Y-123698000D03*
D10*
G36*
X98241779Y-123224144D02*
X98264834Y-123227563D01*
X98287443Y-123233227D01*
X98309387Y-123241079D01*
X98330457Y-123251044D01*
X98350448Y-123263026D01*
X98369168Y-123276910D01*
X98386438Y-123292562D01*
X98402090Y-123309832D01*
X98415974Y-123328552D01*
X98427956Y-123348543D01*
X98437921Y-123369613D01*
X98445773Y-123391557D01*
X98451437Y-123414166D01*
X98454856Y-123437221D01*
X98456000Y-123460500D01*
X98456000Y-123935500D01*
X98454856Y-123958779D01*
X98451437Y-123981834D01*
X98445773Y-124004443D01*
X98437921Y-124026387D01*
X98427956Y-124047457D01*
X98415974Y-124067448D01*
X98402090Y-124086168D01*
X98386438Y-124103438D01*
X98369168Y-124119090D01*
X98350448Y-124132974D01*
X98330457Y-124144956D01*
X98309387Y-124154921D01*
X98287443Y-124162773D01*
X98264834Y-124168437D01*
X98241779Y-124171856D01*
X98218500Y-124173000D01*
X97643500Y-124173000D01*
X97620221Y-124171856D01*
X97597166Y-124168437D01*
X97574557Y-124162773D01*
X97552613Y-124154921D01*
X97531543Y-124144956D01*
X97511552Y-124132974D01*
X97492832Y-124119090D01*
X97475562Y-124103438D01*
X97459910Y-124086168D01*
X97446026Y-124067448D01*
X97434044Y-124047457D01*
X97424079Y-124026387D01*
X97416227Y-124004443D01*
X97410563Y-123981834D01*
X97407144Y-123958779D01*
X97406000Y-123935500D01*
X97406000Y-123460500D01*
X97407144Y-123437221D01*
X97410563Y-123414166D01*
X97416227Y-123391557D01*
X97424079Y-123369613D01*
X97434044Y-123348543D01*
X97446026Y-123328552D01*
X97459910Y-123309832D01*
X97475562Y-123292562D01*
X97492832Y-123276910D01*
X97511552Y-123263026D01*
X97531543Y-123251044D01*
X97552613Y-123241079D01*
X97574557Y-123233227D01*
X97597166Y-123227563D01*
X97620221Y-123224144D01*
X97643500Y-123223000D01*
X98218500Y-123223000D01*
X98241779Y-123224144D01*
X98241779Y-123224144D01*
G37*
D11*
X97931000Y-123698000D03*
G04 #@! TD*
D10*
G04 #@! TO.C,R2*
G36*
X89097779Y-123224144D02*
X89120834Y-123227563D01*
X89143443Y-123233227D01*
X89165387Y-123241079D01*
X89186457Y-123251044D01*
X89206448Y-123263026D01*
X89225168Y-123276910D01*
X89242438Y-123292562D01*
X89258090Y-123309832D01*
X89271974Y-123328552D01*
X89283956Y-123348543D01*
X89293921Y-123369613D01*
X89301773Y-123391557D01*
X89307437Y-123414166D01*
X89310856Y-123437221D01*
X89312000Y-123460500D01*
X89312000Y-123935500D01*
X89310856Y-123958779D01*
X89307437Y-123981834D01*
X89301773Y-124004443D01*
X89293921Y-124026387D01*
X89283956Y-124047457D01*
X89271974Y-124067448D01*
X89258090Y-124086168D01*
X89242438Y-124103438D01*
X89225168Y-124119090D01*
X89206448Y-124132974D01*
X89186457Y-124144956D01*
X89165387Y-124154921D01*
X89143443Y-124162773D01*
X89120834Y-124168437D01*
X89097779Y-124171856D01*
X89074500Y-124173000D01*
X88499500Y-124173000D01*
X88476221Y-124171856D01*
X88453166Y-124168437D01*
X88430557Y-124162773D01*
X88408613Y-124154921D01*
X88387543Y-124144956D01*
X88367552Y-124132974D01*
X88348832Y-124119090D01*
X88331562Y-124103438D01*
X88315910Y-124086168D01*
X88302026Y-124067448D01*
X88290044Y-124047457D01*
X88280079Y-124026387D01*
X88272227Y-124004443D01*
X88266563Y-123981834D01*
X88263144Y-123958779D01*
X88262000Y-123935500D01*
X88262000Y-123460500D01*
X88263144Y-123437221D01*
X88266563Y-123414166D01*
X88272227Y-123391557D01*
X88280079Y-123369613D01*
X88290044Y-123348543D01*
X88302026Y-123328552D01*
X88315910Y-123309832D01*
X88331562Y-123292562D01*
X88348832Y-123276910D01*
X88367552Y-123263026D01*
X88387543Y-123251044D01*
X88408613Y-123241079D01*
X88430557Y-123233227D01*
X88453166Y-123227563D01*
X88476221Y-123224144D01*
X88499500Y-123223000D01*
X89074500Y-123223000D01*
X89097779Y-123224144D01*
X89097779Y-123224144D01*
G37*
D11*
X88787000Y-123698000D03*
D10*
G36*
X90847779Y-123224144D02*
X90870834Y-123227563D01*
X90893443Y-123233227D01*
X90915387Y-123241079D01*
X90936457Y-123251044D01*
X90956448Y-123263026D01*
X90975168Y-123276910D01*
X90992438Y-123292562D01*
X91008090Y-123309832D01*
X91021974Y-123328552D01*
X91033956Y-123348543D01*
X91043921Y-123369613D01*
X91051773Y-123391557D01*
X91057437Y-123414166D01*
X91060856Y-123437221D01*
X91062000Y-123460500D01*
X91062000Y-123935500D01*
X91060856Y-123958779D01*
X91057437Y-123981834D01*
X91051773Y-124004443D01*
X91043921Y-124026387D01*
X91033956Y-124047457D01*
X91021974Y-124067448D01*
X91008090Y-124086168D01*
X90992438Y-124103438D01*
X90975168Y-124119090D01*
X90956448Y-124132974D01*
X90936457Y-124144956D01*
X90915387Y-124154921D01*
X90893443Y-124162773D01*
X90870834Y-124168437D01*
X90847779Y-124171856D01*
X90824500Y-124173000D01*
X90249500Y-124173000D01*
X90226221Y-124171856D01*
X90203166Y-124168437D01*
X90180557Y-124162773D01*
X90158613Y-124154921D01*
X90137543Y-124144956D01*
X90117552Y-124132974D01*
X90098832Y-124119090D01*
X90081562Y-124103438D01*
X90065910Y-124086168D01*
X90052026Y-124067448D01*
X90040044Y-124047457D01*
X90030079Y-124026387D01*
X90022227Y-124004443D01*
X90016563Y-123981834D01*
X90013144Y-123958779D01*
X90012000Y-123935500D01*
X90012000Y-123460500D01*
X90013144Y-123437221D01*
X90016563Y-123414166D01*
X90022227Y-123391557D01*
X90030079Y-123369613D01*
X90040044Y-123348543D01*
X90052026Y-123328552D01*
X90065910Y-123309832D01*
X90081562Y-123292562D01*
X90098832Y-123276910D01*
X90117552Y-123263026D01*
X90137543Y-123251044D01*
X90158613Y-123241079D01*
X90180557Y-123233227D01*
X90203166Y-123227563D01*
X90226221Y-123224144D01*
X90249500Y-123223000D01*
X90824500Y-123223000D01*
X90847779Y-123224144D01*
X90847779Y-123224144D01*
G37*
D11*
X90537000Y-123698000D03*
G04 #@! TD*
D10*
G04 #@! TO.C,R3*
G36*
X95764779Y-114058144D02*
X95787834Y-114061563D01*
X95810443Y-114067227D01*
X95832387Y-114075079D01*
X95853457Y-114085044D01*
X95873448Y-114097026D01*
X95892168Y-114110910D01*
X95909438Y-114126562D01*
X95925090Y-114143832D01*
X95938974Y-114162552D01*
X95950956Y-114182543D01*
X95960921Y-114203613D01*
X95968773Y-114225557D01*
X95974437Y-114248166D01*
X95977856Y-114271221D01*
X95979000Y-114294500D01*
X95979000Y-114869500D01*
X95977856Y-114892779D01*
X95974437Y-114915834D01*
X95968773Y-114938443D01*
X95960921Y-114960387D01*
X95950956Y-114981457D01*
X95938974Y-115001448D01*
X95925090Y-115020168D01*
X95909438Y-115037438D01*
X95892168Y-115053090D01*
X95873448Y-115066974D01*
X95853457Y-115078956D01*
X95832387Y-115088921D01*
X95810443Y-115096773D01*
X95787834Y-115102437D01*
X95764779Y-115105856D01*
X95741500Y-115107000D01*
X95266500Y-115107000D01*
X95243221Y-115105856D01*
X95220166Y-115102437D01*
X95197557Y-115096773D01*
X95175613Y-115088921D01*
X95154543Y-115078956D01*
X95134552Y-115066974D01*
X95115832Y-115053090D01*
X95098562Y-115037438D01*
X95082910Y-115020168D01*
X95069026Y-115001448D01*
X95057044Y-114981457D01*
X95047079Y-114960387D01*
X95039227Y-114938443D01*
X95033563Y-114915834D01*
X95030144Y-114892779D01*
X95029000Y-114869500D01*
X95029000Y-114294500D01*
X95030144Y-114271221D01*
X95033563Y-114248166D01*
X95039227Y-114225557D01*
X95047079Y-114203613D01*
X95057044Y-114182543D01*
X95069026Y-114162552D01*
X95082910Y-114143832D01*
X95098562Y-114126562D01*
X95115832Y-114110910D01*
X95134552Y-114097026D01*
X95154543Y-114085044D01*
X95175613Y-114075079D01*
X95197557Y-114067227D01*
X95220166Y-114061563D01*
X95243221Y-114058144D01*
X95266500Y-114057000D01*
X95741500Y-114057000D01*
X95764779Y-114058144D01*
X95764779Y-114058144D01*
G37*
D11*
X95504000Y-114582000D03*
D10*
G36*
X95764779Y-115808144D02*
X95787834Y-115811563D01*
X95810443Y-115817227D01*
X95832387Y-115825079D01*
X95853457Y-115835044D01*
X95873448Y-115847026D01*
X95892168Y-115860910D01*
X95909438Y-115876562D01*
X95925090Y-115893832D01*
X95938974Y-115912552D01*
X95950956Y-115932543D01*
X95960921Y-115953613D01*
X95968773Y-115975557D01*
X95974437Y-115998166D01*
X95977856Y-116021221D01*
X95979000Y-116044500D01*
X95979000Y-116619500D01*
X95977856Y-116642779D01*
X95974437Y-116665834D01*
X95968773Y-116688443D01*
X95960921Y-116710387D01*
X95950956Y-116731457D01*
X95938974Y-116751448D01*
X95925090Y-116770168D01*
X95909438Y-116787438D01*
X95892168Y-116803090D01*
X95873448Y-116816974D01*
X95853457Y-116828956D01*
X95832387Y-116838921D01*
X95810443Y-116846773D01*
X95787834Y-116852437D01*
X95764779Y-116855856D01*
X95741500Y-116857000D01*
X95266500Y-116857000D01*
X95243221Y-116855856D01*
X95220166Y-116852437D01*
X95197557Y-116846773D01*
X95175613Y-116838921D01*
X95154543Y-116828956D01*
X95134552Y-116816974D01*
X95115832Y-116803090D01*
X95098562Y-116787438D01*
X95082910Y-116770168D01*
X95069026Y-116751448D01*
X95057044Y-116731457D01*
X95047079Y-116710387D01*
X95039227Y-116688443D01*
X95033563Y-116665834D01*
X95030144Y-116642779D01*
X95029000Y-116619500D01*
X95029000Y-116044500D01*
X95030144Y-116021221D01*
X95033563Y-115998166D01*
X95039227Y-115975557D01*
X95047079Y-115953613D01*
X95057044Y-115932543D01*
X95069026Y-115912552D01*
X95082910Y-115893832D01*
X95098562Y-115876562D01*
X95115832Y-115860910D01*
X95134552Y-115847026D01*
X95154543Y-115835044D01*
X95175613Y-115825079D01*
X95197557Y-115817227D01*
X95220166Y-115811563D01*
X95243221Y-115808144D01*
X95266500Y-115807000D01*
X95741500Y-115807000D01*
X95764779Y-115808144D01*
X95764779Y-115808144D01*
G37*
D11*
X95504000Y-116332000D03*
G04 #@! TD*
D10*
G04 #@! TO.C,R5*
G36*
X85350779Y-69806144D02*
X85373834Y-69809563D01*
X85396443Y-69815227D01*
X85418387Y-69823079D01*
X85439457Y-69833044D01*
X85459448Y-69845026D01*
X85478168Y-69858910D01*
X85495438Y-69874562D01*
X85511090Y-69891832D01*
X85524974Y-69910552D01*
X85536956Y-69930543D01*
X85546921Y-69951613D01*
X85554773Y-69973557D01*
X85560437Y-69996166D01*
X85563856Y-70019221D01*
X85565000Y-70042500D01*
X85565000Y-70617500D01*
X85563856Y-70640779D01*
X85560437Y-70663834D01*
X85554773Y-70686443D01*
X85546921Y-70708387D01*
X85536956Y-70729457D01*
X85524974Y-70749448D01*
X85511090Y-70768168D01*
X85495438Y-70785438D01*
X85478168Y-70801090D01*
X85459448Y-70814974D01*
X85439457Y-70826956D01*
X85418387Y-70836921D01*
X85396443Y-70844773D01*
X85373834Y-70850437D01*
X85350779Y-70853856D01*
X85327500Y-70855000D01*
X84852500Y-70855000D01*
X84829221Y-70853856D01*
X84806166Y-70850437D01*
X84783557Y-70844773D01*
X84761613Y-70836921D01*
X84740543Y-70826956D01*
X84720552Y-70814974D01*
X84701832Y-70801090D01*
X84684562Y-70785438D01*
X84668910Y-70768168D01*
X84655026Y-70749448D01*
X84643044Y-70729457D01*
X84633079Y-70708387D01*
X84625227Y-70686443D01*
X84619563Y-70663834D01*
X84616144Y-70640779D01*
X84615000Y-70617500D01*
X84615000Y-70042500D01*
X84616144Y-70019221D01*
X84619563Y-69996166D01*
X84625227Y-69973557D01*
X84633079Y-69951613D01*
X84643044Y-69930543D01*
X84655026Y-69910552D01*
X84668910Y-69891832D01*
X84684562Y-69874562D01*
X84701832Y-69858910D01*
X84720552Y-69845026D01*
X84740543Y-69833044D01*
X84761613Y-69823079D01*
X84783557Y-69815227D01*
X84806166Y-69809563D01*
X84829221Y-69806144D01*
X84852500Y-69805000D01*
X85327500Y-69805000D01*
X85350779Y-69806144D01*
X85350779Y-69806144D01*
G37*
D11*
X85090000Y-70330000D03*
D10*
G36*
X85350779Y-68056144D02*
X85373834Y-68059563D01*
X85396443Y-68065227D01*
X85418387Y-68073079D01*
X85439457Y-68083044D01*
X85459448Y-68095026D01*
X85478168Y-68108910D01*
X85495438Y-68124562D01*
X85511090Y-68141832D01*
X85524974Y-68160552D01*
X85536956Y-68180543D01*
X85546921Y-68201613D01*
X85554773Y-68223557D01*
X85560437Y-68246166D01*
X85563856Y-68269221D01*
X85565000Y-68292500D01*
X85565000Y-68867500D01*
X85563856Y-68890779D01*
X85560437Y-68913834D01*
X85554773Y-68936443D01*
X85546921Y-68958387D01*
X85536956Y-68979457D01*
X85524974Y-68999448D01*
X85511090Y-69018168D01*
X85495438Y-69035438D01*
X85478168Y-69051090D01*
X85459448Y-69064974D01*
X85439457Y-69076956D01*
X85418387Y-69086921D01*
X85396443Y-69094773D01*
X85373834Y-69100437D01*
X85350779Y-69103856D01*
X85327500Y-69105000D01*
X84852500Y-69105000D01*
X84829221Y-69103856D01*
X84806166Y-69100437D01*
X84783557Y-69094773D01*
X84761613Y-69086921D01*
X84740543Y-69076956D01*
X84720552Y-69064974D01*
X84701832Y-69051090D01*
X84684562Y-69035438D01*
X84668910Y-69018168D01*
X84655026Y-68999448D01*
X84643044Y-68979457D01*
X84633079Y-68958387D01*
X84625227Y-68936443D01*
X84619563Y-68913834D01*
X84616144Y-68890779D01*
X84615000Y-68867500D01*
X84615000Y-68292500D01*
X84616144Y-68269221D01*
X84619563Y-68246166D01*
X84625227Y-68223557D01*
X84633079Y-68201613D01*
X84643044Y-68180543D01*
X84655026Y-68160552D01*
X84668910Y-68141832D01*
X84684562Y-68124562D01*
X84701832Y-68108910D01*
X84720552Y-68095026D01*
X84740543Y-68083044D01*
X84761613Y-68073079D01*
X84783557Y-68065227D01*
X84806166Y-68059563D01*
X84829221Y-68056144D01*
X84852500Y-68055000D01*
X85327500Y-68055000D01*
X85350779Y-68056144D01*
X85350779Y-68056144D01*
G37*
D11*
X85090000Y-68580000D03*
G04 #@! TD*
D10*
G04 #@! TO.C,R6*
G36*
X103130779Y-129016144D02*
X103153834Y-129019563D01*
X103176443Y-129025227D01*
X103198387Y-129033079D01*
X103219457Y-129043044D01*
X103239448Y-129055026D01*
X103258168Y-129068910D01*
X103275438Y-129084562D01*
X103291090Y-129101832D01*
X103304974Y-129120552D01*
X103316956Y-129140543D01*
X103326921Y-129161613D01*
X103334773Y-129183557D01*
X103340437Y-129206166D01*
X103343856Y-129229221D01*
X103345000Y-129252500D01*
X103345000Y-129827500D01*
X103343856Y-129850779D01*
X103340437Y-129873834D01*
X103334773Y-129896443D01*
X103326921Y-129918387D01*
X103316956Y-129939457D01*
X103304974Y-129959448D01*
X103291090Y-129978168D01*
X103275438Y-129995438D01*
X103258168Y-130011090D01*
X103239448Y-130024974D01*
X103219457Y-130036956D01*
X103198387Y-130046921D01*
X103176443Y-130054773D01*
X103153834Y-130060437D01*
X103130779Y-130063856D01*
X103107500Y-130065000D01*
X102632500Y-130065000D01*
X102609221Y-130063856D01*
X102586166Y-130060437D01*
X102563557Y-130054773D01*
X102541613Y-130046921D01*
X102520543Y-130036956D01*
X102500552Y-130024974D01*
X102481832Y-130011090D01*
X102464562Y-129995438D01*
X102448910Y-129978168D01*
X102435026Y-129959448D01*
X102423044Y-129939457D01*
X102413079Y-129918387D01*
X102405227Y-129896443D01*
X102399563Y-129873834D01*
X102396144Y-129850779D01*
X102395000Y-129827500D01*
X102395000Y-129252500D01*
X102396144Y-129229221D01*
X102399563Y-129206166D01*
X102405227Y-129183557D01*
X102413079Y-129161613D01*
X102423044Y-129140543D01*
X102435026Y-129120552D01*
X102448910Y-129101832D01*
X102464562Y-129084562D01*
X102481832Y-129068910D01*
X102500552Y-129055026D01*
X102520543Y-129043044D01*
X102541613Y-129033079D01*
X102563557Y-129025227D01*
X102586166Y-129019563D01*
X102609221Y-129016144D01*
X102632500Y-129015000D01*
X103107500Y-129015000D01*
X103130779Y-129016144D01*
X103130779Y-129016144D01*
G37*
D11*
X102870000Y-129540000D03*
D10*
G36*
X103130779Y-127266144D02*
X103153834Y-127269563D01*
X103176443Y-127275227D01*
X103198387Y-127283079D01*
X103219457Y-127293044D01*
X103239448Y-127305026D01*
X103258168Y-127318910D01*
X103275438Y-127334562D01*
X103291090Y-127351832D01*
X103304974Y-127370552D01*
X103316956Y-127390543D01*
X103326921Y-127411613D01*
X103334773Y-127433557D01*
X103340437Y-127456166D01*
X103343856Y-127479221D01*
X103345000Y-127502500D01*
X103345000Y-128077500D01*
X103343856Y-128100779D01*
X103340437Y-128123834D01*
X103334773Y-128146443D01*
X103326921Y-128168387D01*
X103316956Y-128189457D01*
X103304974Y-128209448D01*
X103291090Y-128228168D01*
X103275438Y-128245438D01*
X103258168Y-128261090D01*
X103239448Y-128274974D01*
X103219457Y-128286956D01*
X103198387Y-128296921D01*
X103176443Y-128304773D01*
X103153834Y-128310437D01*
X103130779Y-128313856D01*
X103107500Y-128315000D01*
X102632500Y-128315000D01*
X102609221Y-128313856D01*
X102586166Y-128310437D01*
X102563557Y-128304773D01*
X102541613Y-128296921D01*
X102520543Y-128286956D01*
X102500552Y-128274974D01*
X102481832Y-128261090D01*
X102464562Y-128245438D01*
X102448910Y-128228168D01*
X102435026Y-128209448D01*
X102423044Y-128189457D01*
X102413079Y-128168387D01*
X102405227Y-128146443D01*
X102399563Y-128123834D01*
X102396144Y-128100779D01*
X102395000Y-128077500D01*
X102395000Y-127502500D01*
X102396144Y-127479221D01*
X102399563Y-127456166D01*
X102405227Y-127433557D01*
X102413079Y-127411613D01*
X102423044Y-127390543D01*
X102435026Y-127370552D01*
X102448910Y-127351832D01*
X102464562Y-127334562D01*
X102481832Y-127318910D01*
X102500552Y-127305026D01*
X102520543Y-127293044D01*
X102541613Y-127283079D01*
X102563557Y-127275227D01*
X102586166Y-127269563D01*
X102609221Y-127266144D01*
X102632500Y-127265000D01*
X103107500Y-127265000D01*
X103130779Y-127266144D01*
X103130779Y-127266144D01*
G37*
D11*
X102870000Y-127790000D03*
G04 #@! TD*
D10*
G04 #@! TO.C,R7*
G36*
X85350779Y-127266144D02*
X85373834Y-127269563D01*
X85396443Y-127275227D01*
X85418387Y-127283079D01*
X85439457Y-127293044D01*
X85459448Y-127305026D01*
X85478168Y-127318910D01*
X85495438Y-127334562D01*
X85511090Y-127351832D01*
X85524974Y-127370552D01*
X85536956Y-127390543D01*
X85546921Y-127411613D01*
X85554773Y-127433557D01*
X85560437Y-127456166D01*
X85563856Y-127479221D01*
X85565000Y-127502500D01*
X85565000Y-128077500D01*
X85563856Y-128100779D01*
X85560437Y-128123834D01*
X85554773Y-128146443D01*
X85546921Y-128168387D01*
X85536956Y-128189457D01*
X85524974Y-128209448D01*
X85511090Y-128228168D01*
X85495438Y-128245438D01*
X85478168Y-128261090D01*
X85459448Y-128274974D01*
X85439457Y-128286956D01*
X85418387Y-128296921D01*
X85396443Y-128304773D01*
X85373834Y-128310437D01*
X85350779Y-128313856D01*
X85327500Y-128315000D01*
X84852500Y-128315000D01*
X84829221Y-128313856D01*
X84806166Y-128310437D01*
X84783557Y-128304773D01*
X84761613Y-128296921D01*
X84740543Y-128286956D01*
X84720552Y-128274974D01*
X84701832Y-128261090D01*
X84684562Y-128245438D01*
X84668910Y-128228168D01*
X84655026Y-128209448D01*
X84643044Y-128189457D01*
X84633079Y-128168387D01*
X84625227Y-128146443D01*
X84619563Y-128123834D01*
X84616144Y-128100779D01*
X84615000Y-128077500D01*
X84615000Y-127502500D01*
X84616144Y-127479221D01*
X84619563Y-127456166D01*
X84625227Y-127433557D01*
X84633079Y-127411613D01*
X84643044Y-127390543D01*
X84655026Y-127370552D01*
X84668910Y-127351832D01*
X84684562Y-127334562D01*
X84701832Y-127318910D01*
X84720552Y-127305026D01*
X84740543Y-127293044D01*
X84761613Y-127283079D01*
X84783557Y-127275227D01*
X84806166Y-127269563D01*
X84829221Y-127266144D01*
X84852500Y-127265000D01*
X85327500Y-127265000D01*
X85350779Y-127266144D01*
X85350779Y-127266144D01*
G37*
D11*
X85090000Y-127790000D03*
D10*
G36*
X85350779Y-129016144D02*
X85373834Y-129019563D01*
X85396443Y-129025227D01*
X85418387Y-129033079D01*
X85439457Y-129043044D01*
X85459448Y-129055026D01*
X85478168Y-129068910D01*
X85495438Y-129084562D01*
X85511090Y-129101832D01*
X85524974Y-129120552D01*
X85536956Y-129140543D01*
X85546921Y-129161613D01*
X85554773Y-129183557D01*
X85560437Y-129206166D01*
X85563856Y-129229221D01*
X85565000Y-129252500D01*
X85565000Y-129827500D01*
X85563856Y-129850779D01*
X85560437Y-129873834D01*
X85554773Y-129896443D01*
X85546921Y-129918387D01*
X85536956Y-129939457D01*
X85524974Y-129959448D01*
X85511090Y-129978168D01*
X85495438Y-129995438D01*
X85478168Y-130011090D01*
X85459448Y-130024974D01*
X85439457Y-130036956D01*
X85418387Y-130046921D01*
X85396443Y-130054773D01*
X85373834Y-130060437D01*
X85350779Y-130063856D01*
X85327500Y-130065000D01*
X84852500Y-130065000D01*
X84829221Y-130063856D01*
X84806166Y-130060437D01*
X84783557Y-130054773D01*
X84761613Y-130046921D01*
X84740543Y-130036956D01*
X84720552Y-130024974D01*
X84701832Y-130011090D01*
X84684562Y-129995438D01*
X84668910Y-129978168D01*
X84655026Y-129959448D01*
X84643044Y-129939457D01*
X84633079Y-129918387D01*
X84625227Y-129896443D01*
X84619563Y-129873834D01*
X84616144Y-129850779D01*
X84615000Y-129827500D01*
X84615000Y-129252500D01*
X84616144Y-129229221D01*
X84619563Y-129206166D01*
X84625227Y-129183557D01*
X84633079Y-129161613D01*
X84643044Y-129140543D01*
X84655026Y-129120552D01*
X84668910Y-129101832D01*
X84684562Y-129084562D01*
X84701832Y-129068910D01*
X84720552Y-129055026D01*
X84740543Y-129043044D01*
X84761613Y-129033079D01*
X84783557Y-129025227D01*
X84806166Y-129019563D01*
X84829221Y-129016144D01*
X84852500Y-129015000D01*
X85327500Y-129015000D01*
X85350779Y-129016144D01*
X85350779Y-129016144D01*
G37*
D11*
X85090000Y-129540000D03*
G04 #@! TD*
M02*
