G04 #@! TF.GenerationSoftware,KiCad,Pcbnew,(5.0.2)-1*
G04 #@! TF.CreationDate,2019-03-03T18:02:14-06:00*
G04 #@! TF.ProjectId,IMUBreakout_Hardware,494d5542-7265-4616-9b6f-75745f486172,rev?*
G04 #@! TF.SameCoordinates,Original*
G04 #@! TF.FileFunction,Copper,L1,Top*
G04 #@! TF.FilePolarity,Positive*
%FSLAX46Y46*%
G04 Gerber Fmt 4.6, Leading zero omitted, Abs format (unit mm)*
G04 Created by KiCad (PCBNEW (5.0.2)-1) date 3/3/2019 6:02:14 PM*
%MOMM*%
%LPD*%
G01*
G04 APERTURE LIST*
G04 #@! TA.AperFunction,ComponentPad*
%ADD10C,2.032000*%
G04 #@! TD*
G04 #@! TA.AperFunction,ComponentPad*
%ADD11C,1.524000*%
G04 #@! TD*
G04 #@! TA.AperFunction,Conductor*
%ADD12C,0.100000*%
G04 #@! TD*
G04 #@! TA.AperFunction,SMDPad,CuDef*
%ADD13C,0.950000*%
G04 #@! TD*
G04 #@! TA.AperFunction,ViaPad*
%ADD14C,0.800000*%
G04 #@! TD*
G04 #@! TA.AperFunction,Conductor*
%ADD15C,0.381000*%
G04 #@! TD*
G04 #@! TA.AperFunction,Conductor*
%ADD16C,0.254000*%
G04 #@! TD*
G04 APERTURE END LIST*
D10*
G04 #@! TO.P,U1,12*
G04 #@! TO.N,Net-(U1-Pad12)*
X176017999Y-69036001D03*
G04 #@! TO.P,U1,11*
G04 #@! TO.N,Net-(U1-Pad11)*
X176017999Y-71576001D03*
G04 #@! TO.P,U1,10*
G04 #@! TO.N,Net-(U1-Pad10)*
X176017999Y-74116001D03*
G04 #@! TO.P,U1,9*
G04 #@! TO.N,Net-(U1-Pad9)*
X176017999Y-76656001D03*
G04 #@! TO.P,U1,8*
G04 #@! TO.N,TX*
X176017999Y-79196001D03*
G04 #@! TO.P,U1,7*
G04 #@! TO.N,RX*
X176017999Y-81736001D03*
G04 #@! TO.P,U1,6*
G04 #@! TO.N,+3V3*
X176017999Y-84276001D03*
G04 #@! TO.P,U1,5*
G04 #@! TO.N,GND*
X176017999Y-86816001D03*
G04 #@! TO.P,U1,4*
G04 #@! TO.N,Net-(U1-Pad4)*
X146808000Y-79196001D03*
G04 #@! TO.P,U1,3*
G04 #@! TO.N,Net-(U1-Pad3)*
X146808000Y-81736001D03*
G04 #@! TO.P,U1,2*
G04 #@! TO.N,+3V3*
X146808000Y-84276001D03*
G04 #@! TO.P,U1,1*
G04 #@! TO.N,GND*
X146808000Y-86816001D03*
G04 #@! TD*
D11*
G04 #@! TO.P,Conn1,1*
G04 #@! TO.N,RX*
X165404800Y-95250000D03*
G04 #@! TO.P,Conn1,2*
G04 #@! TO.N,TX*
X162864800Y-95250000D03*
G04 #@! TO.P,Conn1,3*
G04 #@! TO.N,GND*
X160324800Y-95250000D03*
G04 #@! TO.P,Conn1,4*
G04 #@! TO.N,+3V3*
X157784800Y-95250000D03*
G04 #@! TD*
D12*
G04 #@! TO.N,GND*
G04 #@! TO.C,D1*
G36*
X170998779Y-99602144D02*
X171021834Y-99605563D01*
X171044443Y-99611227D01*
X171066387Y-99619079D01*
X171087457Y-99629044D01*
X171107448Y-99641026D01*
X171126168Y-99654910D01*
X171143438Y-99670562D01*
X171159090Y-99687832D01*
X171172974Y-99706552D01*
X171184956Y-99726543D01*
X171194921Y-99747613D01*
X171202773Y-99769557D01*
X171208437Y-99792166D01*
X171211856Y-99815221D01*
X171213000Y-99838500D01*
X171213000Y-100313500D01*
X171211856Y-100336779D01*
X171208437Y-100359834D01*
X171202773Y-100382443D01*
X171194921Y-100404387D01*
X171184956Y-100425457D01*
X171172974Y-100445448D01*
X171159090Y-100464168D01*
X171143438Y-100481438D01*
X171126168Y-100497090D01*
X171107448Y-100510974D01*
X171087457Y-100522956D01*
X171066387Y-100532921D01*
X171044443Y-100540773D01*
X171021834Y-100546437D01*
X170998779Y-100549856D01*
X170975500Y-100551000D01*
X170400500Y-100551000D01*
X170377221Y-100549856D01*
X170354166Y-100546437D01*
X170331557Y-100540773D01*
X170309613Y-100532921D01*
X170288543Y-100522956D01*
X170268552Y-100510974D01*
X170249832Y-100497090D01*
X170232562Y-100481438D01*
X170216910Y-100464168D01*
X170203026Y-100445448D01*
X170191044Y-100425457D01*
X170181079Y-100404387D01*
X170173227Y-100382443D01*
X170167563Y-100359834D01*
X170164144Y-100336779D01*
X170163000Y-100313500D01*
X170163000Y-99838500D01*
X170164144Y-99815221D01*
X170167563Y-99792166D01*
X170173227Y-99769557D01*
X170181079Y-99747613D01*
X170191044Y-99726543D01*
X170203026Y-99706552D01*
X170216910Y-99687832D01*
X170232562Y-99670562D01*
X170249832Y-99654910D01*
X170268552Y-99641026D01*
X170288543Y-99629044D01*
X170309613Y-99619079D01*
X170331557Y-99611227D01*
X170354166Y-99605563D01*
X170377221Y-99602144D01*
X170400500Y-99601000D01*
X170975500Y-99601000D01*
X170998779Y-99602144D01*
X170998779Y-99602144D01*
G37*
D13*
G04 #@! TD*
G04 #@! TO.P,D1,1*
G04 #@! TO.N,GND*
X170688000Y-100076000D03*
D12*
G04 #@! TO.N,Net-(D1-Pad2)*
G04 #@! TO.C,D1*
G36*
X172748779Y-99602144D02*
X172771834Y-99605563D01*
X172794443Y-99611227D01*
X172816387Y-99619079D01*
X172837457Y-99629044D01*
X172857448Y-99641026D01*
X172876168Y-99654910D01*
X172893438Y-99670562D01*
X172909090Y-99687832D01*
X172922974Y-99706552D01*
X172934956Y-99726543D01*
X172944921Y-99747613D01*
X172952773Y-99769557D01*
X172958437Y-99792166D01*
X172961856Y-99815221D01*
X172963000Y-99838500D01*
X172963000Y-100313500D01*
X172961856Y-100336779D01*
X172958437Y-100359834D01*
X172952773Y-100382443D01*
X172944921Y-100404387D01*
X172934956Y-100425457D01*
X172922974Y-100445448D01*
X172909090Y-100464168D01*
X172893438Y-100481438D01*
X172876168Y-100497090D01*
X172857448Y-100510974D01*
X172837457Y-100522956D01*
X172816387Y-100532921D01*
X172794443Y-100540773D01*
X172771834Y-100546437D01*
X172748779Y-100549856D01*
X172725500Y-100551000D01*
X172150500Y-100551000D01*
X172127221Y-100549856D01*
X172104166Y-100546437D01*
X172081557Y-100540773D01*
X172059613Y-100532921D01*
X172038543Y-100522956D01*
X172018552Y-100510974D01*
X171999832Y-100497090D01*
X171982562Y-100481438D01*
X171966910Y-100464168D01*
X171953026Y-100445448D01*
X171941044Y-100425457D01*
X171931079Y-100404387D01*
X171923227Y-100382443D01*
X171917563Y-100359834D01*
X171914144Y-100336779D01*
X171913000Y-100313500D01*
X171913000Y-99838500D01*
X171914144Y-99815221D01*
X171917563Y-99792166D01*
X171923227Y-99769557D01*
X171931079Y-99747613D01*
X171941044Y-99726543D01*
X171953026Y-99706552D01*
X171966910Y-99687832D01*
X171982562Y-99670562D01*
X171999832Y-99654910D01*
X172018552Y-99641026D01*
X172038543Y-99629044D01*
X172059613Y-99619079D01*
X172081557Y-99611227D01*
X172104166Y-99605563D01*
X172127221Y-99602144D01*
X172150500Y-99601000D01*
X172725500Y-99601000D01*
X172748779Y-99602144D01*
X172748779Y-99602144D01*
G37*
D13*
G04 #@! TD*
G04 #@! TO.P,D1,2*
G04 #@! TO.N,Net-(D1-Pad2)*
X172438000Y-100076000D03*
D12*
G04 #@! TO.N,Net-(D2-Pad2)*
G04 #@! TO.C,D2*
G36*
X150819779Y-99602144D02*
X150842834Y-99605563D01*
X150865443Y-99611227D01*
X150887387Y-99619079D01*
X150908457Y-99629044D01*
X150928448Y-99641026D01*
X150947168Y-99654910D01*
X150964438Y-99670562D01*
X150980090Y-99687832D01*
X150993974Y-99706552D01*
X151005956Y-99726543D01*
X151015921Y-99747613D01*
X151023773Y-99769557D01*
X151029437Y-99792166D01*
X151032856Y-99815221D01*
X151034000Y-99838500D01*
X151034000Y-100313500D01*
X151032856Y-100336779D01*
X151029437Y-100359834D01*
X151023773Y-100382443D01*
X151015921Y-100404387D01*
X151005956Y-100425457D01*
X150993974Y-100445448D01*
X150980090Y-100464168D01*
X150964438Y-100481438D01*
X150947168Y-100497090D01*
X150928448Y-100510974D01*
X150908457Y-100522956D01*
X150887387Y-100532921D01*
X150865443Y-100540773D01*
X150842834Y-100546437D01*
X150819779Y-100549856D01*
X150796500Y-100551000D01*
X150221500Y-100551000D01*
X150198221Y-100549856D01*
X150175166Y-100546437D01*
X150152557Y-100540773D01*
X150130613Y-100532921D01*
X150109543Y-100522956D01*
X150089552Y-100510974D01*
X150070832Y-100497090D01*
X150053562Y-100481438D01*
X150037910Y-100464168D01*
X150024026Y-100445448D01*
X150012044Y-100425457D01*
X150002079Y-100404387D01*
X149994227Y-100382443D01*
X149988563Y-100359834D01*
X149985144Y-100336779D01*
X149984000Y-100313500D01*
X149984000Y-99838500D01*
X149985144Y-99815221D01*
X149988563Y-99792166D01*
X149994227Y-99769557D01*
X150002079Y-99747613D01*
X150012044Y-99726543D01*
X150024026Y-99706552D01*
X150037910Y-99687832D01*
X150053562Y-99670562D01*
X150070832Y-99654910D01*
X150089552Y-99641026D01*
X150109543Y-99629044D01*
X150130613Y-99619079D01*
X150152557Y-99611227D01*
X150175166Y-99605563D01*
X150198221Y-99602144D01*
X150221500Y-99601000D01*
X150796500Y-99601000D01*
X150819779Y-99602144D01*
X150819779Y-99602144D01*
G37*
D13*
G04 #@! TD*
G04 #@! TO.P,D2,2*
G04 #@! TO.N,Net-(D2-Pad2)*
X150509000Y-100076000D03*
D12*
G04 #@! TO.N,GND*
G04 #@! TO.C,D2*
G36*
X152569779Y-99602144D02*
X152592834Y-99605563D01*
X152615443Y-99611227D01*
X152637387Y-99619079D01*
X152658457Y-99629044D01*
X152678448Y-99641026D01*
X152697168Y-99654910D01*
X152714438Y-99670562D01*
X152730090Y-99687832D01*
X152743974Y-99706552D01*
X152755956Y-99726543D01*
X152765921Y-99747613D01*
X152773773Y-99769557D01*
X152779437Y-99792166D01*
X152782856Y-99815221D01*
X152784000Y-99838500D01*
X152784000Y-100313500D01*
X152782856Y-100336779D01*
X152779437Y-100359834D01*
X152773773Y-100382443D01*
X152765921Y-100404387D01*
X152755956Y-100425457D01*
X152743974Y-100445448D01*
X152730090Y-100464168D01*
X152714438Y-100481438D01*
X152697168Y-100497090D01*
X152678448Y-100510974D01*
X152658457Y-100522956D01*
X152637387Y-100532921D01*
X152615443Y-100540773D01*
X152592834Y-100546437D01*
X152569779Y-100549856D01*
X152546500Y-100551000D01*
X151971500Y-100551000D01*
X151948221Y-100549856D01*
X151925166Y-100546437D01*
X151902557Y-100540773D01*
X151880613Y-100532921D01*
X151859543Y-100522956D01*
X151839552Y-100510974D01*
X151820832Y-100497090D01*
X151803562Y-100481438D01*
X151787910Y-100464168D01*
X151774026Y-100445448D01*
X151762044Y-100425457D01*
X151752079Y-100404387D01*
X151744227Y-100382443D01*
X151738563Y-100359834D01*
X151735144Y-100336779D01*
X151734000Y-100313500D01*
X151734000Y-99838500D01*
X151735144Y-99815221D01*
X151738563Y-99792166D01*
X151744227Y-99769557D01*
X151752079Y-99747613D01*
X151762044Y-99726543D01*
X151774026Y-99706552D01*
X151787910Y-99687832D01*
X151803562Y-99670562D01*
X151820832Y-99654910D01*
X151839552Y-99641026D01*
X151859543Y-99629044D01*
X151880613Y-99619079D01*
X151902557Y-99611227D01*
X151925166Y-99605563D01*
X151948221Y-99602144D01*
X151971500Y-99601000D01*
X152546500Y-99601000D01*
X152569779Y-99602144D01*
X152569779Y-99602144D01*
G37*
D13*
G04 #@! TD*
G04 #@! TO.P,D2,1*
G04 #@! TO.N,GND*
X152259000Y-100076000D03*
D12*
G04 #@! TO.N,Net-(D1-Pad2)*
G04 #@! TO.C,R1*
G36*
X172748779Y-97062144D02*
X172771834Y-97065563D01*
X172794443Y-97071227D01*
X172816387Y-97079079D01*
X172837457Y-97089044D01*
X172857448Y-97101026D01*
X172876168Y-97114910D01*
X172893438Y-97130562D01*
X172909090Y-97147832D01*
X172922974Y-97166552D01*
X172934956Y-97186543D01*
X172944921Y-97207613D01*
X172952773Y-97229557D01*
X172958437Y-97252166D01*
X172961856Y-97275221D01*
X172963000Y-97298500D01*
X172963000Y-97773500D01*
X172961856Y-97796779D01*
X172958437Y-97819834D01*
X172952773Y-97842443D01*
X172944921Y-97864387D01*
X172934956Y-97885457D01*
X172922974Y-97905448D01*
X172909090Y-97924168D01*
X172893438Y-97941438D01*
X172876168Y-97957090D01*
X172857448Y-97970974D01*
X172837457Y-97982956D01*
X172816387Y-97992921D01*
X172794443Y-98000773D01*
X172771834Y-98006437D01*
X172748779Y-98009856D01*
X172725500Y-98011000D01*
X172150500Y-98011000D01*
X172127221Y-98009856D01*
X172104166Y-98006437D01*
X172081557Y-98000773D01*
X172059613Y-97992921D01*
X172038543Y-97982956D01*
X172018552Y-97970974D01*
X171999832Y-97957090D01*
X171982562Y-97941438D01*
X171966910Y-97924168D01*
X171953026Y-97905448D01*
X171941044Y-97885457D01*
X171931079Y-97864387D01*
X171923227Y-97842443D01*
X171917563Y-97819834D01*
X171914144Y-97796779D01*
X171913000Y-97773500D01*
X171913000Y-97298500D01*
X171914144Y-97275221D01*
X171917563Y-97252166D01*
X171923227Y-97229557D01*
X171931079Y-97207613D01*
X171941044Y-97186543D01*
X171953026Y-97166552D01*
X171966910Y-97147832D01*
X171982562Y-97130562D01*
X171999832Y-97114910D01*
X172018552Y-97101026D01*
X172038543Y-97089044D01*
X172059613Y-97079079D01*
X172081557Y-97071227D01*
X172104166Y-97065563D01*
X172127221Y-97062144D01*
X172150500Y-97061000D01*
X172725500Y-97061000D01*
X172748779Y-97062144D01*
X172748779Y-97062144D01*
G37*
D13*
G04 #@! TD*
G04 #@! TO.P,R1,1*
G04 #@! TO.N,Net-(D1-Pad2)*
X172438000Y-97536000D03*
D12*
G04 #@! TO.N,RX*
G04 #@! TO.C,R1*
G36*
X170998779Y-97062144D02*
X171021834Y-97065563D01*
X171044443Y-97071227D01*
X171066387Y-97079079D01*
X171087457Y-97089044D01*
X171107448Y-97101026D01*
X171126168Y-97114910D01*
X171143438Y-97130562D01*
X171159090Y-97147832D01*
X171172974Y-97166552D01*
X171184956Y-97186543D01*
X171194921Y-97207613D01*
X171202773Y-97229557D01*
X171208437Y-97252166D01*
X171211856Y-97275221D01*
X171213000Y-97298500D01*
X171213000Y-97773500D01*
X171211856Y-97796779D01*
X171208437Y-97819834D01*
X171202773Y-97842443D01*
X171194921Y-97864387D01*
X171184956Y-97885457D01*
X171172974Y-97905448D01*
X171159090Y-97924168D01*
X171143438Y-97941438D01*
X171126168Y-97957090D01*
X171107448Y-97970974D01*
X171087457Y-97982956D01*
X171066387Y-97992921D01*
X171044443Y-98000773D01*
X171021834Y-98006437D01*
X170998779Y-98009856D01*
X170975500Y-98011000D01*
X170400500Y-98011000D01*
X170377221Y-98009856D01*
X170354166Y-98006437D01*
X170331557Y-98000773D01*
X170309613Y-97992921D01*
X170288543Y-97982956D01*
X170268552Y-97970974D01*
X170249832Y-97957090D01*
X170232562Y-97941438D01*
X170216910Y-97924168D01*
X170203026Y-97905448D01*
X170191044Y-97885457D01*
X170181079Y-97864387D01*
X170173227Y-97842443D01*
X170167563Y-97819834D01*
X170164144Y-97796779D01*
X170163000Y-97773500D01*
X170163000Y-97298500D01*
X170164144Y-97275221D01*
X170167563Y-97252166D01*
X170173227Y-97229557D01*
X170181079Y-97207613D01*
X170191044Y-97186543D01*
X170203026Y-97166552D01*
X170216910Y-97147832D01*
X170232562Y-97130562D01*
X170249832Y-97114910D01*
X170268552Y-97101026D01*
X170288543Y-97089044D01*
X170309613Y-97079079D01*
X170331557Y-97071227D01*
X170354166Y-97065563D01*
X170377221Y-97062144D01*
X170400500Y-97061000D01*
X170975500Y-97061000D01*
X170998779Y-97062144D01*
X170998779Y-97062144D01*
G37*
D13*
G04 #@! TD*
G04 #@! TO.P,R1,2*
G04 #@! TO.N,RX*
X170688000Y-97536000D03*
D12*
G04 #@! TO.N,TX*
G04 #@! TO.C,R2*
G36*
X152569779Y-97062144D02*
X152592834Y-97065563D01*
X152615443Y-97071227D01*
X152637387Y-97079079D01*
X152658457Y-97089044D01*
X152678448Y-97101026D01*
X152697168Y-97114910D01*
X152714438Y-97130562D01*
X152730090Y-97147832D01*
X152743974Y-97166552D01*
X152755956Y-97186543D01*
X152765921Y-97207613D01*
X152773773Y-97229557D01*
X152779437Y-97252166D01*
X152782856Y-97275221D01*
X152784000Y-97298500D01*
X152784000Y-97773500D01*
X152782856Y-97796779D01*
X152779437Y-97819834D01*
X152773773Y-97842443D01*
X152765921Y-97864387D01*
X152755956Y-97885457D01*
X152743974Y-97905448D01*
X152730090Y-97924168D01*
X152714438Y-97941438D01*
X152697168Y-97957090D01*
X152678448Y-97970974D01*
X152658457Y-97982956D01*
X152637387Y-97992921D01*
X152615443Y-98000773D01*
X152592834Y-98006437D01*
X152569779Y-98009856D01*
X152546500Y-98011000D01*
X151971500Y-98011000D01*
X151948221Y-98009856D01*
X151925166Y-98006437D01*
X151902557Y-98000773D01*
X151880613Y-97992921D01*
X151859543Y-97982956D01*
X151839552Y-97970974D01*
X151820832Y-97957090D01*
X151803562Y-97941438D01*
X151787910Y-97924168D01*
X151774026Y-97905448D01*
X151762044Y-97885457D01*
X151752079Y-97864387D01*
X151744227Y-97842443D01*
X151738563Y-97819834D01*
X151735144Y-97796779D01*
X151734000Y-97773500D01*
X151734000Y-97298500D01*
X151735144Y-97275221D01*
X151738563Y-97252166D01*
X151744227Y-97229557D01*
X151752079Y-97207613D01*
X151762044Y-97186543D01*
X151774026Y-97166552D01*
X151787910Y-97147832D01*
X151803562Y-97130562D01*
X151820832Y-97114910D01*
X151839552Y-97101026D01*
X151859543Y-97089044D01*
X151880613Y-97079079D01*
X151902557Y-97071227D01*
X151925166Y-97065563D01*
X151948221Y-97062144D01*
X151971500Y-97061000D01*
X152546500Y-97061000D01*
X152569779Y-97062144D01*
X152569779Y-97062144D01*
G37*
D13*
G04 #@! TD*
G04 #@! TO.P,R2,2*
G04 #@! TO.N,TX*
X152259000Y-97536000D03*
D12*
G04 #@! TO.N,Net-(D2-Pad2)*
G04 #@! TO.C,R2*
G36*
X150819779Y-97062144D02*
X150842834Y-97065563D01*
X150865443Y-97071227D01*
X150887387Y-97079079D01*
X150908457Y-97089044D01*
X150928448Y-97101026D01*
X150947168Y-97114910D01*
X150964438Y-97130562D01*
X150980090Y-97147832D01*
X150993974Y-97166552D01*
X151005956Y-97186543D01*
X151015921Y-97207613D01*
X151023773Y-97229557D01*
X151029437Y-97252166D01*
X151032856Y-97275221D01*
X151034000Y-97298500D01*
X151034000Y-97773500D01*
X151032856Y-97796779D01*
X151029437Y-97819834D01*
X151023773Y-97842443D01*
X151015921Y-97864387D01*
X151005956Y-97885457D01*
X150993974Y-97905448D01*
X150980090Y-97924168D01*
X150964438Y-97941438D01*
X150947168Y-97957090D01*
X150928448Y-97970974D01*
X150908457Y-97982956D01*
X150887387Y-97992921D01*
X150865443Y-98000773D01*
X150842834Y-98006437D01*
X150819779Y-98009856D01*
X150796500Y-98011000D01*
X150221500Y-98011000D01*
X150198221Y-98009856D01*
X150175166Y-98006437D01*
X150152557Y-98000773D01*
X150130613Y-97992921D01*
X150109543Y-97982956D01*
X150089552Y-97970974D01*
X150070832Y-97957090D01*
X150053562Y-97941438D01*
X150037910Y-97924168D01*
X150024026Y-97905448D01*
X150012044Y-97885457D01*
X150002079Y-97864387D01*
X149994227Y-97842443D01*
X149988563Y-97819834D01*
X149985144Y-97796779D01*
X149984000Y-97773500D01*
X149984000Y-97298500D01*
X149985144Y-97275221D01*
X149988563Y-97252166D01*
X149994227Y-97229557D01*
X150002079Y-97207613D01*
X150012044Y-97186543D01*
X150024026Y-97166552D01*
X150037910Y-97147832D01*
X150053562Y-97130562D01*
X150070832Y-97114910D01*
X150089552Y-97101026D01*
X150109543Y-97089044D01*
X150130613Y-97079079D01*
X150152557Y-97071227D01*
X150175166Y-97065563D01*
X150198221Y-97062144D01*
X150221500Y-97061000D01*
X150796500Y-97061000D01*
X150819779Y-97062144D01*
X150819779Y-97062144D01*
G37*
D13*
G04 #@! TD*
G04 #@! TO.P,R2,1*
G04 #@! TO.N,Net-(D2-Pad2)*
X150509000Y-97536000D03*
D12*
G04 #@! TO.N,GND*
G04 #@! TO.C,D3*
G36*
X170518779Y-104428144D02*
X170541834Y-104431563D01*
X170564443Y-104437227D01*
X170586387Y-104445079D01*
X170607457Y-104455044D01*
X170627448Y-104467026D01*
X170646168Y-104480910D01*
X170663438Y-104496562D01*
X170679090Y-104513832D01*
X170692974Y-104532552D01*
X170704956Y-104552543D01*
X170714921Y-104573613D01*
X170722773Y-104595557D01*
X170728437Y-104618166D01*
X170731856Y-104641221D01*
X170733000Y-104664500D01*
X170733000Y-105139500D01*
X170731856Y-105162779D01*
X170728437Y-105185834D01*
X170722773Y-105208443D01*
X170714921Y-105230387D01*
X170704956Y-105251457D01*
X170692974Y-105271448D01*
X170679090Y-105290168D01*
X170663438Y-105307438D01*
X170646168Y-105323090D01*
X170627448Y-105336974D01*
X170607457Y-105348956D01*
X170586387Y-105358921D01*
X170564443Y-105366773D01*
X170541834Y-105372437D01*
X170518779Y-105375856D01*
X170495500Y-105377000D01*
X169920500Y-105377000D01*
X169897221Y-105375856D01*
X169874166Y-105372437D01*
X169851557Y-105366773D01*
X169829613Y-105358921D01*
X169808543Y-105348956D01*
X169788552Y-105336974D01*
X169769832Y-105323090D01*
X169752562Y-105307438D01*
X169736910Y-105290168D01*
X169723026Y-105271448D01*
X169711044Y-105251457D01*
X169701079Y-105230387D01*
X169693227Y-105208443D01*
X169687563Y-105185834D01*
X169684144Y-105162779D01*
X169683000Y-105139500D01*
X169683000Y-104664500D01*
X169684144Y-104641221D01*
X169687563Y-104618166D01*
X169693227Y-104595557D01*
X169701079Y-104573613D01*
X169711044Y-104552543D01*
X169723026Y-104532552D01*
X169736910Y-104513832D01*
X169752562Y-104496562D01*
X169769832Y-104480910D01*
X169788552Y-104467026D01*
X169808543Y-104455044D01*
X169829613Y-104445079D01*
X169851557Y-104437227D01*
X169874166Y-104431563D01*
X169897221Y-104428144D01*
X169920500Y-104427000D01*
X170495500Y-104427000D01*
X170518779Y-104428144D01*
X170518779Y-104428144D01*
G37*
D13*
G04 #@! TD*
G04 #@! TO.P,D3,1*
G04 #@! TO.N,GND*
X170208000Y-104902000D03*
D12*
G04 #@! TO.N,Net-(D3-Pad2)*
G04 #@! TO.C,D3*
G36*
X172268779Y-104428144D02*
X172291834Y-104431563D01*
X172314443Y-104437227D01*
X172336387Y-104445079D01*
X172357457Y-104455044D01*
X172377448Y-104467026D01*
X172396168Y-104480910D01*
X172413438Y-104496562D01*
X172429090Y-104513832D01*
X172442974Y-104532552D01*
X172454956Y-104552543D01*
X172464921Y-104573613D01*
X172472773Y-104595557D01*
X172478437Y-104618166D01*
X172481856Y-104641221D01*
X172483000Y-104664500D01*
X172483000Y-105139500D01*
X172481856Y-105162779D01*
X172478437Y-105185834D01*
X172472773Y-105208443D01*
X172464921Y-105230387D01*
X172454956Y-105251457D01*
X172442974Y-105271448D01*
X172429090Y-105290168D01*
X172413438Y-105307438D01*
X172396168Y-105323090D01*
X172377448Y-105336974D01*
X172357457Y-105348956D01*
X172336387Y-105358921D01*
X172314443Y-105366773D01*
X172291834Y-105372437D01*
X172268779Y-105375856D01*
X172245500Y-105377000D01*
X171670500Y-105377000D01*
X171647221Y-105375856D01*
X171624166Y-105372437D01*
X171601557Y-105366773D01*
X171579613Y-105358921D01*
X171558543Y-105348956D01*
X171538552Y-105336974D01*
X171519832Y-105323090D01*
X171502562Y-105307438D01*
X171486910Y-105290168D01*
X171473026Y-105271448D01*
X171461044Y-105251457D01*
X171451079Y-105230387D01*
X171443227Y-105208443D01*
X171437563Y-105185834D01*
X171434144Y-105162779D01*
X171433000Y-105139500D01*
X171433000Y-104664500D01*
X171434144Y-104641221D01*
X171437563Y-104618166D01*
X171443227Y-104595557D01*
X171451079Y-104573613D01*
X171461044Y-104552543D01*
X171473026Y-104532552D01*
X171486910Y-104513832D01*
X171502562Y-104496562D01*
X171519832Y-104480910D01*
X171538552Y-104467026D01*
X171558543Y-104455044D01*
X171579613Y-104445079D01*
X171601557Y-104437227D01*
X171624166Y-104431563D01*
X171647221Y-104428144D01*
X171670500Y-104427000D01*
X172245500Y-104427000D01*
X172268779Y-104428144D01*
X172268779Y-104428144D01*
G37*
D13*
G04 #@! TD*
G04 #@! TO.P,D3,2*
G04 #@! TO.N,Net-(D3-Pad2)*
X171958000Y-104902000D03*
D12*
G04 #@! TO.N,Net-(D3-Pad2)*
G04 #@! TO.C,R3*
G36*
X172268779Y-101888144D02*
X172291834Y-101891563D01*
X172314443Y-101897227D01*
X172336387Y-101905079D01*
X172357457Y-101915044D01*
X172377448Y-101927026D01*
X172396168Y-101940910D01*
X172413438Y-101956562D01*
X172429090Y-101973832D01*
X172442974Y-101992552D01*
X172454956Y-102012543D01*
X172464921Y-102033613D01*
X172472773Y-102055557D01*
X172478437Y-102078166D01*
X172481856Y-102101221D01*
X172483000Y-102124500D01*
X172483000Y-102599500D01*
X172481856Y-102622779D01*
X172478437Y-102645834D01*
X172472773Y-102668443D01*
X172464921Y-102690387D01*
X172454956Y-102711457D01*
X172442974Y-102731448D01*
X172429090Y-102750168D01*
X172413438Y-102767438D01*
X172396168Y-102783090D01*
X172377448Y-102796974D01*
X172357457Y-102808956D01*
X172336387Y-102818921D01*
X172314443Y-102826773D01*
X172291834Y-102832437D01*
X172268779Y-102835856D01*
X172245500Y-102837000D01*
X171670500Y-102837000D01*
X171647221Y-102835856D01*
X171624166Y-102832437D01*
X171601557Y-102826773D01*
X171579613Y-102818921D01*
X171558543Y-102808956D01*
X171538552Y-102796974D01*
X171519832Y-102783090D01*
X171502562Y-102767438D01*
X171486910Y-102750168D01*
X171473026Y-102731448D01*
X171461044Y-102711457D01*
X171451079Y-102690387D01*
X171443227Y-102668443D01*
X171437563Y-102645834D01*
X171434144Y-102622779D01*
X171433000Y-102599500D01*
X171433000Y-102124500D01*
X171434144Y-102101221D01*
X171437563Y-102078166D01*
X171443227Y-102055557D01*
X171451079Y-102033613D01*
X171461044Y-102012543D01*
X171473026Y-101992552D01*
X171486910Y-101973832D01*
X171502562Y-101956562D01*
X171519832Y-101940910D01*
X171538552Y-101927026D01*
X171558543Y-101915044D01*
X171579613Y-101905079D01*
X171601557Y-101897227D01*
X171624166Y-101891563D01*
X171647221Y-101888144D01*
X171670500Y-101887000D01*
X172245500Y-101887000D01*
X172268779Y-101888144D01*
X172268779Y-101888144D01*
G37*
D13*
G04 #@! TD*
G04 #@! TO.P,R3,1*
G04 #@! TO.N,Net-(D3-Pad2)*
X171958000Y-102362000D03*
D12*
G04 #@! TO.N,+3V3*
G04 #@! TO.C,R3*
G36*
X170518779Y-101888144D02*
X170541834Y-101891563D01*
X170564443Y-101897227D01*
X170586387Y-101905079D01*
X170607457Y-101915044D01*
X170627448Y-101927026D01*
X170646168Y-101940910D01*
X170663438Y-101956562D01*
X170679090Y-101973832D01*
X170692974Y-101992552D01*
X170704956Y-102012543D01*
X170714921Y-102033613D01*
X170722773Y-102055557D01*
X170728437Y-102078166D01*
X170731856Y-102101221D01*
X170733000Y-102124500D01*
X170733000Y-102599500D01*
X170731856Y-102622779D01*
X170728437Y-102645834D01*
X170722773Y-102668443D01*
X170714921Y-102690387D01*
X170704956Y-102711457D01*
X170692974Y-102731448D01*
X170679090Y-102750168D01*
X170663438Y-102767438D01*
X170646168Y-102783090D01*
X170627448Y-102796974D01*
X170607457Y-102808956D01*
X170586387Y-102818921D01*
X170564443Y-102826773D01*
X170541834Y-102832437D01*
X170518779Y-102835856D01*
X170495500Y-102837000D01*
X169920500Y-102837000D01*
X169897221Y-102835856D01*
X169874166Y-102832437D01*
X169851557Y-102826773D01*
X169829613Y-102818921D01*
X169808543Y-102808956D01*
X169788552Y-102796974D01*
X169769832Y-102783090D01*
X169752562Y-102767438D01*
X169736910Y-102750168D01*
X169723026Y-102731448D01*
X169711044Y-102711457D01*
X169701079Y-102690387D01*
X169693227Y-102668443D01*
X169687563Y-102645834D01*
X169684144Y-102622779D01*
X169683000Y-102599500D01*
X169683000Y-102124500D01*
X169684144Y-102101221D01*
X169687563Y-102078166D01*
X169693227Y-102055557D01*
X169701079Y-102033613D01*
X169711044Y-102012543D01*
X169723026Y-101992552D01*
X169736910Y-101973832D01*
X169752562Y-101956562D01*
X169769832Y-101940910D01*
X169788552Y-101927026D01*
X169808543Y-101915044D01*
X169829613Y-101905079D01*
X169851557Y-101897227D01*
X169874166Y-101891563D01*
X169897221Y-101888144D01*
X169920500Y-101887000D01*
X170495500Y-101887000D01*
X170518779Y-101888144D01*
X170518779Y-101888144D01*
G37*
D13*
G04 #@! TD*
G04 #@! TO.P,R3,2*
G04 #@! TO.N,+3V3*
X170208000Y-102362000D03*
D14*
G04 #@! TO.N,+3V3*
X168811804Y-101090688D03*
G04 #@! TD*
D15*
G04 #@! TO.N,GND*
X170662600Y-100101400D02*
X170688000Y-100076000D01*
G04 #@! TO.N,+3V3*
X170208000Y-102362000D02*
X169926000Y-102362000D01*
X169827804Y-102106688D02*
X168811804Y-101090688D01*
G04 #@! TO.N,TX*
X160578800Y-97536000D02*
X162864800Y-95250000D01*
X152259000Y-97536000D02*
X160578800Y-97536000D01*
G04 #@! TO.N,RX*
X167690800Y-97536000D02*
X165404800Y-95250000D01*
X170688000Y-97536000D02*
X167690800Y-97536000D01*
G04 #@! TO.N,Net-(D1-Pad2)*
X172438000Y-100076000D02*
X172438000Y-97536000D01*
G04 #@! TO.N,Net-(D2-Pad2)*
X150509000Y-100076000D02*
X150509000Y-97536000D01*
G04 #@! TO.N,Net-(D3-Pad2)*
X171958000Y-104902000D02*
X171958000Y-102362000D01*
G04 #@! TD*
D16*
G04 #@! TO.N,GND*
G36*
X172702358Y-63229147D02*
X172335000Y-64116026D01*
X172335000Y-65075976D01*
X172702358Y-65962855D01*
X173381146Y-66641643D01*
X174268025Y-67009001D01*
X175227975Y-67009001D01*
X176114854Y-66641643D01*
X176581046Y-66175451D01*
X176580294Y-67481882D01*
X176346403Y-67385001D01*
X175689595Y-67385001D01*
X175082783Y-67636351D01*
X174618349Y-68100785D01*
X174366999Y-68707597D01*
X174366999Y-69364405D01*
X174618349Y-69971217D01*
X174953133Y-70306001D01*
X174618349Y-70640785D01*
X174366999Y-71247597D01*
X174366999Y-71904405D01*
X174618349Y-72511217D01*
X174953133Y-72846001D01*
X174618349Y-73180785D01*
X174366999Y-73787597D01*
X174366999Y-74444405D01*
X174618349Y-75051217D01*
X174953133Y-75386001D01*
X174618349Y-75720785D01*
X174366999Y-76327597D01*
X174366999Y-76984405D01*
X174618349Y-77591217D01*
X174953133Y-77926001D01*
X174618349Y-78260785D01*
X174366999Y-78867597D01*
X174366999Y-79524405D01*
X174618349Y-80131217D01*
X174953133Y-80466001D01*
X174618349Y-80800785D01*
X174366999Y-81407597D01*
X174366999Y-82064405D01*
X174618349Y-82671217D01*
X174953133Y-83006001D01*
X174618349Y-83340785D01*
X174366999Y-83947597D01*
X174366999Y-84604405D01*
X174618349Y-85211217D01*
X175082783Y-85675651D01*
X175689595Y-85927001D01*
X176346403Y-85927001D01*
X176569734Y-85834494D01*
X176567526Y-89673031D01*
X176114854Y-89220359D01*
X175227975Y-88853001D01*
X174268025Y-88853001D01*
X173381146Y-89220359D01*
X172702358Y-89899147D01*
X172335000Y-90786026D01*
X172335000Y-91745976D01*
X172702358Y-92632855D01*
X173381146Y-93311643D01*
X174268025Y-93679001D01*
X175227975Y-93679001D01*
X176114854Y-93311643D01*
X176565691Y-92860806D01*
X176557009Y-107951200D01*
X146276992Y-107951200D01*
X146274385Y-103416567D01*
X154154800Y-103416567D01*
X154154800Y-104355433D01*
X154514089Y-105222833D01*
X155177967Y-105886711D01*
X156045367Y-106246000D01*
X156984233Y-106246000D01*
X157851633Y-105886711D01*
X158515511Y-105222833D01*
X158874800Y-104355433D01*
X158874800Y-103416567D01*
X164314800Y-103416567D01*
X164314800Y-104355433D01*
X164674089Y-105222833D01*
X165337967Y-105886711D01*
X166205367Y-106246000D01*
X167144233Y-106246000D01*
X168011633Y-105886711D01*
X168675511Y-105222833D01*
X169034800Y-104355433D01*
X169034800Y-103416567D01*
X168675511Y-102549167D01*
X168011633Y-101885289D01*
X167144233Y-101526000D01*
X166205367Y-101526000D01*
X165337967Y-101885289D01*
X164674089Y-102549167D01*
X164314800Y-103416567D01*
X158874800Y-103416567D01*
X158515511Y-102549167D01*
X157851633Y-101885289D01*
X156984233Y-101526000D01*
X156045367Y-101526000D01*
X155177967Y-101885289D01*
X154514089Y-102549167D01*
X154154800Y-103416567D01*
X146274385Y-103416567D01*
X146270867Y-97298500D01*
X149336560Y-97298500D01*
X149336560Y-97773500D01*
X149403922Y-98112152D01*
X149595753Y-98399247D01*
X149683501Y-98457878D01*
X149683500Y-99154122D01*
X149595753Y-99212753D01*
X149403922Y-99499848D01*
X149336560Y-99838500D01*
X149336560Y-100313500D01*
X149403922Y-100652152D01*
X149595753Y-100939247D01*
X149882848Y-101131078D01*
X150221500Y-101198440D01*
X150796500Y-101198440D01*
X151135152Y-101131078D01*
X151422247Y-100939247D01*
X151458618Y-100884814D01*
X167776804Y-100884814D01*
X167776804Y-101296562D01*
X167934373Y-101676968D01*
X168225524Y-101968119D01*
X168605930Y-102125688D01*
X168679372Y-102125688D01*
X169035560Y-102481877D01*
X169035560Y-102599500D01*
X169102922Y-102938152D01*
X169294753Y-103225247D01*
X169581848Y-103417078D01*
X169920500Y-103484440D01*
X170495500Y-103484440D01*
X170834152Y-103417078D01*
X171083000Y-103250803D01*
X171132501Y-103283878D01*
X171132500Y-103980122D01*
X171044753Y-104038753D01*
X170852922Y-104325848D01*
X170785560Y-104664500D01*
X170785560Y-105139500D01*
X170852922Y-105478152D01*
X171044753Y-105765247D01*
X171331848Y-105957078D01*
X171670500Y-106024440D01*
X172245500Y-106024440D01*
X172584152Y-105957078D01*
X172871247Y-105765247D01*
X173063078Y-105478152D01*
X173130440Y-105139500D01*
X173130440Y-104664500D01*
X173063078Y-104325848D01*
X172871247Y-104038753D01*
X172783500Y-103980122D01*
X172783500Y-103283878D01*
X172871247Y-103225247D01*
X173063078Y-102938152D01*
X173130440Y-102599500D01*
X173130440Y-102124500D01*
X173063078Y-101785848D01*
X172871247Y-101498753D01*
X172584152Y-101306922D01*
X172245500Y-101239560D01*
X171670500Y-101239560D01*
X171331848Y-101306922D01*
X171083000Y-101473197D01*
X170834152Y-101306922D01*
X170495500Y-101239560D01*
X170128109Y-101239560D01*
X169846804Y-100958256D01*
X169846804Y-100884814D01*
X169689235Y-100504408D01*
X169398084Y-100213257D01*
X169017678Y-100055688D01*
X168605930Y-100055688D01*
X168225524Y-100213257D01*
X167934373Y-100504408D01*
X167776804Y-100884814D01*
X151458618Y-100884814D01*
X151614078Y-100652152D01*
X151681440Y-100313500D01*
X151681440Y-99838500D01*
X151614078Y-99499848D01*
X151422247Y-99212753D01*
X151334500Y-99154122D01*
X151334500Y-98457878D01*
X151384000Y-98424803D01*
X151632848Y-98591078D01*
X151971500Y-98658440D01*
X152546500Y-98658440D01*
X152885152Y-98591078D01*
X153172247Y-98399247D01*
X153197469Y-98361500D01*
X160497499Y-98361500D01*
X160578800Y-98377672D01*
X160660101Y-98361500D01*
X160660103Y-98361500D01*
X160900894Y-98313604D01*
X161173952Y-98131152D01*
X161220009Y-98062223D01*
X162635233Y-96647000D01*
X163142681Y-96647000D01*
X163656137Y-96434320D01*
X164049120Y-96041337D01*
X164134800Y-95834487D01*
X164220480Y-96041337D01*
X164613463Y-96434320D01*
X165126919Y-96647000D01*
X165634368Y-96647000D01*
X167049593Y-98062226D01*
X167095648Y-98131152D01*
X167368706Y-98313604D01*
X167609497Y-98361500D01*
X167609501Y-98361500D01*
X167690799Y-98377671D01*
X167772097Y-98361500D01*
X169749531Y-98361500D01*
X169774753Y-98399247D01*
X170061848Y-98591078D01*
X170400500Y-98658440D01*
X170975500Y-98658440D01*
X171314152Y-98591078D01*
X171563000Y-98424803D01*
X171612501Y-98457878D01*
X171612500Y-99154122D01*
X171524753Y-99212753D01*
X171332922Y-99499848D01*
X171265560Y-99838500D01*
X171265560Y-100313500D01*
X171332922Y-100652152D01*
X171524753Y-100939247D01*
X171811848Y-101131078D01*
X172150500Y-101198440D01*
X172725500Y-101198440D01*
X173064152Y-101131078D01*
X173351247Y-100939247D01*
X173543078Y-100652152D01*
X173610440Y-100313500D01*
X173610440Y-99838500D01*
X173543078Y-99499848D01*
X173351247Y-99212753D01*
X173263500Y-99154122D01*
X173263500Y-98457878D01*
X173351247Y-98399247D01*
X173543078Y-98112152D01*
X173610440Y-97773500D01*
X173610440Y-97298500D01*
X173543078Y-96959848D01*
X173351247Y-96672753D01*
X173064152Y-96480922D01*
X172725500Y-96413560D01*
X172150500Y-96413560D01*
X171811848Y-96480922D01*
X171563000Y-96647197D01*
X171314152Y-96480922D01*
X170975500Y-96413560D01*
X170400500Y-96413560D01*
X170061848Y-96480922D01*
X169774753Y-96672753D01*
X169749531Y-96710500D01*
X168032733Y-96710500D01*
X166801800Y-95479568D01*
X166801800Y-94972119D01*
X166589120Y-94458663D01*
X166196137Y-94065680D01*
X165682681Y-93853000D01*
X165126919Y-93853000D01*
X164613463Y-94065680D01*
X164220480Y-94458663D01*
X164134800Y-94665513D01*
X164049120Y-94458663D01*
X163656137Y-94065680D01*
X163142681Y-93853000D01*
X162586919Y-93853000D01*
X162073463Y-94065680D01*
X161680480Y-94458663D01*
X161467800Y-94972119D01*
X161467800Y-95479567D01*
X160236868Y-96710500D01*
X153197469Y-96710500D01*
X153172247Y-96672753D01*
X152885152Y-96480922D01*
X152546500Y-96413560D01*
X151971500Y-96413560D01*
X151632848Y-96480922D01*
X151384000Y-96647197D01*
X151135152Y-96480922D01*
X150796500Y-96413560D01*
X150221500Y-96413560D01*
X149882848Y-96480922D01*
X149595753Y-96672753D01*
X149403922Y-96959848D01*
X149336560Y-97298500D01*
X146270867Y-97298500D01*
X146269529Y-94972119D01*
X156387800Y-94972119D01*
X156387800Y-95527881D01*
X156600480Y-96041337D01*
X156993463Y-96434320D01*
X157506919Y-96647000D01*
X158062681Y-96647000D01*
X158576137Y-96434320D01*
X158969120Y-96041337D01*
X159181800Y-95527881D01*
X159181800Y-94972119D01*
X158969120Y-94458663D01*
X158576137Y-94065680D01*
X158062681Y-93853000D01*
X157506919Y-93853000D01*
X156993463Y-94065680D01*
X156600480Y-94458663D01*
X156387800Y-94972119D01*
X146269529Y-94972119D01*
X146268319Y-92868816D01*
X146711146Y-93311643D01*
X147598025Y-93679001D01*
X148557975Y-93679001D01*
X149444854Y-93311643D01*
X150123642Y-92632855D01*
X150491000Y-91745976D01*
X150491000Y-90786026D01*
X150123642Y-89899147D01*
X149444854Y-89220359D01*
X148557975Y-88853001D01*
X147598025Y-88853001D01*
X146711146Y-89220359D01*
X146266476Y-89665029D01*
X146264275Y-85837812D01*
X146479596Y-85927001D01*
X147136404Y-85927001D01*
X147743216Y-85675651D01*
X148207650Y-85211217D01*
X148459000Y-84604405D01*
X148459000Y-83947597D01*
X148207650Y-83340785D01*
X147872866Y-83006001D01*
X148207650Y-82671217D01*
X148459000Y-82064405D01*
X148459000Y-81407597D01*
X148207650Y-80800785D01*
X147872866Y-80466001D01*
X148207650Y-80131217D01*
X148459000Y-79524405D01*
X148459000Y-78867597D01*
X148207650Y-78260785D01*
X147743216Y-77796351D01*
X147136404Y-77545001D01*
X146479596Y-77545001D01*
X146259559Y-77636143D01*
X146252973Y-66183470D01*
X146711146Y-66641643D01*
X147598025Y-67009001D01*
X148557975Y-67009001D01*
X149444854Y-66641643D01*
X150123642Y-65962855D01*
X150491000Y-65075976D01*
X150491000Y-64116026D01*
X150123642Y-63229147D01*
X149656695Y-62762200D01*
X173169305Y-62762200D01*
X172702358Y-63229147D01*
X172702358Y-63229147D01*
G37*
X172702358Y-63229147D02*
X172335000Y-64116026D01*
X172335000Y-65075976D01*
X172702358Y-65962855D01*
X173381146Y-66641643D01*
X174268025Y-67009001D01*
X175227975Y-67009001D01*
X176114854Y-66641643D01*
X176581046Y-66175451D01*
X176580294Y-67481882D01*
X176346403Y-67385001D01*
X175689595Y-67385001D01*
X175082783Y-67636351D01*
X174618349Y-68100785D01*
X174366999Y-68707597D01*
X174366999Y-69364405D01*
X174618349Y-69971217D01*
X174953133Y-70306001D01*
X174618349Y-70640785D01*
X174366999Y-71247597D01*
X174366999Y-71904405D01*
X174618349Y-72511217D01*
X174953133Y-72846001D01*
X174618349Y-73180785D01*
X174366999Y-73787597D01*
X174366999Y-74444405D01*
X174618349Y-75051217D01*
X174953133Y-75386001D01*
X174618349Y-75720785D01*
X174366999Y-76327597D01*
X174366999Y-76984405D01*
X174618349Y-77591217D01*
X174953133Y-77926001D01*
X174618349Y-78260785D01*
X174366999Y-78867597D01*
X174366999Y-79524405D01*
X174618349Y-80131217D01*
X174953133Y-80466001D01*
X174618349Y-80800785D01*
X174366999Y-81407597D01*
X174366999Y-82064405D01*
X174618349Y-82671217D01*
X174953133Y-83006001D01*
X174618349Y-83340785D01*
X174366999Y-83947597D01*
X174366999Y-84604405D01*
X174618349Y-85211217D01*
X175082783Y-85675651D01*
X175689595Y-85927001D01*
X176346403Y-85927001D01*
X176569734Y-85834494D01*
X176567526Y-89673031D01*
X176114854Y-89220359D01*
X175227975Y-88853001D01*
X174268025Y-88853001D01*
X173381146Y-89220359D01*
X172702358Y-89899147D01*
X172335000Y-90786026D01*
X172335000Y-91745976D01*
X172702358Y-92632855D01*
X173381146Y-93311643D01*
X174268025Y-93679001D01*
X175227975Y-93679001D01*
X176114854Y-93311643D01*
X176565691Y-92860806D01*
X176557009Y-107951200D01*
X146276992Y-107951200D01*
X146274385Y-103416567D01*
X154154800Y-103416567D01*
X154154800Y-104355433D01*
X154514089Y-105222833D01*
X155177967Y-105886711D01*
X156045367Y-106246000D01*
X156984233Y-106246000D01*
X157851633Y-105886711D01*
X158515511Y-105222833D01*
X158874800Y-104355433D01*
X158874800Y-103416567D01*
X164314800Y-103416567D01*
X164314800Y-104355433D01*
X164674089Y-105222833D01*
X165337967Y-105886711D01*
X166205367Y-106246000D01*
X167144233Y-106246000D01*
X168011633Y-105886711D01*
X168675511Y-105222833D01*
X169034800Y-104355433D01*
X169034800Y-103416567D01*
X168675511Y-102549167D01*
X168011633Y-101885289D01*
X167144233Y-101526000D01*
X166205367Y-101526000D01*
X165337967Y-101885289D01*
X164674089Y-102549167D01*
X164314800Y-103416567D01*
X158874800Y-103416567D01*
X158515511Y-102549167D01*
X157851633Y-101885289D01*
X156984233Y-101526000D01*
X156045367Y-101526000D01*
X155177967Y-101885289D01*
X154514089Y-102549167D01*
X154154800Y-103416567D01*
X146274385Y-103416567D01*
X146270867Y-97298500D01*
X149336560Y-97298500D01*
X149336560Y-97773500D01*
X149403922Y-98112152D01*
X149595753Y-98399247D01*
X149683501Y-98457878D01*
X149683500Y-99154122D01*
X149595753Y-99212753D01*
X149403922Y-99499848D01*
X149336560Y-99838500D01*
X149336560Y-100313500D01*
X149403922Y-100652152D01*
X149595753Y-100939247D01*
X149882848Y-101131078D01*
X150221500Y-101198440D01*
X150796500Y-101198440D01*
X151135152Y-101131078D01*
X151422247Y-100939247D01*
X151458618Y-100884814D01*
X167776804Y-100884814D01*
X167776804Y-101296562D01*
X167934373Y-101676968D01*
X168225524Y-101968119D01*
X168605930Y-102125688D01*
X168679372Y-102125688D01*
X169035560Y-102481877D01*
X169035560Y-102599500D01*
X169102922Y-102938152D01*
X169294753Y-103225247D01*
X169581848Y-103417078D01*
X169920500Y-103484440D01*
X170495500Y-103484440D01*
X170834152Y-103417078D01*
X171083000Y-103250803D01*
X171132501Y-103283878D01*
X171132500Y-103980122D01*
X171044753Y-104038753D01*
X170852922Y-104325848D01*
X170785560Y-104664500D01*
X170785560Y-105139500D01*
X170852922Y-105478152D01*
X171044753Y-105765247D01*
X171331848Y-105957078D01*
X171670500Y-106024440D01*
X172245500Y-106024440D01*
X172584152Y-105957078D01*
X172871247Y-105765247D01*
X173063078Y-105478152D01*
X173130440Y-105139500D01*
X173130440Y-104664500D01*
X173063078Y-104325848D01*
X172871247Y-104038753D01*
X172783500Y-103980122D01*
X172783500Y-103283878D01*
X172871247Y-103225247D01*
X173063078Y-102938152D01*
X173130440Y-102599500D01*
X173130440Y-102124500D01*
X173063078Y-101785848D01*
X172871247Y-101498753D01*
X172584152Y-101306922D01*
X172245500Y-101239560D01*
X171670500Y-101239560D01*
X171331848Y-101306922D01*
X171083000Y-101473197D01*
X170834152Y-101306922D01*
X170495500Y-101239560D01*
X170128109Y-101239560D01*
X169846804Y-100958256D01*
X169846804Y-100884814D01*
X169689235Y-100504408D01*
X169398084Y-100213257D01*
X169017678Y-100055688D01*
X168605930Y-100055688D01*
X168225524Y-100213257D01*
X167934373Y-100504408D01*
X167776804Y-100884814D01*
X151458618Y-100884814D01*
X151614078Y-100652152D01*
X151681440Y-100313500D01*
X151681440Y-99838500D01*
X151614078Y-99499848D01*
X151422247Y-99212753D01*
X151334500Y-99154122D01*
X151334500Y-98457878D01*
X151384000Y-98424803D01*
X151632848Y-98591078D01*
X151971500Y-98658440D01*
X152546500Y-98658440D01*
X152885152Y-98591078D01*
X153172247Y-98399247D01*
X153197469Y-98361500D01*
X160497499Y-98361500D01*
X160578800Y-98377672D01*
X160660101Y-98361500D01*
X160660103Y-98361500D01*
X160900894Y-98313604D01*
X161173952Y-98131152D01*
X161220009Y-98062223D01*
X162635233Y-96647000D01*
X163142681Y-96647000D01*
X163656137Y-96434320D01*
X164049120Y-96041337D01*
X164134800Y-95834487D01*
X164220480Y-96041337D01*
X164613463Y-96434320D01*
X165126919Y-96647000D01*
X165634368Y-96647000D01*
X167049593Y-98062226D01*
X167095648Y-98131152D01*
X167368706Y-98313604D01*
X167609497Y-98361500D01*
X167609501Y-98361500D01*
X167690799Y-98377671D01*
X167772097Y-98361500D01*
X169749531Y-98361500D01*
X169774753Y-98399247D01*
X170061848Y-98591078D01*
X170400500Y-98658440D01*
X170975500Y-98658440D01*
X171314152Y-98591078D01*
X171563000Y-98424803D01*
X171612501Y-98457878D01*
X171612500Y-99154122D01*
X171524753Y-99212753D01*
X171332922Y-99499848D01*
X171265560Y-99838500D01*
X171265560Y-100313500D01*
X171332922Y-100652152D01*
X171524753Y-100939247D01*
X171811848Y-101131078D01*
X172150500Y-101198440D01*
X172725500Y-101198440D01*
X173064152Y-101131078D01*
X173351247Y-100939247D01*
X173543078Y-100652152D01*
X173610440Y-100313500D01*
X173610440Y-99838500D01*
X173543078Y-99499848D01*
X173351247Y-99212753D01*
X173263500Y-99154122D01*
X173263500Y-98457878D01*
X173351247Y-98399247D01*
X173543078Y-98112152D01*
X173610440Y-97773500D01*
X173610440Y-97298500D01*
X173543078Y-96959848D01*
X173351247Y-96672753D01*
X173064152Y-96480922D01*
X172725500Y-96413560D01*
X172150500Y-96413560D01*
X171811848Y-96480922D01*
X171563000Y-96647197D01*
X171314152Y-96480922D01*
X170975500Y-96413560D01*
X170400500Y-96413560D01*
X170061848Y-96480922D01*
X169774753Y-96672753D01*
X169749531Y-96710500D01*
X168032733Y-96710500D01*
X166801800Y-95479568D01*
X166801800Y-94972119D01*
X166589120Y-94458663D01*
X166196137Y-94065680D01*
X165682681Y-93853000D01*
X165126919Y-93853000D01*
X164613463Y-94065680D01*
X164220480Y-94458663D01*
X164134800Y-94665513D01*
X164049120Y-94458663D01*
X163656137Y-94065680D01*
X163142681Y-93853000D01*
X162586919Y-93853000D01*
X162073463Y-94065680D01*
X161680480Y-94458663D01*
X161467800Y-94972119D01*
X161467800Y-95479567D01*
X160236868Y-96710500D01*
X153197469Y-96710500D01*
X153172247Y-96672753D01*
X152885152Y-96480922D01*
X152546500Y-96413560D01*
X151971500Y-96413560D01*
X151632848Y-96480922D01*
X151384000Y-96647197D01*
X151135152Y-96480922D01*
X150796500Y-96413560D01*
X150221500Y-96413560D01*
X149882848Y-96480922D01*
X149595753Y-96672753D01*
X149403922Y-96959848D01*
X149336560Y-97298500D01*
X146270867Y-97298500D01*
X146269529Y-94972119D01*
X156387800Y-94972119D01*
X156387800Y-95527881D01*
X156600480Y-96041337D01*
X156993463Y-96434320D01*
X157506919Y-96647000D01*
X158062681Y-96647000D01*
X158576137Y-96434320D01*
X158969120Y-96041337D01*
X159181800Y-95527881D01*
X159181800Y-94972119D01*
X158969120Y-94458663D01*
X158576137Y-94065680D01*
X158062681Y-93853000D01*
X157506919Y-93853000D01*
X156993463Y-94065680D01*
X156600480Y-94458663D01*
X156387800Y-94972119D01*
X146269529Y-94972119D01*
X146268319Y-92868816D01*
X146711146Y-93311643D01*
X147598025Y-93679001D01*
X148557975Y-93679001D01*
X149444854Y-93311643D01*
X150123642Y-92632855D01*
X150491000Y-91745976D01*
X150491000Y-90786026D01*
X150123642Y-89899147D01*
X149444854Y-89220359D01*
X148557975Y-88853001D01*
X147598025Y-88853001D01*
X146711146Y-89220359D01*
X146266476Y-89665029D01*
X146264275Y-85837812D01*
X146479596Y-85927001D01*
X147136404Y-85927001D01*
X147743216Y-85675651D01*
X148207650Y-85211217D01*
X148459000Y-84604405D01*
X148459000Y-83947597D01*
X148207650Y-83340785D01*
X147872866Y-83006001D01*
X148207650Y-82671217D01*
X148459000Y-82064405D01*
X148459000Y-81407597D01*
X148207650Y-80800785D01*
X147872866Y-80466001D01*
X148207650Y-80131217D01*
X148459000Y-79524405D01*
X148459000Y-78867597D01*
X148207650Y-78260785D01*
X147743216Y-77796351D01*
X147136404Y-77545001D01*
X146479596Y-77545001D01*
X146259559Y-77636143D01*
X146252973Y-66183470D01*
X146711146Y-66641643D01*
X147598025Y-67009001D01*
X148557975Y-67009001D01*
X149444854Y-66641643D01*
X150123642Y-65962855D01*
X150491000Y-65075976D01*
X150491000Y-64116026D01*
X150123642Y-63229147D01*
X149656695Y-62762200D01*
X173169305Y-62762200D01*
X172702358Y-63229147D01*
G04 #@! TD*
M02*
