G04 #@! TF.GenerationSoftware,KiCad,Pcbnew,(5.0.2)-1*
G04 #@! TF.CreationDate,2019-03-03T18:02:14-06:00*
G04 #@! TF.ProjectId,IMUBreakout_Hardware,494d5542-7265-4616-9b6f-75745f486172,rev?*
G04 #@! TF.SameCoordinates,Original*
G04 #@! TF.FileFunction,Legend,Bot*
G04 #@! TF.FilePolarity,Positive*
%FSLAX46Y46*%
G04 Gerber Fmt 4.6, Leading zero omitted, Abs format (unit mm)*
G04 Created by KiCad (PCBNEW (5.0.2)-1) date 3/3/2019 6:02:14 PM*
%MOMM*%
%LPD*%
G01*
G04 APERTURE LIST*
%ADD10C,0.300000*%
G04 APERTURE END LIST*
D10*
X164934428Y-92281428D02*
X164934428Y-93138571D01*
X164934428Y-92710000D02*
X166434428Y-92710000D01*
X166220142Y-92852857D01*
X166077285Y-92995714D01*
X166005857Y-93138571D01*
X164421428Y-87372000D02*
X165135714Y-87872000D01*
X164421428Y-88229142D02*
X165921428Y-88229142D01*
X165921428Y-87657714D01*
X165850000Y-87514857D01*
X165778571Y-87443428D01*
X165635714Y-87372000D01*
X165421428Y-87372000D01*
X165278571Y-87443428D01*
X165207142Y-87514857D01*
X165135714Y-87657714D01*
X165135714Y-88229142D01*
X165921428Y-86872000D02*
X164421428Y-85872000D01*
X165921428Y-85872000D02*
X164421428Y-86872000D01*
X163238571Y-93138571D02*
X163310000Y-93067142D01*
X163381428Y-92924285D01*
X163381428Y-92567142D01*
X163310000Y-92424285D01*
X163238571Y-92352857D01*
X163095714Y-92281428D01*
X162952857Y-92281428D01*
X162738571Y-92352857D01*
X161881428Y-93210000D01*
X161881428Y-92281428D01*
X163381428Y-88264857D02*
X163381428Y-87407714D01*
X161881428Y-87836285D02*
X163381428Y-87836285D01*
X163381428Y-87050571D02*
X161881428Y-86050571D01*
X163381428Y-86050571D02*
X161881428Y-87050571D01*
X157547428Y-92424285D02*
X156547428Y-92424285D01*
X158118857Y-92781428D02*
X157047428Y-93138571D01*
X157047428Y-92210000D01*
X157372857Y-91288857D02*
X157372857Y-90146000D01*
X156801428Y-90717428D02*
X157944285Y-90717428D01*
X158301428Y-89574571D02*
X158301428Y-88646000D01*
X157730000Y-89146000D01*
X157730000Y-88931714D01*
X157658571Y-88788857D01*
X157587142Y-88717428D01*
X157444285Y-88646000D01*
X157087142Y-88646000D01*
X156944285Y-88717428D01*
X156872857Y-88788857D01*
X156801428Y-88931714D01*
X156801428Y-89360285D01*
X156872857Y-89503142D01*
X156944285Y-89574571D01*
X158301428Y-88217428D02*
X156801428Y-87717428D01*
X158301428Y-87217428D01*
X158301428Y-86860285D02*
X158301428Y-85931714D01*
X157730000Y-86431714D01*
X157730000Y-86217428D01*
X157658571Y-86074571D01*
X157587142Y-86003142D01*
X157444285Y-85931714D01*
X157087142Y-85931714D01*
X156944285Y-86003142D01*
X156872857Y-86074571D01*
X156801428Y-86217428D01*
X156801428Y-86646000D01*
X156872857Y-86788857D01*
X156944285Y-86860285D01*
X160841428Y-93210000D02*
X160841428Y-92281428D01*
X160270000Y-92781428D01*
X160270000Y-92567142D01*
X160198571Y-92424285D01*
X160127142Y-92352857D01*
X159984285Y-92281428D01*
X159627142Y-92281428D01*
X159484285Y-92352857D01*
X159412857Y-92424285D01*
X159341428Y-92567142D01*
X159341428Y-92995714D01*
X159412857Y-93138571D01*
X159484285Y-93210000D01*
X160770000Y-89026857D02*
X160841428Y-89169714D01*
X160841428Y-89384000D01*
X160770000Y-89598285D01*
X160627142Y-89741142D01*
X160484285Y-89812571D01*
X160198571Y-89884000D01*
X159984285Y-89884000D01*
X159698571Y-89812571D01*
X159555714Y-89741142D01*
X159412857Y-89598285D01*
X159341428Y-89384000D01*
X159341428Y-89241142D01*
X159412857Y-89026857D01*
X159484285Y-88955428D01*
X159984285Y-88955428D01*
X159984285Y-89241142D01*
X159341428Y-88312571D02*
X160841428Y-88312571D01*
X159341428Y-87455428D01*
X160841428Y-87455428D01*
X159341428Y-86741142D02*
X160841428Y-86741142D01*
X160841428Y-86384000D01*
X160770000Y-86169714D01*
X160627142Y-86026857D01*
X160484285Y-85955428D01*
X160198571Y-85884000D01*
X159984285Y-85884000D01*
X159698571Y-85955428D01*
X159555714Y-86026857D01*
X159412857Y-86169714D01*
X159341428Y-86384000D01*
X159341428Y-86741142D01*
M02*
