M48
;DRILL file {KiCad (5.0.0)} date 12/18/18 17:16:10
;FORMAT={-:-/ absolute / inch / decimal}
FMAT,2
INCH,TZ
T1C0.0157
T2C0.0300
%
G90
G05
M72
T1
X5.16Y-3.35
X5.5Y-3.6
X5.76Y-4.17
X5.81Y-3.33
T2
X5.1Y-3.35
X5.1Y-3.45
X5.1Y-3.55
X5.1Y-3.65
X5.1Y-3.75
X5.1Y-3.85
X5.1Y-3.95
X5.1Y-4.05
X5.1Y-4.15
X5.9Y-3.55
X5.9Y-3.65
X5.9Y-3.75
X5.9Y-3.85
X4.9Y-3.4
X4.9Y-3.5
X4.9Y-3.6
X4.9Y-3.7
X4.9Y-3.8
X4.9Y-3.9
X4.9Y-4.
X4.9Y-4.1
T0
M30
