G04 #@! TF.GenerationSoftware,KiCad,Pcbnew,(5.0.0)*
G04 #@! TF.CreationDate,2018-12-18T17:16:08-06:00*
G04 #@! TF.ProjectId,IMUBreakout_Hardware,494D55427265616B6F75745F48617264,rev?*
G04 #@! TF.SameCoordinates,Original*
G04 #@! TF.FileFunction,Legend,Top*
G04 #@! TF.FilePolarity,Positive*
%FSLAX46Y46*%
G04 Gerber Fmt 4.6, Leading zero omitted, Abs format (unit mm)*
G04 Created by KiCad (PCBNEW (5.0.0)) date 12/18/18 17:16:08*
%MOMM*%
%LPD*%
G01*
G04 APERTURE LIST*
%ADD10C,0.300000*%
%ADD11C,0.194000*%
%ADD12C,0.150000*%
%ADD13C,0.120000*%
G04 APERTURE END LIST*
D10*
X126428571Y-104247142D02*
X127571428Y-104247142D01*
X126428571Y-86467142D02*
X127571428Y-86467142D01*
X127000000Y-87038571D02*
X127000000Y-85895714D01*
D11*
X126224000Y-101951047D02*
X126224000Y-101175047D01*
X126593523Y-101951047D02*
X126593523Y-101175047D01*
X127036952Y-101951047D01*
X127036952Y-101175047D01*
X127369523Y-101248952D02*
X127406476Y-101212000D01*
X127480380Y-101175047D01*
X127665142Y-101175047D01*
X127739047Y-101212000D01*
X127776000Y-101248952D01*
X127812952Y-101322857D01*
X127812952Y-101396761D01*
X127776000Y-101507619D01*
X127332571Y-101951047D01*
X127812952Y-101951047D01*
X126224000Y-99411047D02*
X126224000Y-98635047D01*
X126593523Y-99411047D02*
X126593523Y-98635047D01*
X127036952Y-99411047D01*
X127036952Y-98635047D01*
X127812952Y-99411047D02*
X127369523Y-99411047D01*
X127591238Y-99411047D02*
X127591238Y-98635047D01*
X127517333Y-98745904D01*
X127443428Y-98819809D01*
X127369523Y-98856761D01*
X126150095Y-96871047D02*
X126150095Y-96095047D01*
X126519619Y-96871047D02*
X126519619Y-96095047D01*
X126963047Y-96871047D01*
X126963047Y-96095047D01*
X127332571Y-96871047D02*
X127332571Y-96095047D01*
X127591238Y-96649333D01*
X127849904Y-96095047D01*
X127849904Y-96871047D01*
X126519619Y-94331047D02*
X126260952Y-93961523D01*
X126076190Y-94331047D02*
X126076190Y-93555047D01*
X126371809Y-93555047D01*
X126445714Y-93592000D01*
X126482666Y-93628952D01*
X126519619Y-93702857D01*
X126519619Y-93813714D01*
X126482666Y-93887619D01*
X126445714Y-93924571D01*
X126371809Y-93961523D01*
X126076190Y-93961523D01*
X126852190Y-94331047D02*
X126852190Y-93555047D01*
X127036952Y-93555047D01*
X127147809Y-93592000D01*
X127221714Y-93665904D01*
X127258666Y-93739809D01*
X127295619Y-93887619D01*
X127295619Y-93998476D01*
X127258666Y-94146285D01*
X127221714Y-94220190D01*
X127147809Y-94294095D01*
X127036952Y-94331047D01*
X126852190Y-94331047D01*
X127776000Y-93961523D02*
X127776000Y-94331047D01*
X127517333Y-93555047D02*
X127776000Y-93961523D01*
X128034666Y-93555047D01*
X126057714Y-91754095D02*
X126168571Y-91791047D01*
X126353333Y-91791047D01*
X126427238Y-91754095D01*
X126464190Y-91717142D01*
X126501142Y-91643238D01*
X126501142Y-91569333D01*
X126464190Y-91495428D01*
X126427238Y-91458476D01*
X126353333Y-91421523D01*
X126205523Y-91384571D01*
X126131619Y-91347619D01*
X126094666Y-91310666D01*
X126057714Y-91236761D01*
X126057714Y-91162857D01*
X126094666Y-91088952D01*
X126131619Y-91052000D01*
X126205523Y-91015047D01*
X126390285Y-91015047D01*
X126501142Y-91052000D01*
X126833714Y-91791047D02*
X126833714Y-91015047D01*
X127018476Y-91015047D01*
X127129333Y-91052000D01*
X127203238Y-91125904D01*
X127240190Y-91199809D01*
X127277142Y-91347619D01*
X127277142Y-91458476D01*
X127240190Y-91606285D01*
X127203238Y-91680190D01*
X127129333Y-91754095D01*
X127018476Y-91791047D01*
X126833714Y-91791047D01*
X127572761Y-91569333D02*
X127942285Y-91569333D01*
X127498857Y-91791047D02*
X127757523Y-91015047D01*
X128016190Y-91791047D01*
X126076190Y-89214095D02*
X126187047Y-89251047D01*
X126371809Y-89251047D01*
X126445714Y-89214095D01*
X126482666Y-89177142D01*
X126519619Y-89103238D01*
X126519619Y-89029333D01*
X126482666Y-88955428D01*
X126445714Y-88918476D01*
X126371809Y-88881523D01*
X126224000Y-88844571D01*
X126150095Y-88807619D01*
X126113142Y-88770666D01*
X126076190Y-88696761D01*
X126076190Y-88622857D01*
X126113142Y-88548952D01*
X126150095Y-88512000D01*
X126224000Y-88475047D01*
X126408761Y-88475047D01*
X126519619Y-88512000D01*
X127295619Y-89177142D02*
X127258666Y-89214095D01*
X127147809Y-89251047D01*
X127073904Y-89251047D01*
X126963047Y-89214095D01*
X126889142Y-89140190D01*
X126852190Y-89066285D01*
X126815238Y-88918476D01*
X126815238Y-88807619D01*
X126852190Y-88659809D01*
X126889142Y-88585904D01*
X126963047Y-88512000D01*
X127073904Y-88475047D01*
X127147809Y-88475047D01*
X127258666Y-88512000D01*
X127295619Y-88548952D01*
X127997714Y-89251047D02*
X127628190Y-89251047D01*
X127628190Y-88475047D01*
D10*
X145828000Y-108374571D02*
X145828000Y-106874571D01*
X146399428Y-106874571D01*
X146542285Y-106946000D01*
X146613714Y-107017428D01*
X146685142Y-107160285D01*
X146685142Y-107374571D01*
X146613714Y-107517428D01*
X146542285Y-107588857D01*
X146399428Y-107660285D01*
X145828000Y-107660285D01*
X147185142Y-106874571D02*
X147542285Y-108374571D01*
X147828000Y-107303142D01*
X148113714Y-108374571D01*
X148470857Y-106874571D01*
X149899428Y-108374571D02*
X149399428Y-107660285D01*
X149042285Y-108374571D02*
X149042285Y-106874571D01*
X149613714Y-106874571D01*
X149756571Y-106946000D01*
X149828000Y-107017428D01*
X149899428Y-107160285D01*
X149899428Y-107374571D01*
X149828000Y-107517428D01*
X149756571Y-107588857D01*
X149613714Y-107660285D01*
X149042285Y-107660285D01*
X147022571Y-83411142D02*
X147236857Y-83482571D01*
X147594000Y-83482571D01*
X147736857Y-83411142D01*
X147808285Y-83339714D01*
X147879714Y-83196857D01*
X147879714Y-83054000D01*
X147808285Y-82911142D01*
X147736857Y-82839714D01*
X147594000Y-82768285D01*
X147308285Y-82696857D01*
X147165428Y-82625428D01*
X147094000Y-82554000D01*
X147022571Y-82411142D01*
X147022571Y-82268285D01*
X147094000Y-82125428D01*
X147165428Y-82054000D01*
X147308285Y-81982571D01*
X147665428Y-81982571D01*
X147879714Y-82054000D01*
X148522571Y-83482571D02*
X148522571Y-81982571D01*
X148879714Y-81982571D01*
X149094000Y-82054000D01*
X149236857Y-82196857D01*
X149308285Y-82339714D01*
X149379714Y-82625428D01*
X149379714Y-82839714D01*
X149308285Y-83125428D01*
X149236857Y-83268285D01*
X149094000Y-83411142D01*
X148879714Y-83482571D01*
X148522571Y-83482571D01*
X149951142Y-83054000D02*
X150665428Y-83054000D01*
X149808285Y-83482571D02*
X150308285Y-81982571D01*
X150808285Y-83482571D01*
D12*
G04 #@! TO.C,U1*
X128270000Y-106680000D02*
X128270000Y-83820000D01*
X128270000Y-83820000D02*
X151130000Y-83820000D01*
X151130000Y-83820000D02*
X151130000Y-106680000D01*
X151130000Y-106680000D02*
X128270000Y-106680000D01*
X140970000Y-96520000D02*
X138430000Y-96520000D01*
X138430000Y-96520000D02*
X138430000Y-92710000D01*
X138430000Y-92710000D02*
X140970000Y-92710000D01*
X140970000Y-92710000D02*
X140970000Y-96520000D01*
G04 #@! TO.C,Conn1*
X123190000Y-107315000D02*
X123190000Y-83185000D01*
X111252000Y-102870000D02*
X111760000Y-102870000D01*
X111252000Y-107315000D02*
X111252000Y-83185000D01*
X123190000Y-107315000D02*
X111252000Y-107315000D01*
X123190000Y-83185000D02*
X111252000Y-83185000D01*
X123190000Y-107310000D02*
X123190000Y-107315000D01*
X115570000Y-102870000D02*
X116840000Y-102870000D01*
X116840000Y-102870000D02*
X116840000Y-87630000D01*
X116840000Y-87630000D02*
X111252000Y-87630000D01*
X115570000Y-102870000D02*
X111760000Y-102870000D01*
X116840000Y-96520000D02*
X119380000Y-96520000D01*
X119380000Y-96520000D02*
X119380000Y-93980000D01*
X119380000Y-93980000D02*
X116840000Y-93980000D01*
X123190000Y-85090000D02*
X125730000Y-85090000D01*
X125730000Y-85090000D02*
X125730000Y-105410000D01*
X125730000Y-105410000D02*
X123190000Y-105410000D01*
D13*
G04 #@! TO.C,D1*
X145311000Y-106961000D02*
X142851000Y-106961000D01*
X145311000Y-108431000D02*
X145311000Y-106961000D01*
X142851000Y-108431000D02*
X145311000Y-108431000D01*
G04 #@! TO.C,D2*
X144093000Y-83539000D02*
X146553000Y-83539000D01*
X146553000Y-83539000D02*
X146553000Y-82069000D01*
X146553000Y-82069000D02*
X144093000Y-82069000D01*
G04 #@! TO.C,R1*
X125252267Y-83314000D02*
X124909733Y-83314000D01*
X125252267Y-82294000D02*
X124909733Y-82294000D01*
G04 #@! TO.C,R2*
X129001733Y-82294000D02*
X129344267Y-82294000D01*
X129001733Y-83314000D02*
X129344267Y-83314000D01*
G04 #@! TO.C,R3*
X136593733Y-83314000D02*
X136936267Y-83314000D01*
X136593733Y-82294000D02*
X136936267Y-82294000D01*
G04 #@! TO.C,R4*
X133154267Y-82294000D02*
X132811733Y-82294000D01*
X133154267Y-83314000D02*
X132811733Y-83314000D01*
G04 #@! TO.C,R5*
X140116000Y-108376000D02*
X139116000Y-108376000D01*
X139116000Y-107016000D02*
X140116000Y-107016000D01*
G04 #@! TO.C,R6*
X140300000Y-82124000D02*
X141300000Y-82124000D01*
X141300000Y-83484000D02*
X140300000Y-83484000D01*
G04 #@! TO.C,U1*
D12*
X128270095Y-106894380D02*
X128270095Y-107703904D01*
X128317714Y-107799142D01*
X128365333Y-107846761D01*
X128460571Y-107894380D01*
X128651047Y-107894380D01*
X128746285Y-107846761D01*
X128793904Y-107799142D01*
X128841523Y-107703904D01*
X128841523Y-106894380D01*
X129841523Y-107894380D02*
X129270095Y-107894380D01*
X129555809Y-107894380D02*
X129555809Y-106894380D01*
X129460571Y-107037238D01*
X129365333Y-107132476D01*
X129270095Y-107180095D01*
G04 #@! TO.C,D1*
X140993904Y-106370380D02*
X140993904Y-105370380D01*
X141232000Y-105370380D01*
X141374857Y-105418000D01*
X141470095Y-105513238D01*
X141517714Y-105608476D01*
X141565333Y-105798952D01*
X141565333Y-105941809D01*
X141517714Y-106132285D01*
X141470095Y-106227523D01*
X141374857Y-106322761D01*
X141232000Y-106370380D01*
X140993904Y-106370380D01*
X142517714Y-106370380D02*
X141946285Y-106370380D01*
X142232000Y-106370380D02*
X142232000Y-105370380D01*
X142136761Y-105513238D01*
X142041523Y-105608476D01*
X141946285Y-105656095D01*
G04 #@! TO.C,D2*
X142009904Y-85034380D02*
X142009904Y-84034380D01*
X142248000Y-84034380D01*
X142390857Y-84082000D01*
X142486095Y-84177238D01*
X142533714Y-84272476D01*
X142581333Y-84462952D01*
X142581333Y-84605809D01*
X142533714Y-84796285D01*
X142486095Y-84891523D01*
X142390857Y-84986761D01*
X142248000Y-85034380D01*
X142009904Y-85034380D01*
X142962285Y-84129619D02*
X143009904Y-84082000D01*
X143105142Y-84034380D01*
X143343238Y-84034380D01*
X143438476Y-84082000D01*
X143486095Y-84129619D01*
X143533714Y-84224857D01*
X143533714Y-84320095D01*
X143486095Y-84462952D01*
X142914666Y-85034380D01*
X143533714Y-85034380D01*
G04 #@! TO.C,R1*
X124293333Y-84780380D02*
X123960000Y-84304190D01*
X123721904Y-84780380D02*
X123721904Y-83780380D01*
X124102857Y-83780380D01*
X124198095Y-83828000D01*
X124245714Y-83875619D01*
X124293333Y-83970857D01*
X124293333Y-84113714D01*
X124245714Y-84208952D01*
X124198095Y-84256571D01*
X124102857Y-84304190D01*
X123721904Y-84304190D01*
X125245714Y-84780380D02*
X124674285Y-84780380D01*
X124960000Y-84780380D02*
X124960000Y-83780380D01*
X124864761Y-83923238D01*
X124769523Y-84018476D01*
X124674285Y-84066095D01*
G04 #@! TO.C,R2*
X127087333Y-84780380D02*
X126754000Y-84304190D01*
X126515904Y-84780380D02*
X126515904Y-83780380D01*
X126896857Y-83780380D01*
X126992095Y-83828000D01*
X127039714Y-83875619D01*
X127087333Y-83970857D01*
X127087333Y-84113714D01*
X127039714Y-84208952D01*
X126992095Y-84256571D01*
X126896857Y-84304190D01*
X126515904Y-84304190D01*
X127468285Y-83875619D02*
X127515904Y-83828000D01*
X127611142Y-83780380D01*
X127849238Y-83780380D01*
X127944476Y-83828000D01*
X127992095Y-83875619D01*
X128039714Y-83970857D01*
X128039714Y-84066095D01*
X127992095Y-84208952D01*
X127420666Y-84780380D01*
X128039714Y-84780380D01*
G04 #@! TO.C,R3*
X137501333Y-85034380D02*
X137168000Y-84558190D01*
X136929904Y-85034380D02*
X136929904Y-84034380D01*
X137310857Y-84034380D01*
X137406095Y-84082000D01*
X137453714Y-84129619D01*
X137501333Y-84224857D01*
X137501333Y-84367714D01*
X137453714Y-84462952D01*
X137406095Y-84510571D01*
X137310857Y-84558190D01*
X136929904Y-84558190D01*
X137834666Y-84034380D02*
X138453714Y-84034380D01*
X138120380Y-84415333D01*
X138263238Y-84415333D01*
X138358476Y-84462952D01*
X138406095Y-84510571D01*
X138453714Y-84605809D01*
X138453714Y-84843904D01*
X138406095Y-84939142D01*
X138358476Y-84986761D01*
X138263238Y-85034380D01*
X137977523Y-85034380D01*
X137882285Y-84986761D01*
X137834666Y-84939142D01*
G04 #@! TO.C,R4*
X132421333Y-85034380D02*
X132088000Y-84558190D01*
X131849904Y-85034380D02*
X131849904Y-84034380D01*
X132230857Y-84034380D01*
X132326095Y-84082000D01*
X132373714Y-84129619D01*
X132421333Y-84224857D01*
X132421333Y-84367714D01*
X132373714Y-84462952D01*
X132326095Y-84510571D01*
X132230857Y-84558190D01*
X131849904Y-84558190D01*
X133278476Y-84367714D02*
X133278476Y-85034380D01*
X133040380Y-83986761D02*
X132802285Y-84701047D01*
X133421333Y-84701047D01*
G04 #@! TO.C,R5*
X136485333Y-108148380D02*
X136152000Y-107672190D01*
X135913904Y-108148380D02*
X135913904Y-107148380D01*
X136294857Y-107148380D01*
X136390095Y-107196000D01*
X136437714Y-107243619D01*
X136485333Y-107338857D01*
X136485333Y-107481714D01*
X136437714Y-107576952D01*
X136390095Y-107624571D01*
X136294857Y-107672190D01*
X135913904Y-107672190D01*
X137390095Y-107148380D02*
X136913904Y-107148380D01*
X136866285Y-107624571D01*
X136913904Y-107576952D01*
X137009142Y-107529333D01*
X137247238Y-107529333D01*
X137342476Y-107576952D01*
X137390095Y-107624571D01*
X137437714Y-107719809D01*
X137437714Y-107957904D01*
X137390095Y-108053142D01*
X137342476Y-108100761D01*
X137247238Y-108148380D01*
X137009142Y-108148380D01*
X136913904Y-108100761D01*
X136866285Y-108053142D01*
G04 #@! TO.C,R6*
X140717333Y-85034380D02*
X140384000Y-84558190D01*
X140145904Y-85034380D02*
X140145904Y-84034380D01*
X140526857Y-84034380D01*
X140622095Y-84082000D01*
X140669714Y-84129619D01*
X140717333Y-84224857D01*
X140717333Y-84367714D01*
X140669714Y-84462952D01*
X140622095Y-84510571D01*
X140526857Y-84558190D01*
X140145904Y-84558190D01*
X141574476Y-84034380D02*
X141384000Y-84034380D01*
X141288761Y-84082000D01*
X141241142Y-84129619D01*
X141145904Y-84272476D01*
X141098285Y-84462952D01*
X141098285Y-84843904D01*
X141145904Y-84939142D01*
X141193523Y-84986761D01*
X141288761Y-85034380D01*
X141479238Y-85034380D01*
X141574476Y-84986761D01*
X141622095Y-84939142D01*
X141669714Y-84843904D01*
X141669714Y-84605809D01*
X141622095Y-84510571D01*
X141574476Y-84462952D01*
X141479238Y-84415333D01*
X141288761Y-84415333D01*
X141193523Y-84462952D01*
X141145904Y-84510571D01*
X141098285Y-84605809D01*
G04 #@! TD*
M02*
