G04 #@! TF.GenerationSoftware,KiCad,Pcbnew,(5.0.0)*
G04 #@! TF.CreationDate,2018-12-18T17:16:08-06:00*
G04 #@! TF.ProjectId,IMUBreakout_Hardware,494D55427265616B6F75745F48617264,rev?*
G04 #@! TF.SameCoordinates,Original*
G04 #@! TF.FileFunction,Copper,L2,Bot,Signal*
G04 #@! TF.FilePolarity,Positive*
%FSLAX46Y46*%
G04 Gerber Fmt 4.6, Leading zero omitted, Abs format (unit mm)*
G04 Created by KiCad (PCBNEW (5.0.0)) date 12/18/18 17:16:08*
%MOMM*%
%LPD*%
G01*
G04 APERTURE LIST*
G04 #@! TA.AperFunction,ComponentPad*
%ADD10C,1.524000*%
G04 #@! TD*
G04 #@! TA.AperFunction,ComponentPad*
%ADD11R,1.524000X1.524000*%
G04 #@! TD*
G04 #@! TA.AperFunction,ViaPad*
%ADD12C,0.800000*%
G04 #@! TD*
G04 #@! TA.AperFunction,Conductor*
%ADD13C,0.381000*%
G04 #@! TD*
G04 #@! TA.AperFunction,Conductor*
%ADD14C,0.254000*%
G04 #@! TD*
G04 APERTURE END LIST*
D10*
G04 #@! TO.P,U1,1*
G04 #@! TO.N,SDOAG*
X129540000Y-85090000D03*
G04 #@! TO.P,U1,2*
G04 #@! TO.N,SDOM*
X129540000Y-87630000D03*
G04 #@! TO.P,U1,3*
G04 #@! TO.N,+3V3*
X129540000Y-90170000D03*
G04 #@! TO.P,U1,4*
X129540000Y-92710000D03*
G04 #@! TO.P,U1,5*
G04 #@! TO.N,DRDYM*
X129540000Y-95250000D03*
G04 #@! TO.P,U1,6*
G04 #@! TO.N,INTM*
X129540000Y-97790000D03*
G04 #@! TO.P,U1,7*
G04 #@! TO.N,INT1AG*
X129540000Y-100330000D03*
G04 #@! TO.P,U1,8*
G04 #@! TO.N,INT2AG*
X129540000Y-102870000D03*
G04 #@! TO.P,U1,9*
G04 #@! TO.N,+3V3*
X129540000Y-105410000D03*
G04 #@! TO.P,U1,10*
G04 #@! TO.N,SCL*
X149860000Y-90170000D03*
G04 #@! TO.P,U1,11*
G04 #@! TO.N,SDA*
X149860000Y-92710000D03*
G04 #@! TO.P,U1,12*
G04 #@! TO.N,+3V3*
X149860000Y-95250000D03*
D11*
G04 #@! TO.P,U1,13*
G04 #@! TO.N,GND*
X149860000Y-97790000D03*
G04 #@! TD*
D10*
G04 #@! TO.P,Conn1,1*
G04 #@! TO.N,GND*
X124460000Y-104140000D03*
G04 #@! TO.P,Conn1,2*
G04 #@! TO.N,INT2AG*
X124460000Y-101600000D03*
G04 #@! TO.P,Conn1,3*
G04 #@! TO.N,INT1AG*
X124460000Y-99060000D03*
G04 #@! TO.P,Conn1,4*
G04 #@! TO.N,INTM*
X124460000Y-96520000D03*
G04 #@! TO.P,Conn1,5*
G04 #@! TO.N,DRDYM*
X124460000Y-93980000D03*
G04 #@! TO.P,Conn1,6*
G04 #@! TO.N,SDA*
X124460000Y-91440000D03*
G04 #@! TO.P,Conn1,7*
G04 #@! TO.N,SCL*
X124460000Y-88900000D03*
G04 #@! TO.P,Conn1,8*
G04 #@! TO.N,+3V3*
X124460000Y-86360000D03*
G04 #@! TD*
D12*
G04 #@! TO.N,GND*
X131064000Y-85090000D03*
X147574000Y-84582000D03*
X146304000Y-105918000D03*
G04 #@! TO.N,SDA*
X139700000Y-91440000D03*
G04 #@! TD*
D13*
G04 #@! TO.N,INT2AG*
X128270000Y-101600000D02*
X129540000Y-102870000D01*
X124460000Y-101600000D02*
X128270000Y-101600000D01*
G04 #@! TO.N,INT1AG*
X128270000Y-99060000D02*
X129540000Y-100330000D01*
X124460000Y-99060000D02*
X128270000Y-99060000D01*
G04 #@! TO.N,INTM*
X128270000Y-96520000D02*
X129540000Y-97790000D01*
X124460000Y-96520000D02*
X128270000Y-96520000D01*
G04 #@! TO.N,DRDYM*
X128270000Y-93980000D02*
X129540000Y-95250000D01*
X124460000Y-93980000D02*
X128270000Y-93980000D01*
G04 #@! TO.N,SDA*
X148590000Y-91440000D02*
X149860000Y-92710000D01*
X124460000Y-91440000D02*
X127000000Y-91440000D01*
X127000000Y-91440000D02*
X139700000Y-91440000D01*
X139700000Y-91440000D02*
X148590000Y-91440000D01*
G04 #@! TO.N,SCL*
X148590000Y-88900000D02*
X149860000Y-90170000D01*
X124460000Y-88900000D02*
X148590000Y-88900000D01*
G04 #@! TD*
D14*
G04 #@! TO.N,GND*
G36*
X150225777Y-82534144D02*
X150320539Y-82597461D01*
X150383856Y-82692223D01*
X150420000Y-82873930D01*
X150420000Y-88889857D01*
X150137881Y-88773000D01*
X149630432Y-88773000D01*
X149231209Y-88373777D01*
X149185152Y-88304848D01*
X148912094Y-88122396D01*
X148671303Y-88074500D01*
X148671301Y-88074500D01*
X148590000Y-88058328D01*
X148508699Y-88074500D01*
X146118787Y-88074500D01*
X146610312Y-87582975D01*
X146939000Y-86789452D01*
X146939000Y-85930548D01*
X146610312Y-85137025D01*
X146002975Y-84529688D01*
X145209452Y-84201000D01*
X144350548Y-84201000D01*
X143557025Y-84529688D01*
X142949688Y-85137025D01*
X142621000Y-85930548D01*
X142621000Y-86789452D01*
X142949688Y-87582975D01*
X143441213Y-88074500D01*
X135958787Y-88074500D01*
X136450312Y-87582975D01*
X136779000Y-86789452D01*
X136779000Y-85930548D01*
X136450312Y-85137025D01*
X135842975Y-84529688D01*
X135049452Y-84201000D01*
X134190548Y-84201000D01*
X133397025Y-84529688D01*
X132789688Y-85137025D01*
X132461000Y-85930548D01*
X132461000Y-86789452D01*
X132789688Y-87582975D01*
X133281213Y-88074500D01*
X130867984Y-88074500D01*
X130937000Y-87907881D01*
X130937000Y-87352119D01*
X130724320Y-86838663D01*
X130331337Y-86445680D01*
X130124487Y-86360000D01*
X130331337Y-86274320D01*
X130724320Y-85881337D01*
X130937000Y-85367881D01*
X130937000Y-84812119D01*
X130724320Y-84298663D01*
X130331337Y-83905680D01*
X129817881Y-83693000D01*
X129262119Y-83693000D01*
X128748663Y-83905680D01*
X128355680Y-84298663D01*
X128143000Y-84812119D01*
X128143000Y-85367881D01*
X128355680Y-85881337D01*
X128748663Y-86274320D01*
X128955513Y-86360000D01*
X128748663Y-86445680D01*
X128355680Y-86838663D01*
X128143000Y-87352119D01*
X128143000Y-87907881D01*
X128212016Y-88074500D01*
X125610157Y-88074500D01*
X125251337Y-87715680D01*
X125044487Y-87630000D01*
X125251337Y-87544320D01*
X125644320Y-87151337D01*
X125857000Y-86637881D01*
X125857000Y-86082119D01*
X125644320Y-85568663D01*
X125251337Y-85175680D01*
X124737881Y-84963000D01*
X124182119Y-84963000D01*
X123668663Y-85175680D01*
X123275680Y-85568663D01*
X123063000Y-86082119D01*
X123063000Y-86637881D01*
X123275680Y-87151337D01*
X123668663Y-87544320D01*
X123875513Y-87630000D01*
X123668663Y-87715680D01*
X123275680Y-88108663D01*
X123063000Y-88622119D01*
X123063000Y-89177881D01*
X123275680Y-89691337D01*
X123668663Y-90084320D01*
X123875513Y-90170000D01*
X123668663Y-90255680D01*
X123275680Y-90648663D01*
X123063000Y-91162119D01*
X123063000Y-91717881D01*
X123275680Y-92231337D01*
X123668663Y-92624320D01*
X123875513Y-92710000D01*
X123668663Y-92795680D01*
X123275680Y-93188663D01*
X123063000Y-93702119D01*
X123063000Y-94257881D01*
X123275680Y-94771337D01*
X123668663Y-95164320D01*
X123875513Y-95250000D01*
X123668663Y-95335680D01*
X123275680Y-95728663D01*
X123063000Y-96242119D01*
X123063000Y-96797881D01*
X123275680Y-97311337D01*
X123668663Y-97704320D01*
X123875513Y-97790000D01*
X123668663Y-97875680D01*
X123275680Y-98268663D01*
X123063000Y-98782119D01*
X123063000Y-99337881D01*
X123275680Y-99851337D01*
X123668663Y-100244320D01*
X123875513Y-100330000D01*
X123668663Y-100415680D01*
X123275680Y-100808663D01*
X123063000Y-101322119D01*
X123063000Y-101877881D01*
X123275680Y-102391337D01*
X123668663Y-102784320D01*
X124182119Y-102997000D01*
X124737881Y-102997000D01*
X125251337Y-102784320D01*
X125610157Y-102425500D01*
X127928068Y-102425500D01*
X128143000Y-102640432D01*
X128143000Y-103147881D01*
X128355680Y-103661337D01*
X128748663Y-104054320D01*
X128955513Y-104140000D01*
X128748663Y-104225680D01*
X128355680Y-104618663D01*
X128143000Y-105132119D01*
X128143000Y-105687881D01*
X128355680Y-106201337D01*
X128748663Y-106594320D01*
X129262119Y-106807000D01*
X129817881Y-106807000D01*
X130331337Y-106594320D01*
X130724320Y-106201337D01*
X130937000Y-105687881D01*
X130937000Y-105132119D01*
X130724320Y-104618663D01*
X130331337Y-104225680D01*
X130124487Y-104140000D01*
X130331337Y-104054320D01*
X130675109Y-103710548D01*
X132461000Y-103710548D01*
X132461000Y-104569452D01*
X132789688Y-105362975D01*
X133397025Y-105970312D01*
X134190548Y-106299000D01*
X135049452Y-106299000D01*
X135842975Y-105970312D01*
X136450312Y-105362975D01*
X136779000Y-104569452D01*
X136779000Y-103710548D01*
X142621000Y-103710548D01*
X142621000Y-104569452D01*
X142949688Y-105362975D01*
X143557025Y-105970312D01*
X144350548Y-106299000D01*
X145209452Y-106299000D01*
X146002975Y-105970312D01*
X146610312Y-105362975D01*
X146939000Y-104569452D01*
X146939000Y-103710548D01*
X146610312Y-102917025D01*
X146002975Y-102309688D01*
X145209452Y-101981000D01*
X144350548Y-101981000D01*
X143557025Y-102309688D01*
X142949688Y-102917025D01*
X142621000Y-103710548D01*
X136779000Y-103710548D01*
X136450312Y-102917025D01*
X135842975Y-102309688D01*
X135049452Y-101981000D01*
X134190548Y-101981000D01*
X133397025Y-102309688D01*
X132789688Y-102917025D01*
X132461000Y-103710548D01*
X130675109Y-103710548D01*
X130724320Y-103661337D01*
X130937000Y-103147881D01*
X130937000Y-102592119D01*
X130724320Y-102078663D01*
X130331337Y-101685680D01*
X130124487Y-101600000D01*
X130331337Y-101514320D01*
X130724320Y-101121337D01*
X130937000Y-100607881D01*
X130937000Y-100052119D01*
X130724320Y-99538663D01*
X130331337Y-99145680D01*
X130124487Y-99060000D01*
X130331337Y-98974320D01*
X130724320Y-98581337D01*
X130937000Y-98067881D01*
X130937000Y-97512119D01*
X130724320Y-96998663D01*
X130331337Y-96605680D01*
X130124487Y-96520000D01*
X130331337Y-96434320D01*
X130724320Y-96041337D01*
X130937000Y-95527881D01*
X130937000Y-94972119D01*
X130724320Y-94458663D01*
X130331337Y-94065680D01*
X130124487Y-93980000D01*
X130331337Y-93894320D01*
X130724320Y-93501337D01*
X130937000Y-92987881D01*
X130937000Y-92432119D01*
X130867984Y-92265500D01*
X139061789Y-92265500D01*
X139113720Y-92317431D01*
X139494126Y-92475000D01*
X139905874Y-92475000D01*
X140286280Y-92317431D01*
X140338211Y-92265500D01*
X148248068Y-92265500D01*
X148463000Y-92480432D01*
X148463000Y-92987881D01*
X148675680Y-93501337D01*
X149068663Y-93894320D01*
X149275513Y-93980000D01*
X149068663Y-94065680D01*
X148675680Y-94458663D01*
X148463000Y-94972119D01*
X148463000Y-95527881D01*
X148675680Y-96041337D01*
X149068663Y-96434320D01*
X149582119Y-96647000D01*
X150137881Y-96647000D01*
X150420001Y-96530142D01*
X150420001Y-107626065D01*
X150383856Y-107807777D01*
X150320539Y-107902539D01*
X150225777Y-107965856D01*
X150044069Y-108002000D01*
X112337930Y-108002000D01*
X112156223Y-107965856D01*
X112061461Y-107902539D01*
X111998144Y-107807777D01*
X111962000Y-107626069D01*
X111962000Y-104940567D01*
X113464000Y-104940567D01*
X113464000Y-105879433D01*
X113823289Y-106746833D01*
X114487167Y-107410711D01*
X115354567Y-107770000D01*
X116293433Y-107770000D01*
X117160833Y-107410711D01*
X117824711Y-106746833D01*
X118184000Y-105879433D01*
X118184000Y-104940567D01*
X117824711Y-104073167D01*
X117160833Y-103409289D01*
X116293433Y-103050000D01*
X115354567Y-103050000D01*
X114487167Y-103409289D01*
X113823289Y-104073167D01*
X113464000Y-104940567D01*
X111962000Y-104940567D01*
X111962000Y-84620567D01*
X113464000Y-84620567D01*
X113464000Y-85559433D01*
X113823289Y-86426833D01*
X114487167Y-87090711D01*
X115354567Y-87450000D01*
X116293433Y-87450000D01*
X117160833Y-87090711D01*
X117824711Y-86426833D01*
X118184000Y-85559433D01*
X118184000Y-84620567D01*
X117824711Y-83753167D01*
X117160833Y-83089289D01*
X116293433Y-82730000D01*
X115354567Y-82730000D01*
X114487167Y-83089289D01*
X113823289Y-83753167D01*
X113464000Y-84620567D01*
X111962000Y-84620567D01*
X111962000Y-82873931D01*
X111998144Y-82692223D01*
X112061461Y-82597461D01*
X112156223Y-82534144D01*
X112337930Y-82498000D01*
X150044069Y-82498000D01*
X150225777Y-82534144D01*
X150225777Y-82534144D01*
G37*
X150225777Y-82534144D02*
X150320539Y-82597461D01*
X150383856Y-82692223D01*
X150420000Y-82873930D01*
X150420000Y-88889857D01*
X150137881Y-88773000D01*
X149630432Y-88773000D01*
X149231209Y-88373777D01*
X149185152Y-88304848D01*
X148912094Y-88122396D01*
X148671303Y-88074500D01*
X148671301Y-88074500D01*
X148590000Y-88058328D01*
X148508699Y-88074500D01*
X146118787Y-88074500D01*
X146610312Y-87582975D01*
X146939000Y-86789452D01*
X146939000Y-85930548D01*
X146610312Y-85137025D01*
X146002975Y-84529688D01*
X145209452Y-84201000D01*
X144350548Y-84201000D01*
X143557025Y-84529688D01*
X142949688Y-85137025D01*
X142621000Y-85930548D01*
X142621000Y-86789452D01*
X142949688Y-87582975D01*
X143441213Y-88074500D01*
X135958787Y-88074500D01*
X136450312Y-87582975D01*
X136779000Y-86789452D01*
X136779000Y-85930548D01*
X136450312Y-85137025D01*
X135842975Y-84529688D01*
X135049452Y-84201000D01*
X134190548Y-84201000D01*
X133397025Y-84529688D01*
X132789688Y-85137025D01*
X132461000Y-85930548D01*
X132461000Y-86789452D01*
X132789688Y-87582975D01*
X133281213Y-88074500D01*
X130867984Y-88074500D01*
X130937000Y-87907881D01*
X130937000Y-87352119D01*
X130724320Y-86838663D01*
X130331337Y-86445680D01*
X130124487Y-86360000D01*
X130331337Y-86274320D01*
X130724320Y-85881337D01*
X130937000Y-85367881D01*
X130937000Y-84812119D01*
X130724320Y-84298663D01*
X130331337Y-83905680D01*
X129817881Y-83693000D01*
X129262119Y-83693000D01*
X128748663Y-83905680D01*
X128355680Y-84298663D01*
X128143000Y-84812119D01*
X128143000Y-85367881D01*
X128355680Y-85881337D01*
X128748663Y-86274320D01*
X128955513Y-86360000D01*
X128748663Y-86445680D01*
X128355680Y-86838663D01*
X128143000Y-87352119D01*
X128143000Y-87907881D01*
X128212016Y-88074500D01*
X125610157Y-88074500D01*
X125251337Y-87715680D01*
X125044487Y-87630000D01*
X125251337Y-87544320D01*
X125644320Y-87151337D01*
X125857000Y-86637881D01*
X125857000Y-86082119D01*
X125644320Y-85568663D01*
X125251337Y-85175680D01*
X124737881Y-84963000D01*
X124182119Y-84963000D01*
X123668663Y-85175680D01*
X123275680Y-85568663D01*
X123063000Y-86082119D01*
X123063000Y-86637881D01*
X123275680Y-87151337D01*
X123668663Y-87544320D01*
X123875513Y-87630000D01*
X123668663Y-87715680D01*
X123275680Y-88108663D01*
X123063000Y-88622119D01*
X123063000Y-89177881D01*
X123275680Y-89691337D01*
X123668663Y-90084320D01*
X123875513Y-90170000D01*
X123668663Y-90255680D01*
X123275680Y-90648663D01*
X123063000Y-91162119D01*
X123063000Y-91717881D01*
X123275680Y-92231337D01*
X123668663Y-92624320D01*
X123875513Y-92710000D01*
X123668663Y-92795680D01*
X123275680Y-93188663D01*
X123063000Y-93702119D01*
X123063000Y-94257881D01*
X123275680Y-94771337D01*
X123668663Y-95164320D01*
X123875513Y-95250000D01*
X123668663Y-95335680D01*
X123275680Y-95728663D01*
X123063000Y-96242119D01*
X123063000Y-96797881D01*
X123275680Y-97311337D01*
X123668663Y-97704320D01*
X123875513Y-97790000D01*
X123668663Y-97875680D01*
X123275680Y-98268663D01*
X123063000Y-98782119D01*
X123063000Y-99337881D01*
X123275680Y-99851337D01*
X123668663Y-100244320D01*
X123875513Y-100330000D01*
X123668663Y-100415680D01*
X123275680Y-100808663D01*
X123063000Y-101322119D01*
X123063000Y-101877881D01*
X123275680Y-102391337D01*
X123668663Y-102784320D01*
X124182119Y-102997000D01*
X124737881Y-102997000D01*
X125251337Y-102784320D01*
X125610157Y-102425500D01*
X127928068Y-102425500D01*
X128143000Y-102640432D01*
X128143000Y-103147881D01*
X128355680Y-103661337D01*
X128748663Y-104054320D01*
X128955513Y-104140000D01*
X128748663Y-104225680D01*
X128355680Y-104618663D01*
X128143000Y-105132119D01*
X128143000Y-105687881D01*
X128355680Y-106201337D01*
X128748663Y-106594320D01*
X129262119Y-106807000D01*
X129817881Y-106807000D01*
X130331337Y-106594320D01*
X130724320Y-106201337D01*
X130937000Y-105687881D01*
X130937000Y-105132119D01*
X130724320Y-104618663D01*
X130331337Y-104225680D01*
X130124487Y-104140000D01*
X130331337Y-104054320D01*
X130675109Y-103710548D01*
X132461000Y-103710548D01*
X132461000Y-104569452D01*
X132789688Y-105362975D01*
X133397025Y-105970312D01*
X134190548Y-106299000D01*
X135049452Y-106299000D01*
X135842975Y-105970312D01*
X136450312Y-105362975D01*
X136779000Y-104569452D01*
X136779000Y-103710548D01*
X142621000Y-103710548D01*
X142621000Y-104569452D01*
X142949688Y-105362975D01*
X143557025Y-105970312D01*
X144350548Y-106299000D01*
X145209452Y-106299000D01*
X146002975Y-105970312D01*
X146610312Y-105362975D01*
X146939000Y-104569452D01*
X146939000Y-103710548D01*
X146610312Y-102917025D01*
X146002975Y-102309688D01*
X145209452Y-101981000D01*
X144350548Y-101981000D01*
X143557025Y-102309688D01*
X142949688Y-102917025D01*
X142621000Y-103710548D01*
X136779000Y-103710548D01*
X136450312Y-102917025D01*
X135842975Y-102309688D01*
X135049452Y-101981000D01*
X134190548Y-101981000D01*
X133397025Y-102309688D01*
X132789688Y-102917025D01*
X132461000Y-103710548D01*
X130675109Y-103710548D01*
X130724320Y-103661337D01*
X130937000Y-103147881D01*
X130937000Y-102592119D01*
X130724320Y-102078663D01*
X130331337Y-101685680D01*
X130124487Y-101600000D01*
X130331337Y-101514320D01*
X130724320Y-101121337D01*
X130937000Y-100607881D01*
X130937000Y-100052119D01*
X130724320Y-99538663D01*
X130331337Y-99145680D01*
X130124487Y-99060000D01*
X130331337Y-98974320D01*
X130724320Y-98581337D01*
X130937000Y-98067881D01*
X130937000Y-97512119D01*
X130724320Y-96998663D01*
X130331337Y-96605680D01*
X130124487Y-96520000D01*
X130331337Y-96434320D01*
X130724320Y-96041337D01*
X130937000Y-95527881D01*
X130937000Y-94972119D01*
X130724320Y-94458663D01*
X130331337Y-94065680D01*
X130124487Y-93980000D01*
X130331337Y-93894320D01*
X130724320Y-93501337D01*
X130937000Y-92987881D01*
X130937000Y-92432119D01*
X130867984Y-92265500D01*
X139061789Y-92265500D01*
X139113720Y-92317431D01*
X139494126Y-92475000D01*
X139905874Y-92475000D01*
X140286280Y-92317431D01*
X140338211Y-92265500D01*
X148248068Y-92265500D01*
X148463000Y-92480432D01*
X148463000Y-92987881D01*
X148675680Y-93501337D01*
X149068663Y-93894320D01*
X149275513Y-93980000D01*
X149068663Y-94065680D01*
X148675680Y-94458663D01*
X148463000Y-94972119D01*
X148463000Y-95527881D01*
X148675680Y-96041337D01*
X149068663Y-96434320D01*
X149582119Y-96647000D01*
X150137881Y-96647000D01*
X150420001Y-96530142D01*
X150420001Y-107626065D01*
X150383856Y-107807777D01*
X150320539Y-107902539D01*
X150225777Y-107965856D01*
X150044069Y-108002000D01*
X112337930Y-108002000D01*
X112156223Y-107965856D01*
X112061461Y-107902539D01*
X111998144Y-107807777D01*
X111962000Y-107626069D01*
X111962000Y-104940567D01*
X113464000Y-104940567D01*
X113464000Y-105879433D01*
X113823289Y-106746833D01*
X114487167Y-107410711D01*
X115354567Y-107770000D01*
X116293433Y-107770000D01*
X117160833Y-107410711D01*
X117824711Y-106746833D01*
X118184000Y-105879433D01*
X118184000Y-104940567D01*
X117824711Y-104073167D01*
X117160833Y-103409289D01*
X116293433Y-103050000D01*
X115354567Y-103050000D01*
X114487167Y-103409289D01*
X113823289Y-104073167D01*
X113464000Y-104940567D01*
X111962000Y-104940567D01*
X111962000Y-84620567D01*
X113464000Y-84620567D01*
X113464000Y-85559433D01*
X113823289Y-86426833D01*
X114487167Y-87090711D01*
X115354567Y-87450000D01*
X116293433Y-87450000D01*
X117160833Y-87090711D01*
X117824711Y-86426833D01*
X118184000Y-85559433D01*
X118184000Y-84620567D01*
X117824711Y-83753167D01*
X117160833Y-83089289D01*
X116293433Y-82730000D01*
X115354567Y-82730000D01*
X114487167Y-83089289D01*
X113823289Y-83753167D01*
X113464000Y-84620567D01*
X111962000Y-84620567D01*
X111962000Y-82873931D01*
X111998144Y-82692223D01*
X112061461Y-82597461D01*
X112156223Y-82534144D01*
X112337930Y-82498000D01*
X150044069Y-82498000D01*
X150225777Y-82534144D01*
G04 #@! TD*
M02*
