G04 #@! TF.GenerationSoftware,KiCad,Pcbnew,(5.0.0)*
G04 #@! TF.CreationDate,2018-12-18T17:16:09-06:00*
G04 #@! TF.ProjectId,IMUBreakout_Hardware,494D55427265616B6F75745F48617264,rev?*
G04 #@! TF.SameCoordinates,Original*
G04 #@! TF.FileFunction,Soldermask,Top*
G04 #@! TF.FilePolarity,Negative*
%FSLAX46Y46*%
G04 Gerber Fmt 4.6, Leading zero omitted, Abs format (unit mm)*
G04 Created by KiCad (PCBNEW (5.0.0)) date 12/18/18 17:16:09*
%MOMM*%
%LPD*%
G01*
G04 APERTURE LIST*
%ADD10C,1.924000*%
%ADD11R,1.924000X1.924000*%
%ADD12C,3.448000*%
%ADD13C,3.850000*%
%ADD14C,0.100000*%
%ADD15C,1.350000*%
%ADD16R,1.600000X1.300000*%
G04 APERTURE END LIST*
D10*
G04 #@! TO.C,U1*
X129540000Y-85090000D03*
X129540000Y-87630000D03*
X129540000Y-90170000D03*
X129540000Y-92710000D03*
X129540000Y-95250000D03*
X129540000Y-97790000D03*
X129540000Y-100330000D03*
X129540000Y-102870000D03*
X129540000Y-105410000D03*
X149860000Y-90170000D03*
X149860000Y-92710000D03*
X149860000Y-95250000D03*
D11*
X149860000Y-97790000D03*
D12*
X134620000Y-104140000D03*
X144780000Y-104140000D03*
X134620000Y-86360000D03*
X144780000Y-86360000D03*
G04 #@! TD*
D10*
G04 #@! TO.C,Conn1*
X124460000Y-104140000D03*
X124460000Y-101600000D03*
X124460000Y-99060000D03*
X124460000Y-96520000D03*
X124460000Y-93980000D03*
D13*
X115824000Y-105410000D03*
X115824000Y-85090000D03*
D10*
X124460000Y-91440000D03*
X124460000Y-88900000D03*
X124460000Y-86360000D03*
G04 #@! TD*
D14*
G04 #@! TO.C,D1*
G36*
X143196581Y-107022625D02*
X143229343Y-107027485D01*
X143261471Y-107035533D01*
X143292656Y-107046691D01*
X143322596Y-107060852D01*
X143351005Y-107077879D01*
X143377608Y-107097609D01*
X143402149Y-107119851D01*
X143424391Y-107144392D01*
X143444121Y-107170995D01*
X143461148Y-107199404D01*
X143475309Y-107229344D01*
X143486467Y-107260529D01*
X143494515Y-107292657D01*
X143499375Y-107325419D01*
X143501000Y-107358500D01*
X143501000Y-108033500D01*
X143499375Y-108066581D01*
X143494515Y-108099343D01*
X143486467Y-108131471D01*
X143475309Y-108162656D01*
X143461148Y-108192596D01*
X143444121Y-108221005D01*
X143424391Y-108247608D01*
X143402149Y-108272149D01*
X143377608Y-108294391D01*
X143351005Y-108314121D01*
X143322596Y-108331148D01*
X143292656Y-108345309D01*
X143261471Y-108356467D01*
X143229343Y-108364515D01*
X143196581Y-108369375D01*
X143163500Y-108371000D01*
X142388500Y-108371000D01*
X142355419Y-108369375D01*
X142322657Y-108364515D01*
X142290529Y-108356467D01*
X142259344Y-108345309D01*
X142229404Y-108331148D01*
X142200995Y-108314121D01*
X142174392Y-108294391D01*
X142149851Y-108272149D01*
X142127609Y-108247608D01*
X142107879Y-108221005D01*
X142090852Y-108192596D01*
X142076691Y-108162656D01*
X142065533Y-108131471D01*
X142057485Y-108099343D01*
X142052625Y-108066581D01*
X142051000Y-108033500D01*
X142051000Y-107358500D01*
X142052625Y-107325419D01*
X142057485Y-107292657D01*
X142065533Y-107260529D01*
X142076691Y-107229344D01*
X142090852Y-107199404D01*
X142107879Y-107170995D01*
X142127609Y-107144392D01*
X142149851Y-107119851D01*
X142174392Y-107097609D01*
X142200995Y-107077879D01*
X142229404Y-107060852D01*
X142259344Y-107046691D01*
X142290529Y-107035533D01*
X142322657Y-107027485D01*
X142355419Y-107022625D01*
X142388500Y-107021000D01*
X143163500Y-107021000D01*
X143196581Y-107022625D01*
X143196581Y-107022625D01*
G37*
D15*
X142776000Y-107696000D03*
D14*
G36*
X144946581Y-107022625D02*
X144979343Y-107027485D01*
X145011471Y-107035533D01*
X145042656Y-107046691D01*
X145072596Y-107060852D01*
X145101005Y-107077879D01*
X145127608Y-107097609D01*
X145152149Y-107119851D01*
X145174391Y-107144392D01*
X145194121Y-107170995D01*
X145211148Y-107199404D01*
X145225309Y-107229344D01*
X145236467Y-107260529D01*
X145244515Y-107292657D01*
X145249375Y-107325419D01*
X145251000Y-107358500D01*
X145251000Y-108033500D01*
X145249375Y-108066581D01*
X145244515Y-108099343D01*
X145236467Y-108131471D01*
X145225309Y-108162656D01*
X145211148Y-108192596D01*
X145194121Y-108221005D01*
X145174391Y-108247608D01*
X145152149Y-108272149D01*
X145127608Y-108294391D01*
X145101005Y-108314121D01*
X145072596Y-108331148D01*
X145042656Y-108345309D01*
X145011471Y-108356467D01*
X144979343Y-108364515D01*
X144946581Y-108369375D01*
X144913500Y-108371000D01*
X144138500Y-108371000D01*
X144105419Y-108369375D01*
X144072657Y-108364515D01*
X144040529Y-108356467D01*
X144009344Y-108345309D01*
X143979404Y-108331148D01*
X143950995Y-108314121D01*
X143924392Y-108294391D01*
X143899851Y-108272149D01*
X143877609Y-108247608D01*
X143857879Y-108221005D01*
X143840852Y-108192596D01*
X143826691Y-108162656D01*
X143815533Y-108131471D01*
X143807485Y-108099343D01*
X143802625Y-108066581D01*
X143801000Y-108033500D01*
X143801000Y-107358500D01*
X143802625Y-107325419D01*
X143807485Y-107292657D01*
X143815533Y-107260529D01*
X143826691Y-107229344D01*
X143840852Y-107199404D01*
X143857879Y-107170995D01*
X143877609Y-107144392D01*
X143899851Y-107119851D01*
X143924392Y-107097609D01*
X143950995Y-107077879D01*
X143979404Y-107060852D01*
X144009344Y-107046691D01*
X144040529Y-107035533D01*
X144072657Y-107027485D01*
X144105419Y-107022625D01*
X144138500Y-107021000D01*
X144913500Y-107021000D01*
X144946581Y-107022625D01*
X144946581Y-107022625D01*
G37*
D15*
X144526000Y-107696000D03*
G04 #@! TD*
D14*
G04 #@! TO.C,D2*
G36*
X146188581Y-82130625D02*
X146221343Y-82135485D01*
X146253471Y-82143533D01*
X146284656Y-82154691D01*
X146314596Y-82168852D01*
X146343005Y-82185879D01*
X146369608Y-82205609D01*
X146394149Y-82227851D01*
X146416391Y-82252392D01*
X146436121Y-82278995D01*
X146453148Y-82307404D01*
X146467309Y-82337344D01*
X146478467Y-82368529D01*
X146486515Y-82400657D01*
X146491375Y-82433419D01*
X146493000Y-82466500D01*
X146493000Y-83141500D01*
X146491375Y-83174581D01*
X146486515Y-83207343D01*
X146478467Y-83239471D01*
X146467309Y-83270656D01*
X146453148Y-83300596D01*
X146436121Y-83329005D01*
X146416391Y-83355608D01*
X146394149Y-83380149D01*
X146369608Y-83402391D01*
X146343005Y-83422121D01*
X146314596Y-83439148D01*
X146284656Y-83453309D01*
X146253471Y-83464467D01*
X146221343Y-83472515D01*
X146188581Y-83477375D01*
X146155500Y-83479000D01*
X145380500Y-83479000D01*
X145347419Y-83477375D01*
X145314657Y-83472515D01*
X145282529Y-83464467D01*
X145251344Y-83453309D01*
X145221404Y-83439148D01*
X145192995Y-83422121D01*
X145166392Y-83402391D01*
X145141851Y-83380149D01*
X145119609Y-83355608D01*
X145099879Y-83329005D01*
X145082852Y-83300596D01*
X145068691Y-83270656D01*
X145057533Y-83239471D01*
X145049485Y-83207343D01*
X145044625Y-83174581D01*
X145043000Y-83141500D01*
X145043000Y-82466500D01*
X145044625Y-82433419D01*
X145049485Y-82400657D01*
X145057533Y-82368529D01*
X145068691Y-82337344D01*
X145082852Y-82307404D01*
X145099879Y-82278995D01*
X145119609Y-82252392D01*
X145141851Y-82227851D01*
X145166392Y-82205609D01*
X145192995Y-82185879D01*
X145221404Y-82168852D01*
X145251344Y-82154691D01*
X145282529Y-82143533D01*
X145314657Y-82135485D01*
X145347419Y-82130625D01*
X145380500Y-82129000D01*
X146155500Y-82129000D01*
X146188581Y-82130625D01*
X146188581Y-82130625D01*
G37*
D15*
X145768000Y-82804000D03*
D14*
G36*
X144438581Y-82130625D02*
X144471343Y-82135485D01*
X144503471Y-82143533D01*
X144534656Y-82154691D01*
X144564596Y-82168852D01*
X144593005Y-82185879D01*
X144619608Y-82205609D01*
X144644149Y-82227851D01*
X144666391Y-82252392D01*
X144686121Y-82278995D01*
X144703148Y-82307404D01*
X144717309Y-82337344D01*
X144728467Y-82368529D01*
X144736515Y-82400657D01*
X144741375Y-82433419D01*
X144743000Y-82466500D01*
X144743000Y-83141500D01*
X144741375Y-83174581D01*
X144736515Y-83207343D01*
X144728467Y-83239471D01*
X144717309Y-83270656D01*
X144703148Y-83300596D01*
X144686121Y-83329005D01*
X144666391Y-83355608D01*
X144644149Y-83380149D01*
X144619608Y-83402391D01*
X144593005Y-83422121D01*
X144564596Y-83439148D01*
X144534656Y-83453309D01*
X144503471Y-83464467D01*
X144471343Y-83472515D01*
X144438581Y-83477375D01*
X144405500Y-83479000D01*
X143630500Y-83479000D01*
X143597419Y-83477375D01*
X143564657Y-83472515D01*
X143532529Y-83464467D01*
X143501344Y-83453309D01*
X143471404Y-83439148D01*
X143442995Y-83422121D01*
X143416392Y-83402391D01*
X143391851Y-83380149D01*
X143369609Y-83355608D01*
X143349879Y-83329005D01*
X143332852Y-83300596D01*
X143318691Y-83270656D01*
X143307533Y-83239471D01*
X143299485Y-83207343D01*
X143294625Y-83174581D01*
X143293000Y-83141500D01*
X143293000Y-82466500D01*
X143294625Y-82433419D01*
X143299485Y-82400657D01*
X143307533Y-82368529D01*
X143318691Y-82337344D01*
X143332852Y-82307404D01*
X143349879Y-82278995D01*
X143369609Y-82252392D01*
X143391851Y-82227851D01*
X143416392Y-82205609D01*
X143442995Y-82185879D01*
X143471404Y-82168852D01*
X143501344Y-82154691D01*
X143532529Y-82143533D01*
X143564657Y-82135485D01*
X143597419Y-82130625D01*
X143630500Y-82129000D01*
X144405500Y-82129000D01*
X144438581Y-82130625D01*
X144438581Y-82130625D01*
G37*
D15*
X144018000Y-82804000D03*
G04 #@! TD*
D14*
G04 #@! TO.C,R1*
G36*
X126376581Y-82130625D02*
X126409343Y-82135485D01*
X126441471Y-82143533D01*
X126472656Y-82154691D01*
X126502596Y-82168852D01*
X126531005Y-82185879D01*
X126557608Y-82205609D01*
X126582149Y-82227851D01*
X126604391Y-82252392D01*
X126624121Y-82278995D01*
X126641148Y-82307404D01*
X126655309Y-82337344D01*
X126666467Y-82368529D01*
X126674515Y-82400657D01*
X126679375Y-82433419D01*
X126681000Y-82466500D01*
X126681000Y-83141500D01*
X126679375Y-83174581D01*
X126674515Y-83207343D01*
X126666467Y-83239471D01*
X126655309Y-83270656D01*
X126641148Y-83300596D01*
X126624121Y-83329005D01*
X126604391Y-83355608D01*
X126582149Y-83380149D01*
X126557608Y-83402391D01*
X126531005Y-83422121D01*
X126502596Y-83439148D01*
X126472656Y-83453309D01*
X126441471Y-83464467D01*
X126409343Y-83472515D01*
X126376581Y-83477375D01*
X126343500Y-83479000D01*
X125568500Y-83479000D01*
X125535419Y-83477375D01*
X125502657Y-83472515D01*
X125470529Y-83464467D01*
X125439344Y-83453309D01*
X125409404Y-83439148D01*
X125380995Y-83422121D01*
X125354392Y-83402391D01*
X125329851Y-83380149D01*
X125307609Y-83355608D01*
X125287879Y-83329005D01*
X125270852Y-83300596D01*
X125256691Y-83270656D01*
X125245533Y-83239471D01*
X125237485Y-83207343D01*
X125232625Y-83174581D01*
X125231000Y-83141500D01*
X125231000Y-82466500D01*
X125232625Y-82433419D01*
X125237485Y-82400657D01*
X125245533Y-82368529D01*
X125256691Y-82337344D01*
X125270852Y-82307404D01*
X125287879Y-82278995D01*
X125307609Y-82252392D01*
X125329851Y-82227851D01*
X125354392Y-82205609D01*
X125380995Y-82185879D01*
X125409404Y-82168852D01*
X125439344Y-82154691D01*
X125470529Y-82143533D01*
X125502657Y-82135485D01*
X125535419Y-82130625D01*
X125568500Y-82129000D01*
X126343500Y-82129000D01*
X126376581Y-82130625D01*
X126376581Y-82130625D01*
G37*
D15*
X125956000Y-82804000D03*
D14*
G36*
X124626581Y-82130625D02*
X124659343Y-82135485D01*
X124691471Y-82143533D01*
X124722656Y-82154691D01*
X124752596Y-82168852D01*
X124781005Y-82185879D01*
X124807608Y-82205609D01*
X124832149Y-82227851D01*
X124854391Y-82252392D01*
X124874121Y-82278995D01*
X124891148Y-82307404D01*
X124905309Y-82337344D01*
X124916467Y-82368529D01*
X124924515Y-82400657D01*
X124929375Y-82433419D01*
X124931000Y-82466500D01*
X124931000Y-83141500D01*
X124929375Y-83174581D01*
X124924515Y-83207343D01*
X124916467Y-83239471D01*
X124905309Y-83270656D01*
X124891148Y-83300596D01*
X124874121Y-83329005D01*
X124854391Y-83355608D01*
X124832149Y-83380149D01*
X124807608Y-83402391D01*
X124781005Y-83422121D01*
X124752596Y-83439148D01*
X124722656Y-83453309D01*
X124691471Y-83464467D01*
X124659343Y-83472515D01*
X124626581Y-83477375D01*
X124593500Y-83479000D01*
X123818500Y-83479000D01*
X123785419Y-83477375D01*
X123752657Y-83472515D01*
X123720529Y-83464467D01*
X123689344Y-83453309D01*
X123659404Y-83439148D01*
X123630995Y-83422121D01*
X123604392Y-83402391D01*
X123579851Y-83380149D01*
X123557609Y-83355608D01*
X123537879Y-83329005D01*
X123520852Y-83300596D01*
X123506691Y-83270656D01*
X123495533Y-83239471D01*
X123487485Y-83207343D01*
X123482625Y-83174581D01*
X123481000Y-83141500D01*
X123481000Y-82466500D01*
X123482625Y-82433419D01*
X123487485Y-82400657D01*
X123495533Y-82368529D01*
X123506691Y-82337344D01*
X123520852Y-82307404D01*
X123537879Y-82278995D01*
X123557609Y-82252392D01*
X123579851Y-82227851D01*
X123604392Y-82205609D01*
X123630995Y-82185879D01*
X123659404Y-82168852D01*
X123689344Y-82154691D01*
X123720529Y-82143533D01*
X123752657Y-82135485D01*
X123785419Y-82130625D01*
X123818500Y-82129000D01*
X124593500Y-82129000D01*
X124626581Y-82130625D01*
X124626581Y-82130625D01*
G37*
D15*
X124206000Y-82804000D03*
G04 #@! TD*
D14*
G04 #@! TO.C,R2*
G36*
X128718581Y-82130625D02*
X128751343Y-82135485D01*
X128783471Y-82143533D01*
X128814656Y-82154691D01*
X128844596Y-82168852D01*
X128873005Y-82185879D01*
X128899608Y-82205609D01*
X128924149Y-82227851D01*
X128946391Y-82252392D01*
X128966121Y-82278995D01*
X128983148Y-82307404D01*
X128997309Y-82337344D01*
X129008467Y-82368529D01*
X129016515Y-82400657D01*
X129021375Y-82433419D01*
X129023000Y-82466500D01*
X129023000Y-83141500D01*
X129021375Y-83174581D01*
X129016515Y-83207343D01*
X129008467Y-83239471D01*
X128997309Y-83270656D01*
X128983148Y-83300596D01*
X128966121Y-83329005D01*
X128946391Y-83355608D01*
X128924149Y-83380149D01*
X128899608Y-83402391D01*
X128873005Y-83422121D01*
X128844596Y-83439148D01*
X128814656Y-83453309D01*
X128783471Y-83464467D01*
X128751343Y-83472515D01*
X128718581Y-83477375D01*
X128685500Y-83479000D01*
X127910500Y-83479000D01*
X127877419Y-83477375D01*
X127844657Y-83472515D01*
X127812529Y-83464467D01*
X127781344Y-83453309D01*
X127751404Y-83439148D01*
X127722995Y-83422121D01*
X127696392Y-83402391D01*
X127671851Y-83380149D01*
X127649609Y-83355608D01*
X127629879Y-83329005D01*
X127612852Y-83300596D01*
X127598691Y-83270656D01*
X127587533Y-83239471D01*
X127579485Y-83207343D01*
X127574625Y-83174581D01*
X127573000Y-83141500D01*
X127573000Y-82466500D01*
X127574625Y-82433419D01*
X127579485Y-82400657D01*
X127587533Y-82368529D01*
X127598691Y-82337344D01*
X127612852Y-82307404D01*
X127629879Y-82278995D01*
X127649609Y-82252392D01*
X127671851Y-82227851D01*
X127696392Y-82205609D01*
X127722995Y-82185879D01*
X127751404Y-82168852D01*
X127781344Y-82154691D01*
X127812529Y-82143533D01*
X127844657Y-82135485D01*
X127877419Y-82130625D01*
X127910500Y-82129000D01*
X128685500Y-82129000D01*
X128718581Y-82130625D01*
X128718581Y-82130625D01*
G37*
D15*
X128298000Y-82804000D03*
D14*
G36*
X130468581Y-82130625D02*
X130501343Y-82135485D01*
X130533471Y-82143533D01*
X130564656Y-82154691D01*
X130594596Y-82168852D01*
X130623005Y-82185879D01*
X130649608Y-82205609D01*
X130674149Y-82227851D01*
X130696391Y-82252392D01*
X130716121Y-82278995D01*
X130733148Y-82307404D01*
X130747309Y-82337344D01*
X130758467Y-82368529D01*
X130766515Y-82400657D01*
X130771375Y-82433419D01*
X130773000Y-82466500D01*
X130773000Y-83141500D01*
X130771375Y-83174581D01*
X130766515Y-83207343D01*
X130758467Y-83239471D01*
X130747309Y-83270656D01*
X130733148Y-83300596D01*
X130716121Y-83329005D01*
X130696391Y-83355608D01*
X130674149Y-83380149D01*
X130649608Y-83402391D01*
X130623005Y-83422121D01*
X130594596Y-83439148D01*
X130564656Y-83453309D01*
X130533471Y-83464467D01*
X130501343Y-83472515D01*
X130468581Y-83477375D01*
X130435500Y-83479000D01*
X129660500Y-83479000D01*
X129627419Y-83477375D01*
X129594657Y-83472515D01*
X129562529Y-83464467D01*
X129531344Y-83453309D01*
X129501404Y-83439148D01*
X129472995Y-83422121D01*
X129446392Y-83402391D01*
X129421851Y-83380149D01*
X129399609Y-83355608D01*
X129379879Y-83329005D01*
X129362852Y-83300596D01*
X129348691Y-83270656D01*
X129337533Y-83239471D01*
X129329485Y-83207343D01*
X129324625Y-83174581D01*
X129323000Y-83141500D01*
X129323000Y-82466500D01*
X129324625Y-82433419D01*
X129329485Y-82400657D01*
X129337533Y-82368529D01*
X129348691Y-82337344D01*
X129362852Y-82307404D01*
X129379879Y-82278995D01*
X129399609Y-82252392D01*
X129421851Y-82227851D01*
X129446392Y-82205609D01*
X129472995Y-82185879D01*
X129501404Y-82168852D01*
X129531344Y-82154691D01*
X129562529Y-82143533D01*
X129594657Y-82135485D01*
X129627419Y-82130625D01*
X129660500Y-82129000D01*
X130435500Y-82129000D01*
X130468581Y-82130625D01*
X130468581Y-82130625D01*
G37*
D15*
X130048000Y-82804000D03*
G04 #@! TD*
D14*
G04 #@! TO.C,R3*
G36*
X138060581Y-82130625D02*
X138093343Y-82135485D01*
X138125471Y-82143533D01*
X138156656Y-82154691D01*
X138186596Y-82168852D01*
X138215005Y-82185879D01*
X138241608Y-82205609D01*
X138266149Y-82227851D01*
X138288391Y-82252392D01*
X138308121Y-82278995D01*
X138325148Y-82307404D01*
X138339309Y-82337344D01*
X138350467Y-82368529D01*
X138358515Y-82400657D01*
X138363375Y-82433419D01*
X138365000Y-82466500D01*
X138365000Y-83141500D01*
X138363375Y-83174581D01*
X138358515Y-83207343D01*
X138350467Y-83239471D01*
X138339309Y-83270656D01*
X138325148Y-83300596D01*
X138308121Y-83329005D01*
X138288391Y-83355608D01*
X138266149Y-83380149D01*
X138241608Y-83402391D01*
X138215005Y-83422121D01*
X138186596Y-83439148D01*
X138156656Y-83453309D01*
X138125471Y-83464467D01*
X138093343Y-83472515D01*
X138060581Y-83477375D01*
X138027500Y-83479000D01*
X137252500Y-83479000D01*
X137219419Y-83477375D01*
X137186657Y-83472515D01*
X137154529Y-83464467D01*
X137123344Y-83453309D01*
X137093404Y-83439148D01*
X137064995Y-83422121D01*
X137038392Y-83402391D01*
X137013851Y-83380149D01*
X136991609Y-83355608D01*
X136971879Y-83329005D01*
X136954852Y-83300596D01*
X136940691Y-83270656D01*
X136929533Y-83239471D01*
X136921485Y-83207343D01*
X136916625Y-83174581D01*
X136915000Y-83141500D01*
X136915000Y-82466500D01*
X136916625Y-82433419D01*
X136921485Y-82400657D01*
X136929533Y-82368529D01*
X136940691Y-82337344D01*
X136954852Y-82307404D01*
X136971879Y-82278995D01*
X136991609Y-82252392D01*
X137013851Y-82227851D01*
X137038392Y-82205609D01*
X137064995Y-82185879D01*
X137093404Y-82168852D01*
X137123344Y-82154691D01*
X137154529Y-82143533D01*
X137186657Y-82135485D01*
X137219419Y-82130625D01*
X137252500Y-82129000D01*
X138027500Y-82129000D01*
X138060581Y-82130625D01*
X138060581Y-82130625D01*
G37*
D15*
X137640000Y-82804000D03*
D14*
G36*
X136310581Y-82130625D02*
X136343343Y-82135485D01*
X136375471Y-82143533D01*
X136406656Y-82154691D01*
X136436596Y-82168852D01*
X136465005Y-82185879D01*
X136491608Y-82205609D01*
X136516149Y-82227851D01*
X136538391Y-82252392D01*
X136558121Y-82278995D01*
X136575148Y-82307404D01*
X136589309Y-82337344D01*
X136600467Y-82368529D01*
X136608515Y-82400657D01*
X136613375Y-82433419D01*
X136615000Y-82466500D01*
X136615000Y-83141500D01*
X136613375Y-83174581D01*
X136608515Y-83207343D01*
X136600467Y-83239471D01*
X136589309Y-83270656D01*
X136575148Y-83300596D01*
X136558121Y-83329005D01*
X136538391Y-83355608D01*
X136516149Y-83380149D01*
X136491608Y-83402391D01*
X136465005Y-83422121D01*
X136436596Y-83439148D01*
X136406656Y-83453309D01*
X136375471Y-83464467D01*
X136343343Y-83472515D01*
X136310581Y-83477375D01*
X136277500Y-83479000D01*
X135502500Y-83479000D01*
X135469419Y-83477375D01*
X135436657Y-83472515D01*
X135404529Y-83464467D01*
X135373344Y-83453309D01*
X135343404Y-83439148D01*
X135314995Y-83422121D01*
X135288392Y-83402391D01*
X135263851Y-83380149D01*
X135241609Y-83355608D01*
X135221879Y-83329005D01*
X135204852Y-83300596D01*
X135190691Y-83270656D01*
X135179533Y-83239471D01*
X135171485Y-83207343D01*
X135166625Y-83174581D01*
X135165000Y-83141500D01*
X135165000Y-82466500D01*
X135166625Y-82433419D01*
X135171485Y-82400657D01*
X135179533Y-82368529D01*
X135190691Y-82337344D01*
X135204852Y-82307404D01*
X135221879Y-82278995D01*
X135241609Y-82252392D01*
X135263851Y-82227851D01*
X135288392Y-82205609D01*
X135314995Y-82185879D01*
X135343404Y-82168852D01*
X135373344Y-82154691D01*
X135404529Y-82143533D01*
X135436657Y-82135485D01*
X135469419Y-82130625D01*
X135502500Y-82129000D01*
X136277500Y-82129000D01*
X136310581Y-82130625D01*
X136310581Y-82130625D01*
G37*
D15*
X135890000Y-82804000D03*
G04 #@! TD*
D14*
G04 #@! TO.C,R4*
G36*
X132528581Y-82130625D02*
X132561343Y-82135485D01*
X132593471Y-82143533D01*
X132624656Y-82154691D01*
X132654596Y-82168852D01*
X132683005Y-82185879D01*
X132709608Y-82205609D01*
X132734149Y-82227851D01*
X132756391Y-82252392D01*
X132776121Y-82278995D01*
X132793148Y-82307404D01*
X132807309Y-82337344D01*
X132818467Y-82368529D01*
X132826515Y-82400657D01*
X132831375Y-82433419D01*
X132833000Y-82466500D01*
X132833000Y-83141500D01*
X132831375Y-83174581D01*
X132826515Y-83207343D01*
X132818467Y-83239471D01*
X132807309Y-83270656D01*
X132793148Y-83300596D01*
X132776121Y-83329005D01*
X132756391Y-83355608D01*
X132734149Y-83380149D01*
X132709608Y-83402391D01*
X132683005Y-83422121D01*
X132654596Y-83439148D01*
X132624656Y-83453309D01*
X132593471Y-83464467D01*
X132561343Y-83472515D01*
X132528581Y-83477375D01*
X132495500Y-83479000D01*
X131720500Y-83479000D01*
X131687419Y-83477375D01*
X131654657Y-83472515D01*
X131622529Y-83464467D01*
X131591344Y-83453309D01*
X131561404Y-83439148D01*
X131532995Y-83422121D01*
X131506392Y-83402391D01*
X131481851Y-83380149D01*
X131459609Y-83355608D01*
X131439879Y-83329005D01*
X131422852Y-83300596D01*
X131408691Y-83270656D01*
X131397533Y-83239471D01*
X131389485Y-83207343D01*
X131384625Y-83174581D01*
X131383000Y-83141500D01*
X131383000Y-82466500D01*
X131384625Y-82433419D01*
X131389485Y-82400657D01*
X131397533Y-82368529D01*
X131408691Y-82337344D01*
X131422852Y-82307404D01*
X131439879Y-82278995D01*
X131459609Y-82252392D01*
X131481851Y-82227851D01*
X131506392Y-82205609D01*
X131532995Y-82185879D01*
X131561404Y-82168852D01*
X131591344Y-82154691D01*
X131622529Y-82143533D01*
X131654657Y-82135485D01*
X131687419Y-82130625D01*
X131720500Y-82129000D01*
X132495500Y-82129000D01*
X132528581Y-82130625D01*
X132528581Y-82130625D01*
G37*
D15*
X132108000Y-82804000D03*
D14*
G36*
X134278581Y-82130625D02*
X134311343Y-82135485D01*
X134343471Y-82143533D01*
X134374656Y-82154691D01*
X134404596Y-82168852D01*
X134433005Y-82185879D01*
X134459608Y-82205609D01*
X134484149Y-82227851D01*
X134506391Y-82252392D01*
X134526121Y-82278995D01*
X134543148Y-82307404D01*
X134557309Y-82337344D01*
X134568467Y-82368529D01*
X134576515Y-82400657D01*
X134581375Y-82433419D01*
X134583000Y-82466500D01*
X134583000Y-83141500D01*
X134581375Y-83174581D01*
X134576515Y-83207343D01*
X134568467Y-83239471D01*
X134557309Y-83270656D01*
X134543148Y-83300596D01*
X134526121Y-83329005D01*
X134506391Y-83355608D01*
X134484149Y-83380149D01*
X134459608Y-83402391D01*
X134433005Y-83422121D01*
X134404596Y-83439148D01*
X134374656Y-83453309D01*
X134343471Y-83464467D01*
X134311343Y-83472515D01*
X134278581Y-83477375D01*
X134245500Y-83479000D01*
X133470500Y-83479000D01*
X133437419Y-83477375D01*
X133404657Y-83472515D01*
X133372529Y-83464467D01*
X133341344Y-83453309D01*
X133311404Y-83439148D01*
X133282995Y-83422121D01*
X133256392Y-83402391D01*
X133231851Y-83380149D01*
X133209609Y-83355608D01*
X133189879Y-83329005D01*
X133172852Y-83300596D01*
X133158691Y-83270656D01*
X133147533Y-83239471D01*
X133139485Y-83207343D01*
X133134625Y-83174581D01*
X133133000Y-83141500D01*
X133133000Y-82466500D01*
X133134625Y-82433419D01*
X133139485Y-82400657D01*
X133147533Y-82368529D01*
X133158691Y-82337344D01*
X133172852Y-82307404D01*
X133189879Y-82278995D01*
X133209609Y-82252392D01*
X133231851Y-82227851D01*
X133256392Y-82205609D01*
X133282995Y-82185879D01*
X133311404Y-82168852D01*
X133341344Y-82154691D01*
X133372529Y-82143533D01*
X133404657Y-82135485D01*
X133437419Y-82130625D01*
X133470500Y-82129000D01*
X134245500Y-82129000D01*
X134278581Y-82130625D01*
X134278581Y-82130625D01*
G37*
D15*
X133858000Y-82804000D03*
G04 #@! TD*
D16*
G04 #@! TO.C,R5*
X138516000Y-107696000D03*
X140716000Y-107696000D03*
G04 #@! TD*
G04 #@! TO.C,R6*
X141900000Y-82804000D03*
X139700000Y-82804000D03*
G04 #@! TD*
M02*
