G04 #@! TF.GenerationSoftware,KiCad,Pcbnew,(5.0.0)*
G04 #@! TF.CreationDate,2018-12-18T17:16:08-06:00*
G04 #@! TF.ProjectId,IMUBreakout_Hardware,494D55427265616B6F75745F48617264,rev?*
G04 #@! TF.SameCoordinates,Original*
G04 #@! TF.FileFunction,Legend,Bot*
G04 #@! TF.FilePolarity,Positive*
%FSLAX46Y46*%
G04 Gerber Fmt 4.6, Leading zero omitted, Abs format (unit mm)*
G04 Created by KiCad (PCBNEW (5.0.0)) date 12/18/18 17:16:08*
%MOMM*%
%LPD*%
G01*
G04 APERTURE LIST*
%ADD10C,0.300000*%
%ADD11C,0.010000*%
G04 APERTURE END LIST*
D10*
X122138142Y-101110285D02*
X123422142Y-101110285D01*
X122138142Y-100498857D02*
X123422142Y-100498857D01*
X122505000Y-100070857D01*
X123422142Y-99642857D01*
X122138142Y-99642857D01*
X123422142Y-99031428D02*
X122382714Y-99031428D01*
X122260428Y-98970285D01*
X122199285Y-98909142D01*
X122138142Y-98786857D01*
X122138142Y-98542285D01*
X122199285Y-98420000D01*
X122260428Y-98358857D01*
X122382714Y-98297714D01*
X123422142Y-98297714D01*
X122810714Y-96280000D02*
X122749571Y-96096571D01*
X122688428Y-96035428D01*
X122566142Y-95974285D01*
X122382714Y-95974285D01*
X122260428Y-96035428D01*
X122199285Y-96096571D01*
X122138142Y-96218857D01*
X122138142Y-96708000D01*
X123422142Y-96708000D01*
X123422142Y-96280000D01*
X123361000Y-96157714D01*
X123299857Y-96096571D01*
X123177571Y-96035428D01*
X123055285Y-96035428D01*
X122933000Y-96096571D01*
X122871857Y-96157714D01*
X122810714Y-96280000D01*
X122810714Y-96708000D01*
X122138142Y-95424000D02*
X122994142Y-95424000D01*
X122749571Y-95424000D02*
X122871857Y-95362857D01*
X122933000Y-95301714D01*
X122994142Y-95179428D01*
X122994142Y-95057142D01*
X122199285Y-94140000D02*
X122138142Y-94262285D01*
X122138142Y-94506857D01*
X122199285Y-94629142D01*
X122321571Y-94690285D01*
X122810714Y-94690285D01*
X122933000Y-94629142D01*
X122994142Y-94506857D01*
X122994142Y-94262285D01*
X122933000Y-94140000D01*
X122810714Y-94078857D01*
X122688428Y-94078857D01*
X122566142Y-94690285D01*
X122138142Y-92978285D02*
X122810714Y-92978285D01*
X122933000Y-93039428D01*
X122994142Y-93161714D01*
X122994142Y-93406285D01*
X122933000Y-93528571D01*
X122199285Y-92978285D02*
X122138142Y-93100571D01*
X122138142Y-93406285D01*
X122199285Y-93528571D01*
X122321571Y-93589714D01*
X122443857Y-93589714D01*
X122566142Y-93528571D01*
X122627285Y-93406285D01*
X122627285Y-93100571D01*
X122688428Y-92978285D01*
X122138142Y-92366857D02*
X123422142Y-92366857D01*
X122627285Y-92244571D02*
X122138142Y-91877714D01*
X122994142Y-91877714D02*
X122505000Y-92366857D01*
X122138142Y-91144000D02*
X122199285Y-91266285D01*
X122260428Y-91327428D01*
X122382714Y-91388571D01*
X122749571Y-91388571D01*
X122871857Y-91327428D01*
X122933000Y-91266285D01*
X122994142Y-91144000D01*
X122994142Y-90960571D01*
X122933000Y-90838285D01*
X122871857Y-90777142D01*
X122749571Y-90716000D01*
X122382714Y-90716000D01*
X122260428Y-90777142D01*
X122199285Y-90838285D01*
X122138142Y-90960571D01*
X122138142Y-91144000D01*
X122994142Y-89615428D02*
X122138142Y-89615428D01*
X122994142Y-90165714D02*
X122321571Y-90165714D01*
X122199285Y-90104571D01*
X122138142Y-89982285D01*
X122138142Y-89798857D01*
X122199285Y-89676571D01*
X122260428Y-89615428D01*
X122994142Y-89187428D02*
X122994142Y-88698285D01*
X123422142Y-89004000D02*
X122321571Y-89004000D01*
X122199285Y-88942857D01*
X122138142Y-88820571D01*
X122138142Y-88698285D01*
X119912142Y-106704857D02*
X121196142Y-106704857D01*
X120279000Y-106276857D01*
X121196142Y-105848857D01*
X119912142Y-105848857D01*
X119912142Y-104687142D02*
X120584714Y-104687142D01*
X120707000Y-104748285D01*
X120768142Y-104870571D01*
X120768142Y-105115142D01*
X120707000Y-105237428D01*
X119973285Y-104687142D02*
X119912142Y-104809428D01*
X119912142Y-105115142D01*
X119973285Y-105237428D01*
X120095571Y-105298571D01*
X120217857Y-105298571D01*
X120340142Y-105237428D01*
X120401285Y-105115142D01*
X120401285Y-104809428D01*
X120462428Y-104687142D01*
X119912142Y-104075714D02*
X120768142Y-104075714D01*
X120523571Y-104075714D02*
X120645857Y-104014571D01*
X120707000Y-103953428D01*
X120768142Y-103831142D01*
X120768142Y-103708857D01*
X119973285Y-103342000D02*
X119912142Y-103219714D01*
X119912142Y-102975142D01*
X119973285Y-102852857D01*
X120095571Y-102791714D01*
X120156714Y-102791714D01*
X120279000Y-102852857D01*
X120340142Y-102975142D01*
X120340142Y-103158571D01*
X120401285Y-103280857D01*
X120523571Y-103342000D01*
X120584714Y-103342000D01*
X120707000Y-103280857D01*
X120768142Y-103158571D01*
X120768142Y-102975142D01*
X120707000Y-102852857D01*
X119912142Y-100529428D02*
X120523571Y-100957428D01*
X119912142Y-101263142D02*
X121196142Y-101263142D01*
X121196142Y-100774000D01*
X121135000Y-100651714D01*
X121073857Y-100590571D01*
X120951571Y-100529428D01*
X120768142Y-100529428D01*
X120645857Y-100590571D01*
X120584714Y-100651714D01*
X120523571Y-100774000D01*
X120523571Y-101263142D01*
X119912142Y-99795714D02*
X119973285Y-99918000D01*
X120034428Y-99979142D01*
X120156714Y-100040285D01*
X120523571Y-100040285D01*
X120645857Y-99979142D01*
X120707000Y-99918000D01*
X120768142Y-99795714D01*
X120768142Y-99612285D01*
X120707000Y-99490000D01*
X120645857Y-99428857D01*
X120523571Y-99367714D01*
X120156714Y-99367714D01*
X120034428Y-99428857D01*
X119973285Y-99490000D01*
X119912142Y-99612285D01*
X119912142Y-99795714D01*
X120768142Y-98939714D02*
X119912142Y-98634000D01*
X120768142Y-98328285D01*
X119973285Y-97350000D02*
X119912142Y-97472285D01*
X119912142Y-97716857D01*
X119973285Y-97839142D01*
X120095571Y-97900285D01*
X120584714Y-97900285D01*
X120707000Y-97839142D01*
X120768142Y-97716857D01*
X120768142Y-97472285D01*
X120707000Y-97350000D01*
X120584714Y-97288857D01*
X120462428Y-97288857D01*
X120340142Y-97900285D01*
X119912142Y-96738571D02*
X120768142Y-96738571D01*
X120523571Y-96738571D02*
X120645857Y-96677428D01*
X120707000Y-96616285D01*
X120768142Y-96494000D01*
X120768142Y-96371714D01*
X119912142Y-94965428D02*
X121196142Y-94965428D01*
X121196142Y-94659714D01*
X121135000Y-94476285D01*
X121012714Y-94354000D01*
X120890428Y-94292857D01*
X120645857Y-94231714D01*
X120462428Y-94231714D01*
X120217857Y-94292857D01*
X120095571Y-94354000D01*
X119973285Y-94476285D01*
X119912142Y-94659714D01*
X119912142Y-94965428D01*
X119973285Y-93192285D02*
X119912142Y-93314571D01*
X119912142Y-93559142D01*
X119973285Y-93681428D01*
X120095571Y-93742571D01*
X120584714Y-93742571D01*
X120707000Y-93681428D01*
X120768142Y-93559142D01*
X120768142Y-93314571D01*
X120707000Y-93192285D01*
X120584714Y-93131142D01*
X120462428Y-93131142D01*
X120340142Y-93742571D01*
X119973285Y-92642000D02*
X119912142Y-92519714D01*
X119912142Y-92275142D01*
X119973285Y-92152857D01*
X120095571Y-92091714D01*
X120156714Y-92091714D01*
X120279000Y-92152857D01*
X120340142Y-92275142D01*
X120340142Y-92458571D01*
X120401285Y-92580857D01*
X120523571Y-92642000D01*
X120584714Y-92642000D01*
X120707000Y-92580857D01*
X120768142Y-92458571D01*
X120768142Y-92275142D01*
X120707000Y-92152857D01*
X119912142Y-91541428D02*
X120768142Y-91541428D01*
X121196142Y-91541428D02*
X121135000Y-91602571D01*
X121073857Y-91541428D01*
X121135000Y-91480285D01*
X121196142Y-91541428D01*
X121073857Y-91541428D01*
X120768142Y-90379714D02*
X119728714Y-90379714D01*
X119606428Y-90440857D01*
X119545285Y-90502000D01*
X119484142Y-90624285D01*
X119484142Y-90807714D01*
X119545285Y-90930000D01*
X119973285Y-90379714D02*
X119912142Y-90502000D01*
X119912142Y-90746571D01*
X119973285Y-90868857D01*
X120034428Y-90930000D01*
X120156714Y-90991142D01*
X120523571Y-90991142D01*
X120645857Y-90930000D01*
X120707000Y-90868857D01*
X120768142Y-90746571D01*
X120768142Y-90502000D01*
X120707000Y-90379714D01*
X120768142Y-89768285D02*
X119912142Y-89768285D01*
X120645857Y-89768285D02*
X120707000Y-89707142D01*
X120768142Y-89584857D01*
X120768142Y-89401428D01*
X120707000Y-89279142D01*
X120584714Y-89218000D01*
X119912142Y-89218000D01*
X121196142Y-87811714D02*
X121196142Y-87078000D01*
X119912142Y-87444857D02*
X121196142Y-87444857D01*
X119973285Y-86160857D02*
X119912142Y-86283142D01*
X119912142Y-86527714D01*
X119973285Y-86650000D01*
X120095571Y-86711142D01*
X120584714Y-86711142D01*
X120707000Y-86650000D01*
X120768142Y-86527714D01*
X120768142Y-86283142D01*
X120707000Y-86160857D01*
X120584714Y-86099714D01*
X120462428Y-86099714D01*
X120340142Y-86711142D01*
X119912142Y-84999142D02*
X120584714Y-84999142D01*
X120707000Y-85060285D01*
X120768142Y-85182571D01*
X120768142Y-85427142D01*
X120707000Y-85549428D01*
X119973285Y-84999142D02*
X119912142Y-85121428D01*
X119912142Y-85427142D01*
X119973285Y-85549428D01*
X120095571Y-85610571D01*
X120217857Y-85610571D01*
X120340142Y-85549428D01*
X120401285Y-85427142D01*
X120401285Y-85121428D01*
X120462428Y-84999142D01*
X119912142Y-84387714D02*
X120768142Y-84387714D01*
X120645857Y-84387714D02*
X120707000Y-84326571D01*
X120768142Y-84204285D01*
X120768142Y-84020857D01*
X120707000Y-83898571D01*
X120584714Y-83837428D01*
X119912142Y-83837428D01*
X120584714Y-83837428D02*
X120707000Y-83776285D01*
X120768142Y-83654000D01*
X120768142Y-83470571D01*
X120707000Y-83348285D01*
X120584714Y-83287142D01*
X119912142Y-83287142D01*
X117686142Y-104259142D02*
X118970142Y-104259142D01*
X118053000Y-103831142D01*
X118970142Y-103403142D01*
X117686142Y-103403142D01*
X117686142Y-102791714D02*
X118542142Y-102791714D01*
X118970142Y-102791714D02*
X118909000Y-102852857D01*
X118847857Y-102791714D01*
X118909000Y-102730571D01*
X118970142Y-102791714D01*
X118847857Y-102791714D01*
X117747285Y-102241428D02*
X117686142Y-102119142D01*
X117686142Y-101874571D01*
X117747285Y-101752285D01*
X117869571Y-101691142D01*
X117930714Y-101691142D01*
X118053000Y-101752285D01*
X118114142Y-101874571D01*
X118114142Y-102058000D01*
X118175285Y-102180285D01*
X118297571Y-102241428D01*
X118358714Y-102241428D01*
X118481000Y-102180285D01*
X118542142Y-102058000D01*
X118542142Y-101874571D01*
X118481000Y-101752285D01*
X117747285Y-101202000D02*
X117686142Y-101079714D01*
X117686142Y-100835142D01*
X117747285Y-100712857D01*
X117869571Y-100651714D01*
X117930714Y-100651714D01*
X118053000Y-100712857D01*
X118114142Y-100835142D01*
X118114142Y-101018571D01*
X118175285Y-101140857D01*
X118297571Y-101202000D01*
X118358714Y-101202000D01*
X118481000Y-101140857D01*
X118542142Y-101018571D01*
X118542142Y-100835142D01*
X118481000Y-100712857D01*
X117686142Y-99918000D02*
X117747285Y-100040285D01*
X117808428Y-100101428D01*
X117930714Y-100162571D01*
X118297571Y-100162571D01*
X118419857Y-100101428D01*
X118481000Y-100040285D01*
X118542142Y-99918000D01*
X118542142Y-99734571D01*
X118481000Y-99612285D01*
X118419857Y-99551142D01*
X118297571Y-99490000D01*
X117930714Y-99490000D01*
X117808428Y-99551142D01*
X117747285Y-99612285D01*
X117686142Y-99734571D01*
X117686142Y-99918000D01*
X118542142Y-98389428D02*
X117686142Y-98389428D01*
X118542142Y-98939714D02*
X117869571Y-98939714D01*
X117747285Y-98878571D01*
X117686142Y-98756285D01*
X117686142Y-98572857D01*
X117747285Y-98450571D01*
X117808428Y-98389428D01*
X117686142Y-97778000D02*
X118542142Y-97778000D01*
X118297571Y-97778000D02*
X118419857Y-97716857D01*
X118481000Y-97655714D01*
X118542142Y-97533428D01*
X118542142Y-97411142D01*
X117686142Y-96983142D02*
X118542142Y-96983142D01*
X118970142Y-96983142D02*
X118909000Y-97044285D01*
X118847857Y-96983142D01*
X118909000Y-96922000D01*
X118970142Y-96983142D01*
X118847857Y-96983142D01*
X117747285Y-95454571D02*
X117686142Y-95271142D01*
X117686142Y-94965428D01*
X117747285Y-94843142D01*
X117808428Y-94782000D01*
X117930714Y-94720857D01*
X118053000Y-94720857D01*
X118175285Y-94782000D01*
X118236428Y-94843142D01*
X118297571Y-94965428D01*
X118358714Y-95210000D01*
X118419857Y-95332285D01*
X118481000Y-95393428D01*
X118603285Y-95454571D01*
X118725571Y-95454571D01*
X118847857Y-95393428D01*
X118909000Y-95332285D01*
X118970142Y-95210000D01*
X118970142Y-94904285D01*
X118909000Y-94720857D01*
X117686142Y-93131142D02*
X117686142Y-93192285D01*
X117747285Y-93314571D01*
X117930714Y-93498000D01*
X118297571Y-93803714D01*
X118481000Y-93926000D01*
X118664428Y-93987142D01*
X118786714Y-93987142D01*
X118909000Y-93926000D01*
X118970142Y-93803714D01*
X118970142Y-93742571D01*
X118909000Y-93620285D01*
X118786714Y-93559142D01*
X118725571Y-93559142D01*
X118603285Y-93620285D01*
X118542142Y-93681428D01*
X118297571Y-94048285D01*
X118236428Y-94109428D01*
X118114142Y-94170571D01*
X117930714Y-94170571D01*
X117808428Y-94109428D01*
X117747285Y-94048285D01*
X117686142Y-93926000D01*
X117686142Y-93742571D01*
X117747285Y-93620285D01*
X117808428Y-93559142D01*
X118053000Y-93375714D01*
X118236428Y-93314571D01*
X118358714Y-93314571D01*
X118970142Y-92764285D02*
X118970142Y-92030571D01*
X117686142Y-92397428D02*
X118970142Y-92397428D01*
X117747285Y-91541428D02*
X117686142Y-91541428D01*
X117563857Y-91602571D01*
X117502714Y-91663714D01*
X118847857Y-90074000D02*
X118909000Y-90012857D01*
X118970142Y-89890571D01*
X118970142Y-89584857D01*
X118909000Y-89462571D01*
X118847857Y-89401428D01*
X118725571Y-89340285D01*
X118603285Y-89340285D01*
X118419857Y-89401428D01*
X117686142Y-90135142D01*
X117686142Y-89340285D01*
X118970142Y-88545428D02*
X118970142Y-88423142D01*
X118909000Y-88300857D01*
X118847857Y-88239714D01*
X118725571Y-88178571D01*
X118481000Y-88117428D01*
X118175285Y-88117428D01*
X117930714Y-88178571D01*
X117808428Y-88239714D01*
X117747285Y-88300857D01*
X117686142Y-88423142D01*
X117686142Y-88545428D01*
X117747285Y-88667714D01*
X117808428Y-88728857D01*
X117930714Y-88790000D01*
X118175285Y-88851142D01*
X118481000Y-88851142D01*
X118725571Y-88790000D01*
X118847857Y-88728857D01*
X118909000Y-88667714D01*
X118970142Y-88545428D01*
X117686142Y-86894571D02*
X117686142Y-87628285D01*
X117686142Y-87261428D02*
X118970142Y-87261428D01*
X118786714Y-87383714D01*
X118664428Y-87506000D01*
X118603285Y-87628285D01*
X117686142Y-86283142D02*
X117686142Y-86038571D01*
X117747285Y-85916285D01*
X117808428Y-85855142D01*
X117991857Y-85732857D01*
X118236428Y-85671714D01*
X118725571Y-85671714D01*
X118847857Y-85732857D01*
X118909000Y-85794000D01*
X118970142Y-85916285D01*
X118970142Y-86160857D01*
X118909000Y-86283142D01*
X118847857Y-86344285D01*
X118725571Y-86405428D01*
X118419857Y-86405428D01*
X118297571Y-86344285D01*
X118236428Y-86283142D01*
X118175285Y-86160857D01*
X118175285Y-85916285D01*
X118236428Y-85794000D01*
X118297571Y-85732857D01*
X118419857Y-85671714D01*
X115827000Y-103005714D02*
X115827000Y-102394285D01*
X115460142Y-103128000D02*
X116744142Y-102700000D01*
X115460142Y-102272000D01*
X116316142Y-101844000D02*
X115460142Y-101844000D01*
X116193857Y-101844000D02*
X116255000Y-101782857D01*
X116316142Y-101660571D01*
X116316142Y-101477142D01*
X116255000Y-101354857D01*
X116132714Y-101293714D01*
X115460142Y-101293714D01*
X115460142Y-100132000D02*
X116744142Y-100132000D01*
X115521285Y-100132000D02*
X115460142Y-100254285D01*
X115460142Y-100498857D01*
X115521285Y-100621142D01*
X115582428Y-100682285D01*
X115704714Y-100743428D01*
X116071571Y-100743428D01*
X116193857Y-100682285D01*
X116255000Y-100621142D01*
X116316142Y-100498857D01*
X116316142Y-100254285D01*
X116255000Y-100132000D01*
X115460142Y-99520571D02*
X116316142Y-99520571D01*
X116071571Y-99520571D02*
X116193857Y-99459428D01*
X116255000Y-99398285D01*
X116316142Y-99276000D01*
X116316142Y-99153714D01*
X115521285Y-98236571D02*
X115460142Y-98358857D01*
X115460142Y-98603428D01*
X115521285Y-98725714D01*
X115643571Y-98786857D01*
X116132714Y-98786857D01*
X116255000Y-98725714D01*
X116316142Y-98603428D01*
X116316142Y-98358857D01*
X116255000Y-98236571D01*
X116132714Y-98175428D01*
X116010428Y-98175428D01*
X115888142Y-98786857D01*
X116316142Y-97747428D02*
X115460142Y-97502857D01*
X116071571Y-97258285D01*
X115460142Y-97013714D01*
X116316142Y-96769142D01*
X116744142Y-95485142D02*
X115460142Y-95057142D01*
X116744142Y-94629142D01*
X115460142Y-93650857D02*
X116132714Y-93650857D01*
X116255000Y-93712000D01*
X116316142Y-93834285D01*
X116316142Y-94078857D01*
X116255000Y-94201142D01*
X115521285Y-93650857D02*
X115460142Y-93773142D01*
X115460142Y-94078857D01*
X115521285Y-94201142D01*
X115643571Y-94262285D01*
X115765857Y-94262285D01*
X115888142Y-94201142D01*
X115949285Y-94078857D01*
X115949285Y-93773142D01*
X116010428Y-93650857D01*
X116316142Y-93039428D02*
X115460142Y-93039428D01*
X116193857Y-93039428D02*
X116255000Y-92978285D01*
X116316142Y-92856000D01*
X116316142Y-92672571D01*
X116255000Y-92550285D01*
X116132714Y-92489142D01*
X115460142Y-92489142D01*
X115460142Y-90899428D02*
X116744142Y-90899428D01*
X116132714Y-90899428D02*
X116132714Y-90165714D01*
X115460142Y-90165714D02*
X116744142Y-90165714D01*
X115460142Y-89370857D02*
X115521285Y-89493142D01*
X115582428Y-89554285D01*
X115704714Y-89615428D01*
X116071571Y-89615428D01*
X116193857Y-89554285D01*
X116255000Y-89493142D01*
X116316142Y-89370857D01*
X116316142Y-89187428D01*
X116255000Y-89065142D01*
X116193857Y-89004000D01*
X116071571Y-88942857D01*
X115704714Y-88942857D01*
X115582428Y-89004000D01*
X115521285Y-89065142D01*
X115460142Y-89187428D01*
X115460142Y-89370857D01*
X115460142Y-88392571D02*
X116316142Y-88392571D01*
X116071571Y-88392571D02*
X116193857Y-88331428D01*
X116255000Y-88270285D01*
X116316142Y-88148000D01*
X116316142Y-88025714D01*
X116316142Y-87597714D02*
X115460142Y-87597714D01*
X116193857Y-87597714D02*
X116255000Y-87536571D01*
X116316142Y-87414285D01*
X116316142Y-87230857D01*
X116255000Y-87108571D01*
X116132714Y-87047428D01*
X115460142Y-87047428D01*
D11*
G04 #@! TO.C,G\002A\002A\002A*
G36*
X133067389Y-90236769D02*
X133001675Y-90246247D01*
X132948170Y-90261802D01*
X132940009Y-90265335D01*
X132907257Y-90280513D01*
X132937375Y-90275418D01*
X133042199Y-90263662D01*
X133140383Y-90264445D01*
X133227468Y-90277718D01*
X133231063Y-90278611D01*
X133332543Y-90311983D01*
X133438293Y-90361990D01*
X133548671Y-90428926D01*
X133664041Y-90513084D01*
X133784761Y-90614758D01*
X133911193Y-90734241D01*
X134043698Y-90871827D01*
X134182636Y-91027810D01*
X134251869Y-91109484D01*
X134316010Y-91186949D01*
X134377288Y-91262490D01*
X134436661Y-91337494D01*
X134495092Y-91413349D01*
X134553540Y-91491443D01*
X134612965Y-91573164D01*
X134674328Y-91659901D01*
X134738588Y-91753042D01*
X134806707Y-91853974D01*
X134879644Y-91964086D01*
X134958360Y-92084766D01*
X135043815Y-92217402D01*
X135136968Y-92363382D01*
X135238782Y-92524094D01*
X135324343Y-92659803D01*
X135519455Y-92974436D01*
X135707118Y-93286350D01*
X135884315Y-93590508D01*
X135928911Y-93668775D01*
X135969213Y-93739489D01*
X136015905Y-93820819D01*
X136065142Y-93906107D01*
X136113081Y-93988695D01*
X136155143Y-94060674D01*
X136197038Y-94132491D01*
X136242995Y-94212024D01*
X136289466Y-94293086D01*
X136332905Y-94369487D01*
X136369765Y-94435041D01*
X136370944Y-94437156D01*
X136402733Y-94494093D01*
X136432890Y-94547926D01*
X136459409Y-94595088D01*
X136480283Y-94632012D01*
X136493507Y-94655129D01*
X136493923Y-94655844D01*
X136519178Y-94699198D01*
X136558153Y-94595607D01*
X136578596Y-94544375D01*
X136604011Y-94485534D01*
X136633123Y-94421588D01*
X136664659Y-94355037D01*
X136697342Y-94288382D01*
X136729897Y-94224126D01*
X136761051Y-94164768D01*
X136789527Y-94112811D01*
X136814050Y-94070756D01*
X136833346Y-94041104D01*
X136846140Y-94026357D01*
X136848919Y-94025178D01*
X136855665Y-94033572D01*
X136870146Y-94056847D01*
X136890691Y-94092146D01*
X136915630Y-94136609D01*
X136938391Y-94178281D01*
X136975144Y-94246074D01*
X137014554Y-94318307D01*
X137055421Y-94392820D01*
X137096545Y-94467458D01*
X137136726Y-94540062D01*
X137174764Y-94608475D01*
X137209458Y-94670539D01*
X137239608Y-94724098D01*
X137264014Y-94766993D01*
X137281476Y-94797067D01*
X137290793Y-94812163D01*
X137291650Y-94813281D01*
X137292347Y-94808874D01*
X137287010Y-94789080D01*
X137276655Y-94757314D01*
X137266299Y-94727945D01*
X137241148Y-94658839D01*
X137213191Y-94582605D01*
X137183227Y-94501372D01*
X137152054Y-94417267D01*
X137120472Y-94332420D01*
X137089280Y-94248958D01*
X137059277Y-94169010D01*
X137031261Y-94094705D01*
X137006034Y-94028170D01*
X136984392Y-93971535D01*
X136967136Y-93926927D01*
X136955064Y-93896475D01*
X136948976Y-93882307D01*
X136948545Y-93881613D01*
X136940077Y-93885539D01*
X136924195Y-93903113D01*
X136903939Y-93930842D01*
X136898295Y-93939340D01*
X136877354Y-93970290D01*
X136860286Y-93993329D01*
X136850145Y-94004390D01*
X136849101Y-94004812D01*
X136842745Y-93996266D01*
X136828454Y-93972483D01*
X136807659Y-93935993D01*
X136781788Y-93889322D01*
X136752270Y-93834996D01*
X136737336Y-93807148D01*
X136702165Y-93741663D01*
X136660055Y-93663853D01*
X136613849Y-93578931D01*
X136566385Y-93492110D01*
X136520506Y-93408602D01*
X136492657Y-93358166D01*
X136452232Y-93285007D01*
X136404745Y-93198862D01*
X136352750Y-93104376D01*
X136298798Y-93006191D01*
X136245442Y-92908949D01*
X136195234Y-92817295D01*
X136177731Y-92785297D01*
X136096380Y-92637700D01*
X136016476Y-92495022D01*
X135938882Y-92358716D01*
X135864464Y-92230233D01*
X135794089Y-92111026D01*
X135728621Y-92002547D01*
X135668926Y-91906248D01*
X135615869Y-91823581D01*
X135570317Y-91755998D01*
X135535911Y-91708561D01*
X135487716Y-91650448D01*
X135444732Y-91608666D01*
X135407673Y-91583611D01*
X135377250Y-91575683D01*
X135354175Y-91585278D01*
X135343453Y-91601105D01*
X135333514Y-91627923D01*
X135331804Y-91643690D01*
X135337460Y-91645795D01*
X135349621Y-91631630D01*
X135352187Y-91627557D01*
X135371560Y-91604026D01*
X135389560Y-91597450D01*
X135389798Y-91597492D01*
X135408666Y-91609535D01*
X135434797Y-91639608D01*
X135467874Y-91687147D01*
X135507580Y-91751588D01*
X135553596Y-91832369D01*
X135605607Y-91928925D01*
X135663293Y-92040694D01*
X135726338Y-92167113D01*
X135794424Y-92307616D01*
X135818722Y-92358617D01*
X135842652Y-92409608D01*
X135871859Y-92472769D01*
X135905609Y-92546448D01*
X135943167Y-92628993D01*
X135983798Y-92718752D01*
X136026767Y-92814073D01*
X136071340Y-92913302D01*
X136116780Y-93014789D01*
X136162354Y-93116880D01*
X136207326Y-93217923D01*
X136250962Y-93316266D01*
X136292526Y-93410257D01*
X136331285Y-93498244D01*
X136366501Y-93578573D01*
X136397442Y-93649594D01*
X136423372Y-93709653D01*
X136443556Y-93757099D01*
X136457259Y-93790279D01*
X136463746Y-93807541D01*
X136464126Y-93809666D01*
X136457980Y-93802482D01*
X136442240Y-93780835D01*
X136418464Y-93746958D01*
X136388209Y-93703087D01*
X136353032Y-93651456D01*
X136325715Y-93611006D01*
X136280178Y-93543757D01*
X136226267Y-93464848D01*
X136165357Y-93376245D01*
X136098825Y-93279915D01*
X136028047Y-93177824D01*
X135954398Y-93071937D01*
X135879255Y-92964222D01*
X135803994Y-92856642D01*
X135729991Y-92751166D01*
X135658622Y-92649758D01*
X135591264Y-92554385D01*
X135529291Y-92467013D01*
X135474081Y-92389608D01*
X135427009Y-92324135D01*
X135389452Y-92272562D01*
X135378857Y-92258222D01*
X135195590Y-92014530D01*
X135020817Y-91788455D01*
X134854157Y-91579603D01*
X134695234Y-91387578D01*
X134543666Y-91211985D01*
X134399076Y-91052429D01*
X134261085Y-90908515D01*
X134129314Y-90779847D01*
X134003383Y-90666031D01*
X133882913Y-90566671D01*
X133767527Y-90481373D01*
X133656844Y-90409741D01*
X133550486Y-90351379D01*
X133549786Y-90351032D01*
X133470505Y-90313195D01*
X133403029Y-90284791D01*
X133342413Y-90264175D01*
X133283717Y-90249703D01*
X133221997Y-90239731D01*
X133211394Y-90238429D01*
X133139300Y-90233964D01*
X133067389Y-90236769D01*
X133067389Y-90236769D01*
G37*
X133067389Y-90236769D02*
X133001675Y-90246247D01*
X132948170Y-90261802D01*
X132940009Y-90265335D01*
X132907257Y-90280513D01*
X132937375Y-90275418D01*
X133042199Y-90263662D01*
X133140383Y-90264445D01*
X133227468Y-90277718D01*
X133231063Y-90278611D01*
X133332543Y-90311983D01*
X133438293Y-90361990D01*
X133548671Y-90428926D01*
X133664041Y-90513084D01*
X133784761Y-90614758D01*
X133911193Y-90734241D01*
X134043698Y-90871827D01*
X134182636Y-91027810D01*
X134251869Y-91109484D01*
X134316010Y-91186949D01*
X134377288Y-91262490D01*
X134436661Y-91337494D01*
X134495092Y-91413349D01*
X134553540Y-91491443D01*
X134612965Y-91573164D01*
X134674328Y-91659901D01*
X134738588Y-91753042D01*
X134806707Y-91853974D01*
X134879644Y-91964086D01*
X134958360Y-92084766D01*
X135043815Y-92217402D01*
X135136968Y-92363382D01*
X135238782Y-92524094D01*
X135324343Y-92659803D01*
X135519455Y-92974436D01*
X135707118Y-93286350D01*
X135884315Y-93590508D01*
X135928911Y-93668775D01*
X135969213Y-93739489D01*
X136015905Y-93820819D01*
X136065142Y-93906107D01*
X136113081Y-93988695D01*
X136155143Y-94060674D01*
X136197038Y-94132491D01*
X136242995Y-94212024D01*
X136289466Y-94293086D01*
X136332905Y-94369487D01*
X136369765Y-94435041D01*
X136370944Y-94437156D01*
X136402733Y-94494093D01*
X136432890Y-94547926D01*
X136459409Y-94595088D01*
X136480283Y-94632012D01*
X136493507Y-94655129D01*
X136493923Y-94655844D01*
X136519178Y-94699198D01*
X136558153Y-94595607D01*
X136578596Y-94544375D01*
X136604011Y-94485534D01*
X136633123Y-94421588D01*
X136664659Y-94355037D01*
X136697342Y-94288382D01*
X136729897Y-94224126D01*
X136761051Y-94164768D01*
X136789527Y-94112811D01*
X136814050Y-94070756D01*
X136833346Y-94041104D01*
X136846140Y-94026357D01*
X136848919Y-94025178D01*
X136855665Y-94033572D01*
X136870146Y-94056847D01*
X136890691Y-94092146D01*
X136915630Y-94136609D01*
X136938391Y-94178281D01*
X136975144Y-94246074D01*
X137014554Y-94318307D01*
X137055421Y-94392820D01*
X137096545Y-94467458D01*
X137136726Y-94540062D01*
X137174764Y-94608475D01*
X137209458Y-94670539D01*
X137239608Y-94724098D01*
X137264014Y-94766993D01*
X137281476Y-94797067D01*
X137290793Y-94812163D01*
X137291650Y-94813281D01*
X137292347Y-94808874D01*
X137287010Y-94789080D01*
X137276655Y-94757314D01*
X137266299Y-94727945D01*
X137241148Y-94658839D01*
X137213191Y-94582605D01*
X137183227Y-94501372D01*
X137152054Y-94417267D01*
X137120472Y-94332420D01*
X137089280Y-94248958D01*
X137059277Y-94169010D01*
X137031261Y-94094705D01*
X137006034Y-94028170D01*
X136984392Y-93971535D01*
X136967136Y-93926927D01*
X136955064Y-93896475D01*
X136948976Y-93882307D01*
X136948545Y-93881613D01*
X136940077Y-93885539D01*
X136924195Y-93903113D01*
X136903939Y-93930842D01*
X136898295Y-93939340D01*
X136877354Y-93970290D01*
X136860286Y-93993329D01*
X136850145Y-94004390D01*
X136849101Y-94004812D01*
X136842745Y-93996266D01*
X136828454Y-93972483D01*
X136807659Y-93935993D01*
X136781788Y-93889322D01*
X136752270Y-93834996D01*
X136737336Y-93807148D01*
X136702165Y-93741663D01*
X136660055Y-93663853D01*
X136613849Y-93578931D01*
X136566385Y-93492110D01*
X136520506Y-93408602D01*
X136492657Y-93358166D01*
X136452232Y-93285007D01*
X136404745Y-93198862D01*
X136352750Y-93104376D01*
X136298798Y-93006191D01*
X136245442Y-92908949D01*
X136195234Y-92817295D01*
X136177731Y-92785297D01*
X136096380Y-92637700D01*
X136016476Y-92495022D01*
X135938882Y-92358716D01*
X135864464Y-92230233D01*
X135794089Y-92111026D01*
X135728621Y-92002547D01*
X135668926Y-91906248D01*
X135615869Y-91823581D01*
X135570317Y-91755998D01*
X135535911Y-91708561D01*
X135487716Y-91650448D01*
X135444732Y-91608666D01*
X135407673Y-91583611D01*
X135377250Y-91575683D01*
X135354175Y-91585278D01*
X135343453Y-91601105D01*
X135333514Y-91627923D01*
X135331804Y-91643690D01*
X135337460Y-91645795D01*
X135349621Y-91631630D01*
X135352187Y-91627557D01*
X135371560Y-91604026D01*
X135389560Y-91597450D01*
X135389798Y-91597492D01*
X135408666Y-91609535D01*
X135434797Y-91639608D01*
X135467874Y-91687147D01*
X135507580Y-91751588D01*
X135553596Y-91832369D01*
X135605607Y-91928925D01*
X135663293Y-92040694D01*
X135726338Y-92167113D01*
X135794424Y-92307616D01*
X135818722Y-92358617D01*
X135842652Y-92409608D01*
X135871859Y-92472769D01*
X135905609Y-92546448D01*
X135943167Y-92628993D01*
X135983798Y-92718752D01*
X136026767Y-92814073D01*
X136071340Y-92913302D01*
X136116780Y-93014789D01*
X136162354Y-93116880D01*
X136207326Y-93217923D01*
X136250962Y-93316266D01*
X136292526Y-93410257D01*
X136331285Y-93498244D01*
X136366501Y-93578573D01*
X136397442Y-93649594D01*
X136423372Y-93709653D01*
X136443556Y-93757099D01*
X136457259Y-93790279D01*
X136463746Y-93807541D01*
X136464126Y-93809666D01*
X136457980Y-93802482D01*
X136442240Y-93780835D01*
X136418464Y-93746958D01*
X136388209Y-93703087D01*
X136353032Y-93651456D01*
X136325715Y-93611006D01*
X136280178Y-93543757D01*
X136226267Y-93464848D01*
X136165357Y-93376245D01*
X136098825Y-93279915D01*
X136028047Y-93177824D01*
X135954398Y-93071937D01*
X135879255Y-92964222D01*
X135803994Y-92856642D01*
X135729991Y-92751166D01*
X135658622Y-92649758D01*
X135591264Y-92554385D01*
X135529291Y-92467013D01*
X135474081Y-92389608D01*
X135427009Y-92324135D01*
X135389452Y-92272562D01*
X135378857Y-92258222D01*
X135195590Y-92014530D01*
X135020817Y-91788455D01*
X134854157Y-91579603D01*
X134695234Y-91387578D01*
X134543666Y-91211985D01*
X134399076Y-91052429D01*
X134261085Y-90908515D01*
X134129314Y-90779847D01*
X134003383Y-90666031D01*
X133882913Y-90566671D01*
X133767527Y-90481373D01*
X133656844Y-90409741D01*
X133550486Y-90351379D01*
X133549786Y-90351032D01*
X133470505Y-90313195D01*
X133403029Y-90284791D01*
X133342413Y-90264175D01*
X133283717Y-90249703D01*
X133221997Y-90239731D01*
X133211394Y-90238429D01*
X133139300Y-90233964D01*
X133067389Y-90236769D01*
G36*
X137299549Y-94833360D02*
X137304569Y-94838380D01*
X137309589Y-94833360D01*
X137304569Y-94828340D01*
X137299549Y-94833360D01*
X137299549Y-94833360D01*
G37*
X137299549Y-94833360D02*
X137304569Y-94838380D01*
X137309589Y-94833360D01*
X137304569Y-94828340D01*
X137299549Y-94833360D01*
G36*
X136357646Y-92475025D02*
X136362903Y-92487126D01*
X136380000Y-92512867D01*
X136389810Y-92526756D01*
X136408160Y-92553842D01*
X136426139Y-92583573D01*
X136444875Y-92618325D01*
X136465497Y-92660477D01*
X136489132Y-92712406D01*
X136516909Y-92776489D01*
X136549957Y-92855105D01*
X136579378Y-92926244D01*
X136604400Y-92987670D01*
X136635260Y-93064444D01*
X136670621Y-93153161D01*
X136709145Y-93250415D01*
X136749494Y-93352801D01*
X136790330Y-93456915D01*
X136830314Y-93559352D01*
X136868109Y-93656706D01*
X136902377Y-93745572D01*
X136931780Y-93822545D01*
X136937631Y-93837988D01*
X136948468Y-93866648D01*
X137004780Y-93789539D01*
X137029678Y-93757301D01*
X137050702Y-93733500D01*
X137064943Y-93721255D01*
X137068994Y-93720721D01*
X137074612Y-93730970D01*
X137088192Y-93757788D01*
X137108987Y-93799649D01*
X137136251Y-93855028D01*
X137169239Y-93922401D01*
X137207204Y-94000243D01*
X137249401Y-94087029D01*
X137295083Y-94181233D01*
X137343505Y-94281332D01*
X137362828Y-94321344D01*
X137474079Y-94551675D01*
X137577313Y-94765119D01*
X137673140Y-94962925D01*
X137762169Y-95146337D01*
X137845010Y-95316603D01*
X137922273Y-95474968D01*
X137994566Y-95622678D01*
X138062500Y-95760980D01*
X138126684Y-95891120D01*
X138187727Y-96014344D01*
X138246239Y-96131899D01*
X138302830Y-96245030D01*
X138335042Y-96309170D01*
X138378701Y-96396492D01*
X138415982Y-96471559D01*
X138448210Y-96536093D01*
X138476713Y-96591820D01*
X138502815Y-96640462D01*
X138527842Y-96683744D01*
X138553121Y-96723388D01*
X138579978Y-96761118D01*
X138609737Y-96798659D01*
X138643726Y-96837733D01*
X138683270Y-96880065D01*
X138729695Y-96927378D01*
X138784326Y-96981396D01*
X138848490Y-97043842D01*
X138923513Y-97116440D01*
X139010720Y-97200913D01*
X139051446Y-97240491D01*
X139124905Y-97312369D01*
X139196772Y-97383443D01*
X139265174Y-97451806D01*
X139328234Y-97515553D01*
X139384077Y-97572777D01*
X139430829Y-97621572D01*
X139466614Y-97660031D01*
X139487443Y-97683693D01*
X139544094Y-97750302D01*
X139612788Y-97829063D01*
X139691518Y-97917789D01*
X139778275Y-98014292D01*
X139871048Y-98116383D01*
X139967830Y-98221873D01*
X140066610Y-98328576D01*
X140165380Y-98434303D01*
X140262131Y-98536865D01*
X140354854Y-98634074D01*
X140441539Y-98723743D01*
X140455723Y-98738276D01*
X140503697Y-98787495D01*
X140546532Y-98831708D01*
X140582376Y-98868984D01*
X140609379Y-98897390D01*
X140625689Y-98914992D01*
X140629784Y-98920010D01*
X140617444Y-98924406D01*
X140589486Y-98932450D01*
X140549823Y-98943143D01*
X140502373Y-98955487D01*
X140451049Y-98968484D01*
X140399768Y-98981137D01*
X140352444Y-98992446D01*
X140312993Y-99001415D01*
X140297752Y-99004646D01*
X140233275Y-99016804D01*
X140186416Y-99023207D01*
X140155594Y-99023973D01*
X140139227Y-99019219D01*
X140136803Y-99016583D01*
X140127211Y-99007119D01*
X140105508Y-98988312D01*
X140075335Y-98963264D01*
X140053384Y-98945490D01*
X139975083Y-98882677D01*
X140133543Y-99032133D01*
X140099491Y-99038227D01*
X140039134Y-99046957D01*
X139966792Y-99054029D01*
X139885206Y-99059462D01*
X139797118Y-99063277D01*
X139705267Y-99065494D01*
X139612396Y-99066133D01*
X139521244Y-99065214D01*
X139434554Y-99062757D01*
X139355066Y-99058782D01*
X139285521Y-99053310D01*
X139228661Y-99046359D01*
X139187226Y-99037951D01*
X139169273Y-99031418D01*
X139157793Y-99019573D01*
X139137475Y-98992044D01*
X139109400Y-98950607D01*
X139074653Y-98897034D01*
X139034315Y-98833098D01*
X138989469Y-98760575D01*
X138941198Y-98681236D01*
X138890584Y-98596857D01*
X138838710Y-98509210D01*
X138786660Y-98420069D01*
X138735514Y-98331208D01*
X138686357Y-98244401D01*
X138659687Y-98196601D01*
X138617366Y-98121587D01*
X138571914Y-98043270D01*
X138525979Y-97966062D01*
X138482212Y-97894374D01*
X138443262Y-97832618D01*
X138418498Y-97795020D01*
X138381447Y-97738446D01*
X138338418Y-97669712D01*
X138292798Y-97594417D01*
X138247975Y-97518161D01*
X138207337Y-97446546D01*
X138203271Y-97439199D01*
X138153378Y-97351052D01*
X138104314Y-97269585D01*
X138052552Y-97189318D01*
X137994562Y-97104778D01*
X137928299Y-97012519D01*
X137786403Y-96814263D01*
X137652315Y-96618387D01*
X137522918Y-96420061D01*
X137395096Y-96214452D01*
X137265731Y-95996732D01*
X137205617Y-95892530D01*
X137169546Y-95830546D01*
X137136721Y-95777042D01*
X137104185Y-95727826D01*
X137068979Y-95678706D01*
X137028143Y-95625488D01*
X136978720Y-95563981D01*
X136943477Y-95521068D01*
X136894836Y-95462066D01*
X136846454Y-95403214D01*
X136801073Y-95347860D01*
X136761438Y-95299355D01*
X136730291Y-95261046D01*
X136717326Y-95244981D01*
X136686124Y-95206543D01*
X136646619Y-95158481D01*
X136603504Y-95106473D01*
X136561472Y-95056201D01*
X136554523Y-95047940D01*
X136520300Y-95006501D01*
X136491261Y-94969815D01*
X136469674Y-94940870D01*
X136457808Y-94922651D01*
X136456229Y-94918508D01*
X136458907Y-94903432D01*
X136465799Y-94876033D01*
X136475190Y-94842213D01*
X136485365Y-94807871D01*
X136494608Y-94778911D01*
X136501206Y-94761231D01*
X136502671Y-94758690D01*
X136511437Y-94762755D01*
X136530275Y-94777674D01*
X136553636Y-94798848D01*
X136576806Y-94819726D01*
X136587652Y-94826645D01*
X136585549Y-94819214D01*
X136584996Y-94818301D01*
X136570959Y-94793895D01*
X136553691Y-94761840D01*
X136546879Y-94748666D01*
X136533178Y-94722914D01*
X136524776Y-94712914D01*
X136518160Y-94716376D01*
X136512396Y-94726170D01*
X136506993Y-94734384D01*
X136500169Y-94737199D01*
X136489343Y-94733001D01*
X136471935Y-94720177D01*
X136445365Y-94697111D01*
X136407050Y-94662192D01*
X136400609Y-94656271D01*
X136286978Y-94552673D01*
X136185747Y-94462322D01*
X136095421Y-94383970D01*
X136014504Y-94316370D01*
X135941500Y-94258275D01*
X135874913Y-94208437D01*
X135813249Y-94165609D01*
X135808679Y-94162577D01*
X135726948Y-94111970D01*
X135657011Y-94075945D01*
X135599216Y-94054626D01*
X135553910Y-94048137D01*
X135521441Y-94056601D01*
X135517533Y-94059296D01*
X135506816Y-94068683D01*
X135508811Y-94073267D01*
X135526427Y-94074836D01*
X135543176Y-94075057D01*
X135587935Y-94081695D01*
X135632343Y-94102938D01*
X135634321Y-94104182D01*
X135669485Y-94129027D01*
X135715028Y-94164953D01*
X135767251Y-94208724D01*
X135822452Y-94257107D01*
X135876933Y-94306865D01*
X135926991Y-94354764D01*
X135964292Y-94392646D01*
X135995271Y-94425668D01*
X136034514Y-94468004D01*
X136079963Y-94517385D01*
X136129556Y-94571541D01*
X136181235Y-94628203D01*
X136232938Y-94685101D01*
X136282606Y-94739966D01*
X136328179Y-94790528D01*
X136367597Y-94834518D01*
X136398800Y-94869666D01*
X136419728Y-94893702D01*
X136426593Y-94901970D01*
X136448721Y-94930101D01*
X136421567Y-95052403D01*
X136399261Y-95158631D01*
X136381917Y-95255850D01*
X136368879Y-95349735D01*
X136359490Y-95445962D01*
X136353093Y-95550207D01*
X136349033Y-95668146D01*
X136348691Y-95682675D01*
X136347432Y-95845888D01*
X136351807Y-95994876D01*
X136362336Y-96134830D01*
X136379539Y-96270942D01*
X136403936Y-96408404D01*
X136435716Y-96551041D01*
X136505211Y-96795762D01*
X136593067Y-97033227D01*
X136698577Y-97262470D01*
X136821032Y-97482526D01*
X136959727Y-97692433D01*
X137113955Y-97891224D01*
X137283008Y-98077935D01*
X137466179Y-98251601D01*
X137662761Y-98411259D01*
X137872047Y-98555943D01*
X137933095Y-98593801D01*
X138141444Y-98709464D01*
X138359391Y-98810640D01*
X138583596Y-98896073D01*
X138810721Y-98964505D01*
X139037425Y-99014676D01*
X139061486Y-99018905D01*
X139114261Y-99029648D01*
X139148313Y-99040727D01*
X139164738Y-99052210D01*
X139173845Y-99065197D01*
X139192607Y-99092248D01*
X139219307Y-99130878D01*
X139252229Y-99178602D01*
X139289656Y-99232934D01*
X139319187Y-99275850D01*
X139429362Y-99432266D01*
X139533006Y-99571379D01*
X139631249Y-99694447D01*
X139725221Y-99802726D01*
X139816053Y-99897474D01*
X139904875Y-99979947D01*
X139992818Y-100051404D01*
X140059188Y-100098730D01*
X140117682Y-100134445D01*
X140185022Y-100169842D01*
X140254819Y-100201965D01*
X140320685Y-100227856D01*
X140372157Y-100243591D01*
X140454488Y-100258208D01*
X140543579Y-100264709D01*
X140630677Y-100262792D01*
X140694848Y-100254657D01*
X140813821Y-100221910D01*
X140927845Y-100169740D01*
X141036766Y-100098223D01*
X141074470Y-100067949D01*
X141103573Y-100045286D01*
X141127262Y-100033522D01*
X141154195Y-100029231D01*
X141173338Y-100028815D01*
X141307879Y-100020929D01*
X141444396Y-99998158D01*
X141476863Y-99989346D01*
X140734916Y-99989346D01*
X140721017Y-99998064D01*
X140707968Y-100002139D01*
X140688926Y-100004330D01*
X140655990Y-100005403D01*
X140615323Y-100005200D01*
X140602553Y-100004867D01*
X140543989Y-100000639D01*
X140495665Y-99990911D01*
X140454181Y-99976401D01*
X140386318Y-99945416D01*
X140325586Y-99909932D01*
X140266569Y-99866231D01*
X140203854Y-99810593D01*
X140181620Y-99789172D01*
X140148809Y-99756486D01*
X140124422Y-99731051D01*
X140110264Y-99714852D01*
X140108144Y-99709874D01*
X140110616Y-99711173D01*
X140214384Y-99775621D01*
X140304045Y-99827015D01*
X140380363Y-99865793D01*
X140384016Y-99867489D01*
X140437893Y-99890581D01*
X140499598Y-99914180D01*
X140563549Y-99936408D01*
X140624165Y-99955389D01*
X140675864Y-99969245D01*
X140703073Y-99974782D01*
X140728898Y-99981379D01*
X140734916Y-99989346D01*
X141476863Y-99989346D01*
X141578263Y-99961825D01*
X141704856Y-99913258D01*
X141819547Y-99853782D01*
X141849437Y-99835001D01*
X141884009Y-99814886D01*
X141917990Y-99799252D01*
X141937810Y-99792995D01*
X141963951Y-99785229D01*
X142000692Y-99771201D01*
X142040726Y-99753733D01*
X142046565Y-99750989D01*
X142126877Y-99701914D01*
X142127007Y-99701792D01*
X141149331Y-99701792D01*
X141146001Y-99709751D01*
X141136616Y-99720513D01*
X141134402Y-99722871D01*
X141121842Y-99735256D01*
X141109360Y-99742914D01*
X141093073Y-99745960D01*
X141069100Y-99744512D01*
X141033557Y-99738688D01*
X140982562Y-99728604D01*
X140977630Y-99727603D01*
X140936604Y-99718455D01*
X140889602Y-99706687D01*
X140840259Y-99693374D01*
X140792207Y-99679590D01*
X140749081Y-99666410D01*
X140714515Y-99654909D01*
X140692141Y-99646161D01*
X140685594Y-99641241D01*
X140685602Y-99641234D01*
X140696460Y-99641192D01*
X140722269Y-99644240D01*
X140758243Y-99649770D01*
X140773565Y-99652392D01*
X140817364Y-99659056D01*
X140873827Y-99666162D01*
X140935583Y-99672848D01*
X140993747Y-99678133D01*
X141055583Y-99683179D01*
X141099733Y-99687329D01*
X141128523Y-99691320D01*
X141144281Y-99695895D01*
X141149331Y-99701792D01*
X142127007Y-99701792D01*
X142196513Y-99636567D01*
X142254803Y-99556088D01*
X142301072Y-99461614D01*
X142334651Y-99354284D01*
X142354866Y-99235236D01*
X142355683Y-99227307D01*
X142362747Y-99184136D01*
X142375153Y-99132945D01*
X142390340Y-99084170D01*
X142391821Y-99080079D01*
X142431118Y-98959128D01*
X142436174Y-98939526D01*
X142240536Y-98939526D01*
X142236156Y-99011336D01*
X142231719Y-99055065D01*
X142222683Y-99090917D01*
X142206158Y-99128429D01*
X142193574Y-99151889D01*
X142108145Y-99290070D01*
X142015391Y-99410106D01*
X141914675Y-99512786D01*
X141872553Y-99548741D01*
X141812316Y-99597540D01*
X141747059Y-99591318D01*
X141713067Y-99587561D01*
X141687987Y-99583824D01*
X141677619Y-99581065D01*
X141675468Y-99578362D01*
X141677384Y-99574798D01*
X141686524Y-99568137D01*
X141706042Y-99556146D01*
X141739097Y-99536588D01*
X141747059Y-99531897D01*
X141856784Y-99457962D01*
X141955309Y-99371508D01*
X142044237Y-99270746D01*
X142125172Y-99153886D01*
X142190634Y-99037142D01*
X142240536Y-98939526D01*
X142436174Y-98939526D01*
X142466832Y-98820671D01*
X142498481Y-98667038D01*
X142525582Y-98500562D01*
X142546729Y-98332135D01*
X142551342Y-98279569D01*
X142555212Y-98215612D01*
X142558319Y-98143310D01*
X142560640Y-98065708D01*
X142562155Y-97985852D01*
X142562842Y-97906788D01*
X142562680Y-97831562D01*
X142561648Y-97763219D01*
X142559724Y-97704806D01*
X142556887Y-97659367D01*
X142553115Y-97629949D01*
X142551686Y-97624348D01*
X142546152Y-97609161D01*
X142543077Y-97608391D01*
X142541598Y-97624069D01*
X142540987Y-97649447D01*
X142537728Y-97729211D01*
X142530703Y-97823932D01*
X142520506Y-97928968D01*
X142507730Y-98039675D01*
X142492970Y-98151411D01*
X142476819Y-98259534D01*
X142459871Y-98359399D01*
X142442719Y-98446365D01*
X142434415Y-98482886D01*
X142419075Y-98544030D01*
X142402817Y-98604333D01*
X142386569Y-98660813D01*
X142371258Y-98710483D01*
X142357815Y-98750360D01*
X142347167Y-98777459D01*
X142340244Y-98788795D01*
X142339222Y-98788829D01*
X142330001Y-98772577D01*
X142325391Y-98740652D01*
X142325386Y-98696920D01*
X142329979Y-98645250D01*
X142339162Y-98589507D01*
X142339608Y-98587326D01*
X142354151Y-98512500D01*
X142365968Y-98440880D01*
X142375340Y-98369058D01*
X142382545Y-98293627D01*
X142387863Y-98211177D01*
X142391574Y-98118301D01*
X142393958Y-98011588D01*
X142395125Y-97910475D01*
X142396690Y-97714956D01*
X142338900Y-97714956D01*
X142337935Y-97753967D01*
X142335944Y-97802540D01*
X142333100Y-97857191D01*
X142329577Y-97914434D01*
X142325552Y-97970784D01*
X142321198Y-98022755D01*
X142318433Y-98051028D01*
X142312856Y-98098152D01*
X142305446Y-98152187D01*
X142296862Y-98209193D01*
X142287763Y-98265228D01*
X142278809Y-98316349D01*
X142270659Y-98358616D01*
X142263971Y-98388086D01*
X142260106Y-98399820D01*
X142254685Y-98395742D01*
X142244743Y-98375633D01*
X142231636Y-98342660D01*
X142216724Y-98299990D01*
X142214890Y-98294405D01*
X142192303Y-98227050D01*
X142172105Y-98170489D01*
X142155059Y-98126646D01*
X142141930Y-98097443D01*
X142133481Y-98084805D01*
X142131614Y-98084786D01*
X142131952Y-98095656D01*
X142135951Y-98122247D01*
X142142949Y-98160672D01*
X142152283Y-98207042D01*
X142153223Y-98211514D01*
X142166042Y-98274810D01*
X142179695Y-98346433D01*
X142192196Y-98415785D01*
X142198628Y-98453791D01*
X142218173Y-98573591D01*
X142187665Y-98661183D01*
X142162137Y-98728352D01*
X142130570Y-98802006D01*
X142095624Y-98876616D01*
X142059955Y-98946649D01*
X142026223Y-99006572D01*
X142007391Y-99036304D01*
X141959517Y-99099710D01*
X141901419Y-99165028D01*
X141839187Y-99225937D01*
X141778906Y-99276117D01*
X141770554Y-99282224D01*
X141740169Y-99302204D01*
X141702751Y-99324218D01*
X141662310Y-99346237D01*
X141622856Y-99366235D01*
X141588397Y-99382183D01*
X141562945Y-99392054D01*
X141550507Y-99393821D01*
X141550263Y-99393626D01*
X141552111Y-99383188D01*
X141560792Y-99359359D01*
X141574540Y-99326890D01*
X141577595Y-99320103D01*
X141607235Y-99251892D01*
X141640578Y-99170243D01*
X141675441Y-99080917D01*
X141709641Y-98989672D01*
X141740994Y-98902268D01*
X141767320Y-98824465D01*
X141776995Y-98793953D01*
X141793726Y-98738029D01*
X141811778Y-98674822D01*
X141830338Y-98607489D01*
X141848594Y-98539185D01*
X141865734Y-98473066D01*
X141880945Y-98412286D01*
X141893415Y-98360002D01*
X141902331Y-98319370D01*
X141906882Y-98293544D01*
X141907295Y-98287821D01*
X141903634Y-98291668D01*
X141893424Y-98312189D01*
X141877526Y-98347399D01*
X141856804Y-98395311D01*
X141832121Y-98453941D01*
X141804341Y-98521301D01*
X141783312Y-98573083D01*
X141739224Y-98681436D01*
X141700460Y-98774463D01*
X141665384Y-98855671D01*
X141632357Y-98928567D01*
X141599743Y-98996659D01*
X141565904Y-99063454D01*
X141529203Y-99132459D01*
X141488001Y-99207181D01*
X141483550Y-99215140D01*
X141443507Y-99286135D01*
X141411567Y-99341301D01*
X141386403Y-99382534D01*
X141366687Y-99411731D01*
X141351092Y-99430788D01*
X141338290Y-99441604D01*
X141326953Y-99446074D01*
X141321603Y-99446522D01*
X141303407Y-99441174D01*
X141273425Y-99426741D01*
X141236331Y-99405636D01*
X141208449Y-99388063D01*
X141167526Y-99359906D01*
X141116844Y-99323100D01*
X141062065Y-99281858D01*
X141008852Y-99240393D01*
X140994011Y-99228516D01*
X140984388Y-99220633D01*
X140401762Y-99220633D01*
X140396743Y-99225653D01*
X140391723Y-99220633D01*
X140396743Y-99215613D01*
X140401762Y-99220633D01*
X140984388Y-99220633D01*
X140974026Y-99212145D01*
X140381683Y-99212145D01*
X140374009Y-99210243D01*
X140351069Y-99195534D01*
X140312989Y-99168106D01*
X140259893Y-99128046D01*
X140232967Y-99107337D01*
X140199157Y-99080481D01*
X140172852Y-99058167D01*
X140157142Y-99043107D01*
X140154206Y-99038163D01*
X140163049Y-99042416D01*
X140184076Y-99056606D01*
X140213823Y-99078082D01*
X140248829Y-99104196D01*
X140285630Y-99132300D01*
X140320764Y-99159746D01*
X140350768Y-99183885D01*
X140372178Y-99202068D01*
X140381533Y-99211647D01*
X140381683Y-99212145D01*
X140974026Y-99212145D01*
X140950799Y-99193119D01*
X140903355Y-99153302D01*
X140853978Y-99111099D01*
X140804967Y-99068547D01*
X140758621Y-99027681D01*
X140717237Y-98990537D01*
X140683116Y-98959151D01*
X140658556Y-98935558D01*
X140645855Y-98921794D01*
X140644707Y-98919191D01*
X140654749Y-98914791D01*
X140679918Y-98904955D01*
X140716470Y-98891119D01*
X140760663Y-98874716D01*
X140762921Y-98873885D01*
X140996754Y-98777659D01*
X141222478Y-98664228D01*
X141438738Y-98534596D01*
X141644178Y-98389764D01*
X141837442Y-98230735D01*
X142017175Y-98058509D01*
X142182021Y-97874090D01*
X142273690Y-97757372D01*
X142299041Y-97724100D01*
X142319950Y-97697929D01*
X142333564Y-97682361D01*
X142337048Y-97679566D01*
X142338662Y-97688994D01*
X142338900Y-97714956D01*
X142396690Y-97714956D01*
X142397737Y-97584190D01*
X142464863Y-97473755D01*
X142587386Y-97253020D01*
X142691994Y-97023400D01*
X142778726Y-96784785D01*
X142847617Y-96537064D01*
X142898705Y-96280124D01*
X142922926Y-96103360D01*
X142927606Y-96047450D01*
X142931077Y-95976085D01*
X142933338Y-95893853D01*
X142934389Y-95805343D01*
X142934230Y-95715142D01*
X142932861Y-95627838D01*
X142930282Y-95548019D01*
X142926493Y-95480274D01*
X142922926Y-95440751D01*
X142883531Y-95177095D01*
X142826070Y-94922193D01*
X142750524Y-94676003D01*
X142656874Y-94438476D01*
X142545103Y-94209568D01*
X142415190Y-93989234D01*
X142267118Y-93777427D01*
X142209889Y-93703913D01*
X142158779Y-93643023D01*
X142096521Y-93573573D01*
X142027338Y-93499922D01*
X141955452Y-93426432D01*
X141885085Y-93357463D01*
X141820460Y-93297376D01*
X141792237Y-93272556D01*
X141590321Y-93112277D01*
X141378021Y-92969032D01*
X141156097Y-92843151D01*
X140925311Y-92734966D01*
X140686425Y-92644810D01*
X140440200Y-92573014D01*
X140187398Y-92519910D01*
X140005201Y-92493835D01*
X139930488Y-92487075D01*
X139841430Y-92482082D01*
X139743239Y-92478896D01*
X139641126Y-92477557D01*
X139540303Y-92478107D01*
X139445981Y-92480584D01*
X139363372Y-92485030D01*
X139322513Y-92488564D01*
X139062519Y-92524969D01*
X138810606Y-92579731D01*
X138566561Y-92652937D01*
X138330170Y-92744676D01*
X138101218Y-92855037D01*
X137879492Y-92984107D01*
X137664778Y-93131976D01*
X137550537Y-93220589D01*
X137506715Y-93257702D01*
X137454445Y-93304734D01*
X137396774Y-93358680D01*
X137336749Y-93416536D01*
X137277416Y-93475294D01*
X137221821Y-93531951D01*
X137173011Y-93583500D01*
X137134032Y-93626936D01*
X137113818Y-93651431D01*
X137092578Y-93677891D01*
X137076245Y-93696627D01*
X137068640Y-93703399D01*
X137063087Y-93694841D01*
X137049652Y-93670423D01*
X137029430Y-93632244D01*
X137003516Y-93582406D01*
X136973003Y-93523006D01*
X136938989Y-93456147D01*
X136915752Y-93410146D01*
X136843706Y-93268593D01*
X136774417Y-93135358D01*
X136708486Y-93011480D01*
X136646513Y-92897997D01*
X136589099Y-92795948D01*
X136536843Y-92706372D01*
X136490346Y-92630308D01*
X136450209Y-92568795D01*
X136417031Y-92522872D01*
X136391414Y-92493578D01*
X136381332Y-92485296D01*
X136363898Y-92474953D01*
X136357646Y-92475025D01*
X136357646Y-92475025D01*
G37*
X136357646Y-92475025D02*
X136362903Y-92487126D01*
X136380000Y-92512867D01*
X136389810Y-92526756D01*
X136408160Y-92553842D01*
X136426139Y-92583573D01*
X136444875Y-92618325D01*
X136465497Y-92660477D01*
X136489132Y-92712406D01*
X136516909Y-92776489D01*
X136549957Y-92855105D01*
X136579378Y-92926244D01*
X136604400Y-92987670D01*
X136635260Y-93064444D01*
X136670621Y-93153161D01*
X136709145Y-93250415D01*
X136749494Y-93352801D01*
X136790330Y-93456915D01*
X136830314Y-93559352D01*
X136868109Y-93656706D01*
X136902377Y-93745572D01*
X136931780Y-93822545D01*
X136937631Y-93837988D01*
X136948468Y-93866648D01*
X137004780Y-93789539D01*
X137029678Y-93757301D01*
X137050702Y-93733500D01*
X137064943Y-93721255D01*
X137068994Y-93720721D01*
X137074612Y-93730970D01*
X137088192Y-93757788D01*
X137108987Y-93799649D01*
X137136251Y-93855028D01*
X137169239Y-93922401D01*
X137207204Y-94000243D01*
X137249401Y-94087029D01*
X137295083Y-94181233D01*
X137343505Y-94281332D01*
X137362828Y-94321344D01*
X137474079Y-94551675D01*
X137577313Y-94765119D01*
X137673140Y-94962925D01*
X137762169Y-95146337D01*
X137845010Y-95316603D01*
X137922273Y-95474968D01*
X137994566Y-95622678D01*
X138062500Y-95760980D01*
X138126684Y-95891120D01*
X138187727Y-96014344D01*
X138246239Y-96131899D01*
X138302830Y-96245030D01*
X138335042Y-96309170D01*
X138378701Y-96396492D01*
X138415982Y-96471559D01*
X138448210Y-96536093D01*
X138476713Y-96591820D01*
X138502815Y-96640462D01*
X138527842Y-96683744D01*
X138553121Y-96723388D01*
X138579978Y-96761118D01*
X138609737Y-96798659D01*
X138643726Y-96837733D01*
X138683270Y-96880065D01*
X138729695Y-96927378D01*
X138784326Y-96981396D01*
X138848490Y-97043842D01*
X138923513Y-97116440D01*
X139010720Y-97200913D01*
X139051446Y-97240491D01*
X139124905Y-97312369D01*
X139196772Y-97383443D01*
X139265174Y-97451806D01*
X139328234Y-97515553D01*
X139384077Y-97572777D01*
X139430829Y-97621572D01*
X139466614Y-97660031D01*
X139487443Y-97683693D01*
X139544094Y-97750302D01*
X139612788Y-97829063D01*
X139691518Y-97917789D01*
X139778275Y-98014292D01*
X139871048Y-98116383D01*
X139967830Y-98221873D01*
X140066610Y-98328576D01*
X140165380Y-98434303D01*
X140262131Y-98536865D01*
X140354854Y-98634074D01*
X140441539Y-98723743D01*
X140455723Y-98738276D01*
X140503697Y-98787495D01*
X140546532Y-98831708D01*
X140582376Y-98868984D01*
X140609379Y-98897390D01*
X140625689Y-98914992D01*
X140629784Y-98920010D01*
X140617444Y-98924406D01*
X140589486Y-98932450D01*
X140549823Y-98943143D01*
X140502373Y-98955487D01*
X140451049Y-98968484D01*
X140399768Y-98981137D01*
X140352444Y-98992446D01*
X140312993Y-99001415D01*
X140297752Y-99004646D01*
X140233275Y-99016804D01*
X140186416Y-99023207D01*
X140155594Y-99023973D01*
X140139227Y-99019219D01*
X140136803Y-99016583D01*
X140127211Y-99007119D01*
X140105508Y-98988312D01*
X140075335Y-98963264D01*
X140053384Y-98945490D01*
X139975083Y-98882677D01*
X140133543Y-99032133D01*
X140099491Y-99038227D01*
X140039134Y-99046957D01*
X139966792Y-99054029D01*
X139885206Y-99059462D01*
X139797118Y-99063277D01*
X139705267Y-99065494D01*
X139612396Y-99066133D01*
X139521244Y-99065214D01*
X139434554Y-99062757D01*
X139355066Y-99058782D01*
X139285521Y-99053310D01*
X139228661Y-99046359D01*
X139187226Y-99037951D01*
X139169273Y-99031418D01*
X139157793Y-99019573D01*
X139137475Y-98992044D01*
X139109400Y-98950607D01*
X139074653Y-98897034D01*
X139034315Y-98833098D01*
X138989469Y-98760575D01*
X138941198Y-98681236D01*
X138890584Y-98596857D01*
X138838710Y-98509210D01*
X138786660Y-98420069D01*
X138735514Y-98331208D01*
X138686357Y-98244401D01*
X138659687Y-98196601D01*
X138617366Y-98121587D01*
X138571914Y-98043270D01*
X138525979Y-97966062D01*
X138482212Y-97894374D01*
X138443262Y-97832618D01*
X138418498Y-97795020D01*
X138381447Y-97738446D01*
X138338418Y-97669712D01*
X138292798Y-97594417D01*
X138247975Y-97518161D01*
X138207337Y-97446546D01*
X138203271Y-97439199D01*
X138153378Y-97351052D01*
X138104314Y-97269585D01*
X138052552Y-97189318D01*
X137994562Y-97104778D01*
X137928299Y-97012519D01*
X137786403Y-96814263D01*
X137652315Y-96618387D01*
X137522918Y-96420061D01*
X137395096Y-96214452D01*
X137265731Y-95996732D01*
X137205617Y-95892530D01*
X137169546Y-95830546D01*
X137136721Y-95777042D01*
X137104185Y-95727826D01*
X137068979Y-95678706D01*
X137028143Y-95625488D01*
X136978720Y-95563981D01*
X136943477Y-95521068D01*
X136894836Y-95462066D01*
X136846454Y-95403214D01*
X136801073Y-95347860D01*
X136761438Y-95299355D01*
X136730291Y-95261046D01*
X136717326Y-95244981D01*
X136686124Y-95206543D01*
X136646619Y-95158481D01*
X136603504Y-95106473D01*
X136561472Y-95056201D01*
X136554523Y-95047940D01*
X136520300Y-95006501D01*
X136491261Y-94969815D01*
X136469674Y-94940870D01*
X136457808Y-94922651D01*
X136456229Y-94918508D01*
X136458907Y-94903432D01*
X136465799Y-94876033D01*
X136475190Y-94842213D01*
X136485365Y-94807871D01*
X136494608Y-94778911D01*
X136501206Y-94761231D01*
X136502671Y-94758690D01*
X136511437Y-94762755D01*
X136530275Y-94777674D01*
X136553636Y-94798848D01*
X136576806Y-94819726D01*
X136587652Y-94826645D01*
X136585549Y-94819214D01*
X136584996Y-94818301D01*
X136570959Y-94793895D01*
X136553691Y-94761840D01*
X136546879Y-94748666D01*
X136533178Y-94722914D01*
X136524776Y-94712914D01*
X136518160Y-94716376D01*
X136512396Y-94726170D01*
X136506993Y-94734384D01*
X136500169Y-94737199D01*
X136489343Y-94733001D01*
X136471935Y-94720177D01*
X136445365Y-94697111D01*
X136407050Y-94662192D01*
X136400609Y-94656271D01*
X136286978Y-94552673D01*
X136185747Y-94462322D01*
X136095421Y-94383970D01*
X136014504Y-94316370D01*
X135941500Y-94258275D01*
X135874913Y-94208437D01*
X135813249Y-94165609D01*
X135808679Y-94162577D01*
X135726948Y-94111970D01*
X135657011Y-94075945D01*
X135599216Y-94054626D01*
X135553910Y-94048137D01*
X135521441Y-94056601D01*
X135517533Y-94059296D01*
X135506816Y-94068683D01*
X135508811Y-94073267D01*
X135526427Y-94074836D01*
X135543176Y-94075057D01*
X135587935Y-94081695D01*
X135632343Y-94102938D01*
X135634321Y-94104182D01*
X135669485Y-94129027D01*
X135715028Y-94164953D01*
X135767251Y-94208724D01*
X135822452Y-94257107D01*
X135876933Y-94306865D01*
X135926991Y-94354764D01*
X135964292Y-94392646D01*
X135995271Y-94425668D01*
X136034514Y-94468004D01*
X136079963Y-94517385D01*
X136129556Y-94571541D01*
X136181235Y-94628203D01*
X136232938Y-94685101D01*
X136282606Y-94739966D01*
X136328179Y-94790528D01*
X136367597Y-94834518D01*
X136398800Y-94869666D01*
X136419728Y-94893702D01*
X136426593Y-94901970D01*
X136448721Y-94930101D01*
X136421567Y-95052403D01*
X136399261Y-95158631D01*
X136381917Y-95255850D01*
X136368879Y-95349735D01*
X136359490Y-95445962D01*
X136353093Y-95550207D01*
X136349033Y-95668146D01*
X136348691Y-95682675D01*
X136347432Y-95845888D01*
X136351807Y-95994876D01*
X136362336Y-96134830D01*
X136379539Y-96270942D01*
X136403936Y-96408404D01*
X136435716Y-96551041D01*
X136505211Y-96795762D01*
X136593067Y-97033227D01*
X136698577Y-97262470D01*
X136821032Y-97482526D01*
X136959727Y-97692433D01*
X137113955Y-97891224D01*
X137283008Y-98077935D01*
X137466179Y-98251601D01*
X137662761Y-98411259D01*
X137872047Y-98555943D01*
X137933095Y-98593801D01*
X138141444Y-98709464D01*
X138359391Y-98810640D01*
X138583596Y-98896073D01*
X138810721Y-98964505D01*
X139037425Y-99014676D01*
X139061486Y-99018905D01*
X139114261Y-99029648D01*
X139148313Y-99040727D01*
X139164738Y-99052210D01*
X139173845Y-99065197D01*
X139192607Y-99092248D01*
X139219307Y-99130878D01*
X139252229Y-99178602D01*
X139289656Y-99232934D01*
X139319187Y-99275850D01*
X139429362Y-99432266D01*
X139533006Y-99571379D01*
X139631249Y-99694447D01*
X139725221Y-99802726D01*
X139816053Y-99897474D01*
X139904875Y-99979947D01*
X139992818Y-100051404D01*
X140059188Y-100098730D01*
X140117682Y-100134445D01*
X140185022Y-100169842D01*
X140254819Y-100201965D01*
X140320685Y-100227856D01*
X140372157Y-100243591D01*
X140454488Y-100258208D01*
X140543579Y-100264709D01*
X140630677Y-100262792D01*
X140694848Y-100254657D01*
X140813821Y-100221910D01*
X140927845Y-100169740D01*
X141036766Y-100098223D01*
X141074470Y-100067949D01*
X141103573Y-100045286D01*
X141127262Y-100033522D01*
X141154195Y-100029231D01*
X141173338Y-100028815D01*
X141307879Y-100020929D01*
X141444396Y-99998158D01*
X141476863Y-99989346D01*
X140734916Y-99989346D01*
X140721017Y-99998064D01*
X140707968Y-100002139D01*
X140688926Y-100004330D01*
X140655990Y-100005403D01*
X140615323Y-100005200D01*
X140602553Y-100004867D01*
X140543989Y-100000639D01*
X140495665Y-99990911D01*
X140454181Y-99976401D01*
X140386318Y-99945416D01*
X140325586Y-99909932D01*
X140266569Y-99866231D01*
X140203854Y-99810593D01*
X140181620Y-99789172D01*
X140148809Y-99756486D01*
X140124422Y-99731051D01*
X140110264Y-99714852D01*
X140108144Y-99709874D01*
X140110616Y-99711173D01*
X140214384Y-99775621D01*
X140304045Y-99827015D01*
X140380363Y-99865793D01*
X140384016Y-99867489D01*
X140437893Y-99890581D01*
X140499598Y-99914180D01*
X140563549Y-99936408D01*
X140624165Y-99955389D01*
X140675864Y-99969245D01*
X140703073Y-99974782D01*
X140728898Y-99981379D01*
X140734916Y-99989346D01*
X141476863Y-99989346D01*
X141578263Y-99961825D01*
X141704856Y-99913258D01*
X141819547Y-99853782D01*
X141849437Y-99835001D01*
X141884009Y-99814886D01*
X141917990Y-99799252D01*
X141937810Y-99792995D01*
X141963951Y-99785229D01*
X142000692Y-99771201D01*
X142040726Y-99753733D01*
X142046565Y-99750989D01*
X142126877Y-99701914D01*
X142127007Y-99701792D01*
X141149331Y-99701792D01*
X141146001Y-99709751D01*
X141136616Y-99720513D01*
X141134402Y-99722871D01*
X141121842Y-99735256D01*
X141109360Y-99742914D01*
X141093073Y-99745960D01*
X141069100Y-99744512D01*
X141033557Y-99738688D01*
X140982562Y-99728604D01*
X140977630Y-99727603D01*
X140936604Y-99718455D01*
X140889602Y-99706687D01*
X140840259Y-99693374D01*
X140792207Y-99679590D01*
X140749081Y-99666410D01*
X140714515Y-99654909D01*
X140692141Y-99646161D01*
X140685594Y-99641241D01*
X140685602Y-99641234D01*
X140696460Y-99641192D01*
X140722269Y-99644240D01*
X140758243Y-99649770D01*
X140773565Y-99652392D01*
X140817364Y-99659056D01*
X140873827Y-99666162D01*
X140935583Y-99672848D01*
X140993747Y-99678133D01*
X141055583Y-99683179D01*
X141099733Y-99687329D01*
X141128523Y-99691320D01*
X141144281Y-99695895D01*
X141149331Y-99701792D01*
X142127007Y-99701792D01*
X142196513Y-99636567D01*
X142254803Y-99556088D01*
X142301072Y-99461614D01*
X142334651Y-99354284D01*
X142354866Y-99235236D01*
X142355683Y-99227307D01*
X142362747Y-99184136D01*
X142375153Y-99132945D01*
X142390340Y-99084170D01*
X142391821Y-99080079D01*
X142431118Y-98959128D01*
X142436174Y-98939526D01*
X142240536Y-98939526D01*
X142236156Y-99011336D01*
X142231719Y-99055065D01*
X142222683Y-99090917D01*
X142206158Y-99128429D01*
X142193574Y-99151889D01*
X142108145Y-99290070D01*
X142015391Y-99410106D01*
X141914675Y-99512786D01*
X141872553Y-99548741D01*
X141812316Y-99597540D01*
X141747059Y-99591318D01*
X141713067Y-99587561D01*
X141687987Y-99583824D01*
X141677619Y-99581065D01*
X141675468Y-99578362D01*
X141677384Y-99574798D01*
X141686524Y-99568137D01*
X141706042Y-99556146D01*
X141739097Y-99536588D01*
X141747059Y-99531897D01*
X141856784Y-99457962D01*
X141955309Y-99371508D01*
X142044237Y-99270746D01*
X142125172Y-99153886D01*
X142190634Y-99037142D01*
X142240536Y-98939526D01*
X142436174Y-98939526D01*
X142466832Y-98820671D01*
X142498481Y-98667038D01*
X142525582Y-98500562D01*
X142546729Y-98332135D01*
X142551342Y-98279569D01*
X142555212Y-98215612D01*
X142558319Y-98143310D01*
X142560640Y-98065708D01*
X142562155Y-97985852D01*
X142562842Y-97906788D01*
X142562680Y-97831562D01*
X142561648Y-97763219D01*
X142559724Y-97704806D01*
X142556887Y-97659367D01*
X142553115Y-97629949D01*
X142551686Y-97624348D01*
X142546152Y-97609161D01*
X142543077Y-97608391D01*
X142541598Y-97624069D01*
X142540987Y-97649447D01*
X142537728Y-97729211D01*
X142530703Y-97823932D01*
X142520506Y-97928968D01*
X142507730Y-98039675D01*
X142492970Y-98151411D01*
X142476819Y-98259534D01*
X142459871Y-98359399D01*
X142442719Y-98446365D01*
X142434415Y-98482886D01*
X142419075Y-98544030D01*
X142402817Y-98604333D01*
X142386569Y-98660813D01*
X142371258Y-98710483D01*
X142357815Y-98750360D01*
X142347167Y-98777459D01*
X142340244Y-98788795D01*
X142339222Y-98788829D01*
X142330001Y-98772577D01*
X142325391Y-98740652D01*
X142325386Y-98696920D01*
X142329979Y-98645250D01*
X142339162Y-98589507D01*
X142339608Y-98587326D01*
X142354151Y-98512500D01*
X142365968Y-98440880D01*
X142375340Y-98369058D01*
X142382545Y-98293627D01*
X142387863Y-98211177D01*
X142391574Y-98118301D01*
X142393958Y-98011588D01*
X142395125Y-97910475D01*
X142396690Y-97714956D01*
X142338900Y-97714956D01*
X142337935Y-97753967D01*
X142335944Y-97802540D01*
X142333100Y-97857191D01*
X142329577Y-97914434D01*
X142325552Y-97970784D01*
X142321198Y-98022755D01*
X142318433Y-98051028D01*
X142312856Y-98098152D01*
X142305446Y-98152187D01*
X142296862Y-98209193D01*
X142287763Y-98265228D01*
X142278809Y-98316349D01*
X142270659Y-98358616D01*
X142263971Y-98388086D01*
X142260106Y-98399820D01*
X142254685Y-98395742D01*
X142244743Y-98375633D01*
X142231636Y-98342660D01*
X142216724Y-98299990D01*
X142214890Y-98294405D01*
X142192303Y-98227050D01*
X142172105Y-98170489D01*
X142155059Y-98126646D01*
X142141930Y-98097443D01*
X142133481Y-98084805D01*
X142131614Y-98084786D01*
X142131952Y-98095656D01*
X142135951Y-98122247D01*
X142142949Y-98160672D01*
X142152283Y-98207042D01*
X142153223Y-98211514D01*
X142166042Y-98274810D01*
X142179695Y-98346433D01*
X142192196Y-98415785D01*
X142198628Y-98453791D01*
X142218173Y-98573591D01*
X142187665Y-98661183D01*
X142162137Y-98728352D01*
X142130570Y-98802006D01*
X142095624Y-98876616D01*
X142059955Y-98946649D01*
X142026223Y-99006572D01*
X142007391Y-99036304D01*
X141959517Y-99099710D01*
X141901419Y-99165028D01*
X141839187Y-99225937D01*
X141778906Y-99276117D01*
X141770554Y-99282224D01*
X141740169Y-99302204D01*
X141702751Y-99324218D01*
X141662310Y-99346237D01*
X141622856Y-99366235D01*
X141588397Y-99382183D01*
X141562945Y-99392054D01*
X141550507Y-99393821D01*
X141550263Y-99393626D01*
X141552111Y-99383188D01*
X141560792Y-99359359D01*
X141574540Y-99326890D01*
X141577595Y-99320103D01*
X141607235Y-99251892D01*
X141640578Y-99170243D01*
X141675441Y-99080917D01*
X141709641Y-98989672D01*
X141740994Y-98902268D01*
X141767320Y-98824465D01*
X141776995Y-98793953D01*
X141793726Y-98738029D01*
X141811778Y-98674822D01*
X141830338Y-98607489D01*
X141848594Y-98539185D01*
X141865734Y-98473066D01*
X141880945Y-98412286D01*
X141893415Y-98360002D01*
X141902331Y-98319370D01*
X141906882Y-98293544D01*
X141907295Y-98287821D01*
X141903634Y-98291668D01*
X141893424Y-98312189D01*
X141877526Y-98347399D01*
X141856804Y-98395311D01*
X141832121Y-98453941D01*
X141804341Y-98521301D01*
X141783312Y-98573083D01*
X141739224Y-98681436D01*
X141700460Y-98774463D01*
X141665384Y-98855671D01*
X141632357Y-98928567D01*
X141599743Y-98996659D01*
X141565904Y-99063454D01*
X141529203Y-99132459D01*
X141488001Y-99207181D01*
X141483550Y-99215140D01*
X141443507Y-99286135D01*
X141411567Y-99341301D01*
X141386403Y-99382534D01*
X141366687Y-99411731D01*
X141351092Y-99430788D01*
X141338290Y-99441604D01*
X141326953Y-99446074D01*
X141321603Y-99446522D01*
X141303407Y-99441174D01*
X141273425Y-99426741D01*
X141236331Y-99405636D01*
X141208449Y-99388063D01*
X141167526Y-99359906D01*
X141116844Y-99323100D01*
X141062065Y-99281858D01*
X141008852Y-99240393D01*
X140994011Y-99228516D01*
X140984388Y-99220633D01*
X140401762Y-99220633D01*
X140396743Y-99225653D01*
X140391723Y-99220633D01*
X140396743Y-99215613D01*
X140401762Y-99220633D01*
X140984388Y-99220633D01*
X140974026Y-99212145D01*
X140381683Y-99212145D01*
X140374009Y-99210243D01*
X140351069Y-99195534D01*
X140312989Y-99168106D01*
X140259893Y-99128046D01*
X140232967Y-99107337D01*
X140199157Y-99080481D01*
X140172852Y-99058167D01*
X140157142Y-99043107D01*
X140154206Y-99038163D01*
X140163049Y-99042416D01*
X140184076Y-99056606D01*
X140213823Y-99078082D01*
X140248829Y-99104196D01*
X140285630Y-99132300D01*
X140320764Y-99159746D01*
X140350768Y-99183885D01*
X140372178Y-99202068D01*
X140381533Y-99211647D01*
X140381683Y-99212145D01*
X140974026Y-99212145D01*
X140950799Y-99193119D01*
X140903355Y-99153302D01*
X140853978Y-99111099D01*
X140804967Y-99068547D01*
X140758621Y-99027681D01*
X140717237Y-98990537D01*
X140683116Y-98959151D01*
X140658556Y-98935558D01*
X140645855Y-98921794D01*
X140644707Y-98919191D01*
X140654749Y-98914791D01*
X140679918Y-98904955D01*
X140716470Y-98891119D01*
X140760663Y-98874716D01*
X140762921Y-98873885D01*
X140996754Y-98777659D01*
X141222478Y-98664228D01*
X141438738Y-98534596D01*
X141644178Y-98389764D01*
X141837442Y-98230735D01*
X142017175Y-98058509D01*
X142182021Y-97874090D01*
X142273690Y-97757372D01*
X142299041Y-97724100D01*
X142319950Y-97697929D01*
X142333564Y-97682361D01*
X142337048Y-97679566D01*
X142338662Y-97688994D01*
X142338900Y-97714956D01*
X142396690Y-97714956D01*
X142397737Y-97584190D01*
X142464863Y-97473755D01*
X142587386Y-97253020D01*
X142691994Y-97023400D01*
X142778726Y-96784785D01*
X142847617Y-96537064D01*
X142898705Y-96280124D01*
X142922926Y-96103360D01*
X142927606Y-96047450D01*
X142931077Y-95976085D01*
X142933338Y-95893853D01*
X142934389Y-95805343D01*
X142934230Y-95715142D01*
X142932861Y-95627838D01*
X142930282Y-95548019D01*
X142926493Y-95480274D01*
X142922926Y-95440751D01*
X142883531Y-95177095D01*
X142826070Y-94922193D01*
X142750524Y-94676003D01*
X142656874Y-94438476D01*
X142545103Y-94209568D01*
X142415190Y-93989234D01*
X142267118Y-93777427D01*
X142209889Y-93703913D01*
X142158779Y-93643023D01*
X142096521Y-93573573D01*
X142027338Y-93499922D01*
X141955452Y-93426432D01*
X141885085Y-93357463D01*
X141820460Y-93297376D01*
X141792237Y-93272556D01*
X141590321Y-93112277D01*
X141378021Y-92969032D01*
X141156097Y-92843151D01*
X140925311Y-92734966D01*
X140686425Y-92644810D01*
X140440200Y-92573014D01*
X140187398Y-92519910D01*
X140005201Y-92493835D01*
X139930488Y-92487075D01*
X139841430Y-92482082D01*
X139743239Y-92478896D01*
X139641126Y-92477557D01*
X139540303Y-92478107D01*
X139445981Y-92480584D01*
X139363372Y-92485030D01*
X139322513Y-92488564D01*
X139062519Y-92524969D01*
X138810606Y-92579731D01*
X138566561Y-92652937D01*
X138330170Y-92744676D01*
X138101218Y-92855037D01*
X137879492Y-92984107D01*
X137664778Y-93131976D01*
X137550537Y-93220589D01*
X137506715Y-93257702D01*
X137454445Y-93304734D01*
X137396774Y-93358680D01*
X137336749Y-93416536D01*
X137277416Y-93475294D01*
X137221821Y-93531951D01*
X137173011Y-93583500D01*
X137134032Y-93626936D01*
X137113818Y-93651431D01*
X137092578Y-93677891D01*
X137076245Y-93696627D01*
X137068640Y-93703399D01*
X137063087Y-93694841D01*
X137049652Y-93670423D01*
X137029430Y-93632244D01*
X137003516Y-93582406D01*
X136973003Y-93523006D01*
X136938989Y-93456147D01*
X136915752Y-93410146D01*
X136843706Y-93268593D01*
X136774417Y-93135358D01*
X136708486Y-93011480D01*
X136646513Y-92897997D01*
X136589099Y-92795948D01*
X136536843Y-92706372D01*
X136490346Y-92630308D01*
X136450209Y-92568795D01*
X136417031Y-92522872D01*
X136391414Y-92493578D01*
X136381332Y-92485296D01*
X136363898Y-92474953D01*
X136357646Y-92475025D01*
G04 #@! TD*
M02*
