G04 #@! TF.GenerationSoftware,KiCad,Pcbnew,(5.0.2)-1*
G04 #@! TF.CreationDate,2019-03-03T18:02:18-06:00*
G04 #@! TF.ProjectId,IMUBreakout_Hardware,494d5542-7265-4616-9b6f-75745f486172,rev?*
G04 #@! TF.SameCoordinates,Original*
G04 #@! TF.FileFunction,Copper,L2,Bot*
G04 #@! TF.FilePolarity,Positive*
%FSLAX46Y46*%
G04 Gerber Fmt 4.6, Leading zero omitted, Abs format (unit mm)*
G04 Created by KiCad (PCBNEW (5.0.2)-1) date 3/3/2019 6:02:18 PM*
%MOMM*%
%LPD*%
G01*
G04 APERTURE LIST*
G04 #@! TA.AperFunction,ComponentPad*
%ADD10C,2.032000*%
G04 #@! TD*
G04 #@! TA.AperFunction,ComponentPad*
%ADD11C,1.524000*%
G04 #@! TD*
G04 #@! TA.AperFunction,ViaPad*
%ADD12C,0.800000*%
G04 #@! TD*
G04 #@! TA.AperFunction,Conductor*
%ADD13C,0.381000*%
G04 #@! TD*
G04 #@! TA.AperFunction,Conductor*
%ADD14C,0.254000*%
G04 #@! TD*
G04 APERTURE END LIST*
D10*
G04 #@! TO.P,U1,12*
G04 #@! TO.N,Net-(U1-Pad12)*
X176017999Y-69036001D03*
G04 #@! TO.P,U1,11*
G04 #@! TO.N,Net-(U1-Pad11)*
X176017999Y-71576001D03*
G04 #@! TO.P,U1,10*
G04 #@! TO.N,Net-(U1-Pad10)*
X176017999Y-74116001D03*
G04 #@! TO.P,U1,9*
G04 #@! TO.N,Net-(U1-Pad9)*
X176017999Y-76656001D03*
G04 #@! TO.P,U1,8*
G04 #@! TO.N,TX*
X176017999Y-79196001D03*
G04 #@! TO.P,U1,7*
G04 #@! TO.N,RX*
X176017999Y-81736001D03*
G04 #@! TO.P,U1,6*
G04 #@! TO.N,+3V3*
X176017999Y-84276001D03*
G04 #@! TO.P,U1,5*
G04 #@! TO.N,GND*
X176017999Y-86816001D03*
G04 #@! TO.P,U1,4*
G04 #@! TO.N,Net-(U1-Pad4)*
X146808000Y-79196001D03*
G04 #@! TO.P,U1,3*
G04 #@! TO.N,Net-(U1-Pad3)*
X146808000Y-81736001D03*
G04 #@! TO.P,U1,2*
G04 #@! TO.N,+3V3*
X146808000Y-84276001D03*
G04 #@! TO.P,U1,1*
G04 #@! TO.N,GND*
X146808000Y-86816001D03*
G04 #@! TD*
D11*
G04 #@! TO.P,Conn1,1*
G04 #@! TO.N,RX*
X165404800Y-95250000D03*
G04 #@! TO.P,Conn1,2*
G04 #@! TO.N,TX*
X162864800Y-95250000D03*
G04 #@! TO.P,Conn1,3*
G04 #@! TO.N,GND*
X160324800Y-95250000D03*
G04 #@! TO.P,Conn1,4*
G04 #@! TO.N,+3V3*
X157784800Y-95250000D03*
G04 #@! TD*
D12*
G04 #@! TO.N,+3V3*
X168811804Y-101090688D03*
G04 #@! TD*
D13*
G04 #@! TO.N,TX*
X162864800Y-83007200D02*
X162864800Y-95250000D01*
X176017999Y-79196001D02*
X166675999Y-79196001D01*
X166675999Y-79196001D02*
X162864800Y-83007200D01*
G04 #@! TO.N,RX*
X176017999Y-81736001D02*
X167437999Y-81736001D01*
X165404800Y-83769200D02*
X165404800Y-95250000D01*
X167437999Y-81736001D02*
X165404800Y-83769200D01*
G04 #@! TD*
D14*
G04 #@! TO.N,+3V3*
G36*
X172702358Y-63229147D02*
X172335000Y-64116026D01*
X172335000Y-65075976D01*
X172702358Y-65962855D01*
X173381146Y-66641643D01*
X174268025Y-67009001D01*
X175227975Y-67009001D01*
X176114854Y-66641643D01*
X176582000Y-66174497D01*
X176582000Y-67482589D01*
X176346403Y-67385001D01*
X175689595Y-67385001D01*
X175082783Y-67636351D01*
X174618349Y-68100785D01*
X174366999Y-68707597D01*
X174366999Y-69364405D01*
X174618349Y-69971217D01*
X174953133Y-70306001D01*
X174618349Y-70640785D01*
X174366999Y-71247597D01*
X174366999Y-71904405D01*
X174618349Y-72511217D01*
X174953133Y-72846001D01*
X174618349Y-73180785D01*
X174366999Y-73787597D01*
X174366999Y-74444405D01*
X174618349Y-75051217D01*
X174953133Y-75386001D01*
X174618349Y-75720785D01*
X174366999Y-76327597D01*
X174366999Y-76984405D01*
X174618349Y-77591217D01*
X174953133Y-77926001D01*
X174618349Y-78260785D01*
X174572903Y-78370501D01*
X166757296Y-78370501D01*
X166675998Y-78354330D01*
X166594700Y-78370501D01*
X166594696Y-78370501D01*
X166353905Y-78418397D01*
X166080847Y-78600849D01*
X166034792Y-78669775D01*
X162338577Y-82365991D01*
X162269648Y-82412048D01*
X162087196Y-82685107D01*
X162039300Y-82925897D01*
X162023128Y-83007200D01*
X162039300Y-83088502D01*
X162039301Y-94099842D01*
X161680480Y-94458663D01*
X161594800Y-94665513D01*
X161509120Y-94458663D01*
X161116137Y-94065680D01*
X160602681Y-93853000D01*
X160046919Y-93853000D01*
X159533463Y-94065680D01*
X159140480Y-94458663D01*
X158927800Y-94972119D01*
X158927800Y-95527881D01*
X159140480Y-96041337D01*
X159533463Y-96434320D01*
X160046919Y-96647000D01*
X160602681Y-96647000D01*
X161116137Y-96434320D01*
X161509120Y-96041337D01*
X161594800Y-95834487D01*
X161680480Y-96041337D01*
X162073463Y-96434320D01*
X162586919Y-96647000D01*
X163142681Y-96647000D01*
X163656137Y-96434320D01*
X164049120Y-96041337D01*
X164134800Y-95834487D01*
X164220480Y-96041337D01*
X164613463Y-96434320D01*
X165126919Y-96647000D01*
X165682681Y-96647000D01*
X166196137Y-96434320D01*
X166589120Y-96041337D01*
X166801800Y-95527881D01*
X166801800Y-94972119D01*
X166589120Y-94458663D01*
X166230300Y-94099843D01*
X166230300Y-84111132D01*
X167779932Y-82561501D01*
X174572903Y-82561501D01*
X174618349Y-82671217D01*
X175082783Y-83135651D01*
X175689595Y-83387001D01*
X176346403Y-83387001D01*
X176582000Y-83289413D01*
X176582000Y-85262589D01*
X176346403Y-85165001D01*
X175689595Y-85165001D01*
X175082783Y-85416351D01*
X174618349Y-85880785D01*
X174366999Y-86487597D01*
X174366999Y-87144405D01*
X174618349Y-87751217D01*
X175082783Y-88215651D01*
X175689595Y-88467001D01*
X176346403Y-88467001D01*
X176582001Y-88369413D01*
X176582001Y-89687506D01*
X176114854Y-89220359D01*
X175227975Y-88853001D01*
X174268025Y-88853001D01*
X173381146Y-89220359D01*
X172702358Y-89899147D01*
X172335000Y-90786026D01*
X172335000Y-91745976D01*
X172702358Y-92632855D01*
X173381146Y-93311643D01*
X174268025Y-93679001D01*
X175227975Y-93679001D01*
X176114854Y-93311643D01*
X176582001Y-92844496D01*
X176582001Y-106063826D01*
X176519042Y-106562199D01*
X176350697Y-106987389D01*
X176081899Y-107357359D01*
X175729541Y-107648855D01*
X175315756Y-107843567D01*
X174833339Y-107935593D01*
X174740836Y-107938500D01*
X148126667Y-107938500D01*
X147628301Y-107875542D01*
X147203111Y-107707197D01*
X146833141Y-107438399D01*
X146541645Y-107086041D01*
X146346933Y-106672256D01*
X146254907Y-106189839D01*
X146252000Y-106097336D01*
X146252000Y-103416567D01*
X154154800Y-103416567D01*
X154154800Y-104355433D01*
X154514089Y-105222833D01*
X155177967Y-105886711D01*
X156045367Y-106246000D01*
X156984233Y-106246000D01*
X157851633Y-105886711D01*
X158515511Y-105222833D01*
X158874800Y-104355433D01*
X158874800Y-103416567D01*
X164314800Y-103416567D01*
X164314800Y-104355433D01*
X164674089Y-105222833D01*
X165337967Y-105886711D01*
X166205367Y-106246000D01*
X167144233Y-106246000D01*
X168011633Y-105886711D01*
X168675511Y-105222833D01*
X169034800Y-104355433D01*
X169034800Y-103416567D01*
X168675511Y-102549167D01*
X168011633Y-101885289D01*
X167144233Y-101526000D01*
X166205367Y-101526000D01*
X165337967Y-101885289D01*
X164674089Y-102549167D01*
X164314800Y-103416567D01*
X158874800Y-103416567D01*
X158515511Y-102549167D01*
X157851633Y-101885289D01*
X156984233Y-101526000D01*
X156045367Y-101526000D01*
X155177967Y-101885289D01*
X154514089Y-102549167D01*
X154154800Y-103416567D01*
X146252000Y-103416567D01*
X146252000Y-92852497D01*
X146711146Y-93311643D01*
X147598025Y-93679001D01*
X148557975Y-93679001D01*
X149444854Y-93311643D01*
X150123642Y-92632855D01*
X150491000Y-91745976D01*
X150491000Y-90786026D01*
X150123642Y-89899147D01*
X149444854Y-89220359D01*
X148557975Y-88853001D01*
X147598025Y-88853001D01*
X146711146Y-89220359D01*
X146252000Y-89679505D01*
X146252000Y-88372728D01*
X146479596Y-88467001D01*
X147136404Y-88467001D01*
X147743216Y-88215651D01*
X148207650Y-87751217D01*
X148459000Y-87144405D01*
X148459000Y-86487597D01*
X148207650Y-85880785D01*
X147743216Y-85416351D01*
X147136404Y-85165001D01*
X146479596Y-85165001D01*
X146252000Y-85259274D01*
X146252000Y-83292728D01*
X146479596Y-83387001D01*
X147136404Y-83387001D01*
X147743216Y-83135651D01*
X148207650Y-82671217D01*
X148459000Y-82064405D01*
X148459000Y-81407597D01*
X148207650Y-80800785D01*
X147872866Y-80466001D01*
X148207650Y-80131217D01*
X148459000Y-79524405D01*
X148459000Y-78867597D01*
X148207650Y-78260785D01*
X147743216Y-77796351D01*
X147136404Y-77545001D01*
X146479596Y-77545001D01*
X146252000Y-77639274D01*
X146252000Y-66182497D01*
X146711146Y-66641643D01*
X147598025Y-67009001D01*
X148557975Y-67009001D01*
X149444854Y-66641643D01*
X150123642Y-65962855D01*
X150491000Y-65075976D01*
X150491000Y-64116026D01*
X150123642Y-63229147D01*
X149643995Y-62749500D01*
X173182005Y-62749500D01*
X172702358Y-63229147D01*
X172702358Y-63229147D01*
G37*
X172702358Y-63229147D02*
X172335000Y-64116026D01*
X172335000Y-65075976D01*
X172702358Y-65962855D01*
X173381146Y-66641643D01*
X174268025Y-67009001D01*
X175227975Y-67009001D01*
X176114854Y-66641643D01*
X176582000Y-66174497D01*
X176582000Y-67482589D01*
X176346403Y-67385001D01*
X175689595Y-67385001D01*
X175082783Y-67636351D01*
X174618349Y-68100785D01*
X174366999Y-68707597D01*
X174366999Y-69364405D01*
X174618349Y-69971217D01*
X174953133Y-70306001D01*
X174618349Y-70640785D01*
X174366999Y-71247597D01*
X174366999Y-71904405D01*
X174618349Y-72511217D01*
X174953133Y-72846001D01*
X174618349Y-73180785D01*
X174366999Y-73787597D01*
X174366999Y-74444405D01*
X174618349Y-75051217D01*
X174953133Y-75386001D01*
X174618349Y-75720785D01*
X174366999Y-76327597D01*
X174366999Y-76984405D01*
X174618349Y-77591217D01*
X174953133Y-77926001D01*
X174618349Y-78260785D01*
X174572903Y-78370501D01*
X166757296Y-78370501D01*
X166675998Y-78354330D01*
X166594700Y-78370501D01*
X166594696Y-78370501D01*
X166353905Y-78418397D01*
X166080847Y-78600849D01*
X166034792Y-78669775D01*
X162338577Y-82365991D01*
X162269648Y-82412048D01*
X162087196Y-82685107D01*
X162039300Y-82925897D01*
X162023128Y-83007200D01*
X162039300Y-83088502D01*
X162039301Y-94099842D01*
X161680480Y-94458663D01*
X161594800Y-94665513D01*
X161509120Y-94458663D01*
X161116137Y-94065680D01*
X160602681Y-93853000D01*
X160046919Y-93853000D01*
X159533463Y-94065680D01*
X159140480Y-94458663D01*
X158927800Y-94972119D01*
X158927800Y-95527881D01*
X159140480Y-96041337D01*
X159533463Y-96434320D01*
X160046919Y-96647000D01*
X160602681Y-96647000D01*
X161116137Y-96434320D01*
X161509120Y-96041337D01*
X161594800Y-95834487D01*
X161680480Y-96041337D01*
X162073463Y-96434320D01*
X162586919Y-96647000D01*
X163142681Y-96647000D01*
X163656137Y-96434320D01*
X164049120Y-96041337D01*
X164134800Y-95834487D01*
X164220480Y-96041337D01*
X164613463Y-96434320D01*
X165126919Y-96647000D01*
X165682681Y-96647000D01*
X166196137Y-96434320D01*
X166589120Y-96041337D01*
X166801800Y-95527881D01*
X166801800Y-94972119D01*
X166589120Y-94458663D01*
X166230300Y-94099843D01*
X166230300Y-84111132D01*
X167779932Y-82561501D01*
X174572903Y-82561501D01*
X174618349Y-82671217D01*
X175082783Y-83135651D01*
X175689595Y-83387001D01*
X176346403Y-83387001D01*
X176582000Y-83289413D01*
X176582000Y-85262589D01*
X176346403Y-85165001D01*
X175689595Y-85165001D01*
X175082783Y-85416351D01*
X174618349Y-85880785D01*
X174366999Y-86487597D01*
X174366999Y-87144405D01*
X174618349Y-87751217D01*
X175082783Y-88215651D01*
X175689595Y-88467001D01*
X176346403Y-88467001D01*
X176582001Y-88369413D01*
X176582001Y-89687506D01*
X176114854Y-89220359D01*
X175227975Y-88853001D01*
X174268025Y-88853001D01*
X173381146Y-89220359D01*
X172702358Y-89899147D01*
X172335000Y-90786026D01*
X172335000Y-91745976D01*
X172702358Y-92632855D01*
X173381146Y-93311643D01*
X174268025Y-93679001D01*
X175227975Y-93679001D01*
X176114854Y-93311643D01*
X176582001Y-92844496D01*
X176582001Y-106063826D01*
X176519042Y-106562199D01*
X176350697Y-106987389D01*
X176081899Y-107357359D01*
X175729541Y-107648855D01*
X175315756Y-107843567D01*
X174833339Y-107935593D01*
X174740836Y-107938500D01*
X148126667Y-107938500D01*
X147628301Y-107875542D01*
X147203111Y-107707197D01*
X146833141Y-107438399D01*
X146541645Y-107086041D01*
X146346933Y-106672256D01*
X146254907Y-106189839D01*
X146252000Y-106097336D01*
X146252000Y-103416567D01*
X154154800Y-103416567D01*
X154154800Y-104355433D01*
X154514089Y-105222833D01*
X155177967Y-105886711D01*
X156045367Y-106246000D01*
X156984233Y-106246000D01*
X157851633Y-105886711D01*
X158515511Y-105222833D01*
X158874800Y-104355433D01*
X158874800Y-103416567D01*
X164314800Y-103416567D01*
X164314800Y-104355433D01*
X164674089Y-105222833D01*
X165337967Y-105886711D01*
X166205367Y-106246000D01*
X167144233Y-106246000D01*
X168011633Y-105886711D01*
X168675511Y-105222833D01*
X169034800Y-104355433D01*
X169034800Y-103416567D01*
X168675511Y-102549167D01*
X168011633Y-101885289D01*
X167144233Y-101526000D01*
X166205367Y-101526000D01*
X165337967Y-101885289D01*
X164674089Y-102549167D01*
X164314800Y-103416567D01*
X158874800Y-103416567D01*
X158515511Y-102549167D01*
X157851633Y-101885289D01*
X156984233Y-101526000D01*
X156045367Y-101526000D01*
X155177967Y-101885289D01*
X154514089Y-102549167D01*
X154154800Y-103416567D01*
X146252000Y-103416567D01*
X146252000Y-92852497D01*
X146711146Y-93311643D01*
X147598025Y-93679001D01*
X148557975Y-93679001D01*
X149444854Y-93311643D01*
X150123642Y-92632855D01*
X150491000Y-91745976D01*
X150491000Y-90786026D01*
X150123642Y-89899147D01*
X149444854Y-89220359D01*
X148557975Y-88853001D01*
X147598025Y-88853001D01*
X146711146Y-89220359D01*
X146252000Y-89679505D01*
X146252000Y-88372728D01*
X146479596Y-88467001D01*
X147136404Y-88467001D01*
X147743216Y-88215651D01*
X148207650Y-87751217D01*
X148459000Y-87144405D01*
X148459000Y-86487597D01*
X148207650Y-85880785D01*
X147743216Y-85416351D01*
X147136404Y-85165001D01*
X146479596Y-85165001D01*
X146252000Y-85259274D01*
X146252000Y-83292728D01*
X146479596Y-83387001D01*
X147136404Y-83387001D01*
X147743216Y-83135651D01*
X148207650Y-82671217D01*
X148459000Y-82064405D01*
X148459000Y-81407597D01*
X148207650Y-80800785D01*
X147872866Y-80466001D01*
X148207650Y-80131217D01*
X148459000Y-79524405D01*
X148459000Y-78867597D01*
X148207650Y-78260785D01*
X147743216Y-77796351D01*
X147136404Y-77545001D01*
X146479596Y-77545001D01*
X146252000Y-77639274D01*
X146252000Y-66182497D01*
X146711146Y-66641643D01*
X147598025Y-67009001D01*
X148557975Y-67009001D01*
X149444854Y-66641643D01*
X150123642Y-65962855D01*
X150491000Y-65075976D01*
X150491000Y-64116026D01*
X150123642Y-63229147D01*
X149643995Y-62749500D01*
X173182005Y-62749500D01*
X172702358Y-63229147D01*
G04 #@! TD*
M02*
