G04 #@! TF.GenerationSoftware,KiCad,Pcbnew,(5.0.0)*
G04 #@! TF.CreationDate,2018-12-16T16:19:50-06:00*
G04 #@! TF.ProjectId,IMUBreakout_Hardware,494D55427265616B6F75745F48617264,rev?*
G04 #@! TF.SameCoordinates,Original*
G04 #@! TF.FileFunction,Copper,L1,Top,Signal*
G04 #@! TF.FilePolarity,Positive*
%FSLAX46Y46*%
G04 Gerber Fmt 4.6, Leading zero omitted, Abs format (unit mm)*
G04 Created by KiCad (PCBNEW (5.0.0)) date 12/16/18 16:19:50*
%MOMM*%
%LPD*%
G01*
G04 APERTURE LIST*
G04 #@! TA.AperFunction,Conductor*
%ADD10C,0.100000*%
G04 #@! TD*
G04 #@! TA.AperFunction,SMDPad,CuDef*
%ADD11C,0.950000*%
G04 #@! TD*
G04 #@! TA.AperFunction,ComponentPad*
%ADD12C,1.524000*%
G04 #@! TD*
G04 #@! TA.AperFunction,ComponentPad*
%ADD13R,1.524000X1.524000*%
G04 #@! TD*
G04 #@! TA.AperFunction,ViaPad*
%ADD14C,0.800000*%
G04 #@! TD*
G04 #@! TA.AperFunction,Conductor*
%ADD15C,0.381000*%
G04 #@! TD*
G04 #@! TA.AperFunction,Conductor*
%ADD16C,0.254000*%
G04 #@! TD*
G04 APERTURE END LIST*
D10*
G04 #@! TO.N,+3V3*
G04 #@! TO.C,R3*
G36*
X155962779Y-88124744D02*
X155985834Y-88128163D01*
X156008443Y-88133827D01*
X156030387Y-88141679D01*
X156051457Y-88151644D01*
X156071448Y-88163626D01*
X156090168Y-88177510D01*
X156107438Y-88193162D01*
X156123090Y-88210432D01*
X156136974Y-88229152D01*
X156148956Y-88249143D01*
X156158921Y-88270213D01*
X156166773Y-88292157D01*
X156172437Y-88314766D01*
X156175856Y-88337821D01*
X156177000Y-88361100D01*
X156177000Y-88936100D01*
X156175856Y-88959379D01*
X156172437Y-88982434D01*
X156166773Y-89005043D01*
X156158921Y-89026987D01*
X156148956Y-89048057D01*
X156136974Y-89068048D01*
X156123090Y-89086768D01*
X156107438Y-89104038D01*
X156090168Y-89119690D01*
X156071448Y-89133574D01*
X156051457Y-89145556D01*
X156030387Y-89155521D01*
X156008443Y-89163373D01*
X155985834Y-89169037D01*
X155962779Y-89172456D01*
X155939500Y-89173600D01*
X155464500Y-89173600D01*
X155441221Y-89172456D01*
X155418166Y-89169037D01*
X155395557Y-89163373D01*
X155373613Y-89155521D01*
X155352543Y-89145556D01*
X155332552Y-89133574D01*
X155313832Y-89119690D01*
X155296562Y-89104038D01*
X155280910Y-89086768D01*
X155267026Y-89068048D01*
X155255044Y-89048057D01*
X155245079Y-89026987D01*
X155237227Y-89005043D01*
X155231563Y-88982434D01*
X155228144Y-88959379D01*
X155227000Y-88936100D01*
X155227000Y-88361100D01*
X155228144Y-88337821D01*
X155231563Y-88314766D01*
X155237227Y-88292157D01*
X155245079Y-88270213D01*
X155255044Y-88249143D01*
X155267026Y-88229152D01*
X155280910Y-88210432D01*
X155296562Y-88193162D01*
X155313832Y-88177510D01*
X155332552Y-88163626D01*
X155352543Y-88151644D01*
X155373613Y-88141679D01*
X155395557Y-88133827D01*
X155418166Y-88128163D01*
X155441221Y-88124744D01*
X155464500Y-88123600D01*
X155939500Y-88123600D01*
X155962779Y-88124744D01*
X155962779Y-88124744D01*
G37*
D11*
G04 #@! TD*
G04 #@! TO.P,R3,2*
G04 #@! TO.N,+3V3*
X155702000Y-88648600D03*
D10*
G04 #@! TO.N,SDOM*
G04 #@! TO.C,R3*
G36*
X155962779Y-89874744D02*
X155985834Y-89878163D01*
X156008443Y-89883827D01*
X156030387Y-89891679D01*
X156051457Y-89901644D01*
X156071448Y-89913626D01*
X156090168Y-89927510D01*
X156107438Y-89943162D01*
X156123090Y-89960432D01*
X156136974Y-89979152D01*
X156148956Y-89999143D01*
X156158921Y-90020213D01*
X156166773Y-90042157D01*
X156172437Y-90064766D01*
X156175856Y-90087821D01*
X156177000Y-90111100D01*
X156177000Y-90686100D01*
X156175856Y-90709379D01*
X156172437Y-90732434D01*
X156166773Y-90755043D01*
X156158921Y-90776987D01*
X156148956Y-90798057D01*
X156136974Y-90818048D01*
X156123090Y-90836768D01*
X156107438Y-90854038D01*
X156090168Y-90869690D01*
X156071448Y-90883574D01*
X156051457Y-90895556D01*
X156030387Y-90905521D01*
X156008443Y-90913373D01*
X155985834Y-90919037D01*
X155962779Y-90922456D01*
X155939500Y-90923600D01*
X155464500Y-90923600D01*
X155441221Y-90922456D01*
X155418166Y-90919037D01*
X155395557Y-90913373D01*
X155373613Y-90905521D01*
X155352543Y-90895556D01*
X155332552Y-90883574D01*
X155313832Y-90869690D01*
X155296562Y-90854038D01*
X155280910Y-90836768D01*
X155267026Y-90818048D01*
X155255044Y-90798057D01*
X155245079Y-90776987D01*
X155237227Y-90755043D01*
X155231563Y-90732434D01*
X155228144Y-90709379D01*
X155227000Y-90686100D01*
X155227000Y-90111100D01*
X155228144Y-90087821D01*
X155231563Y-90064766D01*
X155237227Y-90042157D01*
X155245079Y-90020213D01*
X155255044Y-89999143D01*
X155267026Y-89979152D01*
X155280910Y-89960432D01*
X155296562Y-89943162D01*
X155313832Y-89927510D01*
X155332552Y-89913626D01*
X155352543Y-89901644D01*
X155373613Y-89891679D01*
X155395557Y-89883827D01*
X155418166Y-89878163D01*
X155441221Y-89874744D01*
X155464500Y-89873600D01*
X155939500Y-89873600D01*
X155962779Y-89874744D01*
X155962779Y-89874744D01*
G37*
D11*
G04 #@! TD*
G04 #@! TO.P,R3,1*
G04 #@! TO.N,SDOM*
X155702000Y-90398600D03*
D12*
G04 #@! TO.P,Conn1,1*
G04 #@! TO.N,GND*
X147886958Y-107950000D03*
G04 #@! TO.P,Conn1,2*
G04 #@! TO.N,INT2AG*
X147886958Y-105410000D03*
G04 #@! TO.P,Conn1,3*
G04 #@! TO.N,INT1AG*
X147886958Y-102870000D03*
G04 #@! TO.P,Conn1,4*
G04 #@! TO.N,INTM*
X147886958Y-100330000D03*
G04 #@! TO.P,Conn1,5*
G04 #@! TO.N,DRDYM*
X147886958Y-97790000D03*
G04 #@! TO.P,Conn1,6*
G04 #@! TO.N,SDA*
X147886958Y-95250000D03*
G04 #@! TO.P,Conn1,7*
G04 #@! TO.N,SCL*
X147886958Y-92710000D03*
G04 #@! TO.P,Conn1,8*
G04 #@! TO.N,+3V3*
X147886958Y-90170000D03*
G04 #@! TD*
D10*
G04 #@! TO.N,SDOAG*
G04 #@! TO.C,R1*
G36*
X158502779Y-89874744D02*
X158525834Y-89878163D01*
X158548443Y-89883827D01*
X158570387Y-89891679D01*
X158591457Y-89901644D01*
X158611448Y-89913626D01*
X158630168Y-89927510D01*
X158647438Y-89943162D01*
X158663090Y-89960432D01*
X158676974Y-89979152D01*
X158688956Y-89999143D01*
X158698921Y-90020213D01*
X158706773Y-90042157D01*
X158712437Y-90064766D01*
X158715856Y-90087821D01*
X158717000Y-90111100D01*
X158717000Y-90686100D01*
X158715856Y-90709379D01*
X158712437Y-90732434D01*
X158706773Y-90755043D01*
X158698921Y-90776987D01*
X158688956Y-90798057D01*
X158676974Y-90818048D01*
X158663090Y-90836768D01*
X158647438Y-90854038D01*
X158630168Y-90869690D01*
X158611448Y-90883574D01*
X158591457Y-90895556D01*
X158570387Y-90905521D01*
X158548443Y-90913373D01*
X158525834Y-90919037D01*
X158502779Y-90922456D01*
X158479500Y-90923600D01*
X158004500Y-90923600D01*
X157981221Y-90922456D01*
X157958166Y-90919037D01*
X157935557Y-90913373D01*
X157913613Y-90905521D01*
X157892543Y-90895556D01*
X157872552Y-90883574D01*
X157853832Y-90869690D01*
X157836562Y-90854038D01*
X157820910Y-90836768D01*
X157807026Y-90818048D01*
X157795044Y-90798057D01*
X157785079Y-90776987D01*
X157777227Y-90755043D01*
X157771563Y-90732434D01*
X157768144Y-90709379D01*
X157767000Y-90686100D01*
X157767000Y-90111100D01*
X157768144Y-90087821D01*
X157771563Y-90064766D01*
X157777227Y-90042157D01*
X157785079Y-90020213D01*
X157795044Y-89999143D01*
X157807026Y-89979152D01*
X157820910Y-89960432D01*
X157836562Y-89943162D01*
X157853832Y-89927510D01*
X157872552Y-89913626D01*
X157892543Y-89901644D01*
X157913613Y-89891679D01*
X157935557Y-89883827D01*
X157958166Y-89878163D01*
X157981221Y-89874744D01*
X158004500Y-89873600D01*
X158479500Y-89873600D01*
X158502779Y-89874744D01*
X158502779Y-89874744D01*
G37*
D11*
G04 #@! TD*
G04 #@! TO.P,R1,1*
G04 #@! TO.N,SDOAG*
X158242000Y-90398600D03*
D10*
G04 #@! TO.N,+3V3*
G04 #@! TO.C,R1*
G36*
X158502779Y-88124744D02*
X158525834Y-88128163D01*
X158548443Y-88133827D01*
X158570387Y-88141679D01*
X158591457Y-88151644D01*
X158611448Y-88163626D01*
X158630168Y-88177510D01*
X158647438Y-88193162D01*
X158663090Y-88210432D01*
X158676974Y-88229152D01*
X158688956Y-88249143D01*
X158698921Y-88270213D01*
X158706773Y-88292157D01*
X158712437Y-88314766D01*
X158715856Y-88337821D01*
X158717000Y-88361100D01*
X158717000Y-88936100D01*
X158715856Y-88959379D01*
X158712437Y-88982434D01*
X158706773Y-89005043D01*
X158698921Y-89026987D01*
X158688956Y-89048057D01*
X158676974Y-89068048D01*
X158663090Y-89086768D01*
X158647438Y-89104038D01*
X158630168Y-89119690D01*
X158611448Y-89133574D01*
X158591457Y-89145556D01*
X158570387Y-89155521D01*
X158548443Y-89163373D01*
X158525834Y-89169037D01*
X158502779Y-89172456D01*
X158479500Y-89173600D01*
X158004500Y-89173600D01*
X157981221Y-89172456D01*
X157958166Y-89169037D01*
X157935557Y-89163373D01*
X157913613Y-89155521D01*
X157892543Y-89145556D01*
X157872552Y-89133574D01*
X157853832Y-89119690D01*
X157836562Y-89104038D01*
X157820910Y-89086768D01*
X157807026Y-89068048D01*
X157795044Y-89048057D01*
X157785079Y-89026987D01*
X157777227Y-89005043D01*
X157771563Y-88982434D01*
X157768144Y-88959379D01*
X157767000Y-88936100D01*
X157767000Y-88361100D01*
X157768144Y-88337821D01*
X157771563Y-88314766D01*
X157777227Y-88292157D01*
X157785079Y-88270213D01*
X157795044Y-88249143D01*
X157807026Y-88229152D01*
X157820910Y-88210432D01*
X157836562Y-88193162D01*
X157853832Y-88177510D01*
X157872552Y-88163626D01*
X157892543Y-88151644D01*
X157913613Y-88141679D01*
X157935557Y-88133827D01*
X157958166Y-88128163D01*
X157981221Y-88124744D01*
X158004500Y-88123600D01*
X158479500Y-88123600D01*
X158502779Y-88124744D01*
X158502779Y-88124744D01*
G37*
D11*
G04 #@! TD*
G04 #@! TO.P,R1,2*
G04 #@! TO.N,+3V3*
X158242000Y-88648600D03*
D10*
G04 #@! TO.N,SDOAG*
G04 #@! TO.C,R2*
G36*
X160838779Y-89924744D02*
X160861834Y-89928163D01*
X160884443Y-89933827D01*
X160906387Y-89941679D01*
X160927457Y-89951644D01*
X160947448Y-89963626D01*
X160966168Y-89977510D01*
X160983438Y-89993162D01*
X160999090Y-90010432D01*
X161012974Y-90029152D01*
X161024956Y-90049143D01*
X161034921Y-90070213D01*
X161042773Y-90092157D01*
X161048437Y-90114766D01*
X161051856Y-90137821D01*
X161053000Y-90161100D01*
X161053000Y-90636100D01*
X161051856Y-90659379D01*
X161048437Y-90682434D01*
X161042773Y-90705043D01*
X161034921Y-90726987D01*
X161024956Y-90748057D01*
X161012974Y-90768048D01*
X160999090Y-90786768D01*
X160983438Y-90804038D01*
X160966168Y-90819690D01*
X160947448Y-90833574D01*
X160927457Y-90845556D01*
X160906387Y-90855521D01*
X160884443Y-90863373D01*
X160861834Y-90869037D01*
X160838779Y-90872456D01*
X160815500Y-90873600D01*
X160240500Y-90873600D01*
X160217221Y-90872456D01*
X160194166Y-90869037D01*
X160171557Y-90863373D01*
X160149613Y-90855521D01*
X160128543Y-90845556D01*
X160108552Y-90833574D01*
X160089832Y-90819690D01*
X160072562Y-90804038D01*
X160056910Y-90786768D01*
X160043026Y-90768048D01*
X160031044Y-90748057D01*
X160021079Y-90726987D01*
X160013227Y-90705043D01*
X160007563Y-90682434D01*
X160004144Y-90659379D01*
X160003000Y-90636100D01*
X160003000Y-90161100D01*
X160004144Y-90137821D01*
X160007563Y-90114766D01*
X160013227Y-90092157D01*
X160021079Y-90070213D01*
X160031044Y-90049143D01*
X160043026Y-90029152D01*
X160056910Y-90010432D01*
X160072562Y-89993162D01*
X160089832Y-89977510D01*
X160108552Y-89963626D01*
X160128543Y-89951644D01*
X160149613Y-89941679D01*
X160171557Y-89933827D01*
X160194166Y-89928163D01*
X160217221Y-89924744D01*
X160240500Y-89923600D01*
X160815500Y-89923600D01*
X160838779Y-89924744D01*
X160838779Y-89924744D01*
G37*
D11*
G04 #@! TD*
G04 #@! TO.P,R2,1*
G04 #@! TO.N,SDOAG*
X160528000Y-90398600D03*
D10*
G04 #@! TO.N,GND*
G04 #@! TO.C,R2*
G36*
X162588779Y-89924744D02*
X162611834Y-89928163D01*
X162634443Y-89933827D01*
X162656387Y-89941679D01*
X162677457Y-89951644D01*
X162697448Y-89963626D01*
X162716168Y-89977510D01*
X162733438Y-89993162D01*
X162749090Y-90010432D01*
X162762974Y-90029152D01*
X162774956Y-90049143D01*
X162784921Y-90070213D01*
X162792773Y-90092157D01*
X162798437Y-90114766D01*
X162801856Y-90137821D01*
X162803000Y-90161100D01*
X162803000Y-90636100D01*
X162801856Y-90659379D01*
X162798437Y-90682434D01*
X162792773Y-90705043D01*
X162784921Y-90726987D01*
X162774956Y-90748057D01*
X162762974Y-90768048D01*
X162749090Y-90786768D01*
X162733438Y-90804038D01*
X162716168Y-90819690D01*
X162697448Y-90833574D01*
X162677457Y-90845556D01*
X162656387Y-90855521D01*
X162634443Y-90863373D01*
X162611834Y-90869037D01*
X162588779Y-90872456D01*
X162565500Y-90873600D01*
X161990500Y-90873600D01*
X161967221Y-90872456D01*
X161944166Y-90869037D01*
X161921557Y-90863373D01*
X161899613Y-90855521D01*
X161878543Y-90845556D01*
X161858552Y-90833574D01*
X161839832Y-90819690D01*
X161822562Y-90804038D01*
X161806910Y-90786768D01*
X161793026Y-90768048D01*
X161781044Y-90748057D01*
X161771079Y-90726987D01*
X161763227Y-90705043D01*
X161757563Y-90682434D01*
X161754144Y-90659379D01*
X161753000Y-90636100D01*
X161753000Y-90161100D01*
X161754144Y-90137821D01*
X161757563Y-90114766D01*
X161763227Y-90092157D01*
X161771079Y-90070213D01*
X161781044Y-90049143D01*
X161793026Y-90029152D01*
X161806910Y-90010432D01*
X161822562Y-89993162D01*
X161839832Y-89977510D01*
X161858552Y-89963626D01*
X161878543Y-89951644D01*
X161899613Y-89941679D01*
X161921557Y-89933827D01*
X161944166Y-89928163D01*
X161967221Y-89924744D01*
X161990500Y-89923600D01*
X162565500Y-89923600D01*
X162588779Y-89924744D01*
X162588779Y-89924744D01*
G37*
D11*
G04 #@! TD*
G04 #@! TO.P,R2,2*
G04 #@! TO.N,GND*
X162278000Y-90398600D03*
D10*
G04 #@! TO.N,GND*
G04 #@! TO.C,R4*
G36*
X151976779Y-89924744D02*
X151999834Y-89928163D01*
X152022443Y-89933827D01*
X152044387Y-89941679D01*
X152065457Y-89951644D01*
X152085448Y-89963626D01*
X152104168Y-89977510D01*
X152121438Y-89993162D01*
X152137090Y-90010432D01*
X152150974Y-90029152D01*
X152162956Y-90049143D01*
X152172921Y-90070213D01*
X152180773Y-90092157D01*
X152186437Y-90114766D01*
X152189856Y-90137821D01*
X152191000Y-90161100D01*
X152191000Y-90636100D01*
X152189856Y-90659379D01*
X152186437Y-90682434D01*
X152180773Y-90705043D01*
X152172921Y-90726987D01*
X152162956Y-90748057D01*
X152150974Y-90768048D01*
X152137090Y-90786768D01*
X152121438Y-90804038D01*
X152104168Y-90819690D01*
X152085448Y-90833574D01*
X152065457Y-90845556D01*
X152044387Y-90855521D01*
X152022443Y-90863373D01*
X151999834Y-90869037D01*
X151976779Y-90872456D01*
X151953500Y-90873600D01*
X151378500Y-90873600D01*
X151355221Y-90872456D01*
X151332166Y-90869037D01*
X151309557Y-90863373D01*
X151287613Y-90855521D01*
X151266543Y-90845556D01*
X151246552Y-90833574D01*
X151227832Y-90819690D01*
X151210562Y-90804038D01*
X151194910Y-90786768D01*
X151181026Y-90768048D01*
X151169044Y-90748057D01*
X151159079Y-90726987D01*
X151151227Y-90705043D01*
X151145563Y-90682434D01*
X151142144Y-90659379D01*
X151141000Y-90636100D01*
X151141000Y-90161100D01*
X151142144Y-90137821D01*
X151145563Y-90114766D01*
X151151227Y-90092157D01*
X151159079Y-90070213D01*
X151169044Y-90049143D01*
X151181026Y-90029152D01*
X151194910Y-90010432D01*
X151210562Y-89993162D01*
X151227832Y-89977510D01*
X151246552Y-89963626D01*
X151266543Y-89951644D01*
X151287613Y-89941679D01*
X151309557Y-89933827D01*
X151332166Y-89928163D01*
X151355221Y-89924744D01*
X151378500Y-89923600D01*
X151953500Y-89923600D01*
X151976779Y-89924744D01*
X151976779Y-89924744D01*
G37*
D11*
G04 #@! TD*
G04 #@! TO.P,R4,2*
G04 #@! TO.N,GND*
X151666000Y-90398600D03*
D10*
G04 #@! TO.N,SDOM*
G04 #@! TO.C,R4*
G36*
X153726779Y-89924744D02*
X153749834Y-89928163D01*
X153772443Y-89933827D01*
X153794387Y-89941679D01*
X153815457Y-89951644D01*
X153835448Y-89963626D01*
X153854168Y-89977510D01*
X153871438Y-89993162D01*
X153887090Y-90010432D01*
X153900974Y-90029152D01*
X153912956Y-90049143D01*
X153922921Y-90070213D01*
X153930773Y-90092157D01*
X153936437Y-90114766D01*
X153939856Y-90137821D01*
X153941000Y-90161100D01*
X153941000Y-90636100D01*
X153939856Y-90659379D01*
X153936437Y-90682434D01*
X153930773Y-90705043D01*
X153922921Y-90726987D01*
X153912956Y-90748057D01*
X153900974Y-90768048D01*
X153887090Y-90786768D01*
X153871438Y-90804038D01*
X153854168Y-90819690D01*
X153835448Y-90833574D01*
X153815457Y-90845556D01*
X153794387Y-90855521D01*
X153772443Y-90863373D01*
X153749834Y-90869037D01*
X153726779Y-90872456D01*
X153703500Y-90873600D01*
X153128500Y-90873600D01*
X153105221Y-90872456D01*
X153082166Y-90869037D01*
X153059557Y-90863373D01*
X153037613Y-90855521D01*
X153016543Y-90845556D01*
X152996552Y-90833574D01*
X152977832Y-90819690D01*
X152960562Y-90804038D01*
X152944910Y-90786768D01*
X152931026Y-90768048D01*
X152919044Y-90748057D01*
X152909079Y-90726987D01*
X152901227Y-90705043D01*
X152895563Y-90682434D01*
X152892144Y-90659379D01*
X152891000Y-90636100D01*
X152891000Y-90161100D01*
X152892144Y-90137821D01*
X152895563Y-90114766D01*
X152901227Y-90092157D01*
X152909079Y-90070213D01*
X152919044Y-90049143D01*
X152931026Y-90029152D01*
X152944910Y-90010432D01*
X152960562Y-89993162D01*
X152977832Y-89977510D01*
X152996552Y-89963626D01*
X153016543Y-89951644D01*
X153037613Y-89941679D01*
X153059557Y-89933827D01*
X153082166Y-89928163D01*
X153105221Y-89924744D01*
X153128500Y-89923600D01*
X153703500Y-89923600D01*
X153726779Y-89924744D01*
X153726779Y-89924744D01*
G37*
D11*
G04 #@! TD*
G04 #@! TO.P,R4,1*
G04 #@! TO.N,SDOM*
X153416000Y-90398600D03*
D12*
G04 #@! TO.P,U1,5*
G04 #@! TO.N,SDOM*
X151892000Y-93980000D03*
G04 #@! TO.P,U1,6*
G04 #@! TO.N,+3V3*
X151892000Y-96520000D03*
G04 #@! TO.P,U1,7*
X151892000Y-99060000D03*
G04 #@! TO.P,U1,8*
G04 #@! TO.N,DRDYM*
X151892000Y-101600000D03*
G04 #@! TO.P,U1,9*
G04 #@! TO.N,INTM*
X151892000Y-104140000D03*
G04 #@! TO.P,U1,10*
G04 #@! TO.N,INT1AG*
X154432000Y-104140000D03*
G04 #@! TO.P,U1,11*
G04 #@! TO.N,INT2AG*
X156972000Y-104140000D03*
G04 #@! TO.P,U1,12*
G04 #@! TO.N,+3V3*
X159512000Y-104140000D03*
D13*
G04 #@! TO.P,U1,13*
G04 #@! TO.N,GND*
X162052000Y-104140000D03*
D12*
G04 #@! TO.P,U1,4*
G04 #@! TO.N,SDOAG*
X154432000Y-93980000D03*
G04 #@! TO.P,U1,3*
G04 #@! TO.N,SDA*
X156972000Y-93980000D03*
G04 #@! TO.P,U1,2*
G04 #@! TO.N,SCL*
X159512000Y-93980000D03*
G04 #@! TO.P,U1,1*
G04 #@! TO.N,+3V3*
X162052000Y-93980000D03*
G04 #@! TD*
D10*
G04 #@! TO.N,GND*
G04 #@! TO.C,D1*
G36*
X156464779Y-109762144D02*
X156487834Y-109765563D01*
X156510443Y-109771227D01*
X156532387Y-109779079D01*
X156553457Y-109789044D01*
X156573448Y-109801026D01*
X156592168Y-109814910D01*
X156609438Y-109830562D01*
X156625090Y-109847832D01*
X156638974Y-109866552D01*
X156650956Y-109886543D01*
X156660921Y-109907613D01*
X156668773Y-109929557D01*
X156674437Y-109952166D01*
X156677856Y-109975221D01*
X156679000Y-109998500D01*
X156679000Y-110473500D01*
X156677856Y-110496779D01*
X156674437Y-110519834D01*
X156668773Y-110542443D01*
X156660921Y-110564387D01*
X156650956Y-110585457D01*
X156638974Y-110605448D01*
X156625090Y-110624168D01*
X156609438Y-110641438D01*
X156592168Y-110657090D01*
X156573448Y-110670974D01*
X156553457Y-110682956D01*
X156532387Y-110692921D01*
X156510443Y-110700773D01*
X156487834Y-110706437D01*
X156464779Y-110709856D01*
X156441500Y-110711000D01*
X155866500Y-110711000D01*
X155843221Y-110709856D01*
X155820166Y-110706437D01*
X155797557Y-110700773D01*
X155775613Y-110692921D01*
X155754543Y-110682956D01*
X155734552Y-110670974D01*
X155715832Y-110657090D01*
X155698562Y-110641438D01*
X155682910Y-110624168D01*
X155669026Y-110605448D01*
X155657044Y-110585457D01*
X155647079Y-110564387D01*
X155639227Y-110542443D01*
X155633563Y-110519834D01*
X155630144Y-110496779D01*
X155629000Y-110473500D01*
X155629000Y-109998500D01*
X155630144Y-109975221D01*
X155633563Y-109952166D01*
X155639227Y-109929557D01*
X155647079Y-109907613D01*
X155657044Y-109886543D01*
X155669026Y-109866552D01*
X155682910Y-109847832D01*
X155698562Y-109830562D01*
X155715832Y-109814910D01*
X155734552Y-109801026D01*
X155754543Y-109789044D01*
X155775613Y-109779079D01*
X155797557Y-109771227D01*
X155820166Y-109765563D01*
X155843221Y-109762144D01*
X155866500Y-109761000D01*
X156441500Y-109761000D01*
X156464779Y-109762144D01*
X156464779Y-109762144D01*
G37*
D11*
G04 #@! TD*
G04 #@! TO.P,D1,1*
G04 #@! TO.N,GND*
X156154000Y-110236000D03*
D10*
G04 #@! TO.N,Net-(D1-Pad2)*
G04 #@! TO.C,D1*
G36*
X154714779Y-109762144D02*
X154737834Y-109765563D01*
X154760443Y-109771227D01*
X154782387Y-109779079D01*
X154803457Y-109789044D01*
X154823448Y-109801026D01*
X154842168Y-109814910D01*
X154859438Y-109830562D01*
X154875090Y-109847832D01*
X154888974Y-109866552D01*
X154900956Y-109886543D01*
X154910921Y-109907613D01*
X154918773Y-109929557D01*
X154924437Y-109952166D01*
X154927856Y-109975221D01*
X154929000Y-109998500D01*
X154929000Y-110473500D01*
X154927856Y-110496779D01*
X154924437Y-110519834D01*
X154918773Y-110542443D01*
X154910921Y-110564387D01*
X154900956Y-110585457D01*
X154888974Y-110605448D01*
X154875090Y-110624168D01*
X154859438Y-110641438D01*
X154842168Y-110657090D01*
X154823448Y-110670974D01*
X154803457Y-110682956D01*
X154782387Y-110692921D01*
X154760443Y-110700773D01*
X154737834Y-110706437D01*
X154714779Y-110709856D01*
X154691500Y-110711000D01*
X154116500Y-110711000D01*
X154093221Y-110709856D01*
X154070166Y-110706437D01*
X154047557Y-110700773D01*
X154025613Y-110692921D01*
X154004543Y-110682956D01*
X153984552Y-110670974D01*
X153965832Y-110657090D01*
X153948562Y-110641438D01*
X153932910Y-110624168D01*
X153919026Y-110605448D01*
X153907044Y-110585457D01*
X153897079Y-110564387D01*
X153889227Y-110542443D01*
X153883563Y-110519834D01*
X153880144Y-110496779D01*
X153879000Y-110473500D01*
X153879000Y-109998500D01*
X153880144Y-109975221D01*
X153883563Y-109952166D01*
X153889227Y-109929557D01*
X153897079Y-109907613D01*
X153907044Y-109886543D01*
X153919026Y-109866552D01*
X153932910Y-109847832D01*
X153948562Y-109830562D01*
X153965832Y-109814910D01*
X153984552Y-109801026D01*
X154004543Y-109789044D01*
X154025613Y-109779079D01*
X154047557Y-109771227D01*
X154070166Y-109765563D01*
X154093221Y-109762144D01*
X154116500Y-109761000D01*
X154691500Y-109761000D01*
X154714779Y-109762144D01*
X154714779Y-109762144D01*
G37*
D11*
G04 #@! TD*
G04 #@! TO.P,D1,2*
G04 #@! TO.N,Net-(D1-Pad2)*
X154404000Y-110236000D03*
D10*
G04 #@! TO.N,Net-(D2-Pad2)*
G04 #@! TO.C,D2*
G36*
X154742779Y-107984144D02*
X154765834Y-107987563D01*
X154788443Y-107993227D01*
X154810387Y-108001079D01*
X154831457Y-108011044D01*
X154851448Y-108023026D01*
X154870168Y-108036910D01*
X154887438Y-108052562D01*
X154903090Y-108069832D01*
X154916974Y-108088552D01*
X154928956Y-108108543D01*
X154938921Y-108129613D01*
X154946773Y-108151557D01*
X154952437Y-108174166D01*
X154955856Y-108197221D01*
X154957000Y-108220500D01*
X154957000Y-108695500D01*
X154955856Y-108718779D01*
X154952437Y-108741834D01*
X154946773Y-108764443D01*
X154938921Y-108786387D01*
X154928956Y-108807457D01*
X154916974Y-108827448D01*
X154903090Y-108846168D01*
X154887438Y-108863438D01*
X154870168Y-108879090D01*
X154851448Y-108892974D01*
X154831457Y-108904956D01*
X154810387Y-108914921D01*
X154788443Y-108922773D01*
X154765834Y-108928437D01*
X154742779Y-108931856D01*
X154719500Y-108933000D01*
X154144500Y-108933000D01*
X154121221Y-108931856D01*
X154098166Y-108928437D01*
X154075557Y-108922773D01*
X154053613Y-108914921D01*
X154032543Y-108904956D01*
X154012552Y-108892974D01*
X153993832Y-108879090D01*
X153976562Y-108863438D01*
X153960910Y-108846168D01*
X153947026Y-108827448D01*
X153935044Y-108807457D01*
X153925079Y-108786387D01*
X153917227Y-108764443D01*
X153911563Y-108741834D01*
X153908144Y-108718779D01*
X153907000Y-108695500D01*
X153907000Y-108220500D01*
X153908144Y-108197221D01*
X153911563Y-108174166D01*
X153917227Y-108151557D01*
X153925079Y-108129613D01*
X153935044Y-108108543D01*
X153947026Y-108088552D01*
X153960910Y-108069832D01*
X153976562Y-108052562D01*
X153993832Y-108036910D01*
X154012552Y-108023026D01*
X154032543Y-108011044D01*
X154053613Y-108001079D01*
X154075557Y-107993227D01*
X154098166Y-107987563D01*
X154121221Y-107984144D01*
X154144500Y-107983000D01*
X154719500Y-107983000D01*
X154742779Y-107984144D01*
X154742779Y-107984144D01*
G37*
D11*
G04 #@! TD*
G04 #@! TO.P,D2,2*
G04 #@! TO.N,Net-(D2-Pad2)*
X154432000Y-108458000D03*
D10*
G04 #@! TO.N,GND*
G04 #@! TO.C,D2*
G36*
X156492779Y-107984144D02*
X156515834Y-107987563D01*
X156538443Y-107993227D01*
X156560387Y-108001079D01*
X156581457Y-108011044D01*
X156601448Y-108023026D01*
X156620168Y-108036910D01*
X156637438Y-108052562D01*
X156653090Y-108069832D01*
X156666974Y-108088552D01*
X156678956Y-108108543D01*
X156688921Y-108129613D01*
X156696773Y-108151557D01*
X156702437Y-108174166D01*
X156705856Y-108197221D01*
X156707000Y-108220500D01*
X156707000Y-108695500D01*
X156705856Y-108718779D01*
X156702437Y-108741834D01*
X156696773Y-108764443D01*
X156688921Y-108786387D01*
X156678956Y-108807457D01*
X156666974Y-108827448D01*
X156653090Y-108846168D01*
X156637438Y-108863438D01*
X156620168Y-108879090D01*
X156601448Y-108892974D01*
X156581457Y-108904956D01*
X156560387Y-108914921D01*
X156538443Y-108922773D01*
X156515834Y-108928437D01*
X156492779Y-108931856D01*
X156469500Y-108933000D01*
X155894500Y-108933000D01*
X155871221Y-108931856D01*
X155848166Y-108928437D01*
X155825557Y-108922773D01*
X155803613Y-108914921D01*
X155782543Y-108904956D01*
X155762552Y-108892974D01*
X155743832Y-108879090D01*
X155726562Y-108863438D01*
X155710910Y-108846168D01*
X155697026Y-108827448D01*
X155685044Y-108807457D01*
X155675079Y-108786387D01*
X155667227Y-108764443D01*
X155661563Y-108741834D01*
X155658144Y-108718779D01*
X155657000Y-108695500D01*
X155657000Y-108220500D01*
X155658144Y-108197221D01*
X155661563Y-108174166D01*
X155667227Y-108151557D01*
X155675079Y-108129613D01*
X155685044Y-108108543D01*
X155697026Y-108088552D01*
X155710910Y-108069832D01*
X155726562Y-108052562D01*
X155743832Y-108036910D01*
X155762552Y-108023026D01*
X155782543Y-108011044D01*
X155803613Y-108001079D01*
X155825557Y-107993227D01*
X155848166Y-107987563D01*
X155871221Y-107984144D01*
X155894500Y-107983000D01*
X156469500Y-107983000D01*
X156492779Y-107984144D01*
X156492779Y-107984144D01*
G37*
D11*
G04 #@! TD*
G04 #@! TO.P,D2,1*
G04 #@! TO.N,GND*
X156182000Y-108458000D03*
D10*
G04 #@! TO.N,SDA*
G04 #@! TO.C,R5*
G36*
X150424779Y-109762144D02*
X150447834Y-109765563D01*
X150470443Y-109771227D01*
X150492387Y-109779079D01*
X150513457Y-109789044D01*
X150533448Y-109801026D01*
X150552168Y-109814910D01*
X150569438Y-109830562D01*
X150585090Y-109847832D01*
X150598974Y-109866552D01*
X150610956Y-109886543D01*
X150620921Y-109907613D01*
X150628773Y-109929557D01*
X150634437Y-109952166D01*
X150637856Y-109975221D01*
X150639000Y-109998500D01*
X150639000Y-110473500D01*
X150637856Y-110496779D01*
X150634437Y-110519834D01*
X150628773Y-110542443D01*
X150620921Y-110564387D01*
X150610956Y-110585457D01*
X150598974Y-110605448D01*
X150585090Y-110624168D01*
X150569438Y-110641438D01*
X150552168Y-110657090D01*
X150533448Y-110670974D01*
X150513457Y-110682956D01*
X150492387Y-110692921D01*
X150470443Y-110700773D01*
X150447834Y-110706437D01*
X150424779Y-110709856D01*
X150401500Y-110711000D01*
X149826500Y-110711000D01*
X149803221Y-110709856D01*
X149780166Y-110706437D01*
X149757557Y-110700773D01*
X149735613Y-110692921D01*
X149714543Y-110682956D01*
X149694552Y-110670974D01*
X149675832Y-110657090D01*
X149658562Y-110641438D01*
X149642910Y-110624168D01*
X149629026Y-110605448D01*
X149617044Y-110585457D01*
X149607079Y-110564387D01*
X149599227Y-110542443D01*
X149593563Y-110519834D01*
X149590144Y-110496779D01*
X149589000Y-110473500D01*
X149589000Y-109998500D01*
X149590144Y-109975221D01*
X149593563Y-109952166D01*
X149599227Y-109929557D01*
X149607079Y-109907613D01*
X149617044Y-109886543D01*
X149629026Y-109866552D01*
X149642910Y-109847832D01*
X149658562Y-109830562D01*
X149675832Y-109814910D01*
X149694552Y-109801026D01*
X149714543Y-109789044D01*
X149735613Y-109779079D01*
X149757557Y-109771227D01*
X149780166Y-109765563D01*
X149803221Y-109762144D01*
X149826500Y-109761000D01*
X150401500Y-109761000D01*
X150424779Y-109762144D01*
X150424779Y-109762144D01*
G37*
D11*
G04 #@! TD*
G04 #@! TO.P,R5,1*
G04 #@! TO.N,SDA*
X150114000Y-110236000D03*
D10*
G04 #@! TO.N,Net-(D1-Pad2)*
G04 #@! TO.C,R5*
G36*
X152174779Y-109762144D02*
X152197834Y-109765563D01*
X152220443Y-109771227D01*
X152242387Y-109779079D01*
X152263457Y-109789044D01*
X152283448Y-109801026D01*
X152302168Y-109814910D01*
X152319438Y-109830562D01*
X152335090Y-109847832D01*
X152348974Y-109866552D01*
X152360956Y-109886543D01*
X152370921Y-109907613D01*
X152378773Y-109929557D01*
X152384437Y-109952166D01*
X152387856Y-109975221D01*
X152389000Y-109998500D01*
X152389000Y-110473500D01*
X152387856Y-110496779D01*
X152384437Y-110519834D01*
X152378773Y-110542443D01*
X152370921Y-110564387D01*
X152360956Y-110585457D01*
X152348974Y-110605448D01*
X152335090Y-110624168D01*
X152319438Y-110641438D01*
X152302168Y-110657090D01*
X152283448Y-110670974D01*
X152263457Y-110682956D01*
X152242387Y-110692921D01*
X152220443Y-110700773D01*
X152197834Y-110706437D01*
X152174779Y-110709856D01*
X152151500Y-110711000D01*
X151576500Y-110711000D01*
X151553221Y-110709856D01*
X151530166Y-110706437D01*
X151507557Y-110700773D01*
X151485613Y-110692921D01*
X151464543Y-110682956D01*
X151444552Y-110670974D01*
X151425832Y-110657090D01*
X151408562Y-110641438D01*
X151392910Y-110624168D01*
X151379026Y-110605448D01*
X151367044Y-110585457D01*
X151357079Y-110564387D01*
X151349227Y-110542443D01*
X151343563Y-110519834D01*
X151340144Y-110496779D01*
X151339000Y-110473500D01*
X151339000Y-109998500D01*
X151340144Y-109975221D01*
X151343563Y-109952166D01*
X151349227Y-109929557D01*
X151357079Y-109907613D01*
X151367044Y-109886543D01*
X151379026Y-109866552D01*
X151392910Y-109847832D01*
X151408562Y-109830562D01*
X151425832Y-109814910D01*
X151444552Y-109801026D01*
X151464543Y-109789044D01*
X151485613Y-109779079D01*
X151507557Y-109771227D01*
X151530166Y-109765563D01*
X151553221Y-109762144D01*
X151576500Y-109761000D01*
X152151500Y-109761000D01*
X152174779Y-109762144D01*
X152174779Y-109762144D01*
G37*
D11*
G04 #@! TD*
G04 #@! TO.P,R5,2*
G04 #@! TO.N,Net-(D1-Pad2)*
X151864000Y-110236000D03*
D10*
G04 #@! TO.N,Net-(D2-Pad2)*
G04 #@! TO.C,R6*
G36*
X152174779Y-107984144D02*
X152197834Y-107987563D01*
X152220443Y-107993227D01*
X152242387Y-108001079D01*
X152263457Y-108011044D01*
X152283448Y-108023026D01*
X152302168Y-108036910D01*
X152319438Y-108052562D01*
X152335090Y-108069832D01*
X152348974Y-108088552D01*
X152360956Y-108108543D01*
X152370921Y-108129613D01*
X152378773Y-108151557D01*
X152384437Y-108174166D01*
X152387856Y-108197221D01*
X152389000Y-108220500D01*
X152389000Y-108695500D01*
X152387856Y-108718779D01*
X152384437Y-108741834D01*
X152378773Y-108764443D01*
X152370921Y-108786387D01*
X152360956Y-108807457D01*
X152348974Y-108827448D01*
X152335090Y-108846168D01*
X152319438Y-108863438D01*
X152302168Y-108879090D01*
X152283448Y-108892974D01*
X152263457Y-108904956D01*
X152242387Y-108914921D01*
X152220443Y-108922773D01*
X152197834Y-108928437D01*
X152174779Y-108931856D01*
X152151500Y-108933000D01*
X151576500Y-108933000D01*
X151553221Y-108931856D01*
X151530166Y-108928437D01*
X151507557Y-108922773D01*
X151485613Y-108914921D01*
X151464543Y-108904956D01*
X151444552Y-108892974D01*
X151425832Y-108879090D01*
X151408562Y-108863438D01*
X151392910Y-108846168D01*
X151379026Y-108827448D01*
X151367044Y-108807457D01*
X151357079Y-108786387D01*
X151349227Y-108764443D01*
X151343563Y-108741834D01*
X151340144Y-108718779D01*
X151339000Y-108695500D01*
X151339000Y-108220500D01*
X151340144Y-108197221D01*
X151343563Y-108174166D01*
X151349227Y-108151557D01*
X151357079Y-108129613D01*
X151367044Y-108108543D01*
X151379026Y-108088552D01*
X151392910Y-108069832D01*
X151408562Y-108052562D01*
X151425832Y-108036910D01*
X151444552Y-108023026D01*
X151464543Y-108011044D01*
X151485613Y-108001079D01*
X151507557Y-107993227D01*
X151530166Y-107987563D01*
X151553221Y-107984144D01*
X151576500Y-107983000D01*
X152151500Y-107983000D01*
X152174779Y-107984144D01*
X152174779Y-107984144D01*
G37*
D11*
G04 #@! TD*
G04 #@! TO.P,R6,2*
G04 #@! TO.N,Net-(D2-Pad2)*
X151864000Y-108458000D03*
D10*
G04 #@! TO.N,+3V3*
G04 #@! TO.C,R6*
G36*
X150424779Y-107984144D02*
X150447834Y-107987563D01*
X150470443Y-107993227D01*
X150492387Y-108001079D01*
X150513457Y-108011044D01*
X150533448Y-108023026D01*
X150552168Y-108036910D01*
X150569438Y-108052562D01*
X150585090Y-108069832D01*
X150598974Y-108088552D01*
X150610956Y-108108543D01*
X150620921Y-108129613D01*
X150628773Y-108151557D01*
X150634437Y-108174166D01*
X150637856Y-108197221D01*
X150639000Y-108220500D01*
X150639000Y-108695500D01*
X150637856Y-108718779D01*
X150634437Y-108741834D01*
X150628773Y-108764443D01*
X150620921Y-108786387D01*
X150610956Y-108807457D01*
X150598974Y-108827448D01*
X150585090Y-108846168D01*
X150569438Y-108863438D01*
X150552168Y-108879090D01*
X150533448Y-108892974D01*
X150513457Y-108904956D01*
X150492387Y-108914921D01*
X150470443Y-108922773D01*
X150447834Y-108928437D01*
X150424779Y-108931856D01*
X150401500Y-108933000D01*
X149826500Y-108933000D01*
X149803221Y-108931856D01*
X149780166Y-108928437D01*
X149757557Y-108922773D01*
X149735613Y-108914921D01*
X149714543Y-108904956D01*
X149694552Y-108892974D01*
X149675832Y-108879090D01*
X149658562Y-108863438D01*
X149642910Y-108846168D01*
X149629026Y-108827448D01*
X149617044Y-108807457D01*
X149607079Y-108786387D01*
X149599227Y-108764443D01*
X149593563Y-108741834D01*
X149590144Y-108718779D01*
X149589000Y-108695500D01*
X149589000Y-108220500D01*
X149590144Y-108197221D01*
X149593563Y-108174166D01*
X149599227Y-108151557D01*
X149607079Y-108129613D01*
X149617044Y-108108543D01*
X149629026Y-108088552D01*
X149642910Y-108069832D01*
X149658562Y-108052562D01*
X149675832Y-108036910D01*
X149694552Y-108023026D01*
X149714543Y-108011044D01*
X149735613Y-108001079D01*
X149757557Y-107993227D01*
X149780166Y-107987563D01*
X149803221Y-107984144D01*
X149826500Y-107983000D01*
X150401500Y-107983000D01*
X150424779Y-107984144D01*
X150424779Y-107984144D01*
G37*
D11*
G04 #@! TD*
G04 #@! TO.P,R6,1*
G04 #@! TO.N,+3V3*
X150114000Y-108458000D03*
D14*
G04 #@! TO.N,SDA*
X146304000Y-109728000D03*
G04 #@! TO.N,+3V3*
X152908000Y-88646000D03*
G04 #@! TD*
D15*
G04 #@! TO.N,GND*
X149307448Y-109370490D02*
X161393510Y-109370490D01*
X147886958Y-107950000D02*
X149307448Y-109370490D01*
X162052000Y-108712000D02*
X162052000Y-104140000D01*
X161393510Y-109370490D02*
X162052000Y-108712000D01*
G04 #@! TO.N,INT2AG*
X156972000Y-105217630D02*
X156972000Y-104140000D01*
X155763630Y-106426000D02*
X156972000Y-105217630D01*
X148902958Y-106426000D02*
X155763630Y-106426000D01*
X147886958Y-105410000D02*
X148902958Y-106426000D01*
G04 #@! TO.N,INT1AG*
X154432000Y-104140000D02*
X152908000Y-105664000D01*
X150680958Y-105664000D02*
X147886958Y-102870000D01*
X150680958Y-105664000D02*
X152908000Y-105664000D01*
G04 #@! TO.N,INTM*
X148082000Y-100330000D02*
X151892000Y-104140000D01*
G04 #@! TO.N,DRDYM*
X148082000Y-97790000D02*
X151892000Y-101600000D01*
G04 #@! TO.N,SDA*
X150114000Y-110236000D02*
X147320000Y-110236000D01*
X147320000Y-110236000D02*
X146812000Y-110236000D01*
X146812000Y-110236000D02*
X146304000Y-109728000D01*
G04 #@! TO.N,+3V3*
X156972000Y-88648600D02*
X158242000Y-88648600D01*
X155702000Y-88648600D02*
X156972000Y-88648600D01*
X150114000Y-108458000D02*
X151384000Y-107188000D01*
X151384000Y-107188000D02*
X158496000Y-107188000D01*
X159512000Y-106172000D02*
X159512000Y-104140000D01*
X158496000Y-107188000D02*
X159512000Y-106172000D01*
X155702000Y-88648600D02*
X152910600Y-88648600D01*
X152910600Y-88648600D02*
X152908000Y-88646000D01*
G04 #@! TO.N,SDOAG*
X158242000Y-90398600D02*
X160274000Y-90398600D01*
X158242000Y-90398600D02*
X160528000Y-90398600D01*
X154660600Y-93980000D02*
X154432000Y-93980000D01*
X158242000Y-90398600D02*
X154660600Y-93980000D01*
G04 #@! TO.N,SDOM*
X155702000Y-90398600D02*
X153416000Y-90398600D01*
X153416000Y-92456000D02*
X151892000Y-93980000D01*
X153416000Y-90398600D02*
X153416000Y-92456000D01*
G04 #@! TO.N,Net-(D1-Pad2)*
X151864000Y-110236000D02*
X154404000Y-110236000D01*
G04 #@! TO.N,Net-(D2-Pad2)*
X151864000Y-108458000D02*
X154404000Y-108458000D01*
G04 #@! TD*
D16*
G04 #@! TO.N,GND*
G36*
X137250247Y-87563167D02*
X136890958Y-88430567D01*
X136890958Y-89369433D01*
X137250247Y-90236833D01*
X137914125Y-90900711D01*
X138781525Y-91260000D01*
X139720391Y-91260000D01*
X140587791Y-90900711D01*
X141251669Y-90236833D01*
X141610958Y-89369433D01*
X141610958Y-88430567D01*
X141251669Y-87563167D01*
X140758502Y-87070000D01*
X162515334Y-87070000D01*
X163013698Y-87132958D01*
X163438893Y-87301305D01*
X163808858Y-87570101D01*
X164100356Y-87922462D01*
X164295067Y-88336244D01*
X164387093Y-88818662D01*
X164390000Y-88911164D01*
X164390001Y-109175326D01*
X164327042Y-109673699D01*
X164158697Y-110098889D01*
X163889899Y-110468859D01*
X163537541Y-110760355D01*
X163123756Y-110955067D01*
X162641339Y-111047093D01*
X162548836Y-111050000D01*
X155350153Y-111050000D01*
X155509078Y-110812152D01*
X155576440Y-110473500D01*
X155576440Y-109998500D01*
X155509078Y-109659848D01*
X155317247Y-109372753D01*
X155292705Y-109356355D01*
X155345247Y-109321247D01*
X155537078Y-109034152D01*
X155604440Y-108695500D01*
X155604440Y-108220500D01*
X155563265Y-108013500D01*
X158414699Y-108013500D01*
X158496000Y-108029672D01*
X158577301Y-108013500D01*
X158577303Y-108013500D01*
X158818094Y-107965604D01*
X159091152Y-107783152D01*
X159137209Y-107714223D01*
X160038226Y-106813207D01*
X160107152Y-106767152D01*
X160289604Y-106494094D01*
X160337500Y-106253303D01*
X160337500Y-106253302D01*
X160353672Y-106172000D01*
X160337500Y-106090699D01*
X160337500Y-105290157D01*
X160696320Y-104931337D01*
X160909000Y-104417881D01*
X160909000Y-103862119D01*
X160696320Y-103348663D01*
X160303337Y-102955680D01*
X159789881Y-102743000D01*
X159234119Y-102743000D01*
X158720663Y-102955680D01*
X158327680Y-103348663D01*
X158242000Y-103555513D01*
X158156320Y-103348663D01*
X157763337Y-102955680D01*
X157249881Y-102743000D01*
X156694119Y-102743000D01*
X156180663Y-102955680D01*
X155787680Y-103348663D01*
X155702000Y-103555513D01*
X155616320Y-103348663D01*
X155223337Y-102955680D01*
X154709881Y-102743000D01*
X154154119Y-102743000D01*
X153640663Y-102955680D01*
X153247680Y-103348663D01*
X153162000Y-103555513D01*
X153076320Y-103348663D01*
X152683337Y-102955680D01*
X152476487Y-102870000D01*
X152683337Y-102784320D01*
X153076320Y-102391337D01*
X153289000Y-101877881D01*
X153289000Y-101322119D01*
X153076320Y-100808663D01*
X152683337Y-100415680D01*
X152476487Y-100330000D01*
X152683337Y-100244320D01*
X153076320Y-99851337D01*
X153289000Y-99337881D01*
X153289000Y-98782119D01*
X153076320Y-98268663D01*
X152683337Y-97875680D01*
X152476487Y-97790000D01*
X152683337Y-97704320D01*
X153076320Y-97311337D01*
X153289000Y-96797881D01*
X153289000Y-96242119D01*
X153076320Y-95728663D01*
X152683337Y-95335680D01*
X152476487Y-95250000D01*
X152683337Y-95164320D01*
X153076320Y-94771337D01*
X153162000Y-94564487D01*
X153247680Y-94771337D01*
X153640663Y-95164320D01*
X154154119Y-95377000D01*
X154709881Y-95377000D01*
X155223337Y-95164320D01*
X155616320Y-94771337D01*
X155702000Y-94564487D01*
X155787680Y-94771337D01*
X156180663Y-95164320D01*
X156694119Y-95377000D01*
X157249881Y-95377000D01*
X157763337Y-95164320D01*
X158156320Y-94771337D01*
X158242000Y-94564487D01*
X158327680Y-94771337D01*
X158720663Y-95164320D01*
X159234119Y-95377000D01*
X159789881Y-95377000D01*
X160303337Y-95164320D01*
X160696320Y-94771337D01*
X160782000Y-94564487D01*
X160867680Y-94771337D01*
X161260663Y-95164320D01*
X161774119Y-95377000D01*
X162329881Y-95377000D01*
X162843337Y-95164320D01*
X163236320Y-94771337D01*
X163449000Y-94257881D01*
X163449000Y-93702119D01*
X163236320Y-93188663D01*
X162843337Y-92795680D01*
X162329881Y-92583000D01*
X161774119Y-92583000D01*
X161260663Y-92795680D01*
X160867680Y-93188663D01*
X160782000Y-93395513D01*
X160696320Y-93188663D01*
X160303337Y-92795680D01*
X159789881Y-92583000D01*
X159234119Y-92583000D01*
X158720663Y-92795680D01*
X158327680Y-93188663D01*
X158242000Y-93395513D01*
X158156320Y-93188663D01*
X157763337Y-92795680D01*
X157249881Y-92583000D01*
X157225033Y-92583000D01*
X158236994Y-91571040D01*
X158479500Y-91571040D01*
X158818152Y-91503678D01*
X159105247Y-91311847D01*
X159163878Y-91224100D01*
X159589531Y-91224100D01*
X159614753Y-91261847D01*
X159901848Y-91453678D01*
X160240500Y-91521040D01*
X160815500Y-91521040D01*
X161154152Y-91453678D01*
X161441247Y-91261847D01*
X161633078Y-90974752D01*
X161700440Y-90636100D01*
X161700440Y-90161100D01*
X161633078Y-89822448D01*
X161441247Y-89535353D01*
X161154152Y-89343522D01*
X160815500Y-89276160D01*
X160240500Y-89276160D01*
X159901848Y-89343522D01*
X159614753Y-89535353D01*
X159589531Y-89573100D01*
X159163878Y-89573100D01*
X159130803Y-89523600D01*
X159297078Y-89274752D01*
X159364440Y-88936100D01*
X159364440Y-88361100D01*
X159297078Y-88022448D01*
X159105247Y-87735353D01*
X158818152Y-87543522D01*
X158479500Y-87476160D01*
X158004500Y-87476160D01*
X157665848Y-87543522D01*
X157378753Y-87735353D01*
X157320122Y-87823100D01*
X156623878Y-87823100D01*
X156565247Y-87735353D01*
X156278152Y-87543522D01*
X155939500Y-87476160D01*
X155464500Y-87476160D01*
X155125848Y-87543522D01*
X154838753Y-87735353D01*
X154780122Y-87823100D01*
X153548811Y-87823100D01*
X153494280Y-87768569D01*
X153113874Y-87611000D01*
X152702126Y-87611000D01*
X152321720Y-87768569D01*
X152030569Y-88059720D01*
X151873000Y-88440126D01*
X151873000Y-88851874D01*
X152030569Y-89232280D01*
X152321720Y-89523431D01*
X152469749Y-89584747D01*
X152310922Y-89822448D01*
X152243560Y-90161100D01*
X152243560Y-90636100D01*
X152310922Y-90974752D01*
X152502753Y-91261847D01*
X152590500Y-91320478D01*
X152590501Y-92114066D01*
X152121567Y-92583000D01*
X151614119Y-92583000D01*
X151100663Y-92795680D01*
X150707680Y-93188663D01*
X150495000Y-93702119D01*
X150495000Y-94257881D01*
X150707680Y-94771337D01*
X151100663Y-95164320D01*
X151307513Y-95250000D01*
X151100663Y-95335680D01*
X150707680Y-95728663D01*
X150495000Y-96242119D01*
X150495000Y-96797881D01*
X150707680Y-97311337D01*
X151100663Y-97704320D01*
X151307513Y-97790000D01*
X151100663Y-97875680D01*
X150707680Y-98268663D01*
X150495000Y-98782119D01*
X150495000Y-99035568D01*
X149283958Y-97824526D01*
X149283958Y-97512119D01*
X149071278Y-96998663D01*
X148678295Y-96605680D01*
X148471445Y-96520000D01*
X148678295Y-96434320D01*
X149071278Y-96041337D01*
X149283958Y-95527881D01*
X149283958Y-94972119D01*
X149071278Y-94458663D01*
X148678295Y-94065680D01*
X148471445Y-93980000D01*
X148678295Y-93894320D01*
X149071278Y-93501337D01*
X149283958Y-92987881D01*
X149283958Y-92432119D01*
X149071278Y-91918663D01*
X148678295Y-91525680D01*
X148471445Y-91440000D01*
X148678295Y-91354320D01*
X149071278Y-90961337D01*
X149283958Y-90447881D01*
X149283958Y-89892119D01*
X149071278Y-89378663D01*
X148678295Y-88985680D01*
X148164839Y-88773000D01*
X147609077Y-88773000D01*
X147095621Y-88985680D01*
X146702638Y-89378663D01*
X146489958Y-89892119D01*
X146489958Y-90447881D01*
X146702638Y-90961337D01*
X147095621Y-91354320D01*
X147302471Y-91440000D01*
X147095621Y-91525680D01*
X146702638Y-91918663D01*
X146489958Y-92432119D01*
X146489958Y-92987881D01*
X146702638Y-93501337D01*
X147095621Y-93894320D01*
X147302471Y-93980000D01*
X147095621Y-94065680D01*
X146702638Y-94458663D01*
X146489958Y-94972119D01*
X146489958Y-95527881D01*
X146702638Y-96041337D01*
X147095621Y-96434320D01*
X147302471Y-96520000D01*
X147095621Y-96605680D01*
X146702638Y-96998663D01*
X146489958Y-97512119D01*
X146489958Y-98067881D01*
X146702638Y-98581337D01*
X147095621Y-98974320D01*
X147302471Y-99060000D01*
X147095621Y-99145680D01*
X146702638Y-99538663D01*
X146489958Y-100052119D01*
X146489958Y-100607881D01*
X146702638Y-101121337D01*
X147095621Y-101514320D01*
X147302471Y-101600000D01*
X147095621Y-101685680D01*
X146702638Y-102078663D01*
X146489958Y-102592119D01*
X146489958Y-103147881D01*
X146702638Y-103661337D01*
X147095621Y-104054320D01*
X147302471Y-104140000D01*
X147095621Y-104225680D01*
X146702638Y-104618663D01*
X146489958Y-105132119D01*
X146489958Y-105687881D01*
X146702638Y-106201337D01*
X147095621Y-106594320D01*
X147609077Y-106807000D01*
X148116525Y-106807000D01*
X148261751Y-106952226D01*
X148307806Y-107021152D01*
X148580864Y-107203604D01*
X148821655Y-107251500D01*
X148821656Y-107251500D01*
X148902958Y-107267672D01*
X148984259Y-107251500D01*
X150153068Y-107251500D01*
X150069008Y-107335560D01*
X149826500Y-107335560D01*
X149487848Y-107402922D01*
X149200753Y-107594753D01*
X149008922Y-107881848D01*
X148941560Y-108220500D01*
X148941560Y-108695500D01*
X149008922Y-109034152D01*
X149200753Y-109321247D01*
X149239295Y-109347000D01*
X149200753Y-109372753D01*
X149175531Y-109410500D01*
X147292763Y-109410500D01*
X147181431Y-109141720D01*
X146890280Y-108850569D01*
X146509874Y-108693000D01*
X146098126Y-108693000D01*
X145717720Y-108850569D01*
X145426569Y-109141720D01*
X145269000Y-109522126D01*
X145269000Y-109933874D01*
X145426569Y-110314280D01*
X145717720Y-110605431D01*
X146098126Y-110763000D01*
X146171310Y-110763000D01*
X146216848Y-110831152D01*
X146489906Y-111013604D01*
X146672882Y-111050000D01*
X140758502Y-111050000D01*
X141251669Y-110556833D01*
X141610958Y-109689433D01*
X141610958Y-108750567D01*
X141251669Y-107883167D01*
X140587791Y-107219289D01*
X139720391Y-106860000D01*
X138781525Y-106860000D01*
X137914125Y-107219289D01*
X137250247Y-107883167D01*
X136890958Y-108750567D01*
X136890958Y-109689433D01*
X137250247Y-110556833D01*
X137743414Y-111050000D01*
X137204667Y-111050000D01*
X136706301Y-110987042D01*
X136281111Y-110818697D01*
X135911141Y-110549899D01*
X135619645Y-110197541D01*
X135424933Y-109783756D01*
X135332907Y-109301339D01*
X135330000Y-109208836D01*
X135330000Y-88944666D01*
X135392958Y-88446302D01*
X135561305Y-88021107D01*
X135830101Y-87651142D01*
X136182462Y-87359644D01*
X136596244Y-87164933D01*
X137078662Y-87072907D01*
X137171164Y-87070000D01*
X137743414Y-87070000D01*
X137250247Y-87563167D01*
X137250247Y-87563167D01*
G37*
X137250247Y-87563167D02*
X136890958Y-88430567D01*
X136890958Y-89369433D01*
X137250247Y-90236833D01*
X137914125Y-90900711D01*
X138781525Y-91260000D01*
X139720391Y-91260000D01*
X140587791Y-90900711D01*
X141251669Y-90236833D01*
X141610958Y-89369433D01*
X141610958Y-88430567D01*
X141251669Y-87563167D01*
X140758502Y-87070000D01*
X162515334Y-87070000D01*
X163013698Y-87132958D01*
X163438893Y-87301305D01*
X163808858Y-87570101D01*
X164100356Y-87922462D01*
X164295067Y-88336244D01*
X164387093Y-88818662D01*
X164390000Y-88911164D01*
X164390001Y-109175326D01*
X164327042Y-109673699D01*
X164158697Y-110098889D01*
X163889899Y-110468859D01*
X163537541Y-110760355D01*
X163123756Y-110955067D01*
X162641339Y-111047093D01*
X162548836Y-111050000D01*
X155350153Y-111050000D01*
X155509078Y-110812152D01*
X155576440Y-110473500D01*
X155576440Y-109998500D01*
X155509078Y-109659848D01*
X155317247Y-109372753D01*
X155292705Y-109356355D01*
X155345247Y-109321247D01*
X155537078Y-109034152D01*
X155604440Y-108695500D01*
X155604440Y-108220500D01*
X155563265Y-108013500D01*
X158414699Y-108013500D01*
X158496000Y-108029672D01*
X158577301Y-108013500D01*
X158577303Y-108013500D01*
X158818094Y-107965604D01*
X159091152Y-107783152D01*
X159137209Y-107714223D01*
X160038226Y-106813207D01*
X160107152Y-106767152D01*
X160289604Y-106494094D01*
X160337500Y-106253303D01*
X160337500Y-106253302D01*
X160353672Y-106172000D01*
X160337500Y-106090699D01*
X160337500Y-105290157D01*
X160696320Y-104931337D01*
X160909000Y-104417881D01*
X160909000Y-103862119D01*
X160696320Y-103348663D01*
X160303337Y-102955680D01*
X159789881Y-102743000D01*
X159234119Y-102743000D01*
X158720663Y-102955680D01*
X158327680Y-103348663D01*
X158242000Y-103555513D01*
X158156320Y-103348663D01*
X157763337Y-102955680D01*
X157249881Y-102743000D01*
X156694119Y-102743000D01*
X156180663Y-102955680D01*
X155787680Y-103348663D01*
X155702000Y-103555513D01*
X155616320Y-103348663D01*
X155223337Y-102955680D01*
X154709881Y-102743000D01*
X154154119Y-102743000D01*
X153640663Y-102955680D01*
X153247680Y-103348663D01*
X153162000Y-103555513D01*
X153076320Y-103348663D01*
X152683337Y-102955680D01*
X152476487Y-102870000D01*
X152683337Y-102784320D01*
X153076320Y-102391337D01*
X153289000Y-101877881D01*
X153289000Y-101322119D01*
X153076320Y-100808663D01*
X152683337Y-100415680D01*
X152476487Y-100330000D01*
X152683337Y-100244320D01*
X153076320Y-99851337D01*
X153289000Y-99337881D01*
X153289000Y-98782119D01*
X153076320Y-98268663D01*
X152683337Y-97875680D01*
X152476487Y-97790000D01*
X152683337Y-97704320D01*
X153076320Y-97311337D01*
X153289000Y-96797881D01*
X153289000Y-96242119D01*
X153076320Y-95728663D01*
X152683337Y-95335680D01*
X152476487Y-95250000D01*
X152683337Y-95164320D01*
X153076320Y-94771337D01*
X153162000Y-94564487D01*
X153247680Y-94771337D01*
X153640663Y-95164320D01*
X154154119Y-95377000D01*
X154709881Y-95377000D01*
X155223337Y-95164320D01*
X155616320Y-94771337D01*
X155702000Y-94564487D01*
X155787680Y-94771337D01*
X156180663Y-95164320D01*
X156694119Y-95377000D01*
X157249881Y-95377000D01*
X157763337Y-95164320D01*
X158156320Y-94771337D01*
X158242000Y-94564487D01*
X158327680Y-94771337D01*
X158720663Y-95164320D01*
X159234119Y-95377000D01*
X159789881Y-95377000D01*
X160303337Y-95164320D01*
X160696320Y-94771337D01*
X160782000Y-94564487D01*
X160867680Y-94771337D01*
X161260663Y-95164320D01*
X161774119Y-95377000D01*
X162329881Y-95377000D01*
X162843337Y-95164320D01*
X163236320Y-94771337D01*
X163449000Y-94257881D01*
X163449000Y-93702119D01*
X163236320Y-93188663D01*
X162843337Y-92795680D01*
X162329881Y-92583000D01*
X161774119Y-92583000D01*
X161260663Y-92795680D01*
X160867680Y-93188663D01*
X160782000Y-93395513D01*
X160696320Y-93188663D01*
X160303337Y-92795680D01*
X159789881Y-92583000D01*
X159234119Y-92583000D01*
X158720663Y-92795680D01*
X158327680Y-93188663D01*
X158242000Y-93395513D01*
X158156320Y-93188663D01*
X157763337Y-92795680D01*
X157249881Y-92583000D01*
X157225033Y-92583000D01*
X158236994Y-91571040D01*
X158479500Y-91571040D01*
X158818152Y-91503678D01*
X159105247Y-91311847D01*
X159163878Y-91224100D01*
X159589531Y-91224100D01*
X159614753Y-91261847D01*
X159901848Y-91453678D01*
X160240500Y-91521040D01*
X160815500Y-91521040D01*
X161154152Y-91453678D01*
X161441247Y-91261847D01*
X161633078Y-90974752D01*
X161700440Y-90636100D01*
X161700440Y-90161100D01*
X161633078Y-89822448D01*
X161441247Y-89535353D01*
X161154152Y-89343522D01*
X160815500Y-89276160D01*
X160240500Y-89276160D01*
X159901848Y-89343522D01*
X159614753Y-89535353D01*
X159589531Y-89573100D01*
X159163878Y-89573100D01*
X159130803Y-89523600D01*
X159297078Y-89274752D01*
X159364440Y-88936100D01*
X159364440Y-88361100D01*
X159297078Y-88022448D01*
X159105247Y-87735353D01*
X158818152Y-87543522D01*
X158479500Y-87476160D01*
X158004500Y-87476160D01*
X157665848Y-87543522D01*
X157378753Y-87735353D01*
X157320122Y-87823100D01*
X156623878Y-87823100D01*
X156565247Y-87735353D01*
X156278152Y-87543522D01*
X155939500Y-87476160D01*
X155464500Y-87476160D01*
X155125848Y-87543522D01*
X154838753Y-87735353D01*
X154780122Y-87823100D01*
X153548811Y-87823100D01*
X153494280Y-87768569D01*
X153113874Y-87611000D01*
X152702126Y-87611000D01*
X152321720Y-87768569D01*
X152030569Y-88059720D01*
X151873000Y-88440126D01*
X151873000Y-88851874D01*
X152030569Y-89232280D01*
X152321720Y-89523431D01*
X152469749Y-89584747D01*
X152310922Y-89822448D01*
X152243560Y-90161100D01*
X152243560Y-90636100D01*
X152310922Y-90974752D01*
X152502753Y-91261847D01*
X152590500Y-91320478D01*
X152590501Y-92114066D01*
X152121567Y-92583000D01*
X151614119Y-92583000D01*
X151100663Y-92795680D01*
X150707680Y-93188663D01*
X150495000Y-93702119D01*
X150495000Y-94257881D01*
X150707680Y-94771337D01*
X151100663Y-95164320D01*
X151307513Y-95250000D01*
X151100663Y-95335680D01*
X150707680Y-95728663D01*
X150495000Y-96242119D01*
X150495000Y-96797881D01*
X150707680Y-97311337D01*
X151100663Y-97704320D01*
X151307513Y-97790000D01*
X151100663Y-97875680D01*
X150707680Y-98268663D01*
X150495000Y-98782119D01*
X150495000Y-99035568D01*
X149283958Y-97824526D01*
X149283958Y-97512119D01*
X149071278Y-96998663D01*
X148678295Y-96605680D01*
X148471445Y-96520000D01*
X148678295Y-96434320D01*
X149071278Y-96041337D01*
X149283958Y-95527881D01*
X149283958Y-94972119D01*
X149071278Y-94458663D01*
X148678295Y-94065680D01*
X148471445Y-93980000D01*
X148678295Y-93894320D01*
X149071278Y-93501337D01*
X149283958Y-92987881D01*
X149283958Y-92432119D01*
X149071278Y-91918663D01*
X148678295Y-91525680D01*
X148471445Y-91440000D01*
X148678295Y-91354320D01*
X149071278Y-90961337D01*
X149283958Y-90447881D01*
X149283958Y-89892119D01*
X149071278Y-89378663D01*
X148678295Y-88985680D01*
X148164839Y-88773000D01*
X147609077Y-88773000D01*
X147095621Y-88985680D01*
X146702638Y-89378663D01*
X146489958Y-89892119D01*
X146489958Y-90447881D01*
X146702638Y-90961337D01*
X147095621Y-91354320D01*
X147302471Y-91440000D01*
X147095621Y-91525680D01*
X146702638Y-91918663D01*
X146489958Y-92432119D01*
X146489958Y-92987881D01*
X146702638Y-93501337D01*
X147095621Y-93894320D01*
X147302471Y-93980000D01*
X147095621Y-94065680D01*
X146702638Y-94458663D01*
X146489958Y-94972119D01*
X146489958Y-95527881D01*
X146702638Y-96041337D01*
X147095621Y-96434320D01*
X147302471Y-96520000D01*
X147095621Y-96605680D01*
X146702638Y-96998663D01*
X146489958Y-97512119D01*
X146489958Y-98067881D01*
X146702638Y-98581337D01*
X147095621Y-98974320D01*
X147302471Y-99060000D01*
X147095621Y-99145680D01*
X146702638Y-99538663D01*
X146489958Y-100052119D01*
X146489958Y-100607881D01*
X146702638Y-101121337D01*
X147095621Y-101514320D01*
X147302471Y-101600000D01*
X147095621Y-101685680D01*
X146702638Y-102078663D01*
X146489958Y-102592119D01*
X146489958Y-103147881D01*
X146702638Y-103661337D01*
X147095621Y-104054320D01*
X147302471Y-104140000D01*
X147095621Y-104225680D01*
X146702638Y-104618663D01*
X146489958Y-105132119D01*
X146489958Y-105687881D01*
X146702638Y-106201337D01*
X147095621Y-106594320D01*
X147609077Y-106807000D01*
X148116525Y-106807000D01*
X148261751Y-106952226D01*
X148307806Y-107021152D01*
X148580864Y-107203604D01*
X148821655Y-107251500D01*
X148821656Y-107251500D01*
X148902958Y-107267672D01*
X148984259Y-107251500D01*
X150153068Y-107251500D01*
X150069008Y-107335560D01*
X149826500Y-107335560D01*
X149487848Y-107402922D01*
X149200753Y-107594753D01*
X149008922Y-107881848D01*
X148941560Y-108220500D01*
X148941560Y-108695500D01*
X149008922Y-109034152D01*
X149200753Y-109321247D01*
X149239295Y-109347000D01*
X149200753Y-109372753D01*
X149175531Y-109410500D01*
X147292763Y-109410500D01*
X147181431Y-109141720D01*
X146890280Y-108850569D01*
X146509874Y-108693000D01*
X146098126Y-108693000D01*
X145717720Y-108850569D01*
X145426569Y-109141720D01*
X145269000Y-109522126D01*
X145269000Y-109933874D01*
X145426569Y-110314280D01*
X145717720Y-110605431D01*
X146098126Y-110763000D01*
X146171310Y-110763000D01*
X146216848Y-110831152D01*
X146489906Y-111013604D01*
X146672882Y-111050000D01*
X140758502Y-111050000D01*
X141251669Y-110556833D01*
X141610958Y-109689433D01*
X141610958Y-108750567D01*
X141251669Y-107883167D01*
X140587791Y-107219289D01*
X139720391Y-106860000D01*
X138781525Y-106860000D01*
X137914125Y-107219289D01*
X137250247Y-107883167D01*
X136890958Y-108750567D01*
X136890958Y-109689433D01*
X137250247Y-110556833D01*
X137743414Y-111050000D01*
X137204667Y-111050000D01*
X136706301Y-110987042D01*
X136281111Y-110818697D01*
X135911141Y-110549899D01*
X135619645Y-110197541D01*
X135424933Y-109783756D01*
X135332907Y-109301339D01*
X135330000Y-109208836D01*
X135330000Y-88944666D01*
X135392958Y-88446302D01*
X135561305Y-88021107D01*
X135830101Y-87651142D01*
X136182462Y-87359644D01*
X136596244Y-87164933D01*
X137078662Y-87072907D01*
X137171164Y-87070000D01*
X137743414Y-87070000D01*
X137250247Y-87563167D01*
G04 #@! TD*
M02*
