G04 #@! TF.GenerationSoftware,KiCad,Pcbnew,(5.0.0)*
G04 #@! TF.CreationDate,2018-12-16T16:19:50-06:00*
G04 #@! TF.ProjectId,IMUBreakout_Hardware,494D55427265616B6F75745F48617264,rev?*
G04 #@! TF.SameCoordinates,Original*
G04 #@! TF.FileFunction,Paste,Top*
G04 #@! TF.FilePolarity,Positive*
%FSLAX46Y46*%
G04 Gerber Fmt 4.6, Leading zero omitted, Abs format (unit mm)*
G04 Created by KiCad (PCBNEW (5.0.0)) date 12/16/18 16:19:50*
%MOMM*%
%LPD*%
G01*
G04 APERTURE LIST*
%ADD10C,0.100000*%
%ADD11C,0.950000*%
G04 APERTURE END LIST*
D10*
G04 #@! TO.C,R3*
G36*
X155962779Y-88124744D02*
X155985834Y-88128163D01*
X156008443Y-88133827D01*
X156030387Y-88141679D01*
X156051457Y-88151644D01*
X156071448Y-88163626D01*
X156090168Y-88177510D01*
X156107438Y-88193162D01*
X156123090Y-88210432D01*
X156136974Y-88229152D01*
X156148956Y-88249143D01*
X156158921Y-88270213D01*
X156166773Y-88292157D01*
X156172437Y-88314766D01*
X156175856Y-88337821D01*
X156177000Y-88361100D01*
X156177000Y-88936100D01*
X156175856Y-88959379D01*
X156172437Y-88982434D01*
X156166773Y-89005043D01*
X156158921Y-89026987D01*
X156148956Y-89048057D01*
X156136974Y-89068048D01*
X156123090Y-89086768D01*
X156107438Y-89104038D01*
X156090168Y-89119690D01*
X156071448Y-89133574D01*
X156051457Y-89145556D01*
X156030387Y-89155521D01*
X156008443Y-89163373D01*
X155985834Y-89169037D01*
X155962779Y-89172456D01*
X155939500Y-89173600D01*
X155464500Y-89173600D01*
X155441221Y-89172456D01*
X155418166Y-89169037D01*
X155395557Y-89163373D01*
X155373613Y-89155521D01*
X155352543Y-89145556D01*
X155332552Y-89133574D01*
X155313832Y-89119690D01*
X155296562Y-89104038D01*
X155280910Y-89086768D01*
X155267026Y-89068048D01*
X155255044Y-89048057D01*
X155245079Y-89026987D01*
X155237227Y-89005043D01*
X155231563Y-88982434D01*
X155228144Y-88959379D01*
X155227000Y-88936100D01*
X155227000Y-88361100D01*
X155228144Y-88337821D01*
X155231563Y-88314766D01*
X155237227Y-88292157D01*
X155245079Y-88270213D01*
X155255044Y-88249143D01*
X155267026Y-88229152D01*
X155280910Y-88210432D01*
X155296562Y-88193162D01*
X155313832Y-88177510D01*
X155332552Y-88163626D01*
X155352543Y-88151644D01*
X155373613Y-88141679D01*
X155395557Y-88133827D01*
X155418166Y-88128163D01*
X155441221Y-88124744D01*
X155464500Y-88123600D01*
X155939500Y-88123600D01*
X155962779Y-88124744D01*
X155962779Y-88124744D01*
G37*
D11*
X155702000Y-88648600D03*
D10*
G36*
X155962779Y-89874744D02*
X155985834Y-89878163D01*
X156008443Y-89883827D01*
X156030387Y-89891679D01*
X156051457Y-89901644D01*
X156071448Y-89913626D01*
X156090168Y-89927510D01*
X156107438Y-89943162D01*
X156123090Y-89960432D01*
X156136974Y-89979152D01*
X156148956Y-89999143D01*
X156158921Y-90020213D01*
X156166773Y-90042157D01*
X156172437Y-90064766D01*
X156175856Y-90087821D01*
X156177000Y-90111100D01*
X156177000Y-90686100D01*
X156175856Y-90709379D01*
X156172437Y-90732434D01*
X156166773Y-90755043D01*
X156158921Y-90776987D01*
X156148956Y-90798057D01*
X156136974Y-90818048D01*
X156123090Y-90836768D01*
X156107438Y-90854038D01*
X156090168Y-90869690D01*
X156071448Y-90883574D01*
X156051457Y-90895556D01*
X156030387Y-90905521D01*
X156008443Y-90913373D01*
X155985834Y-90919037D01*
X155962779Y-90922456D01*
X155939500Y-90923600D01*
X155464500Y-90923600D01*
X155441221Y-90922456D01*
X155418166Y-90919037D01*
X155395557Y-90913373D01*
X155373613Y-90905521D01*
X155352543Y-90895556D01*
X155332552Y-90883574D01*
X155313832Y-90869690D01*
X155296562Y-90854038D01*
X155280910Y-90836768D01*
X155267026Y-90818048D01*
X155255044Y-90798057D01*
X155245079Y-90776987D01*
X155237227Y-90755043D01*
X155231563Y-90732434D01*
X155228144Y-90709379D01*
X155227000Y-90686100D01*
X155227000Y-90111100D01*
X155228144Y-90087821D01*
X155231563Y-90064766D01*
X155237227Y-90042157D01*
X155245079Y-90020213D01*
X155255044Y-89999143D01*
X155267026Y-89979152D01*
X155280910Y-89960432D01*
X155296562Y-89943162D01*
X155313832Y-89927510D01*
X155332552Y-89913626D01*
X155352543Y-89901644D01*
X155373613Y-89891679D01*
X155395557Y-89883827D01*
X155418166Y-89878163D01*
X155441221Y-89874744D01*
X155464500Y-89873600D01*
X155939500Y-89873600D01*
X155962779Y-89874744D01*
X155962779Y-89874744D01*
G37*
D11*
X155702000Y-90398600D03*
G04 #@! TD*
D10*
G04 #@! TO.C,R1*
G36*
X158502779Y-89874744D02*
X158525834Y-89878163D01*
X158548443Y-89883827D01*
X158570387Y-89891679D01*
X158591457Y-89901644D01*
X158611448Y-89913626D01*
X158630168Y-89927510D01*
X158647438Y-89943162D01*
X158663090Y-89960432D01*
X158676974Y-89979152D01*
X158688956Y-89999143D01*
X158698921Y-90020213D01*
X158706773Y-90042157D01*
X158712437Y-90064766D01*
X158715856Y-90087821D01*
X158717000Y-90111100D01*
X158717000Y-90686100D01*
X158715856Y-90709379D01*
X158712437Y-90732434D01*
X158706773Y-90755043D01*
X158698921Y-90776987D01*
X158688956Y-90798057D01*
X158676974Y-90818048D01*
X158663090Y-90836768D01*
X158647438Y-90854038D01*
X158630168Y-90869690D01*
X158611448Y-90883574D01*
X158591457Y-90895556D01*
X158570387Y-90905521D01*
X158548443Y-90913373D01*
X158525834Y-90919037D01*
X158502779Y-90922456D01*
X158479500Y-90923600D01*
X158004500Y-90923600D01*
X157981221Y-90922456D01*
X157958166Y-90919037D01*
X157935557Y-90913373D01*
X157913613Y-90905521D01*
X157892543Y-90895556D01*
X157872552Y-90883574D01*
X157853832Y-90869690D01*
X157836562Y-90854038D01*
X157820910Y-90836768D01*
X157807026Y-90818048D01*
X157795044Y-90798057D01*
X157785079Y-90776987D01*
X157777227Y-90755043D01*
X157771563Y-90732434D01*
X157768144Y-90709379D01*
X157767000Y-90686100D01*
X157767000Y-90111100D01*
X157768144Y-90087821D01*
X157771563Y-90064766D01*
X157777227Y-90042157D01*
X157785079Y-90020213D01*
X157795044Y-89999143D01*
X157807026Y-89979152D01*
X157820910Y-89960432D01*
X157836562Y-89943162D01*
X157853832Y-89927510D01*
X157872552Y-89913626D01*
X157892543Y-89901644D01*
X157913613Y-89891679D01*
X157935557Y-89883827D01*
X157958166Y-89878163D01*
X157981221Y-89874744D01*
X158004500Y-89873600D01*
X158479500Y-89873600D01*
X158502779Y-89874744D01*
X158502779Y-89874744D01*
G37*
D11*
X158242000Y-90398600D03*
D10*
G36*
X158502779Y-88124744D02*
X158525834Y-88128163D01*
X158548443Y-88133827D01*
X158570387Y-88141679D01*
X158591457Y-88151644D01*
X158611448Y-88163626D01*
X158630168Y-88177510D01*
X158647438Y-88193162D01*
X158663090Y-88210432D01*
X158676974Y-88229152D01*
X158688956Y-88249143D01*
X158698921Y-88270213D01*
X158706773Y-88292157D01*
X158712437Y-88314766D01*
X158715856Y-88337821D01*
X158717000Y-88361100D01*
X158717000Y-88936100D01*
X158715856Y-88959379D01*
X158712437Y-88982434D01*
X158706773Y-89005043D01*
X158698921Y-89026987D01*
X158688956Y-89048057D01*
X158676974Y-89068048D01*
X158663090Y-89086768D01*
X158647438Y-89104038D01*
X158630168Y-89119690D01*
X158611448Y-89133574D01*
X158591457Y-89145556D01*
X158570387Y-89155521D01*
X158548443Y-89163373D01*
X158525834Y-89169037D01*
X158502779Y-89172456D01*
X158479500Y-89173600D01*
X158004500Y-89173600D01*
X157981221Y-89172456D01*
X157958166Y-89169037D01*
X157935557Y-89163373D01*
X157913613Y-89155521D01*
X157892543Y-89145556D01*
X157872552Y-89133574D01*
X157853832Y-89119690D01*
X157836562Y-89104038D01*
X157820910Y-89086768D01*
X157807026Y-89068048D01*
X157795044Y-89048057D01*
X157785079Y-89026987D01*
X157777227Y-89005043D01*
X157771563Y-88982434D01*
X157768144Y-88959379D01*
X157767000Y-88936100D01*
X157767000Y-88361100D01*
X157768144Y-88337821D01*
X157771563Y-88314766D01*
X157777227Y-88292157D01*
X157785079Y-88270213D01*
X157795044Y-88249143D01*
X157807026Y-88229152D01*
X157820910Y-88210432D01*
X157836562Y-88193162D01*
X157853832Y-88177510D01*
X157872552Y-88163626D01*
X157892543Y-88151644D01*
X157913613Y-88141679D01*
X157935557Y-88133827D01*
X157958166Y-88128163D01*
X157981221Y-88124744D01*
X158004500Y-88123600D01*
X158479500Y-88123600D01*
X158502779Y-88124744D01*
X158502779Y-88124744D01*
G37*
D11*
X158242000Y-88648600D03*
G04 #@! TD*
D10*
G04 #@! TO.C,R2*
G36*
X160838779Y-89924744D02*
X160861834Y-89928163D01*
X160884443Y-89933827D01*
X160906387Y-89941679D01*
X160927457Y-89951644D01*
X160947448Y-89963626D01*
X160966168Y-89977510D01*
X160983438Y-89993162D01*
X160999090Y-90010432D01*
X161012974Y-90029152D01*
X161024956Y-90049143D01*
X161034921Y-90070213D01*
X161042773Y-90092157D01*
X161048437Y-90114766D01*
X161051856Y-90137821D01*
X161053000Y-90161100D01*
X161053000Y-90636100D01*
X161051856Y-90659379D01*
X161048437Y-90682434D01*
X161042773Y-90705043D01*
X161034921Y-90726987D01*
X161024956Y-90748057D01*
X161012974Y-90768048D01*
X160999090Y-90786768D01*
X160983438Y-90804038D01*
X160966168Y-90819690D01*
X160947448Y-90833574D01*
X160927457Y-90845556D01*
X160906387Y-90855521D01*
X160884443Y-90863373D01*
X160861834Y-90869037D01*
X160838779Y-90872456D01*
X160815500Y-90873600D01*
X160240500Y-90873600D01*
X160217221Y-90872456D01*
X160194166Y-90869037D01*
X160171557Y-90863373D01*
X160149613Y-90855521D01*
X160128543Y-90845556D01*
X160108552Y-90833574D01*
X160089832Y-90819690D01*
X160072562Y-90804038D01*
X160056910Y-90786768D01*
X160043026Y-90768048D01*
X160031044Y-90748057D01*
X160021079Y-90726987D01*
X160013227Y-90705043D01*
X160007563Y-90682434D01*
X160004144Y-90659379D01*
X160003000Y-90636100D01*
X160003000Y-90161100D01*
X160004144Y-90137821D01*
X160007563Y-90114766D01*
X160013227Y-90092157D01*
X160021079Y-90070213D01*
X160031044Y-90049143D01*
X160043026Y-90029152D01*
X160056910Y-90010432D01*
X160072562Y-89993162D01*
X160089832Y-89977510D01*
X160108552Y-89963626D01*
X160128543Y-89951644D01*
X160149613Y-89941679D01*
X160171557Y-89933827D01*
X160194166Y-89928163D01*
X160217221Y-89924744D01*
X160240500Y-89923600D01*
X160815500Y-89923600D01*
X160838779Y-89924744D01*
X160838779Y-89924744D01*
G37*
D11*
X160528000Y-90398600D03*
D10*
G36*
X162588779Y-89924744D02*
X162611834Y-89928163D01*
X162634443Y-89933827D01*
X162656387Y-89941679D01*
X162677457Y-89951644D01*
X162697448Y-89963626D01*
X162716168Y-89977510D01*
X162733438Y-89993162D01*
X162749090Y-90010432D01*
X162762974Y-90029152D01*
X162774956Y-90049143D01*
X162784921Y-90070213D01*
X162792773Y-90092157D01*
X162798437Y-90114766D01*
X162801856Y-90137821D01*
X162803000Y-90161100D01*
X162803000Y-90636100D01*
X162801856Y-90659379D01*
X162798437Y-90682434D01*
X162792773Y-90705043D01*
X162784921Y-90726987D01*
X162774956Y-90748057D01*
X162762974Y-90768048D01*
X162749090Y-90786768D01*
X162733438Y-90804038D01*
X162716168Y-90819690D01*
X162697448Y-90833574D01*
X162677457Y-90845556D01*
X162656387Y-90855521D01*
X162634443Y-90863373D01*
X162611834Y-90869037D01*
X162588779Y-90872456D01*
X162565500Y-90873600D01*
X161990500Y-90873600D01*
X161967221Y-90872456D01*
X161944166Y-90869037D01*
X161921557Y-90863373D01*
X161899613Y-90855521D01*
X161878543Y-90845556D01*
X161858552Y-90833574D01*
X161839832Y-90819690D01*
X161822562Y-90804038D01*
X161806910Y-90786768D01*
X161793026Y-90768048D01*
X161781044Y-90748057D01*
X161771079Y-90726987D01*
X161763227Y-90705043D01*
X161757563Y-90682434D01*
X161754144Y-90659379D01*
X161753000Y-90636100D01*
X161753000Y-90161100D01*
X161754144Y-90137821D01*
X161757563Y-90114766D01*
X161763227Y-90092157D01*
X161771079Y-90070213D01*
X161781044Y-90049143D01*
X161793026Y-90029152D01*
X161806910Y-90010432D01*
X161822562Y-89993162D01*
X161839832Y-89977510D01*
X161858552Y-89963626D01*
X161878543Y-89951644D01*
X161899613Y-89941679D01*
X161921557Y-89933827D01*
X161944166Y-89928163D01*
X161967221Y-89924744D01*
X161990500Y-89923600D01*
X162565500Y-89923600D01*
X162588779Y-89924744D01*
X162588779Y-89924744D01*
G37*
D11*
X162278000Y-90398600D03*
G04 #@! TD*
D10*
G04 #@! TO.C,R4*
G36*
X151976779Y-89924744D02*
X151999834Y-89928163D01*
X152022443Y-89933827D01*
X152044387Y-89941679D01*
X152065457Y-89951644D01*
X152085448Y-89963626D01*
X152104168Y-89977510D01*
X152121438Y-89993162D01*
X152137090Y-90010432D01*
X152150974Y-90029152D01*
X152162956Y-90049143D01*
X152172921Y-90070213D01*
X152180773Y-90092157D01*
X152186437Y-90114766D01*
X152189856Y-90137821D01*
X152191000Y-90161100D01*
X152191000Y-90636100D01*
X152189856Y-90659379D01*
X152186437Y-90682434D01*
X152180773Y-90705043D01*
X152172921Y-90726987D01*
X152162956Y-90748057D01*
X152150974Y-90768048D01*
X152137090Y-90786768D01*
X152121438Y-90804038D01*
X152104168Y-90819690D01*
X152085448Y-90833574D01*
X152065457Y-90845556D01*
X152044387Y-90855521D01*
X152022443Y-90863373D01*
X151999834Y-90869037D01*
X151976779Y-90872456D01*
X151953500Y-90873600D01*
X151378500Y-90873600D01*
X151355221Y-90872456D01*
X151332166Y-90869037D01*
X151309557Y-90863373D01*
X151287613Y-90855521D01*
X151266543Y-90845556D01*
X151246552Y-90833574D01*
X151227832Y-90819690D01*
X151210562Y-90804038D01*
X151194910Y-90786768D01*
X151181026Y-90768048D01*
X151169044Y-90748057D01*
X151159079Y-90726987D01*
X151151227Y-90705043D01*
X151145563Y-90682434D01*
X151142144Y-90659379D01*
X151141000Y-90636100D01*
X151141000Y-90161100D01*
X151142144Y-90137821D01*
X151145563Y-90114766D01*
X151151227Y-90092157D01*
X151159079Y-90070213D01*
X151169044Y-90049143D01*
X151181026Y-90029152D01*
X151194910Y-90010432D01*
X151210562Y-89993162D01*
X151227832Y-89977510D01*
X151246552Y-89963626D01*
X151266543Y-89951644D01*
X151287613Y-89941679D01*
X151309557Y-89933827D01*
X151332166Y-89928163D01*
X151355221Y-89924744D01*
X151378500Y-89923600D01*
X151953500Y-89923600D01*
X151976779Y-89924744D01*
X151976779Y-89924744D01*
G37*
D11*
X151666000Y-90398600D03*
D10*
G36*
X153726779Y-89924744D02*
X153749834Y-89928163D01*
X153772443Y-89933827D01*
X153794387Y-89941679D01*
X153815457Y-89951644D01*
X153835448Y-89963626D01*
X153854168Y-89977510D01*
X153871438Y-89993162D01*
X153887090Y-90010432D01*
X153900974Y-90029152D01*
X153912956Y-90049143D01*
X153922921Y-90070213D01*
X153930773Y-90092157D01*
X153936437Y-90114766D01*
X153939856Y-90137821D01*
X153941000Y-90161100D01*
X153941000Y-90636100D01*
X153939856Y-90659379D01*
X153936437Y-90682434D01*
X153930773Y-90705043D01*
X153922921Y-90726987D01*
X153912956Y-90748057D01*
X153900974Y-90768048D01*
X153887090Y-90786768D01*
X153871438Y-90804038D01*
X153854168Y-90819690D01*
X153835448Y-90833574D01*
X153815457Y-90845556D01*
X153794387Y-90855521D01*
X153772443Y-90863373D01*
X153749834Y-90869037D01*
X153726779Y-90872456D01*
X153703500Y-90873600D01*
X153128500Y-90873600D01*
X153105221Y-90872456D01*
X153082166Y-90869037D01*
X153059557Y-90863373D01*
X153037613Y-90855521D01*
X153016543Y-90845556D01*
X152996552Y-90833574D01*
X152977832Y-90819690D01*
X152960562Y-90804038D01*
X152944910Y-90786768D01*
X152931026Y-90768048D01*
X152919044Y-90748057D01*
X152909079Y-90726987D01*
X152901227Y-90705043D01*
X152895563Y-90682434D01*
X152892144Y-90659379D01*
X152891000Y-90636100D01*
X152891000Y-90161100D01*
X152892144Y-90137821D01*
X152895563Y-90114766D01*
X152901227Y-90092157D01*
X152909079Y-90070213D01*
X152919044Y-90049143D01*
X152931026Y-90029152D01*
X152944910Y-90010432D01*
X152960562Y-89993162D01*
X152977832Y-89977510D01*
X152996552Y-89963626D01*
X153016543Y-89951644D01*
X153037613Y-89941679D01*
X153059557Y-89933827D01*
X153082166Y-89928163D01*
X153105221Y-89924744D01*
X153128500Y-89923600D01*
X153703500Y-89923600D01*
X153726779Y-89924744D01*
X153726779Y-89924744D01*
G37*
D11*
X153416000Y-90398600D03*
G04 #@! TD*
D10*
G04 #@! TO.C,D1*
G36*
X156464779Y-109762144D02*
X156487834Y-109765563D01*
X156510443Y-109771227D01*
X156532387Y-109779079D01*
X156553457Y-109789044D01*
X156573448Y-109801026D01*
X156592168Y-109814910D01*
X156609438Y-109830562D01*
X156625090Y-109847832D01*
X156638974Y-109866552D01*
X156650956Y-109886543D01*
X156660921Y-109907613D01*
X156668773Y-109929557D01*
X156674437Y-109952166D01*
X156677856Y-109975221D01*
X156679000Y-109998500D01*
X156679000Y-110473500D01*
X156677856Y-110496779D01*
X156674437Y-110519834D01*
X156668773Y-110542443D01*
X156660921Y-110564387D01*
X156650956Y-110585457D01*
X156638974Y-110605448D01*
X156625090Y-110624168D01*
X156609438Y-110641438D01*
X156592168Y-110657090D01*
X156573448Y-110670974D01*
X156553457Y-110682956D01*
X156532387Y-110692921D01*
X156510443Y-110700773D01*
X156487834Y-110706437D01*
X156464779Y-110709856D01*
X156441500Y-110711000D01*
X155866500Y-110711000D01*
X155843221Y-110709856D01*
X155820166Y-110706437D01*
X155797557Y-110700773D01*
X155775613Y-110692921D01*
X155754543Y-110682956D01*
X155734552Y-110670974D01*
X155715832Y-110657090D01*
X155698562Y-110641438D01*
X155682910Y-110624168D01*
X155669026Y-110605448D01*
X155657044Y-110585457D01*
X155647079Y-110564387D01*
X155639227Y-110542443D01*
X155633563Y-110519834D01*
X155630144Y-110496779D01*
X155629000Y-110473500D01*
X155629000Y-109998500D01*
X155630144Y-109975221D01*
X155633563Y-109952166D01*
X155639227Y-109929557D01*
X155647079Y-109907613D01*
X155657044Y-109886543D01*
X155669026Y-109866552D01*
X155682910Y-109847832D01*
X155698562Y-109830562D01*
X155715832Y-109814910D01*
X155734552Y-109801026D01*
X155754543Y-109789044D01*
X155775613Y-109779079D01*
X155797557Y-109771227D01*
X155820166Y-109765563D01*
X155843221Y-109762144D01*
X155866500Y-109761000D01*
X156441500Y-109761000D01*
X156464779Y-109762144D01*
X156464779Y-109762144D01*
G37*
D11*
X156154000Y-110236000D03*
D10*
G36*
X154714779Y-109762144D02*
X154737834Y-109765563D01*
X154760443Y-109771227D01*
X154782387Y-109779079D01*
X154803457Y-109789044D01*
X154823448Y-109801026D01*
X154842168Y-109814910D01*
X154859438Y-109830562D01*
X154875090Y-109847832D01*
X154888974Y-109866552D01*
X154900956Y-109886543D01*
X154910921Y-109907613D01*
X154918773Y-109929557D01*
X154924437Y-109952166D01*
X154927856Y-109975221D01*
X154929000Y-109998500D01*
X154929000Y-110473500D01*
X154927856Y-110496779D01*
X154924437Y-110519834D01*
X154918773Y-110542443D01*
X154910921Y-110564387D01*
X154900956Y-110585457D01*
X154888974Y-110605448D01*
X154875090Y-110624168D01*
X154859438Y-110641438D01*
X154842168Y-110657090D01*
X154823448Y-110670974D01*
X154803457Y-110682956D01*
X154782387Y-110692921D01*
X154760443Y-110700773D01*
X154737834Y-110706437D01*
X154714779Y-110709856D01*
X154691500Y-110711000D01*
X154116500Y-110711000D01*
X154093221Y-110709856D01*
X154070166Y-110706437D01*
X154047557Y-110700773D01*
X154025613Y-110692921D01*
X154004543Y-110682956D01*
X153984552Y-110670974D01*
X153965832Y-110657090D01*
X153948562Y-110641438D01*
X153932910Y-110624168D01*
X153919026Y-110605448D01*
X153907044Y-110585457D01*
X153897079Y-110564387D01*
X153889227Y-110542443D01*
X153883563Y-110519834D01*
X153880144Y-110496779D01*
X153879000Y-110473500D01*
X153879000Y-109998500D01*
X153880144Y-109975221D01*
X153883563Y-109952166D01*
X153889227Y-109929557D01*
X153897079Y-109907613D01*
X153907044Y-109886543D01*
X153919026Y-109866552D01*
X153932910Y-109847832D01*
X153948562Y-109830562D01*
X153965832Y-109814910D01*
X153984552Y-109801026D01*
X154004543Y-109789044D01*
X154025613Y-109779079D01*
X154047557Y-109771227D01*
X154070166Y-109765563D01*
X154093221Y-109762144D01*
X154116500Y-109761000D01*
X154691500Y-109761000D01*
X154714779Y-109762144D01*
X154714779Y-109762144D01*
G37*
D11*
X154404000Y-110236000D03*
G04 #@! TD*
D10*
G04 #@! TO.C,D2*
G36*
X154742779Y-107984144D02*
X154765834Y-107987563D01*
X154788443Y-107993227D01*
X154810387Y-108001079D01*
X154831457Y-108011044D01*
X154851448Y-108023026D01*
X154870168Y-108036910D01*
X154887438Y-108052562D01*
X154903090Y-108069832D01*
X154916974Y-108088552D01*
X154928956Y-108108543D01*
X154938921Y-108129613D01*
X154946773Y-108151557D01*
X154952437Y-108174166D01*
X154955856Y-108197221D01*
X154957000Y-108220500D01*
X154957000Y-108695500D01*
X154955856Y-108718779D01*
X154952437Y-108741834D01*
X154946773Y-108764443D01*
X154938921Y-108786387D01*
X154928956Y-108807457D01*
X154916974Y-108827448D01*
X154903090Y-108846168D01*
X154887438Y-108863438D01*
X154870168Y-108879090D01*
X154851448Y-108892974D01*
X154831457Y-108904956D01*
X154810387Y-108914921D01*
X154788443Y-108922773D01*
X154765834Y-108928437D01*
X154742779Y-108931856D01*
X154719500Y-108933000D01*
X154144500Y-108933000D01*
X154121221Y-108931856D01*
X154098166Y-108928437D01*
X154075557Y-108922773D01*
X154053613Y-108914921D01*
X154032543Y-108904956D01*
X154012552Y-108892974D01*
X153993832Y-108879090D01*
X153976562Y-108863438D01*
X153960910Y-108846168D01*
X153947026Y-108827448D01*
X153935044Y-108807457D01*
X153925079Y-108786387D01*
X153917227Y-108764443D01*
X153911563Y-108741834D01*
X153908144Y-108718779D01*
X153907000Y-108695500D01*
X153907000Y-108220500D01*
X153908144Y-108197221D01*
X153911563Y-108174166D01*
X153917227Y-108151557D01*
X153925079Y-108129613D01*
X153935044Y-108108543D01*
X153947026Y-108088552D01*
X153960910Y-108069832D01*
X153976562Y-108052562D01*
X153993832Y-108036910D01*
X154012552Y-108023026D01*
X154032543Y-108011044D01*
X154053613Y-108001079D01*
X154075557Y-107993227D01*
X154098166Y-107987563D01*
X154121221Y-107984144D01*
X154144500Y-107983000D01*
X154719500Y-107983000D01*
X154742779Y-107984144D01*
X154742779Y-107984144D01*
G37*
D11*
X154432000Y-108458000D03*
D10*
G36*
X156492779Y-107984144D02*
X156515834Y-107987563D01*
X156538443Y-107993227D01*
X156560387Y-108001079D01*
X156581457Y-108011044D01*
X156601448Y-108023026D01*
X156620168Y-108036910D01*
X156637438Y-108052562D01*
X156653090Y-108069832D01*
X156666974Y-108088552D01*
X156678956Y-108108543D01*
X156688921Y-108129613D01*
X156696773Y-108151557D01*
X156702437Y-108174166D01*
X156705856Y-108197221D01*
X156707000Y-108220500D01*
X156707000Y-108695500D01*
X156705856Y-108718779D01*
X156702437Y-108741834D01*
X156696773Y-108764443D01*
X156688921Y-108786387D01*
X156678956Y-108807457D01*
X156666974Y-108827448D01*
X156653090Y-108846168D01*
X156637438Y-108863438D01*
X156620168Y-108879090D01*
X156601448Y-108892974D01*
X156581457Y-108904956D01*
X156560387Y-108914921D01*
X156538443Y-108922773D01*
X156515834Y-108928437D01*
X156492779Y-108931856D01*
X156469500Y-108933000D01*
X155894500Y-108933000D01*
X155871221Y-108931856D01*
X155848166Y-108928437D01*
X155825557Y-108922773D01*
X155803613Y-108914921D01*
X155782543Y-108904956D01*
X155762552Y-108892974D01*
X155743832Y-108879090D01*
X155726562Y-108863438D01*
X155710910Y-108846168D01*
X155697026Y-108827448D01*
X155685044Y-108807457D01*
X155675079Y-108786387D01*
X155667227Y-108764443D01*
X155661563Y-108741834D01*
X155658144Y-108718779D01*
X155657000Y-108695500D01*
X155657000Y-108220500D01*
X155658144Y-108197221D01*
X155661563Y-108174166D01*
X155667227Y-108151557D01*
X155675079Y-108129613D01*
X155685044Y-108108543D01*
X155697026Y-108088552D01*
X155710910Y-108069832D01*
X155726562Y-108052562D01*
X155743832Y-108036910D01*
X155762552Y-108023026D01*
X155782543Y-108011044D01*
X155803613Y-108001079D01*
X155825557Y-107993227D01*
X155848166Y-107987563D01*
X155871221Y-107984144D01*
X155894500Y-107983000D01*
X156469500Y-107983000D01*
X156492779Y-107984144D01*
X156492779Y-107984144D01*
G37*
D11*
X156182000Y-108458000D03*
G04 #@! TD*
D10*
G04 #@! TO.C,R5*
G36*
X150424779Y-109762144D02*
X150447834Y-109765563D01*
X150470443Y-109771227D01*
X150492387Y-109779079D01*
X150513457Y-109789044D01*
X150533448Y-109801026D01*
X150552168Y-109814910D01*
X150569438Y-109830562D01*
X150585090Y-109847832D01*
X150598974Y-109866552D01*
X150610956Y-109886543D01*
X150620921Y-109907613D01*
X150628773Y-109929557D01*
X150634437Y-109952166D01*
X150637856Y-109975221D01*
X150639000Y-109998500D01*
X150639000Y-110473500D01*
X150637856Y-110496779D01*
X150634437Y-110519834D01*
X150628773Y-110542443D01*
X150620921Y-110564387D01*
X150610956Y-110585457D01*
X150598974Y-110605448D01*
X150585090Y-110624168D01*
X150569438Y-110641438D01*
X150552168Y-110657090D01*
X150533448Y-110670974D01*
X150513457Y-110682956D01*
X150492387Y-110692921D01*
X150470443Y-110700773D01*
X150447834Y-110706437D01*
X150424779Y-110709856D01*
X150401500Y-110711000D01*
X149826500Y-110711000D01*
X149803221Y-110709856D01*
X149780166Y-110706437D01*
X149757557Y-110700773D01*
X149735613Y-110692921D01*
X149714543Y-110682956D01*
X149694552Y-110670974D01*
X149675832Y-110657090D01*
X149658562Y-110641438D01*
X149642910Y-110624168D01*
X149629026Y-110605448D01*
X149617044Y-110585457D01*
X149607079Y-110564387D01*
X149599227Y-110542443D01*
X149593563Y-110519834D01*
X149590144Y-110496779D01*
X149589000Y-110473500D01*
X149589000Y-109998500D01*
X149590144Y-109975221D01*
X149593563Y-109952166D01*
X149599227Y-109929557D01*
X149607079Y-109907613D01*
X149617044Y-109886543D01*
X149629026Y-109866552D01*
X149642910Y-109847832D01*
X149658562Y-109830562D01*
X149675832Y-109814910D01*
X149694552Y-109801026D01*
X149714543Y-109789044D01*
X149735613Y-109779079D01*
X149757557Y-109771227D01*
X149780166Y-109765563D01*
X149803221Y-109762144D01*
X149826500Y-109761000D01*
X150401500Y-109761000D01*
X150424779Y-109762144D01*
X150424779Y-109762144D01*
G37*
D11*
X150114000Y-110236000D03*
D10*
G36*
X152174779Y-109762144D02*
X152197834Y-109765563D01*
X152220443Y-109771227D01*
X152242387Y-109779079D01*
X152263457Y-109789044D01*
X152283448Y-109801026D01*
X152302168Y-109814910D01*
X152319438Y-109830562D01*
X152335090Y-109847832D01*
X152348974Y-109866552D01*
X152360956Y-109886543D01*
X152370921Y-109907613D01*
X152378773Y-109929557D01*
X152384437Y-109952166D01*
X152387856Y-109975221D01*
X152389000Y-109998500D01*
X152389000Y-110473500D01*
X152387856Y-110496779D01*
X152384437Y-110519834D01*
X152378773Y-110542443D01*
X152370921Y-110564387D01*
X152360956Y-110585457D01*
X152348974Y-110605448D01*
X152335090Y-110624168D01*
X152319438Y-110641438D01*
X152302168Y-110657090D01*
X152283448Y-110670974D01*
X152263457Y-110682956D01*
X152242387Y-110692921D01*
X152220443Y-110700773D01*
X152197834Y-110706437D01*
X152174779Y-110709856D01*
X152151500Y-110711000D01*
X151576500Y-110711000D01*
X151553221Y-110709856D01*
X151530166Y-110706437D01*
X151507557Y-110700773D01*
X151485613Y-110692921D01*
X151464543Y-110682956D01*
X151444552Y-110670974D01*
X151425832Y-110657090D01*
X151408562Y-110641438D01*
X151392910Y-110624168D01*
X151379026Y-110605448D01*
X151367044Y-110585457D01*
X151357079Y-110564387D01*
X151349227Y-110542443D01*
X151343563Y-110519834D01*
X151340144Y-110496779D01*
X151339000Y-110473500D01*
X151339000Y-109998500D01*
X151340144Y-109975221D01*
X151343563Y-109952166D01*
X151349227Y-109929557D01*
X151357079Y-109907613D01*
X151367044Y-109886543D01*
X151379026Y-109866552D01*
X151392910Y-109847832D01*
X151408562Y-109830562D01*
X151425832Y-109814910D01*
X151444552Y-109801026D01*
X151464543Y-109789044D01*
X151485613Y-109779079D01*
X151507557Y-109771227D01*
X151530166Y-109765563D01*
X151553221Y-109762144D01*
X151576500Y-109761000D01*
X152151500Y-109761000D01*
X152174779Y-109762144D01*
X152174779Y-109762144D01*
G37*
D11*
X151864000Y-110236000D03*
G04 #@! TD*
D10*
G04 #@! TO.C,R6*
G36*
X152174779Y-107984144D02*
X152197834Y-107987563D01*
X152220443Y-107993227D01*
X152242387Y-108001079D01*
X152263457Y-108011044D01*
X152283448Y-108023026D01*
X152302168Y-108036910D01*
X152319438Y-108052562D01*
X152335090Y-108069832D01*
X152348974Y-108088552D01*
X152360956Y-108108543D01*
X152370921Y-108129613D01*
X152378773Y-108151557D01*
X152384437Y-108174166D01*
X152387856Y-108197221D01*
X152389000Y-108220500D01*
X152389000Y-108695500D01*
X152387856Y-108718779D01*
X152384437Y-108741834D01*
X152378773Y-108764443D01*
X152370921Y-108786387D01*
X152360956Y-108807457D01*
X152348974Y-108827448D01*
X152335090Y-108846168D01*
X152319438Y-108863438D01*
X152302168Y-108879090D01*
X152283448Y-108892974D01*
X152263457Y-108904956D01*
X152242387Y-108914921D01*
X152220443Y-108922773D01*
X152197834Y-108928437D01*
X152174779Y-108931856D01*
X152151500Y-108933000D01*
X151576500Y-108933000D01*
X151553221Y-108931856D01*
X151530166Y-108928437D01*
X151507557Y-108922773D01*
X151485613Y-108914921D01*
X151464543Y-108904956D01*
X151444552Y-108892974D01*
X151425832Y-108879090D01*
X151408562Y-108863438D01*
X151392910Y-108846168D01*
X151379026Y-108827448D01*
X151367044Y-108807457D01*
X151357079Y-108786387D01*
X151349227Y-108764443D01*
X151343563Y-108741834D01*
X151340144Y-108718779D01*
X151339000Y-108695500D01*
X151339000Y-108220500D01*
X151340144Y-108197221D01*
X151343563Y-108174166D01*
X151349227Y-108151557D01*
X151357079Y-108129613D01*
X151367044Y-108108543D01*
X151379026Y-108088552D01*
X151392910Y-108069832D01*
X151408562Y-108052562D01*
X151425832Y-108036910D01*
X151444552Y-108023026D01*
X151464543Y-108011044D01*
X151485613Y-108001079D01*
X151507557Y-107993227D01*
X151530166Y-107987563D01*
X151553221Y-107984144D01*
X151576500Y-107983000D01*
X152151500Y-107983000D01*
X152174779Y-107984144D01*
X152174779Y-107984144D01*
G37*
D11*
X151864000Y-108458000D03*
D10*
G36*
X150424779Y-107984144D02*
X150447834Y-107987563D01*
X150470443Y-107993227D01*
X150492387Y-108001079D01*
X150513457Y-108011044D01*
X150533448Y-108023026D01*
X150552168Y-108036910D01*
X150569438Y-108052562D01*
X150585090Y-108069832D01*
X150598974Y-108088552D01*
X150610956Y-108108543D01*
X150620921Y-108129613D01*
X150628773Y-108151557D01*
X150634437Y-108174166D01*
X150637856Y-108197221D01*
X150639000Y-108220500D01*
X150639000Y-108695500D01*
X150637856Y-108718779D01*
X150634437Y-108741834D01*
X150628773Y-108764443D01*
X150620921Y-108786387D01*
X150610956Y-108807457D01*
X150598974Y-108827448D01*
X150585090Y-108846168D01*
X150569438Y-108863438D01*
X150552168Y-108879090D01*
X150533448Y-108892974D01*
X150513457Y-108904956D01*
X150492387Y-108914921D01*
X150470443Y-108922773D01*
X150447834Y-108928437D01*
X150424779Y-108931856D01*
X150401500Y-108933000D01*
X149826500Y-108933000D01*
X149803221Y-108931856D01*
X149780166Y-108928437D01*
X149757557Y-108922773D01*
X149735613Y-108914921D01*
X149714543Y-108904956D01*
X149694552Y-108892974D01*
X149675832Y-108879090D01*
X149658562Y-108863438D01*
X149642910Y-108846168D01*
X149629026Y-108827448D01*
X149617044Y-108807457D01*
X149607079Y-108786387D01*
X149599227Y-108764443D01*
X149593563Y-108741834D01*
X149590144Y-108718779D01*
X149589000Y-108695500D01*
X149589000Y-108220500D01*
X149590144Y-108197221D01*
X149593563Y-108174166D01*
X149599227Y-108151557D01*
X149607079Y-108129613D01*
X149617044Y-108108543D01*
X149629026Y-108088552D01*
X149642910Y-108069832D01*
X149658562Y-108052562D01*
X149675832Y-108036910D01*
X149694552Y-108023026D01*
X149714543Y-108011044D01*
X149735613Y-108001079D01*
X149757557Y-107993227D01*
X149780166Y-107987563D01*
X149803221Y-107984144D01*
X149826500Y-107983000D01*
X150401500Y-107983000D01*
X150424779Y-107984144D01*
X150424779Y-107984144D01*
G37*
D11*
X150114000Y-108458000D03*
G04 #@! TD*
M02*
