G04 #@! TF.GenerationSoftware,KiCad,Pcbnew,(5.0.0)*
G04 #@! TF.CreationDate,2018-12-16T16:19:50-06:00*
G04 #@! TF.ProjectId,IMUBreakout_Hardware,494D55427265616B6F75745F48617264,rev?*
G04 #@! TF.SameCoordinates,Original*
G04 #@! TF.FileFunction,Copper,L2,Bot,Signal*
G04 #@! TF.FilePolarity,Positive*
%FSLAX46Y46*%
G04 Gerber Fmt 4.6, Leading zero omitted, Abs format (unit mm)*
G04 Created by KiCad (PCBNEW (5.0.0)) date 12/16/18 16:19:50*
%MOMM*%
%LPD*%
G01*
G04 APERTURE LIST*
G04 #@! TA.AperFunction,ComponentPad*
%ADD10C,1.524000*%
G04 #@! TD*
G04 #@! TA.AperFunction,ComponentPad*
%ADD11R,1.524000X1.524000*%
G04 #@! TD*
G04 #@! TA.AperFunction,ViaPad*
%ADD12C,0.800000*%
G04 #@! TD*
G04 #@! TA.AperFunction,Conductor*
%ADD13C,0.381000*%
G04 #@! TD*
G04 #@! TA.AperFunction,Conductor*
%ADD14C,0.254000*%
G04 #@! TD*
G04 APERTURE END LIST*
D10*
G04 #@! TO.P,Conn1,1*
G04 #@! TO.N,GND*
X147886958Y-107950000D03*
G04 #@! TO.P,Conn1,2*
G04 #@! TO.N,INT2AG*
X147886958Y-105410000D03*
G04 #@! TO.P,Conn1,3*
G04 #@! TO.N,INT1AG*
X147886958Y-102870000D03*
G04 #@! TO.P,Conn1,4*
G04 #@! TO.N,INTM*
X147886958Y-100330000D03*
G04 #@! TO.P,Conn1,5*
G04 #@! TO.N,DRDYM*
X147886958Y-97790000D03*
G04 #@! TO.P,Conn1,6*
G04 #@! TO.N,SDA*
X147886958Y-95250000D03*
G04 #@! TO.P,Conn1,7*
G04 #@! TO.N,SCL*
X147886958Y-92710000D03*
G04 #@! TO.P,Conn1,8*
G04 #@! TO.N,+3V3*
X147886958Y-90170000D03*
G04 #@! TD*
G04 #@! TO.P,U1,5*
G04 #@! TO.N,SDOM*
X151892000Y-93980000D03*
G04 #@! TO.P,U1,6*
G04 #@! TO.N,+3V3*
X151892000Y-96520000D03*
G04 #@! TO.P,U1,7*
X151892000Y-99060000D03*
G04 #@! TO.P,U1,8*
G04 #@! TO.N,DRDYM*
X151892000Y-101600000D03*
G04 #@! TO.P,U1,9*
G04 #@! TO.N,INTM*
X151892000Y-104140000D03*
G04 #@! TO.P,U1,10*
G04 #@! TO.N,INT1AG*
X154432000Y-104140000D03*
G04 #@! TO.P,U1,11*
G04 #@! TO.N,INT2AG*
X156972000Y-104140000D03*
G04 #@! TO.P,U1,12*
G04 #@! TO.N,+3V3*
X159512000Y-104140000D03*
D11*
G04 #@! TO.P,U1,13*
G04 #@! TO.N,GND*
X162052000Y-104140000D03*
D10*
G04 #@! TO.P,U1,4*
G04 #@! TO.N,SDOAG*
X154432000Y-93980000D03*
G04 #@! TO.P,U1,3*
G04 #@! TO.N,SDA*
X156972000Y-93980000D03*
G04 #@! TO.P,U1,2*
G04 #@! TO.N,SCL*
X159512000Y-93980000D03*
G04 #@! TO.P,U1,1*
G04 #@! TO.N,+3V3*
X162052000Y-93980000D03*
G04 #@! TD*
D12*
G04 #@! TO.N,SDA*
X146304000Y-109728000D03*
G04 #@! TO.N,+3V3*
X152908000Y-88646000D03*
G04 #@! TD*
D13*
G04 #@! TO.N,SDA*
X156972000Y-93980000D02*
X155448000Y-92456000D01*
X150680958Y-92456000D02*
X147886958Y-95250000D01*
X150680958Y-92456000D02*
X155448000Y-92456000D01*
X146304000Y-96832958D02*
X147886958Y-95250000D01*
X146304000Y-109728000D02*
X146304000Y-96832958D01*
G04 #@! TO.N,SCL*
X159512000Y-93980000D02*
X157226000Y-91694000D01*
X148902958Y-91694000D02*
X148699758Y-91897200D01*
X157226000Y-91694000D02*
X148902958Y-91694000D01*
X148699758Y-91897200D02*
X147886958Y-92710000D01*
G04 #@! TD*
D14*
G04 #@! TO.N,+3V3*
G36*
X137250247Y-87563167D02*
X136890958Y-88430567D01*
X136890958Y-89369433D01*
X137250247Y-90236833D01*
X137914125Y-90900711D01*
X138781525Y-91260000D01*
X139720391Y-91260000D01*
X140587791Y-90900711D01*
X141251669Y-90236833D01*
X141610958Y-89369433D01*
X141610958Y-88430567D01*
X141251669Y-87563167D01*
X140758502Y-87070000D01*
X162515334Y-87070000D01*
X163013698Y-87132958D01*
X163438893Y-87301305D01*
X163808858Y-87570101D01*
X164100356Y-87922462D01*
X164295067Y-88336244D01*
X164387093Y-88818662D01*
X164390000Y-88911164D01*
X164390001Y-109175326D01*
X164327042Y-109673699D01*
X164158697Y-110098889D01*
X163889899Y-110468859D01*
X163537541Y-110760355D01*
X163123756Y-110955067D01*
X162641339Y-111047093D01*
X162548836Y-111050000D01*
X140758502Y-111050000D01*
X141251669Y-110556833D01*
X141610958Y-109689433D01*
X141610958Y-109522126D01*
X145269000Y-109522126D01*
X145269000Y-109933874D01*
X145426569Y-110314280D01*
X145717720Y-110605431D01*
X146098126Y-110763000D01*
X146509874Y-110763000D01*
X146890280Y-110605431D01*
X147181431Y-110314280D01*
X147339000Y-109933874D01*
X147339000Y-109522126D01*
X147195503Y-109175692D01*
X147609077Y-109347000D01*
X148164839Y-109347000D01*
X148678295Y-109134320D01*
X149071278Y-108741337D01*
X149283958Y-108227881D01*
X149283958Y-107672119D01*
X149071278Y-107158663D01*
X148678295Y-106765680D01*
X148471445Y-106680000D01*
X148678295Y-106594320D01*
X149071278Y-106201337D01*
X149283958Y-105687881D01*
X149283958Y-105132119D01*
X149071278Y-104618663D01*
X148678295Y-104225680D01*
X148471445Y-104140000D01*
X148678295Y-104054320D01*
X149071278Y-103661337D01*
X149283958Y-103147881D01*
X149283958Y-102592119D01*
X149071278Y-102078663D01*
X148678295Y-101685680D01*
X148471445Y-101600000D01*
X148678295Y-101514320D01*
X148870496Y-101322119D01*
X150495000Y-101322119D01*
X150495000Y-101877881D01*
X150707680Y-102391337D01*
X151100663Y-102784320D01*
X151307513Y-102870000D01*
X151100663Y-102955680D01*
X150707680Y-103348663D01*
X150495000Y-103862119D01*
X150495000Y-104417881D01*
X150707680Y-104931337D01*
X151100663Y-105324320D01*
X151614119Y-105537000D01*
X152169881Y-105537000D01*
X152683337Y-105324320D01*
X153076320Y-104931337D01*
X153162000Y-104724487D01*
X153247680Y-104931337D01*
X153640663Y-105324320D01*
X154154119Y-105537000D01*
X154709881Y-105537000D01*
X155223337Y-105324320D01*
X155616320Y-104931337D01*
X155702000Y-104724487D01*
X155787680Y-104931337D01*
X156180663Y-105324320D01*
X156694119Y-105537000D01*
X157249881Y-105537000D01*
X157763337Y-105324320D01*
X158156320Y-104931337D01*
X158369000Y-104417881D01*
X158369000Y-103862119D01*
X158168472Y-103378000D01*
X160642560Y-103378000D01*
X160642560Y-104902000D01*
X160691843Y-105149765D01*
X160832191Y-105359809D01*
X161042235Y-105500157D01*
X161290000Y-105549440D01*
X162814000Y-105549440D01*
X163061765Y-105500157D01*
X163271809Y-105359809D01*
X163412157Y-105149765D01*
X163461440Y-104902000D01*
X163461440Y-103378000D01*
X163412157Y-103130235D01*
X163271809Y-102920191D01*
X163061765Y-102779843D01*
X162814000Y-102730560D01*
X161290000Y-102730560D01*
X161042235Y-102779843D01*
X160832191Y-102920191D01*
X160691843Y-103130235D01*
X160642560Y-103378000D01*
X158168472Y-103378000D01*
X158156320Y-103348663D01*
X157763337Y-102955680D01*
X157249881Y-102743000D01*
X156694119Y-102743000D01*
X156180663Y-102955680D01*
X155787680Y-103348663D01*
X155702000Y-103555513D01*
X155616320Y-103348663D01*
X155223337Y-102955680D01*
X154709881Y-102743000D01*
X154154119Y-102743000D01*
X153640663Y-102955680D01*
X153247680Y-103348663D01*
X153162000Y-103555513D01*
X153076320Y-103348663D01*
X152683337Y-102955680D01*
X152476487Y-102870000D01*
X152683337Y-102784320D01*
X153076320Y-102391337D01*
X153289000Y-101877881D01*
X153289000Y-101322119D01*
X153076320Y-100808663D01*
X152683337Y-100415680D01*
X152169881Y-100203000D01*
X151614119Y-100203000D01*
X151100663Y-100415680D01*
X150707680Y-100808663D01*
X150495000Y-101322119D01*
X148870496Y-101322119D01*
X149071278Y-101121337D01*
X149283958Y-100607881D01*
X149283958Y-100052119D01*
X149071278Y-99538663D01*
X148678295Y-99145680D01*
X148471445Y-99060000D01*
X148678295Y-98974320D01*
X149071278Y-98581337D01*
X149283958Y-98067881D01*
X149283958Y-97512119D01*
X149071278Y-96998663D01*
X148678295Y-96605680D01*
X148471445Y-96520000D01*
X148678295Y-96434320D01*
X149071278Y-96041337D01*
X149283958Y-95527881D01*
X149283958Y-95020432D01*
X150495000Y-93809391D01*
X150495000Y-94257881D01*
X150707680Y-94771337D01*
X151100663Y-95164320D01*
X151614119Y-95377000D01*
X152169881Y-95377000D01*
X152683337Y-95164320D01*
X153076320Y-94771337D01*
X153162000Y-94564487D01*
X153247680Y-94771337D01*
X153640663Y-95164320D01*
X154154119Y-95377000D01*
X154709881Y-95377000D01*
X155223337Y-95164320D01*
X155616320Y-94771337D01*
X155702000Y-94564487D01*
X155787680Y-94771337D01*
X156180663Y-95164320D01*
X156694119Y-95377000D01*
X157249881Y-95377000D01*
X157763337Y-95164320D01*
X158156320Y-94771337D01*
X158242000Y-94564487D01*
X158327680Y-94771337D01*
X158720663Y-95164320D01*
X159234119Y-95377000D01*
X159789881Y-95377000D01*
X160303337Y-95164320D01*
X160696320Y-94771337D01*
X160909000Y-94257881D01*
X160909000Y-93702119D01*
X160696320Y-93188663D01*
X160303337Y-92795680D01*
X159789881Y-92583000D01*
X159282433Y-92583000D01*
X157867209Y-91167777D01*
X157821152Y-91098848D01*
X157548094Y-90916396D01*
X157307303Y-90868500D01*
X157307301Y-90868500D01*
X157226000Y-90852328D01*
X157144699Y-90868500D01*
X148984255Y-90868500D01*
X148902957Y-90852329D01*
X148821660Y-90868500D01*
X148821655Y-90868500D01*
X148580864Y-90916396D01*
X148307806Y-91098848D01*
X148261749Y-91167777D01*
X148173534Y-91255992D01*
X148173531Y-91255994D01*
X148116525Y-91313000D01*
X147609077Y-91313000D01*
X147095621Y-91525680D01*
X146702638Y-91918663D01*
X146489958Y-92432119D01*
X146489958Y-92987881D01*
X146702638Y-93501337D01*
X147095621Y-93894320D01*
X147302471Y-93980000D01*
X147095621Y-94065680D01*
X146702638Y-94458663D01*
X146489958Y-94972119D01*
X146489958Y-95479568D01*
X145777775Y-96191751D01*
X145708849Y-96237806D01*
X145662794Y-96306732D01*
X145526397Y-96510864D01*
X145462328Y-96832958D01*
X145478501Y-96914264D01*
X145478500Y-109089789D01*
X145426569Y-109141720D01*
X145269000Y-109522126D01*
X141610958Y-109522126D01*
X141610958Y-108750567D01*
X141251669Y-107883167D01*
X140587791Y-107219289D01*
X139720391Y-106860000D01*
X138781525Y-106860000D01*
X137914125Y-107219289D01*
X137250247Y-107883167D01*
X136890958Y-108750567D01*
X136890958Y-109689433D01*
X137250247Y-110556833D01*
X137743414Y-111050000D01*
X137204667Y-111050000D01*
X136706301Y-110987042D01*
X136281111Y-110818697D01*
X135911141Y-110549899D01*
X135619645Y-110197541D01*
X135424933Y-109783756D01*
X135332907Y-109301339D01*
X135330000Y-109208836D01*
X135330000Y-88944666D01*
X135392958Y-88446302D01*
X135561305Y-88021107D01*
X135830101Y-87651142D01*
X136182462Y-87359644D01*
X136596244Y-87164933D01*
X137078662Y-87072907D01*
X137171164Y-87070000D01*
X137743414Y-87070000D01*
X137250247Y-87563167D01*
X137250247Y-87563167D01*
G37*
X137250247Y-87563167D02*
X136890958Y-88430567D01*
X136890958Y-89369433D01*
X137250247Y-90236833D01*
X137914125Y-90900711D01*
X138781525Y-91260000D01*
X139720391Y-91260000D01*
X140587791Y-90900711D01*
X141251669Y-90236833D01*
X141610958Y-89369433D01*
X141610958Y-88430567D01*
X141251669Y-87563167D01*
X140758502Y-87070000D01*
X162515334Y-87070000D01*
X163013698Y-87132958D01*
X163438893Y-87301305D01*
X163808858Y-87570101D01*
X164100356Y-87922462D01*
X164295067Y-88336244D01*
X164387093Y-88818662D01*
X164390000Y-88911164D01*
X164390001Y-109175326D01*
X164327042Y-109673699D01*
X164158697Y-110098889D01*
X163889899Y-110468859D01*
X163537541Y-110760355D01*
X163123756Y-110955067D01*
X162641339Y-111047093D01*
X162548836Y-111050000D01*
X140758502Y-111050000D01*
X141251669Y-110556833D01*
X141610958Y-109689433D01*
X141610958Y-109522126D01*
X145269000Y-109522126D01*
X145269000Y-109933874D01*
X145426569Y-110314280D01*
X145717720Y-110605431D01*
X146098126Y-110763000D01*
X146509874Y-110763000D01*
X146890280Y-110605431D01*
X147181431Y-110314280D01*
X147339000Y-109933874D01*
X147339000Y-109522126D01*
X147195503Y-109175692D01*
X147609077Y-109347000D01*
X148164839Y-109347000D01*
X148678295Y-109134320D01*
X149071278Y-108741337D01*
X149283958Y-108227881D01*
X149283958Y-107672119D01*
X149071278Y-107158663D01*
X148678295Y-106765680D01*
X148471445Y-106680000D01*
X148678295Y-106594320D01*
X149071278Y-106201337D01*
X149283958Y-105687881D01*
X149283958Y-105132119D01*
X149071278Y-104618663D01*
X148678295Y-104225680D01*
X148471445Y-104140000D01*
X148678295Y-104054320D01*
X149071278Y-103661337D01*
X149283958Y-103147881D01*
X149283958Y-102592119D01*
X149071278Y-102078663D01*
X148678295Y-101685680D01*
X148471445Y-101600000D01*
X148678295Y-101514320D01*
X148870496Y-101322119D01*
X150495000Y-101322119D01*
X150495000Y-101877881D01*
X150707680Y-102391337D01*
X151100663Y-102784320D01*
X151307513Y-102870000D01*
X151100663Y-102955680D01*
X150707680Y-103348663D01*
X150495000Y-103862119D01*
X150495000Y-104417881D01*
X150707680Y-104931337D01*
X151100663Y-105324320D01*
X151614119Y-105537000D01*
X152169881Y-105537000D01*
X152683337Y-105324320D01*
X153076320Y-104931337D01*
X153162000Y-104724487D01*
X153247680Y-104931337D01*
X153640663Y-105324320D01*
X154154119Y-105537000D01*
X154709881Y-105537000D01*
X155223337Y-105324320D01*
X155616320Y-104931337D01*
X155702000Y-104724487D01*
X155787680Y-104931337D01*
X156180663Y-105324320D01*
X156694119Y-105537000D01*
X157249881Y-105537000D01*
X157763337Y-105324320D01*
X158156320Y-104931337D01*
X158369000Y-104417881D01*
X158369000Y-103862119D01*
X158168472Y-103378000D01*
X160642560Y-103378000D01*
X160642560Y-104902000D01*
X160691843Y-105149765D01*
X160832191Y-105359809D01*
X161042235Y-105500157D01*
X161290000Y-105549440D01*
X162814000Y-105549440D01*
X163061765Y-105500157D01*
X163271809Y-105359809D01*
X163412157Y-105149765D01*
X163461440Y-104902000D01*
X163461440Y-103378000D01*
X163412157Y-103130235D01*
X163271809Y-102920191D01*
X163061765Y-102779843D01*
X162814000Y-102730560D01*
X161290000Y-102730560D01*
X161042235Y-102779843D01*
X160832191Y-102920191D01*
X160691843Y-103130235D01*
X160642560Y-103378000D01*
X158168472Y-103378000D01*
X158156320Y-103348663D01*
X157763337Y-102955680D01*
X157249881Y-102743000D01*
X156694119Y-102743000D01*
X156180663Y-102955680D01*
X155787680Y-103348663D01*
X155702000Y-103555513D01*
X155616320Y-103348663D01*
X155223337Y-102955680D01*
X154709881Y-102743000D01*
X154154119Y-102743000D01*
X153640663Y-102955680D01*
X153247680Y-103348663D01*
X153162000Y-103555513D01*
X153076320Y-103348663D01*
X152683337Y-102955680D01*
X152476487Y-102870000D01*
X152683337Y-102784320D01*
X153076320Y-102391337D01*
X153289000Y-101877881D01*
X153289000Y-101322119D01*
X153076320Y-100808663D01*
X152683337Y-100415680D01*
X152169881Y-100203000D01*
X151614119Y-100203000D01*
X151100663Y-100415680D01*
X150707680Y-100808663D01*
X150495000Y-101322119D01*
X148870496Y-101322119D01*
X149071278Y-101121337D01*
X149283958Y-100607881D01*
X149283958Y-100052119D01*
X149071278Y-99538663D01*
X148678295Y-99145680D01*
X148471445Y-99060000D01*
X148678295Y-98974320D01*
X149071278Y-98581337D01*
X149283958Y-98067881D01*
X149283958Y-97512119D01*
X149071278Y-96998663D01*
X148678295Y-96605680D01*
X148471445Y-96520000D01*
X148678295Y-96434320D01*
X149071278Y-96041337D01*
X149283958Y-95527881D01*
X149283958Y-95020432D01*
X150495000Y-93809391D01*
X150495000Y-94257881D01*
X150707680Y-94771337D01*
X151100663Y-95164320D01*
X151614119Y-95377000D01*
X152169881Y-95377000D01*
X152683337Y-95164320D01*
X153076320Y-94771337D01*
X153162000Y-94564487D01*
X153247680Y-94771337D01*
X153640663Y-95164320D01*
X154154119Y-95377000D01*
X154709881Y-95377000D01*
X155223337Y-95164320D01*
X155616320Y-94771337D01*
X155702000Y-94564487D01*
X155787680Y-94771337D01*
X156180663Y-95164320D01*
X156694119Y-95377000D01*
X157249881Y-95377000D01*
X157763337Y-95164320D01*
X158156320Y-94771337D01*
X158242000Y-94564487D01*
X158327680Y-94771337D01*
X158720663Y-95164320D01*
X159234119Y-95377000D01*
X159789881Y-95377000D01*
X160303337Y-95164320D01*
X160696320Y-94771337D01*
X160909000Y-94257881D01*
X160909000Y-93702119D01*
X160696320Y-93188663D01*
X160303337Y-92795680D01*
X159789881Y-92583000D01*
X159282433Y-92583000D01*
X157867209Y-91167777D01*
X157821152Y-91098848D01*
X157548094Y-90916396D01*
X157307303Y-90868500D01*
X157307301Y-90868500D01*
X157226000Y-90852328D01*
X157144699Y-90868500D01*
X148984255Y-90868500D01*
X148902957Y-90852329D01*
X148821660Y-90868500D01*
X148821655Y-90868500D01*
X148580864Y-90916396D01*
X148307806Y-91098848D01*
X148261749Y-91167777D01*
X148173534Y-91255992D01*
X148173531Y-91255994D01*
X148116525Y-91313000D01*
X147609077Y-91313000D01*
X147095621Y-91525680D01*
X146702638Y-91918663D01*
X146489958Y-92432119D01*
X146489958Y-92987881D01*
X146702638Y-93501337D01*
X147095621Y-93894320D01*
X147302471Y-93980000D01*
X147095621Y-94065680D01*
X146702638Y-94458663D01*
X146489958Y-94972119D01*
X146489958Y-95479568D01*
X145777775Y-96191751D01*
X145708849Y-96237806D01*
X145662794Y-96306732D01*
X145526397Y-96510864D01*
X145462328Y-96832958D01*
X145478501Y-96914264D01*
X145478500Y-109089789D01*
X145426569Y-109141720D01*
X145269000Y-109522126D01*
X141610958Y-109522126D01*
X141610958Y-108750567D01*
X141251669Y-107883167D01*
X140587791Y-107219289D01*
X139720391Y-106860000D01*
X138781525Y-106860000D01*
X137914125Y-107219289D01*
X137250247Y-107883167D01*
X136890958Y-108750567D01*
X136890958Y-109689433D01*
X137250247Y-110556833D01*
X137743414Y-111050000D01*
X137204667Y-111050000D01*
X136706301Y-110987042D01*
X136281111Y-110818697D01*
X135911141Y-110549899D01*
X135619645Y-110197541D01*
X135424933Y-109783756D01*
X135332907Y-109301339D01*
X135330000Y-109208836D01*
X135330000Y-88944666D01*
X135392958Y-88446302D01*
X135561305Y-88021107D01*
X135830101Y-87651142D01*
X136182462Y-87359644D01*
X136596244Y-87164933D01*
X137078662Y-87072907D01*
X137171164Y-87070000D01*
X137743414Y-87070000D01*
X137250247Y-87563167D01*
G04 #@! TD*
M02*
