G04 #@! TF.GenerationSoftware,KiCad,Pcbnew,(5.0.0)*
G04 #@! TF.CreationDate,2018-12-16T16:19:50-06:00*
G04 #@! TF.ProjectId,IMUBreakout_Hardware,494D55427265616B6F75745F48617264,rev?*
G04 #@! TF.SameCoordinates,Original*
G04 #@! TF.FileFunction,Legend,Top*
G04 #@! TF.FilePolarity,Positive*
%FSLAX46Y46*%
G04 Gerber Fmt 4.6, Leading zero omitted, Abs format (unit mm)*
G04 Created by KiCad (PCBNEW (5.0.0)) date 12/16/18 16:19:50*
%MOMM*%
%LPD*%
G01*
G04 APERTURE LIST*
%ADD10C,0.127000*%
%ADD11C,0.300000*%
%ADD12C,0.120000*%
%ADD13C,0.150000*%
G04 APERTURE END LIST*
D10*
X147186952Y-87672333D02*
X147162761Y-87648142D01*
X147114380Y-87575571D01*
X147090190Y-87527190D01*
X147066000Y-87454619D01*
X147041809Y-87333666D01*
X147041809Y-87236904D01*
X147066000Y-87115952D01*
X147090190Y-87043380D01*
X147114380Y-86995000D01*
X147162761Y-86922428D01*
X147186952Y-86898238D01*
X147670761Y-87478809D02*
X147501428Y-87236904D01*
X147380476Y-87478809D02*
X147380476Y-86970809D01*
X147574000Y-86970809D01*
X147622380Y-86995000D01*
X147646571Y-87019190D01*
X147670761Y-87067571D01*
X147670761Y-87140142D01*
X147646571Y-87188523D01*
X147622380Y-87212714D01*
X147574000Y-87236904D01*
X147380476Y-87236904D01*
X148154571Y-87478809D02*
X147864285Y-87478809D01*
X148009428Y-87478809D02*
X148009428Y-86970809D01*
X147961047Y-87043380D01*
X147912666Y-87091761D01*
X147864285Y-87115952D01*
X148396476Y-87454619D02*
X148396476Y-87478809D01*
X148372285Y-87527190D01*
X148348095Y-87551380D01*
X149291523Y-87478809D02*
X149122190Y-87236904D01*
X149001238Y-87478809D02*
X149001238Y-86970809D01*
X149194761Y-86970809D01*
X149243142Y-86995000D01*
X149267333Y-87019190D01*
X149291523Y-87067571D01*
X149291523Y-87140142D01*
X149267333Y-87188523D01*
X149243142Y-87212714D01*
X149194761Y-87236904D01*
X149001238Y-87236904D01*
X149460857Y-86970809D02*
X149775333Y-86970809D01*
X149606000Y-87164333D01*
X149678571Y-87164333D01*
X149726952Y-87188523D01*
X149751142Y-87212714D01*
X149775333Y-87261095D01*
X149775333Y-87382047D01*
X149751142Y-87430428D01*
X149726952Y-87454619D01*
X149678571Y-87478809D01*
X149533428Y-87478809D01*
X149485047Y-87454619D01*
X149460857Y-87430428D01*
X149944666Y-87672333D02*
X149968857Y-87648142D01*
X150017238Y-87575571D01*
X150041428Y-87527190D01*
X150065619Y-87454619D01*
X150089809Y-87333666D01*
X150089809Y-87236904D01*
X150065619Y-87115952D01*
X150041428Y-87043380D01*
X150017238Y-86995000D01*
X149968857Y-86922428D01*
X149944666Y-86898238D01*
X150331714Y-87285285D02*
X150718761Y-87285285D01*
X150960666Y-87140142D02*
X151347714Y-87285285D01*
X150960666Y-87430428D01*
X151734761Y-87672333D02*
X151710571Y-87648142D01*
X151662190Y-87575571D01*
X151638000Y-87527190D01*
X151613809Y-87454619D01*
X151589619Y-87333666D01*
X151589619Y-87236904D01*
X151613809Y-87115952D01*
X151638000Y-87043380D01*
X151662190Y-86995000D01*
X151710571Y-86922428D01*
X151734761Y-86898238D01*
X151904095Y-87454619D02*
X151976666Y-87478809D01*
X152097619Y-87478809D01*
X152146000Y-87454619D01*
X152170190Y-87430428D01*
X152194380Y-87382047D01*
X152194380Y-87333666D01*
X152170190Y-87285285D01*
X152146000Y-87261095D01*
X152097619Y-87236904D01*
X152000857Y-87212714D01*
X151952476Y-87188523D01*
X151928285Y-87164333D01*
X151904095Y-87115952D01*
X151904095Y-87067571D01*
X151928285Y-87019190D01*
X151952476Y-86995000D01*
X152000857Y-86970809D01*
X152121809Y-86970809D01*
X152194380Y-86995000D01*
X152412095Y-87478809D02*
X152412095Y-86970809D01*
X152533047Y-86970809D01*
X152605619Y-86995000D01*
X152654000Y-87043380D01*
X152678190Y-87091761D01*
X152702380Y-87188523D01*
X152702380Y-87261095D01*
X152678190Y-87357857D01*
X152654000Y-87406238D01*
X152605619Y-87454619D01*
X152533047Y-87478809D01*
X152412095Y-87478809D01*
X153016857Y-86970809D02*
X153113619Y-86970809D01*
X153162000Y-86995000D01*
X153210380Y-87043380D01*
X153234571Y-87140142D01*
X153234571Y-87309476D01*
X153210380Y-87406238D01*
X153162000Y-87454619D01*
X153113619Y-87478809D01*
X153016857Y-87478809D01*
X152968476Y-87454619D01*
X152920095Y-87406238D01*
X152895904Y-87309476D01*
X152895904Y-87140142D01*
X152920095Y-87043380D01*
X152968476Y-86995000D01*
X153016857Y-86970809D01*
X153428095Y-87333666D02*
X153670000Y-87333666D01*
X153379714Y-87478809D02*
X153549047Y-86970809D01*
X153718380Y-87478809D01*
X154153809Y-86995000D02*
X154105428Y-86970809D01*
X154032857Y-86970809D01*
X153960285Y-86995000D01*
X153911904Y-87043380D01*
X153887714Y-87091761D01*
X153863523Y-87188523D01*
X153863523Y-87261095D01*
X153887714Y-87357857D01*
X153911904Y-87406238D01*
X153960285Y-87454619D01*
X154032857Y-87478809D01*
X154081238Y-87478809D01*
X154153809Y-87454619D01*
X154178000Y-87430428D01*
X154178000Y-87261095D01*
X154081238Y-87261095D01*
X154419904Y-87454619D02*
X154419904Y-87478809D01*
X154395714Y-87527190D01*
X154371523Y-87551380D01*
X155000476Y-87454619D02*
X155073047Y-87478809D01*
X155194000Y-87478809D01*
X155242380Y-87454619D01*
X155266571Y-87430428D01*
X155290761Y-87382047D01*
X155290761Y-87333666D01*
X155266571Y-87285285D01*
X155242380Y-87261095D01*
X155194000Y-87236904D01*
X155097238Y-87212714D01*
X155048857Y-87188523D01*
X155024666Y-87164333D01*
X155000476Y-87115952D01*
X155000476Y-87067571D01*
X155024666Y-87019190D01*
X155048857Y-86995000D01*
X155097238Y-86970809D01*
X155218190Y-86970809D01*
X155290761Y-86995000D01*
X155508476Y-87478809D02*
X155508476Y-86970809D01*
X155629428Y-86970809D01*
X155702000Y-86995000D01*
X155750380Y-87043380D01*
X155774571Y-87091761D01*
X155798761Y-87188523D01*
X155798761Y-87261095D01*
X155774571Y-87357857D01*
X155750380Y-87406238D01*
X155702000Y-87454619D01*
X155629428Y-87478809D01*
X155508476Y-87478809D01*
X156113238Y-86970809D02*
X156210000Y-86970809D01*
X156258380Y-86995000D01*
X156306761Y-87043380D01*
X156330952Y-87140142D01*
X156330952Y-87309476D01*
X156306761Y-87406238D01*
X156258380Y-87454619D01*
X156210000Y-87478809D01*
X156113238Y-87478809D01*
X156064857Y-87454619D01*
X156016476Y-87406238D01*
X155992285Y-87309476D01*
X155992285Y-87140142D01*
X156016476Y-87043380D01*
X156064857Y-86995000D01*
X156113238Y-86970809D01*
X156548666Y-87478809D02*
X156548666Y-86970809D01*
X156718000Y-87333666D01*
X156887333Y-86970809D01*
X156887333Y-87478809D01*
X157080857Y-87672333D02*
X157105047Y-87648142D01*
X157153428Y-87575571D01*
X157177619Y-87527190D01*
X157201809Y-87454619D01*
X157226000Y-87333666D01*
X157226000Y-87236904D01*
X157201809Y-87115952D01*
X157177619Y-87043380D01*
X157153428Y-86995000D01*
X157105047Y-86922428D01*
X157080857Y-86898238D01*
X157467904Y-87285285D02*
X157854952Y-87285285D01*
X158096857Y-87140142D02*
X158483904Y-87285285D01*
X158096857Y-87430428D01*
X158870952Y-87672333D02*
X158846761Y-87648142D01*
X158798380Y-87575571D01*
X158774190Y-87527190D01*
X158750000Y-87454619D01*
X158725809Y-87333666D01*
X158725809Y-87236904D01*
X158750000Y-87115952D01*
X158774190Y-87043380D01*
X158798380Y-86995000D01*
X158846761Y-86922428D01*
X158870952Y-86898238D01*
X159064476Y-87285285D02*
X159451523Y-87285285D01*
X159258000Y-87478809D02*
X159258000Y-87091761D01*
X159645047Y-86970809D02*
X159959523Y-86970809D01*
X159790190Y-87164333D01*
X159862761Y-87164333D01*
X159911142Y-87188523D01*
X159935333Y-87212714D01*
X159959523Y-87261095D01*
X159959523Y-87382047D01*
X159935333Y-87430428D01*
X159911142Y-87454619D01*
X159862761Y-87478809D01*
X159717619Y-87478809D01*
X159669238Y-87454619D01*
X159645047Y-87430428D01*
X160104666Y-86970809D02*
X160274000Y-87478809D01*
X160443333Y-86970809D01*
X160564285Y-86970809D02*
X160878761Y-86970809D01*
X160709428Y-87164333D01*
X160782000Y-87164333D01*
X160830380Y-87188523D01*
X160854571Y-87212714D01*
X160878761Y-87261095D01*
X160878761Y-87382047D01*
X160854571Y-87430428D01*
X160830380Y-87454619D01*
X160782000Y-87478809D01*
X160636857Y-87478809D01*
X160588476Y-87454619D01*
X160564285Y-87430428D01*
X161120666Y-87454619D02*
X161120666Y-87478809D01*
X161096476Y-87527190D01*
X161072285Y-87551380D01*
X161725428Y-87285285D02*
X162112476Y-87285285D01*
X161918952Y-87478809D02*
X161918952Y-87091761D01*
X162306000Y-86970809D02*
X162620476Y-86970809D01*
X162451142Y-87164333D01*
X162523714Y-87164333D01*
X162572095Y-87188523D01*
X162596285Y-87212714D01*
X162620476Y-87261095D01*
X162620476Y-87382047D01*
X162596285Y-87430428D01*
X162572095Y-87454619D01*
X162523714Y-87478809D01*
X162378571Y-87478809D01*
X162330190Y-87454619D01*
X162306000Y-87430428D01*
X162765619Y-86970809D02*
X162934952Y-87478809D01*
X163104285Y-86970809D01*
X163225238Y-86970809D02*
X163539714Y-86970809D01*
X163370380Y-87164333D01*
X163442952Y-87164333D01*
X163491333Y-87188523D01*
X163515523Y-87212714D01*
X163539714Y-87261095D01*
X163539714Y-87382047D01*
X163515523Y-87430428D01*
X163491333Y-87454619D01*
X163442952Y-87478809D01*
X163297809Y-87478809D01*
X163249428Y-87454619D01*
X163225238Y-87430428D01*
X163709047Y-87672333D02*
X163733238Y-87648142D01*
X163781619Y-87575571D01*
X163805809Y-87527190D01*
X163830000Y-87454619D01*
X163854190Y-87333666D01*
X163854190Y-87236904D01*
X163830000Y-87115952D01*
X163805809Y-87043380D01*
X163781619Y-86995000D01*
X163733238Y-86922428D01*
X163709047Y-86898238D01*
D11*
X157436571Y-111224142D02*
X157650857Y-111295571D01*
X158008000Y-111295571D01*
X158150857Y-111224142D01*
X158222285Y-111152714D01*
X158293714Y-111009857D01*
X158293714Y-110867000D01*
X158222285Y-110724142D01*
X158150857Y-110652714D01*
X158008000Y-110581285D01*
X157722285Y-110509857D01*
X157579428Y-110438428D01*
X157508000Y-110367000D01*
X157436571Y-110224142D01*
X157436571Y-110081285D01*
X157508000Y-109938428D01*
X157579428Y-109867000D01*
X157722285Y-109795571D01*
X158079428Y-109795571D01*
X158293714Y-109867000D01*
X158936571Y-111295571D02*
X158936571Y-109795571D01*
X159293714Y-109795571D01*
X159508000Y-109867000D01*
X159650857Y-110009857D01*
X159722285Y-110152714D01*
X159793714Y-110438428D01*
X159793714Y-110652714D01*
X159722285Y-110938428D01*
X159650857Y-111081285D01*
X159508000Y-111224142D01*
X159293714Y-111295571D01*
X158936571Y-111295571D01*
X160365142Y-110867000D02*
X161079428Y-110867000D01*
X160222285Y-111295571D02*
X160722285Y-109795571D01*
X161222285Y-111295571D01*
X157385000Y-109136571D02*
X157385000Y-107636571D01*
X157956428Y-107636571D01*
X158099285Y-107708000D01*
X158170714Y-107779428D01*
X158242142Y-107922285D01*
X158242142Y-108136571D01*
X158170714Y-108279428D01*
X158099285Y-108350857D01*
X157956428Y-108422285D01*
X157385000Y-108422285D01*
X158742142Y-107636571D02*
X159099285Y-109136571D01*
X159385000Y-108065142D01*
X159670714Y-109136571D01*
X160027857Y-107636571D01*
X161456428Y-109136571D02*
X160956428Y-108422285D01*
X160599285Y-109136571D02*
X160599285Y-107636571D01*
X161170714Y-107636571D01*
X161313571Y-107708000D01*
X161385000Y-107779428D01*
X161456428Y-107922285D01*
X161456428Y-108136571D01*
X161385000Y-108279428D01*
X161313571Y-108350857D01*
X161170714Y-108422285D01*
X160599285Y-108422285D01*
D12*
G04 #@! TO.C,R3*
X156212000Y-89694867D02*
X156212000Y-89352333D01*
X155192000Y-89694867D02*
X155192000Y-89352333D01*
D13*
G04 #@! TO.C,Conn1*
X146616958Y-111125000D02*
X146616958Y-86995000D01*
X134678958Y-106680000D02*
X135186958Y-106680000D01*
X134678958Y-111125000D02*
X134678958Y-86995000D01*
X146616958Y-111125000D02*
X134678958Y-111125000D01*
X146616958Y-86995000D02*
X134678958Y-86995000D01*
X146616958Y-111120000D02*
X146616958Y-111125000D01*
X138996958Y-106680000D02*
X140266958Y-106680000D01*
X140266958Y-106680000D02*
X140266958Y-91440000D01*
X140266958Y-91440000D02*
X134678958Y-91440000D01*
X138996958Y-106680000D02*
X135186958Y-106680000D01*
X140266958Y-100330000D02*
X142806958Y-100330000D01*
X142806958Y-100330000D02*
X142806958Y-97790000D01*
X142806958Y-97790000D02*
X140266958Y-97790000D01*
X146616958Y-88900000D02*
X149156958Y-88900000D01*
X149156958Y-88900000D02*
X149156958Y-109220000D01*
X149156958Y-109220000D02*
X146616958Y-109220000D01*
D12*
G04 #@! TO.C,R1*
X157732000Y-89694867D02*
X157732000Y-89352333D01*
X158752000Y-89694867D02*
X158752000Y-89352333D01*
G04 #@! TO.C,R2*
X161231733Y-89888600D02*
X161574267Y-89888600D01*
X161231733Y-90908600D02*
X161574267Y-90908600D01*
G04 #@! TO.C,R4*
X152712267Y-89888600D02*
X152369733Y-89888600D01*
X152712267Y-90908600D02*
X152369733Y-90908600D01*
D13*
G04 #@! TO.C,U1*
X163322000Y-99060000D02*
G75*
G03X163322000Y-99060000I-1270000J0D01*
G01*
X154432000Y-96520000D02*
X154432000Y-101600000D01*
X154432000Y-101600000D02*
X159512000Y-101600000D01*
X159512000Y-101600000D02*
X159512000Y-96520000D01*
X159512000Y-96520000D02*
X154432000Y-96520000D01*
X164592000Y-105410000D02*
X164592000Y-106680000D01*
X164592000Y-106680000D02*
X149352000Y-106680000D01*
X149352000Y-106680000D02*
X149352000Y-105410000D01*
X164592000Y-91440000D02*
X164592000Y-105410000D01*
X164592000Y-106680000D02*
X149352000Y-106680000D01*
X149352000Y-105410000D02*
X149352000Y-91440000D01*
X149352000Y-91440000D02*
X164592000Y-91440000D01*
D12*
G04 #@! TO.C,D1*
X154479000Y-110971000D02*
X156939000Y-110971000D01*
X156939000Y-110971000D02*
X156939000Y-109501000D01*
X156939000Y-109501000D02*
X154479000Y-109501000D01*
G04 #@! TO.C,D2*
X156967000Y-107723000D02*
X154507000Y-107723000D01*
X156967000Y-109193000D02*
X156967000Y-107723000D01*
X154507000Y-109193000D02*
X156967000Y-109193000D01*
G04 #@! TO.C,R5*
X150817733Y-109726000D02*
X151160267Y-109726000D01*
X150817733Y-110746000D02*
X151160267Y-110746000D01*
G04 #@! TO.C,R6*
X150817733Y-108968000D02*
X151160267Y-108968000D01*
X150817733Y-107948000D02*
X151160267Y-107948000D01*
G04 #@! TO.C,R3*
D13*
X154630380Y-88812666D02*
X154154190Y-89146000D01*
X154630380Y-89384095D02*
X153630380Y-89384095D01*
X153630380Y-89003142D01*
X153678000Y-88907904D01*
X153725619Y-88860285D01*
X153820857Y-88812666D01*
X153963714Y-88812666D01*
X154058952Y-88860285D01*
X154106571Y-88907904D01*
X154154190Y-89003142D01*
X154154190Y-89384095D01*
X153630380Y-88479333D02*
X153630380Y-87860285D01*
X154011333Y-88193619D01*
X154011333Y-88050761D01*
X154058952Y-87955523D01*
X154106571Y-87907904D01*
X154201809Y-87860285D01*
X154439904Y-87860285D01*
X154535142Y-87907904D01*
X154582761Y-87955523D01*
X154630380Y-88050761D01*
X154630380Y-88336476D01*
X154582761Y-88431714D01*
X154535142Y-88479333D01*
G04 #@! TO.C,R1*
X160218380Y-88812666D02*
X159742190Y-89146000D01*
X160218380Y-89384095D02*
X159218380Y-89384095D01*
X159218380Y-89003142D01*
X159266000Y-88907904D01*
X159313619Y-88860285D01*
X159408857Y-88812666D01*
X159551714Y-88812666D01*
X159646952Y-88860285D01*
X159694571Y-88907904D01*
X159742190Y-89003142D01*
X159742190Y-89384095D01*
X160218380Y-87860285D02*
X160218380Y-88431714D01*
X160218380Y-88146000D02*
X159218380Y-88146000D01*
X159361238Y-88241238D01*
X159456476Y-88336476D01*
X159504095Y-88431714D01*
G04 #@! TO.C,R2*
X164536380Y-90590666D02*
X164060190Y-90924000D01*
X164536380Y-91162095D02*
X163536380Y-91162095D01*
X163536380Y-90781142D01*
X163584000Y-90685904D01*
X163631619Y-90638285D01*
X163726857Y-90590666D01*
X163869714Y-90590666D01*
X163964952Y-90638285D01*
X164012571Y-90685904D01*
X164060190Y-90781142D01*
X164060190Y-91162095D01*
X163631619Y-90209714D02*
X163584000Y-90162095D01*
X163536380Y-90066857D01*
X163536380Y-89828761D01*
X163584000Y-89733523D01*
X163631619Y-89685904D01*
X163726857Y-89638285D01*
X163822095Y-89638285D01*
X163964952Y-89685904D01*
X164536380Y-90257333D01*
X164536380Y-89638285D01*
G04 #@! TO.C,R4*
X150566380Y-90590666D02*
X150090190Y-90924000D01*
X150566380Y-91162095D02*
X149566380Y-91162095D01*
X149566380Y-90781142D01*
X149614000Y-90685904D01*
X149661619Y-90638285D01*
X149756857Y-90590666D01*
X149899714Y-90590666D01*
X149994952Y-90638285D01*
X150042571Y-90685904D01*
X150090190Y-90781142D01*
X150090190Y-91162095D01*
X149899714Y-89733523D02*
X150566380Y-89733523D01*
X149518761Y-89971619D02*
X150233047Y-90209714D01*
X150233047Y-89590666D01*
G04 #@! TO.C,D1*
X153614380Y-110974095D02*
X152614380Y-110974095D01*
X152614380Y-110736000D01*
X152662000Y-110593142D01*
X152757238Y-110497904D01*
X152852476Y-110450285D01*
X153042952Y-110402666D01*
X153185809Y-110402666D01*
X153376285Y-110450285D01*
X153471523Y-110497904D01*
X153566761Y-110593142D01*
X153614380Y-110736000D01*
X153614380Y-110974095D01*
X153614380Y-109450285D02*
X153614380Y-110021714D01*
X153614380Y-109736000D02*
X152614380Y-109736000D01*
X152757238Y-109831238D01*
X152852476Y-109926476D01*
X152900095Y-110021714D01*
G04 #@! TO.C,D2*
X153614380Y-109196095D02*
X152614380Y-109196095D01*
X152614380Y-108958000D01*
X152662000Y-108815142D01*
X152757238Y-108719904D01*
X152852476Y-108672285D01*
X153042952Y-108624666D01*
X153185809Y-108624666D01*
X153376285Y-108672285D01*
X153471523Y-108719904D01*
X153566761Y-108815142D01*
X153614380Y-108958000D01*
X153614380Y-109196095D01*
X152709619Y-108243714D02*
X152662000Y-108196095D01*
X152614380Y-108100857D01*
X152614380Y-107862761D01*
X152662000Y-107767523D01*
X152709619Y-107719904D01*
X152804857Y-107672285D01*
X152900095Y-107672285D01*
X153042952Y-107719904D01*
X153614380Y-108291333D01*
X153614380Y-107672285D01*
G04 #@! TO.C,R5*
X149169380Y-110402666D02*
X148693190Y-110736000D01*
X149169380Y-110974095D02*
X148169380Y-110974095D01*
X148169380Y-110593142D01*
X148217000Y-110497904D01*
X148264619Y-110450285D01*
X148359857Y-110402666D01*
X148502714Y-110402666D01*
X148597952Y-110450285D01*
X148645571Y-110497904D01*
X148693190Y-110593142D01*
X148693190Y-110974095D01*
X148169380Y-109497904D02*
X148169380Y-109974095D01*
X148645571Y-110021714D01*
X148597952Y-109974095D01*
X148550333Y-109878857D01*
X148550333Y-109640761D01*
X148597952Y-109545523D01*
X148645571Y-109497904D01*
X148740809Y-109450285D01*
X148978904Y-109450285D01*
X149074142Y-109497904D01*
X149121761Y-109545523D01*
X149169380Y-109640761D01*
X149169380Y-109878857D01*
X149121761Y-109974095D01*
X149074142Y-110021714D01*
G04 #@! TO.C,R6*
X149947333Y-107640380D02*
X149614000Y-107164190D01*
X149375904Y-107640380D02*
X149375904Y-106640380D01*
X149756857Y-106640380D01*
X149852095Y-106688000D01*
X149899714Y-106735619D01*
X149947333Y-106830857D01*
X149947333Y-106973714D01*
X149899714Y-107068952D01*
X149852095Y-107116571D01*
X149756857Y-107164190D01*
X149375904Y-107164190D01*
X150804476Y-106640380D02*
X150614000Y-106640380D01*
X150518761Y-106688000D01*
X150471142Y-106735619D01*
X150375904Y-106878476D01*
X150328285Y-107068952D01*
X150328285Y-107449904D01*
X150375904Y-107545142D01*
X150423523Y-107592761D01*
X150518761Y-107640380D01*
X150709238Y-107640380D01*
X150804476Y-107592761D01*
X150852095Y-107545142D01*
X150899714Y-107449904D01*
X150899714Y-107211809D01*
X150852095Y-107116571D01*
X150804476Y-107068952D01*
X150709238Y-107021333D01*
X150518761Y-107021333D01*
X150423523Y-107068952D01*
X150375904Y-107116571D01*
X150328285Y-107211809D01*
G04 #@! TD*
M02*
