M48
;DRILL file {KiCad (5.0.0)} date 12/16/18 16:20:02
;FORMAT={-:-/ absolute / inch / decimal}
FMAT,2
INCH,TZ
T1C0.0157
T2C0.0300
T3C0.0394
T4C0.1358
%
G90
G05
M72
T1
X5.76Y-4.32
X6.02Y-3.49
T2
X5.8223Y-3.55
X5.8223Y-3.65
X5.8223Y-3.75
X5.8223Y-3.85
X5.8223Y-3.95
X5.8223Y-4.05
X5.8223Y-4.15
X5.8223Y-4.25
X6.38Y-4.1
T3
X5.98Y-3.7
X5.98Y-3.8
X5.98Y-3.9
X5.98Y-4.
X5.98Y-4.1
X6.08Y-3.7
X6.08Y-4.1
X6.18Y-3.7
X6.18Y-4.1
X6.28Y-3.7
X6.28Y-4.1
X6.38Y-3.7
T4
X5.4823Y-3.5
X5.4823Y-4.3
T0
M30
