G04 #@! TF.GenerationSoftware,KiCad,Pcbnew,(5.0.0)*
G04 #@! TF.CreationDate,2018-12-16T16:19:50-06:00*
G04 #@! TF.ProjectId,IMUBreakout_Hardware,494D55427265616B6F75745F48617264,rev?*
G04 #@! TF.SameCoordinates,Original*
G04 #@! TF.FileFunction,Legend,Bot*
G04 #@! TF.FilePolarity,Positive*
%FSLAX46Y46*%
G04 Gerber Fmt 4.6, Leading zero omitted, Abs format (unit mm)*
G04 Created by KiCad (PCBNEW (5.0.0)) date 12/16/18 16:19:50*
%MOMM*%
%LPD*%
G01*
G04 APERTURE LIST*
%ADD10C,0.300000*%
%ADD11C,0.010000*%
G04 APERTURE END LIST*
D10*
X144238428Y-110508428D02*
X145738428Y-110508428D01*
X144238428Y-109794142D02*
X145738428Y-109794142D01*
X144667000Y-109294142D01*
X145738428Y-108794142D01*
X144238428Y-108794142D01*
X145738428Y-108079857D02*
X144524142Y-108079857D01*
X144381285Y-108008428D01*
X144309857Y-107937000D01*
X144238428Y-107794142D01*
X144238428Y-107508428D01*
X144309857Y-107365571D01*
X144381285Y-107294142D01*
X144524142Y-107222714D01*
X145738428Y-107222714D01*
X145024142Y-104865571D02*
X144952714Y-104651285D01*
X144881285Y-104579857D01*
X144738428Y-104508428D01*
X144524142Y-104508428D01*
X144381285Y-104579857D01*
X144309857Y-104651285D01*
X144238428Y-104794142D01*
X144238428Y-105365571D01*
X145738428Y-105365571D01*
X145738428Y-104865571D01*
X145667000Y-104722714D01*
X145595571Y-104651285D01*
X145452714Y-104579857D01*
X145309857Y-104579857D01*
X145167000Y-104651285D01*
X145095571Y-104722714D01*
X145024142Y-104865571D01*
X145024142Y-105365571D01*
X144238428Y-103865571D02*
X145238428Y-103865571D01*
X144952714Y-103865571D02*
X145095571Y-103794142D01*
X145167000Y-103722714D01*
X145238428Y-103579857D01*
X145238428Y-103437000D01*
X144309857Y-102365571D02*
X144238428Y-102508428D01*
X144238428Y-102794142D01*
X144309857Y-102937000D01*
X144452714Y-103008428D01*
X145024142Y-103008428D01*
X145167000Y-102937000D01*
X145238428Y-102794142D01*
X145238428Y-102508428D01*
X145167000Y-102365571D01*
X145024142Y-102294142D01*
X144881285Y-102294142D01*
X144738428Y-103008428D01*
X144238428Y-101008428D02*
X145024142Y-101008428D01*
X145167000Y-101079857D01*
X145238428Y-101222714D01*
X145238428Y-101508428D01*
X145167000Y-101651285D01*
X144309857Y-101008428D02*
X144238428Y-101151285D01*
X144238428Y-101508428D01*
X144309857Y-101651285D01*
X144452714Y-101722714D01*
X144595571Y-101722714D01*
X144738428Y-101651285D01*
X144809857Y-101508428D01*
X144809857Y-101151285D01*
X144881285Y-101008428D01*
X144238428Y-100294142D02*
X145738428Y-100294142D01*
X144809857Y-100151285D02*
X144238428Y-99722714D01*
X145238428Y-99722714D02*
X144667000Y-100294142D01*
X144238428Y-98865571D02*
X144309857Y-99008428D01*
X144381285Y-99079857D01*
X144524142Y-99151285D01*
X144952714Y-99151285D01*
X145095571Y-99079857D01*
X145167000Y-99008428D01*
X145238428Y-98865571D01*
X145238428Y-98651285D01*
X145167000Y-98508428D01*
X145095571Y-98437000D01*
X144952714Y-98365571D01*
X144524142Y-98365571D01*
X144381285Y-98437000D01*
X144309857Y-98508428D01*
X144238428Y-98651285D01*
X144238428Y-98865571D01*
X145238428Y-97079857D02*
X144238428Y-97079857D01*
X145238428Y-97722714D02*
X144452714Y-97722714D01*
X144309857Y-97651285D01*
X144238428Y-97508428D01*
X144238428Y-97294142D01*
X144309857Y-97151285D01*
X144381285Y-97079857D01*
X145238428Y-96579857D02*
X145238428Y-96008428D01*
X145738428Y-96365571D02*
X144452714Y-96365571D01*
X144309857Y-96294142D01*
X144238428Y-96151285D01*
X144238428Y-96008428D01*
X144309857Y-95437000D02*
X144238428Y-95437000D01*
X144095571Y-95508428D01*
X144024142Y-95579857D01*
X144238428Y-92794142D02*
X144952714Y-93294142D01*
X144238428Y-93651285D02*
X145738428Y-93651285D01*
X145738428Y-93079857D01*
X145667000Y-92937000D01*
X145595571Y-92865571D01*
X145452714Y-92794142D01*
X145238428Y-92794142D01*
X145095571Y-92865571D01*
X145024142Y-92937000D01*
X144952714Y-93079857D01*
X144952714Y-93651285D01*
X144309857Y-91579857D02*
X144238428Y-91722714D01*
X144238428Y-92008428D01*
X144309857Y-92151285D01*
X144452714Y-92222714D01*
X145024142Y-92222714D01*
X145167000Y-92151285D01*
X145238428Y-92008428D01*
X145238428Y-91722714D01*
X145167000Y-91579857D01*
X145024142Y-91508428D01*
X144881285Y-91508428D01*
X144738428Y-92222714D01*
X145238428Y-91008428D02*
X144238428Y-90651285D01*
X145238428Y-90294142D01*
X144238428Y-87794142D02*
X144238428Y-88651285D01*
X144238428Y-88222714D02*
X145738428Y-88222714D01*
X145524142Y-88365571D01*
X145381285Y-88508428D01*
X145309857Y-88651285D01*
X141688428Y-108901285D02*
X143188428Y-108901285D01*
X142117000Y-108401285D01*
X143188428Y-107901285D01*
X141688428Y-107901285D01*
X141688428Y-106544142D02*
X142474142Y-106544142D01*
X142617000Y-106615571D01*
X142688428Y-106758428D01*
X142688428Y-107044142D01*
X142617000Y-107187000D01*
X141759857Y-106544142D02*
X141688428Y-106687000D01*
X141688428Y-107044142D01*
X141759857Y-107187000D01*
X141902714Y-107258428D01*
X142045571Y-107258428D01*
X142188428Y-107187000D01*
X142259857Y-107044142D01*
X142259857Y-106687000D01*
X142331285Y-106544142D01*
X141688428Y-105829857D02*
X142688428Y-105829857D01*
X142402714Y-105829857D02*
X142545571Y-105758428D01*
X142617000Y-105687000D01*
X142688428Y-105544142D01*
X142688428Y-105401285D01*
X141759857Y-104972714D02*
X141688428Y-104829857D01*
X141688428Y-104544142D01*
X141759857Y-104401285D01*
X141902714Y-104329857D01*
X141974142Y-104329857D01*
X142117000Y-104401285D01*
X142188428Y-104544142D01*
X142188428Y-104758428D01*
X142259857Y-104901285D01*
X142402714Y-104972714D01*
X142474142Y-104972714D01*
X142617000Y-104901285D01*
X142688428Y-104758428D01*
X142688428Y-104544142D01*
X142617000Y-104401285D01*
X141688428Y-101687000D02*
X142402714Y-102187000D01*
X141688428Y-102544142D02*
X143188428Y-102544142D01*
X143188428Y-101972714D01*
X143117000Y-101829857D01*
X143045571Y-101758428D01*
X142902714Y-101687000D01*
X142688428Y-101687000D01*
X142545571Y-101758428D01*
X142474142Y-101829857D01*
X142402714Y-101972714D01*
X142402714Y-102544142D01*
X141688428Y-100829857D02*
X141759857Y-100972714D01*
X141831285Y-101044142D01*
X141974142Y-101115571D01*
X142402714Y-101115571D01*
X142545571Y-101044142D01*
X142617000Y-100972714D01*
X142688428Y-100829857D01*
X142688428Y-100615571D01*
X142617000Y-100472714D01*
X142545571Y-100401285D01*
X142402714Y-100329857D01*
X141974142Y-100329857D01*
X141831285Y-100401285D01*
X141759857Y-100472714D01*
X141688428Y-100615571D01*
X141688428Y-100829857D01*
X142688428Y-99829857D02*
X141688428Y-99472714D01*
X142688428Y-99115571D01*
X141759857Y-97972714D02*
X141688428Y-98115571D01*
X141688428Y-98401285D01*
X141759857Y-98544142D01*
X141902714Y-98615571D01*
X142474142Y-98615571D01*
X142617000Y-98544142D01*
X142688428Y-98401285D01*
X142688428Y-98115571D01*
X142617000Y-97972714D01*
X142474142Y-97901285D01*
X142331285Y-97901285D01*
X142188428Y-98615571D01*
X141688428Y-97258428D02*
X142688428Y-97258428D01*
X142402714Y-97258428D02*
X142545571Y-97187000D01*
X142617000Y-97115571D01*
X142688428Y-96972714D01*
X142688428Y-96829857D01*
X141759857Y-96258428D02*
X141688428Y-96258428D01*
X141545571Y-96329857D01*
X141474142Y-96401285D01*
X143045571Y-94544142D02*
X143117000Y-94472714D01*
X143188428Y-94329857D01*
X143188428Y-93972714D01*
X143117000Y-93829857D01*
X143045571Y-93758428D01*
X142902714Y-93687000D01*
X142759857Y-93687000D01*
X142545571Y-93758428D01*
X141688428Y-94615571D01*
X141688428Y-93687000D01*
X143188428Y-92758428D02*
X143188428Y-92615571D01*
X143117000Y-92472714D01*
X143045571Y-92401285D01*
X142902714Y-92329857D01*
X142617000Y-92258428D01*
X142259857Y-92258428D01*
X141974142Y-92329857D01*
X141831285Y-92401285D01*
X141759857Y-92472714D01*
X141688428Y-92615571D01*
X141688428Y-92758428D01*
X141759857Y-92901285D01*
X141831285Y-92972714D01*
X141974142Y-93044142D01*
X142259857Y-93115571D01*
X142617000Y-93115571D01*
X142902714Y-93044142D01*
X143045571Y-92972714D01*
X143117000Y-92901285D01*
X143188428Y-92758428D01*
X141688428Y-90829857D02*
X141688428Y-91687000D01*
X141688428Y-91258428D02*
X143188428Y-91258428D01*
X142974142Y-91401285D01*
X142831285Y-91544142D01*
X142759857Y-91687000D01*
X141688428Y-90115571D02*
X141688428Y-89829857D01*
X141759857Y-89687000D01*
X141831285Y-89615571D01*
X142045571Y-89472714D01*
X142331285Y-89401285D01*
X142902714Y-89401285D01*
X143045571Y-89472714D01*
X143117000Y-89544142D01*
X143188428Y-89687000D01*
X143188428Y-89972714D01*
X143117000Y-90115571D01*
X143045571Y-90187000D01*
X142902714Y-90258428D01*
X142545571Y-90258428D01*
X142402714Y-90187000D01*
X142331285Y-90115571D01*
X142259857Y-89972714D01*
X142259857Y-89687000D01*
X142331285Y-89544142D01*
X142402714Y-89472714D01*
X142545571Y-89401285D01*
X139138428Y-106222714D02*
X140638428Y-106222714D01*
X139567000Y-105722714D01*
X140638428Y-105222714D01*
X139138428Y-105222714D01*
X139138428Y-104508428D02*
X140138428Y-104508428D01*
X140638428Y-104508428D02*
X140567000Y-104579857D01*
X140495571Y-104508428D01*
X140567000Y-104437000D01*
X140638428Y-104508428D01*
X140495571Y-104508428D01*
X139209857Y-103865571D02*
X139138428Y-103722714D01*
X139138428Y-103437000D01*
X139209857Y-103294142D01*
X139352714Y-103222714D01*
X139424142Y-103222714D01*
X139567000Y-103294142D01*
X139638428Y-103437000D01*
X139638428Y-103651285D01*
X139709857Y-103794142D01*
X139852714Y-103865571D01*
X139924142Y-103865571D01*
X140067000Y-103794142D01*
X140138428Y-103651285D01*
X140138428Y-103437000D01*
X140067000Y-103294142D01*
X139209857Y-102651285D02*
X139138428Y-102508428D01*
X139138428Y-102222714D01*
X139209857Y-102079857D01*
X139352714Y-102008428D01*
X139424142Y-102008428D01*
X139567000Y-102079857D01*
X139638428Y-102222714D01*
X139638428Y-102437000D01*
X139709857Y-102579857D01*
X139852714Y-102651285D01*
X139924142Y-102651285D01*
X140067000Y-102579857D01*
X140138428Y-102437000D01*
X140138428Y-102222714D01*
X140067000Y-102079857D01*
X139138428Y-101151285D02*
X139209857Y-101294142D01*
X139281285Y-101365571D01*
X139424142Y-101437000D01*
X139852714Y-101437000D01*
X139995571Y-101365571D01*
X140067000Y-101294142D01*
X140138428Y-101151285D01*
X140138428Y-100937000D01*
X140067000Y-100794142D01*
X139995571Y-100722714D01*
X139852714Y-100651285D01*
X139424142Y-100651285D01*
X139281285Y-100722714D01*
X139209857Y-100794142D01*
X139138428Y-100937000D01*
X139138428Y-101151285D01*
X140138428Y-99365571D02*
X139138428Y-99365571D01*
X140138428Y-100008428D02*
X139352714Y-100008428D01*
X139209857Y-99937000D01*
X139138428Y-99794142D01*
X139138428Y-99579857D01*
X139209857Y-99437000D01*
X139281285Y-99365571D01*
X139138428Y-98651285D02*
X140138428Y-98651285D01*
X139852714Y-98651285D02*
X139995571Y-98579857D01*
X140067000Y-98508428D01*
X140138428Y-98365571D01*
X140138428Y-98222714D01*
X139138428Y-97722714D02*
X140138428Y-97722714D01*
X140638428Y-97722714D02*
X140567000Y-97794142D01*
X140495571Y-97722714D01*
X140567000Y-97651285D01*
X140638428Y-97722714D01*
X140495571Y-97722714D01*
X139209857Y-95937000D02*
X139138428Y-95722714D01*
X139138428Y-95365571D01*
X139209857Y-95222714D01*
X139281285Y-95151285D01*
X139424142Y-95079857D01*
X139567000Y-95079857D01*
X139709857Y-95151285D01*
X139781285Y-95222714D01*
X139852714Y-95365571D01*
X139924142Y-95651285D01*
X139995571Y-95794142D01*
X140067000Y-95865571D01*
X140209857Y-95937000D01*
X140352714Y-95937000D01*
X140495571Y-95865571D01*
X140567000Y-95794142D01*
X140638428Y-95651285D01*
X140638428Y-95294142D01*
X140567000Y-95079857D01*
X139138428Y-93222714D02*
X139138428Y-93294142D01*
X139209857Y-93437000D01*
X139424142Y-93651285D01*
X139852714Y-94008428D01*
X140067000Y-94151285D01*
X140281285Y-94222714D01*
X140424142Y-94222714D01*
X140567000Y-94151285D01*
X140638428Y-94008428D01*
X140638428Y-93937000D01*
X140567000Y-93794142D01*
X140424142Y-93722714D01*
X140352714Y-93722714D01*
X140209857Y-93794142D01*
X140138428Y-93865571D01*
X139852714Y-94294142D01*
X139781285Y-94365571D01*
X139638428Y-94437000D01*
X139424142Y-94437000D01*
X139281285Y-94365571D01*
X139209857Y-94294142D01*
X139138428Y-94151285D01*
X139138428Y-93937000D01*
X139209857Y-93794142D01*
X139281285Y-93722714D01*
X139567000Y-93508428D01*
X139781285Y-93437000D01*
X139924142Y-93437000D01*
X140638428Y-92794142D02*
X140638428Y-91937000D01*
X139138428Y-92365571D02*
X140638428Y-92365571D01*
D11*
G04 #@! TO.C,G\002A\002A\002A*
G36*
X164652231Y-93062389D02*
X164642753Y-92996675D01*
X164627198Y-92943170D01*
X164623665Y-92935009D01*
X164608487Y-92902257D01*
X164613582Y-92932375D01*
X164625338Y-93037199D01*
X164624555Y-93135383D01*
X164611282Y-93222468D01*
X164610389Y-93226063D01*
X164577017Y-93327543D01*
X164527010Y-93433293D01*
X164460074Y-93543671D01*
X164375916Y-93659041D01*
X164274242Y-93779761D01*
X164154759Y-93906193D01*
X164017173Y-94038698D01*
X163861190Y-94177636D01*
X163779516Y-94246869D01*
X163702051Y-94311010D01*
X163626510Y-94372288D01*
X163551506Y-94431661D01*
X163475651Y-94490092D01*
X163397557Y-94548540D01*
X163315836Y-94607965D01*
X163229099Y-94669328D01*
X163135958Y-94733588D01*
X163035026Y-94801707D01*
X162924914Y-94874644D01*
X162804234Y-94953360D01*
X162671598Y-95038815D01*
X162525618Y-95131968D01*
X162364906Y-95233782D01*
X162229197Y-95319343D01*
X161914564Y-95514455D01*
X161602650Y-95702118D01*
X161298492Y-95879315D01*
X161220225Y-95923911D01*
X161149511Y-95964213D01*
X161068181Y-96010905D01*
X160982893Y-96060142D01*
X160900305Y-96108081D01*
X160828326Y-96150143D01*
X160756509Y-96192038D01*
X160676976Y-96237995D01*
X160595914Y-96284466D01*
X160519513Y-96327905D01*
X160453959Y-96364765D01*
X160451844Y-96365944D01*
X160394907Y-96397733D01*
X160341074Y-96427890D01*
X160293912Y-96454409D01*
X160256988Y-96475283D01*
X160233871Y-96488507D01*
X160233156Y-96488923D01*
X160189802Y-96514178D01*
X160293393Y-96553153D01*
X160344625Y-96573596D01*
X160403466Y-96599011D01*
X160467412Y-96628123D01*
X160533963Y-96659659D01*
X160600618Y-96692342D01*
X160664874Y-96724897D01*
X160724232Y-96756051D01*
X160776189Y-96784527D01*
X160818244Y-96809050D01*
X160847896Y-96828346D01*
X160862643Y-96841140D01*
X160863822Y-96843919D01*
X160855428Y-96850665D01*
X160832153Y-96865146D01*
X160796854Y-96885691D01*
X160752391Y-96910630D01*
X160710719Y-96933391D01*
X160642926Y-96970144D01*
X160570693Y-97009554D01*
X160496180Y-97050421D01*
X160421542Y-97091545D01*
X160348938Y-97131726D01*
X160280525Y-97169764D01*
X160218461Y-97204458D01*
X160164902Y-97234608D01*
X160122007Y-97259014D01*
X160091933Y-97276476D01*
X160076837Y-97285793D01*
X160075719Y-97286650D01*
X160080126Y-97287347D01*
X160099920Y-97282010D01*
X160131686Y-97271655D01*
X160161055Y-97261299D01*
X160230161Y-97236148D01*
X160306395Y-97208191D01*
X160387628Y-97178227D01*
X160471733Y-97147054D01*
X160556580Y-97115472D01*
X160640042Y-97084280D01*
X160719990Y-97054277D01*
X160794295Y-97026261D01*
X160860830Y-97001034D01*
X160917465Y-96979392D01*
X160962073Y-96962136D01*
X160992525Y-96950064D01*
X161006693Y-96943976D01*
X161007387Y-96943545D01*
X161003461Y-96935077D01*
X160985887Y-96919195D01*
X160958158Y-96898939D01*
X160949660Y-96893295D01*
X160918710Y-96872354D01*
X160895671Y-96855286D01*
X160884610Y-96845145D01*
X160884188Y-96844101D01*
X160892734Y-96837745D01*
X160916517Y-96823454D01*
X160953007Y-96802659D01*
X160999678Y-96776788D01*
X161054004Y-96747270D01*
X161081852Y-96732336D01*
X161147337Y-96697165D01*
X161225147Y-96655055D01*
X161310069Y-96608849D01*
X161396890Y-96561385D01*
X161480398Y-96515506D01*
X161530834Y-96487657D01*
X161603993Y-96447232D01*
X161690138Y-96399745D01*
X161784624Y-96347750D01*
X161882809Y-96293798D01*
X161980051Y-96240442D01*
X162071705Y-96190234D01*
X162103703Y-96172731D01*
X162251300Y-96091380D01*
X162393978Y-96011476D01*
X162530284Y-95933882D01*
X162658767Y-95859464D01*
X162777974Y-95789089D01*
X162886453Y-95723621D01*
X162982752Y-95663926D01*
X163065419Y-95610869D01*
X163133002Y-95565317D01*
X163180439Y-95530911D01*
X163238552Y-95482716D01*
X163280334Y-95439732D01*
X163305389Y-95402673D01*
X163313317Y-95372250D01*
X163303722Y-95349175D01*
X163287895Y-95338453D01*
X163261077Y-95328514D01*
X163245310Y-95326804D01*
X163243205Y-95332460D01*
X163257370Y-95344621D01*
X163261443Y-95347187D01*
X163284974Y-95366560D01*
X163291550Y-95384560D01*
X163291508Y-95384798D01*
X163279465Y-95403666D01*
X163249392Y-95429797D01*
X163201853Y-95462874D01*
X163137412Y-95502580D01*
X163056631Y-95548596D01*
X162960075Y-95600607D01*
X162848306Y-95658293D01*
X162721887Y-95721338D01*
X162581384Y-95789424D01*
X162530383Y-95813722D01*
X162479392Y-95837652D01*
X162416231Y-95866859D01*
X162342552Y-95900609D01*
X162260007Y-95938167D01*
X162170248Y-95978798D01*
X162074927Y-96021767D01*
X161975698Y-96066340D01*
X161874211Y-96111780D01*
X161772120Y-96157354D01*
X161671077Y-96202326D01*
X161572734Y-96245962D01*
X161478743Y-96287526D01*
X161390756Y-96326285D01*
X161310427Y-96361501D01*
X161239406Y-96392442D01*
X161179347Y-96418372D01*
X161131901Y-96438556D01*
X161098721Y-96452259D01*
X161081459Y-96458746D01*
X161079334Y-96459126D01*
X161086518Y-96452980D01*
X161108165Y-96437240D01*
X161142042Y-96413464D01*
X161185913Y-96383209D01*
X161237544Y-96348032D01*
X161277994Y-96320715D01*
X161345243Y-96275178D01*
X161424152Y-96221267D01*
X161512755Y-96160357D01*
X161609085Y-96093825D01*
X161711176Y-96023047D01*
X161817063Y-95949398D01*
X161924778Y-95874255D01*
X162032358Y-95798994D01*
X162137834Y-95724991D01*
X162239242Y-95653622D01*
X162334615Y-95586264D01*
X162421987Y-95524291D01*
X162499392Y-95469081D01*
X162564865Y-95422009D01*
X162616438Y-95384452D01*
X162630778Y-95373857D01*
X162874470Y-95190590D01*
X163100545Y-95015817D01*
X163309397Y-94849157D01*
X163501422Y-94690234D01*
X163677015Y-94538666D01*
X163836571Y-94394076D01*
X163980485Y-94256085D01*
X164109153Y-94124314D01*
X164222969Y-93998383D01*
X164322329Y-93877913D01*
X164407627Y-93762527D01*
X164479259Y-93651844D01*
X164537621Y-93545486D01*
X164537968Y-93544786D01*
X164575805Y-93465505D01*
X164604209Y-93398029D01*
X164624825Y-93337413D01*
X164639297Y-93278717D01*
X164649269Y-93216997D01*
X164650571Y-93206394D01*
X164655036Y-93134300D01*
X164652231Y-93062389D01*
X164652231Y-93062389D01*
G37*
X164652231Y-93062389D02*
X164642753Y-92996675D01*
X164627198Y-92943170D01*
X164623665Y-92935009D01*
X164608487Y-92902257D01*
X164613582Y-92932375D01*
X164625338Y-93037199D01*
X164624555Y-93135383D01*
X164611282Y-93222468D01*
X164610389Y-93226063D01*
X164577017Y-93327543D01*
X164527010Y-93433293D01*
X164460074Y-93543671D01*
X164375916Y-93659041D01*
X164274242Y-93779761D01*
X164154759Y-93906193D01*
X164017173Y-94038698D01*
X163861190Y-94177636D01*
X163779516Y-94246869D01*
X163702051Y-94311010D01*
X163626510Y-94372288D01*
X163551506Y-94431661D01*
X163475651Y-94490092D01*
X163397557Y-94548540D01*
X163315836Y-94607965D01*
X163229099Y-94669328D01*
X163135958Y-94733588D01*
X163035026Y-94801707D01*
X162924914Y-94874644D01*
X162804234Y-94953360D01*
X162671598Y-95038815D01*
X162525618Y-95131968D01*
X162364906Y-95233782D01*
X162229197Y-95319343D01*
X161914564Y-95514455D01*
X161602650Y-95702118D01*
X161298492Y-95879315D01*
X161220225Y-95923911D01*
X161149511Y-95964213D01*
X161068181Y-96010905D01*
X160982893Y-96060142D01*
X160900305Y-96108081D01*
X160828326Y-96150143D01*
X160756509Y-96192038D01*
X160676976Y-96237995D01*
X160595914Y-96284466D01*
X160519513Y-96327905D01*
X160453959Y-96364765D01*
X160451844Y-96365944D01*
X160394907Y-96397733D01*
X160341074Y-96427890D01*
X160293912Y-96454409D01*
X160256988Y-96475283D01*
X160233871Y-96488507D01*
X160233156Y-96488923D01*
X160189802Y-96514178D01*
X160293393Y-96553153D01*
X160344625Y-96573596D01*
X160403466Y-96599011D01*
X160467412Y-96628123D01*
X160533963Y-96659659D01*
X160600618Y-96692342D01*
X160664874Y-96724897D01*
X160724232Y-96756051D01*
X160776189Y-96784527D01*
X160818244Y-96809050D01*
X160847896Y-96828346D01*
X160862643Y-96841140D01*
X160863822Y-96843919D01*
X160855428Y-96850665D01*
X160832153Y-96865146D01*
X160796854Y-96885691D01*
X160752391Y-96910630D01*
X160710719Y-96933391D01*
X160642926Y-96970144D01*
X160570693Y-97009554D01*
X160496180Y-97050421D01*
X160421542Y-97091545D01*
X160348938Y-97131726D01*
X160280525Y-97169764D01*
X160218461Y-97204458D01*
X160164902Y-97234608D01*
X160122007Y-97259014D01*
X160091933Y-97276476D01*
X160076837Y-97285793D01*
X160075719Y-97286650D01*
X160080126Y-97287347D01*
X160099920Y-97282010D01*
X160131686Y-97271655D01*
X160161055Y-97261299D01*
X160230161Y-97236148D01*
X160306395Y-97208191D01*
X160387628Y-97178227D01*
X160471733Y-97147054D01*
X160556580Y-97115472D01*
X160640042Y-97084280D01*
X160719990Y-97054277D01*
X160794295Y-97026261D01*
X160860830Y-97001034D01*
X160917465Y-96979392D01*
X160962073Y-96962136D01*
X160992525Y-96950064D01*
X161006693Y-96943976D01*
X161007387Y-96943545D01*
X161003461Y-96935077D01*
X160985887Y-96919195D01*
X160958158Y-96898939D01*
X160949660Y-96893295D01*
X160918710Y-96872354D01*
X160895671Y-96855286D01*
X160884610Y-96845145D01*
X160884188Y-96844101D01*
X160892734Y-96837745D01*
X160916517Y-96823454D01*
X160953007Y-96802659D01*
X160999678Y-96776788D01*
X161054004Y-96747270D01*
X161081852Y-96732336D01*
X161147337Y-96697165D01*
X161225147Y-96655055D01*
X161310069Y-96608849D01*
X161396890Y-96561385D01*
X161480398Y-96515506D01*
X161530834Y-96487657D01*
X161603993Y-96447232D01*
X161690138Y-96399745D01*
X161784624Y-96347750D01*
X161882809Y-96293798D01*
X161980051Y-96240442D01*
X162071705Y-96190234D01*
X162103703Y-96172731D01*
X162251300Y-96091380D01*
X162393978Y-96011476D01*
X162530284Y-95933882D01*
X162658767Y-95859464D01*
X162777974Y-95789089D01*
X162886453Y-95723621D01*
X162982752Y-95663926D01*
X163065419Y-95610869D01*
X163133002Y-95565317D01*
X163180439Y-95530911D01*
X163238552Y-95482716D01*
X163280334Y-95439732D01*
X163305389Y-95402673D01*
X163313317Y-95372250D01*
X163303722Y-95349175D01*
X163287895Y-95338453D01*
X163261077Y-95328514D01*
X163245310Y-95326804D01*
X163243205Y-95332460D01*
X163257370Y-95344621D01*
X163261443Y-95347187D01*
X163284974Y-95366560D01*
X163291550Y-95384560D01*
X163291508Y-95384798D01*
X163279465Y-95403666D01*
X163249392Y-95429797D01*
X163201853Y-95462874D01*
X163137412Y-95502580D01*
X163056631Y-95548596D01*
X162960075Y-95600607D01*
X162848306Y-95658293D01*
X162721887Y-95721338D01*
X162581384Y-95789424D01*
X162530383Y-95813722D01*
X162479392Y-95837652D01*
X162416231Y-95866859D01*
X162342552Y-95900609D01*
X162260007Y-95938167D01*
X162170248Y-95978798D01*
X162074927Y-96021767D01*
X161975698Y-96066340D01*
X161874211Y-96111780D01*
X161772120Y-96157354D01*
X161671077Y-96202326D01*
X161572734Y-96245962D01*
X161478743Y-96287526D01*
X161390756Y-96326285D01*
X161310427Y-96361501D01*
X161239406Y-96392442D01*
X161179347Y-96418372D01*
X161131901Y-96438556D01*
X161098721Y-96452259D01*
X161081459Y-96458746D01*
X161079334Y-96459126D01*
X161086518Y-96452980D01*
X161108165Y-96437240D01*
X161142042Y-96413464D01*
X161185913Y-96383209D01*
X161237544Y-96348032D01*
X161277994Y-96320715D01*
X161345243Y-96275178D01*
X161424152Y-96221267D01*
X161512755Y-96160357D01*
X161609085Y-96093825D01*
X161711176Y-96023047D01*
X161817063Y-95949398D01*
X161924778Y-95874255D01*
X162032358Y-95798994D01*
X162137834Y-95724991D01*
X162239242Y-95653622D01*
X162334615Y-95586264D01*
X162421987Y-95524291D01*
X162499392Y-95469081D01*
X162564865Y-95422009D01*
X162616438Y-95384452D01*
X162630778Y-95373857D01*
X162874470Y-95190590D01*
X163100545Y-95015817D01*
X163309397Y-94849157D01*
X163501422Y-94690234D01*
X163677015Y-94538666D01*
X163836571Y-94394076D01*
X163980485Y-94256085D01*
X164109153Y-94124314D01*
X164222969Y-93998383D01*
X164322329Y-93877913D01*
X164407627Y-93762527D01*
X164479259Y-93651844D01*
X164537621Y-93545486D01*
X164537968Y-93544786D01*
X164575805Y-93465505D01*
X164604209Y-93398029D01*
X164624825Y-93337413D01*
X164639297Y-93278717D01*
X164649269Y-93216997D01*
X164650571Y-93206394D01*
X164655036Y-93134300D01*
X164652231Y-93062389D01*
G36*
X160055640Y-97294549D02*
X160050620Y-97299569D01*
X160055640Y-97304589D01*
X160060660Y-97299569D01*
X160055640Y-97294549D01*
X160055640Y-97294549D01*
G37*
X160055640Y-97294549D02*
X160050620Y-97299569D01*
X160055640Y-97304589D01*
X160060660Y-97299569D01*
X160055640Y-97294549D01*
G36*
X162413975Y-96352646D02*
X162401874Y-96357903D01*
X162376133Y-96375000D01*
X162362244Y-96384810D01*
X162335158Y-96403160D01*
X162305427Y-96421139D01*
X162270675Y-96439875D01*
X162228523Y-96460497D01*
X162176594Y-96484132D01*
X162112511Y-96511909D01*
X162033895Y-96544957D01*
X161962756Y-96574378D01*
X161901330Y-96599400D01*
X161824556Y-96630260D01*
X161735839Y-96665621D01*
X161638585Y-96704145D01*
X161536199Y-96744494D01*
X161432085Y-96785330D01*
X161329648Y-96825314D01*
X161232294Y-96863109D01*
X161143428Y-96897377D01*
X161066455Y-96926780D01*
X161051012Y-96932631D01*
X161022352Y-96943468D01*
X161099461Y-96999780D01*
X161131699Y-97024678D01*
X161155500Y-97045702D01*
X161167745Y-97059943D01*
X161168279Y-97063994D01*
X161158030Y-97069612D01*
X161131212Y-97083192D01*
X161089351Y-97103987D01*
X161033972Y-97131251D01*
X160966599Y-97164239D01*
X160888757Y-97202204D01*
X160801971Y-97244401D01*
X160707767Y-97290083D01*
X160607668Y-97338505D01*
X160567656Y-97357828D01*
X160337325Y-97469079D01*
X160123881Y-97572313D01*
X159926075Y-97668140D01*
X159742663Y-97757169D01*
X159572397Y-97840010D01*
X159414032Y-97917273D01*
X159266322Y-97989566D01*
X159128020Y-98057500D01*
X158997880Y-98121684D01*
X158874656Y-98182727D01*
X158757101Y-98241239D01*
X158643970Y-98297830D01*
X158579830Y-98330042D01*
X158492508Y-98373701D01*
X158417441Y-98410982D01*
X158352907Y-98443210D01*
X158297180Y-98471713D01*
X158248538Y-98497815D01*
X158205256Y-98522842D01*
X158165612Y-98548121D01*
X158127882Y-98574978D01*
X158090341Y-98604737D01*
X158051267Y-98638726D01*
X158008935Y-98678270D01*
X157961622Y-98724695D01*
X157907604Y-98779326D01*
X157845158Y-98843490D01*
X157772560Y-98918513D01*
X157688087Y-99005720D01*
X157648509Y-99046446D01*
X157576631Y-99119905D01*
X157505557Y-99191772D01*
X157437194Y-99260174D01*
X157373447Y-99323234D01*
X157316223Y-99379077D01*
X157267428Y-99425829D01*
X157228969Y-99461614D01*
X157205307Y-99482443D01*
X157138698Y-99539094D01*
X157059937Y-99607788D01*
X156971211Y-99686518D01*
X156874708Y-99773275D01*
X156772617Y-99866048D01*
X156667127Y-99962830D01*
X156560424Y-100061610D01*
X156454697Y-100160380D01*
X156352135Y-100257131D01*
X156254926Y-100349854D01*
X156165257Y-100436539D01*
X156150724Y-100450723D01*
X156101505Y-100498697D01*
X156057292Y-100541532D01*
X156020016Y-100577376D01*
X155991610Y-100604379D01*
X155974008Y-100620689D01*
X155968990Y-100624784D01*
X155964594Y-100612444D01*
X155956550Y-100584486D01*
X155945857Y-100544823D01*
X155933513Y-100497373D01*
X155920516Y-100446049D01*
X155907863Y-100394768D01*
X155896554Y-100347444D01*
X155887585Y-100307993D01*
X155884354Y-100292752D01*
X155872196Y-100228275D01*
X155865793Y-100181416D01*
X155865027Y-100150594D01*
X155869781Y-100134227D01*
X155872417Y-100131803D01*
X155881881Y-100122211D01*
X155900688Y-100100508D01*
X155925736Y-100070335D01*
X155943510Y-100048384D01*
X156006323Y-99970083D01*
X155856867Y-100128543D01*
X155850773Y-100094491D01*
X155842043Y-100034134D01*
X155834971Y-99961792D01*
X155829538Y-99880206D01*
X155825723Y-99792118D01*
X155823506Y-99700267D01*
X155822867Y-99607396D01*
X155823786Y-99516244D01*
X155826243Y-99429554D01*
X155830218Y-99350066D01*
X155835690Y-99280521D01*
X155842641Y-99223661D01*
X155851049Y-99182226D01*
X155857582Y-99164273D01*
X155869427Y-99152793D01*
X155896956Y-99132475D01*
X155938393Y-99104400D01*
X155991966Y-99069653D01*
X156055902Y-99029315D01*
X156128425Y-98984469D01*
X156207764Y-98936198D01*
X156292143Y-98885584D01*
X156379790Y-98833710D01*
X156468931Y-98781660D01*
X156557792Y-98730514D01*
X156644599Y-98681357D01*
X156692399Y-98654687D01*
X156767413Y-98612366D01*
X156845730Y-98566914D01*
X156922938Y-98520979D01*
X156994626Y-98477212D01*
X157056382Y-98438262D01*
X157093980Y-98413498D01*
X157150554Y-98376447D01*
X157219288Y-98333418D01*
X157294583Y-98287798D01*
X157370839Y-98242975D01*
X157442454Y-98202337D01*
X157449801Y-98198271D01*
X157537948Y-98148378D01*
X157619415Y-98099314D01*
X157699682Y-98047552D01*
X157784222Y-97989562D01*
X157876481Y-97923299D01*
X158074737Y-97781403D01*
X158270613Y-97647315D01*
X158468939Y-97517918D01*
X158674548Y-97390096D01*
X158892268Y-97260731D01*
X158996470Y-97200617D01*
X159058454Y-97164546D01*
X159111958Y-97131721D01*
X159161174Y-97099185D01*
X159210294Y-97063979D01*
X159263512Y-97023143D01*
X159325019Y-96973720D01*
X159367932Y-96938477D01*
X159426934Y-96889836D01*
X159485786Y-96841454D01*
X159541140Y-96796073D01*
X159589645Y-96756438D01*
X159627954Y-96725291D01*
X159644019Y-96712326D01*
X159682457Y-96681124D01*
X159730519Y-96641619D01*
X159782527Y-96598504D01*
X159832799Y-96556472D01*
X159841060Y-96549523D01*
X159882499Y-96515300D01*
X159919185Y-96486261D01*
X159948130Y-96464674D01*
X159966349Y-96452808D01*
X159970492Y-96451229D01*
X159985568Y-96453907D01*
X160012967Y-96460799D01*
X160046787Y-96470190D01*
X160081129Y-96480365D01*
X160110089Y-96489608D01*
X160127769Y-96496206D01*
X160130310Y-96497671D01*
X160126245Y-96506437D01*
X160111326Y-96525275D01*
X160090152Y-96548636D01*
X160069274Y-96571806D01*
X160062355Y-96582652D01*
X160069786Y-96580549D01*
X160070699Y-96579996D01*
X160095105Y-96565959D01*
X160127160Y-96548691D01*
X160140334Y-96541879D01*
X160166086Y-96528178D01*
X160176086Y-96519776D01*
X160172624Y-96513160D01*
X160162830Y-96507396D01*
X160154616Y-96501993D01*
X160151801Y-96495169D01*
X160155999Y-96484343D01*
X160168823Y-96466935D01*
X160191889Y-96440365D01*
X160226808Y-96402050D01*
X160232729Y-96395609D01*
X160336327Y-96281978D01*
X160426678Y-96180747D01*
X160505030Y-96090421D01*
X160572630Y-96009504D01*
X160630725Y-95936500D01*
X160680563Y-95869913D01*
X160723391Y-95808249D01*
X160726423Y-95803679D01*
X160777030Y-95721948D01*
X160813055Y-95652011D01*
X160834374Y-95594216D01*
X160840863Y-95548910D01*
X160832399Y-95516441D01*
X160829704Y-95512533D01*
X160820317Y-95501816D01*
X160815733Y-95503811D01*
X160814164Y-95521427D01*
X160813943Y-95538176D01*
X160807305Y-95582935D01*
X160786062Y-95627343D01*
X160784818Y-95629321D01*
X160759973Y-95664485D01*
X160724047Y-95710028D01*
X160680276Y-95762251D01*
X160631893Y-95817452D01*
X160582135Y-95871933D01*
X160534236Y-95921991D01*
X160496354Y-95959292D01*
X160463332Y-95990271D01*
X160420996Y-96029514D01*
X160371615Y-96074963D01*
X160317459Y-96124556D01*
X160260797Y-96176235D01*
X160203899Y-96227938D01*
X160149034Y-96277606D01*
X160098472Y-96323179D01*
X160054482Y-96362597D01*
X160019334Y-96393800D01*
X159995298Y-96414728D01*
X159987030Y-96421593D01*
X159958899Y-96443721D01*
X159836597Y-96416567D01*
X159730369Y-96394261D01*
X159633150Y-96376917D01*
X159539265Y-96363879D01*
X159443038Y-96354490D01*
X159338793Y-96348093D01*
X159220854Y-96344033D01*
X159206325Y-96343691D01*
X159043112Y-96342432D01*
X158894124Y-96346807D01*
X158754170Y-96357336D01*
X158618058Y-96374539D01*
X158480596Y-96398936D01*
X158337959Y-96430716D01*
X158093238Y-96500211D01*
X157855773Y-96588067D01*
X157626530Y-96693577D01*
X157406474Y-96816032D01*
X157196567Y-96954727D01*
X156997776Y-97108955D01*
X156811065Y-97278008D01*
X156637399Y-97461179D01*
X156477741Y-97657761D01*
X156333057Y-97867047D01*
X156295199Y-97928095D01*
X156179536Y-98136444D01*
X156078360Y-98354391D01*
X155992927Y-98578596D01*
X155924495Y-98805721D01*
X155874324Y-99032425D01*
X155870095Y-99056486D01*
X155859352Y-99109261D01*
X155848273Y-99143313D01*
X155836790Y-99159738D01*
X155823803Y-99168845D01*
X155796752Y-99187607D01*
X155758122Y-99214307D01*
X155710398Y-99247229D01*
X155656066Y-99284656D01*
X155613150Y-99314187D01*
X155456734Y-99424362D01*
X155317621Y-99528006D01*
X155194553Y-99626249D01*
X155086274Y-99720221D01*
X154991526Y-99811053D01*
X154909053Y-99899875D01*
X154837596Y-99987818D01*
X154790270Y-100054188D01*
X154754555Y-100112682D01*
X154719158Y-100180022D01*
X154687035Y-100249819D01*
X154661144Y-100315685D01*
X154645409Y-100367157D01*
X154630792Y-100449488D01*
X154624291Y-100538579D01*
X154626208Y-100625677D01*
X154634343Y-100689848D01*
X154667090Y-100808821D01*
X154719260Y-100922845D01*
X154790777Y-101031766D01*
X154821051Y-101069470D01*
X154843714Y-101098573D01*
X154855478Y-101122262D01*
X154859769Y-101149195D01*
X154860185Y-101168338D01*
X154868071Y-101302879D01*
X154890842Y-101439396D01*
X154899654Y-101471863D01*
X154899654Y-100729916D01*
X154890936Y-100716017D01*
X154886861Y-100702968D01*
X154884670Y-100683926D01*
X154883597Y-100650990D01*
X154883800Y-100610323D01*
X154884133Y-100597553D01*
X154888361Y-100538989D01*
X154898089Y-100490665D01*
X154912599Y-100449181D01*
X154943584Y-100381318D01*
X154979068Y-100320586D01*
X155022769Y-100261569D01*
X155078407Y-100198854D01*
X155099828Y-100176620D01*
X155132514Y-100143809D01*
X155157949Y-100119422D01*
X155174148Y-100105264D01*
X155179126Y-100103144D01*
X155177827Y-100105616D01*
X155113379Y-100209384D01*
X155061985Y-100299045D01*
X155023207Y-100375363D01*
X155021511Y-100379016D01*
X154998419Y-100432893D01*
X154974820Y-100494598D01*
X154952592Y-100558549D01*
X154933611Y-100619165D01*
X154919755Y-100670864D01*
X154914218Y-100698073D01*
X154907621Y-100723898D01*
X154899654Y-100729916D01*
X154899654Y-101471863D01*
X154927175Y-101573263D01*
X154975742Y-101699856D01*
X155035218Y-101814547D01*
X155053999Y-101844437D01*
X155074114Y-101879009D01*
X155089748Y-101912990D01*
X155096005Y-101932810D01*
X155103771Y-101958951D01*
X155117799Y-101995692D01*
X155135267Y-102035726D01*
X155138011Y-102041565D01*
X155187086Y-102121877D01*
X155187208Y-102122007D01*
X155187208Y-101144331D01*
X155179249Y-101141001D01*
X155168487Y-101131616D01*
X155166129Y-101129402D01*
X155153744Y-101116842D01*
X155146086Y-101104360D01*
X155143040Y-101088073D01*
X155144488Y-101064100D01*
X155150312Y-101028557D01*
X155160396Y-100977562D01*
X155161397Y-100972630D01*
X155170545Y-100931604D01*
X155182313Y-100884602D01*
X155195626Y-100835259D01*
X155209410Y-100787207D01*
X155222590Y-100744081D01*
X155234091Y-100709515D01*
X155242839Y-100687141D01*
X155247759Y-100680594D01*
X155247766Y-100680602D01*
X155247808Y-100691460D01*
X155244760Y-100717269D01*
X155239230Y-100753243D01*
X155236608Y-100768565D01*
X155229944Y-100812364D01*
X155222838Y-100868827D01*
X155216152Y-100930583D01*
X155210867Y-100988747D01*
X155205821Y-101050583D01*
X155201671Y-101094733D01*
X155197680Y-101123523D01*
X155193105Y-101139281D01*
X155187208Y-101144331D01*
X155187208Y-102122007D01*
X155252433Y-102191513D01*
X155332912Y-102249803D01*
X155427386Y-102296072D01*
X155534716Y-102329651D01*
X155653764Y-102349866D01*
X155661693Y-102350683D01*
X155704864Y-102357747D01*
X155756055Y-102370153D01*
X155804830Y-102385340D01*
X155808921Y-102386821D01*
X155929872Y-102426118D01*
X155949474Y-102431174D01*
X155949474Y-102235536D01*
X155877664Y-102231156D01*
X155833935Y-102226719D01*
X155798083Y-102217683D01*
X155760571Y-102201158D01*
X155737111Y-102188574D01*
X155598930Y-102103145D01*
X155478894Y-102010391D01*
X155376214Y-101909675D01*
X155340259Y-101867553D01*
X155291460Y-101807316D01*
X155297682Y-101742059D01*
X155301439Y-101708067D01*
X155305176Y-101682987D01*
X155307935Y-101672619D01*
X155310638Y-101670468D01*
X155314202Y-101672384D01*
X155320863Y-101681524D01*
X155332854Y-101701042D01*
X155352412Y-101734097D01*
X155357103Y-101742059D01*
X155431038Y-101851784D01*
X155517492Y-101950309D01*
X155618254Y-102039237D01*
X155735114Y-102120172D01*
X155851858Y-102185634D01*
X155949474Y-102235536D01*
X155949474Y-102431174D01*
X156068329Y-102461832D01*
X156221962Y-102493481D01*
X156388438Y-102520582D01*
X156556865Y-102541729D01*
X156609431Y-102546342D01*
X156673388Y-102550212D01*
X156745690Y-102553319D01*
X156823292Y-102555640D01*
X156903148Y-102557155D01*
X156982212Y-102557842D01*
X157057438Y-102557680D01*
X157125781Y-102556648D01*
X157184194Y-102554724D01*
X157229633Y-102551887D01*
X157259051Y-102548115D01*
X157264652Y-102546686D01*
X157279839Y-102541152D01*
X157280609Y-102538077D01*
X157264931Y-102536598D01*
X157239553Y-102535987D01*
X157159789Y-102532728D01*
X157065068Y-102525703D01*
X156960032Y-102515506D01*
X156849325Y-102502730D01*
X156737589Y-102487970D01*
X156629466Y-102471819D01*
X156529601Y-102454871D01*
X156442635Y-102437719D01*
X156406114Y-102429415D01*
X156344970Y-102414075D01*
X156284667Y-102397817D01*
X156228187Y-102381569D01*
X156178517Y-102366258D01*
X156138640Y-102352815D01*
X156111541Y-102342167D01*
X156100205Y-102335244D01*
X156100171Y-102334222D01*
X156116423Y-102325001D01*
X156148348Y-102320391D01*
X156192080Y-102320386D01*
X156243750Y-102324979D01*
X156299493Y-102334162D01*
X156301674Y-102334608D01*
X156376500Y-102349151D01*
X156448120Y-102360968D01*
X156519942Y-102370340D01*
X156595373Y-102377545D01*
X156677823Y-102382863D01*
X156770699Y-102386574D01*
X156877412Y-102388958D01*
X156978525Y-102390125D01*
X157174044Y-102391690D01*
X157174044Y-102333900D01*
X157135033Y-102332935D01*
X157086460Y-102330944D01*
X157031809Y-102328100D01*
X156974566Y-102324577D01*
X156918216Y-102320552D01*
X156866245Y-102316198D01*
X156837972Y-102313433D01*
X156790848Y-102307856D01*
X156736813Y-102300446D01*
X156679807Y-102291862D01*
X156623772Y-102282763D01*
X156572651Y-102273809D01*
X156530384Y-102265659D01*
X156500914Y-102258971D01*
X156489180Y-102255106D01*
X156493258Y-102249685D01*
X156513367Y-102239743D01*
X156546340Y-102226636D01*
X156589010Y-102211724D01*
X156594595Y-102209890D01*
X156661950Y-102187303D01*
X156718511Y-102167105D01*
X156762354Y-102150059D01*
X156791557Y-102136930D01*
X156804195Y-102128481D01*
X156804214Y-102126614D01*
X156793344Y-102126952D01*
X156766753Y-102130951D01*
X156728328Y-102137949D01*
X156681958Y-102147283D01*
X156677486Y-102148223D01*
X156614190Y-102161042D01*
X156542567Y-102174695D01*
X156473215Y-102187196D01*
X156435209Y-102193628D01*
X156315409Y-102213173D01*
X156227817Y-102182665D01*
X156160648Y-102157137D01*
X156086994Y-102125570D01*
X156012384Y-102090624D01*
X155942351Y-102054955D01*
X155882428Y-102021223D01*
X155852696Y-102002391D01*
X155789290Y-101954517D01*
X155723972Y-101896419D01*
X155663063Y-101834187D01*
X155612883Y-101773906D01*
X155606776Y-101765554D01*
X155586796Y-101735169D01*
X155564782Y-101697751D01*
X155542763Y-101657310D01*
X155522765Y-101617856D01*
X155506817Y-101583397D01*
X155496946Y-101557945D01*
X155495179Y-101545507D01*
X155495374Y-101545263D01*
X155505812Y-101547111D01*
X155529641Y-101555792D01*
X155562110Y-101569540D01*
X155568897Y-101572595D01*
X155637108Y-101602235D01*
X155718757Y-101635578D01*
X155808083Y-101670441D01*
X155899328Y-101704641D01*
X155986732Y-101735994D01*
X156064535Y-101762320D01*
X156095047Y-101771995D01*
X156150971Y-101788726D01*
X156214178Y-101806778D01*
X156281511Y-101825338D01*
X156349815Y-101843594D01*
X156415934Y-101860734D01*
X156476714Y-101875945D01*
X156528998Y-101888415D01*
X156569630Y-101897331D01*
X156595456Y-101901882D01*
X156601179Y-101902295D01*
X156597332Y-101898634D01*
X156576811Y-101888424D01*
X156541601Y-101872526D01*
X156493689Y-101851804D01*
X156435059Y-101827121D01*
X156367699Y-101799341D01*
X156315917Y-101778312D01*
X156207564Y-101734224D01*
X156114537Y-101695460D01*
X156033329Y-101660384D01*
X155960433Y-101627357D01*
X155892341Y-101594743D01*
X155825546Y-101560904D01*
X155756541Y-101524203D01*
X155681819Y-101483001D01*
X155673860Y-101478550D01*
X155602865Y-101438507D01*
X155547699Y-101406567D01*
X155506466Y-101381403D01*
X155477269Y-101361687D01*
X155458212Y-101346092D01*
X155447396Y-101333290D01*
X155442926Y-101321953D01*
X155442478Y-101316603D01*
X155447826Y-101298407D01*
X155462259Y-101268425D01*
X155483364Y-101231331D01*
X155500937Y-101203449D01*
X155529094Y-101162526D01*
X155565900Y-101111844D01*
X155607142Y-101057065D01*
X155648607Y-101003852D01*
X155660484Y-100989011D01*
X155668367Y-100979388D01*
X155668367Y-100396762D01*
X155663347Y-100391743D01*
X155668367Y-100386723D01*
X155673387Y-100391743D01*
X155668367Y-100396762D01*
X155668367Y-100979388D01*
X155676855Y-100969026D01*
X155676855Y-100376683D01*
X155678757Y-100369009D01*
X155693466Y-100346069D01*
X155720894Y-100307989D01*
X155760954Y-100254893D01*
X155781663Y-100227967D01*
X155808519Y-100194157D01*
X155830833Y-100167852D01*
X155845893Y-100152142D01*
X155850837Y-100149206D01*
X155846584Y-100158049D01*
X155832394Y-100179076D01*
X155810918Y-100208823D01*
X155784804Y-100243829D01*
X155756700Y-100280630D01*
X155729254Y-100315764D01*
X155705115Y-100345768D01*
X155686932Y-100367178D01*
X155677353Y-100376533D01*
X155676855Y-100376683D01*
X155676855Y-100969026D01*
X155695881Y-100945799D01*
X155735698Y-100898355D01*
X155777901Y-100848978D01*
X155820453Y-100799967D01*
X155861319Y-100753621D01*
X155898463Y-100712237D01*
X155929849Y-100678116D01*
X155953442Y-100653556D01*
X155967206Y-100640855D01*
X155969809Y-100639707D01*
X155974209Y-100649749D01*
X155984045Y-100674918D01*
X155997881Y-100711470D01*
X156014284Y-100755663D01*
X156015115Y-100757921D01*
X156111341Y-100991754D01*
X156224772Y-101217478D01*
X156354404Y-101433738D01*
X156499236Y-101639178D01*
X156658265Y-101832442D01*
X156830491Y-102012175D01*
X157014910Y-102177021D01*
X157131628Y-102268690D01*
X157164900Y-102294041D01*
X157191071Y-102314950D01*
X157206639Y-102328564D01*
X157209434Y-102332048D01*
X157200006Y-102333662D01*
X157174044Y-102333900D01*
X157174044Y-102391690D01*
X157304810Y-102392737D01*
X157415245Y-102459863D01*
X157635980Y-102582386D01*
X157865600Y-102686994D01*
X158104215Y-102773726D01*
X158351936Y-102842617D01*
X158608876Y-102893705D01*
X158785640Y-102917926D01*
X158841550Y-102922606D01*
X158912915Y-102926077D01*
X158995147Y-102928338D01*
X159083657Y-102929389D01*
X159173858Y-102929230D01*
X159261162Y-102927861D01*
X159340981Y-102925282D01*
X159408726Y-102921493D01*
X159448249Y-102917926D01*
X159711905Y-102878531D01*
X159966807Y-102821070D01*
X160212997Y-102745524D01*
X160450524Y-102651874D01*
X160679432Y-102540103D01*
X160899766Y-102410190D01*
X161111573Y-102262118D01*
X161185087Y-102204889D01*
X161245977Y-102153779D01*
X161315427Y-102091521D01*
X161389078Y-102022338D01*
X161462568Y-101950452D01*
X161531537Y-101880085D01*
X161591624Y-101815460D01*
X161616444Y-101787237D01*
X161776723Y-101585321D01*
X161919968Y-101373021D01*
X162045849Y-101151097D01*
X162154034Y-100920311D01*
X162244190Y-100681425D01*
X162315986Y-100435200D01*
X162369090Y-100182398D01*
X162395165Y-100000201D01*
X162401925Y-99925488D01*
X162406918Y-99836430D01*
X162410104Y-99738239D01*
X162411443Y-99636126D01*
X162410893Y-99535303D01*
X162408416Y-99440981D01*
X162403970Y-99358372D01*
X162400436Y-99317513D01*
X162364031Y-99057519D01*
X162309269Y-98805606D01*
X162236063Y-98561561D01*
X162144324Y-98325170D01*
X162033963Y-98096218D01*
X161904893Y-97874492D01*
X161757024Y-97659778D01*
X161668411Y-97545537D01*
X161631298Y-97501715D01*
X161584266Y-97449445D01*
X161530320Y-97391774D01*
X161472464Y-97331749D01*
X161413706Y-97272416D01*
X161357049Y-97216821D01*
X161305500Y-97168011D01*
X161262064Y-97129032D01*
X161237569Y-97108818D01*
X161211109Y-97087578D01*
X161192373Y-97071245D01*
X161185601Y-97063640D01*
X161194159Y-97058087D01*
X161218577Y-97044652D01*
X161256756Y-97024430D01*
X161306594Y-96998516D01*
X161365994Y-96968003D01*
X161432853Y-96933989D01*
X161478854Y-96910752D01*
X161620407Y-96838706D01*
X161753642Y-96769417D01*
X161877520Y-96703486D01*
X161991003Y-96641513D01*
X162093052Y-96584099D01*
X162182628Y-96531843D01*
X162258692Y-96485346D01*
X162320205Y-96445209D01*
X162366128Y-96412031D01*
X162395422Y-96386414D01*
X162403704Y-96376332D01*
X162414047Y-96358898D01*
X162413975Y-96352646D01*
X162413975Y-96352646D01*
G37*
X162413975Y-96352646D02*
X162401874Y-96357903D01*
X162376133Y-96375000D01*
X162362244Y-96384810D01*
X162335158Y-96403160D01*
X162305427Y-96421139D01*
X162270675Y-96439875D01*
X162228523Y-96460497D01*
X162176594Y-96484132D01*
X162112511Y-96511909D01*
X162033895Y-96544957D01*
X161962756Y-96574378D01*
X161901330Y-96599400D01*
X161824556Y-96630260D01*
X161735839Y-96665621D01*
X161638585Y-96704145D01*
X161536199Y-96744494D01*
X161432085Y-96785330D01*
X161329648Y-96825314D01*
X161232294Y-96863109D01*
X161143428Y-96897377D01*
X161066455Y-96926780D01*
X161051012Y-96932631D01*
X161022352Y-96943468D01*
X161099461Y-96999780D01*
X161131699Y-97024678D01*
X161155500Y-97045702D01*
X161167745Y-97059943D01*
X161168279Y-97063994D01*
X161158030Y-97069612D01*
X161131212Y-97083192D01*
X161089351Y-97103987D01*
X161033972Y-97131251D01*
X160966599Y-97164239D01*
X160888757Y-97202204D01*
X160801971Y-97244401D01*
X160707767Y-97290083D01*
X160607668Y-97338505D01*
X160567656Y-97357828D01*
X160337325Y-97469079D01*
X160123881Y-97572313D01*
X159926075Y-97668140D01*
X159742663Y-97757169D01*
X159572397Y-97840010D01*
X159414032Y-97917273D01*
X159266322Y-97989566D01*
X159128020Y-98057500D01*
X158997880Y-98121684D01*
X158874656Y-98182727D01*
X158757101Y-98241239D01*
X158643970Y-98297830D01*
X158579830Y-98330042D01*
X158492508Y-98373701D01*
X158417441Y-98410982D01*
X158352907Y-98443210D01*
X158297180Y-98471713D01*
X158248538Y-98497815D01*
X158205256Y-98522842D01*
X158165612Y-98548121D01*
X158127882Y-98574978D01*
X158090341Y-98604737D01*
X158051267Y-98638726D01*
X158008935Y-98678270D01*
X157961622Y-98724695D01*
X157907604Y-98779326D01*
X157845158Y-98843490D01*
X157772560Y-98918513D01*
X157688087Y-99005720D01*
X157648509Y-99046446D01*
X157576631Y-99119905D01*
X157505557Y-99191772D01*
X157437194Y-99260174D01*
X157373447Y-99323234D01*
X157316223Y-99379077D01*
X157267428Y-99425829D01*
X157228969Y-99461614D01*
X157205307Y-99482443D01*
X157138698Y-99539094D01*
X157059937Y-99607788D01*
X156971211Y-99686518D01*
X156874708Y-99773275D01*
X156772617Y-99866048D01*
X156667127Y-99962830D01*
X156560424Y-100061610D01*
X156454697Y-100160380D01*
X156352135Y-100257131D01*
X156254926Y-100349854D01*
X156165257Y-100436539D01*
X156150724Y-100450723D01*
X156101505Y-100498697D01*
X156057292Y-100541532D01*
X156020016Y-100577376D01*
X155991610Y-100604379D01*
X155974008Y-100620689D01*
X155968990Y-100624784D01*
X155964594Y-100612444D01*
X155956550Y-100584486D01*
X155945857Y-100544823D01*
X155933513Y-100497373D01*
X155920516Y-100446049D01*
X155907863Y-100394768D01*
X155896554Y-100347444D01*
X155887585Y-100307993D01*
X155884354Y-100292752D01*
X155872196Y-100228275D01*
X155865793Y-100181416D01*
X155865027Y-100150594D01*
X155869781Y-100134227D01*
X155872417Y-100131803D01*
X155881881Y-100122211D01*
X155900688Y-100100508D01*
X155925736Y-100070335D01*
X155943510Y-100048384D01*
X156006323Y-99970083D01*
X155856867Y-100128543D01*
X155850773Y-100094491D01*
X155842043Y-100034134D01*
X155834971Y-99961792D01*
X155829538Y-99880206D01*
X155825723Y-99792118D01*
X155823506Y-99700267D01*
X155822867Y-99607396D01*
X155823786Y-99516244D01*
X155826243Y-99429554D01*
X155830218Y-99350066D01*
X155835690Y-99280521D01*
X155842641Y-99223661D01*
X155851049Y-99182226D01*
X155857582Y-99164273D01*
X155869427Y-99152793D01*
X155896956Y-99132475D01*
X155938393Y-99104400D01*
X155991966Y-99069653D01*
X156055902Y-99029315D01*
X156128425Y-98984469D01*
X156207764Y-98936198D01*
X156292143Y-98885584D01*
X156379790Y-98833710D01*
X156468931Y-98781660D01*
X156557792Y-98730514D01*
X156644599Y-98681357D01*
X156692399Y-98654687D01*
X156767413Y-98612366D01*
X156845730Y-98566914D01*
X156922938Y-98520979D01*
X156994626Y-98477212D01*
X157056382Y-98438262D01*
X157093980Y-98413498D01*
X157150554Y-98376447D01*
X157219288Y-98333418D01*
X157294583Y-98287798D01*
X157370839Y-98242975D01*
X157442454Y-98202337D01*
X157449801Y-98198271D01*
X157537948Y-98148378D01*
X157619415Y-98099314D01*
X157699682Y-98047552D01*
X157784222Y-97989562D01*
X157876481Y-97923299D01*
X158074737Y-97781403D01*
X158270613Y-97647315D01*
X158468939Y-97517918D01*
X158674548Y-97390096D01*
X158892268Y-97260731D01*
X158996470Y-97200617D01*
X159058454Y-97164546D01*
X159111958Y-97131721D01*
X159161174Y-97099185D01*
X159210294Y-97063979D01*
X159263512Y-97023143D01*
X159325019Y-96973720D01*
X159367932Y-96938477D01*
X159426934Y-96889836D01*
X159485786Y-96841454D01*
X159541140Y-96796073D01*
X159589645Y-96756438D01*
X159627954Y-96725291D01*
X159644019Y-96712326D01*
X159682457Y-96681124D01*
X159730519Y-96641619D01*
X159782527Y-96598504D01*
X159832799Y-96556472D01*
X159841060Y-96549523D01*
X159882499Y-96515300D01*
X159919185Y-96486261D01*
X159948130Y-96464674D01*
X159966349Y-96452808D01*
X159970492Y-96451229D01*
X159985568Y-96453907D01*
X160012967Y-96460799D01*
X160046787Y-96470190D01*
X160081129Y-96480365D01*
X160110089Y-96489608D01*
X160127769Y-96496206D01*
X160130310Y-96497671D01*
X160126245Y-96506437D01*
X160111326Y-96525275D01*
X160090152Y-96548636D01*
X160069274Y-96571806D01*
X160062355Y-96582652D01*
X160069786Y-96580549D01*
X160070699Y-96579996D01*
X160095105Y-96565959D01*
X160127160Y-96548691D01*
X160140334Y-96541879D01*
X160166086Y-96528178D01*
X160176086Y-96519776D01*
X160172624Y-96513160D01*
X160162830Y-96507396D01*
X160154616Y-96501993D01*
X160151801Y-96495169D01*
X160155999Y-96484343D01*
X160168823Y-96466935D01*
X160191889Y-96440365D01*
X160226808Y-96402050D01*
X160232729Y-96395609D01*
X160336327Y-96281978D01*
X160426678Y-96180747D01*
X160505030Y-96090421D01*
X160572630Y-96009504D01*
X160630725Y-95936500D01*
X160680563Y-95869913D01*
X160723391Y-95808249D01*
X160726423Y-95803679D01*
X160777030Y-95721948D01*
X160813055Y-95652011D01*
X160834374Y-95594216D01*
X160840863Y-95548910D01*
X160832399Y-95516441D01*
X160829704Y-95512533D01*
X160820317Y-95501816D01*
X160815733Y-95503811D01*
X160814164Y-95521427D01*
X160813943Y-95538176D01*
X160807305Y-95582935D01*
X160786062Y-95627343D01*
X160784818Y-95629321D01*
X160759973Y-95664485D01*
X160724047Y-95710028D01*
X160680276Y-95762251D01*
X160631893Y-95817452D01*
X160582135Y-95871933D01*
X160534236Y-95921991D01*
X160496354Y-95959292D01*
X160463332Y-95990271D01*
X160420996Y-96029514D01*
X160371615Y-96074963D01*
X160317459Y-96124556D01*
X160260797Y-96176235D01*
X160203899Y-96227938D01*
X160149034Y-96277606D01*
X160098472Y-96323179D01*
X160054482Y-96362597D01*
X160019334Y-96393800D01*
X159995298Y-96414728D01*
X159987030Y-96421593D01*
X159958899Y-96443721D01*
X159836597Y-96416567D01*
X159730369Y-96394261D01*
X159633150Y-96376917D01*
X159539265Y-96363879D01*
X159443038Y-96354490D01*
X159338793Y-96348093D01*
X159220854Y-96344033D01*
X159206325Y-96343691D01*
X159043112Y-96342432D01*
X158894124Y-96346807D01*
X158754170Y-96357336D01*
X158618058Y-96374539D01*
X158480596Y-96398936D01*
X158337959Y-96430716D01*
X158093238Y-96500211D01*
X157855773Y-96588067D01*
X157626530Y-96693577D01*
X157406474Y-96816032D01*
X157196567Y-96954727D01*
X156997776Y-97108955D01*
X156811065Y-97278008D01*
X156637399Y-97461179D01*
X156477741Y-97657761D01*
X156333057Y-97867047D01*
X156295199Y-97928095D01*
X156179536Y-98136444D01*
X156078360Y-98354391D01*
X155992927Y-98578596D01*
X155924495Y-98805721D01*
X155874324Y-99032425D01*
X155870095Y-99056486D01*
X155859352Y-99109261D01*
X155848273Y-99143313D01*
X155836790Y-99159738D01*
X155823803Y-99168845D01*
X155796752Y-99187607D01*
X155758122Y-99214307D01*
X155710398Y-99247229D01*
X155656066Y-99284656D01*
X155613150Y-99314187D01*
X155456734Y-99424362D01*
X155317621Y-99528006D01*
X155194553Y-99626249D01*
X155086274Y-99720221D01*
X154991526Y-99811053D01*
X154909053Y-99899875D01*
X154837596Y-99987818D01*
X154790270Y-100054188D01*
X154754555Y-100112682D01*
X154719158Y-100180022D01*
X154687035Y-100249819D01*
X154661144Y-100315685D01*
X154645409Y-100367157D01*
X154630792Y-100449488D01*
X154624291Y-100538579D01*
X154626208Y-100625677D01*
X154634343Y-100689848D01*
X154667090Y-100808821D01*
X154719260Y-100922845D01*
X154790777Y-101031766D01*
X154821051Y-101069470D01*
X154843714Y-101098573D01*
X154855478Y-101122262D01*
X154859769Y-101149195D01*
X154860185Y-101168338D01*
X154868071Y-101302879D01*
X154890842Y-101439396D01*
X154899654Y-101471863D01*
X154899654Y-100729916D01*
X154890936Y-100716017D01*
X154886861Y-100702968D01*
X154884670Y-100683926D01*
X154883597Y-100650990D01*
X154883800Y-100610323D01*
X154884133Y-100597553D01*
X154888361Y-100538989D01*
X154898089Y-100490665D01*
X154912599Y-100449181D01*
X154943584Y-100381318D01*
X154979068Y-100320586D01*
X155022769Y-100261569D01*
X155078407Y-100198854D01*
X155099828Y-100176620D01*
X155132514Y-100143809D01*
X155157949Y-100119422D01*
X155174148Y-100105264D01*
X155179126Y-100103144D01*
X155177827Y-100105616D01*
X155113379Y-100209384D01*
X155061985Y-100299045D01*
X155023207Y-100375363D01*
X155021511Y-100379016D01*
X154998419Y-100432893D01*
X154974820Y-100494598D01*
X154952592Y-100558549D01*
X154933611Y-100619165D01*
X154919755Y-100670864D01*
X154914218Y-100698073D01*
X154907621Y-100723898D01*
X154899654Y-100729916D01*
X154899654Y-101471863D01*
X154927175Y-101573263D01*
X154975742Y-101699856D01*
X155035218Y-101814547D01*
X155053999Y-101844437D01*
X155074114Y-101879009D01*
X155089748Y-101912990D01*
X155096005Y-101932810D01*
X155103771Y-101958951D01*
X155117799Y-101995692D01*
X155135267Y-102035726D01*
X155138011Y-102041565D01*
X155187086Y-102121877D01*
X155187208Y-102122007D01*
X155187208Y-101144331D01*
X155179249Y-101141001D01*
X155168487Y-101131616D01*
X155166129Y-101129402D01*
X155153744Y-101116842D01*
X155146086Y-101104360D01*
X155143040Y-101088073D01*
X155144488Y-101064100D01*
X155150312Y-101028557D01*
X155160396Y-100977562D01*
X155161397Y-100972630D01*
X155170545Y-100931604D01*
X155182313Y-100884602D01*
X155195626Y-100835259D01*
X155209410Y-100787207D01*
X155222590Y-100744081D01*
X155234091Y-100709515D01*
X155242839Y-100687141D01*
X155247759Y-100680594D01*
X155247766Y-100680602D01*
X155247808Y-100691460D01*
X155244760Y-100717269D01*
X155239230Y-100753243D01*
X155236608Y-100768565D01*
X155229944Y-100812364D01*
X155222838Y-100868827D01*
X155216152Y-100930583D01*
X155210867Y-100988747D01*
X155205821Y-101050583D01*
X155201671Y-101094733D01*
X155197680Y-101123523D01*
X155193105Y-101139281D01*
X155187208Y-101144331D01*
X155187208Y-102122007D01*
X155252433Y-102191513D01*
X155332912Y-102249803D01*
X155427386Y-102296072D01*
X155534716Y-102329651D01*
X155653764Y-102349866D01*
X155661693Y-102350683D01*
X155704864Y-102357747D01*
X155756055Y-102370153D01*
X155804830Y-102385340D01*
X155808921Y-102386821D01*
X155929872Y-102426118D01*
X155949474Y-102431174D01*
X155949474Y-102235536D01*
X155877664Y-102231156D01*
X155833935Y-102226719D01*
X155798083Y-102217683D01*
X155760571Y-102201158D01*
X155737111Y-102188574D01*
X155598930Y-102103145D01*
X155478894Y-102010391D01*
X155376214Y-101909675D01*
X155340259Y-101867553D01*
X155291460Y-101807316D01*
X155297682Y-101742059D01*
X155301439Y-101708067D01*
X155305176Y-101682987D01*
X155307935Y-101672619D01*
X155310638Y-101670468D01*
X155314202Y-101672384D01*
X155320863Y-101681524D01*
X155332854Y-101701042D01*
X155352412Y-101734097D01*
X155357103Y-101742059D01*
X155431038Y-101851784D01*
X155517492Y-101950309D01*
X155618254Y-102039237D01*
X155735114Y-102120172D01*
X155851858Y-102185634D01*
X155949474Y-102235536D01*
X155949474Y-102431174D01*
X156068329Y-102461832D01*
X156221962Y-102493481D01*
X156388438Y-102520582D01*
X156556865Y-102541729D01*
X156609431Y-102546342D01*
X156673388Y-102550212D01*
X156745690Y-102553319D01*
X156823292Y-102555640D01*
X156903148Y-102557155D01*
X156982212Y-102557842D01*
X157057438Y-102557680D01*
X157125781Y-102556648D01*
X157184194Y-102554724D01*
X157229633Y-102551887D01*
X157259051Y-102548115D01*
X157264652Y-102546686D01*
X157279839Y-102541152D01*
X157280609Y-102538077D01*
X157264931Y-102536598D01*
X157239553Y-102535987D01*
X157159789Y-102532728D01*
X157065068Y-102525703D01*
X156960032Y-102515506D01*
X156849325Y-102502730D01*
X156737589Y-102487970D01*
X156629466Y-102471819D01*
X156529601Y-102454871D01*
X156442635Y-102437719D01*
X156406114Y-102429415D01*
X156344970Y-102414075D01*
X156284667Y-102397817D01*
X156228187Y-102381569D01*
X156178517Y-102366258D01*
X156138640Y-102352815D01*
X156111541Y-102342167D01*
X156100205Y-102335244D01*
X156100171Y-102334222D01*
X156116423Y-102325001D01*
X156148348Y-102320391D01*
X156192080Y-102320386D01*
X156243750Y-102324979D01*
X156299493Y-102334162D01*
X156301674Y-102334608D01*
X156376500Y-102349151D01*
X156448120Y-102360968D01*
X156519942Y-102370340D01*
X156595373Y-102377545D01*
X156677823Y-102382863D01*
X156770699Y-102386574D01*
X156877412Y-102388958D01*
X156978525Y-102390125D01*
X157174044Y-102391690D01*
X157174044Y-102333900D01*
X157135033Y-102332935D01*
X157086460Y-102330944D01*
X157031809Y-102328100D01*
X156974566Y-102324577D01*
X156918216Y-102320552D01*
X156866245Y-102316198D01*
X156837972Y-102313433D01*
X156790848Y-102307856D01*
X156736813Y-102300446D01*
X156679807Y-102291862D01*
X156623772Y-102282763D01*
X156572651Y-102273809D01*
X156530384Y-102265659D01*
X156500914Y-102258971D01*
X156489180Y-102255106D01*
X156493258Y-102249685D01*
X156513367Y-102239743D01*
X156546340Y-102226636D01*
X156589010Y-102211724D01*
X156594595Y-102209890D01*
X156661950Y-102187303D01*
X156718511Y-102167105D01*
X156762354Y-102150059D01*
X156791557Y-102136930D01*
X156804195Y-102128481D01*
X156804214Y-102126614D01*
X156793344Y-102126952D01*
X156766753Y-102130951D01*
X156728328Y-102137949D01*
X156681958Y-102147283D01*
X156677486Y-102148223D01*
X156614190Y-102161042D01*
X156542567Y-102174695D01*
X156473215Y-102187196D01*
X156435209Y-102193628D01*
X156315409Y-102213173D01*
X156227817Y-102182665D01*
X156160648Y-102157137D01*
X156086994Y-102125570D01*
X156012384Y-102090624D01*
X155942351Y-102054955D01*
X155882428Y-102021223D01*
X155852696Y-102002391D01*
X155789290Y-101954517D01*
X155723972Y-101896419D01*
X155663063Y-101834187D01*
X155612883Y-101773906D01*
X155606776Y-101765554D01*
X155586796Y-101735169D01*
X155564782Y-101697751D01*
X155542763Y-101657310D01*
X155522765Y-101617856D01*
X155506817Y-101583397D01*
X155496946Y-101557945D01*
X155495179Y-101545507D01*
X155495374Y-101545263D01*
X155505812Y-101547111D01*
X155529641Y-101555792D01*
X155562110Y-101569540D01*
X155568897Y-101572595D01*
X155637108Y-101602235D01*
X155718757Y-101635578D01*
X155808083Y-101670441D01*
X155899328Y-101704641D01*
X155986732Y-101735994D01*
X156064535Y-101762320D01*
X156095047Y-101771995D01*
X156150971Y-101788726D01*
X156214178Y-101806778D01*
X156281511Y-101825338D01*
X156349815Y-101843594D01*
X156415934Y-101860734D01*
X156476714Y-101875945D01*
X156528998Y-101888415D01*
X156569630Y-101897331D01*
X156595456Y-101901882D01*
X156601179Y-101902295D01*
X156597332Y-101898634D01*
X156576811Y-101888424D01*
X156541601Y-101872526D01*
X156493689Y-101851804D01*
X156435059Y-101827121D01*
X156367699Y-101799341D01*
X156315917Y-101778312D01*
X156207564Y-101734224D01*
X156114537Y-101695460D01*
X156033329Y-101660384D01*
X155960433Y-101627357D01*
X155892341Y-101594743D01*
X155825546Y-101560904D01*
X155756541Y-101524203D01*
X155681819Y-101483001D01*
X155673860Y-101478550D01*
X155602865Y-101438507D01*
X155547699Y-101406567D01*
X155506466Y-101381403D01*
X155477269Y-101361687D01*
X155458212Y-101346092D01*
X155447396Y-101333290D01*
X155442926Y-101321953D01*
X155442478Y-101316603D01*
X155447826Y-101298407D01*
X155462259Y-101268425D01*
X155483364Y-101231331D01*
X155500937Y-101203449D01*
X155529094Y-101162526D01*
X155565900Y-101111844D01*
X155607142Y-101057065D01*
X155648607Y-101003852D01*
X155660484Y-100989011D01*
X155668367Y-100979388D01*
X155668367Y-100396762D01*
X155663347Y-100391743D01*
X155668367Y-100386723D01*
X155673387Y-100391743D01*
X155668367Y-100396762D01*
X155668367Y-100979388D01*
X155676855Y-100969026D01*
X155676855Y-100376683D01*
X155678757Y-100369009D01*
X155693466Y-100346069D01*
X155720894Y-100307989D01*
X155760954Y-100254893D01*
X155781663Y-100227967D01*
X155808519Y-100194157D01*
X155830833Y-100167852D01*
X155845893Y-100152142D01*
X155850837Y-100149206D01*
X155846584Y-100158049D01*
X155832394Y-100179076D01*
X155810918Y-100208823D01*
X155784804Y-100243829D01*
X155756700Y-100280630D01*
X155729254Y-100315764D01*
X155705115Y-100345768D01*
X155686932Y-100367178D01*
X155677353Y-100376533D01*
X155676855Y-100376683D01*
X155676855Y-100969026D01*
X155695881Y-100945799D01*
X155735698Y-100898355D01*
X155777901Y-100848978D01*
X155820453Y-100799967D01*
X155861319Y-100753621D01*
X155898463Y-100712237D01*
X155929849Y-100678116D01*
X155953442Y-100653556D01*
X155967206Y-100640855D01*
X155969809Y-100639707D01*
X155974209Y-100649749D01*
X155984045Y-100674918D01*
X155997881Y-100711470D01*
X156014284Y-100755663D01*
X156015115Y-100757921D01*
X156111341Y-100991754D01*
X156224772Y-101217478D01*
X156354404Y-101433738D01*
X156499236Y-101639178D01*
X156658265Y-101832442D01*
X156830491Y-102012175D01*
X157014910Y-102177021D01*
X157131628Y-102268690D01*
X157164900Y-102294041D01*
X157191071Y-102314950D01*
X157206639Y-102328564D01*
X157209434Y-102332048D01*
X157200006Y-102333662D01*
X157174044Y-102333900D01*
X157174044Y-102391690D01*
X157304810Y-102392737D01*
X157415245Y-102459863D01*
X157635980Y-102582386D01*
X157865600Y-102686994D01*
X158104215Y-102773726D01*
X158351936Y-102842617D01*
X158608876Y-102893705D01*
X158785640Y-102917926D01*
X158841550Y-102922606D01*
X158912915Y-102926077D01*
X158995147Y-102928338D01*
X159083657Y-102929389D01*
X159173858Y-102929230D01*
X159261162Y-102927861D01*
X159340981Y-102925282D01*
X159408726Y-102921493D01*
X159448249Y-102917926D01*
X159711905Y-102878531D01*
X159966807Y-102821070D01*
X160212997Y-102745524D01*
X160450524Y-102651874D01*
X160679432Y-102540103D01*
X160899766Y-102410190D01*
X161111573Y-102262118D01*
X161185087Y-102204889D01*
X161245977Y-102153779D01*
X161315427Y-102091521D01*
X161389078Y-102022338D01*
X161462568Y-101950452D01*
X161531537Y-101880085D01*
X161591624Y-101815460D01*
X161616444Y-101787237D01*
X161776723Y-101585321D01*
X161919968Y-101373021D01*
X162045849Y-101151097D01*
X162154034Y-100920311D01*
X162244190Y-100681425D01*
X162315986Y-100435200D01*
X162369090Y-100182398D01*
X162395165Y-100000201D01*
X162401925Y-99925488D01*
X162406918Y-99836430D01*
X162410104Y-99738239D01*
X162411443Y-99636126D01*
X162410893Y-99535303D01*
X162408416Y-99440981D01*
X162403970Y-99358372D01*
X162400436Y-99317513D01*
X162364031Y-99057519D01*
X162309269Y-98805606D01*
X162236063Y-98561561D01*
X162144324Y-98325170D01*
X162033963Y-98096218D01*
X161904893Y-97874492D01*
X161757024Y-97659778D01*
X161668411Y-97545537D01*
X161631298Y-97501715D01*
X161584266Y-97449445D01*
X161530320Y-97391774D01*
X161472464Y-97331749D01*
X161413706Y-97272416D01*
X161357049Y-97216821D01*
X161305500Y-97168011D01*
X161262064Y-97129032D01*
X161237569Y-97108818D01*
X161211109Y-97087578D01*
X161192373Y-97071245D01*
X161185601Y-97063640D01*
X161194159Y-97058087D01*
X161218577Y-97044652D01*
X161256756Y-97024430D01*
X161306594Y-96998516D01*
X161365994Y-96968003D01*
X161432853Y-96933989D01*
X161478854Y-96910752D01*
X161620407Y-96838706D01*
X161753642Y-96769417D01*
X161877520Y-96703486D01*
X161991003Y-96641513D01*
X162093052Y-96584099D01*
X162182628Y-96531843D01*
X162258692Y-96485346D01*
X162320205Y-96445209D01*
X162366128Y-96412031D01*
X162395422Y-96386414D01*
X162403704Y-96376332D01*
X162414047Y-96358898D01*
X162413975Y-96352646D01*
G04 #@! TD*
M02*
